<?xml version="1.0" encoding="UTF-8"?>
<svg version="1.1" xmlns="http://www.w3.org/2000/svg" width="87" height="73">
<path d="M0 0 C0.66 0 1.32 0 2 0 C4.50221703 3.38009838 6.5465638 7.07083895 8.6875 10.6875 C9.30689453 11.69490234 9.92628906 12.70230469 10.56445312 13.74023438 C11.14517578 14.71669922 11.72589844 15.69316406 12.32421875 16.69921875 C12.86135498 17.59471436 13.39849121 18.49020996 13.9519043 19.4128418 C15.21997411 22.54299222 15.06858188 23.82727759 14 27 C12.78491211 29.49536133 12.78491211 29.49536133 11.27734375 32.08203125 C10.73916016 33.01337891 10.20097656 33.94472656 9.64648438 34.90429688 C9.08251953 35.86400391 8.51855469 36.82371094 7.9375 37.8125 C7.36966797 38.79154297 6.80183594 39.77058594 6.21679688 40.77929688 C4.81745173 43.18993348 3.41170071 45.5965851 2 48 C2.78648926 47.95286865 3.57297852 47.9057373 4.38330078 47.85717773 C7.96320282 47.6695535 11.54207272 47.55290103 15.125 47.4375 C16.3625 47.36208984 17.6 47.28667969 18.875 47.20898438 C27.83924583 46.99210746 27.83924583 46.99210746 31.05224609 49.78198242 C32.62613654 52.11838964 33.82677362 54.44136801 35 57 C35.76519579 58.29838573 36.54288741 59.58953156 37.3359375 60.87109375 C38.01894981 62.05798872 38.69871254 63.24676041 39.375 64.4375 C39.72949219 65.04787109 40.08398438 65.65824219 40.44921875 66.28710938 C43 70.75343871 43 70.75343871 43 73 C33.43 73 23.86 73 14 73 C12.02 69.57625 10.04 66.1525 8 62.625 C7.37351563 61.54686035 6.74703125 60.4687207 6.1015625 59.35791016 C5.61429688 58.51019043 5.12703125 57.6624707 4.625 56.7890625 C4.12226562 55.91975098 3.61953125 55.05043945 3.1015625 54.15478516 C2 52 2 52 2 50 C-0.44654882 52.24587986 -2.02923549 54.53045099 -3.6640625 57.4140625 C-4.38722656 58.67863281 -4.38722656 58.67863281 -5.125 59.96875 C-5.62 60.8453125 -6.115 61.721875 -6.625 62.625 C-7.61587956 64.36793173 -8.60800066 66.11015841 -9.6015625 67.8515625 C-10.25632568 69.00906006 -10.25632568 69.00906006 -10.92431641 70.18994141 C-12 72 -12 72 -13 73 C-15.07262076 73.08767112 -17.14820294 73.10695873 -19.22265625 73.09765625 C-21.11274414 73.09282227 -21.11274414 73.09282227 -23.04101562 73.08789062 C-24.38151109 73.07953403 -25.72200588 73.07106907 -27.0625 73.0625 C-28.40689942 73.0574866 -29.7513006 73.05292342 -31.09570312 73.04882812 C-34.39717941 73.03699488 -37.69856803 73.02050971 -41 73 C-34.35967598 52.96332395 -34.35967598 52.96332395 -28 48 C-19.34507261 45.34044078 -9.91157446 46.1888267 -1 47 C-1.36875244 46.39526855 -1.73750488 45.79053711 -2.11743164 45.16748047 C-3.78336089 42.41351672 -5.42298925 39.64476564 -7.0625 36.875 C-7.64322266 35.92367187 -8.22394531 34.97234375 -8.82226562 33.9921875 C-9.36689453 33.0640625 -9.91152344 32.1359375 -10.47265625 31.1796875 C-10.98062744 30.33132324 -11.48859863 29.48295898 -12.01196289 28.60888672 C-13.27242549 25.28066746 -12.92342962 23.40751757 -12 20 C-11.00024414 17.8059082 -11.00024414 17.8059082 -9.78515625 15.80078125 C-9.34623047 15.06666016 -8.90730469 14.33253906 -8.45507812 13.57617188 C-7.76575195 12.4556543 -7.76575195 12.4556543 -7.0625 11.3125 C-6.60681641 10.55388672 -6.15113281 9.79527344 -5.68164062 9.01367188 C-3.84384894 5.96503648 -1.97498281 2.96247421 0 0 Z " fill="#E21F26" transform="translate(41,0)"/>
</svg>
