<?xml version="1.0" encoding="UTF-8"?>
<svg version="1.1" xmlns="http://www.w3.org/2000/svg" width="826" height="898">
<path d="M0 0 C0.92280762 0.40041504 1.84561523 0.80083008 2.79638672 1.21337891 C16.97580809 7.36746093 30.58469383 14.3253002 44 22 C44.84272461 22.48194824 45.68544922 22.96389648 46.55371094 23.46044922 C71.28276205 37.71755346 94.45490054 54.29137021 116 73 C116.73476563 73.63421875 117.46953125 74.2684375 118.2265625 74.921875 C120.16188594 76.60275352 122.08183978 78.29956589 124 80 C125.08982178 80.96256714 125.08982178 80.96256714 126.20166016 81.94458008 C132.39602712 87.46153661 138.33630996 93.18432522 144.1875 99.0625 C145.03763672 99.90876953 145.88777344 100.75503906 146.76367188 101.62695312 C151.71846948 106.58940293 156.44653553 111.66882055 161 117 C161.96092938 118.09490128 162.92311558 119.18870114 163.88671875 120.28125 C171.38488352 128.86380544 178.31549571 137.77263392 185 147 C185.55445801 147.76054687 186.10891602 148.52109375 186.68017578 149.3046875 C195.95140859 162.0745481 204.24409768 175.26046007 212 189 C212.7115625 190.25031006 212.7115625 190.25031006 213.4375 191.52587891 C214.74701147 193.84124027 216.03476503 196.1669802 217.3125 198.5 C217.69188721 199.17571045 218.07127441 199.8514209 218.4621582 200.54760742 C220.63436923 204.61449502 221.15487664 207.44414567 221 212 C143.04263359 212.01713102 65.08526695 212.03303165 -12.87210083 212.04234314 C-14.02499003 212.0424812 -15.17787922 212.04261925 -16.36570445 212.04276149 C-41.41812509 212.04575406 -66.47054575 212.04852429 -91.52296644 212.05106533 C-103.80779143 212.05231272 -116.09261642 212.05360927 -128.37744141 212.05493164 C-130.21122111 212.05512778 -130.21122111 212.05512778 -132.08204688 212.05532788 C-171.7425482 212.05959297 -211.4030481 212.06710707 -251.06354856 212.07629722 C-291.80313232 212.08572033 -332.5427153 212.09188324 -373.28230014 212.09391499 C-379.02998807 212.09420317 -384.777676 212.0945288 -390.52536392 212.09487724 C-391.65664617 212.09494467 -392.78792842 212.09501209 -393.95349194 212.09508156 C-412.20014346 212.09626554 -430.44679255 212.10090968 -448.69344308 212.10683203 C-467.01559137 212.11270562 -485.33773726 212.11497142 -503.65988646 212.11350138 C-514.55954644 212.11273796 -525.45919761 212.11479378 -536.35885601 212.12079754 C-543.62681535 212.12452914 -550.89476888 212.12467664 -558.16272861 212.12183181 C-562.31222085 212.12031254 -566.46169636 212.12042538 -570.61118685 212.12488318 C-574.37869845 212.12890016 -578.1461801 212.12839893 -581.91369119 212.12413998 C-583.92239712 212.12307771 -585.93110376 212.12697138 -587.93980592 212.13100848 C-589.11683578 212.12876118 -590.29386564 212.12651389 -591.50656307 212.1241985 C-592.52698831 212.12435448 -593.54741356 212.12451046 -594.59876078 212.12467116 C-597 212 -597 212 -599 211 C-598.41417549 206.40084044 -596.47301084 202.82672197 -594.1875 198.875 C-593.59461182 197.83762695 -593.59461182 197.83762695 -592.98974609 196.77929688 C-578.64264452 171.94415997 -562.3204569 147.56540406 -543.49609375 125.89453125 C-541.17838314 123.20685744 -538.95919807 120.46442495 -536.75 117.6875 C-527.73411571 106.64503641 -517.6118195 96.53057107 -507.5625 86.4375 C-506.82974854 85.70007568 -506.09699707 84.96265137 -505.34204102 84.20288086 C-500.72306825 79.59754112 -495.94687461 75.24878182 -491 71 C-489.95185787 70.0743495 -488.90490653 69.14734819 -487.859375 68.21875 C-478.00737393 59.56251048 -467.58236638 51.73626347 -457 44 C-456.26346191 43.45811035 -455.52692383 42.9162207 -454.76806641 42.35791016 C-443.59992583 34.16862519 -431.9834709 26.93218584 -420 20 C-419.28328125 19.58041016 -418.5665625 19.16082031 -417.828125 18.72851562 C-395.27678038 5.56649964 -371.5680306 -5.21535268 -347 -14 C-345.57469971 -14.52086182 -345.57469971 -14.52086182 -344.12060547 -15.05224609 C-268.79069 -42.429484 -185.07015614 -46.99286162 0 0 Z M-235 30 C-236.51255371 30.14477783 -236.51255371 30.14477783 -238.05566406 30.29248047 C-308.68331703 37.33212706 -374.755592 67.22696025 -427 115 C-428.47339844 116.31677734 -428.47339844 116.31677734 -429.9765625 117.66015625 C-436.40565199 123.42582168 -442.3897306 129.42378856 -448 136 C-448.67071533 136.78552246 -448.67071533 136.78552246 -449.35498047 137.58691406 C-454.87001277 142.94609547 -454.87001277 142.94609547 -458 149 C-276.83 149 -95.66 149 91 149 C88.80379119 145.33965198 87.37103656 143.12094676 84.48828125 140.2578125 C83.81216797 139.58363281 83.13605469 138.90945312 82.43945312 138.21484375 C81.38661133 137.18037109 81.38661133 137.18037109 80.3125 136.125 C79.62994141 135.44308594 78.94738281 134.76117188 78.24414062 134.05859375 C73.65589125 129.509338 68.91327497 125.19448217 64 121 C63.37327393 120.46117187 62.74654785 119.92234375 62.10083008 119.3671875 C-15.33308322 53.22011632 -120.66896985 21.37160227 -235 30 Z " fill="#006500" transform="translate(605,40)"/>
<path d="M0 0 C270.6 0 541.2 0 820 0 C820 6.75510204 820 6.75510204 817.796875 10.73046875 C817.07781982 12.04362061 817.07781982 12.04362061 816.34423828 13.38330078 C815.55509033 14.77137939 815.55509033 14.77137939 814.75 16.1875 C813.93571533 17.64518799 813.93571533 17.64518799 813.10498047 19.13232422 C792.46400492 55.71149457 766.74827745 88.44157779 737.09326172 118.09204102 C735.49546107 119.69204519 733.90588449 121.29993615 732.31640625 122.90820312 C725.86664062 129.39267897 719.16670509 135.30235187 712 141 C710.90996532 141.92313439 709.82533935 142.85275708 708.75 143.79296875 C668.67716326 178.68593597 620.14046486 204.1992575 570.58203125 222.6484375 C567.89076039 223.66390066 565.26228201 224.73318825 562.625 225.875 C556.55362788 228.31463811 550.28866751 229.9459717 543.98046875 231.64453125 C539.68936443 232.80058219 535.42472482 234.03542203 531.16040039 235.28613281 C512.63686625 240.69173422 494.07964456 244.16326871 475 247 C473.6068457 247.21487061 473.6068457 247.21487061 472.18554688 247.43408203 C405.74111986 257.60733396 336.13770855 251.84755744 272 232 C271.02482422 231.70013184 270.04964844 231.40026367 269.04492188 231.09130859 C209.64094145 212.60333509 153.58498277 181.39117515 107.58203125 139.3359375 C106.1958312 138.08185637 104.80378369 136.83344807 103.37866211 135.6237793 C97.16743387 130.32742729 91.4299538 124.58152458 85.67260742 118.80297852 C83.941053 117.066064 82.20421641 115.33456111 80.46679688 113.60351562 C74.7649215 107.9053677 69.19398401 102.17192706 64 96 C63.12334452 94.99006115 62.24578971 93.98090199 61.3671875 92.97265625 C53.89155323 84.2432714 46.87280998 75.20976841 40 66 C39.46616699 65.28714844 38.93233398 64.57429687 38.38232422 63.83984375 C25.29581904 46.29031079 13.7674501 27.7928024 3.01464844 8.7355957 C2.07024341 7.1201541 1.03797917 5.55696875 0 4 C0 2.68 0 1.36 0 0 Z M141 62 C143.43423099 66.05705165 145.57778122 68.90876836 148.75 72.3125 C151.70008064 75.500971 154.62130238 78.69284299 157.4375 82 C164.33312902 89.9202154 171.93384812 97.2826145 180 104 C180.52625977 104.44537109 181.05251953 104.89074219 181.59472656 105.34960938 C227.69458951 144.27390655 284.30259748 169.01268255 343.6875 178.75 C344.89720459 178.94891846 346.10690918 179.14783691 347.35327148 179.3527832 C366.55780717 182.34015542 385.57597239 183.37852628 405 183.3125 C406.67693939 183.30976578 406.67693939 183.30976578 408.38775635 183.30697632 C425.78743409 183.25932935 442.77634543 182.63221201 460 180 C461.16966309 179.82839355 462.33932617 179.65678711 463.54443359 179.47998047 C502.21443076 173.69885464 540.65134289 162.88457784 576 146 C576.73508789 145.6498584 577.47017578 145.2997168 578.22753906 144.93896484 C582.21255661 143.02340813 586.15719847 141.039941 590.07861328 138.99755859 C592.0759144 137.96058625 594.08241284 136.94298687 596.08984375 135.92578125 C617.90668141 124.75736639 638.32422982 110.8593656 657 95 C658.01449219 94.16984375 659.02898438 93.3396875 660.07421875 92.484375 C667.73631751 86.15166959 674.84360176 79.33768182 681.875 72.3125 C682.77404053 71.41426514 683.67308105 70.51603027 684.59936523 69.59057617 C688.6648751 66.23576167 688.6648751 66.23576167 691 62 C509.5 62 328 62 141 62 Z " fill="#006500" transform="translate(6,629)"/>
<path d="M0 0 C38.93933346 -0.38922395 77.87841314 -0.68871916 116.81930368 -0.8681106 C121.41795043 -0.88937228 126.01659334 -0.91137579 130.61523438 -0.93383789 C131.53073001 -0.93829717 132.44622564 -0.94275645 133.38946356 -0.94735085 C148.20781594 -1.02129802 163.02504565 -1.15531852 177.8427323 -1.31159753 C193.05041739 -1.47065043 208.25751512 -1.56501428 223.46599782 -1.59950441 C232.84909375 -1.62281749 242.22901681 -1.69639407 251.61113568 -1.83457994 C258.04747905 -1.9245416 264.48218591 -1.95158281 270.91911213 -1.92952342 C274.63281368 -1.91864381 278.34098107 -1.93512793 282.05369377 -2.02649307 C303.69161106 -2.53348687 303.69161106 -2.53348687 309.21552515 1.69659734 C313.03161414 6.00125943 316.02133131 11.27580697 317 17 C316.38755815 20.61244185 316.38755815 20.61244185 315 22 C312.85441173 22.08775605 310.70595579 22.10695219 308.55859375 22.09765625 C307.25341797 22.09443359 305.94824219 22.09121094 304.60351562 22.08789062 C303.2148431 22.07953401 301.82617123 22.07106905 300.4375 22.0625 C299.04492344 22.05748666 297.65234519 22.05292347 296.25976562 22.04882812 C292.8398013 22.03699434 289.41992156 22.0205088 286 22 C286.02618408 22.57443848 286.05236816 23.14887695 286.0793457 23.74072266 C286.183918 26.36853171 286.24850944 28.99590231 286.3125 31.625 C286.35439453 32.52863281 286.39628906 33.43226563 286.43945312 34.36328125 C286.52149425 38.85913464 286.52013202 42.00442325 283.60546875 45.5859375 C279.24151232 49.62930343 275.54627726 49.20875395 269.8359375 49.31640625 C268.47512558 49.3475779 268.47512558 49.3475779 267.08682251 49.37937927 C264.1829602 49.44487135 261.27900595 49.50375814 258.375 49.5625 C256.40884458 49.60568555 254.44269853 49.64929985 252.4765625 49.69335938 C247.65113638 49.80055239 242.8256176 49.90182081 238 50 C238 52.97 238 55.94 238 59 C238.65895264 58.90912109 239.31790527 58.81824219 239.99682617 58.72460938 C274.90147795 53.97028677 274.90147795 53.97028677 285 61 C291.45359675 66.06517355 296.40561094 73.21683282 299 81 C299.89941439 89.44164646 298.97321142 96.01324445 294 103 C287.29333383 110.76880787 277.60059136 115.2899907 267.44921875 116.23828125 C247.42533827 116.77640534 227.61482401 107.70256194 213.07568359 94.21484375 C196.04093438 77.9859799 196.04093438 77.9859799 193 72 C193.30754489 68.78815515 193.89833143 68.09501576 196.328125 65.82421875 C197.29234375 65.11910156 198.2565625 64.41398437 199.25 63.6875 C200.20390625 62.96949219 201.1578125 62.25148438 202.140625 61.51171875 C205 60 205 60 207.5625 59.89453125 C210.99494737 61.45123414 212.66119728 63.99251091 214.75 67 C223.32822088 78.68285724 233.30606123 88.85789989 248 92 C257.39813521 93.38888698 265.99101331 93.8889608 274 88 C276.29633824 84.55549263 276.54016485 82.06187717 277 78 C276.25427734 78.12117188 275.50855469 78.24234375 274.74023438 78.3671875 C271.32782947 78.91791703 267.91396497 79.4590291 264.5 80 C262.74042969 80.28617188 262.74042969 80.28617188 260.9453125 80.578125 C250.21817219 82.26554033 239.76358629 83.79213737 230.38671875 77.1484375 C221.57215279 69.57780877 214.46569436 60.65526157 212.6875 48.94140625 C212.34916877 43.51753365 213.92289711 39.3420344 217 35 C221.19779716 30.5976698 225.26823909 27.17805843 231.48339844 26.77294922 C232.85876461 26.77326383 234.2341578 26.78444222 235.609375 26.8046875 C236.33618469 26.8075174 237.06299438 26.81034729 237.81182861 26.81326294 C240.12472251 26.82442477 242.43722388 26.84952149 244.75 26.875 C246.32160898 26.88503499 247.89322404 26.89415994 249.46484375 26.90234375 C253.31004622 26.92435096 257.15495664 26.95885285 261 27 C261 25.35 261 23.7 261 22 C237.24 22 213.48 22 189 22 C189.1973704 37.10787729 189.1973704 37.10787729 189.45043945 52.21484375 C189.46505569 54.12238154 189.47779367 56.02993504 189.48828125 57.9375 C189.51386108 58.91138672 189.53944092 59.88527344 189.5657959 60.88867188 C189.57063505 68.52292193 187.55973016 73.28022735 182.29048157 78.78637695 C176.49066615 84.3081073 170.66995081 86.14086142 162.75 86.5 C151.17819052 86.1793032 141.54928578 80.51423074 133 73 C126.36342475 65.85016443 123.67513211 60.25172836 123.8046875 50.41796875 C123.8075174 49.60378983 123.81034729 48.7896109 123.81326294 47.95075989 C123.82441416 45.362854 123.84950917 42.77530042 123.875 40.1875 C123.88503635 38.42773939 123.89416106 36.66797333 123.90234375 34.90820312 C123.92263125 30.60522543 123.96178881 26.30300482 124 22 C116.74 22 109.48 22 102 22 C102.02320313 25.52816406 102.04640625 29.05632812 102.0703125 32.69140625 C102.08592385 36.12019491 102.09806017 39.54897957 102.10986328 42.9777832 C102.11990158 45.35507997 102.13353504 47.73236445 102.15087891 50.10961914 C102.17522241 53.53274576 102.18650505 56.95570866 102.1953125 60.37890625 C102.20563507 61.43646622 102.21595764 62.49402618 102.22659302 63.58363342 C102.22850265 76.23144239 102.22850265 76.23144239 98.59765625 80.7421875 C92.99196359 84.87870371 89.31216897 85.05554887 82.5625 84.5625 C81.0430366 84.45863794 79.5235068 84.35574197 78.00390625 84.25390625 C77.33174072 84.20564697 76.6595752 84.1573877 75.96704102 84.10766602 C73.98067686 83.99894235 71.98933742 84 70 84 C70.77899658 84.45213867 71.55799316 84.90427734 72.3605957 85.37011719 C98.59351302 100.61646695 98.59351302 100.61646695 110 107.75 C110.75063721 108.21374023 111.50127441 108.67748047 112.2746582 109.15527344 C118.32383191 112.98320575 123.54188946 117.03535347 126 124 C126.42087721 132.13695935 121.73692899 137.70346862 117 144 C116.34 144.66 115.68 145.32 115 146 C110.39278792 145.78699533 107.91320834 143.61653132 104.5 140.6875 C103.12328125 139.51767578 103.12328125 139.51767578 101.71875 138.32421875 C100.8215625 137.55722656 99.924375 136.79023438 99 136 C97.33846694 134.66027486 95.67344761 133.32481269 94 132 C94.64719947 128.50512285 96.14247988 126.00290786 98 123 C96.9790625 122.44054687 95.958125 121.88109375 94.90625 121.3046875 C82.84904514 114.66757742 70.94946126 107.77785451 59.08544922 100.80224609 C55.98531501 98.99142233 52.87161824 97.20614214 49.75390625 95.42578125 C47.77340546 94.28390974 45.79293548 93.14198478 43.8125 92 C42.44109863 91.22692505 42.44109863 91.22692505 41.04199219 90.43823242 C34.33403965 86.54384404 29.48791847 83.04300902 27.38783264 75.18209839 C26.56453344 70.54989451 26.75984557 65.84928811 26.8046875 61.16015625 C26.8075174 60.03806259 26.81034729 58.91596893 26.81326294 57.75987244 C26.82441225 54.19397082 26.84950749 50.62832506 26.875 47.0625 C26.88503657 44.63737343 26.89416124 42.21224291 26.90234375 39.78710938 C26.92433441 33.85798637 26.95775973 27.92901147 27 22 C25.73833008 22.03915527 24.47666016 22.07831055 23.17675781 22.11865234 C21.51889705 22.15030881 19.86101808 22.18102135 18.203125 22.2109375 C17.37184082 22.23921631 16.54055664 22.26749512 15.68408203 22.29663086 C9.52196558 22.38023746 9.52196558 22.38023746 6.85375977 20.43652344 C5.58810777 18.35929764 4.83359029 16.28411084 4 14 C2.8757964 12.23602713 1.72932657 10.48607309 0.5625 8.75 C-1.05859375 6.296875 -1.05859375 6.296875 -2 4 C-1.05883789 1.85644531 -1.05883789 1.85644531 0 0 Z M53 22 C52.7699806 29.2813918 52.57114504 36.55013975 52.45068359 43.83227539 C52.40047332 46.30699407 52.33228753 48.78141723 52.24560547 51.25512695 C52.12390931 54.81796095 52.06751404 58.37686939 52.0234375 61.94140625 C51.97182465 63.04271378 51.92021179 64.1440213 51.86703491 65.27870178 C51.86366766 69.91759211 51.86882854 72.80792473 55.15216064 76.26803589 C58.91547993 78.98999135 62.4043601 81.11019058 67 82 C65.92044741 80.26847042 64.83617488 78.53988316 63.75 76.8125 C63.14671875 75.84957031 62.5434375 74.88664062 61.921875 73.89453125 C60.04978673 70.96046312 60.04978673 70.96046312 57.765625 68.32421875 C56 66 56 66 56 63 C65.9 62.505 65.9 62.505 76 62 C76 48.8 76 35.6 76 22 C68.41 22 60.82 22 53 22 Z M149 22 C148.87636216 27.76570815 148.78564294 33.53064422 148.7253418 39.29736328 C148.70020396 41.25876303 148.66608835 43.22006916 148.62280273 45.18115234 C148.56211792 48.00121144 148.53378359 50.82003194 148.51171875 53.640625 C148.47300911 54.95489471 148.47300911 54.95489471 148.43351746 56.29571533 C148.41809364 61.43753977 148.41809364 61.43753977 151.30395508 65.60839844 C154.03674828 67.33062327 154.03674828 67.33062327 157.625 66.625 C161.84338046 64.59392793 162.3566034 63.32530936 164 59 C164.37653574 56.09632583 164.35113385 53.24422938 164.29296875 50.3203125 C164.28872391 49.50754852 164.28447906 48.69478455 164.28010559 47.85739136 C164.26340804 45.27958041 164.22577362 42.7025718 164.1875 40.125 C164.17244158 38.36980301 164.1587552 36.61459369 164.14648438 34.859375 C164.11353392 30.57261087 164.06181453 26.28644114 164 22 C159.05 22 154.1 22 149 22 Z " fill="#006401" transform="translate(218,311)"/>
<path d="M0 0 C8.62354544 5.85656611 15.47083211 12.55933765 17.703125 23.12890625 C18.23049184 30.59594132 14.83338609 36.37230445 11.1875 42.6875 C22.36436429 46.98006382 29.09225082 46.98620432 41.1875 43.6875 C41.1875 34.7775 41.1875 25.8675 41.1875 16.6875 C33.55637052 17.04226329 33.55637052 17.04226329 25.93115234 17.49829102 C18.24947682 17.67823959 18.24947682 17.67823959 15.1784668 14.81323242 C13.63022631 12.50175122 12.38138447 10.19771176 11.1875 7.6875 C10.62160156 6.79417969 10.05570313 5.90085937 9.47265625 4.98046875 C9.06917969 4.28566406 8.66570312 3.59085937 8.25 2.875 C7.61771484 1.81345703 7.61771484 1.81345703 6.97265625 0.73046875 C6.0213238 -1.74488881 6.45810781 -2.82530183 7.1875 -5.3125 C30.29199221 -5.52271163 53.39632683 -5.68143456 76.50158119 -5.77880955 C87.2297321 -5.82522377 97.95728897 -5.88850503 108.68505859 -5.99145508 C118.0350774 -6.08114067 127.38466603 -6.13921914 136.73510301 -6.15929645 C141.68669214 -6.17103372 146.63705063 -6.19862715 151.58824539 -6.26407051 C156.24908736 -6.32517678 160.90819248 -6.34400216 165.56939697 -6.33046913 C167.27950864 -6.33294457 168.98967854 -6.35084214 170.69944382 -6.38534927 C183.62535553 -6.63342157 183.62535553 -6.63342157 187.48234177 -3.37202263 C189.04681604 -1.06565927 190.12962305 1.11667389 191.1875 3.6875 C191.96655336 4.94539983 192.75723989 6.19621346 193.5625 7.4375 C195.14199225 10.59648449 195.69562145 12.23227416 195.1875 15.6875 C194.1875 16.6875 194.1875 16.6875 191.68725586 16.80102539 C190.60323486 16.79578857 189.51921387 16.79055176 188.40234375 16.78515625 C187.23251953 16.78193359 186.06269531 16.77871094 184.85742188 16.77539062 C183.62572266 16.76701172 182.39402344 16.75863281 181.125 16.75 C179.27165039 16.74323242 179.27165039 16.74323242 177.38085938 16.73632812 C174.31635883 16.72449608 171.25195279 16.70801173 168.1875 16.6875 C168.21106567 18.06301025 168.21106567 18.06301025 168.23510742 19.46630859 C168.28666391 22.91428441 168.32405554 26.3618423 168.35229492 29.81005859 C168.36725184 31.29384889 168.38762495 32.77759599 168.41381836 34.26123047 C168.74008682 53.23598036 168.74008682 53.23598036 163.43359375 61.37890625 C162.53833984 62.30509766 162.53833984 62.30509766 161.625 63.25 C161.02558594 63.89066406 160.42617188 64.53132813 159.80859375 65.19140625 C158.1875 66.6875 158.1875 66.6875 156.1875 67.6875 C157.66876357 71.12680583 159.61177446 73.35704338 162.2578125 75.98828125 C163.0725 76.80103516 163.8871875 77.61378906 164.7265625 78.45117188 C166.00660156 79.7128418 166.00660156 79.7128418 167.3125 81 C168.14265625 81.82951172 168.9728125 82.65902344 169.828125 83.51367188 C174.24765634 87.90203098 178.73262765 92.14214088 183.49169922 96.16113281 C186.03417934 98.44958454 188.08543473 100.99422887 190.1875 103.6875 C187.31750945 109.08983516 183.15411033 115.69862989 177.1875 117.6875 C172.5932513 115.57261712 169.3234588 112.09850328 165.8203125 108.55078125 C164.92359329 107.65337471 164.92359329 107.65337471 164.00875854 106.73783875 C162.74743971 105.47350761 161.48854334 104.2067557 160.23193359 102.93774414 C158.33085135 101.01852642 156.42201117 99.10731155 154.51171875 97.19726562 C149.03146699 91.70080674 143.59323749 86.2127693 138.56201172 80.29614258 C136.52249097 77.90921501 134.34418665 75.65583802 132.1875 73.375 C126.73762912 67.36766142 120.67588685 60.66563364 118.9375 52.5 C119.26725893 47.47117631 120.53205754 44.20941032 124.1875 40.6875 C127.47677432 38.92221378 129.24631331 38.89493088 133.1875 38.6875 C137.6425 40.6675 137.6425 40.6675 142.1875 42.6875 C142.1875 34.1075 142.1875 25.5275 142.1875 16.6875 C130.9675 16.6875 119.7475 16.6875 108.1875 16.6875 C108.19273682 19.65097412 108.19797363 22.61444824 108.20336914 25.66772461 C108.21990332 35.43465538 108.23097053 45.20158676 108.23931217 54.96852779 C108.24454149 60.89300715 108.25164001 66.81747222 108.26293945 72.74194336 C108.27376661 78.45422571 108.27977647 84.16649428 108.28237724 89.87878609 C108.2842318 92.06338277 108.287853 94.24797865 108.29323006 96.4325695 C108.30043821 99.48102349 108.30149104 102.52941979 108.30102539 105.57788086 C108.30462067 106.49065796 108.30821594 107.40343506 108.31192017 108.34387207 C108.30155216 114.57344784 108.30155216 114.57344784 107.1875 115.6875 C101.12624585 115.3758674 96.96885304 113.25472289 91.8125 110.1875 C91.08933594 109.77113281 90.36617187 109.35476563 89.62109375 108.92578125 C84.39742606 105.89742606 84.39742606 105.89742606 83.1875 104.6875 C83.09233789 101.9486158 83.06195406 99.23502059 83.07397461 96.49584961 C83.07382858 95.63738937 83.07368256 94.77892914 83.0735321 93.89445496 C83.07423153 91.04289262 83.0820253 88.19139475 83.08984375 85.33984375 C83.09170782 83.36829158 83.09313178 81.39673895 83.09413147 79.42518616 C83.09795749 74.22523733 83.10778848 69.02531625 83.11883545 63.82537842 C83.12904778 58.52356339 83.13362871 53.2217439 83.13867188 47.91992188 C83.14941067 37.50910237 83.16648809 27.09830349 83.1875 16.6875 C77.9075 16.6875 72.6275 16.6875 67.1875 16.6875 C67.19194122 17.89828217 67.19638245 19.10906433 67.20095825 20.35653687 C67.2414359 31.74619898 67.27145142 43.13584657 67.29112434 54.52556419 C67.30157824 60.38165653 67.31576667 66.23769098 67.33837891 72.09375 C67.3600501 77.74120277 67.37205651 83.38859972 67.37725449 89.03609085 C67.38096056 91.19474797 67.38819719 93.3534019 67.39896011 95.51203537 C67.41339897 98.5268091 67.41548114 101.54134981 67.41455078 104.55615234 C67.42174133 105.45598343 67.42893188 106.35581451 67.43634033 107.28291321 C67.41560432 113.45939568 67.41560432 113.45939568 65.1875 115.6875 C59.14132339 115.50474403 54.93506016 113.23462142 49.8125 110.1875 C49.08933594 109.77113281 48.36617187 109.35476563 47.62109375 108.92578125 C42.39742606 105.89742606 42.39742606 105.89742606 41.1875 104.6875 C41.08711125 102.38196821 41.05668429 100.07334048 41.0546875 97.765625 C41.05373077 97.06862488 41.05277405 96.37162476 41.05178833 95.65350342 C41.05110632 94.17394928 41.05296207 92.69439218 41.05712891 91.21484375 C41.06244489 88.96086793 41.05720141 86.70709432 41.05078125 84.453125 C41.05144266 83.01562456 41.05272511 81.57812425 41.0546875 80.140625 C41.05581543 78.83254883 41.05694336 77.52447266 41.05810547 76.17675781 C41.16841281 73.20220579 41.49041985 70.57134896 42.1875 67.6875 C41.1975 68.1825 41.1975 68.1825 40.1875 68.6875 C34.47475709 69.18780131 29.59103883 68.52700258 24.1875 66.6875 C24.290625 67.96625 24.39375 69.245 24.5 70.5625 C24.47609684 78.16370609 20.86555093 84.24299958 15.6875 89.625 C7.4207349 97.16753995 -2.42274613 99.33710135 -13.4765625 99.03515625 C-28.87299001 97.43061053 -40.05947014 89.31716623 -49.8125 77.6875 C-64.84323924 57.93341393 -64.84323924 57.93341393 -63.8125 49.6875 C-62.09093904 48.67446238 -60.35988194 47.67755152 -58.625 46.6875 C-57.66207031 46.130625 -56.69914063 45.57375 -55.70703125 45 C-52.76361257 43.66533242 -50.99369943 43.40834539 -47.8125 43.6875 C-47.255625 44.72648437 -46.69875 45.76546875 -46.125 46.8359375 C-37.03044985 64.08563143 -37.03044985 64.08563143 -21.5 75 C-15.68068437 76.08495715 -9.96407034 75.83866933 -4.8125 72.6875 C-1.36606463 67.99651853 -0.2243518 64.53119384 -0.47265625 58.7109375 C-0.91503462 56.07700651 -1.89384009 54.52621574 -3.8125 52.6875 C-8.50949361 53.63134032 -13.0025769 54.70758803 -17.5 56.375 C-21.3872937 57.67973179 -23.83590582 58.12584258 -27.8125 56.6875 C-32.95169884 53.60197711 -37.13563697 50.15276201 -39.8125 44.6875 C-40.3125 41.0625 -40.3125 41.0625 -39.8125 37.6875 C-36.95258204 34.0512238 -34.78088482 33.12961474 -30.25 32.5625 C-29.19683594 32.41296875 -28.14367187 32.2634375 -27.05859375 32.109375 C-25.98738281 31.97015625 -24.91617188 31.8309375 -23.8125 31.6875 C-16.53888141 30.90523699 -16.53888141 30.90523699 -10.1875 27.6875 C-7.58157949 23.89707017 -7.5701813 21.29155523 -7.8125 16.6875 C-8.4725 15.6975 -9.1325 14.7075 -9.8125 13.6875 C-18.15897853 12.64419018 -24.79882434 16.03744355 -32 19.9375 C-35.7504166 21.83539227 -38.57618474 22.40687429 -42.8125 21.6875 C-48.4448803 17.84099638 -51.44656081 10.93144477 -53.8125 4.6875 C-53.4825 3.6975 -53.1525 2.7075 -52.8125 1.6875 C-50.12974164 0.35649613 -47.52949775 -0.78798027 -44.75 -1.875 C-44.01072266 -2.17857422 -43.27144531 -2.48214844 -42.50976562 -2.79492188 C-27.11774203 -8.97597072 -14.45635893 -8.79263475 0 0 Z " fill="#016401" transform="translate(630.8125,316.3125)"/>
<path d="M0 0 C11.8080113 9.92299745 17.66788521 23.14373132 20.34375 38.1171875 C21.38273438 37.99214844 22.42171875 37.86710937 23.4921875 37.73828125 C27.95866696 37.45376822 32.17159828 37.30918864 36.34375 39.1171875 C40.98970724 43.52836869 44.33353943 50.0666015 46.34375 56.1171875 C46.34375 57.4371875 46.34375 58.7571875 46.34375 60.1171875 C43.94315183 61.31748658 42.45014351 61.23178493 39.7734375 61.21484375 C38.87753906 61.21162109 37.98164063 61.20839844 37.05859375 61.20507812 C35.65287109 61.19250977 35.65287109 61.19250977 34.21875 61.1796875 C33.27386719 61.17517578 32.32898438 61.17066406 31.35546875 61.16601562 C29.01816613 61.15421107 26.68098939 61.13774509 24.34375 61.1171875 C24.34597061 62.34271835 24.34819122 63.56824921 24.35047913 64.83091736 C24.37070863 76.35334663 24.38572121 87.87577232 24.39556217 99.39821529 C24.40079149 105.32269465 24.40789001 111.24715972 24.41918945 117.17163086 C24.43001661 122.88391321 24.43602647 128.59618178 24.43862724 134.30847359 C24.4404818 136.49307027 24.444103 138.67766615 24.44948006 140.862257 C24.45668821 143.91071099 24.45774104 146.95910729 24.45727539 150.00756836 C24.46087067 150.92034546 24.46446594 151.83312256 24.46817017 152.77355957 C24.45780216 159.00313534 24.45780216 159.00313534 23.34375 160.1171875 C17.22155427 161.03310655 13.11130566 158.16579881 8.03125 155.1796875 C6.79665039 154.47682617 6.79665039 154.47682617 5.53710938 153.75976562 C-0.43605212 150.33738538 -0.43605212 150.33738538 -1.65625 149.1171875 C-1.75868427 146.46781219 -1.7956951 143.84523783 -1.7890625 141.1953125 C-1.79038177 140.36338882 -1.79170105 139.53146515 -1.7930603 138.67433167 C-1.79500148 135.90524771 -1.7885727 133.1362615 -1.78125 130.3671875 C-1.77992065 128.95256729 -1.77992065 128.95256729 -1.77856445 127.5093689 C-1.75431354 105.37131578 -1.23723597 83.24652801 -0.65625 61.1171875 C-6.92625 61.1171875 -13.19625 61.1171875 -19.65625 61.1171875 C-19.65101318 64.08066162 -19.64577637 67.04413574 -19.64038086 70.09741211 C-19.62384668 79.86434288 -19.61277947 89.63127426 -19.60443783 99.39821529 C-19.59920851 105.32269465 -19.59210999 111.24715972 -19.58081055 117.17163086 C-19.56998339 122.88391321 -19.56397353 128.59618178 -19.56137276 134.30847359 C-19.5595182 136.49307027 -19.555897 138.67766615 -19.55051994 140.862257 C-19.54331179 143.91071099 -19.54225896 146.95910729 -19.54272461 150.00756836 C-19.53912933 150.92034546 -19.53553406 151.83312256 -19.53182983 152.77355957 C-19.54219784 159.00313534 -19.54219784 159.00313534 -20.65625 160.1171875 C-26.71750415 159.8055549 -30.87489696 157.68441039 -36.03125 154.6171875 C-36.75441406 154.20082031 -37.47757812 153.78445313 -38.22265625 153.35546875 C-43.44632394 150.32711356 -43.44632394 150.32711356 -44.65625 149.1171875 C-44.74310603 147.55546005 -44.76327219 145.98989406 -44.75390625 144.42578125 C-44.74907227 143.00942383 -44.74907227 143.00942383 -44.74414062 141.56445312 C-44.73157227 140.07461914 -44.73157227 140.07461914 -44.71875 138.5546875 C-44.71423828 137.55759766 -44.70972656 136.56050781 -44.70507812 135.53320312 C-44.69325007 133.06113901 -44.67676849 130.58919232 -44.65625 128.1171875 C-45.37707764 128.41423584 -46.09790527 128.71128418 -46.84057617 129.01733398 C-60.02880339 134.34959942 -72.49905899 133.96332331 -85.78125 129.0546875 C-96.11945726 124.48254072 -104.48413889 115.91958872 -108.828125 105.5078125 C-111.04899308 99.0966273 -111.19215404 93.66896516 -108.72265625 87.3125 C-104.05026635 77.6938805 -96.70714963 72.3493124 -86.78125 68.7421875 C-75.65929222 65.61862944 -61.30358001 65.08352759 -50.65625 70.1171875 C-49.00625 71.1071875 -47.35625 72.0971875 -45.65625 73.1171875 C-45.32625 69.1571875 -44.99625 65.1971875 -44.65625 61.1171875 C-45.6075882 61.137173 -46.55892639 61.15715851 -47.53909302 61.17774963 C-56.51372102 61.36035993 -65.48797131 61.49518391 -74.46403694 61.58349705 C-79.07870144 61.63042851 -83.69186406 61.69405424 -88.30566406 61.79614258 C-92.76024948 61.89408876 -97.21339278 61.94777557 -101.66897202 61.97108269 C-103.36680689 61.98768607 -105.06456454 62.02011248 -106.7617836 62.06875801 C-120.07606059 62.43511873 -120.07606059 62.43511873 -124.00556946 59.15777588 C-125.56771711 56.85169903 -126.64823168 54.70581147 -127.65625 52.1171875 C-128.22214844 51.14007813 -128.78804687 50.16296875 -129.37109375 49.15625 C-129.77457031 48.35960937 -130.17804688 47.56296875 -130.59375 46.7421875 C-131.01527344 45.93007813 -131.43679687 45.11796875 -131.87109375 44.28125 C-132.65625 42.1171875 -132.65625 42.1171875 -131.65625 39.1171875 C-88.09625 39.1171875 -44.53625 39.1171875 0.34375 39.1171875 C-3.87614601 26.82014216 -3.87614601 26.82014216 -12.59375 18.1171875 C-16.2168229 16.93414329 -18.87169367 16.61734044 -22.65625 17.1171875 C-25.94268836 20.31126694 -26.00648806 23.18029102 -26.28125 27.6171875 C-27.07117518 33.57509777 -27.07117518 33.57509777 -29.5703125 35.890625 C-33.04461139 37.52900675 -36.08809186 38.07348303 -39.90625 38.3671875 C-45.15571293 35.98106799 -46.94610109 30.86028027 -49.03125 25.7421875 C-50.22892759 18.79565748 -49.49466993 12.19607039 -46.0078125 6 C-35.44494324 -8.71474851 -14.36932945 -10.18531882 0 0 Z M-64.65625 87.1171875 C-61.32005014 93.36149078 -57.66854308 99.28488519 -53.65625 105.1171875 C-51.40719652 103.7077602 -51.40719652 103.7077602 -49.65625 101.1171875 C-49.1646299 96.41168084 -50.08371712 92.99387848 -52.65625 89.0546875 C-56.72521357 86.42681519 -59.94568123 86.65536703 -64.65625 87.1171875 Z M-82.65625 95.1171875 C-85.38750232 97.73463764 -85.96330393 99.95724165 -86.15625 103.6171875 C-86.04372696 107.21792492 -85.90308025 107.85034399 -83.34375 110.6171875 C-78.93606348 113.0772916 -75.6449551 113.21131401 -70.65625 113.1171875 C-72.0859447 109.02915423 -74.08038355 105.90047814 -76.65625 102.4296875 C-77.708125 101.00076172 -77.708125 101.00076172 -78.78125 99.54296875 C-80.58321491 97.10553729 -80.58321491 97.10553729 -82.65625 95.1171875 Z " fill="#016401" transform="translate(138.65625,271.8828125)"/>
<path d="M0 0 C13.32375 -0.04125 26.6475 -0.0825 40.375 -0.125 C46.65990479 -0.15231201 46.65990479 -0.15231201 53.07177734 -0.18017578 C58.23168945 -0.18920898 58.23168945 -0.18920898 60.65567017 -0.19088745 C62.33024156 -0.19393652 64.00480887 -0.20092427 65.67935181 -0.21115112 C81.08887517 -0.30046659 95.93903716 0.09654561 107.9375 11.3125 C114.91145914 18.98556017 117.38057611 26.63868968 117.28125 36.83203125 C116.61864342 44.29555815 113.11590204 51.52264836 108 57 C105.74230614 58.85319037 103.45962361 60.40847884 101 62 C101.66386719 62.38671875 102.32773438 62.7734375 103.01171875 63.171875 C112.68775165 68.87861557 120.19391669 74.26094501 123.4921875 85.42578125 C125.57202071 95.96893573 124.04993947 106.27458239 118.4921875 115.50390625 C111.35781758 125.309517 102.14157715 131.28001262 90.20629883 133.52563477 C84.62561408 134.35128545 79.00725678 134.39850698 73.375 134.5625 C72.6917868 134.58334656 72.00857361 134.60419312 71.30465698 134.62567139 C56.22673519 135.07104075 41.14598579 135.10935725 26.0625 135.125 C24.88524353 135.1275882 23.70798706 135.13017639 22.49505615 135.13284302 C19.13339165 135.1386769 15.77182139 135.13712704 12.41015625 135.1328125 C11.38766281 135.13479141 10.36516937 135.13677032 9.31169128 135.1388092 C8.37617935 135.13570236 7.44066742 135.13259552 6.47680664 135.12939453 C5.65700821 135.12859894 4.83720978 135.12780334 3.99256897 135.12698364 C2 135 2 135 0 134 C0 89.78 0 45.56 0 0 Z M33 25 C33 33.91 33 42.82 33 52 C38.10509379 52.0692303 43.20852985 52.128853 48.3137207 52.16479492 C50.04685006 52.17979269 51.77994204 52.20019772 53.51293945 52.22631836 C56.01783525 52.26310203 58.5222252 52.27981651 61.02734375 52.29296875 C62.17166115 52.31619453 62.17166115 52.31619453 63.33909607 52.33988953 C69.33525555 52.34172537 75.77086426 51.52178257 80.63291931 47.72477722 C83.97373374 44.12077853 85 40.83581981 85 36 C83.55336018 31.43166373 82.24699322 28.38893368 78 26 C75.24414648 25.08138216 73.6403931 24.87795678 70.80395508 24.88647461 C69.54298759 24.88658791 69.54298759 24.88658791 68.25654602 24.88670349 C67.35333115 24.89186478 66.45011627 24.89702606 65.51953125 24.90234375 C64.59154221 24.9037587 63.66355316 24.90517365 62.70744324 24.90663147 C59.74242942 24.91223063 56.77749101 24.92478296 53.8125 24.9375 C51.80273547 24.94251511 49.79296975 24.947078 47.78320312 24.95117188 C42.8554163 24.96134905 37.9277926 24.98092467 33 25 Z M33 77 C33 87.56 33 98.12 33 109 C38.97781594 109.06909291 44.95423095 109.12876033 50.93212891 109.16479492 C52.9631013 109.17982599 54.99404154 109.20025647 57.02490234 109.22631836 C59.95418259 109.26295232 62.88303144 109.27978351 65.8125 109.29296875 C66.71178223 109.30845261 67.61106445 109.32393646 68.53759766 109.33988953 C74.62791865 109.34149367 80.8180086 108.88713109 85.56152344 104.58317566 C88.57092011 101.1206141 89.86594596 98.36735123 90.3125 93.8125 C89.92701969 89.10964024 88.90160705 85.74926754 86 82 C78.8787093 76.51723636 69.71057648 76.84464801 61.125 76.90234375 C59.91009888 76.90446617 59.91009888 76.90446617 58.6706543 76.90663147 C56.11373006 76.91217617 53.55689724 76.92471793 51 76.9375 C49.25390753 76.94252216 47.50781366 76.94708381 45.76171875 76.95117188 C41.50774995 76.96127152 37.25397588 76.98085711 33 77 Z " fill="#016401" transform="translate(12,474)"/>
<path d="M0 0 C13.550625 -0.061875 27.10125 -0.12375 41.0625 -0.1875 C45.31133057 -0.21481201 49.56016113 -0.24212402 53.93774414 -0.27026367 C59.20202637 -0.28381348 59.20202637 -0.28381348 61.68113708 -0.28633118 C63.38050202 -0.29088123 65.07985844 -0.3013117 66.77915955 -0.31672668 C82.80612747 -0.4546056 98.7238418 -0.32896448 111.24609375 11.0390625 C118.62833988 18.70576216 121.52694248 27.14066597 122.25 37.625 C122.03757365 47.7442187 118.87605024 56.54232897 112 64 C105.03850524 70.08546774 96.97693332 73.90948128 88 76 C88.67804688 76.43828125 89.35609375 76.8765625 90.0546875 77.328125 C102.605629 85.88084414 110.40250117 97.72125208 118.72265625 110.14453125 C120.86806404 113.34696668 123.05915078 116.50650609 125.30859375 119.63671875 C125.82558838 120.3627832 126.34258301 121.08884766 126.87524414 121.83691406 C127.85307209 123.20647806 128.84014875 124.56949981 129.83764648 125.92480469 C131.1484375 127.77734375 131.1484375 127.77734375 133 131 C132.61572266 133.20141602 132.61572266 133.20141602 132 135 C127.10707468 135.09911652 122.21473779 135.17158399 117.32104492 135.21972656 C115.65752987 135.23980207 113.99408504 135.26706876 112.33081055 135.30175781 C109.9352076 135.35045766 107.54054008 135.37300856 105.14453125 135.390625 C104.03486748 135.42159271 104.03486748 135.42159271 102.90278625 135.45318604 C99.26616583 135.45475484 97.21594883 135.13904335 94.12963867 133.15185547 C91.59495415 130.59072864 89.52225843 127.84168489 87.5 124.875 C86.6269053 123.62588024 85.75317453 122.3772049 84.87890625 121.12890625 C84.18498779 120.13141357 84.18498779 120.13141357 83.47705078 119.11376953 C69.76442247 96.54076243 69.76442247 96.54076243 50 81 C48.66709486 80.79168543 47.32886749 80.61603769 45.98828125 80.46484375 C45.23095703 80.37783203 44.47363281 80.29082031 43.69335938 80.20117188 C42.90767578 80.11416016 42.12199219 80.02714844 41.3125 79.9375 C40.51521484 79.84662109 39.71792969 79.75574219 38.89648438 79.66210938 C36.931315 79.43852723 34.9656983 79.21888316 33 79 C33.00222061 79.68682358 33.00444122 80.37364716 33.00672913 81.08128357 C33.02877895 88.20205162 33.04390533 95.32281004 33.05493164 102.44360352 C33.05997383 105.10441481 33.06680736 107.76522332 33.07543945 110.42602539 C33.08751009 114.24105516 33.09322929 118.05604844 33.09765625 121.87109375 C33.10281754 123.06899033 33.10797882 124.2668869 33.11329651 125.50108337 C33.11337204 126.6021492 33.11344757 127.70321503 33.11352539 128.83764648 C33.115746 129.81249496 33.11796661 130.78734344 33.12025452 131.79173279 C33 134 33 134 32 135 C29.88992912 135.10008391 27.77650467 135.13081127 25.6640625 135.1328125 C24.37242187 135.13410156 23.08078125 135.13539063 21.75 135.13671875 C20.73486328 135.13357666 20.73486328 135.13357666 19.69921875 135.13037109 C17.64054936 135.12504026 15.5820999 135.13030701 13.5234375 135.13671875 C12.22921875 135.13542969 10.935 135.13414062 9.6015625 135.1328125 C7.81226318 135.13112061 7.81226318 135.13112061 5.98681641 135.12939453 C3 135 3 135 0 134 C0 89.78 0 45.56 0 0 Z M33 25 C33 34.9 33 44.8 33 55 C38.71106009 55.04603631 44.42147023 55.08582465 50.13256836 55.10986328 C52.07334582 55.1198898 54.0141083 55.13351443 55.95483398 55.15087891 C58.75247916 55.17527489 61.54992371 55.18651681 64.34765625 55.1953125 C65.63870018 55.21079636 65.63870018 55.21079636 66.95582581 55.22659302 C72.63791843 55.22763937 78.21819737 55.05033262 82.9609375 51.5546875 C86.58158252 47.25392131 88.45726234 43.71577928 88 38 C87.08199015 33.24540184 85.79849489 30.6487771 82 27.5625 C78.37387707 25.67389431 75.74404422 24.8746509 71.7121582 24.88647461 C70.85149246 24.88655014 69.99082672 24.88662567 69.1040802 24.88670349 C68.17899155 24.89186478 67.25390289 24.89702606 66.30078125 24.90234375 C65.35059616 24.9037587 64.40041107 24.90517365 63.4214325 24.90663147 C60.38508971 24.91223125 57.34882052 24.92478368 54.3125 24.9375 C52.25455836 24.94251503 50.19661556 24.94707793 48.13867188 24.95117188 C43.09239671 24.96134992 38.0462808 24.98092544 33 25 Z " fill="#006401" transform="translate(693,474)"/>
<path d="M0 0 C10.56 0 21.12 0 32 0 C37.00466782 6.88141826 41.88753502 13.70872396 46.52734375 20.8203125 C47.11939102 21.72208221 47.71143829 22.62385193 48.32142639 23.552948 C50.19602014 26.40862388 52.06713228 29.26655478 53.9375 32.125 C64.4608688 48.2000673 75.1939458 64.10874383 86 80 C86.33 53.6 86.66 27.2 87 0 C97.23 0 107.46 0 118 0 C118.02254656 17.45416036 118.0409789 34.90830835 118.05181217 52.36247921 C118.05697525 60.46618609 118.06401816 68.56988331 118.07543945 76.67358398 C118.08538594 83.73422122 118.09185334 90.79485146 118.09408849 97.85549551 C118.09539566 101.59634458 118.09848189 105.33717362 118.10573006 109.07801628 C118.11374324 113.24725113 118.11399116 117.41645084 118.11352539 121.58569336 C118.11712067 122.83509705 118.12071594 124.08450073 118.12442017 125.37176514 C118.1230455 126.50063644 118.12167084 127.62950775 118.12025452 128.79258728 C118.12117631 129.77982757 118.1220981 130.76706785 118.12304783 131.78422451 C118 134 118 134 117 135 C112.79884778 135.29062261 108.59173992 135.31405729 104.38183594 135.35009766 C102.96760557 135.36661753 101.55345734 135.39385597 100.13964844 135.43212891 C98.09786806 135.48711831 96.05804781 135.50880445 94.015625 135.5234375 C92.17919434 135.5531665 92.17919434 135.5531665 90.30566406 135.58349609 C84.48586541 134.55621997 82.15074487 130.30143195 78.92895508 125.72314453 C77.78670796 124.03024778 76.65056731 122.3332199 75.51953125 120.6328125 C74.90663742 119.72103241 74.29374359 118.80925232 73.66227722 117.86984253 C71.70705517 114.9584068 69.75969453 112.04180907 67.8125 109.125 C66.52329814 107.20278172 65.2335892 105.28090344 63.94335938 103.359375 C58.98588244 95.97100067 54.03921874 88.57544589 49.12142944 81.1605835 C43.49708571 72.70822557 37.75575323 64.3720047 32 56 C31.67 81.74 31.34 107.48 31 134 C28.25475448 135.37262276 26.03780705 135.1296881 22.96875 135.1328125 C21.16470703 135.13474609 21.16470703 135.13474609 19.32421875 135.13671875 C18.06222656 135.13285156 16.80023438 135.12898437 15.5 135.125 C13.60701172 135.13080078 13.60701172 135.13080078 11.67578125 135.13671875 C10.47308594 135.13542969 9.27039063 135.13414062 8.03125 135.1328125 C6.92330078 135.13168457 5.81535156 135.13055664 4.67382812 135.12939453 C2 135 2 135 0 134 C0 89.78 0 45.56 0 0 Z " fill="#006401" transform="translate(349,474)"/>
<path d="M0 0 C11.92125 -0.061875 23.8425 -0.12375 36.125 -0.1875 C39.86086426 -0.21481201 43.59672852 -0.24212402 47.44580078 -0.27026367 C52.07983398 -0.28381348 52.07983398 -0.28381348 54.26315308 -0.28633118 C55.75756527 -0.2908768 57.25196791 -0.30129752 58.74630737 -0.31672668 C76.8036042 -0.49351721 92.1780903 1.83938593 105.75 14.75390625 C106.4925 15.49511719 107.235 16.23632812 108 17 C108.5775 17.56589844 109.155 18.13179688 109.75 18.71484375 C124.09189376 33.99045455 124.86123626 55.43312087 124.37890625 75.12890625 C123.60770322 92.94393794 117.30662621 108.71696042 104 121 C101.11123347 123.22068046 98.14164929 125.15972733 95 127 C93.85917969 127.75603516 93.85917969 127.75603516 92.6953125 128.52734375 C89.45020597 130.30039471 86.18878514 131.24635475 82.625 132.125 C81.35914063 132.45757813 80.09328125 132.79015625 78.7890625 133.1328125 C64.25920317 136.10138037 48.85148252 135.15490678 34.10742188 135.13037109 C30.21740933 135.12495462 26.32750929 135.1303721 22.4375 135.13671875 C19.96354141 135.13605892 17.48958289 135.13477974 15.015625 135.1328125 C13.27203705 135.13584885 13.27203705 135.13584885 11.4932251 135.13894653 C10.42070496 135.13579437 9.34818481 135.13264221 8.24316406 135.12939453 C7.30023499 135.12859894 6.35730591 135.12780334 5.38580322 135.12698364 C3 135 3 135 0 134 C0 89.78 0 45.56 0 0 Z M33 25 C33 52.72 33 80.44 33 109 C58.15644499 111.24215016 58.15644499 111.24215016 82 102 C89.05175385 90.82907262 90.35039705 80.08578943 90.3125 67.125 C90.32861328 66.03058594 90.34472656 64.93617188 90.36132812 63.80859375 C90.36820936 52.17929961 88.59687144 40.92130774 80.33203125 32.25 C67.85883098 20.79558209 48.20811278 25 33 25 Z " fill="#006400" transform="translate(493,474)"/>
<path d="M0 0 C1.43352212 0.00015908 2.86704998 0.00585132 4.30053711 0.01586914 C5.43041298 0.01799156 5.43041298 0.01799156 6.58311462 0.02015686 C8.99807646 0.02577163 11.41294687 0.03832656 13.82788086 0.05102539 C15.46134307 0.05603849 17.09480672 0.06060173 18.72827148 0.06469727 C22.74067671 0.07574585 26.75301326 0.09302033 30.76538086 0.11352539 C35.09764057 8.4681761 38.94037614 16.96602862 42.59893799 25.63150024 C44.22064209 29.47061334 45.85628499 33.3037786 47.49194336 37.13696289 C47.83607269 37.9438002 48.18020203 38.75063751 48.53475952 39.58192444 C52.58501781 49.05987876 56.73679083 58.49301541 60.89038086 67.92602539 C62.40894493 71.37639894 63.92717606 74.82691877 65.44506836 78.27758789 C65.81206848 79.11187317 66.1790686 79.94615845 66.55718994 80.8057251 C70.06851003 88.79322895 73.54904662 96.79391019 77.01538086 104.80102539 C77.51569824 105.95642822 78.01601563 107.11183105 78.53149414 108.30224609 C79.46986636 110.47217206 80.40662522 112.64279662 81.34155273 114.81420898 C82.37343222 117.20529599 83.41136572 119.59323628 84.45483398 121.97924805 C85.01152898 123.25966061 85.5681709 124.54009624 86.12475586 125.82055664 C86.62974609 126.976604 87.13473633 128.13265137 87.6550293 129.32373047 C88.76538086 132.11352539 88.76538086 132.11352539 88.76538086 134.11352539 C84.26646079 136.36298542 78.11335649 135.34074466 73.10742188 135.35375977 C70.84004137 135.36347329 68.57356447 135.39449932 66.30639648 135.42602539 C64.86694875 135.43255482 63.42749452 135.43780553 61.98803711 135.44165039 C60.67585205 135.45099609 59.36366699 135.4603418 58.01171875 135.4699707 C54.76538086 135.11352539 54.76538086 135.11352539 52.98266602 133.96679688 C51.33701776 131.46135846 50.21472524 128.90312065 49.06616211 126.13305664 C48.62699463 125.08480713 48.18782715 124.03655762 47.73535156 122.95654297 C47.18838623 121.62647217 46.6414209 120.29640137 46.07788086 118.92602539 C44.32475586 114.69790039 42.57163086 110.46977539 40.76538086 106.11352539 C23.27538086 105.78352539 5.78538086 105.45352539 -12.23461914 105.11352539 C-15.56253113 111.72027896 -15.56253113 111.72027896 -18.30493164 118.45336914 C-18.64395508 119.37053711 -18.98297852 120.28770508 -19.33227539 121.23266602 C-20.02688613 123.13822363 -20.71954265 125.04449455 -21.41040039 126.95141602 C-21.7468457 127.85956055 -22.08329102 128.76770508 -22.42993164 129.70336914 C-22.72915527 130.52699951 -23.02837891 131.35062988 -23.33666992 132.19921875 C-24.23461914 134.11352539 -24.23461914 134.11352539 -26.23461914 135.11352539 C-28.53504661 135.21140806 -30.83836107 135.24430182 -33.14086914 135.24633789 C-33.82137329 135.24729462 -34.50187744 135.24825134 -35.20300293 135.24923706 C-36.64209078 135.2499177 -38.08118171 135.24807146 -39.52026367 135.24389648 C-41.72590007 135.23854654 -43.93133284 135.2438453 -46.13696289 135.25024414 C-47.53409876 135.24958334 -48.9312345 135.24830213 -50.32836914 135.24633789 C-51.60389648 135.24520996 -52.87942383 135.24408203 -54.19360352 135.24291992 C-57.23461914 135.11352539 -57.23461914 135.11352539 -59.23461914 134.11352539 C-58.62853641 128.90560874 -56.95838112 124.66692779 -54.86743164 119.92211914 C-54.52122269 119.12132431 -54.17501373 118.32052948 -53.8183136 117.49546814 C-53.06639219 115.75799982 -52.31148163 114.02182272 -51.55392456 112.2868042 C-49.49003694 107.55908553 -47.44842553 102.8217316 -45.40258789 98.08618164 C-44.97601395 97.10061279 -44.54944 96.11504395 -44.10993958 95.09960938 C-39.96728478 85.52062301 -35.90193698 75.9097239 -31.85217285 66.29116821 C-29.88936762 61.6294804 -27.92307522 56.9692635 -25.95727539 52.30883789 C-25.57038544 51.39143326 -25.18349548 50.47402863 -24.78488159 49.52882385 C-20.7796142 40.03224591 -16.76974073 30.53763468 -12.74710083 21.04840088 C-11.99300907 19.26846676 -11.23980458 17.48815646 -10.48751831 15.7074585 C-9.45497818 13.26371546 -8.41942667 10.82127115 -7.38305664 8.37915039 C-7.07673813 7.65235077 -6.77041962 6.92555115 -6.45481873 6.17672729 C-3.88438081 0.13633007 -3.88438081 0.13633007 0 0 Z M12.76538086 38.11352539 C10.48455148 43.79095556 8.20594898 49.46927223 5.92944336 55.1484375 C5.15402018 57.08195389 4.37797943 59.01522271 3.60131836 60.94824219 C2.48772917 63.72014182 1.37633415 66.4929122 0.26538086 69.26586914 C-0.08459961 70.13565903 -0.43458008 71.00544891 -0.79516602 71.90159607 C-1.11549805 72.70235062 -1.43583008 73.50310516 -1.76586914 74.328125 C-2.05010742 75.03650009 -2.3343457 75.74487518 -2.62719727 76.47471619 C-3.29254306 77.97850975 -3.29254306 77.97850975 -3.23461914 79.11352539 C7.65538086 79.11352539 18.54538086 79.11352539 29.76538086 79.11352539 C27.95694443 73.08540397 26.28378079 67.59961402 23.91772461 61.86352539 C23.66036026 61.23873291 23.40299591 60.61394043 23.13783264 59.97021484 C22.60159822 58.67210768 22.06297486 57.3749848 21.52197266 56.07885742 C20.69395626 54.09211166 19.87674548 52.10114495 19.06030273 50.10961914 C18.53424379 48.83982514 18.00757384 47.57028407 17.48022461 46.30102539 C16.77047485 44.58979492 16.77047485 44.58979492 16.04638672 42.84399414 C14.92060256 40.04219649 14.92060256 40.04219649 12.76538086 38.11352539 Z " fill="#006301" transform="translate(249.234619140625,473.886474609375)"/>
<path d="M0 0 C0.33 0 0.66 0 1 0 C1.02312154 12.36918715 1.04091412 24.73836919 1.05181217 37.10757351 C1.05704141 42.85045062 1.0641398 48.59331301 1.07543945 54.33618164 C1.08626687 59.87339995 1.09227652 65.41060404 1.09487724 70.94783211 C1.09673176 73.06544277 1.10035286 75.18305262 1.10573006 77.30065727 C1.11293856 80.25571274 1.11399102 83.21070871 1.11352539 86.16577148 C1.11712067 87.05049637 1.12071594 87.93522125 1.12442017 88.84675598 C1.11405216 94.88594784 1.11405216 94.88594784 0 96 C-1.66617115 96.04063832 -3.33388095 96.042721 -5 96 C-3.515 95.505 -3.515 95.505 -2 95 C-2.03029297 93.83879639 -2.06058594 92.67759277 -2.09179688 91.48120117 C-4.02573244 16.61103191 -4.02573244 16.61103191 0 0 Z " fill="#064B07" transform="translate(118,336)"/>
<path d="M0 0 C0.33 0 0.66 0 1 0 C1.13558695 3.04317386 1.23437239 6.08025562 1.3125 9.125 C1.35439453 9.9809375 1.39628906 10.836875 1.43945312 11.71875 C1.52386769 16.10830724 1.44503851 19.06544754 -1.39453125 22.5546875 C-5.66334466 26.56110008 -9.04526978 26.16050411 -14.65625 26.16796875 C-15.51432251 26.17129715 -16.37239502 26.17462555 -17.25646973 26.17805481 C-19.07217878 26.18312138 -20.88789716 26.18546322 -22.70361328 26.18530273 C-25.4887617 26.18749117 -28.27351536 26.20565489 -31.05859375 26.22460938 C-32.82031114 26.2275429 -34.58203042 26.22952797 -36.34375 26.23046875 C-37.18023071 26.23765427 -38.01671143 26.24483978 -38.87854004 26.25224304 C-44.77117388 26.22882612 -44.77117388 26.22882612 -47 24 C-43.38895067 21.73635713 -40.33016734 21.73191326 -36.125 21.75 C-34.93132812 21.74484375 -33.73765625 21.7396875 -32.5078125 21.734375 C-29.01433546 21.99891446 -26.29853148 22.89109198 -23 24 C-22.01 23.67 -21.02 23.34 -20 23 C-17.68659086 23.08151745 -15.37403729 23.18879758 -13.0625 23.3125 C-7.61429259 23.45879018 -7.61429259 23.45879018 -3.125 20.6875 C-1.83983446 16.47501296 -1.81335677 13.00614949 -1.9921875 8.63671875 C-2.0016377 5.44727613 -1.26125903 2.9166615 0 0 Z " fill="#043A03" transform="translate(503,334)"/>
<path d="M0 0 C0.33 0 0.66 0 1 0 C1.16802786 6.22947939 1.32795472 12.45912849 1.48217773 18.68896484 C1.53563685 20.80945577 1.59096917 22.92990031 1.64819336 25.05029297 C1.72999523 28.09332272 1.80511898 31.1364542 1.87890625 34.1796875 C1.90594131 35.13181122 1.93297638 36.08393494 1.96083069 37.06491089 C1.98092697 37.94567291 2.00102325 38.82643494 2.02172852 39.73388672 C2.04171402 40.51110077 2.06169952 41.28831482 2.08229065 42.08908081 C2 44 2 44 1 46 C0.90367103 47.81041793 0.87018467 49.62452753 0.875 51.4375 C0.87242187 52.40558594 0.86984375 53.37367188 0.8671875 54.37109375 C0.88786027 57.11017829 0.88786027 57.11017829 2 60 C2.09735048 62.57406132 2.14056361 65.11421853 2.125 67.6875 C2.1252417 68.40703857 2.1254834 69.12657715 2.12573242 69.86791992 C2.10429194 73.57964597 1.93600795 77.15367312 1.3125 80.8125 C0.64840364 83.9750912 0.64840364 83.9750912 2.4375 86 C2.953125 86.33 3.46875 86.66 4 87 C2.0625 87.5625 2.0625 87.5625 0 88 C-1.78140102 86.21859898 -1.12857565 83.82700917 -1.13882446 81.45455933 C-1.13684052 80.65873444 -1.13485657 79.86290955 -1.1328125 79.04296875 C-1.13413177 78.20831085 -1.13545105 77.37365295 -1.1368103 76.51370239 C-1.13875057 73.73826574 -1.13232575 70.96292671 -1.125 68.1875 C-1.12411377 67.24280853 -1.12322754 66.29811707 -1.12231445 65.32479858 C-1.09847743 43.54257419 -0.59543729 21.77305125 0 0 Z " fill="#0C550D" transform="translate(138,334)"/>
<path d="M0 0 C0.33 0 0.66 0 1 0 C1 3.3 1 6.6 1 10 C2.588125 9.79375 4.17625 9.5875 5.8125 9.375 C10.625 8.75 10.625 8.75 14 11 C15.92744369 11.3626117 15.92744369 11.3626117 18.01171875 11.4140625 C19.14770508 11.47207031 19.14770508 11.47207031 20.30664062 11.53125 C21.48516602 11.57765625 21.48516602 11.57765625 22.6875 11.625 C23.48478516 11.66367187 24.28207031 11.70234375 25.10351562 11.7421875 C27.06863475 11.83632494 29.0342854 11.91924632 31 12 C29 14 29 14 25.95898438 14.24291992 C24.04569336 14.23675659 24.04569336 14.23675659 22.09375 14.23046875 C21.41324585 14.23001053 20.7327417 14.22955231 20.03161621 14.2290802 C18.59251157 14.22605852 17.15341017 14.21817466 15.71435547 14.20581055 C13.50867149 14.1875717 11.30340771 14.18530075 9.09765625 14.18554688 C-1.70492626 14.14753687 -1.70492626 14.14753687 -4 13 C-3.40895235 8.15340923 -2.02055843 4.39251833 0 0 Z " fill="#043B06" transform="translate(194,595)"/>
<path d="M0 0 C10.23 0 20.46 0 31 0 C31 0.33 31 0.66 31 1 C30.22809326 1.0093457 29.45618652 1.01869141 28.66088867 1.02832031 C25.16910418 1.08194706 21.67867069 1.16561017 18.1875 1.25 C16.97255859 1.26417969 15.75761719 1.27835937 14.50585938 1.29296875 C12.76079102 1.34130859 12.76079102 1.34130859 10.98046875 1.390625 C9.37014771 1.4220459 9.37014771 1.4220459 7.72729492 1.45410156 C4.96381939 1.75415643 4.96381939 1.75415643 3.35656738 3.56970215 C1.5337182 6.83534639 1.56011598 9.78649915 1.56762695 13.43066406 C1.5574353 14.17251953 1.54724365 14.914375 1.53674316 15.67871094 C1.50661177 18.12442577 1.49734726 20.56974894 1.48828125 23.015625 C1.47143462 24.71386009 1.4532844 26.4120827 1.43388367 28.11029053 C1.38637557 32.57527774 1.35657153 37.0402144 1.33044434 41.50537109 C1.30064286 46.06357814 1.25411112 50.62161097 1.20898438 55.1796875 C1.1229421 64.11970054 1.05560095 73.05974944 1 82 C0.67 82 0.34 82 0 82 C0 54.94 0 27.88 0 0 Z " fill="#115611" transform="translate(436,474)"/>
<path d="M0 0 C0.33 0 0.66 0 1 0 C1.0462645 12.48228829 1.08183918 24.96455632 1.10362434 37.44691277 C1.11407815 43.24247126 1.1282664 49.03797127 1.15087891 54.83349609 C1.17255044 60.42259423 1.18455658 66.01163596 1.18975449 71.60077286 C1.1934605 73.73710137 1.20069701 75.87342668 1.21146011 78.00973129 C1.22589944 80.99337272 1.22798112 83.97677869 1.22705078 86.96044922 C1.23424133 87.85092957 1.24143188 88.74140991 1.24884033 89.65887451 C1.22810432 95.77189568 1.22810432 95.77189568 -1 98 C-5.79959781 97.72832465 -9.06062938 96.74562195 -13 94 C-12.01 93.505 -12.01 93.505 -11 93 C-10.34 93.33 -9.68 93.66 -9 94 C-6.03 94.33 -3.06 94.66 0 95 C0 63.65 0 32.3 0 0 Z " fill="#0E570F" transform="translate(697,334)"/>
<path d="M0 0 C0.55218201 0.16265854 1.10436401 0.32531708 1.67327881 0.49290466 C4.26123603 1.05693487 6.57879961 1.11995437 9.22753906 1.11352539 C10.78870453 1.11341209 10.78870453 1.11341209 12.38140869 1.11329651 C13.49820007 1.10813522 14.61499146 1.10297394 15.765625 1.09765625 C16.91415955 1.0962413 18.06269409 1.09482635 19.24603271 1.09336853 C22.91404831 1.08777143 26.58200285 1.07521944 30.25 1.0625 C32.73697829 1.05748463 35.22395753 1.05292178 37.7109375 1.04882812 C43.8073125 1.03780295 49.90365189 1.02106769 56 1 C56 1.66 56 2.32 56 3 C38.18 3 20.36 3 2 3 C1.67 3.66 1.34 4.32 1 5 C0.67 3.35 0.34 1.7 0 0 Z " fill="#0B5811" transform="translate(234,575)"/>
<path d="M0 0 C2.24993359 -0.02707139 4.49996095 -0.04642829 6.75 -0.0625 C8.00296875 -0.07410156 9.2559375 -0.08570313 10.546875 -0.09765625 C13.30740828 -0.01958687 15.3791021 0.2938843 18 1 C18.33 0.67 18.66 0.34 19 0 C20.79030438 -0.07289513 22.58333718 -0.08366137 24.375 -0.0625 C25.35210937 -0.05347656 26.32921875 -0.04445313 27.3359375 -0.03515625 C28.65464844 -0.01775391 28.65464844 -0.01775391 30 0 C30.99 0 31.98 0 33 0 C35.33564933 0.31669821 37.6693782 0.64820803 40 1 C40 1.99 40 2.98 40 4 C19.705 3.505 19.705 3.505 -1 3 C-0.67 2.01 -0.34 1.02 0 0 Z " fill="#08520A" transform="translate(49,548)"/>
<path d="M0 0 C0.33 0 0.66 0 1 0 C1.07606171 6.335371 1.12860457 12.67062424 1.16479492 19.00634766 C1.17988182 21.16166586 1.20035389 23.31695336 1.22631836 25.47216797 C1.26270544 28.57006404 1.27972739 31.66755423 1.29296875 34.765625 C1.30845261 35.72929993 1.32393646 36.69297485 1.33988953 37.68585205 C1.34011612 38.58648376 1.34034271 39.48711548 1.34057617 40.41503906 C1.34723801 41.20557678 1.35389984 41.9961145 1.36076355 42.81060791 C0.91213462 45.53323503 -0.21818555 46.93534648 -2 49 C-2.050281 44.43255125 -2.08612529 39.86527139 -2.10986328 35.29760742 C-2.11978237 33.75102932 -2.13332187 32.20446924 -2.15087891 30.65795898 C-2.26598242 20.24109094 -1.68186477 10.29312615 0 0 Z " fill="#064A05" transform="translate(406,335)"/>
<path d="M0 0 C10 0 10 0 13.4375 0.5625 C16.74136598 1.19423315 16.74136598 1.19423315 18.86328125 0.5 C21.61992055 -0.14506367 23.94194819 0.13663731 26.75 0.4375 C27.73484375 0.53933594 28.7196875 0.64117187 29.734375 0.74609375 C30.85585938 0.87177734 30.85585938 0.87177734 32 1 C23.80945446 5.73143165 11.55505203 6.21240364 2.5 4 C1.345 3.67 0.19 3.34 -1 3 C-0.67 2.01 -0.34 1.02 0 0 Z " fill="#094908" transform="translate(454,388)"/>
<path d="M0 0 C4.59433619 4.59433619 3.18419848 11.68841814 3.1875 17.75 C3.19974609 18.91789062 3.21199219 20.08578125 3.22460938 21.2890625 C3.23473964 27.24565671 3.07464267 32.39108464 1 38 C0.67 38 0.34 38 0 38 C0 25.46 0 12.92 0 0 Z " fill="#054C06" transform="translate(294,334)"/>
<path d="M0 0 C0.66 0 1.32 0 2 0 C2 27.06 2 54.12 2 82 C1.67 82 1.34 82 1 82 C0.98969254 81.13857895 0.97938507 80.2771579 0.96876526 79.38963318 C0.87060495 71.25372189 0.76806494 63.11787995 0.66066074 54.98208523 C0.60560223 50.79984995 0.55221055 46.61760749 0.50268555 42.43530273 C0.4547889 38.39577039 0.40243886 34.35631762 0.34705925 30.31688118 C0.32674974 28.77921607 0.3080187 27.24152923 0.29092598 25.703825 C0.26662738 23.54262359 0.23661064 21.38156901 0.20532227 19.22045898 C0.18977798 17.99246078 0.1742337 16.76446259 0.15821838 15.49925232 C0.05419975 11.94417439 0.05419975 11.94417439 -0.54017639 8.23231506 C-0.98470505 5.10751532 -0.82286224 3.01716154 0 0 Z " fill="#0D560E" transform="translate(524,500)"/>
<path d="M0 0 C0.33 0 0.66 0 1 0 C1 28.05 1 56.1 1 85 C1.66 85 2.32 85 3 85 C2.67 85.99 2.34 86.98 2 88 C1.34 87.67 0.68 87.34 0 87 C0 58.29 0 29.58 0 0 Z " fill="#10560D" transform="translate(714,334)"/>
<path d="M0 0 C0.66 0.33 1.32 0.66 2 1 C2.33 1.99 2.66 2.98 3 4 C3.226875 4.66 3.45375 5.32 3.6875 6 C4 8 4 8 2 11 C1.34 11 0.68 11 0 11 C0.06014821 14.06455109 0.14722403 17.12432931 0.25 20.1875 C0.26417969 21.05181641 0.27835938 21.91613281 0.29296875 22.80664062 C0.49619587 28.11086844 0.95620091 31.19062404 5 35 C6.95851344 36.39355764 8.95127113 37.74282547 11 39 C10.01 39.495 10.01 39.495 9 40 C6.87109375 39.0390625 6.87109375 39.0390625 4.4375 37.625 C3.63183594 37.16351563 2.82617188 36.70203125 1.99609375 36.2265625 C0 35 0 35 -1 34 C-1.10081087 31.64768301 -1.13972939 29.32538053 -1.1328125 26.97265625 C-1.13376923 26.26854111 -1.13472595 25.56442596 -1.13571167 24.838974 C-1.13639341 23.34683137 -1.13453952 21.85468579 -1.13037109 20.36254883 C-1.12503063 18.07561582 -1.1303121 15.78887992 -1.13671875 13.50195312 C-1.13605781 12.05468707 -1.13477632 10.60742113 -1.1328125 9.16015625 C-1.13483673 8.47365494 -1.13686096 7.78715363 -1.13894653 7.07984924 C-1.11495764 2.22991527 -1.11495764 2.22991527 0 0 Z " fill="#044203" transform="translate(673,387)"/>
<path d="M0 0 C0 3 0 3 -1.6796875 4.796875 C-2.76636719 5.76367188 -2.76636719 5.76367188 -3.875 6.75 C-8.41790269 11.17250774 -9.8755826 14.46845997 -10.1015625 20.8828125 C-10.12235749 23.59309344 -10.0881668 26.29132001 -10 29 C-13.07255337 25.92744663 -12.953322 23.56013602 -13.3125 19.25 C-13.20811665 13.63417579 -11.15538547 9.21299043 -7.24609375 5.19921875 C-4.93189048 3.1748948 -2.75526894 1.37763447 0 0 Z " fill="#09570D" transform="translate(444,339)"/>
<path d="M0 0 C0.33 0 0.66 0 1 0 C4.81818182 33.27272727 4.81818182 33.27272727 1 39 C-0.25282725 35.24151826 -0.12381835 31.74509081 -0.09765625 27.83203125 C-0.0962413 27.03721848 -0.09482635 26.2424057 -0.09336853 25.42350769 C-0.08777378 22.88646675 -0.07522228 20.34951425 -0.0625 17.8125 C-0.05748432 16.09179815 -0.05292153 14.37109492 -0.04882812 12.65039062 C-0.03780607 8.4335597 -0.02054506 4.21679484 0 0 Z " fill="#074F07" transform="translate(342,334)"/>
<path d="M0 0 C0.66 0 1.32 0 2 0 C4.95152201 9.9823834 2.79103389 19.60703657 -1 29 C-1.66 28.67 -2.32 28.34 -3 28 C-2.505 26.783125 -2.01 25.56625 -1.5 24.3125 C-0.28617044 21.08325532 0.42287374 18.48870838 0 15 C-0.33 14.67 -0.66 14.34 -1 14 C-1.0989294 11.83519203 -1.129711 9.66706215 -1.125 7.5 C-1.12757813 6.3140625 -1.13015625 5.128125 -1.1328125 3.90625 C-1 1 -1 1 0 0 Z " fill="#084708" transform="translate(133,558)"/>
<path d="M0 0 C0.680625 0.185625 1.36125 0.37125 2.0625 0.5625 C5.11559708 1.16596516 5.11559708 1.16596516 8.625 0.4375 C12 0 12 0 15 2 C15 2.66 15 3.32 15 4 C23.25 4 31.5 4 40 4 C40 4.33 40 4.66 40 5 C35.10710835 5.1238948 30.21513573 5.21447509 25.32104492 5.2746582 C23.65747161 5.29975347 21.99400804 5.33383796 20.33081055 5.37719727 C17.93510847 5.4380746 15.54086749 5.46625769 13.14453125 5.48828125 C12.4047554 5.51408768 11.66497955 5.5398941 10.90278625 5.56648254 C6.78450812 5.56870328 5.19295598 5.16227089 1.9909668 2.46948242 C1.33394775 1.65455322 0.67692871 0.83962402 0 0 Z " fill="#022800" transform="translate(785,604)"/>
<path d="M0 0 C3.64287432 3.87789847 4.9078305 6.65416885 5 12 C3.11009626 18.26030613 -0.65959009 24.12753984 -5 29 C-7.22265625 29.7890625 -7.22265625 29.7890625 -9 30 C-8.01 28.02 -7.02 26.04 -6 24 C-5.01 24 -4.02 24 -3 24 C-2.31225595 22.67741528 -1.65288627 21.34013497 -1 20 C-0.443125 18.96875 0.11375 17.9375 0.6875 16.875 C2.62455861 12.37476282 2.19316802 7.68296019 1 3 C0.34 2.67 -0.32 2.34 -1 2 C-0.67 1.34 -0.34 0.68 0 0 Z " fill="#0A530B" transform="translate(339,427)"/>
<path d="M0 0 C0.66 0.33 1.32 0.66 2 1 C0.7934375 2.051875 0.7934375 2.051875 -0.4375 3.125 C-3.23433811 6.26291593 -3.71308751 7.88758763 -4 12 C-3.01 12.33 -2.02 12.66 -1 13 C-1 13.99 -1 14.98 -1 16 C1.28636808 18.68056948 2.6223242 19.87410807 6 21 C6.33 21.99 6.66 22.98 7 24 C0.46673139 21.76002219 -3.75778325 18.1241872 -7 12 C-7.5 8.375 -7.5 8.375 -7 5 C-4.78136971 2.09282927 -3.48055071 1.16018357 0 0 Z " fill="#045505" transform="translate(598,349)"/>
<path d="M0 0 C0.33 0.66 0.66 1.32 1 2 C1.99 2 2.98 2 4 2 C4.33 4.64 4.66 7.28 5 10 C5.66 10 6.32 10 7 10 C7 10.99 7 11.98 7 13 C11.95 13 16.9 13 22 13 C22 13.66 22 14.32 22 15 C11.8324817 16.56732496 11.8324817 16.56732496 7 15 C2.81733575 11.65156198 0.38307965 6.70157719 -2 2 C-1.34 1.34 -0.68 0.68 0 0 Z " fill="#094A08" transform="translate(426,592)"/>
<path d="M0 0 C3.47900249 -0.08825361 6.95771117 -0.14080635 10.4375 -0.1875 C11.41138672 -0.21263672 12.38527344 -0.23777344 13.38867188 -0.26367188 C21.5189449 -0.34524652 27.80348711 1.29873524 35 5 C23.26763991 4.26830442 11.64243669 2.57294232 0 1 C0 0.67 0 0.34 0 0 Z " fill="#054C03" transform="translate(447,69)"/>
<path d="M0 0 C4.59276444 0.87481227 6.51896624 2.34624268 9.125 6.0625 C9.58132813 6.77535156 10.03765625 7.48820312 10.5078125 8.22265625 C12.25851271 10.30791435 13.34907409 10.63023566 16 11 C16 11.66 16 12.32 16 13 C16.66 13 17.32 13 18 13 C18 13.66 18 14.32 18 15 C18.66 15 19.32 15 20 15 C20 15.66 20 16.32 20 17 C11.64979348 14.19671638 5.26592242 6.84569914 0 0 Z " fill="#105211" transform="translate(581,393)"/>
<path d="M0 0 C1.83884766 -0.03867187 1.83884766 -0.03867187 3.71484375 -0.078125 C7.0625 0.25 7.0625 0.25 11.0625 3.25 C3.8025 3.25 -3.4575 3.25 -10.9375 3.25 C-8.88405429 -0.85689142 -4.05556616 0.05106694 0 0 Z " fill="#0D580D" transform="translate(466.9375,355.75)"/>
<path d="M0 0 C0.66 0.33 1.32 0.66 2 1 C-0.99540556 5.37790043 -3.0650921 6.38666473 -8 8 C-10.10059222 9.54097499 -12.09275737 11.15985421 -14.0703125 12.85546875 C-16 14 -16 14 -18.12060547 13.5715332 C-18.74080566 13.38292725 -19.36100586 13.19432129 -20 13 C-19.50072998 12.67725098 -19.00145996 12.35450195 -18.48706055 12.02197266 C-16.22039898 10.55653366 -13.95394734 9.09077031 -11.6875 7.625 C-10.90181641 7.11710937 -10.11613281 6.60921875 -9.30664062 6.0859375 C-8.54931641 5.59609375 -7.79199219 5.10625 -7.01171875 4.6015625 C-6.31522217 4.15119629 -5.61872559 3.70083008 -4.90112305 3.23681641 C-3.2600192 2.16916107 -1.62901545 1.0860103 0 0 Z " fill="#08550B" transform="translate(181,62)"/>
<path d="M0 0 C-1.15173355 2.46800047 -2.04783565 4.04783565 -4 6 C-4.804375 6.0825 -5.60875 6.165 -6.4375 6.25 C-7.283125 6.4975 -8.12875 6.745 -9 7 C-10.03291676 8.98320018 -11.0337499 10.98347806 -12 13 C-14.1875 13.875 -14.1875 13.875 -16 14 C-14.33839852 7.72283887 -9.3453705 4.56358033 -4.1875 1.125 C-2 0 -2 0 0 0 Z " fill="#0E530D" transform="translate(48,343)"/>
<path d="M0 0 C0.99 0 1.98 0 3 0 C3.05422947 1.4370809 3.09289723 2.87475462 3.125 4.3125 C3.14820313 5.11300781 3.17140625 5.91351563 3.1953125 6.73828125 C3 9 3 9 1 12 C-0.5 10.9375 -0.5 10.9375 -2 9 C-2.3125 5.4375 -2.3125 5.4375 -2 2 C-1.34 1.34 -0.68 0.68 0 0 Z " fill="#084B08" transform="translate(652,383)"/>
<path d="M0 0 C2.85432471 0.31110629 5.70845525 0.62384426 8.5625 0.9375 C9.76229492 1.06801758 9.76229492 1.06801758 10.98632812 1.20117188 C15.67256697 1.71761452 20.33680546 2.30521531 25 3 C25 3.33 25 3.66 25 4 C16.54522789 5.11565355 8.97812632 5.45617304 1 2 C0.67 1.34 0.34 0.68 0 0 Z " fill="#0A4F08" transform="translate(347,807)"/>
<path d="M0 0 C0.33 0 0.66 0 1 0 C1.13277344 0.60328125 1.26554687 1.2065625 1.40234375 1.828125 C1.66724609 3.02695312 1.66724609 3.02695312 1.9375 4.25 C2.11152344 5.03890625 2.28554687 5.8278125 2.46484375 6.640625 C2.95624621 8.97764188 2.95624621 8.97764188 3.69140625 11.109375 C4 13 4 13 2 16 C2.31506627 19.14221967 2.31506627 19.14221967 3 22 C3.99 22.33 4.98 22.66 6 23 C5.34 23.33 4.68 23.66 4 24 C2.02441406 22.80541992 2.02441406 22.80541992 0 21 C-0.45410156 18.73168945 -0.45410156 18.73168945 -0.390625 16.11328125 C-0.37773438 15.17548828 -0.36484375 14.23769531 -0.3515625 13.27148438 C-0.31804687 12.29501953 -0.28453125 11.31855469 -0.25 10.3125 C-0.23195313 9.32443359 -0.21390625 8.33636719 -0.1953125 7.31835938 C-0.14815447 4.87793158 -0.08236042 2.43945231 0 0 Z " fill="#0C4C0C" transform="translate(94,400)"/>
<path d="M0 0 C0.33 0.66 0.66 1.32 1 2 C4.02934491 2.65772428 4.02934491 2.65772428 7 3 C7 3.66 7 4.32 7 5 C-3.395 3.02 -3.395 3.02 -14 1 C-14 0.67 -14 0.34 -14 0 C-8.97278473 -1.13112344 -5.01462597 -0.93493027 0 0 Z " fill="#054E05" transform="translate(326,869)"/>
<path d="M0 0 C3.55390573 0.49019389 6.14736406 0.2633835 9.625 -0.5 C5.43087869 2.94517108 2.24048836 3.64140424 -3.125 3.5625 C-3.92421875 3.55347656 -4.7234375 3.54445313 -5.546875 3.53515625 C-6.15015625 3.52355469 -6.7534375 3.51195312 -7.375 3.5 C-7.375 2.51 -7.375 1.52 -7.375 0.5 C-4.58324839 -0.50503058 -3.00200067 -0.44474084 0 0 Z " fill="#0E550E" transform="translate(103.375,603.5)"/>
<path d="M0 0 C0.804375 0.495 0.804375 0.495 1.625 1 C4.5391061 2.22699204 6.86867708 2.14233286 10 2 C10.33 3.32 10.66 4.64 11 6 C9.35425434 6.02688151 7.70838587 6.04634123 6.0625 6.0625 C5.14597656 6.07410156 4.22945312 6.08570313 3.28515625 6.09765625 C1 6 1 6 0 5 C-0.04063832 3.33382885 -0.042721 1.66611905 0 0 Z " fill="#084F0E" transform="translate(693,601)"/>
<path d="M0 0 C0.33 0 0.66 0 1 0 C1.53449652 7.24539726 0.71607548 11.72912263 -3 18 C-3.66 17.67 -4.32 17.34 -5 17 C-4.42655063 14.13275314 -4.1385485 13.1385485 -2 11 C-1.57557555 8.60006644 -1.57557555 8.60006644 -1.4375 5.9375 C-1.09722222 1.09722222 -1.09722222 1.09722222 0 0 Z " fill="#004C04" transform="translate(647,337)"/>
<path d="M0 0 C4.5206339 -0.07406517 9.040916 -0.12856045 13.56201172 -0.16479492 C15.10048574 -0.17989711 16.63891661 -0.20038046 18.17724609 -0.22631836 C20.38650141 -0.26264074 22.59518848 -0.27971119 24.8046875 -0.29296875 C25.83914505 -0.31619453 25.83914505 -0.31619453 26.89450073 -0.33988953 C28.83544922 -0.34057617 28.83544922 -0.34057617 32 0 C32.66 0.99 33.32 1.98 34 3 C33.4834082 2.84152588 32.96681641 2.68305176 32.43457031 2.51977539 C29.28767106 1.84791934 26.26361848 1.77900563 23.046875 1.68359375 C22.05654266 1.6524221 22.05654266 1.6524221 21.04620361 1.62062073 C18.94756985 1.55549853 16.84881628 1.49641498 14.75 1.4375 C13.32290453 1.39427921 11.89582095 1.3506638 10.46875 1.30664062 C6.97929278 1.19985589 3.48970247 1.09848434 0 1 C0 0.67 0 0.34 0 0 Z " fill="#0F590F" transform="translate(349,474)"/>
<path d="M0 0 C0.66 0.66 1.32 1.32 2 2 C0.609375 3.984375 0.609375 3.984375 -2 6 C-5.25975612 6.5096196 -8.46068817 6.37632512 -11.75 6.25 C-12.63816406 6.23195313 -13.52632813 6.21390625 -14.44140625 6.1953125 C-16.62870848 6.14827374 -18.81379816 6.08257009 -21 6 C-20.67 5.34 -20.34 4.68 -20 4 C-18.33710938 4.06960938 -18.33710938 4.06960938 -16.640625 4.140625 C-15.17711032 4.17815102 -13.71356644 4.21455029 -12.25 4.25 C-11.15558594 4.30027344 -11.15558594 4.30027344 -10.0390625 4.3515625 C-6.32855625 4.41902625 -4.42843039 4.34327652 -1.484375 1.984375 C-0.99453125 1.32953125 -0.5046875 0.6746875 0 0 Z " fill="#0C550E" transform="translate(501,353)"/>
<path d="M0 0 C0.63671875 1.8203125 0.63671875 1.8203125 1 4 C-1.1875 6.875 -1.1875 6.875 -2.59375 8.40625 C-3.98764193 9.98599419 -5.07560038 11.58922183 -6.1875 13.375 C-6.785625 14.24125 -7.38375 15.1075 -8 16 C-8.66 16 -9.32 16 -10 16 C-9.44151174 11.81641523 -6.95553698 8.97370431 -4.4375 5.75 C-4.01275391 5.19570312 -3.58800781 4.64140625 -3.15039062 4.0703125 C-2.10601659 2.70910589 -1.05377536 1.35394167 0 0 Z " fill="#0A540F" transform="translate(60,167)"/>
<path d="M0 0 C0.66 0 1.32 0 2 0 C2.09038099 5.15171623 1.84681133 9.91913204 1 15 C0.34 14.67 -0.32 14.34 -1 14 C-1.02685938 11.85423363 -1.04633088 9.70837355 -1.0625 7.5625 C-1.07410156 6.36753906 -1.08570313 5.17257812 -1.09765625 3.94140625 C-1 1 -1 1 0 0 Z " fill="#0A570A" transform="translate(133,558)"/>
<path d="M0 0 C-0.11347619 1.97986082 -0.2410935 3.95891598 -0.375 5.9375 C-0.44460937 7.03964844 -0.51421875 8.14179688 -0.5859375 9.27734375 C-0.72257812 10.17582031 -0.85921875 11.07429688 -1 12 C-1.99 12.495 -1.99 12.495 -3 13 C-3.144375 11.9275 -3.28875 10.855 -3.4375 9.75 C-3.83749442 7.08337051 -4.27591924 4.58600271 -5 2 C-2 0 -2 0 0 0 Z " fill="#0B4F0A" transform="translate(112,294)"/>
<path d="M0 0 C0.69738281 0.01353516 1.39476562 0.02707031 2.11328125 0.04101562 C3.82585541 0.0762055 5.53802941 0.13000845 7.25 0.1875 C4.13069175 1.9310756 1.25889549 2.73395178 -2.25 3.375 C-3.1884375 3.55417969 -4.126875 3.73335937 -5.09375 3.91796875 C-7.66111354 4.17848064 -9.32415258 3.99420869 -11.75 3.1875 C-8.17517469 -0.32283104 -4.73451742 -0.1745238 0 0 Z " fill="#054607" transform="translate(507.75,868.8125)"/>
<path d="M0 0 C0.66 0.99 1.32 1.98 2 3 C-0.9826906 4.52448631 -3.818202 5.93940067 -7 7 C-7 7.99 -7 8.98 -7 10 C-8.65 9.67 -10.3 9.34 -12 9 C-8.11327187 5.81994972 -4.10047867 2.89445553 0 0 Z " fill="#09590D" transform="translate(644,738)"/>
<path d="M0 0 C0.99 0.33 1.98 0.66 3 1 C1.54648985 2.98287496 0.08752713 4.96129387 -1.375 6.9375 C-1.7875 7.50146484 -2.2 8.06542969 -2.625 8.64648438 C-5.7734375 12.88671875 -5.7734375 12.88671875 -8 14 C-7.731875 13.484375 -7.46375 12.96875 -7.1875 12.4375 C-6.23139911 10.47497711 -5.37937723 8.46193488 -4.5625 6.4375 C-3.2415921 3.53150262 -2.42148016 1.96024584 0 0 Z " fill="#0C570F" transform="translate(790,688)"/>
<path d="M0 0 C1 3 1 3 0.4375 5 C-1.56977062 7.79272433 -3.88415118 8.62902652 -7 10 C-7.78375 10.391875 -8.5675 10.78375 -9.375 11.1875 C-9.91125 11.455625 -10.4475 11.72375 -11 12 C-11.33 10.68 -11.66 9.36 -12 8 C-10.948125 7.79375 -9.89625 7.5875 -8.8125 7.375 C-4.35592764 6.14310195 -2.64156418 3.68218037 0 0 Z " fill="#0A580D" transform="translate(779,520)"/>
<path d="M0 0 C2.80749255 1.40374628 2.84244717 3.10611792 4 6 C5.29788956 8.02318078 6.62464661 10.02866014 8 12 C4.05860922 10.33248852 1.2107188 7.77289351 -2 5 C-1.125 1.125 -1.125 1.125 0 0 Z " fill="#0A540D" transform="translate(314,438)"/>
<path d="M0 0 C0.99 0 1.98 0 3 0 C3.061875 0.61875 3.12375 1.2375 3.1875 1.875 C3.455625 2.57625 3.72375 3.2775 4 4 C5.2375 4.433125 5.2375 4.433125 6.5 4.875 C7.325 5.24625 8.15 5.6175 9 6 C9.8125 9.125 9.8125 9.125 10 12 C6.40690966 10.80230322 5.57906747 9.5323211 3.3125 6.5625 C2.68988281 5.75941406 2.06726563 4.95632813 1.42578125 4.12890625 C0 2 0 2 0 0 Z " fill="#0A570A" transform="translate(757,565)"/>
<path d="M0 0 C1.65 0 3.3 0 5 0 C5 0.99 5 1.98 5 3 C7.28636808 5.68056948 8.6223242 6.87410807 12 8 C12.33 8.99 12.66 9.98 13 11 C6.82508047 8.88288473 3.05265608 5.78397994 0 0 Z " fill="#0A5510" transform="translate(592,362)"/>
<path d="M0 0 C0.33 0 0.66 0 1 0 C2.22517308 5.66642551 2.09228867 11.23708518 2 17 C-1.0689241 13.9310759 -1.063411 11.13325076 -1.125 6.9375 C-1 3 -1 3 0 0 Z " fill="#08480A" transform="translate(432,351)"/>
<path d="M0 0 C5.28 0.33 10.56 0.66 16 1 C11.77746115 3.11126943 9.85998477 3.2171997 5.25 3.125 C4.07953125 3.10695313 2.9090625 3.08890625 1.703125 3.0703125 C0.36507813 3.03550781 0.36507813 3.03550781 -1 3 C-0.67 2.01 -0.34 1.02 0 0 Z " fill="#0B510D" transform="translate(358,68)"/>
<path d="M0 0 C0.33 0.66 0.66 1.32 1 2 C1.99 2 2.98 2 4 2 C4.33 4.64 4.66 7.28 5 10 C5.66 10 6.32 10 7 10 C7 10.66 7 11.32 7 12 C3.17946076 10.72648692 2.76978625 9.37362475 0.8125 5.9375 C0.28269531 5.01839844 -0.24710937 4.09929688 -0.79296875 3.15234375 C-1.39044922 2.08693359 -1.39044922 2.08693359 -2 1 C-1.34 0.67 -0.68 0.34 0 0 Z " fill="#0D570F" transform="translate(426,592)"/>
<path d="M0 0 C3.5895464 4.36988258 4.13599111 7.66467599 4.0625 13.25 C4.05347656 14.14203125 4.04445312 15.0340625 4.03515625 15.953125 C4.02355469 16.62859375 4.01195312 17.3040625 4 18 C3.67 18 3.34 18 3 18 C2.67 14.7 2.34 11.4 2 8 C1.34 8 0.68 8 0 8 C-0.98120464 4.94736336 -0.98120464 3.05263664 0 0 Z " fill="#0A590F" transform="translate(125,494)"/>
<path d="M0 0 C0.33 1.65 0.66 3.3 1 5 C-2.3 4.67 -5.6 4.34 -9 4 C-8.67 3.01 -8.34 2.02 -8 1 C-5.17884816 -0.07009208 -3.09455459 0 0 0 Z " fill="#0F5506" transform="translate(664,379)"/>
<path d="M0 0 C0.66 0 1.32 0 2 0 C2.6496875 1.175625 2.6496875 1.175625 3.3125 2.375 C5.30955989 5.4815376 6.67449474 5.68730056 10 7 C10.8125 9.125 10.8125 9.125 11 11 C7.33939179 10.41463247 5.45464836 8.916761 2.75 6.4375 C2.04359375 5.79683594 1.3371875 5.15617188 0.609375 4.49609375 C-0.18726563 3.75552734 -0.18726563 3.75552734 -1 3 C-0.67 2.01 -0.34 1.02 0 0 Z " fill="#0C560F" transform="translate(666,156)"/>
<path d="M0 0 C1.98 0 3.96 0 6 0 C6.268125 0.639375 6.53625 1.27875 6.8125 1.9375 C7.88667752 4.33131686 7.88667752 4.33131686 11 5 C12.37195574 6.29355827 13.71182656 7.62298702 15 9 C14.67 9.66 14.34 10.32 14 11 C11.6638026 9.35810616 9.33099647 7.7117475 7 6.0625 C6.33226562 5.59392578 5.66453125 5.12535156 4.9765625 4.64257812 C3.29970233 3.45337627 1.64761213 2.22940446 0 1 C0 0.67 0 0.34 0 0 Z " fill="#055207" transform="translate(643,141)"/>
<path d="M0 0 C2.475 0.495 2.475 0.495 5 1 C4.835 1.804375 4.67 2.60875 4.5 3.4375 C3.90752652 7.65887352 3.91493291 11.74664545 4 16 C3.67 16 3.34 16 3 16 C2.01 10.72 1.02 5.44 0 0 Z " fill="#0A590C" transform="translate(580,517)"/>
<path d="M0 0 C0.66 0.99 1.32 1.98 2 3 C0.89718873 4.27200971 -0.20730769 5.54255853 -1.3125 6.8125 C-2.23482422 7.87404297 -2.23482422 7.87404297 -3.17578125 8.95703125 C-4.73334335 10.70136739 -6.32658875 12.36778041 -8 14 C-8 12.68 -8 11.36 -8 10 C-7.34 9.67 -6.68 9.34 -6 9 C-5.67 8.01 -5.34 7.02 -5 6 C-3.5625 4.3125 -3.5625 4.3125 -2 3 C-1.34 3 -0.68 3 0 3 C0 2.01 0 1.02 0 0 Z " fill="#055710" transform="translate(819,418)"/>
<path d="M0 0 C1.29550781 -0.02126953 1.29550781 -0.02126953 2.6171875 -0.04296875 C5.2491288 0.19890748 6.86480544 0.85766459 9.125 2.1875 C6.24084117 3.62957941 3.70778472 3.28144887 0.5 3.25 C-0.68851563 3.24097656 -1.87703125 3.23195313 -3.1015625 3.22265625 C-4.01679687 3.21105469 -4.93203125 3.19945312 -5.875 3.1875 C-6.205 2.5275 -6.535 1.8675 -6.875 1.1875 C-4.42528376 -0.03735812 -2.73265539 0.02027192 0 0 Z " fill="#0A4908" transform="translate(619.875,411.8125)"/>
<path d="M0 0 C0.33 0.99 0.66 1.98 1 3 C-1.60412629 7.79159238 -4.76320505 10.72611299 -9 14 C-9.66 13.67 -10.32 13.34 -11 13 C-10.54109375 12.64808594 -10.0821875 12.29617188 -9.609375 11.93359375 C-5.16127195 8.35455285 -2.55263762 5.10527523 0 0 Z " fill="#0E560D" transform="translate(796,370)"/>
<path d="M0 0 C1.60633173 4.01582932 0.52181826 7.08675304 -1 11 C-3.08203125 12.2109375 -3.08203125 12.2109375 -5 13 C-4.54554036 11.58208592 -4.08625056 10.16571954 -3.625 8.75 C-3.24214844 7.56664062 -3.24214844 7.56664062 -2.8515625 6.359375 C-2.04826333 4.13372042 -1.10288338 2.09068328 0 0 Z " fill="#09580E" transform="translate(204,572)"/>
<path d="M0 0 C0.33 0.66 0.66 1.32 1 2 C1.61875 2.268125 2.2375 2.53625 2.875 2.8125 C5.64126132 4.35835192 6.54655436 6.23845328 8 9 C7.01 10.485 7.01 10.485 6 12 C4.99157547 10.56839732 3.99352109 9.12948547 3 7.6875 C2.1646875 6.48673828 2.1646875 6.48673828 1.3125 5.26171875 C0 3 0 3 0 0 Z " fill="#08580B" transform="translate(406,564)"/>
<path d="M0 0 C1.45560744 4.36682232 -0.26336804 7.1829745 -1.9375 11.3125 C-3 13 -3 13 -6 14 C-5.41892368 10.2397015 -4.34800504 7.46964968 -2.4375 4.1875 C-1.98246094 3.39730469 -1.52742187 2.60710937 -1.05859375 1.79296875 C-0.53458984 0.90544922 -0.53458984 0.90544922 0 0 Z " fill="#09580B" transform="translate(12,237)"/>
<path d="M0 0 C3.39417765 3.12621626 5.6062718 5.56541027 7 10 C4.69 9.01 2.38 8.02 0 7 C0 4.69 0 2.38 0 0 Z " fill="#0D570E" transform="translate(786,183)"/>
<path d="M0 0 C0.33 0.99 0.66 1.98 1 3 C-6.11389522 9.70387244 -6.11389522 9.70387244 -11 10 C-7.50640535 6.40365256 -3.88901869 3.16548033 0 0 Z " fill="#0F5512" transform="translate(132,96)"/>
<path d="M0 0 C-2.48434437 2.34290892 -3.77731593 2.97982934 -7.234375 3.29296875 C-8.39453125 3.25816406 -9.5546875 3.22335938 -10.75 3.1875 C-11.92046875 3.16042969 -13.0909375 3.13335938 -14.296875 3.10546875 C-15.18890625 3.07066406 -16.0809375 3.03585938 -17 3 C-17 2.67 -17 2.34 -17 2 C-14.54316882 1.47097431 -12.08497874 0.95149191 -9.625 0.4375 C-8.92632812 0.28603516 -8.22765625 0.13457031 -7.5078125 -0.02148438 C-2.2265625 -1.11328125 -2.2265625 -1.11328125 0 0 Z " fill="#074F05" transform="translate(330,8)"/>
<path d="M0 0 C0 3 0 3 -1.75 5.04296875 C-2.4925 5.75066406 -3.235 6.45835937 -4 7.1875 C-4.7425 7.90292969 -5.485 8.61835937 -6.25 9.35546875 C-6.8275 9.89816406 -7.405 10.44085937 -8 11 C-8.33 10.34 -8.66 9.68 -9 9 C-6.46636932 4.77728219 -4.43379675 2.21689838 0 0 Z " fill="#095A0E" transform="translate(761,726)"/>
<path d="M0 0 C4.29 0.66 8.58 1.32 13 2 C12.67 2.99 12.34 3.98 12 5 C7.25081338 4.53439347 3.89217595 3.83067342 0 1 C0 0.67 0 0.34 0 0 Z " fill="#054508" transform="translate(684,427)"/>
<path d="M0 0 C0.99 0.495 0.99 0.495 2 1 C2.33 1.99 2.66 2.98 3 4 C3.226875 4.66 3.45375 5.32 3.6875 6 C4 8 4 8 2 11 C1.34 11 0.68 11 0 11 C0 7.37 0 3.74 0 0 Z " fill="#155913" transform="translate(673,387)"/>
<path d="M0 0 C-1.38274717 3.34163899 -2.79044009 5.25766748 -6 7 C-8.75 6.6875 -8.75 6.6875 -11 6 C-3.28571429 0 -3.28571429 0 0 0 Z " fill="#075305" transform="translate(199,53)"/>
<path d="M0 0 C-2.47379368 2.47379368 -4.6928935 2.96652922 -8 4 C-8.99 4.495 -8.99 4.495 -10 5 C-11.99960012 5.039992 -14.00047242 5.04346799 -16 5 C-13.32975467 3.21983645 -10.94969139 2.02836981 -8 0.8125 C-7.13375 0.44769531 -6.2675 0.08289063 -5.375 -0.29296875 C-3 -1 -3 -1 0 0 Z " fill="#035107" transform="translate(569,782)"/>
<path d="M0 0 C3.3 0.33 6.6 0.66 10 1 C10.33 2.32 10.66 3.64 11 5 C6.87248551 4.39301257 3.6678852 2.96189209 0 1 C0 0.67 0 0.34 0 0 Z " fill="#024C0B" transform="translate(725,427)"/>
<path d="M0 0 C0.33 0 0.66 0 1 0 C1.03738281 0.68707031 1.07476562 1.37414062 1.11328125 2.08203125 C1.17902344 2.98308594 1.24476563 3.88414062 1.3125 4.8125 C1.37050781 5.70582031 1.42851562 6.59914063 1.48828125 7.51953125 C2.06313581 10.30604 2.8206856 11.24135754 5 13 C3.0625 13.5625 3.0625 13.5625 1 14 C0 13 0 13 -0.09765625 10.05859375 C-0.08605469 8.86363281 -0.07445312 7.66867187 -0.0625 6.4375 C-0.05347656 5.23996094 -0.04445312 4.04242188 -0.03515625 2.80859375 C-0.02355469 1.88175781 -0.01195312 0.95492188 0 0 Z " fill="#09540F" transform="translate(137,408)"/>
<path d="M0 0 C0.66 0 1.32 0 2 0 C2 0.66 2 1.32 2 2 C3.65 2 5.3 2 7 2 C6.67 2.66 6.34 3.32 6 4 C-3.41002278 4.18451025 -3.41002278 4.18451025 -8 3 C-8 2.67 -8 2.34 -8 2 C-5.69 2 -3.38 2 -1 2 C-0.67 1.34 -0.34 0.68 0 0 Z " fill="#023302" transform="translate(665,381)"/>
<path d="M0 0 C6.75 0.875 6.75 0.875 9 2 C9.72159424 3.64363134 10.39351421 5.31050386 11 7 C6.89188572 5.55007731 3.53144334 3.54592427 0 1 C0 0.67 0 0.34 0 0 Z " fill="#0C5209" transform="translate(156,801)"/>
<path d="M0 0 C0.33 1.32 0.66 2.64 1 4 C7.93 4.495 7.93 4.495 15 5 C15 5.33 15 5.66 15 6 C9.72 6 4.44 6 -1 6 C-0.67 4.02 -0.34 2.04 0 0 Z " fill="#043206" transform="translate(191,602)"/>
<path d="M0 0 C0.66 1.32 1.32 2.64 2 4 C0.02 6.97 -1.96 9.94 -4 13 C-4.33 12.34 -4.66 11.68 -5 11 C-4.00390625 8.3984375 -4.00390625 8.3984375 -2.5625 5.375 C-2.08941406 4.37210938 -1.61632812 3.36921875 -1.12890625 2.3359375 C-0.75636719 1.56507813 -0.38382813 0.79421875 0 0 Z " fill="#07560D" transform="translate(226,520)"/>
<path d="M0 0 C3.80635497 3.20760251 7.54563567 6.40746109 11 10 C8.99105606 9.36079057 6.99220557 8.68960962 5 8 C4.236875 7.7525 3.47375 7.505 2.6875 7.25 C1 6 1 6 0.25 2.875 C0.1675 1.92625 0.085 0.9775 0 0 Z " fill="#09530C" transform="translate(673,417)"/>
<path d="M0 0 C0.66 0.33 1.32 0.66 2 1 C2 3.97 2 6.94 2 10 C1.01 10 0.02 10 -1 10 C-2.25 3.375 -2.25 3.375 0 0 Z " fill="#0A580A" transform="translate(454,360)"/>
<path d="M0 0 C7.42857143 1 7.42857143 1 11 2 C10.67 3.65 10.34 5.3 10 7 C9.52949219 6.66226562 9.05898437 6.32453125 8.57421875 5.9765625 C7.95160156 5.53054688 7.32898438 5.08453125 6.6875 4.625 C6.07261719 4.18414062 5.45773438 3.74328125 4.82421875 3.2890625 C3.2347608 2.16589093 1.61937829 1.07958553 0 0 Z " fill="#0C5B10" transform="translate(123,288)"/>
<path d="M0 0 C-2.87913993 2.87913993 -6.18342198 3.72780733 -10 5 C-10.99 4.34 -11.98 3.68 -13 3 C-11.40084119 2.30093058 -9.79544955 1.61610532 -8.1875 0.9375 C-7.29417969 0.55464844 -6.40085938 0.17179687 -5.48046875 -0.22265625 C-3 -1 -3 -1 0 0 Z " fill="#0A5809" transform="translate(245,33)"/>
<path d="M0 0 C0.66 0.66 1.32 1.32 2 2 C-0.31 4.31 -2.62 6.62 -5 9 C-5.66 7.68 -6.32 6.36 -7 5 C-6.030625 4.54625 -5.06125 4.0925 -4.0625 3.625 C-0.92920418 2.34213779 -0.92920418 2.34213779 0 0 Z " fill="#075A0F" transform="translate(737,749)"/>
<path d="M0 0 C3.35620271 1.38877354 5.07298728 2.91677965 7 6 C7 6.66 7 7.32 7 8 C3.2047869 6.50902342 1.38957269 4.24299151 -1 1 C-0.67 0.67 -0.34 0.34 0 0 Z " fill="#08600E" transform="translate(770,394)"/>
<path d="M0 0 C0.66 0 1.32 0 2 0 C2.39063507 1.43333021 2.76198474 2.87192679 3.125 4.3125 C3.33382812 5.11300781 3.54265625 5.91351563 3.7578125 6.73828125 C4 9 4 9 2 12 C0.70756464 7.8803623 -0.26252625 4.33168317 0 0 Z " fill="#034F04" transform="translate(245,379)"/>
<path d="M0 0 C7.48291572 6.15034169 7.48291572 6.15034169 10 10 C9.67 10.66 9.34 11.32 9 12 C7.49405319 10.38050958 5.99539332 8.75424026 4.5 7.125 C3.6646875 6.22007812 2.829375 5.31515625 1.96875 4.3828125 C0 2 0 2 0 0 Z " fill="#0F580B" transform="translate(502,372)"/>
<path d="M0 0 C1.65 0 3.3 0 5 0 C4.01 0.495 4.01 0.495 3 1 C3 3.64 3 6.28 3 9 C0.52121318 6.8445332 -0.57563804 5.28880515 -1 2 C-0.67 1.34 -0.34 0.68 0 0 Z " fill="#034E0D" transform="translate(7,311)"/>
<path d="M0 0 C5.28 0 10.56 0 16 0 C16 0.33 16 0.66 16 1 C15.00097656 1.04898437 14.00195312 1.09796875 12.97265625 1.1484375 C11.68230469 1.22320312 10.39195312 1.29796875 9.0625 1.375 C7.77472656 1.44460938 6.48695313 1.51421875 5.16015625 1.5859375 C4.11730469 1.72257812 3.07445312 1.85921875 2 2 C1.67 2.66 1.34 3.32 1 4 C0.34 4 -0.32 4 -1 4 C-0.67 2.68 -0.34 1.36 0 0 Z " fill="#055605" transform="translate(638,311)"/>
<path d="M0 0 C3.98069267 2.87494471 6.43571997 5.82117329 9 10 C6.08366224 8.69267618 4.24135944 7.24135944 2 5 C1.34 5 0.68 5 0 5 C0 3.35 0 1.7 0 0 Z " fill="#07590B" transform="translate(754,145)"/>
<path d="M0 0 C1.77226453 0.28284018 3.542788 0.57660498 5.3125 0.875 C6.29863281 1.03742187 7.28476562 1.19984375 8.30078125 1.3671875 C11 2 11 2 14 4 C8.32723489 4.29341888 5.00932754 4.00559652 0 1 C0 0.67 0 0.34 0 0 Z " fill="#034C03" transform="translate(530,15)"/>
<path d="M0 0 C0.33 0 0.66 0 1 0 C0.88557539 1.60495567 0.75805306 3.20898119 0.625 4.8125 C0.55539062 5.70582031 0.48578125 6.59914063 0.4140625 7.51953125 C0 10 0 10 -2 13 C-3.125 7.25 -3.125 7.25 -2 5 C-1.34 5 -0.68 5 0 5 C0 3.35 0 1.7 0 0 Z " fill="#075108" transform="translate(615,556)"/>
<path d="M0 0 C3.3 0 6.6 0 10 0 C10 0.66 10 1.32 10 2 C6.7 2.33 3.4 2.66 0 3 C0 2.01 0 1.02 0 0 Z " fill="#054C06" transform="translate(726,529)"/>
<path d="M0 0 C1.90318884 2.85478326 2.4619099 4.41941308 3.125 7.6875 C3.29257812 8.49574219 3.46015625 9.30398438 3.6328125 10.13671875 C3.75398437 10.75160156 3.87515625 11.36648438 4 12 C3.01 12 2.02 12 1 12 C0.67 8.04 0.34 4.08 0 0 Z " fill="#0A5107" transform="translate(612,510)"/>
<path d="M0 0 C1.32 0 2.64 0 4 0 C4.33 1.32 4.66 2.64 5 4 C5.66 4 6.32 4 7 4 C6.67 5.32 6.34 6.64 6 8 C4.02 5.36 2.04 2.72 0 0 Z " fill="#0C5609" transform="translate(761,386)"/>
<path d="M0 0 C0.33 0 0.66 0 1 0 C1.6663569 3.02829521 2.14543237 5.89398005 2 9 C-0.4375 12.0625 -0.4375 12.0625 -3 14 C-3 11 -3 11 -2.0625 9.25 C-0.63860793 6.23469916 -0.37988357 3.29232427 0 0 Z " fill="#044F01" transform="translate(631,375)"/>
<path d="M0 0 C0.33 0.66 0.66 1.32 1 2 C-0.1196986 3.00593243 -1.2459412 4.0045849 -2.375 5 C-3.00148438 5.556875 -3.62796875 6.11375 -4.2734375 6.6875 C-6 8 -6 8 -8 8 C-8.33 8.66 -8.66 9.32 -9 10 C-8.62669176 7.27425729 -8.20805399 6.19177915 -6.15234375 4.296875 C-5.42144531 3.78640625 -4.69054687 3.2759375 -3.9375 2.75 C-3.20402344 2.22921875 -2.47054688 1.7084375 -1.71484375 1.171875 C-1.14894531 0.78515625 -0.58304687 0.3984375 0 0 Z " fill="#0C570D" transform="translate(420,373)"/>
<path d="M0 0 C1.65 0 3.3 0 5 0 C5.33 0.99 5.66 1.98 6 3 C6.66 3.33 7.32 3.66 8 4 C7.34 4.66 6.68 5.32 6 6 C3.97945196 4.35830472 1.97956942 2.69088222 0 1 C0 0.67 0 0.34 0 0 Z " fill="#0A550C" transform="translate(136,786)"/>
<path d="M0 0 C0.66 0.66 1.32 1.32 2 2 C-3.75 7 -3.75 7 -6 7 C-6.33 7.66 -6.66 8.32 -7 9 C-7 6 -7 6 -5.46875 4.39453125 C-4.49421875 3.61142578 -4.49421875 3.61142578 -3.5 2.8125 C-2.8503125 2.28269531 -2.200625 1.75289062 -1.53125 1.20703125 C-1.0259375 0.80871094 -0.520625 0.41039062 0 0 Z " fill="#075C0E" transform="translate(671,716)"/>
<path d="M0 0 C0.33 0 0.66 0 1 0 C1.08333357 4.8333472 0.95261487 9.23692563 0 14 C-0.33 14 -0.66 14 -1 14 C-1.22331199 12.41870971 -1.42804644 10.83478911 -1.625 9.25 C-1.74101563 8.36828125 -1.85703125 7.4865625 -1.9765625 6.578125 C-2.00207817 3.77140122 -1.44843844 2.36615134 0 0 Z " fill="#0C5906" transform="translate(814,508)"/>
<path d="M0 0 C4.875 3.625 4.875 3.625 6 7 C2.62496331 5.8141763 0.35277269 4.72426311 -2 2 C-1.34 2 -0.68 2 0 2 C0 1.34 0 0.68 0 0 Z " fill="#085509" transform="translate(268,402)"/>
<path d="M0 0 C0.99 0.33 1.98 0.66 3 1 C0.36 2.98 -2.28 4.96 -5 7 C-4.67 5.35 -4.34 3.7 -4 2 C-2.68 2 -1.36 2 0 2 C0 1.34 0 0.68 0 0 Z " fill="#055401" transform="translate(720,765)"/>
<path d="M0 0 C2.88575819 0.39803561 3.82189513 0.79009069 5.75 3.0625 C6.1625 3.701875 6.575 4.34125 7 5 C4.23723823 4.47731534 1.6739124 3.89130413 -1 3 C-0.67 2.01 -0.34 1.02 0 0 Z " fill="#0D5C0E" transform="translate(808,409)"/>
<path d="M0 0 C0.66 0.33 1.32 0.66 2 1 C-4.07439825 5.90153173 -4.07439825 5.90153173 -7.9375 6.3125 C-8.618125 6.209375 -9.29875 6.10625 -10 6 C-6.87511433 3.47605388 -3.68685613 1.60298093 0 0 Z " fill="#045602" transform="translate(211,46)"/>
<path d="M0 0 C0.33 0.66 0.66 1.32 1 2 C1.99 2 2.98 2 4 2 C4 2.66 4 3.32 4 4 C1.36 4.66 -1.28 5.32 -4 6 C-3.67 5.01 -3.34 4.02 -3 3 C-2.34 3 -1.68 3 -1 3 C-0.67 2.01 -0.34 1.02 0 0 Z " fill="#084407" transform="translate(539,859)"/>
<path d="M0 0 C-7.21225383 3.25601751 -7.21225383 3.25601751 -10.5 2.1875 C-10.995 1.795625 -11.49 1.40375 -12 1 C-3.96428571 -1.27678571 -3.96428571 -1.27678571 0 0 Z " fill="#0A5708" transform="translate(520,799)"/>
<path d="M0 0 C3.36720387 1.39332574 4.9859524 2.9789286 7 6 C6.67 6.66 6.34 7.32 6 8 C1.3125 4.38671875 1.3125 4.38671875 0 3 C0 2.01 0 1.02 0 0 Z " fill="#0F500C" transform="translate(124,544)"/>
<path d="M0 0 C0.66 0.99 1.32 1.98 2 3 C0.35 5.31 -1.3 7.62 -3 10 C-3.33 9.34 -3.66 8.68 -4 8 C-3.22265625 6.0546875 -3.22265625 6.0546875 -2.0625 3.875 C-1.49208984 2.78832031 -1.49208984 2.78832031 -0.91015625 1.6796875 C-0.60980469 1.12539063 -0.30945313 0.57109375 0 0 Z " fill="#065707" transform="translate(234,502)"/>
<path d="M0 0 C0.33 0.66 0.66 1.32 1 2 C1.66 2 2.32 2 3 2 C3 3.32 3 4.64 3 6 C3.66 6 4.32 6 5 6 C4.67 6.99 4.34 7.98 4 9 C1.74754119 6.31158141 0.11786042 4.35358125 -1 1 C-0.67 0.67 -0.34 0.34 0 0 Z " fill="#11560A" transform="translate(33,380)"/>
<path d="M0 0 C0.66 0 1.32 0 2 0 C1.34 1.98 0.68 3.96 0 6 C-0.99 6 -1.98 6 -3 6 C-2.42655063 3.13275314 -2.1385485 2.1385485 0 0 Z " fill="#0F5710" transform="translate(645,348)"/>
<path d="M0 0 C0.99 0.33 1.98 0.66 3 1 C2.34 1.66 1.68 2.32 1 3 C1.33 3.33 1.66 3.66 2 4 C2.04063832 5.66617115 2.042721 7.33388095 2 9 C0.68 7.35 -0.64 5.7 -2 4 C-1.34 2.68 -0.68 1.36 0 0 Z " fill="#0F5309" transform="translate(218,311)"/>
<path d="M0 0 C1.65 0 3.3 0 5 0 C0.375 4.875 0.375 4.875 -3 6 C-3 5.34 -3 4.68 -3 4 C-2.34 4 -1.68 4 -1 4 C-0.67 2.68 -0.34 1.36 0 0 Z " fill="#08570F" transform="translate(203,130)"/>
<path d="M0 0 C0.33 0.66 0.66 1.32 1 2 C3.02463255 2.65213292 3.02463255 2.65213292 5 3 C2.1875 4.5625 2.1875 4.5625 -1 6 C-1.99 5.67 -2.98 5.34 -4 5 C-3.34 4.67 -2.68 4.34 -2 4 C-0.86649466 1.98330173 -0.86649466 1.98330173 0 0 Z " fill="#08550C" transform="translate(237,107)"/>
<path d="M0 0 C3.3 0.33 6.6 0.66 10 1 C6.39338934 2.80330533 3.91606575 3.46599103 0 4 C0 2.68 0 1.36 0 0 Z " fill="#075104" transform="translate(316,76)"/>
<path d="M0 0 C4.95 0.99 4.95 0.99 10 2 C10 2.33 10 2.66 10 3 C6.7 3 3.4 3 0 3 C0 2.01 0 1.02 0 0 Z " fill="#054204" transform="translate(448,876)"/>
<path d="M0 0 C-2.97 2.475 -2.97 2.475 -6 5 C-6 3.35 -6 1.7 -6 0 C-3 -1 -3 -1 0 0 Z " fill="#0E5814" transform="translate(752,738)"/>
<path d="M0 0 C1.65 0 3.3 0 5 0 C5 1.98 5 3.96 5 6 C3.31237149 4.3545622 1.6459651 2.68711423 0 1 C0 0.67 0 0.34 0 0 Z " fill="#115412" transform="translate(49,698)"/>
<path d="M0 0 C2.88437779 1.29299694 4.87219421 2.65941363 7 5 C5.02 5 3.04 5 1 5 C0.67 3.35 0.34 1.7 0 0 Z " fill="#0A5A0C" transform="translate(784,553)"/>
<path d="M0 0 C4.455 0.99 4.455 0.99 9 2 C9 2.33 9 2.66 9 3 C6.36 3.33 3.72 3.66 1 4 C0.67 2.68 0.34 1.36 0 0 Z " fill="#075C10" transform="translate(572,28)"/>
<path d="M0 0 C3.63 0.33 7.26 0.66 11 1 C11 1.33 11 1.66 11 2 C7.37 2.33 3.74 2.66 0 3 C0 2.01 0 1.02 0 0 Z " fill="#0C5609" transform="translate(467,3)"/>
<path d="M0 0 C0.99 0 1.98 0 3 0 C3.103125 0.639375 3.20625 1.27875 3.3125 1.9375 C3.539375 2.618125 3.76625 3.29875 4 4 C4.99 4.33 5.98 4.66 7 5 C6.01 6.485 6.01 6.485 5 8 C2.525 4.04 2.525 4.04 0 0 Z " fill="#0D560C" transform="translate(40,686)"/>
<path d="M0 0 C0.33 0 0.66 0 1 0 C1.25 2.75 1.25 2.75 1 6 C-1 8.375 -1 8.375 -3 10 C-2.39009109 6.44219804 -1.4216319 3.3171411 0 0 Z " fill="#08550F" transform="translate(219,536)"/>
<path d="M0 0 C1.625 1.6875 1.625 1.6875 3 4 C2.1875 6.75 2.1875 6.75 1 9 C0.67 9 0.34 9 0 9 C0 6.03 0 3.06 0 0 Z " fill="#004C00" transform="translate(95,407)"/>
<path d="M0 0 C0.33 0.99 0.66 1.98 1 3 C2.65 3.33 4.3 3.66 6 4 C6 4.33 6 4.66 6 5 C3.69 5 1.38 5 -1 5 C-0.67 3.35 -0.34 1.7 0 0 Z " fill="#0E580D" transform="translate(117,283)"/>
<path d="M0 0 C1.98 1.65 3.96 3.3 6 5 C3.50907189 6.24546405 2.58919267 5.7767578 0 5 C0 3.35 0 1.7 0 0 Z " fill="#0D5910" transform="translate(738,129)"/>
</svg>
