<?xml version="1.0" encoding="UTF-8"?>
<svg version="1.1" xmlns="http://www.w3.org/2000/svg" width="295" height="171">
<path d="M0 0 C97.35 0 194.7 0 295 0 C295 56.43 295 112.86 295 171 C197.65 171 100.3 171 0 171 C0 114.57 0 58.14 0 0 Z " fill="#FDFCFB" transform="translate(0,0)"/>
<path d="M0 0 C7.51922098 1.9450182 12.32553728 8.71760826 16.74462891 14.70996094 C17.66695312 15.86238281 17.66695312 15.86238281 18.60791016 17.03808594 C19.74462891 18.70996094 19.74462891 18.70996094 19.74462891 20.70996094 C7.20462891 20.70996094 -5.33537109 20.70996094 -18.25537109 20.70996094 C-18.25537109 27.63996094 -18.25537109 34.56996094 -18.25537109 41.70996094 C-12.64537109 41.70996094 -7.03537109 41.70996094 -1.25537109 41.70996094 C-1.25537109 48.30996094 -1.25537109 54.90996094 -1.25537109 61.70996094 C-17.40921725 62.78688401 -17.40921725 62.78688401 -22.20849609 59.98730469 C-24.46926376 57.68306072 -26.36449358 55.3240587 -28.25537109 52.70996094 C-29.55597118 51.22032014 -30.8677486 49.74033037 -32.19287109 48.27246094 C-32.73814453 47.634375 -33.28341797 46.99628906 -33.84521484 46.33886719 C-34.93166207 45.08388521 -36.08162765 43.88370438 -37.25537109 42.70996094 C-37.81781848 39.00511796 -37.76496546 35.26495961 -37.81787109 31.52246094 C-37.8675 30.49314453 -37.91712891 29.46382812 -37.96826172 28.40332031 C-38.06916849 20.90258339 -38.06916849 20.90258339 -35.78686523 17.55786133 C-34.02392263 15.80617006 -32.20003539 14.25459226 -30.25537109 12.70996094 C-29.00766726 11.33067252 -27.77369854 9.93850527 -26.56787109 8.52246094 C-25.47505306 7.24185556 -24.37076386 5.97095276 -23.25537109 4.70996094 C-22.74103516 3.99453125 -22.22669922 3.27910156 -21.69677734 2.54199219 C-15.95107139 -1.76958556 -6.83836064 -0.80424498 0 0 Z " fill="#DF1C25" transform="translate(162.25537109375,6.2900390625)"/>
<path d="M0 0 C4.65374097 4.0186889 7.54404686 8.60674872 8.37109375 14.76171875 C8.54047371 22.22440043 7.4436217 27.87844823 3 34 C-1.67349575 38.40476975 -6.57694771 39.17031243 -12.8125 39.25 C-14.61654297 39.28867188 -14.61654297 39.28867188 -16.45703125 39.328125 C-21.15148626 38.89335739 -24.36411174 37.47812965 -27.86328125 34.31640625 C-28.34152344 33.73761719 -28.81976563 33.15882812 -29.3125 32.5625 C-29.80363281 31.98628906 -30.29476562 31.41007812 -30.80078125 30.81640625 C-34.48716996 25.23278817 -33.51298107 17.36951493 -33 11 C-31.4942752 5.64813032 -28.80122768 1.9030679 -24 -1 C-15.90516606 -4.05465432 -7.71104062 -4.0621933 0 0 Z " fill="#DF1B24" transform="translate(235,92)"/>
<path d="M0 0 C5.61 0 11.22 0 17 0 C17.34933594 1.42054687 17.69867188 2.84109375 18.05859375 4.3046875 C18.51810523 6.16148901 18.97774742 8.01825817 19.4375 9.875 C19.66759766 10.81214844 19.89769531 11.74929687 20.13476562 12.71484375 C20.35712891 13.61074219 20.57949219 14.50664063 20.80859375 15.4296875 C21.11494751 16.67081299 21.11494751 16.67081299 21.42749023 17.93701172 C21.94007994 20.03995155 21.94007994 20.03995155 23 22 C23.26554687 20.91460937 23.53109375 19.82921875 23.8046875 18.7109375 C24.16133082 17.26559353 24.5181088 15.82028278 24.875 14.375 C25.04902344 13.66214844 25.22304687 12.94929688 25.40234375 12.21484375 C25.66337891 11.16103516 25.66337891 11.16103516 25.9296875 10.0859375 C26.08679199 9.4470459 26.24389648 8.8081543 26.40576172 8.14990234 C27.16529045 5.40199354 28.09845207 2.70464379 29 0 C34.28 0 39.56 0 45 0 C45 13.53 45 27.06 45 41 C41.7 41 38.4 41 35 41 C34.505 28.625 34.505 28.625 34 16 C32.06657568 23.852447 32.06657568 23.852447 30.14086914 31.70678711 C29.89973389 32.6788208 29.65859863 33.65085449 29.41015625 34.65234375 C29.16402588 35.65257568 28.91789551 36.65280762 28.66430664 37.68334961 C28 40 28 40 27 41 C24.03 41 21.06 41 18 41 C15.69 31.76 13.38 22.52 11 13 C10.67 22.24 10.34 31.48 10 41 C6.7 41 3.4 41 0 41 C0 27.47 0 13.94 0 0 Z " fill="#D7232A" transform="translate(97,90)"/>
<path d="M0 0 C5.28 0 10.56 0 16 0 C18.47484713 6.01034303 19.99436005 11.98434197 21.3515625 18.33984375 C21.73313819 20.90631513 21.73313819 20.90631513 23 22 C23.21934204 21.05362671 23.21934204 21.05362671 23.44311523 20.08813477 C24.10417974 17.24537383 24.77076362 14.40393575 25.4375 11.5625 C25.66759766 10.56927734 25.89769531 9.57605469 26.13476562 8.55273438 C26.35712891 7.60849609 26.57949219 6.66425781 26.80859375 5.69140625 C27.11494751 4.37958374 27.11494751 4.37958374 27.42749023 3.04125977 C28 1 28 1 29 0 C34.28 0 39.56 0 45 0 C45 13.53 45 27.06 45 41 C41.7 41 38.4 41 35 41 C34.505 28.625 34.505 28.625 34 16 C32.06797005 23.4786129 32.06797005 23.4786129 30.14086914 30.95849609 C29.77916626 32.35189209 29.77916626 32.35189209 29.41015625 33.7734375 C29.16402588 34.72653809 28.91789551 35.67963867 28.66430664 36.66162109 C28 39 28 39 27 41 C24.03 41 21.06 41 18 41 C15.69 32.09 13.38 23.18 11 14 C10.67 22.91 10.34 31.82 10 41 C6.7 41 3.4 41 0 41 C0 27.47 0 13.94 0 0 Z " fill="#DA1D24" transform="translate(150,90)"/>
<path d="M0 0 C3.96 0 7.92 0 12 0 C15.19219663 3.47787959 17.05932365 5.97741811 19.25 10 C19.81589844 10.95390625 20.38179688 11.9078125 20.96484375 12.890625 C22.34949836 15.23749723 23.68028786 17.61600388 25 20 C25.33 13.4 25.66 6.8 26 0 C29.96 0 33.92 0 38 0 C38 13.53 38 27.06 38 41 C26 41 26 41 23.35253906 39.07226562 C22.5670166 37.75258789 22.5670166 37.75258789 21.765625 36.40625 C21.17265625 35.45878906 20.5796875 34.51132813 19.96875 33.53515625 C19.4015625 32.53355469 18.834375 31.53195313 18.25 30.5 C17.63640625 29.49839844 17.0228125 28.49679688 16.390625 27.46484375 C14.88816341 24.9998677 13.4386565 22.50275154 12 20 C11.67 26.93 11.34 33.86 11 41 C7.37 41 3.74 41 0 41 C0 27.47 0 13.94 0 0 Z " fill="#DC1D26" transform="translate(250,90)"/>
<path d="M0 0 C2.96179814 2.88775318 4.12549526 5.03950257 5 9 C3.08960948 9.44455628 1.17119345 9.85473053 -0.75 10.25 C-1.81734375 10.48203125 -2.8846875 10.7140625 -3.984375 10.953125 C-7 11 -7 11 -9.203125 9.078125 C-9.79609375 8.39234375 -10.3890625 7.7065625 -11 7 C-14 6.33333333 -14 6.33333333 -17 7 C-19.84780619 9.23206431 -20.84997666 10.54992999 -22 14 C-22.39273833 18.877262 -22.60506815 23.70163755 -20 28 C-17.98797522 29.70248251 -16.64974219 30.02449425 -14.03125 29.92578125 C-11.17098387 29.60970112 -8.59265181 29.29632591 -6 28 C-5.34786708 25.97536745 -5.34786708 25.97536745 -5 24 C-7.64 24 -10.28 24 -13 24 C-13 21.36 -13 18.72 -13 16 C-7.06 16 -1.12 16 5 16 C5 21.94 5 27.88 5 34 C-4.16997989 39.09443327 -11.72583173 40.3372727 -22 39 C-26.91355786 37.36214738 -29.77934179 34.76795621 -32.4375 30.375 C-35.50143659 23.75689697 -36.35357335 16.73363936 -34.31640625 9.609375 C-31.68363904 3.88501809 -27.9605956 0.41301154 -22.25 -2.3125 C-14.60936318 -3.92878856 -7.04052573 -3.6208418 0 0 Z " fill="#DE1C26" transform="translate(41,92)"/>
<path d="M0 0 C4.62 0 9.24 0 14 0 C15.99785894 5.51612497 17.99158329 11.03371958 19.98144531 16.55273438 C20.65933853 18.43107705 21.33837138 20.30900883 22.01855469 22.18652344 C22.99451895 24.88109532 23.96641129 27.57710532 24.9375 30.2734375 C25.24373291 31.11619232 25.54996582 31.95894714 25.86547852 32.82723999 C26.28591431 33.99822739 26.28591431 33.99822739 26.71484375 35.19287109 C26.96355225 35.88126068 27.21226074 36.56965027 27.46850586 37.27890015 C28 39 28 39 28 41 C24.04 41 20.08 41 16 41 C15.01 37.535 15.01 37.535 14 34 C9.05 34 4.1 34 -1 34 C-1.33 36.31 -1.66 38.62 -2 41 C-6.29 41 -10.58 41 -15 41 C-12.83195753 33.46049334 -10.28261467 26.14556208 -7.5 18.8125 C-7.10941406 17.77158203 -6.71882813 16.73066406 -6.31640625 15.65820312 C-4.32680462 10.38274427 -2.27640937 5.15840201 0 0 Z " fill="#DB1C25" transform="translate(65,90)"/>
<path d="M0 0 C11.55 0 23.1 0 35 0 C36.89598603 16.17908082 36.89598603 16.17908082 31.765625 22.6875 C27.30152318 27.64431738 22.55868301 32.29421133 17 36 C17 29.07 17 22.14 17 15 C11.39 15 5.78 15 0 15 C0 10.05 0 5.1 0 0 Z " fill="#DF1A23" transform="translate(147,30)"/>
<path d="M0 0 C5.90442954 1.61573916 9.45083351 4.37042207 12.6875 9.5703125 C15.70056446 15.87696812 15.89089367 22.78452897 13.77734375 29.43359375 C11.31375947 34.78060144 8.96425794 37.93193353 3.6875 40.5703125 C0.25758462 41.71361763 -2.5111416 41.77412901 -6.125 41.8203125 C-7.92904297 41.85898438 -7.92904297 41.85898438 -9.76953125 41.8984375 C-15.01687653 41.41246506 -18.2096682 39.81825375 -21.6875 35.8828125 C-22.22375 35.1196875 -22.76 34.3565625 -23.3125 33.5703125 C-21.8275 33.0753125 -21.8275 33.0753125 -20.3125 32.5703125 C-19.10367904 30.57014784 -19.10367904 30.57014784 -18.3125 28.5703125 C-18.3125 29.2303125 -18.3125 29.8903125 -18.3125 30.5703125 C-16.9925 30.5703125 -15.6725 30.5703125 -14.3125 30.5703125 C-13.9825 29.9103125 -13.6525 29.2503125 -13.3125 28.5703125 C-12.796875 29.0653125 -12.28125 29.5603125 -11.75 30.0703125 C-8.42453064 32.11675519 -6.14943587 31.98888732 -2.3125 31.5703125 C-0.22701554 30.17998953 0.44052174 29.17653186 1.375 26.8828125 C2.06768813 21.75692037 2.69151653 16.01103259 -0.3125 11.5703125 C-3.84764293 10.19063726 -3.84764293 10.19063726 -7.3125 9.5703125 C-7.3125 8.9103125 -7.3125 8.2503125 -7.3125 7.5703125 C-6.6525 7.5703125 -5.9925 7.5703125 -5.3125 7.5703125 C-5.6425 6.2503125 -5.9725 4.9303125 -6.3125 3.5703125 C-8.6225 2.9103125 -10.9325 2.2503125 -13.3125 1.5703125 C-8.93760881 -1.34628163 -4.98198288 -0.92570628 0 0 Z " fill="#DA1D26" transform="translate(228.3125,89.4296875)"/>
<path d="M0 0 C0.33 0.66 0.66 1.32 1 2 C3.64 2 6.28 2 9 2 C11.40396357 8.53577596 13.29660343 14.02981935 13 21 C13.66 21.99 14.32 22.98 15 24 C10.38 24 5.76 24 1 24 C0.67 26.64 0.34 29.28 0 32 C-4.29 32 -8.58 32 -13 32 C-10.9328948 24.85261118 -8.58232882 17.89060285 -5.9375 10.9375 C-5.58623047 9.98939453 -5.23496094 9.04128906 -4.87304688 8.06445312 C-4.53208984 7.16533203 -4.19113281 6.26621094 -3.83984375 5.33984375 C-3.38146118 4.12349243 -3.38146118 4.12349243 -2.91381836 2.88256836 C-2 1 -2 1 0 0 Z " fill="#DF1D25" transform="translate(63,99)"/>
<path d="M0 0 C2.375 1.375 2.375 1.375 4 3 C4 3.66 4 4.32 4 5 C4.66 5.33 5.32 5.66 6 6 C5.34 6 4.68 6 4 6 C4 6.66 4 7.32 4 8 C5.03060547 7.98259766 5.03060547 7.98259766 6.08203125 7.96484375 C6.98308594 7.95582031 7.88414063 7.94679688 8.8125 7.9375 C9.70582031 7.92589844 10.59914063 7.91429688 11.51953125 7.90234375 C14 8 14 8 17 9 C17 14.94 17 20.88 17 27 C16.67 27 16.34 27 16 27 C16 21.39 16 15.78 16 10 C10.06 10 4.12 10 -2 10 C-2 12.64 -2 15.28 -2 18 C0.64 18 3.28 18 6 18 C5.8125 20.375 5.8125 20.375 5 23 C1.97289658 24.95871398 0.04703957 25.00165051 -3.5625 24.875 C-7.32450411 23.91739895 -8.67072977 23.04596876 -11 20 C-12.76303691 14.71088926 -12.67478867 9.76730366 -10.6875 4.5625 C-7.73772067 0.08320546 -5.13830264 -0.5243166 0 0 Z " fill="#FAE2E0" transform="translate(30,98)"/>
<path d="M0 0 C4.62 0 9.24 0 14 0 C14 6.76144905 13.46046796 9.1563886 11 15 C9 12 9 12 8 10 C7.67 19.57 7.34 29.14 7 39 C4.69 39 2.38 39 0 39 C0 26.13 0 13.26 0 0 Z " fill="#E21A25" transform="translate(99,91)"/>
<path d="M0 0 C3.62216004 0.12026703 5.45087477 0.22058236 8.4375 2.44140625 C11.38508404 6.56802391 11.38366389 10.72760005 11 15.62890625 C10.02529939 19.0028699 8.98921659 21.670454 6 23.62890625 C1.84919602 24.24384017 -0.28378829 24.04034702 -3.9375 21.94140625 C-7.10398769 16.85583512 -7.04719925 11.46433382 -6 5.62890625 C-3.10773825 0.977238 -3.10773825 0.977238 0 0 Z " fill="#FDF7F5" transform="translate(220,98.37109375)"/>
<path d="M0 0 C12.54 0 25.08 0 38 0 C38 0.33 38 0.66 38 1 C36.46291382 1.03758423 36.46291382 1.03758423 34.89477539 1.07592773 C31.10590324 1.16984484 27.31722119 1.27010317 23.52856445 1.37231445 C21.88635697 1.41572297 20.24410261 1.45739358 18.60180664 1.49731445 C16.24611255 1.5548744 13.89065572 1.61860892 11.53515625 1.68359375 C10.79660904 1.70030624 10.05806183 1.71701874 9.2971344 1.73423767 C5.85699373 1.53548013 5.85699373 1.53548013 3 3 C2.92679837 5.5327765 2.90772431 8.03103918 2.9375 10.5625 C2.958125 13.016875 2.97875 15.47125 3 18 C8.61 18 14.22 18 20 18 C20.33 24.6 20.66 31.2 21 38 C21.99 37.505 21.99 37.505 23 37 C22.67 38.65 22.34 40.3 22 42 C20.35 41.67 18.7 41.34 17 41 C17 34.4 17 27.8 17 21 C11.39 21 5.78 21 0 21 C0 14.07 0 7.14 0 0 Z " fill="#FEECEB" transform="translate(144,27)"/>
<path d="M0 0 C8 0 8 0 10.0625 1.1875 C11.38762145 3.74940148 10.76550483 5.28593742 10 8 C10 8.66 10 9.32 10 10 C10.33 10.33 10.66 10.66 11 11 C11.1875 14.4375 11.1875 14.4375 11 18 C10.34 18.66 9.68 19.32 9 20 C6.03 20 3.06 20 0 20 C0 13.4 0 6.8 0 0 Z " fill="#131313" transform="translate(6,145)"/>
<path d="M0 0 C0.99 0 1.98 0 3 0 C3 6.93 3 13.86 3 21 C-0.3 21 -3.6 21 -7 21 C-9.67818441 16.98272339 -9.68882655 13.71973745 -9 9 C-7.3125 6.375 -7.3125 6.375 -5 5 C-2.25 5.25 -2.25 5.25 0 6 C0 4.02 0 2.04 0 0 Z " fill="#0F0F0F" transform="translate(64,144)"/>
<path d="M0 0 C3.37646044 0.7597036 4.52929117 1.71592058 6.5 4.5625 C6.98487873 8.37226148 6.74224379 10.89276717 5.4375 14.5 C3.5 16.5625 3.5 16.5625 0 17.125 C-3.5 16.5625 -3.5 16.5625 -5.4375 15 C-6.91872356 11.60189888 -6.95113794 9.23605176 -6.5 5.5625 C-4.6438227 2.33137654 -3.68260951 0.82858714 0 0 Z " fill="#0E0E0E" transform="translate(135.5,148.4375)"/>
<path d="M0 0 C2.875 0.9375 2.875 0.9375 4.875 3.9375 C5.558557 8.25344711 5.57294112 11.81005665 3.25 15.5625 C0.875 16.9375 0.875 16.9375 -2.25 16.875 C-5.125 15.9375 -5.125 15.9375 -7.125 12.9375 C-7.808557 8.62155289 -7.82294112 5.06494335 -5.5 1.3125 C-3.125 -0.0625 -3.125 -0.0625 0 0 Z " fill="#1C1C1C" transform="translate(266.125,149.0625)"/>
<path d="M0 0 C4 1 4 1 5.703125 3.50390625 C6.21359375 4.51324219 6.7240625 5.52257812 7.25 6.5625 C8.03117188 8.08037109 8.03117188 8.08037109 8.828125 9.62890625 C9.21484375 10.41136719 9.6015625 11.19382813 10 12 C10.33 8.04 10.66 4.08 11 0 C11.99 0 12.98 0 14 0 C14 6.6 14 13.2 14 20 C13.01 20 12.02 20 11 20 C8.69 15.71 6.38 11.42 4 7 C3.67 11.62 3.34 16.24 3 21 C2.01 21 1.02 21 0 21 C0 14.07 0 7.14 0 0 Z " fill="#131313" transform="translate(205,145)"/>
<path d="M0 0 C0.99 0 1.98 0 3 0 C3.33 1.98 3.66 3.96 4 6 C4.763125 5.773125 5.52625 5.54625 6.3125 5.3125 C9 5 9 5 10.65625 6.0625 C12.64227543 8.92607156 12.28959039 11.25045703 12.1875 14.6875 C12.16042969 15.86699219 12.13335937 17.04648438 12.10546875 18.26171875 C12.07066406 19.16535156 12.03585938 20.06898438 12 21 C11.01 21 10.02 21 9 21 C8.67 16.71 8.34 12.42 8 8 C6.68 8.33 5.36 8.66 4 9 C3.67 12.96 3.34 16.92 3 21 C2.01 21 1.02 21 0 21 C0 14.07 0 7.14 0 0 Z " fill="#0E0E0E" transform="translate(165,144)"/>
<path d="M0 0 C2.875 0.3125 2.875 0.3125 6 1 C8.1519437 4.22791555 8.20086443 5.28400809 8 9 C5.03 9 2.06 9 -1 9 C-0.67 10.65 -0.34 12.3 0 14 C2.31 14 4.62 14 7 14 C7 14.66 7 15.32 7 16 C1.75768289 16.42969812 1.75768289 16.42969812 -1 16 C-3.47627282 13.36896013 -3.92011444 11.54778669 -4.4375 8 C-3.9001142 4.31506879 -2.51917486 2.67662329 0 0 Z " fill="#171717" transform="translate(185,149)"/>
<path d="M0 0 C2.875 -0.125 2.875 -0.125 6 0 C8 2 8 2 8.1953125 5.2578125 C8.16050781 7.17207031 8.16050781 7.17207031 8.125 9.125 C8.10695312 10.40632812 8.08890625 11.68765625 8.0703125 13.0078125 C8.04710937 13.99523437 8.02390625 14.98265625 8 16 C6.54207116 16.05399736 5.08357288 16.09279177 3.625 16.125 C2.40683594 16.15980469 2.40683594 16.15980469 1.1640625 16.1953125 C-1 16 -1 16 -3 14 C-2.67028521 10.70285207 -2.3773161 9.3773161 0 7 C3.125 6.875 3.125 6.875 6 7 C5.67 5.68 5.34 4.36 5 3 C2.03 2.505 2.03 2.505 -1 2 C-0.67 1.34 -0.34 0.68 0 0 Z " fill="#0F0F0F" transform="translate(226,149)"/>
<path d="M0 0 C11.55 0 23.1 0 35 0 C35 5.94 35 11.88 35 18 C34.01 18.495 34.01 18.495 33 19 C33 13.39 33 7.78 33 2 C22.77 2 12.54 2 2 2 C2 4.64 2 7.28 2 10 C1.67 10 1.34 10 1 10 C0.67 6.7 0.34 3.4 0 0 Z " fill="#D53940" transform="translate(147,30)"/>
<path d="M0 0 C1 1 1 1 1.09765625 4.16015625 C1.08605469 5.44792969 1.07445312 6.73570312 1.0625 8.0625 C1.05347656 9.35285156 1.04445313 10.64320313 1.03515625 11.97265625 C1.02355469 12.97167969 1.01195312 13.97070312 1 15 C0.34 15 -0.32 15 -1 15 C-1.33 10.71 -1.66 6.42 -2 2 C-3.32 2.33 -4.64 2.66 -6 3 C-6.33 7.29 -6.66 11.58 -7 16 C-7.99 16 -8.98 16 -10 16 C-10 10.72 -10 5.44 -10 0 C-5.66473162 -0.86705368 -4.00869538 -1.11352649 0 0 Z " fill="#272727" transform="translate(286,150)"/>
<path d="M0 0 C0.33 0 0.66 0 1 0 C1 9.57 1 19.14 1 29 C-2.00617269 25.99382731 -1.59585316 23.17618402 -2 19 C-2.99 21.64 -3.98 24.28 -5 27 C-5.33 27 -5.66 27 -6 27 C-5.43755107 20.54153469 -4.26271535 14.64936738 -2.4375 8.4375 C-2.20353516 7.61958984 -1.96957031 6.80167969 -1.72851562 5.95898438 C-1.15880046 3.97079473 -0.58033086 1.98511701 0 0 Z " fill="#FEEFF3" transform="translate(184,102)"/>
<path d="M0 0 C0.99 0 1.98 0 3 0 C3.33 4.62 3.66 9.24 4 14 C4.99 14 5.98 14 7 14 C8.28446919 11.43106162 8.32977144 9.23423663 8.5625 6.375 C8.64628906 5.37210938 8.73007812 4.36921875 8.81640625 3.3359375 C8.87699219 2.56507813 8.93757813 1.79421875 9 1 C9.66 1 10.32 1 11 1 C11 5.95 11 10.9 11 16 C10.01 16 9.02 16 8 16 C6.205625 16.0309375 6.205625 16.0309375 4.375 16.0625 C1 16 1 16 0 15 C-0.07313567 12.46950598 -0.09247527 9.96695163 -0.0625 7.4375 C-0.05798828 6.72658203 -0.05347656 6.01566406 -0.04882812 5.28320312 C-0.03700864 3.52209987 -0.01907263 1.76103964 0 0 Z " fill="#272727" transform="translate(22,149)"/>
<path d="M0 0 C3.53571429 0.53571429 3.53571429 0.53571429 5 2 C5.16796875 3.99609375 5.16796875 3.99609375 5.1875 6.4375 C5.20167969 7.24058594 5.21585938 8.04367188 5.23046875 8.87109375 C5 11 5 11 3 13 C0.9375 12.75 0.9375 12.75 -1 12 C-2.11445498 9.77109005 -2.16480286 8.46944894 -2.1875 6 C-2.20167969 5.29875 -2.21585938 4.5975 -2.23046875 3.875 C-2 2 -2 2 0 0 Z " fill="#EAEAEA" transform="translate(134,151)"/>
<path d="M0 0 C2.05710856 3.08566284 2.78346093 5.36985312 3.6875 8.9375 C3.95949219 9.97777344 4.23148437 11.01804687 4.51171875 12.08984375 C4.97828785 14.8705956 4.93894816 16.38480882 4 19 C3.67 18.67 3.34 18.34 3 18 C2.95101562 18.85464844 2.90203125 19.70929688 2.8515625 20.58984375 C2.77679688 21.69457031 2.70203125 22.79929687 2.625 23.9375 C2.52058594 25.59072266 2.52058594 25.59072266 2.4140625 27.27734375 C2.27742188 28.17582031 2.14078125 29.07429688 2 30 C1.34 30.33 0.68 30.66 0 31 C0 20.77 0 10.54 0 0 Z " fill="#FEBFC2" transform="translate(107,100)"/>
<path d="M0 0 C5.94 0 11.88 0 18 0 C17.67 0.66 17.34 1.32 17 2 C11.72 1.67 6.44 1.34 1 1 C1 14.53 1 28.06 1 42 C4.3 42 7.6 42 11 42 C11 42.33 11 42.66 11 43 C5.555 43.495 5.555 43.495 0 44 C-0.69695628 40.51521861 -1.12075522 38.23020593 -1.02172852 34.85229492 C-1.00163223 34.07186325 -0.98153595 33.29143158 -0.96083069 32.48735046 C-0.93379562 31.6600795 -0.90676056 30.83280853 -0.87890625 29.98046875 C-0.85529526 29.12189774 -0.83168427 28.26332672 -0.80735779 27.3787384 C-0.73104912 24.64814354 -0.64688452 21.91785604 -0.5625 19.1875 C-0.50924644 17.33139503 -0.45650629 15.47527526 -0.40429688 13.61914062 C-0.27643915 9.07917673 -0.13795295 4.53971319 0 0 Z " fill="#FEE6E7" transform="translate(149,89)"/>
<path d="M0 0 C12.54 0 25.08 0 38 0 C38 0.33 38 0.66 38 1 C26.12 1.33 14.24 1.66 2 2 C2.33 7.94 2.66 13.88 3 20 C2.34 20 1.68 20 1 20 C-1.11081869 13.66754392 0 6.6749948 0 0 Z " fill="#FEE1DF" transform="translate(144,27)"/>
<path d="M0 0 C5.94 0 11.88 0 18 0 C18 5.94 18 11.88 18 18 C16.68 18.33 15.36 18.66 14 19 C13.67 18.01 13.34 17.02 13 16 C13.33 15.34 13.66 14.68 14 14 C14.66 14 15.32 14 16 14 C16.33 9.71 16.66 5.42 17 1 C11.72 1 6.44 1 1 1 C1 2.98 1 4.96 1 7 C2.65 7 4.3 7 6 7 C6 6.01 6 5.02 6 4 C6.66 4 7.32 4 8 4 C9.35439668 6.70879335 9.06501451 9.00933268 9 12 C8.67 10.68 8.34 9.36 8 8 C5.36 8 2.72 8 0 8 C0 5.36 0 2.72 0 0 Z " fill="#C01423" transform="translate(28,108)"/>
<path d="M0 0 C0.33 0 0.66 0 1 0 C1 2.64 1 5.28 1 8 C3.64 8 6.28 8 9 8 C8.625 10.4375 8.625 10.4375 8 13 C5.26094655 14.36952673 3.02912668 14.12621361 0 14 C-0.66 13.67 -1.32 13.34 -2 13 C-2.40729228 10.67843403 -2.74438677 8.3431213 -3 6 C-2.34 5.67 -1.68 5.34 -1 5 C-0.34444881 2.47266765 -0.34444881 2.47266765 0 0 Z " fill="#FCEEE9" transform="translate(27,108)"/>
<path d="M0 0 C0.33 0 0.66 0 1 0 C1 8.91 1 17.82 1 27 C0.67 27 0.34 27 0 27 C-0.33 24.36 -0.66 21.72 -1 19 C-2.32 20.32 -3.64 21.64 -5 23 C-4.354523 15.09290669 -2.13002861 7.60866033 0 0 Z " fill="#FDF6F7" transform="translate(131,103)"/>
<path d="M0 0 C1.32 0.33 2.64 0.66 4 1 C5.25 3.5625 5.25 3.5625 6 6 C5.01 6 4.02 6 3 6 C3 10.95 3 15.9 3 21 C2.01 21 1.02 21 0 21 C0 14.07 0 7.14 0 0 Z " fill="#2C2C2C" transform="translate(205,145)"/>
<path d="M0 0 C0 0.99 0 1.98 0 3 C-1.32 3 -2.64 3 -4 3 C-4 3.99 -4 4.98 -4 6 C-3.175 6.433125 -2.35 6.86625 -1.5 7.3125 C-0.675 7.869375 0.15 8.42625 1 9 C1.375 12.125 1.375 12.125 1 15 C0 16 0 16 -1.84765625 16.09765625 C-3.8984375 16.06510417 -5.94921875 16.03255208 -8 16 C-8 15.67 -8 15.34 -8 15 C-6.35 14.67 -4.7 14.34 -3 14 C-2.67 12.68 -2.34 11.36 -2 10 C-2.804375 9.690625 -3.60875 9.38125 -4.4375 9.0625 C-7 8 -7 8 -8 7 C-8.25 4.5625 -8.25 4.5625 -8 2 C-4.77208445 -0.1519437 -3.71599191 -0.20086443 0 0 Z " fill="#121212" transform="translate(106,149)"/>
<path d="M0 0 C3.69230769 0.69230769 3.69230769 0.69230769 5 2 C5.09823996 3.47648876 5.12973519 4.95775417 5.125 6.4375 C5.12757812 7.24058594 5.13015625 8.04367188 5.1328125 8.87109375 C5 11 5 11 4 13 C2.68 13 1.36 13 0 13 C-1.25069801 10.49860398 -1.13302467 8.72607309 -1.125 5.9375 C-1.12757812 5.03902344 -1.13015625 4.14054688 -1.1328125 3.21484375 C-1 1 -1 1 0 0 Z " fill="#EFEFEF" transform="translate(59,151)"/>
<path d="M0 0 C1.65 0 3.3 0 5 0 C4.01 0.33 3.02 0.66 2 1 C2 3.64 2 6.28 2 9 C3.32 9.33 4.64 9.66 6 10 C4.68 10 3.36 10 2 10 C2 12.97 2 15.94 2 19 C4.97017694 18.37189827 4.97017694 18.37189827 8 17 C9.43923199 14.49004504 9.43923199 14.49004504 10 12 C10.33 12 10.66 12 11 12 C11.125 14.875 11.125 14.875 11 18 C10.34 18.66 9.68 19.32 9 20 C6.03 20 3.06 20 0 20 C0 13.4 0 6.8 0 0 Z " fill="#000000" transform="translate(6,145)"/>
<path d="M0 0 C1.32 0 2.64 0 4 0 C5.20272819 2.40545638 5.10071472 3.94996953 5.0625 6.625 C5.05347656 7.44226563 5.04445313 8.25953125 5.03515625 9.1015625 C5.02355469 9.72804687 5.01195312 10.35453125 5 11 C3.02 11.99 3.02 11.99 1 13 C-1 11 -1 11 -1.23046875 8.65234375 C-1.21628906 7.75644531 -1.20210938 6.86054688 -1.1875 5.9375 C-1.18105469 5.03902344 -1.17460937 4.14054688 -1.16796875 3.21484375 C-1 1 -1 1 0 0 Z " fill="#F4F4F4" transform="translate(263,151)"/>
<path d="M0 0 C2.57146057 2.57146057 2.80117997 4.6050417 3.625 8.125 C3.88539062 9.22070312 4.14578125 10.31640625 4.4140625 11.4453125 C4.70410156 12.70988281 4.70410156 12.70988281 5 14 C2.36 14 -0.28 14 -3 14 C-2.48594831 9.03083364 -1.76615118 4.70973649 0 0 Z " fill="#FEE3E1" transform="translate(71,101)"/>
<path d="M0 0 C5 5 5 5 6 8 C5.26330078 8.58201172 5.26330078 8.58201172 4.51171875 9.17578125 C2.49274247 11.61211696 2.69101195 13.06930672 2.8125 16.1875 C2.83957031 17.08855469 2.86664063 17.98960938 2.89453125 18.91796875 C2.92933594 19.60503906 2.96414063 20.29210937 3 21 C2.01 21.33 1.02 21.66 0 22 C0 14.74 0 7.48 0 0 Z " fill="#FDF4F0" transform="translate(261,109)"/>
<path d="M0 0 C2.31 0 4.62 0 7 0 C7 0.99 7 1.98 7 3 C6.34 3 5.68 3 5 3 C4.67 3.99 4.34 4.98 4 6 C3.34 6 2.68 6 2 6 C1.67 16.23 1.34 26.46 1 37 C0.67 37 0.34 37 0 37 C0 24.79 0 12.58 0 0 Z " fill="#EB1723" transform="translate(251,91)"/>
<path d="M0 0 C0.66 0 1.32 0 2 0 C2 1.32 2 2.64 2 4 C3.32 4.33 4.64 4.66 6 5 C4.68 5 3.36 5 2 5 C2.0868748 6.95917659 2.19504512 8.91741871 2.3125 10.875 C2.37050781 11.96554688 2.42851562 13.05609375 2.48828125 14.1796875 C2.65714844 15.11039063 2.82601562 16.04109375 3 17 C3.99 17.66 4.98 18.32 6 19 C4.00045254 19.04254356 1.99958364 19.04080783 0 19 C-1 18 -1 18 -1.09765625 15.05859375 C-1.08605469 13.86363281 -1.07445312 12.66867188 -1.0625 11.4375 C-1.05347656 10.23996094 -1.04445312 9.04242188 -1.03515625 7.80859375 C-1.02355469 6.88175781 -1.01195312 5.95492187 -1 5 C-1.66 4.67 -2.32 4.34 -3 4 C-2.34 3.67 -1.68 3.34 -1 3 C-0.67 2.01 -0.34 1.02 0 0 Z " fill="#1A1A1A" transform="translate(241,146)"/>
<path d="M0 0 C1.49599289 2.99198577 2.35829058 4.97647857 3.0703125 8.109375 C3.24433594 8.86347656 3.41835937 9.61757812 3.59765625 10.39453125 C3.77167969 11.17183594 3.94570312 11.94914062 4.125 12.75 C4.30675781 13.54277344 4.48851562 14.33554688 4.67578125 15.15234375 C5.12175014 17.10052366 5.56149151 19.05012731 6 21 C5.01 20.34 4.02 19.68 3 19 C3 18.01 3 17.02 3 16 C2.34 16 1.68 16 1 16 C1 20.62 1 25.24 1 30 C0.67 30 0.34 30 0 30 C0 20.1 0 10.2 0 0 Z " fill="#FDD5D2" transform="translate(160,100)"/>
<path d="M0 0 C0.99 0.33 1.98 0.66 3 1 C3.33 3.31 3.66 5.62 4 8 C1.03 8 -1.94 8 -5 8 C-3.8624438 10.59141286 -3.8624438 10.59141286 -2 13 C0.62694422 13.41780879 0.62694422 13.41780879 3 13 C3 13.66 3 14.32 3 15 C-3.0546875 15.1953125 -3.0546875 15.1953125 -5 15 C-7 13 -7 13 -7.1953125 10.8359375 C-7.17210938 10.02382812 -7.14890625 9.21171875 -7.125 8.375 C-7.10695313 7.55773437 -7.08890625 6.74046875 -7.0703125 5.8984375 C-7.04710938 5.27195313 -7.02390625 4.64546875 -7 4 C-6.34 3.67 -5.68 3.34 -5 3 C-5 4.32 -5 5.64 -5 7 C-3.02 7 -1.04 7 1 7 C0.67 4.69 0.34 2.38 0 0 Z " fill="#0D0D0D" transform="translate(79,150)"/>
<path d="M0 0 C0.99 0 1.98 0 3 0 C3 6.93 3 13.86 3 21 C2.01 21 1.02 21 0 21 C0 14.07 0 7.14 0 0 Z " fill="#1F1F1F" transform="translate(47,144)"/>
<path d="M0 0 C2.9375 0.125 2.9375 0.125 6 1 C7.375 3.5625 7.375 3.5625 8 6 C7.34 6 6.68 6 6 6 C6 6.66 6 7.32 6 8 C3.69 8 1.38 8 -1 8 C-1.04241723 5.66705225 -1.04092937 3.33297433 -1 1 C-0.67 0.67 -0.34 0.34 0 0 Z " fill="#282828" transform="translate(185,149)"/>
<path d="M0 0 C0.66 0 1.32 0 2 0 C2 0.99 2 1.98 2 3 C2.99 3 3.98 3 5 3 C5 3.66 5 4.32 5 5 C3.68 5 2.36 5 1 5 C1.05991406 6.95918968 1.14867138 8.91751529 1.25 10.875 C1.29640625 11.96554688 1.3428125 13.05609375 1.390625 14.1796875 C1.68846128 17.1332065 1.68846128 17.1332065 4.046875 18.3828125 C4.69140625 18.58648437 5.3359375 18.79015625 6 19 C3.69 19 1.38 19 -1 19 C-1 14.38 -1 9.76 -1 5 C-1.66 4.67 -2.32 4.34 -3 4 C-2.34 4 -1.68 4 -1 4 C-0.67 2.68 -0.34 1.36 0 0 Z " fill="#161616" transform="translate(156,146)"/>
<path d="M0 0 C0.7425 0.2475 1.485 0.495 2.25 0.75 C1.59 1.41 0.93 2.07 0.25 2.75 C-0.74 2.75 -1.73 2.75 -2.75 2.75 C-2.75 6.71 -2.75 10.67 -2.75 14.75 C-1.43 15.08 -0.11 15.41 1.25 15.75 C-1.625 15.9375 -1.625 15.9375 -4.75 15.75 C-7.42818441 11.73272339 -7.43882655 8.46973745 -6.75 3.75 C-4.65901159 0.49735136 -3.89652259 -0.35422933 0 0 Z " fill="#161616" transform="translate(61.75,149.25)"/>
<path d="M0 0 C0.79019531 0.04253906 1.58039063 0.08507812 2.39453125 0.12890625 C3.21050781 0.18433594 4.02648437 0.23976563 4.8671875 0.296875 C5.69089844 0.33683594 6.51460937 0.37679688 7.36328125 0.41796875 C13.48392585 0.78861335 13.48392585 0.78861335 15.7421875 3.046875 C14.80366943 3.08445923 14.80366943 3.08445923 13.84619141 3.12280273 C11.01964131 3.23862773 8.19343581 3.36141485 5.3671875 3.484375 C3.88992187 3.54334961 3.88992187 3.54334961 2.3828125 3.60351562 C0.97128906 3.66635742 0.97128906 3.66635742 -0.46875 3.73046875 C-1.33806152 3.76712646 -2.20737305 3.80378418 -3.10302734 3.84155273 C-5.3061387 3.92089044 -5.3061387 3.92089044 -7.2578125 5.046875 C-7.5878125 4.056875 -7.9178125 3.066875 -8.2578125 2.046875 C-5.32920511 0.36278142 -3.36623666 -0.18521454 0 0 Z " fill="#FCC3C9" transform="translate(148.2578125,3.953125)"/>
<path d="M0 0 C3.76324601 0.22477963 5.77392735 0.43131615 8.96484375 2.55859375 C8.96484375 3.21859375 8.96484375 3.87859375 8.96484375 4.55859375 C7.97484375 4.88859375 6.98484375 5.21859375 5.96484375 5.55859375 C5.96484375 4.89859375 5.96484375 4.23859375 5.96484375 3.55859375 C2.59048189 3.22478561 2.59048189 3.22478561 -1.03515625 3.55859375 C-3.58683134 5.92469247 -4.01216949 7.30481995 -4.328125 10.79296875 C-4.29332031 11.953125 -4.25851563 13.11328125 -4.22265625 14.30859375 C-4.19558594 15.4790625 -4.16851562 16.64953125 -4.140625 17.85546875 C-4.10582031 18.7475 -4.07101563 19.63953125 -4.03515625 20.55859375 C-6.78853598 17.80521402 -6.3666642 16.08644135 -6.41015625 12.24609375 C-6.43851563 11.11558594 -6.466875 9.98507813 -6.49609375 8.8203125 C-5.89658143 4.57800074 -4.39360222 1.20592153 0 0 Z " fill="#FDDDDA" transform="translate(220.03515625,98.44140625)"/>
<path d="M0 0 C2.375 -0.125 2.375 -0.125 5 0 C5.66 0.66 6.32 1.32 7 2 C6.625 4.625 6.625 4.625 6 7 C4.02 7.33 2.04 7.66 0 8 C0 5.36 0 2.72 0 0 Z " fill="#E3E3E3" transform="translate(8,156)"/>
<path d="M0 0 C0.66 0 1.32 0 2 0 C2 1.32 2 2.64 2 4 C3.32 4.33 4.64 4.66 6 5 C4.68 5 3.36 5 2 5 C2.0868748 6.95917659 2.19504512 8.91741871 2.3125 10.875 C2.37050781 11.96554688 2.42851563 13.05609375 2.48828125 14.1796875 C2.65714844 15.11039063 2.82601562 16.04109375 3 17 C3.99 17.66 4.98 18.32 6 19 C4.02 19 2.04 19 0 19 C0 14.38 0 9.76 0 5 C-0.66 4.67 -1.32 4.34 -2 4 C-1.34 4 -0.68 4 0 4 C0 2.68 0 1.36 0 0 Z " fill="#070707" transform="translate(120,146)"/>
<path d="M0 0 C0.33 0 0.66 0 1 0 C1.99 4.29 2.98 8.58 4 13 C4.99 13 5.98 13 7 13 C6.25 20.75 6.25 20.75 4 23 C3.13240448 19.73257727 2.28326557 16.46063519 1.4375 13.1875 C1.19064453 12.25873047 0.94378906 11.32996094 0.68945312 10.37304688 C0.46064453 9.48037109 0.23183594 8.58769531 -0.00390625 7.66796875 C-0.21861572 6.84578857 -0.4333252 6.0236084 -0.65454102 5.17651367 C-1 3 -1 3 0 0 Z " fill="#FEDFE3" transform="translate(168,91)"/>
<path d="M0 0 C0.33 2.64 0.66 5.28 1 8 C-0.98 8 -2.96 8 -5 8 C-5.66 6.35 -6.32 4.7 -7 3 C-4.49955934 -0.00052879 -4.2621484 0 0 0 Z " fill="#373737" transform="translate(79,149)"/>
<path d="M0 0 C0 0.66 0 1.32 0 2 C-0.99 2 -1.98 2 -3 2 C-3.33 2.66 -3.66 3.32 -4 4 C-7.00299655 5.50149828 -10.08476691 5.18438425 -13.375 5.1875 C-14.38433594 5.20586914 -14.38433594 5.20586914 -15.4140625 5.22460938 C-19.11861843 5.23554802 -21.85490643 5.04027865 -25 3 C-24.67 2.34 -24.34 1.68 -24 1 C-23.01 1.33 -22.02 1.66 -21 2 C-18.71067322 2.12093495 -16.41748676 2.17538326 -14.125 2.1875 C-12.30355469 2.20876953 -12.30355469 2.20876953 -10.4453125 2.23046875 C-6.69817504 1.97980989 -3.60748513 0 0 0 Z " fill="#FED1D1" transform="translate(236,128)"/>
<path d="M0 0 C1.65 0 3.3 0 5 0 C5 4.95 5 9.9 5 15 C4.01 15 3.02 15 2 15 C2 10.38 2 5.76 2 1 C1.34 0.67 0.68 0.34 0 0 Z " fill="#050505" transform="translate(249,150)"/>
<path d="M0 0 C1.65 0 3.3 0 5 0 C5 4.95 5 9.9 5 15 C4.01 15 3.02 15 2 15 C2 10.38 2 5.76 2 1 C1.34 0.67 0.68 0.34 0 0 Z " fill="#030303" transform="translate(37,150)"/>
<path d="M0 0 C0.99 0 1.98 0 3 0 C3 9.57 3 19.14 3 29 C5.64 29.33 8.28 29.66 11 30 C11 30.33 11 30.66 11 31 C7.7 31 4.4 31 1 31 C0.67 20.77 0.34 10.54 0 0 Z " fill="#BA3F46" transform="translate(184,100)"/>
<path d="M0 0 C0.33 0 0.66 0 1 0 C1 1.98 1 3.96 1 6 C0.01 6.33 -0.98 6.66 -2 7 C-2.12375 7.639375 -2.2475 8.27875 -2.375 8.9375 C-2.58125 9.618125 -2.7875 10.29875 -3 11 C-5.5625 12.25 -5.5625 12.25 -8 13 C-8 11.35 -8 9.7 -8 8 C-6.35 7.67 -4.7 7.34 -3 7 C-2.67 5.35 -2.34 3.7 -2 2 C-1.34 2 -0.68 2 0 2 C0 1.34 0 0.68 0 0 Z " fill="#E91623" transform="translate(126,110)"/>
<path d="M0 0 C0 0.99 0 1.98 0 3 C-0.96679688 3.32097656 -0.96679688 3.32097656 -1.953125 3.6484375 C-4.27839115 4.8473523 -4.27839115 4.8473523 -4.609375 7.6015625 C-4.65578125 8.59929687 -4.7021875 9.59703125 -4.75 10.625 C-4.80671875 11.62789062 -4.8634375 12.63078125 -4.921875 13.6640625 C-4.94765625 14.43492187 -4.9734375 15.20578125 -5 16 C-5.66 16 -6.32 16 -7 16 C-7 11.05 -7 6.1 -7 1 C-3 0 -3 0 0 0 Z " fill="#121212" transform="translate(95,149)"/>
<path d="M0 0 C0.66 1.32 1.32 2.64 2 4 C1.01 4 0.02 4 -1 4 C-1 4.99 -1 5.98 -1 7 C-1.66 7 -2.32 7 -3 7 C-2.625 4.0625 -2.625 4.0625 -2 1 C-1.34 0.67 -0.68 0.34 0 0 Z M5 0 C6.23076923 6.4 6.23076923 6.4 5.0625 9.4375 C4.711875 9.953125 4.36125 10.46875 4 11 C1.90649311 7.5980513 1.82057837 4.94727588 2 1 C4 0 4 0 5 0 Z " fill="#D92831" transform="translate(178,99)"/>
<path d="M0 0 C0.33 0 0.66 0 1 0 C1.33 2.64 1.66 5.28 2 8 C5.89459074 8.21081851 5.89459074 8.21081851 9 7 C8.67 8.32 8.34 9.64 8 11 C5.25 11.75 5.25 11.75 2 12 C-0.375 10.0625 -0.375 10.0625 -2 8 C-1.67 7.01 -1.34 6.02 -1 5 C-0.65179959 3.33637583 -0.31595508 1.67004829 0 0 Z " fill="#343434" transform="translate(261,154)"/>
<path d="M0 0 C1.66611905 -0.042721 3.33382885 -0.04063832 5 0 C6 1 6 1 6.125 3.5 C6 6 6 6 5 7 C3.33382885 7.04063832 1.66611905 7.042721 0 7 C0 4.69 0 2.38 0 0 Z " fill="#E7E7E7" transform="translate(8,147)"/>
<path d="M0 0 C0.66 1.32 1.32 2.64 2 4 C1.01 4.33 0.02 4.66 -1 5 C-3.48057628 7.48057628 -3.29019005 8.36192464 -3.4140625 11.7890625 C-3.45273438 12.73007812 -3.49140625 13.67109375 -3.53125 14.640625 C-3.5621875 15.62546875 -3.593125 16.6103125 -3.625 17.625 C-3.66367188 18.61757813 -3.70234375 19.61015625 -3.7421875 20.6328125 C-3.8366314 23.08835385 -3.92219875 25.5438841 -4 28 C-4.33 28 -4.66 28 -5 28 C-5.14560195 24.27124612 -5.23417043 20.54322566 -5.3125 16.8125 C-5.35439453 15.75740234 -5.39628906 14.70230469 -5.43945312 13.61523438 C-5.5608921 5.91600315 -5.5608921 5.91600315 -3.86474609 3.14599609 C-2.48046875 1.76171875 -2.48046875 1.76171875 0 0 Z " fill="#C51620" transform="translate(130,21)"/>
<path d="M0 0 C0.66 0 1.32 0 2 0 C2 4.95 2 9.9 2 15 C-0.66666667 15 -3.33333333 15 -6 15 C-5.360625 14.71125 -4.72125 14.4225 -4.0625 14.125 C-1.84793921 13.17176549 -1.84793921 13.17176549 -1 11 C-0.7724985 9.12943209 -0.59037189 7.25314042 -0.4375 5.375 C-0.35371094 4.37210938 -0.26992188 3.36921875 -0.18359375 2.3359375 C-0.12300781 1.56507813 -0.06242187 0.79421875 0 0 Z " fill="#050505" transform="translate(31,150)"/>
<path d="M0 0 C0.99 0.33 1.98 0.66 3 1 C3.99 0.67 4.98 0.34 6 0 C7.83056393 -0.11854556 9.66564306 -0.17517233 11.5 -0.1875 C12.93859375 -0.20876953 12.93859375 -0.20876953 14.40625 -0.23046875 C17 0 17 0 20 2 C18.83984375 1.94779297 18.83984375 1.94779297 17.65625 1.89453125 C10.92889076 1.71968652 6.12501044 2.21590435 0 5 C-0.99 5.33 -1.98 5.66 -3 6 C-3 5.34 -3 4.68 -3 4 C-2.34 4 -1.68 4 -1 4 C-0.67 2.68 -0.34 1.36 0 0 Z " fill="#FDE0E0" transform="translate(210,88)"/>
<path d="M0 0 C0.66 0 1.32 0 2 0 C2 5.94 2 11.88 2 18 C0.68 18.33 -0.64 18.66 -2 19 C-2.33 18.01 -2.66 17.02 -3 16 C-2.67 15.34 -2.34 14.68 -2 14 C-1.34 14 -0.68 14 0 14 C0 9.38 0 4.76 0 0 Z " fill="#CB1B24" transform="translate(44,108)"/>
<path d="M0 0 C0.66 0 1.32 0 2 0 C2 1.32 2 2.64 2 4 C5.3 4 8.6 4 12 4 C12.33 3.34 12.66 2.68 13 2 C13.33 3.32 13.66 4.64 14 6 C10.04 6 6.08 6 2 6 C1.34 4.02 0.68 2.04 0 0 Z " fill="#C4323E" transform="translate(79,125)"/>
<path d="M0 0 C1.2065625 0.0309375 1.2065625 0.0309375 2.4375 0.0625 C2.1075 1.7125 1.7775 3.3625 1.4375 5.0625 C0.1175 5.3925 -1.2025 5.7225 -2.5625 6.0625 C-2.94468767 4.40635343 -3.27645102 2.73792976 -3.5625 1.0625 C-2.5625 0.0625 -2.5625 0.0625 0 0 Z " fill="#E6E6E6" transform="translate(229.5625,157.9375)"/>
<path d="M0 0 C0.99 0.33 1.98 0.66 3 1 C3 5.62 3 10.24 3 15 C2.34 15 1.68 15 1 15 C0.67 10.05 0.34 5.1 0 0 Z " fill="#010101" transform="translate(284,150)"/>
<path d="M0 0 C1 2 1 2 0.1875 4.875 C-0.75524181 7.3558995 -1.7442206 9.66783825 -3 12 C-3.99 12 -4.98 12 -6 12 C-5.38385645 10.18447022 -4.75681772 8.3726347 -4.125 6.5625 C-3.77695312 5.55316406 -3.42890625 4.54382813 -3.0703125 3.50390625 C-2 1 -2 1 0 0 Z " fill="#CC2229" transform="translate(63,99)"/>
<path d="M0 0 C0.33 0 0.66 0 1 0 C1.03738281 0.77085937 1.07476562 1.54171875 1.11328125 2.3359375 C1.17902344 3.33882812 1.24476563 4.34171875 1.3125 5.375 C1.37050781 6.37273437 1.42851562 7.37046875 1.48828125 8.3984375 C1.65714844 9.25695312 1.82601562 10.11546875 2 11 C2.99 11.66 3.98 12.32 5 13 C3.02 13 1.04 13 -1 13 C-1.02686553 11.02090602 -1.04633375 9.04171029 -1.0625 7.0625 C-1.07410156 5.96035156 -1.08570313 4.85820312 -1.09765625 3.72265625 C-1 1 -1 1 0 0 Z " fill="#040404" transform="translate(242,152)"/>
<path d="M0 0 C0.33 0 0.66 0 1 0 C1.36372387 2.24847481 1.71564096 4.49886188 2.0625 6.75 C2.25972656 8.00296875 2.45695312 9.2559375 2.66015625 10.546875 C2.95080818 13.50016589 2.98935727 15.2602414 2 18 C1.01 18 0.02 18 -1 18 C-1.04254356 16.00045254 -1.04080783 13.99958364 -1 12 C-0.67 11.67 -0.34 11.34 0 11 C0.07226502 9.14712498 0.0838122 7.29166122 0.0625 5.4375 C0.05347656 4.42558594 0.04445313 3.41367188 0.03515625 2.37109375 C0.02355469 1.58863281 0.01195313 0.80617188 0 0 Z " fill="#CD1923" transform="translate(17,106)"/>
<path d="M0 0 C1.69057475 3.38114949 2.45815467 5.6299825 3.125 9.25 C3.29257813 10.14203125 3.46015625 11.0340625 3.6328125 11.953125 C3.75398437 12.62859375 3.87515625 13.3040625 4 14 C2.68 13.67 1.36 13.34 0 13 C0 8.71 0 4.42 0 0 Z " fill="#FECAC6" transform="translate(160,100)"/>
<path d="M0 0 C2.6875 0.3125 2.6875 0.3125 5 1 C4.67 2.32 4.34 3.64 4 5 C2.35 5.33 0.7 5.66 -1 6 C-1.66 5.01 -2.32 4.02 -3 3 C-1.8125 1.4375 -1.8125 1.4375 0 0 Z " fill="#FAEAE6" transform="translate(179,50)"/>
<path d="M0 0 C0.66 0.66 1.32 1.32 2 2 C1.54545455 7.45454545 1.54545455 7.45454545 -1 10 C-3.125 9.625 -3.125 9.625 -5 9 C-4.01 8.34 -3.02 7.68 -2 7 C-0.7811879 3.44327821 -0.7811879 3.44327821 0 0 Z " fill="#040404" transform="translate(140,155)"/>
<path d="M0 0 C0.99 0.99 1.98 1.98 3 3 C2.67 3.33 2.34 3.66 2 4 C1.84417697 5.34015221 1.74955858 6.68758903 1.68359375 8.03515625 C1.62075195 9.24848633 1.62075195 9.24848633 1.55664062 10.48632812 C1.51732422 11.33646484 1.47800781 12.18660156 1.4375 13.0625 C1.39431641 13.91650391 1.35113281 14.77050781 1.30664062 15.65039062 C1.20023298 17.76672037 1.09958269 19.88333813 1 22 C0.67 22 0.34 22 0 22 C0 14.74 0 7.48 0 0 Z " fill="#FEBABC" transform="translate(261,109)"/>
<path d="M0 0 C0.928125 0.20625 1.85625 0.4125 2.8125 0.625 C2.4825 1.945 2.1525 3.265 1.8125 4.625 C0.8225 4.625 -0.1675 4.625 -1.1875 4.625 C-1.1875 3.965 -1.1875 3.305 -1.1875 2.625 C-2.8375 2.295 -4.4875 1.965 -6.1875 1.625 C-3.1875 -0.375 -3.1875 -0.375 0 0 Z " fill="#E71721" transform="translate(79.1875,116.375)"/>
<path d="M0 0 C1.98 0.99 1.98 0.99 4 2 C3.34 4.97 2.68 7.94 2 11 C4.64 11 7.28 11 10 11 C10 11.33 10 11.66 10 12 C7.03 12 4.06 12 1 12 C0.875 5.25 0.875 5.25 2 3 C1.34 3 0.68 3 0 3 C0 2.01 0 1.02 0 0 Z " fill="#D2383D" transform="translate(66,104)"/>
<path d="M0 0 C1.32 0.33 2.64 0.66 4 1 C4 2.32 4 3.64 4 5 C2.02 5 0.04 5 -2 5 C-1.34 3.35 -0.68 1.7 0 0 Z " fill="#E9E9E9" transform="translate(186,151)"/>
<path d="M0 0 C1.98 0.495 1.98 0.495 4 1 C3.01 2.485 3.01 2.485 2 4 C1.54605448 6.27912938 1.54605448 6.27912938 1.375 8.6875 C1.30023438 9.49574219 1.22546875 10.30398437 1.1484375 11.13671875 C1.09945312 11.75160156 1.05046875 12.36648437 1 13 C0.67 13 0.34 13 0 13 C-0.19466332 11.20909747 -0.38051213 9.41723495 -0.5625 7.625 C-0.66691406 6.62726563 -0.77132812 5.62953125 -0.87890625 4.6015625 C-1 2 -1 2 0 0 Z " fill="#CD292D" transform="translate(213,100)"/>
<path d="M0 0 C3.3309303 -0.37010337 4.62731223 -0.27461204 7.375 1.75 C9 4 9 4 8.75 6.25 C8.5025 6.8275 8.255 7.405 8 8 C6 7 6 7 5.125 5.125 C3.80519587 2.63203665 2.32278328 1.54852219 0 0 Z " fill="#242424" transform="translate(133,149)"/>
<path d="M0 0 C2.64 0 5.28 0 8 0 C8 1.32 8 2.64 8 4 C8.66 4 9.32 4 10 4 C9.67 4.99 9.34 5.98 9 7 C7.53515625 5.76302083 6.0703125 4.52604167 4.60546875 3.2890625 C3.1344954 2.10798901 1.56962206 1.04641471 0 0 Z " fill="#FCE0D9" transform="translate(230,90)"/>
<path d="M0 0 C3.125 0.375 3.125 0.375 6 1 C6 1.33 6 1.66 6 2 C4.824375 2.12375 4.824375 2.12375 3.625 2.25 C0.85250896 2.72806339 0.85250896 2.72806339 -0.3125 5.0625 C-0.6528125 6.0215625 -0.6528125 6.0215625 -1 7 C-1.66 7 -2.32 7 -3 7 C-2.25 2.25 -2.25 2.25 0 0 Z " fill="#292929" transform="translate(226,156)"/>
<path d="M0 0 C1.98 0.495 1.98 0.495 4 1 C4 2.32 4 3.64 4 5 C2.35 5 0.7 5 -1 5 C-0.67 3.35 -0.34 1.7 0 0 Z " fill="#EFEEEF" transform="translate(76,151)"/>
<path d="M0 0 C0 0.66 0 1.32 0 2 C-0.99 2 -1.98 2 -3 2 C-3.33 2.66 -3.66 3.32 -4 4 C-6.95664519 5.4783226 -9.74229737 5.06032783 -13 5 C-10.54278328 3.36185552 -8.65432189 2.38047801 -5.9375 1.375 C-5.24527344 1.11460937 -4.55304688 0.85421875 -3.83984375 0.5859375 C-2 0 -2 0 0 0 Z " fill="#FCDBE4" transform="translate(236,128)"/>
<path d="M0 0 C4.21422242 2.88341534 5.76075855 5.04303419 7 10 C5.68 9.67 4.36 9.34 3 9 C3.33 7.68 3.66 6.36 4 5 C3.01 5 2.02 5 1 5 C0.67 3.35 0.34 1.7 0 0 Z " fill="#C3252B" transform="translate(39,91)"/>
<path d="M0 0 C1.46726798 3.81489674 0.43336419 6.29011622 -1 10 C-3.35953094 7.64046906 -3.49141413 6.22104383 -4 3 C-2.68 2.01 -1.36 1.02 0 0 Z " fill="#D11D24" transform="translate(164,96)"/>
<path d="M0 0 C2.0625 0.4375 2.0625 0.4375 4 1 C2.63016497 4.16115776 2.0109362 4.9927092 -1 7 C-1.04254356 5.00045254 -1.04080783 2.99958364 -1 1 C-0.67 0.67 -0.34 0.34 0 0 Z " fill="#D22A31" transform="translate(168,56)"/>
<path d="M0 0 C0.66 0 1.32 0 2 0 C1.34 3.3 0.68 6.6 0 10 C-0.66 9.67 -1.32 9.34 -2 9 C-2.25 3.375 -2.25 3.375 0 0 Z " fill="#060606" transform="translate(261,150)"/>
<path d="M0 0 C0.66 0 1.32 0 2 0 C1.32829194 3.8063457 0.27253436 7.35206816 -1 11 C-1.66 10.67 -2.32 10.34 -3 10 C-2.39009109 6.44219804 -1.4216319 3.3171411 0 0 Z " fill="#C8202B" transform="translate(56,114)"/>
<path d="M0 0 C0.33 0 0.66 0 1 0 C2.05699482 5.28497409 2.05699482 5.28497409 2 8 C0.0625 10.5 0.0625 10.5 -2 12 C-1 3.42857143 -1 3.42857143 0 0 Z " fill="#FEE2DD" transform="translate(128,114)"/>
<path d="M0 0 C2.475 0.495 2.475 0.495 5 1 C5 1.66 5 2.32 5 3 C4.34 3 3.68 3 3 3 C3 3.66 3 4.32 3 5 C2.01 5.33 1.02 5.66 0 6 C0 4.02 0 2.04 0 0 Z M-3 6 C0 7 0 7 0 7 Z " fill="#D01E23" transform="translate(121,109)"/>
<path d="M0 0 C1.98 0.66 3.96 1.32 6 2 C6 3.98 6 5.96 6 8 C1.125 3.375 1.125 3.375 0 0 Z " fill="#FEDADD" transform="translate(270,103)"/>
<path d="M0 0 C0.66 1.32 1.32 2.64 2 4 C1.01 5.32 0.02 6.64 -1 8 C-1.99 7.67 -2.98 7.34 -4 7 C-2.68 4.69 -1.36 2.38 0 0 Z " fill="#D8232F" transform="translate(134,16)"/>
<path d="M0 0 C0.66 0.33 1.32 0.66 2 1 C2 1.66 2 2.32 2 3 C4.31 3 6.62 3 9 3 C9 3.66 9 4.32 9 5 C6.36 5 3.72 5 1 5 C0.34 3.68 -0.32 2.36 -1 1 C-0.67 0.67 -0.34 0.34 0 0 Z " fill="#0F0F0F" transform="translate(183,160)"/>
<path d="M0 0 C3 1 3 1 4.16796875 2.84765625 C4.50441406 3.57855469 4.84085938 4.30945313 5.1875 5.0625 C5.53167969 5.79597656 5.87585938 6.52945313 6.23046875 7.28515625 C6.48441406 7.85105469 6.73835937 8.41695312 7 9 C4.66220476 8.04362922 3.28370631 7.46790368 1.953125 5.2734375 C1.30208333 3.515625 0.65104167 1.7578125 0 0 Z " fill="#171717" transform="translate(209,151)"/>
<path d="M0 0 C0 0.99 0 1.98 0 3 C-1.32 3 -2.64 3 -4 3 C-4.66 3.66 -5.32 4.32 -6 5 C-6 4.34 -6 3.68 -6 3 C-6.66 2.67 -7.32 2.34 -8 2 C-4.77208445 -0.1519437 -3.71599191 -0.20086443 0 0 Z " fill="#383838" transform="translate(106,149)"/>
<path d="M0 0 C0.66 0 1.32 0 2 0 C2 0.99 2 1.98 2 3 C5.3 3 8.6 3 12 3 C12 3.33 12 3.66 12 4 C8.37 4.33 4.74 4.66 1 5 C0.67 3.35 0.34 1.7 0 0 Z " fill="#FDF3EC" transform="translate(148,128)"/>
<path d="M0 0 C0.33 0 0.66 0 1 0 C1.4726477 8.19256018 1.4726477 8.19256018 -0.5 11.5625 C-0.995 12.036875 -1.49 12.51125 -2 13 C-1.85769192 11.58297487 -1.71099254 10.1663904 -1.5625 8.75 C-1.48128906 7.96109375 -1.40007812 7.1721875 -1.31640625 6.359375 C-1.02365007 4.17635361 -0.57935581 2.1226818 0 0 Z " fill="#FAC3C4" transform="translate(180,116)"/>
<path d="M0 0 C0.99 0 1.98 0 3 0 C2.67 4.62 2.34 9.24 2 14 C1.67 14 1.34 14 1 14 C0.67 9.38 0.34 4.76 0 0 Z " fill="#C63236" transform="translate(184,100)"/>
<path d="M0 0 C0.99 0.33 1.98 0.66 3 1 C2.67 2.32 2.34 3.64 2 5 C-0.64 5 -3.28 5 -6 5 C-6 4.67 -6 4.34 -6 4 C-4.35 3.67 -2.7 3.34 -1 3 C-0.67 2.01 -0.34 1.02 0 0 Z " fill="#1B1B1B" transform="translate(104,160)"/>
<path d="M0 0 C2.29633824 3.44450737 2.54016485 5.93812283 3 10 C2.01 9.67 1.02 9.34 0 9 C0 6.03 0 3.06 0 0 Z " fill="#FDCED1" transform="translate(108,104)"/>
<path d="M0 0 C0.33 0 0.66 0 1 0 C1 1.98 1 3.96 1 6 C-0.98 6.99 -0.98 6.99 -3 8 C-3.33 7.34 -3.66 6.68 -4 6 C-3.34 5.67 -2.68 5.34 -2 5 C-1.27840576 3.35636866 -0.60648579 1.68949614 0 0 Z " fill="#090909" transform="translate(16,157)"/>
<path d="M0 0 C0.33 0.66 0.66 1.32 1 2 C0.06421005 4.35981813 -0.93347808 6.69631264 -2 9 C-4 6 -4 6 -4 4 C-2.70766393 2.62689293 -1.37562854 1.28965176 0 0 Z " fill="#FBCDC9" transform="translate(122,104)"/>
<path d="M0 0 C0.33 0 0.66 0 1 0 C1 3.63 1 7.26 1 11 C0.01 10.01 -0.98 9.02 -2 8 C-1.79846293 5.15124622 -0.85624823 2.74900747 0 0 Z " fill="#FFD7D7" transform="translate(184,102)"/>
<path d="M0 0 C0.33 0 0.66 0 1 0 C1 2.97 1 5.94 1 9 C0.01 9 -0.98 9 -2 9 C-1.34 6.03 -0.68 3.06 0 0 Z " fill="#FED7D5" transform="translate(131,103)"/>
<path d="M0 0 C0.66 0 1.32 0 2 0 C1.34 2.97 0.68 5.94 0 9 C-0.33 9 -0.66 9 -1 9 C-1.09765625 2.84765625 -1.09765625 2.84765625 -1 1 C-0.67 0.67 -0.34 0.34 0 0 Z " fill="#FDDAD3" transform="translate(176,94)"/>
<path d="M0 0 C0.33 0.66 0.66 1.32 1 2 C0.67 2.99 0.34 3.98 0 5 C-3.0625 6.1875 -3.0625 6.1875 -6 7 C-4.02 4.69 -2.04 2.38 0 0 Z " fill="#C72A33" transform="translate(141,9)"/>
</svg>
