<?xml version="1.0" encoding="UTF-8"?>
<svg version="1.1" xmlns="http://www.w3.org/2000/svg" width="467" height="516">
<path d="M0 0 C-0.47844491 9.06087198 -3.37515269 17.3777809 -6.09375 25.9609375 C-6.60630109 27.59976379 -7.11813018 29.23881604 -7.62927246 30.87808228 C-8.96966941 35.16993207 -10.31993243 39.4586144 -11.67230225 43.7467041 C-13.04939885 48.11957732 -14.41678662 52.49548356 -15.78515625 56.87109375 C-17.78214315 63.25205384 -19.78274209 69.63185979 -21.79101562 76.00927734 C-22.10586662 77.00982147 -22.10586662 77.00982147 -22.42707825 78.03057861 C-23.26647598 80.69369296 -24.1169828 83.3509484 -25 86 C-26.32 86 -27.64 86 -29 86 C-30.32 79.4 -31.64 72.8 -33 66 C-34.33699951 67.33699951 -35.67399902 68.67399902 -37.05151367 70.05151367 C-56.36767578 89.36767578 -75.68383789 108.68383789 -95 128 C-93.45848327 132.33756568 -91.18438651 136.06124255 -88.75 139.9375 C-79.92796093 154.34972451 -74.5342912 169.12279681 -73 186 C-63.43 186 -53.86 186 -44 186 C-44 199.86 -44 213.72 -44 228 C-53.24 228.33 -62.48 228.66 -72 229 C-72.391875 231.330625 -72.78375 233.66125 -73.1875 236.0625 C-76.24957294 252.81808076 -82.46555062 270.66367911 -93.06640625 284.23828125 C-94.18500822 285.94670279 -94.18500822 285.94670279 -93.78320312 287.86694336 C-92.79789879 290.5504234 -91.44459201 291.89661882 -89.40234375 293.890625 C-88.68369141 294.59960938 -87.96503906 295.30859375 -87.22460938 296.0390625 C-86.09249023 297.13347656 -86.09249023 297.13347656 -84.9375 298.25 C-84.17888672 298.99507813 -83.42027344 299.74015625 -82.63867188 300.5078125 C-80.76567793 302.34546694 -78.88604389 304.17575724 -77 306 C-78.38629244 309.12324544 -79.99511571 311.24190707 -82.4140625 313.64453125 C-83.09339844 314.32193359 -83.77273438 314.99933594 -84.47265625 315.69726562 C-85.18292969 316.39529297 -85.89320313 317.09332031 -86.625 317.8125 C-87.31207031 318.49892578 -87.99914062 319.18535156 -88.70703125 319.89257812 C-92.75531868 323.90668676 -96.90815527 327.74929021 -101.2331543 331.46362305 C-102.39486926 332.47380299 -103.53433124 333.51026298 -104.64770508 334.57348633 C-108.33779865 337.99210322 -108.33779865 337.99210322 -111.29296875 338.02734375 C-115.27898612 336.51461277 -117.39135423 333.74948104 -120.125 330.5625 C-121.16649545 329.37386453 -122.21067249 328.18757211 -123.2578125 327.00390625 C-123.7130127 326.47611572 -124.16821289 325.9483252 -124.63720703 325.40454102 C-126.14707005 323.74964732 -126.14707005 323.74964732 -129 322 C-129.76441406 322.49628906 -130.52882813 322.99257813 -131.31640625 323.50390625 C-142.79484317 330.78325192 -154.36694147 336.4097899 -167.375 340.375 C-168.19492432 340.62588379 -169.01484863 340.87676758 -169.85961914 341.13525391 C-175.40014999 342.74356012 -180.04506054 343.33834006 -186 344 C-186 353.57 -186 363.14 -186 373 C-200.52 373 -215.04 373 -230 373 C-230 363.43 -230 353.86 -230 344 C-233.96 343.34 -237.92 342.68 -242 342 C-257.86976899 337.85167133 -272.74430195 330.60335736 -286 321 C-290.94165414 325.18377641 -295.74666604 329.4747589 -300.46484375 333.90844727 C-301.15730698 334.55872926 -301.8497702 335.20901125 -302.56321716 335.87899876 C-310.03871429 342.93247974 -317.31006935 350.18340091 -324.5625 357.46484375 C-325.97430619 358.87852253 -327.38633889 360.29197513 -328.79858398 361.70521545 C-332.45683244 365.36722303 -336.11206448 369.03222613 -339.76660156 372.69793701 C-343.51960955 376.46130392 -347.27556611 380.22172573 -351.03125 383.98242188 C-358.35699905 391.31879121 -365.67955387 398.65833951 -373 406 C-374.10463232 405.05964757 -375.20833052 404.11819776 -376.31164551 403.17630005 C-376.92636971 402.65215075 -377.5410939 402.12800144 -378.17444611 401.58796883 C-382.57673281 397.75861376 -386.68998184 393.61447736 -390.83691406 389.51318359 C-391.95471045 388.41212462 -393.07786702 387.31648342 -394.20605469 386.22607422 C-395.84743784 384.63915127 -397.47203026 383.0366695 -399.09375 381.4296875 C-399.60192261 380.94418427 -400.11009521 380.45868103 -400.63366699 379.95846558 C-402.02148437 378.56201172 -402.02148437 378.56201172 -404 376 C-403.6896038 372.49757321 -402.16986377 370.80573732 -399.72201538 368.39489746 C-399.02082077 367.69680466 -398.31962616 366.99871185 -397.59718323 366.27946472 C-396.82309616 365.52401871 -396.04900909 364.76857269 -395.25146484 363.99023438 C-394.44016617 363.18652908 -393.62886749 362.38282379 -392.79298401 361.55476379 C-391.02936484 359.80926824 -389.26237174 358.06717665 -387.49244308 356.32807922 C-384.69569165 353.57876274 -381.90918495 350.81944442 -379.12539673 348.05700684 C-371.70979817 340.70058496 -364.27827553 333.36032043 -356.83819449 326.02866411 C-351.48009381 320.74853744 -346.13340701 315.45720739 -340.7972908 310.15486145 C-338.94797062 308.32236994 -337.09384928 306.49471102 -335.23496628 304.67192078 C-332.64191715 302.12900948 -330.06434626 299.57133415 -327.48974609 297.00976562 C-326.71161057 296.25431961 -325.93347504 295.4988736 -325.13175964 294.72053528 C-324.43620468 294.02244247 -323.74064972 293.32434967 -323.02401733 292.60510254 C-322.41232382 292.00191444 -321.8006303 291.39872635 -321.17040062 290.77725983 C-319.76526803 289.05883656 -319.76526803 289.05883656 -320.24674416 286.90668488 C-321.11720929 284.70331305 -322.14115827 282.68458374 -323.29296875 280.61328125 C-323.75574219 279.76556152 -324.21851563 278.9178418 -324.6953125 278.04443359 C-325.18773437 277.14289551 -325.68015625 276.24135742 -326.1875 275.3125 C-331.11543125 266.10127967 -334.9476426 256.97726346 -338 247 C-338.50660156 245.37384766 -338.50660156 245.37384766 -339.0234375 243.71484375 C-340.48321466 238.73954822 -341 235.34154685 -341 230 C-349.91 230 -358.82 230 -368 230 C-368.74020828 216.30614689 -369.13254958 202.71151726 -369 189 C-359.65190221 188.33566818 -350.37877608 187.8401345 -341 188 C-340.86464844 187.06542969 -340.72929687 186.13085938 -340.58984375 185.16796875 C-337.54922285 165.97761158 -330.06066703 147.01466867 -319 131 C-320.4134089 127.74601863 -322.09354894 125.72339939 -324.6953125 123.328125 C-325.41074219 122.66425781 -326.12617188 122.00039062 -326.86328125 121.31640625 C-327.60964844 120.63449219 -328.35601562 119.95257813 -329.125 119.25 C-329.87910156 118.55261719 -330.63320313 117.85523438 -331.41015625 117.13671875 C-333.26875691 115.41927763 -335.13210468 113.70731852 -337 112 C-335.7237475 109.20574912 -334.40029023 107.14857874 -332.234375 104.97558594 C-331.68040039 104.41530701 -331.12642578 103.85502808 -330.55566406 103.277771 C-329.95979492 102.68595032 -329.36392578 102.09412964 -328.75 101.484375 C-328.13608398 100.86854553 -327.52216797 100.25271606 -326.88964844 99.6182251 C-325.59425517 98.32147354 -324.29634356 97.02723343 -322.99609375 95.73535156 C-321.00024932 93.75024798 -319.01533274 91.75466409 -317.03125 89.7578125 C-315.77147445 88.49935789 -314.51107899 87.24152346 -313.25 85.984375 C-312.65413086 85.3844574 -312.05826172 84.78453979 -311.44433594 84.16644287 C-307.22993247 80 -307.22993247 80 -305 80 C-303.625 81.36328125 -303.625 81.36328125 -302 83.3125 C-298.91982914 86.93967795 -295.77130551 90.48708828 -292.5625 94 C-291.69753906 94.94875 -290.83257812 95.8975 -289.94140625 96.875 C-289.30074219 97.57625 -288.66007812 98.2775 -288 99 C-287.319375 98.5875 -286.63875 98.175 -285.9375 97.75 C-268.19260484 87.1785731 -250.39265344 78.82362252 -230 75 C-229.67 65.76 -229.34 56.52 -229 47 C-214.81 47 -200.62 47 -186 47 C-186 56.24 -186 65.48 -186 75 C-183.6075 75.350625 -181.215 75.70125 -178.75 76.0625 C-164.25979715 78.49626235 -150.65417819 83.40576781 -138.11108398 91.06689453 C-133.37055462 94.1766721 -133.37055462 94.1766721 -128 95 C-125.2642531 93.13491892 -123.01008324 90.84841582 -120.6875 88.5 C-119.4218486 87.25911418 -118.15491751 86.01953227 -116.88671875 84.78125 C-116.05466919 83.9469043 -116.05466919 83.9469043 -115.20581055 83.09570312 C-113.2974771 81.28262794 -111.34798186 79.56864223 -109.3527832 77.85327148 C-104.50930699 73.63622206 -99.994104 69.11977721 -95.46875 64.56640625 C-94.59222778 63.68846909 -93.71570557 62.81053192 -92.81262207 61.9059906 C-90.03937204 59.12718504 -87.26963718 56.34490603 -84.5 53.5625 C-82.60989195 51.66680135 -80.71898482 49.77190217 -78.828125 47.87695312 C-74.21608904 43.25394719 -69.60720033 38.62782484 -65 34 C-71.27 32.68 -77.54 31.36 -84 30 C-84.33 28.68 -84.66 27.36 -85 26 C-62.42861776 18.74953969 -39.85629484 11.50367196 -17.1875 4.5625 C-16.03368835 4.20773087 -16.03368835 4.20773087 -14.85656738 3.84579468 C-12.71133701 3.18693723 -10.56493156 2.53209306 -8.41796875 1.87890625 C-7.21938232 1.5135376 -6.0207959 1.14816895 -4.78588867 0.77172852 C-2 0 -2 0 0 0 Z " fill="#FAFAFA" transform="translate(404,63)"/>
<path d="M0 0 C19.09730536 16.90565055 33.20797897 41.93270393 34.88256836 67.70410156 C34.99987971 71.44090968 35.0406034 75.16760741 35.03515625 78.90625 C35.03428009 79.56699524 35.03340393 80.22774048 35.03250122 80.9085083 C34.91071344 108.79833131 23.86844883 134.24510998 4.05761719 153.90771484 C3.59645508 154.36098145 3.13529297 154.81424805 2.66015625 155.28125 C1.90992188 156.03019531 1.1596875 156.77914062 0.38671875 157.55078125 C-12.6087463 169.79743698 -29.17566157 177.84076506 -46.33984375 182.28125 C-47.64695313 182.6215625 -47.64695313 182.6215625 -48.98046875 182.96875 C-64.45025323 186.22554673 -82.16361431 185.56305307 -97.33984375 181.28125 C-98.56574219 180.9409375 -99.79164063 180.600625 -101.0546875 180.25 C-129.07286917 171.69129848 -150.58552265 152.44588393 -164.58984375 126.90625 C-172.72458163 111.51147725 -175.73534849 95.77084067 -175.65234375 78.40625 C-175.6467041 77.1697168 -175.64106445 75.93318359 -175.63525391 74.65917969 C-175.52143338 66.12376706 -175.02768039 58.43604493 -172.33984375 50.28125 C-172.14116699 49.65927734 -171.94249023 49.03730469 -171.73779297 48.39648438 C-162.68389394 20.53624675 -144.03262827 -2.0484049 -117.99731445 -15.58959961 C-78.54638247 -35.16764717 -33.12662494 -28.45371801 0 0 Z " fill="#FCFDFD" transform="translate(267.33984375,193.71875)"/>
<path d="M0 0 C-0.47844491 9.06087198 -3.37515269 17.3777809 -6.09375 25.9609375 C-6.60630109 27.59976379 -7.11813018 29.23881604 -7.62927246 30.87808228 C-8.96966941 35.16993207 -10.31993243 39.4586144 -11.67230225 43.7467041 C-13.04939885 48.11957732 -14.41678662 52.49548356 -15.78515625 56.87109375 C-17.78214315 63.25205384 -19.78274209 69.63185979 -21.79101562 76.00927734 C-22.10586662 77.00982147 -22.10586662 77.00982147 -22.42707825 78.03057861 C-23.26647598 80.69369296 -24.1169828 83.3509484 -25 86 C-26.32 86 -27.64 86 -29 86 C-30.32 79.4 -31.64 72.8 -33 66 C-34.33699951 67.33699951 -35.67399902 68.67399902 -37.05151367 70.05151367 C-56.36767578 89.36767578 -75.68383789 108.68383789 -95 128 C-93.45848327 132.33756568 -91.18438651 136.06124255 -88.75 139.9375 C-79.92796093 154.34972451 -74.5342912 169.12279681 -73 186 C-63.43 186 -53.86 186 -44 186 C-44 199.86 -44 213.72 -44 228 C-53.24 228.33 -62.48 228.66 -72 229 C-72.391875 231.330625 -72.78375 233.66125 -73.1875 236.0625 C-76.24957294 252.81808076 -82.46555062 270.66367911 -93.06640625 284.23828125 C-94.18500822 285.94670279 -94.18500822 285.94670279 -93.78320312 287.86694336 C-92.79789879 290.5504234 -91.44459201 291.89661882 -89.40234375 293.890625 C-88.68369141 294.59960938 -87.96503906 295.30859375 -87.22460938 296.0390625 C-86.09249023 297.13347656 -86.09249023 297.13347656 -84.9375 298.25 C-84.17888672 298.99507813 -83.42027344 299.74015625 -82.63867188 300.5078125 C-80.76567793 302.34546694 -78.88604389 304.17575724 -77 306 C-78.38629244 309.12324544 -79.99511571 311.24190707 -82.4140625 313.64453125 C-83.09339844 314.32193359 -83.77273438 314.99933594 -84.47265625 315.69726562 C-85.18292969 316.39529297 -85.89320313 317.09332031 -86.625 317.8125 C-87.31207031 318.49892578 -87.99914062 319.18535156 -88.70703125 319.89257812 C-92.75531868 323.90668676 -96.90815527 327.74929021 -101.2331543 331.46362305 C-102.39486926 332.47380299 -103.53433124 333.51026298 -104.64770508 334.57348633 C-108.33779865 337.99210322 -108.33779865 337.99210322 -111.29296875 338.02734375 C-115.27898612 336.51461277 -117.39135423 333.74948104 -120.125 330.5625 C-121.16649545 329.37386453 -122.21067249 328.18757211 -123.2578125 327.00390625 C-123.7130127 326.47611572 -124.16821289 325.9483252 -124.63720703 325.40454102 C-126.14707005 323.74964732 -126.14707005 323.74964732 -129 322 C-129.76441406 322.49628906 -130.52882813 322.99257813 -131.31640625 323.50390625 C-142.79484317 330.78325192 -154.36694147 336.4097899 -167.375 340.375 C-168.19492432 340.62588379 -169.01484863 340.87676758 -169.85961914 341.13525391 C-175.40014999 342.74356012 -180.04506054 343.33834006 -186 344 C-186 353.57 -186 363.14 -186 373 C-200.52 373 -215.04 373 -230 373 C-230 363.43 -230 353.86 -230 344 C-233.96 343.34 -237.92 342.68 -242 342 C-257.86976899 337.85167133 -272.74430195 330.60335736 -286 321 C-290.94165414 325.18377641 -295.74666604 329.4747589 -300.46484375 333.90844727 C-301.15730698 334.55872926 -301.8497702 335.20901125 -302.56321716 335.87899876 C-310.03871429 342.93247974 -317.31006935 350.18340091 -324.5625 357.46484375 C-325.97430619 358.87852253 -327.38633889 360.29197513 -328.79858398 361.70521545 C-332.45683244 365.36722303 -336.11206448 369.03222613 -339.76660156 372.69793701 C-343.51960955 376.46130392 -347.27556611 380.22172573 -351.03125 383.98242188 C-358.35699905 391.31879121 -365.67955387 398.65833951 -373 406 C-374.10463232 405.05964757 -375.20833052 404.11819776 -376.31164551 403.17630005 C-376.92636971 402.65215075 -377.5410939 402.12800144 -378.17444611 401.58796883 C-382.57673281 397.75861376 -386.68998184 393.61447736 -390.83691406 389.51318359 C-391.95471045 388.41212462 -393.07786702 387.31648342 -394.20605469 386.22607422 C-395.84743784 384.63915127 -397.47203026 383.0366695 -399.09375 381.4296875 C-399.60192261 380.94418427 -400.11009521 380.45868103 -400.63366699 379.95846558 C-402.02148437 378.56201172 -402.02148437 378.56201172 -404 376 C-403.6896038 372.49757321 -402.16986377 370.80573732 -399.72201538 368.39489746 C-399.02082077 367.69680466 -398.31962616 366.99871185 -397.59718323 366.27946472 C-396.82309616 365.52401871 -396.04900909 364.76857269 -395.25146484 363.99023438 C-394.44016617 363.18652908 -393.62886749 362.38282379 -392.79298401 361.55476379 C-391.02936484 359.80926824 -389.26237174 358.06717665 -387.49244308 356.32807922 C-384.69569165 353.57876274 -381.90918495 350.81944442 -379.12539673 348.05700684 C-371.70979817 340.70058496 -364.27827553 333.36032043 -356.83819449 326.02866411 C-351.48009381 320.74853744 -346.13340701 315.45720739 -340.7972908 310.15486145 C-338.94797062 308.32236994 -337.09384928 306.49471102 -335.23496628 304.67192078 C-332.64191715 302.12900948 -330.06434626 299.57133415 -327.48974609 297.00976562 C-326.71161057 296.25431961 -325.93347504 295.4988736 -325.13175964 294.72053528 C-324.43620468 294.02244247 -323.74064972 293.32434967 -323.02401733 292.60510254 C-322.41232382 292.00191444 -321.8006303 291.39872635 -321.17040062 290.77725983 C-319.76526803 289.05883656 -319.76526803 289.05883656 -320.24674416 286.90668488 C-321.11720929 284.70331305 -322.14115827 282.68458374 -323.29296875 280.61328125 C-323.75574219 279.76556152 -324.21851563 278.9178418 -324.6953125 278.04443359 C-325.18773437 277.14289551 -325.68015625 276.24135742 -326.1875 275.3125 C-331.11543125 266.10127967 -334.9476426 256.97726346 -338 247 C-338.50660156 245.37384766 -338.50660156 245.37384766 -339.0234375 243.71484375 C-340.48321466 238.73954822 -341 235.34154685 -341 230 C-349.91 230 -358.82 230 -368 230 C-368.74020828 216.30614689 -369.13254958 202.71151726 -369 189 C-359.65190221 188.33566818 -350.37877608 187.8401345 -341 188 C-340.86464844 187.06542969 -340.72929687 186.13085938 -340.58984375 185.16796875 C-337.54922285 165.97761158 -330.06066703 147.01466867 -319 131 C-320.4134089 127.74601863 -322.09354894 125.72339939 -324.6953125 123.328125 C-325.41074219 122.66425781 -326.12617188 122.00039062 -326.86328125 121.31640625 C-327.60964844 120.63449219 -328.35601562 119.95257813 -329.125 119.25 C-329.87910156 118.55261719 -330.63320313 117.85523438 -331.41015625 117.13671875 C-333.26875691 115.41927763 -335.13210468 113.70731852 -337 112 C-335.7237475 109.20574912 -334.40029023 107.14857874 -332.234375 104.97558594 C-331.68040039 104.41530701 -331.12642578 103.85502808 -330.55566406 103.277771 C-329.95979492 102.68595032 -329.36392578 102.09412964 -328.75 101.484375 C-328.13608398 100.86854553 -327.52216797 100.25271606 -326.88964844 99.6182251 C-325.59425517 98.32147354 -324.29634356 97.02723343 -322.99609375 95.73535156 C-321.00024932 93.75024798 -319.01533274 91.75466409 -317.03125 89.7578125 C-315.77147445 88.49935789 -314.51107899 87.24152346 -313.25 85.984375 C-312.65413086 85.3844574 -312.05826172 84.78453979 -311.44433594 84.16644287 C-307.22993247 80 -307.22993247 80 -305 80 C-303.625 81.36328125 -303.625 81.36328125 -302 83.3125 C-298.91982914 86.93967795 -295.77130551 90.48708828 -292.5625 94 C-291.69753906 94.94875 -290.83257812 95.8975 -289.94140625 96.875 C-289.30074219 97.57625 -288.66007812 98.2775 -288 99 C-287.319375 98.5875 -286.63875 98.175 -285.9375 97.75 C-268.19260484 87.1785731 -250.39265344 78.82362252 -230 75 C-229.67 65.76 -229.34 56.52 -229 47 C-214.81 47 -200.62 47 -186 47 C-186 56.24 -186 65.48 -186 75 C-183.6075 75.350625 -181.215 75.70125 -178.75 76.0625 C-164.25979715 78.49626235 -150.65417819 83.40576781 -138.11108398 91.06689453 C-133.37055462 94.1766721 -133.37055462 94.1766721 -128 95 C-125.2642531 93.13491892 -123.01008324 90.84841582 -120.6875 88.5 C-119.4218486 87.25911418 -118.15491751 86.01953227 -116.88671875 84.78125 C-116.05466919 83.9469043 -116.05466919 83.9469043 -115.20581055 83.09570312 C-113.2974771 81.28262794 -111.34798186 79.56864223 -109.3527832 77.85327148 C-104.50930699 73.63622206 -99.994104 69.11977721 -95.46875 64.56640625 C-94.59222778 63.68846909 -93.71570557 62.81053192 -92.81262207 61.9059906 C-90.03937204 59.12718504 -87.26963718 56.34490603 -84.5 53.5625 C-82.60989195 51.66680135 -80.71898482 49.77190217 -78.828125 47.87695312 C-74.21608904 43.25394719 -69.60720033 38.62782484 -65 34 C-71.27 32.68 -77.54 31.36 -84 30 C-84.33 28.68 -84.66 27.36 -85 26 C-62.42861776 18.74953969 -39.85629484 11.50367196 -17.1875 4.5625 C-16.03368835 4.20773087 -16.03368835 4.20773087 -14.85656738 3.84579468 C-12.71133701 3.18693723 -10.56493156 2.53209306 -8.41796875 1.87890625 C-7.21938232 1.5135376 -6.0207959 1.14816895 -4.78588867 0.77172852 C-2 0 -2 0 0 0 Z M-222 54 C-222 62.91 -222 71.82 -222 81 C-225.3 81.33 -228.6 81.66 -232 82 C-252.61076276 85.96964636 -271.14821776 95.78887353 -288 108 C-294.12329055 103.04925445 -301.43322076 97.13355849 -305 90 C-308.46629835 91.48653506 -310.69022036 93.45722351 -313.328125 96.1328125 C-314.52695312 97.34130859 -314.52695312 97.34130859 -315.75 98.57421875 C-316.575 99.41597656 -317.4 100.25773437 -318.25 101.125 C-319.09046875 101.97449219 -319.9309375 102.82398438 -320.796875 103.69921875 C-322.86915683 105.79504923 -324.93662393 107.89540713 -327 110 C-325.70793668 112.87305441 -324.39221927 114.82723282 -322.06640625 116.9453125 C-321.49986328 117.46480469 -320.93332031 117.98429687 -320.34960938 118.51953125 C-319.75986328 119.04933594 -319.17011719 119.57914062 -318.5625 120.125 C-317.68368164 120.93130859 -317.68368164 120.93130859 -316.78710938 121.75390625 C-314.25456286 124.05935722 -311.86140011 126.09239992 -309 128 C-310.4035495 131.0521632 -312.14882016 133.78142577 -314.02050781 136.56616211 C-322.26004336 148.89616164 -327.70994955 161.8394819 -332 176 C-332.2475 176.76957031 -332.495 177.53914063 -332.75 178.33203125 C-334.4648055 184.17904167 -334 188.4213692 -334 195 C-343.24 195 -352.48 195 -362 195 C-362 204.57 -362 214.14 -362 224 C-348.96048718 224.16643022 -348.96048718 224.16643022 -336 223 C-335.93683594 223.76699219 -335.87367188 224.53398437 -335.80859375 225.32421875 C-333.37384749 247.39070857 -323.96884953 269.09884865 -311 287 C-314.58004493 295.23978594 -322.63424123 301.81845933 -329 308 C-325.20295707 313.10636808 -320.70778174 316.82294164 -315.71875 320.75390625 C-313 323 -313 323 -310.46875 325.83984375 C-308.2416415 328.30068792 -308.2416415 328.30068792 -305.58129883 327.84619141 C-302.65285994 326.88620189 -301.35930938 325.82398101 -299.23046875 323.62109375 C-298.56982422 322.94755859 -297.90917969 322.27402344 -297.22851562 321.58007812 C-296.55498047 320.87302734 -295.88144531 320.16597656 -295.1875 319.4375 C-294.49462891 318.72658203 -293.80175781 318.01566406 -293.08789062 317.28320312 C-291.3825483 315.53081688 -289.68724824 313.76978531 -288 312 C-285.35360532 313.26919668 -282.93499595 314.64994273 -280.5234375 316.3203125 C-262.9263923 328.2681297 -245.34857224 336.05922071 -224 338 C-224 347.24 -224 356.48 -224 366 C-213.77 366 -203.54 366 -193 366 C-193 356.76 -193 347.52 -193 338 C-189.04 337.67 -185.08 337.34 -181 337 C-177.50175873 336.2409972 -174.16830117 335.44469855 -170.75 334.4375 C-169.84886475 334.17428955 -168.94772949 333.9110791 -168.01928711 333.63989258 C-155.80049545 329.90447978 -144.98039471 324.06621857 -134.51391602 316.79370117 C-131.26585583 314.58029153 -130.0854938 314 -126 314 C-124.0703125 315.50390625 -124.0703125 315.50390625 -122.125 317.5625 C-121.43664062 318.28566406 -120.74828125 319.00882812 -120.0390625 319.75390625 C-117.2893699 322.78278219 -114.61900099 325.85719881 -112 329 C-108.67509444 328.41156544 -106.96915719 327.36910397 -104.5390625 325.05078125 C-103.90226562 324.44943359 -103.26546875 323.84808594 -102.609375 323.22851562 C-101.95453125 322.59623047 -101.2996875 321.96394531 -100.625 321.3125 C-99.97789062 320.69955078 -99.33078125 320.08660156 -98.6640625 319.45507812 C-94.71270752 315.69890096 -90.8399804 311.86970161 -87 308 C-88.39347376 304.84795019 -90.02485079 302.73828227 -92.4765625 300.328125 C-93.146875 299.66425781 -93.8171875 299.00039063 -94.5078125 298.31640625 C-95.20648438 297.63449219 -95.90515625 296.95257813 -96.625 296.25 C-97.68460937 295.20392578 -97.68460937 295.20392578 -98.765625 294.13671875 C-100.50598703 292.41987512 -102.25084981 290.70788168 -104 289 C-102.53358484 285.9790116 -100.89445474 283.43634444 -98.875 280.75 C-87.46398794 264.52311382 -78 242.03945548 -78 222 C-69.09 222 -60.18 222 -51 222 C-51 212.43 -51 202.86 -51 193 C-60.24 193 -69.48 193 -79 193 C-79 190.36 -79 187.72 -79 185 C-79.43659298 182.29095412 -79.91977249 179.7180127 -80.5625 177.0625 C-80.73813477 176.33450195 -80.91376953 175.60650391 -81.09472656 174.85644531 C-85.48839676 157.65836483 -93.70216142 142.66332353 -105 129 C-94.90769231 116.93846154 -94.90769231 116.93846154 -89 113 C-89.59266983 109.73674561 -90.58351741 107.99756857 -92.8125 105.5625 C-93.42867188 104.88316406 -94.04484375 104.20382813 -94.6796875 103.50390625 C-95.44539063 102.67761719 -96.21109375 101.85132813 -97 101 C-98.0445824 99.86356756 -99.08882959 98.72682694 -100.1328125 97.58984375 C-103.07999233 94.38524925 -106.03784867 91.19075742 -109 88 C-114.95366673 92.25713007 -120.2025205 96.96690533 -125.38671875 102.12109375 C-128 104 -128 104 -130.55859375 103.98046875 C-133.22308155 102.91041045 -135.11466178 101.64361552 -137.375 99.875 C-143.80687518 95.2068581 -150.72772024 92.11780483 -158 89 C-158.90363281 88.608125 -159.80726563 88.21625 -160.73828125 87.8125 C-170.6820056 83.85356775 -182.28320059 81 -193 81 C-193 72.09 -193 63.18 -193 54 C-202.57 54 -212.14 54 -222 54 Z " fill="#030303" transform="translate(404,63)"/>
<path d="M0 0 C-0.47844491 9.06087198 -3.37515269 17.3777809 -6.09375 25.9609375 C-6.60630109 27.59976379 -7.11813018 29.23881604 -7.62927246 30.87808228 C-8.96966941 35.16993207 -10.31993243 39.4586144 -11.67230225 43.7467041 C-13.04939885 48.11957732 -14.41678662 52.49548356 -15.78515625 56.87109375 C-17.78214315 63.25205384 -19.78274209 69.63185979 -21.79101562 76.00927734 C-22.00091629 76.67630676 -22.21081696 77.34333618 -22.42707825 78.03057861 C-23.26647598 80.69369296 -24.1169828 83.3509484 -25 86 C-26.32 86 -27.64 86 -29 86 C-30.98 76.1 -30.98 76.1 -33 66 C-48.18 81.18 -63.36 96.36 -79 112 C-82.67951279 108.32048721 -86.2807332 104.62718537 -89.8125 100.8125 C-90.31458984 100.27947266 -90.81667969 99.74644531 -91.33398438 99.19726562 C-95 95.23198342 -95 95.23198342 -95 93 C-95.99 92.67 -96.98 92.34 -98 92 C-99.75390625 90.29296875 -99.75390625 90.29296875 -101.5625 88.1875 C-102.16191406 87.50042969 -102.76132812 86.81335938 -103.37890625 86.10546875 C-105 84 -105 84 -106.02734375 81.80078125 C-106.92686467 79.64414355 -106.92686467 79.64414355 -110 79 C-95.15 64.15 -80.3 49.3 -65 34 C-71.27 32.68 -77.54 31.36 -84 30 C-84.33 28.68 -84.66 27.36 -85 26 C-62.42861776 18.74953969 -39.85629484 11.50367196 -17.1875 4.5625 C-16.41829224 4.32598724 -15.64908447 4.08947449 -14.85656738 3.84579468 C-12.71133701 3.18693723 -10.56493156 2.53209306 -8.41796875 1.87890625 C-7.21938232 1.5135376 -6.0207959 1.14816895 -4.78588867 0.77172852 C-2 0 -2 0 0 0 Z " fill="#D0242A" transform="translate(404,63)"/>
<path d="M0 0 C0.99 0.495 0.99 0.495 2 1 C1.154375 1.66 0.30875 2.32 -0.5625 3 C-3.00345515 5.03032573 -5.06905562 7.1582849 -7.11376953 9.5847168 C-11.37882701 14.51432452 -15.97913594 19.06832728 -20.6171875 23.64453125 C-22.45846321 25.47317653 -24.29960521 27.30195644 -26.140625 29.13085938 C-29.0219662 31.98839931 -31.90585003 34.84335444 -34.79199219 37.69604492 C-37.59310323 40.46530453 -40.38632406 43.24245651 -43.1796875 46.01953125 C-44.04939178 46.87577591 -44.91909607 47.73202057 -45.81515503 48.61421204 C-47.01242722 49.80641609 -47.01242722 49.80641609 -48.23388672 51.02270508 C-48.93891327 51.7202742 -49.64393982 52.41784332 -50.37033081 53.1365509 C-52.21648799 55.00531613 -52.21648799 55.00531613 -53 58 C-51.37771484 57.98259766 -51.37771484 57.98259766 -49.72265625 57.96484375 C-40.11682158 57.89584394 -30.53650881 58.06018385 -20.9375 58.4375 C-19.90439697 58.47673584 -18.87129395 58.51597168 -17.80688477 58.55639648 C-11.50850977 58.82083789 -5.26442542 59.2949169 1 60 C-2.90525208 63.24940822 -6.9777327 66.02207367 -11.25 68.75 C-12.34115112 69.45129028 -12.34115112 69.45129028 -13.4543457 70.16674805 C-15.96770291 71.78075201 -18.48383789 73.39037266 -21 75 C-22.96753532 76.26158245 -24.93497925 77.52330743 -26.90234375 78.78515625 C-38.0040391 85.90115812 -49.12324256 92.98926567 -60.25268555 100.06176758 C-66.36006265 103.94656369 -72.44482178 107.86455201 -78.51391602 111.80883789 C-82.52478921 114.41134928 -86.55060272 116.98857501 -90.58984375 119.546875 C-91.55921875 120.16111328 -92.52859375 120.77535156 -93.52734375 121.40820312 C-95.40492472 122.59649766 -97.28374226 123.78284165 -99.1640625 124.96679688 C-105.23417187 128.80880849 -111.14934626 132.83163533 -117 137 C-117.66 136.67 -118.32 136.34 -119 136 C-118.43152344 135.3709375 -117.86304688 134.741875 -117.27734375 134.09375 C-113.69924074 130.12737204 -110.1245641 126.16099363 -106.625 122.125 C-103.6408294 118.69667378 -100.57796075 115.34393811 -97.5 112 C-89.79945558 103.86324925 -89.79945558 103.86324925 -83 95 C-82.34 95 -81.68 95 -81 95 C-80.73268066 94.4112207 -80.46536133 93.82244141 -80.18994141 93.21582031 C-78.98357913 90.96942228 -77.7065935 89.39521664 -75.9609375 87.546875 C-75.38085938 86.928125 -74.80078125 86.309375 -74.203125 85.671875 C-73.29820312 84.72054687 -73.29820312 84.72054687 -72.375 83.75 C-71.45847656 82.77546875 -71.45847656 82.77546875 -70.5234375 81.78125 C-69.01971926 80.18354937 -67.51184263 78.59000851 -66 77 C-75.33894232 74.78409679 -84.71013109 72.80234992 -94.125 70.9375 C-95.40503906 70.68162109 -96.68507812 70.42574219 -98.00390625 70.16210938 C-105.32400028 68.70483375 -112.65105369 67.30421409 -120 66 C-120 65.34 -120 64.68 -120 64 C-119.17612793 63.5781543 -118.35225586 63.15630859 -117.50341797 62.72167969 C-98.91864523 53.19540069 -80.43361747 43.53483404 -62.21484375 33.3203125 C-54.80779579 29.16989897 -47.38903676 25.13815656 -39.76489258 21.40063477 C-32.52979701 17.82336556 -25.42508411 14.00048204 -18.3125 10.1875 C-17.38005463 9.68846664 -17.38005463 9.68846664 -16.42877197 9.17935181 C-14.63520868 8.21888915 -12.8427609 7.25638236 -11.05078125 6.29296875 C-10.00575439 5.7311792 -8.96072754 5.16938965 -7.8840332 4.59057617 C-5.96867191 3.53423326 -4.08725437 2.41376106 -2.24682617 1.23168945 C-1.50537354 0.82523193 -0.7639209 0.41877441 0 0 Z " fill="#1E9B96" transform="translate(257,204)"/>
<path d="M0 0 C1.10633414 0.94362196 2.21199673 1.8880313 3.31738281 2.83276367 C3.933172 3.35859543 4.54896118 3.88442719 5.18341064 4.42619324 C7.76280317 6.66085645 10.25398344 8.98541274 12.75 11.3125 C17.55393482 15.76270998 22.50034673 19.94744866 27.625 24.02734375 C29.8650121 25.88788011 31.94096506 27.94096506 34 30 C11.56 52.44 -10.88 74.88 -34 98 C-40.19204129 92.69253604 -46.05025426 87.23615915 -51.83691406 81.51318359 C-52.95471045 80.41212462 -54.07786702 79.31648342 -55.20605469 78.22607422 C-56.84743784 76.63915127 -58.47203026 75.0366695 -60.09375 73.4296875 C-60.60192261 72.94418427 -61.11009521 72.45868103 -61.63366699 71.95846558 C-63.02148438 70.56201172 -63.02148438 70.56201172 -65 68 C-64.48948916 63.34548817 -61.19553089 60.79722156 -58.01147461 57.67089844 C-57.38710007 57.04608582 -56.76272552 56.42127319 -56.11943054 55.77752686 C-54.05409966 53.71428582 -51.97834614 51.66187359 -49.90234375 49.609375 C-48.46822453 48.18085101 -47.03476627 46.75166319 -45.60194397 45.32183838 C-41.82900267 41.56035146 -38.04713897 37.80796045 -34.2633667 34.05737305 C-30.40388798 30.22858218 -26.55288776 26.39128479 -22.70117188 22.5546875 C-15.14240321 15.02809348 -7.57418433 7.51107845 0 0 Z " fill="#D0242A" transform="translate(65,371)"/>
<path d="M0 0 C1.91075778 1.50203954 3.80737745 3.02228662 5.6875 4.5625 C6.53828125 5.24828125 7.3890625 5.9340625 8.265625 6.640625 C27.69993728 23.14145618 41.67035356 48.53866478 44.4765625 73.94335938 C45.96370914 92.40876348 45.57186687 111.14910144 38.6875 128.5625 C38.35105469 129.45839844 38.01460937 130.35429687 37.66796875 131.27734375 C32.17634781 145.25434555 24.7539334 156.53808275 14.6875 167.5625 C14.08164062 168.23925781 13.47578125 168.91601562 12.8515625 169.61328125 C-5.94846573 189.55965266 -33.66318722 200.85572596 -60.80078125 201.765625 C-93.6699311 202.2993365 -121.52725771 192.2437007 -145.46484375 169.40234375 C-164.28151835 150.92538845 -177.12102653 123.83002445 -177.4453125 97.2890625 C-177.44795445 94.92187504 -177.44520231 92.5546764 -177.4375 90.1875 C-177.44136719 89.00671875 -177.44523437 87.8259375 -177.44921875 86.609375 C-177.41983643 60.22404886 -167.74269447 36.29724532 -150.3125 16.5625 C-149.77496094 15.881875 -149.23742187 15.20125 -148.68359375 14.5 C-113.39773327 -29.36412731 -43.45685946 -31.77609851 0 0 Z M-134.3125 9.5625 C-135.15425781 10.27277344 -135.99601562 10.98304688 -136.86328125 11.71484375 C-155.51476781 27.81908631 -167.77184822 51.2018447 -171.3125 75.5625 C-172.96909103 106.54326217 -167.3175118 135.16031341 -146.54296875 159.1171875 C-145.43888672 160.32761719 -145.43888672 160.32761719 -144.3125 161.5625 C-143.62800781 162.32820312 -142.94351563 163.09390625 -142.23828125 163.8828125 C-124.67069171 182.52199253 -98.37177889 194.92562832 -72.79296875 195.78125 C-42.05520981 196.4301392 -15.99715642 187.52387451 6.6875 166.5625 C7.80898438 165.56283203 7.80898438 165.56283203 8.953125 164.54296875 C25.22483589 149.32827845 37.42738919 124.47389818 38.90869141 102.24291992 C39.02801122 98.51328717 39.06791759 94.79403904 39.0625 91.0625 C39.06118576 90.0700528 39.06118576 90.0700528 39.05984497 89.05755615 C38.9356073 60.56199244 28.17263746 35.05824037 8.02734375 14.74609375 C-12.31885171 -4.98658929 -39.72586282 -16.06756723 -68.09790039 -15.78881836 C-92.45381233 -15.08181454 -115.93878934 -6.65683923 -134.3125 9.5625 Z " fill="#080808" transform="translate(263.3125,182.4375)"/>
<path d="M0 0 C3.96 0 7.92 0 12 0 C12.99 4.29 13.98 8.58 15 13 C16.90389849 10.14415227 17.69462177 8.0688238 18.625 4.8125 C19.07875 3.224375 19.5325 1.63625 20 0 C23.96 0 27.92 0 32 0 C33.32 4.29 34.64 8.58 36 13 C36.33 13 36.66 13 37 13 C37.99 8.71 38.98 4.42 40 0 C43.96 0 47.92 0 52 0 C49.36 11.88 46.72 23.76 44 36 C40.04 36 36.08 36 32 36 C29.69321685 30.0682719 27.7822571 24.11059576 26 18 C24.35 23.94 22.7 29.88 21 36 C16.71 36 12.42 36 8 36 C5.36 24.12 2.72 12.24 0 0 Z " fill="#FFFFFF" transform="translate(82,21)"/>
<path d="M0 0 C5.28 0 10.56 0 16 0 C17.32 5.28 18.64 10.56 20 16 C20.680625 13.9890625 20.680625 13.9890625 21.375 11.9375 C21.75785156 10.80634766 21.75785156 10.80634766 22.1484375 9.65234375 C23.17400654 6.4580255 24.07833371 3.22583202 25 0 C30.28 0 35.56 0 41 0 C41 11.88 41 23.76 41 36 C37.7 36 34.4 36 31 36 C30.67 30.39 30.34 24.78 30 19 C28.35 24.61 26.7 30.22 25 36 C22.03 36 19.06 36 16 36 C14.19909776 30.67915247 12.54562808 25.40969827 11 20 C10.67 25.28 10.34 30.56 10 36 C6.7 36 3.4 36 0 36 C0 24.12 0 12.24 0 0 Z " fill="#FFFFFF" transform="translate(228,21)"/>
<path d="M0 0 C4.516875 -0.0825 9.03375 -0.165 13.6875 -0.25 C15.10377686 -0.28641602 16.52005371 -0.32283203 17.97924805 -0.36035156 C19.10371338 -0.3703418 20.22817871 -0.38033203 21.38671875 -0.390625 C22.53358154 -0.41157227 23.68044434 -0.43251953 24.86206055 -0.45410156 C28.66679749 0.09649446 30.29256058 1.32472206 33 4 C34.53924476 8.1367203 34.46620375 11.9044212 32.75 15.9375 C31 18 31 18 28 20 C28.39832031 20.56847656 28.79664063 21.13695313 29.20703125 21.72265625 C32.38703409 26.35725893 34.98935534 30.7499834 37 36 C32.12006135 36.80190003 27.84037851 37.14257862 23 36 C20.08202269 32.84029676 18.31129001 29.77889795 16.453125 25.94140625 C15.32400079 22.91040584 15.32400079 22.91040584 13 22 C13 26.62 13 31.24 13 36 C8.71 36 4.42 36 0 36 C0 24.12 0 12.24 0 0 Z M13 8 C13 9.98 13 11.96 13 14 C17.25731568 14.40749675 17.25731568 14.40749675 20.875 12.5 C21.24625 12.005 21.6175 11.51 22 11 C21.34 10.01 20.68 9.02 20 8 C16.41642759 7.74984127 16.41642759 7.74984127 13 8 Z " fill="#FFFFFF" transform="translate(172,21)"/>
<path d="M0 0 C4.57423748 2.67226763 6.84388686 6.40666059 8.5 11.375 C9.16191176 18.69943336 9.21191552 25.39504605 4.5 31.375 C-2.16238484 36.67771446 -8.2276459 37.11940702 -16.5 36.375 C-21.23612843 35.04034223 -23.8735626 33.16206238 -26.9375 29.3125 C-30.27765248 23.03301334 -30.75328201 15.82236074 -28.81640625 8.94921875 C-26.69298565 4.27064472 -24.10509396 1.82451806 -19.5 -0.625 C-13.33349979 -2.68050007 -5.97183936 -2.71038284 0 0 Z M-15.5 9.375 C-18.20032168 12.88541819 -18.02936087 17.14011301 -17.5 21.375 C-16.56150487 24.35841617 -16.56150487 24.35841617 -14.5 26.375 C-11.59648876 27.53948881 -11.59648876 27.53948881 -8.5 27.375 C-5.33251366 25.66284522 -4.65421464 24.83764391 -3.5 21.375 C-3.22579221 17.12477931 -3.09284408 14.38217516 -4.6875 10.4375 C-6.36020289 8.21232329 -6.36020289 8.21232329 -8.9375 7.4375 C-11.86063104 7.36620412 -13.13878446 7.66515426 -15.5 9.375 Z " fill="#FFFFFF" transform="translate(73.5,21.625)"/>
<path d="M0 0 C3.96 0 7.92 0 12 0 C12 3.96 12 7.92 12 12 C15.63 12 19.26 12 23 12 C23 8.04 23 4.08 23 0 C26.96 0 30.92 0 35 0 C35 11.88 35 23.76 35 36 C31.04 36 27.08 36 23 36 C23 31.38 23 26.76 23 22 C19.37 22 15.74 22 12 22 C12 26.62 12 31.24 12 36 C8.04 36 4.08 36 0 36 C0 24.12 0 12.24 0 0 Z " fill="#FFFFFF" transform="translate(350,21)"/>
<path d="M0 0 C0 2.64 0 5.28 0 8 C1.65 8 3.3 8 5 8 C5 10.31 5 12.62 5 15 C3.35 15 1.7 15 0 15 C0.18129815 18.43793339 0.18129815 18.43793339 1 22 C2.93597032 23.51294288 2.93597032 23.51294288 5 24 C5 25.98 5 27.96 5 30 C3.23050905 30.10815225 1.45912513 30.18566083 -0.3125 30.25 C-1.79169922 30.31960938 -1.79169922 30.31960938 -3.30078125 30.390625 C-6 30 -6 30 -7.84375 28.34375 C-9.26976513 25.45317878 -9.30206939 23.45794302 -9.1875 20.25 C-9.14689453 18.77273438 -9.14689453 18.77273438 -9.10546875 17.265625 C-9.07066406 16.51796875 -9.03585938 15.7703125 -9 15 C-10.32 14.67 -11.64 14.34 -13 14 C-14.98 19.28 -16.96 24.56 -19 30 C-21.97 30 -24.94 30 -28 30 C-28.99 27.03 -29.98 24.06 -31 21 C-32.98 25.455 -32.98 25.455 -35 30 C-37.64 30 -40.28 30 -43 30 C-46.14771471 22.75901202 -48.87460394 15.60668065 -51 8 C-48.03 8 -45.06 8 -42 8 C-41.01 10.97 -40.02 13.94 -39 17 C-38.01 14.03 -37.02 11.06 -36 8 C-33.03 8 -30.06 8 -27 8 C-26.01 10.64 -25.02 13.28 -24 16 C-22.5268006 13.25002779 -21.77595125 11.10380501 -21 8 C-17.04 8 -13.08 8 -9 8 C-8.67 6.35 -8.34 4.7 -8 3 C-3.13793103 0 -3.13793103 0 0 0 Z " fill="#FFFFFF" transform="translate(132,486)"/>
<path d="M0 0 C10.23 0 20.46 0 31 0 C31 2.64 31 5.28 31 8 C24.73 8 18.46 8 12 8 C12 9.65 12 11.3 12 13 C17.61 13 23.22 13 29 13 C29 15.64 29 18.28 29 21 C23.39 21 17.78 21 12 21 C12 22.98 12 24.96 12 27 C18.27 27 24.54 27 31 27 C31 29.97 31 32.94 31 36 C20.77 36 10.54 36 0 36 C0 24.12 0 12.24 0 0 Z " fill="#FFFFFF" transform="translate(275,21)"/>
<path d="M0 0 C10.23 0 20.46 0 31 0 C31 2.64 31 5.28 31 8 C24.73 8 18.46 8 12 8 C12 9.65 12 11.3 12 13 C17.61 13 23.22 13 29 13 C29 15.64 29 18.28 29 21 C23.39 21 17.78 21 12 21 C12 22.98 12 24.96 12 27 C18.27 27 24.54 27 31 27 C31 29.97 31 32.94 31 36 C20.77 36 10.54 36 0 36 C0 24.12 0 12.24 0 0 Z " fill="#FFFFFF" transform="translate(136,21)"/>
<path d="M0 0 C3.24995858 1.88857963 5.14888809 3.7095349 6.5 7.3125 C6.05859375 9.46875 6.05859375 9.46875 5.5 11.3125 C2.15635009 11.89955304 -1.10001475 12.3769547 -4.5 12.3125 C-6.8125 10.3125 -6.8125 10.3125 -8.5 8.3125 C-11.15127469 8.14272506 -11.15127469 8.14272506 -13.5 9.3125 C-16.10362248 13.43490226 -16.20229015 17.57854416 -15.5 22.3125 C-14.01707157 25.04887301 -14.01707157 25.04887301 -11.5 26.3125 C-8.88608611 26.55651278 -8.88608611 26.55651278 -6.5 25.3125 C-4.65565651 22.85134453 -4.65565651 22.85134453 -3.5 20.3125 C-0.2 20.9725 3.1 21.6325 6.5 22.3125 C7.5 25.3125 7.5 25.3125 6.71484375 27.25 C3.89507337 31.80302373 1.84883023 34.75647666 -3.5 36.3125 C-10.43760522 36.9888682 -16.45508175 36.96463811 -22.5 33.3125 C-27.10391287 28.58415705 -28.78699989 23.98252785 -28.8125 17.4375 C-28.68510535 10.95629734 -27.92419489 6.67290028 -23.125 2 C-16.04824896 -2.54933995 -7.78370551 -3.55374355 0 0 Z " fill="#FFFFFF" transform="translate(338.5,21.6875)"/>
<path d="M0 0 C6.0328125 -0.0928125 6.0328125 -0.0928125 12.1875 -0.1875 C14.07698364 -0.22846802 14.07698364 -0.22846802 16.00463867 -0.27026367 C17.50861206 -0.28150269 17.50861206 -0.28150269 19.04296875 -0.29296875 C20.06414795 -0.3086792 21.08532715 -0.32438965 22.13745117 -0.34057617 C25.47728308 0.05678549 27.31664178 1.00028108 30 3 C32.08943892 7.08390335 32.3157811 10.6544179 31.6171875 15.1015625 C30.58917176 18.26368686 28.53129251 19.96261823 26 22 C23.23547967 23.38226016 20.9538637 23.09525387 17.875 23.0625 C14.966875 23.0315625 14.966875 23.0315625 12 23 C12 27.29 12 31.58 12 36 C8.04 36 4.08 36 0 36 C0 24.12 0 12.24 0 0 Z M12 8 C12 10.31 12 12.62 12 15 C15.465 14.505 15.465 14.505 19 14 C19.6814823 12.10820797 19.6814823 12.10820797 20 10 C18.10244856 7.65026182 18.10244856 7.65026182 14.875 7.875 C13.92625 7.91625 12.9775 7.9575 12 8 Z " fill="#FFFFFF" transform="translate(9,21)"/>
<path d="M0 0 C2.4375 2.6875 2.4375 2.6875 2.4375 6.6875 C-0.8625 7.0175 -4.1625 7.3475 -7.5625 7.6875 C-7.8925 7.0275 -8.2225 6.3675 -8.5625 5.6875 C-10.8725 6.0175 -13.1825 6.3475 -15.5625 6.6875 C-15.75908808 8.10293415 -15.94437546 9.51994031 -16.125 10.9375 C-16.22941406 11.72640625 -16.33382813 12.5153125 -16.44140625 13.328125 C-16.56277349 15.69282874 -16.25883257 17.4386037 -15.5625 19.6875 C-10.76941658 20.15272293 -10.76941658 20.15272293 -6.625 18.1875 C-6.274375 17.6925 -5.92375 17.1975 -5.5625 16.6875 C-7.5425 16.6875 -9.5225 16.6875 -11.5625 16.6875 C-11.5625 14.3775 -11.5625 12.0675 -11.5625 9.6875 C-6.6125 9.6875 -1.6625 9.6875 3.4375 9.6875 C3.4375 14.3075 3.4375 18.9275 3.4375 23.6875 C-2.39124038 28.23676078 -7.69340685 28.15940098 -14.94140625 28.21875 C-19.14508847 27.60202855 -21.29561443 26.36259334 -24.5625 23.6875 C-27.35150643 18.8532222 -28.50895414 14.21899864 -27.5625 8.6875 C-26.18435346 4.55306038 -24.58449475 1.52123256 -21.1875 -1.25 C-14.39492971 -3.99937369 -6.07765959 -4.66959661 0 0 Z " fill="#FFFFFF" transform="translate(31.5625,488.3125)"/>
<path d="M0 0 C4.48794562 1.12751343 7.26189217 0.29922549 11.6875 -1.0625 C14.5625 -0.3125 14.5625 -0.3125 16.6875 0.9375 C17.86176264 3.28602528 17.80258173 4.67524065 17.78515625 7.2890625 C17.78193359 8.13984375 17.77871094 8.990625 17.77539062 9.8671875 C17.76282227 11.20136719 17.76282227 11.20136719 17.75 12.5625 C17.74548828 13.4596875 17.74097656 14.356875 17.73632812 15.28125 C17.72452611 17.50002831 17.70659039 19.71877243 17.6875 21.9375 C14.7175 21.9375 11.7475 21.9375 8.6875 21.9375 C8.3575 17.3175 8.0275 12.6975 7.6875 7.9375 C7.0275 7.9375 6.3675 7.9375 5.6875 7.9375 C5.3575 12.5575 5.0275 17.1775 4.6875 21.9375 C1.7175 21.9375 -1.2525 21.9375 -4.3125 21.9375 C-4.6425 16.9875 -4.9725 12.0375 -5.3125 6.9375 C-6.3025 7.2675 -7.2925 7.5975 -8.3125 7.9375 C-8.6425 12.5575 -8.9725 17.1775 -9.3125 21.9375 C-12.2825 21.9375 -15.2525 21.9375 -18.3125 21.9375 C-18.3125 14.6775 -18.3125 7.4175 -18.3125 -0.0625 C-14.97916667 -0.0625 -11.64583333 -0.0625 -8.3125 -0.0625 C-7.70019531 -0.24941406 -7.08789062 -0.43632812 -6.45703125 -0.62890625 C-3.9133504 -1.14320238 -2.47184765 -0.73321236 0 0 Z " fill="#FFFFFF" transform="translate(286.3125,494.0625)"/>
<path d="M0 0 C3.3 0 6.6 0 10 0 C10.33 6.93 10.66 13.86 11 21 C14.74691447 22.39770584 14.74691447 22.39770584 17 21 C17.33 14.07 17.66 7.14 18 0 C21.3 0 24.6 0 28 0 C28.08101311 3.72960366 28.14051069 7.45744359 28.1875 11.1875 C28.21263672 12.24259766 28.23777344 13.29769531 28.26367188 14.38476562 C28.27333984 15.40634766 28.28300781 16.42792969 28.29296875 17.48046875 C28.3086792 18.41785889 28.32438965 19.35524902 28.34057617 20.32104492 C27.93292527 23.52760645 26.86222533 25.38351342 25 28 C21.61374338 30.49632726 18.16829105 30.29935446 14.0625 30.3125 C12.85722656 30.32925781 11.65195313 30.34601562 10.41015625 30.36328125 C6.71843219 29.9700048 4.89288922 29.29257589 2 27 C-0.02784242 23.80873528 -0.23689055 21.32014927 -0.1953125 17.578125 C-0.18564453 16.04091797 -0.18564453 16.04091797 -0.17578125 14.47265625 C-0.15902344 13.40917969 -0.14226562 12.34570312 -0.125 11.25 C-0.11597656 10.17105469 -0.10695312 9.09210938 -0.09765625 7.98046875 C-0.0741142 5.32021751 -0.03824397 2.66008051 0 0 Z " fill="#FFFFFF" transform="translate(181,486)"/>
<path d="M0 0 C2.97 0 5.94 0 9 0 C9 9.9 9 19.8 9 30 C5.9475 30.0825 2.895 30.165 -0.25 30.25 C-1.20551758 30.28641602 -2.16103516 30.32283203 -3.14550781 30.36035156 C-9.40396459 30.44245574 -9.40396459 30.44245574 -12.546875 28.109375 C-15.82589589 23.34950596 -15.57838198 18.64533397 -15 13 C-13.375 9.875 -13.375 9.875 -11 8 C-7.34683834 6.93449452 -4.60578065 6.75184516 -1 8 C-0.67 5.36 -0.34 2.72 0 0 Z M-5 15 C-6.35618499 16.12534105 -6.35618499 16.12534105 -6.0625 19.0625 C-6.041875 20.031875 -6.02125 21.00125 -6 22 C-3.525 22.495 -3.525 22.495 -1 23 C0.01540112 18.89776415 0.01540112 18.89776415 -1 15 C-2.32 15 -3.64 15 -5 15 Z " fill="#FFFFFF" transform="translate(381,486)"/>
<path d="M0 0 C1.65 0 3.3 0 5 0 C8.63 8.25 12.26 16.5 16 25 C19.08754326 17.15504198 19.08754326 17.15504198 22.1315918 9.29321289 C22.52515869 8.3211792 22.91872559 7.34914551 23.32421875 6.34765625 C23.71697998 5.34742432 24.10974121 4.34719238 24.5144043 3.31665039 C26 1 26 1 28.66723633 0.16577148 C29.43704834 0.11106689 30.20686035 0.0563623 31 0 C32.05253638 11.35235662 32.10313358 22.60946892 32 34 C30.68 34 29.36 34 28 34 C27.34 27.07 26.68 20.14 26 13 C25.46890625 14.43214844 24.9378125 15.86429688 24.390625 17.33984375 C23.67790554 19.20604338 22.96431884 21.07191197 22.25 22.9375 C21.90195312 23.88302734 21.55390625 24.82855469 21.1953125 25.80273438 C20.84726562 26.70185547 20.49921875 27.60097656 20.140625 28.52734375 C19.82641602 29.35999756 19.51220703 30.19265137 19.18847656 31.05053711 C18 33 18 33 14 34 C11.03 27.07 8.06 20.14 5 13 C4.71131294 18.78847203 4.71131294 18.78847203 4.43188477 24.57739258 C4.39377686 25.30079834 4.35566895 26.0242041 4.31640625 26.76953125 C4.27974854 27.50792236 4.24309082 28.24631348 4.20532227 29.00708008 C4 31 4 31 3 34 C1.68 33.67 0.36 33.34 -1 33 C-0.67 22.11 -0.34 11.22 0 0 Z " fill="#FFFFFF" transform="translate(435,0)"/>
<path d="M0 0 C2.97 0 5.94 0 9 0 C9.33 2.64 9.66 5.28 10 8 C11.3303125 7.690625 11.3303125 7.690625 12.6875 7.375 C16.29247581 6.96688953 17.8912477 7.18656116 21 9 C23.81484916 12.81460593 23.22237082 17.23349209 23.125 21.75 C23.11597656 22.54277344 23.10695312 23.33554687 23.09765625 24.15234375 C23.07417012 26.10169281 23.03830137 28.05088575 23 30 C20.03 30 17.06 30 14 30 C13.67 25.05 13.34 20.1 13 15 C12.01 15.33 11.02 15.66 10 16 C9.67 20.62 9.34 25.24 9 30 C6.03 30 3.06 30 0 30 C0 20.1 0 10.2 0 0 Z " fill="#FFFFFF" transform="translate(140,486)"/>
<path d="M0 0 C2.31734644 3.1818111 1.9681275 6.87500318 2.24609375 10.7109375 C-3.03390625 10.7109375 -8.31390625 10.7109375 -13.75390625 10.7109375 C-12.76390625 11.7009375 -11.77390625 12.6909375 -10.75390625 13.7109375 C-9.76390625 13.3809375 -8.77390625 13.0509375 -7.75390625 12.7109375 C-6.19272197 12.64352885 -4.62888105 12.62579294 -3.06640625 12.6484375 C-1.85404297 12.66197266 -1.85404297 12.66197266 -0.6171875 12.67578125 C0.30513672 12.69318359 0.30513672 12.69318359 1.24609375 12.7109375 C1.24609375 15.7109375 1.24609375 15.7109375 -0.84765625 17.8671875 C-4.27685442 20.04270032 -6.22433024 20.24859709 -10.25390625 20.2109375 C-11.35734375 20.22125 -12.46078125 20.2315625 -13.59765625 20.2421875 C-17.37153181 19.60698072 -19.03477964 18.35124885 -21.75390625 15.7109375 C-23.60902086 12.00070828 -23.2003273 7.76061415 -22.75390625 3.7109375 C-20.83020905 0.01743888 -19.39496092 -0.99417735 -15.62890625 -2.7265625 C-10.33855762 -3.49451633 -4.46374 -3.28069978 0 0 Z M-11.75390625 2.7109375 C-12.41390625 4.0309375 -13.07390625 5.3509375 -13.75390625 6.7109375 C-11.44390625 6.7109375 -9.13390625 6.7109375 -6.75390625 6.7109375 C-7.08390625 5.7209375 -7.41390625 4.7309375 -7.75390625 3.7109375 C-9.76898983 2.97769954 -9.76898983 2.97769954 -11.75390625 2.7109375 Z " fill="#FFFFFF" transform="translate(361.75390625,496.2890625)"/>
<path d="M0 0 C2.07249057 1.82127959 2.91373502 3.26317565 3.23583984 6.0144043 C3.29556367 8.43321925 3.26118471 10.83163 3.1875 13.25 C3.16719727 14.51070313 3.16719727 14.51070313 3.14648438 15.796875 C3.11123464 17.86485938 3.0574302 19.93251271 3 22 C0.03 22 -2.94 22 -6 22 C-6.33 17.38 -6.66 12.76 -7 8 C-8.32 8 -9.64 8 -11 8 C-11 12.62 -11 17.24 -11 22 C-13.97 22 -16.94 22 -20 22 C-20 14.74 -20 7.48 -20 0 C-16.33333333 0 -12.66666667 0 -9 0 C-5.4314543 -1.18951523 -3.60804584 -0.97717908 0 0 Z " fill="#FFFFFF" transform="translate(234,494)"/>
<path d="M0 0 C2.9630428 2.25755642 3.80116214 3.7138998 4.3671875 7.375 C4.58792864 11.73788364 4.43947543 14.28219013 2.125 18.0625 C-1.93190035 21.76143855 -5.68333255 21.40229093 -11.00390625 21.33203125 C-13.85658172 21.01589381 -15.37892366 20.70503231 -17.6875 19.0625 C-20.68811784 15.0887088 -21.39499408 11.93742599 -21 7 C-19.4510217 3.249842 -17.45844539 1.09602751 -14 -1 C-9.18385666 -2.636453 -4.72736902 -1.55484895 0 0 Z M-10 5 C-12.36692966 7.84826598 -12.36692966 7.84826598 -11.625 11.1875 C-11.41875 12.115625 -11.2125 13.04375 -11 14 C-9.10820797 14.6814823 -9.10820797 14.6814823 -7 15 C-4.68436913 13.11499729 -4.68436913 13.11499729 -4.75 10 C-4.68436913 6.88500271 -4.68436913 6.88500271 -7 5 C-7.99 5 -8.98 5 -10 5 Z " fill="#FFFFFF" transform="translate(77,495)"/>
<path d="M0 0 C1.53515625 1.328125 1.53515625 1.328125 3.0625 3.25 C6.06686587 6.8912657 9.16972881 10.41033629 12.375 13.875 C13.31802549 14.90205263 14.26073359 15.92939677 15.203125 16.95703125 C17.02172627 18.93769234 18.84534804 20.91332193 20.671875 22.88671875 C21.88617188 24.21123047 21.88617188 24.21123047 23.125 25.5625 C23.84945313 26.34753906 24.57390625 27.13257813 25.3203125 27.94140625 C27 30 27 30 28 33 C27.35933594 33.556875 26.71867187 34.11375 26.05859375 34.6875 C21.09993284 39.06235433 16.49825275 43.4715208 12.27734375 48.56640625 C11.85582031 49.03949219 11.43429687 49.51257813 11 50 C10.67 50 10.34 50 10 50 C9.957279 48.33388095 9.95936168 46.66617115 10 45 C10.33 44.67 10.66 44.34 11 44 C7.20411134 44.54226981 5.52788007 46.20127563 3 49 C2.34 48.67 1.68 48.34 1 48 C3.28759549 45.68344197 5.58074887 43.37246517 7.875 41.0625 C8.52597656 40.40314453 9.17695313 39.74378906 9.84765625 39.06445312 C10.78544922 38.12182617 10.78544922 38.12182617 11.7421875 37.16015625 C12.3182373 36.57886963 12.89428711 35.99758301 13.48779297 35.39868164 C15 34 15 34 17 33 C16.40733017 29.73674561 15.41648259 27.99756857 13.1875 25.5625 C12.57132812 24.87800781 11.95515625 24.19351563 11.3203125 23.48828125 C9.51661661 21.55401478 7.69804733 19.63875846 5.8671875 17.73046875 C5.32296143 17.15675537 4.77873535 16.58304199 4.21801758 15.99194336 C3.12531033 14.84219167 2.02369703 13.70083084 0.9128418 12.56860352 C-3 8.44775771 -3 8.44775771 -3 4 C-4.32 4 -5.64 4 -7 4 C-6.67 3.01 -6.34 2.02 -6 1 C-4 0 -4 0 0 0 Z " fill="#110505" transform="translate(297,143)"/>
<path d="M0 0 C0 2.64 0 5.28 0 8 C1.65 8 3.3 8 5 8 C5 10.31 5 12.62 5 15 C3.35 15 1.7 15 0 15 C0.66 17.64 1.32 20.28 2 23 C2.99 23 3.98 23 5 23 C5 25.31 5 27.62 5 30 C-5.09976617 30.77162899 -5.09976617 30.77162899 -8.1875 28.125 C-9.33304173 23.71907028 -9.23720212 19.52441078 -9 15 C-9.99 15 -10.98 15 -12 15 C-12 12.69 -12 10.38 -12 8 C-11.01 8 -10.02 8 -9 8 C-9 6.68 -9 5.36 -9 4 C-2.25 0 -2.25 0 0 0 Z " fill="#FEFEFE" transform="translate(332,486)"/>
<path d="M0 0 C2.97 0 5.94 0 9 0 C9 9.9 9 19.8 9 30 C6.03 30 3.06 30 0 30 C0 20.1 0 10.2 0 0 Z " fill="#FFFFFF" transform="translate(241,486)"/>
<path d="M0 0 C-0.875 4.75 -0.875 4.75 -2 7 C-3.65 7 -5.3 7 -7 7 C-7.33 11.95 -7.66 16.9 -8 22 C-10.97 22 -13.94 22 -17 22 C-17 14.74 -17 7.48 -17 0 C-14.03 0 -11.06 0 -8 0 C-4.71023192 -1.09658936 -3.28696233 -0.79953138 0 0 Z " fill="#FFFFFF" transform="translate(56,494)"/>
<path d="M0 0 C8.25 0 16.5 0 25 0 C25 0.99 25 1.98 25 3 C21.7 3 18.4 3 15 3 C15 12.9 15 22.8 15 33 C13.02 33.495 13.02 33.495 11 34 C10 33 10 33 9.88647461 30.13256836 C9.89171143 28.88096924 9.89694824 27.62937012 9.90234375 26.33984375 C9.9037587 25.67537735 9.90517365 25.01091095 9.90663147 24.3263092 C9.91224482 22.19666101 9.92479946 20.06711661 9.9375 17.9375 C9.94251329 16.49674631 9.94707649 15.05599097 9.95117188 13.61523438 C9.96221855 10.07678898 9.97949208 6.53840461 10 3 C6.7 3 3.4 3 0 3 C0 2.01 0 1.02 0 0 Z " fill="#FFFFFF" transform="translate(407,0)"/>
<path d="M0 0 C2.97 0 5.94 0 9 0 C9 7.26 9 14.52 9 22 C6.03 22 3.06 22 0 22 C0 14.74 0 7.48 0 0 Z " fill="#FFFFFF" transform="translate(309,494)"/>
<path d="M0 0 C2.97 0 5.94 0 9 0 C9 7.26 9 14.52 9 22 C6.03 22 3.06 22 0 22 C0 14.74 0 7.48 0 0 Z " fill="#FFFFFF" transform="translate(255,494)"/>
<path d="M0 0 C2.625 -0.4375 2.625 -0.4375 6 0 C8.33122122 2.0949488 10.17328621 4.46073827 12 7 C6 13 0 19 -6 25 C-6.042721 23.33388095 -6.04063832 21.66617115 -6 20 C-5.67 19.67 -5.34 19.34 -5 19 C-8.79588866 19.54226981 -10.47211993 21.20127563 -13 24 C-13.66 23.67 -14.32 23.34 -15 23 C-12.71240451 20.68344197 -10.41925113 18.37246517 -8.125 16.0625 C-7.47402344 15.40314453 -6.82304687 14.74378906 -6.15234375 14.06445312 C-5.52714844 13.43603516 -4.90195312 12.80761719 -4.2578125 12.16015625 C-3.6817627 11.57886963 -3.10571289 10.99758301 -2.51220703 10.39868164 C-1 9 -1 9 1 8 C0.67 5.36 0.34 2.72 0 0 Z " fill="#160B0C" transform="translate(313,168)"/>
<path d="M0 0 C0.66 0.33 1.32 0.66 2 1 C1.154375 1.66 0.30875 2.32 -0.5625 3 C-3.93515408 5.78784708 -6.68625586 8.97542369 -9.484375 12.328125 C-11 14 -11 14 -13 15 C-13 13.68 -13 12.36 -13 11 C-14.216875 11.474375 -15.43375 11.94875 -16.6875 12.4375 C-19.77268791 13.59924038 -22.73121198 14.48925187 -26 15 C-21.29793972 11.31655993 -16.10018166 8.61347983 -10.875 5.75 C-9.86050781 5.1828125 -8.84601563 4.615625 -7.80078125 4.03125 C-6.83269531 3.50015625 -5.86460937 2.9690625 -4.8671875 2.421875 C-3.98144043 1.93299805 -3.09569336 1.44412109 -2.18310547 0.94042969 C-1.46268066 0.63008789 -0.74225586 0.31974609 0 0 Z " fill="#3A9F97" transform="translate(257,204)"/>
<path d="M0 0 C3.95831733 -0.02940464 7.91660597 -0.04693328 11.875 -0.0625 C12.98359375 -0.07087891 14.0921875 -0.07925781 15.234375 -0.08789062 C21.89051489 -0.10746751 28.3939117 0.17120222 35 1 C32.11912454 3.40072955 29.43595166 5.47291037 26 7 C26 6.34 26 5.68 26 5 C26.66 5 27.32 5 28 5 C28 4.01 28 3.02 28 2 C27.25838623 2.01047363 26.51677246 2.02094727 25.75268555 2.03173828 C22.39765807 2.07327196 19.04268467 2.09931789 15.6875 2.125 C14.52025391 2.14175781 13.35300781 2.15851563 12.15039062 2.17578125 C10.47299805 2.18544922 10.47299805 2.18544922 8.76171875 2.1953125 C7.2142395 2.21102295 7.2142395 2.21102295 5.63549805 2.22705078 C3 2 3 2 0 0 Z " fill="#2A9491" transform="translate(223,263)"/>
<path d="M0 0 C0.33 0.66 0.66 1.32 1 2 C0.67 2.99 0.34 3.98 0 5 C1.43666016 4.99214478 1.43666016 4.99214478 2.90234375 4.98413086 C6.48810882 4.96590057 10.07386987 4.95450268 13.65966797 4.94506836 C15.20557344 4.94006908 16.75147425 4.93326747 18.29736328 4.92456055 C20.53158728 4.91230044 22.76574826 4.90672751 25 4.90234375 C25.68054443 4.89718246 26.36108887 4.89202118 27.06225586 4.88670349 C31.79987721 4.88616138 36.31976335 5.33955645 41 6 C41 6.33 41 6.66 41 7 C26.2937883 7.11707333 11.6765594 6.97960349 -3 6 C-2.42655063 3.13275314 -2.1385485 2.1385485 0 0 Z " fill="#C8F0EF" transform="translate(207,256)"/>
<path d="M0 0 C0.33 1.32 0.66 2.64 1 4 C1.99 4 2.98 4 4 4 C4 4.66 4 5.32 4 6 C1.75849376 7.6404154 -0.4678831 9.14662087 -2.8125 10.625 C-3.77639648 11.25535156 -3.77639648 11.25535156 -4.75976562 11.8984375 C-9.61854454 15 -9.61854454 15 -13 15 C-12.39671875 14.33613281 -11.7934375 13.67226563 -11.171875 12.98828125 C-10.37265625 12.10527344 -9.5734375 11.22226562 -8.75 10.3125 C-7.96109375 9.44238281 -7.1721875 8.57226562 -6.359375 7.67578125 C-4.15500436 5.17579137 -2.05866059 2.62054272 0 0 Z " fill="#3E9A90" transform="translate(151,325)"/>
<path d="M0 0 C0.33 0.66 0.66 1.32 1 2 C-0.32 2.99 -1.64 3.98 -3 5 C-2.01 5.66 -1.02 6.32 0 7 C0 7.66 0 8.32 0 9 C2.97 9 5.94 9 9 9 C9.33 9.66 9.66 10.32 10 11 C4.76580643 11.16335585 0.13693808 10.60552037 -4.9375 9.5 C-5.62134766 9.35691406 -6.30519531 9.21382813 -7.00976562 9.06640625 C-8.67449514 8.71716229 -10.33744875 8.35947054 -12 8 C-12 7.34 -12 6.68 -12 6 C-8.04 4.02 -4.08 2.04 0 0 Z " fill="#369A98" transform="translate(149,262)"/>
<path d="M0 0 C2.97 0 5.94 0 9 0 C9 1.98 9 3.96 9 6 C6.03 6 3.06 6 0 6 C0 4.02 0 2.04 0 0 Z " fill="#FFFFFF" transform="translate(309,486)"/>
<path d="M0 0 C2.97 0 5.94 0 9 0 C9 1.98 9 3.96 9 6 C6.03 6 3.06 6 0 6 C0 4.02 0 2.04 0 0 Z " fill="#FFFFFF" transform="translate(255,486)"/>
<path d="M0 0 C0.99 0.33 1.98 0.66 3 1 C-0.33333333 4.33333333 -3.66666667 7.66666667 -7 11 C-7.99 10.67 -8.98 10.34 -10 10 C-6.7 6.7 -3.4 3.4 0 0 Z " fill="#25090E" transform="translate(83,353)"/>
<path d="M0 0 C0 3 0 3 -2 6 C-1.01 6.66 -0.02 7.32 1 8 C1 8.66 1 9.32 1 10 C-2 11 -2 11 -5 10 C-5.3125 7.8125 -5.3125 7.8125 -5 5 C-2.5 2.1875 -2.5 2.1875 0 0 Z M-2 5 C0 6 0 6 0 6 Z " fill="#2A9893" transform="translate(157,319)"/>
<path d="M0 0 C0.33 0.66 0.66 1.32 1 2 C1.66 2.33 2.32 2.66 3 3 C0.71949607 4.26694663 -1.10336512 5.01923072 -3.6875 5.5 C-4.450625 5.665 -5.21375 5.83 -6 6 C-6.33 6.66 -6.66 7.32 -7 8 C-8.98 8 -10.96 8 -13 8 C-10.20375042 5.81302498 -7.36692128 4.00847187 -4.25 2.3125 C-3.45078125 1.87550781 -2.6515625 1.43851563 -1.828125 0.98828125 C-1.22484375 0.66214844 -0.6215625 0.33601562 0 0 Z " fill="#389B97" transform="translate(199,235)"/>
<path d="M0 0 C0.33 0.66 0.66 1.32 1 2 C-0.04541151 3.49129308 -1.11208814 4.96769402 -2.1875 6.4375 C-2.77917969 7.26121094 -3.37085938 8.08492187 -3.98046875 8.93359375 C-6.31932973 11.32674163 -7.7220036 11.68861865 -11 12 C-7.49102731 7.81576108 -3.91939465 3.80411834 0 0 Z " fill="#E8FEFE" transform="translate(250,213)"/>
<path d="M0 0 C0.66 0.33 1.32 0.66 2 1 C0.50260417 2.20442708 -0.99479167 3.40885417 -2.4921875 4.61328125 C-4.25292107 6.12270545 -4.25292107 6.12270545 -6 9 C-6.66 9 -7.32 9 -8 9 C-7.9375 6.75 -7.9375 6.75 -7 4 C-4.75412136 2.18298261 -2.67371119 1.21958756 0 0 Z " fill="#58A095" transform="translate(257,204)"/>
<path d="M0 0 C0.33 1.32 0.66 2.64 1 4 C1.99 4 2.98 4 4 4 C4 4.66 4 5.32 4 6 C2.02 6.99 2.02 6.99 0 8 C-1.32 7.01 -2.64 6.02 -4 5 C-2.68 3.35 -1.36 1.7 0 0 Z " fill="#3AA097" transform="translate(151,325)"/>
<path d="M0 0 C0 0.66 0 1.32 0 2 C-0.63808594 2.34933594 -1.27617187 2.69867188 -1.93359375 3.05859375 C-2.75988281 3.51363281 -3.58617187 3.96867188 -4.4375 4.4375 C-5.26121094 4.88996094 -6.08492187 5.34242188 -6.93359375 5.80859375 C-8.92308798 6.83662397 -8.92308798 6.83662397 -10 8 C-11.66617115 8.04063832 -13.33388095 8.042721 -15 8 C-12.23612808 5.84821844 -9.43466931 4.01629579 -6.375 2.3125 C-5.59898437 1.87550781 -4.82296875 1.43851563 -4.0234375 0.98828125 C-2 0 -2 0 0 0 Z " fill="#3A9C98" transform="translate(186,243)"/>
<path d="M0 0 C0.33 0.66 0.66 1.32 1 2 C-4.75 5 -4.75 5 -7 5 C-7 5.99 -7 6.98 -7 8 C-8.65 8 -10.3 8 -12 8 C-12 7.34 -12 6.68 -12 6 C-8.04 4.02 -4.08 2.04 0 0 Z " fill="#4B9F9A" transform="translate(149,262)"/>
<path d="M0 0 C3.3 0 6.6 0 10 0 C7.11912454 2.40072955 4.43595166 4.47291037 1 6 C1 5.34 1 4.68 1 4 C1.66 4 2.32 4 3 4 C3 3.01 3 2.02 3 1 C2.01 0.67 1.02 0.34 0 0 Z " fill="#3A9792" transform="translate(248,264)"/>
<path d="M0 0 C0.99 0.33 1.98 0.66 3 1 C1.87926138 1.83905565 0.75325453 2.67107831 -0.375 3.5 C-1.00148437 3.9640625 -1.62796875 4.428125 -2.2734375 4.90625 C-4 6 -4 6 -6 6 C-6 4.35 -6 2.7 -6 1 C-3.03 1.495 -3.03 1.495 0 2 C0 1.34 0 0.68 0 0 Z " fill="#3A9A96" transform="translate(206,295)"/>
<path d="M0 0 C0.33 0.66 0.66 1.32 1 2 C-0.39852912 4.79705825 -2.13651858 4.90914993 -5 6 C-5.99 6.66 -6.98 7.32 -8 8 C-8.99 7.67 -9.98 7.34 -11 7 C-7.37 4.69 -3.74 2.38 0 0 Z " fill="#DCF6F6" transform="translate(247,271)"/>
<path d="M0 0 C0.33 0.66 0.66 1.32 1 2 C0.67 2.99 0.34 3.98 0 5 C2.97 5 5.94 5 9 5 C9 5.33 9 5.66 9 6 C5.04 6 1.08 6 -3 6 C-2 2 -2 2 0 0 Z " fill="#B9E2E3" transform="translate(207,256)"/>
<path d="M0 0 C-1.28913487 0.67154933 -2.58140204 1.33708859 -3.875 2 C-4.59429687 2.37125 -5.31359375 2.7425 -6.0546875 3.125 C-8 4 -8 4 -10 4 C-9.67 2.68 -9.34 1.36 -9 0 C-5.5657338 -0.85856655 -3.38317487 -0.97591583 0 0 Z " fill="#E2FAF9" transform="translate(162,256)"/>
<path d="M0 0 C-1.32 1.65 -2.64 3.3 -4 5 C-4.99 4.67 -5.98 4.34 -7 4 C-6.625 2.0625 -6.625 2.0625 -6 0 C-3.50907189 -1.24546405 -2.58919267 -0.7767578 0 0 Z " fill="#C5272E" transform="translate(370,75)"/>
<path d="M0 0 C7.42857143 1 7.42857143 1 11 2 C11 2.66 11 3.32 11 4 C7.37 3.34 3.74 2.68 0 2 C0 1.34 0 0.68 0 0 Z " fill="#3D9E95" transform="translate(164,273)"/>
<path d="M0 0 C2.97 0 5.94 0 9 0 C7.515 1.98 7.515 1.98 6 4 C1.125 2.25 1.125 2.25 0 0 Z " fill="#240706" transform="translate(94,396)"/>
<path d="M0 0 C0.33 0.99 0.66 1.98 1 3 C-0.65 4.65 -2.3 6.3 -4 8 C-4.99 7.67 -5.98 7.34 -7 7 C-4.69 4.69 -2.38 2.38 0 0 Z " fill="#D2F4F4" transform="translate(223,240)"/>
<path d="M0 0 C0.33 1.32 0.66 2.64 1 4 C0.195625 4.268125 -0.60875 4.53625 -1.4375 4.8125 C-2.283125 5.204375 -3.12875 5.59625 -4 6 C-4.33 6.99 -4.66 7.98 -5 9 C-5 5 -5 5 -2.5 2.25 C-1.675 1.5075 -0.85 0.765 0 0 Z " fill="#2D0D10" transform="translate(72,364)"/>
<path d="M0 0 C0.33 0.66 0.66 1.32 1 2 C-1.64 4.31 -4.28 6.62 -7 9 C-7.33 8.34 -7.66 7.68 -8 7 C-5.42215154 4.35247996 -3.08351902 2.05567935 0 0 Z " fill="#E7F7F7" transform="translate(147,335)"/>
<path d="M0 0 C0.33 0.99 0.66 1.98 1 3 C-0.9375 5.6875 -0.9375 5.6875 -3 8 C-3.99 7.67 -4.98 7.34 -6 7 C-5.67 6.34 -5.34 5.68 -5 5 C-4.34 5 -3.68 5 -3 5 C-2.5359375 4.0409375 -2.5359375 4.0409375 -2.0625 3.0625 C-1 1 -1 1 0 0 Z " fill="#379E97" transform="translate(179,294)"/>
<path d="M0 0 C1.65 0 3.3 0 5 0 C5.66 1.98 6.32 3.96 7 6 C6.01 6.495 6.01 6.495 5 7 C3.35 4.69 1.7 2.38 0 0 Z " fill="#AF282A" transform="translate(319,168)"/>
<path d="M0 0 C0.99 0.66 1.98 1.32 3 2 C0.1875 4.0625 0.1875 4.0625 -3 6 C-3.99 5.67 -4.98 5.34 -6 5 C-5.38125 4.9175 -4.7625 4.835 -4.125 4.75 C-1.81562433 4.18741541 -1.81562433 4.18741541 -0.75 1.9375 C-0.5025 1.298125 -0.255 0.65875 0 0 Z " fill="#339B96" transform="translate(214,289)"/>
<path d="M0 0 C0.33 0.99 0.66 1.98 1 3 C-0.32 4.32 -1.64 5.64 -3 7 C-3.99 6.67 -4.98 6.34 -6 6 C-4.02 4.02 -2.04 2.04 0 0 Z " fill="#DAF7F7" transform="translate(230,233)"/>
<path d="M0 0 C2.475 0.495 2.475 0.495 5 1 C4.67 2.32 4.34 3.64 4 5 C2.68 4.34 1.36 3.68 0 3 C0 2.01 0 1.02 0 0 Z " fill="#1A9987" transform="translate(155,323)"/>
<path d="M0 0 C-2.3125 2.0625 -2.3125 2.0625 -5 4 C-5.99 3.67 -6.98 3.34 -8 3 C-5.53387212 -0.1151089 -3.89156016 -0.31553191 0 0 Z " fill="#35998F" transform="translate(197,303)"/>
<path d="M0 0 C0.66 0.33 1.32 0.66 2 1 C1.01 2.485 1.01 2.485 0 4 C-3.625 4.6875 -3.625 4.6875 -7 5 C-2.25 1.125 -2.25 1.125 0 0 Z " fill="#409F97" transform="translate(229,219)"/>
</svg>
