<?xml version="1.0" encoding="UTF-8"?>
<svg version="1.1" xmlns="http://www.w3.org/2000/svg" width="200" height="200">
<path d="M0 0 C66 0 132 0 200 0 C200 66 200 132 200 200 C134 200 68 200 0 200 C0 134 0 68 0 0 Z " fill="#FDFDFC" transform="translate(0,0)"/>
<path d="M0 0 C5.94 0 11.88 0 18 0 C18 0.66 18 1.32 18 2 C18.66 2 19.32 2 20 2 C20 2.66 20 3.32 20 4 C21.32 4 22.64 4 24 4 C24 4.66 24 5.32 24 6 C24.66 6 25.32 6 26 6 C26 6.66 26 7.32 26 8 C26.66 8 27.32 8 28 8 C28 9.32 28 10.64 28 12 C28.66 12 29.32 12 30 12 C30 12.66 30 13.32 30 14 C30.66 14 31.32 14 32 14 C32 15.32 32 16.64 32 18 C32.66 18 33.32 18 34 18 C34 19.32 34 20.64 34 22 C34.66 22 35.32 22 36 22 C36 23.32 36 24.64 36 26 C36.66 26 37.32 26 38 26 C38 27.98 38 29.96 38 32 C38.66 32 39.32 32 40 32 C42.13131517 40.23451758 42.23837775 48.1565543 42.125 56.625 C42.11597656 57.91535156 42.10695313 59.20570312 42.09765625 60.53515625 C42.0742848 63.69030249 42.04152091 66.84504926 42 70 C41.34 70 40.68 70 40 70 C40 73.96 40 77.92 40 82 C39.34 82 38.68 82 38 82 C38 83.98 38 85.96 38 88 C37.34 88 36.68 88 36 88 C36 89.98 36 91.96 36 94 C35.34 94 34.68 94 34 94 C34 95.32 34 96.64 34 98 C33.34 98 32.68 98 32 98 C32 99.32 32 100.64 32 102 C31.34 102 30.68 102 30 102 C30 102.66 30 103.32 30 104 C29.34 104 28.68 104 28 104 C28 104.66 28 105.32 28 106 C27.34 106 26.68 106 26 106 C26 107.32 26 108.64 26 110 C25.34 110 24.68 110 24 110 C24 110.66 24 111.32 24 112 C22.68 112 21.36 112 20 112 C20 112.66 20 113.32 20 114 C19.34 114 18.68 114 18 114 C18 114.66 18 115.32 18 116 C12.06 116 6.12 116 0 116 C0 115.34 0 114.68 0 114 C-0.66 114 -1.32 114 -2 114 C-2 113.34 -2 112.68 -2 112 C-2.66 112 -3.32 112 -4 112 C-4 111.34 -4 110.68 -4 110 C-4.66 110 -5.32 110 -6 110 C-6 109.34 -6 108.68 -6 108 C-6.66 108 -7.32 108 -8 108 C-8 107.34 -8 106.68 -8 106 C-8.66 106 -9.32 106 -10 106 C-10 105.34 -10 104.68 -10 104 C-10.66 104 -11.32 104 -12 104 C-12 103.34 -12 102.68 -12 102 C-12.66 102 -13.32 102 -14 102 C-14 100.68 -14 99.36 -14 98 C-14.66 98 -15.32 98 -16 98 C-16 96.68 -16 95.36 -16 94 C-16.66 94 -17.32 94 -18 94 C-18 91.36 -18 88.72 -18 86 C-18.66 86 -19.32 86 -20 86 C-20 84.68 -20 83.36 -20 82 C-20.66 82 -21.32 82 -22 82 C-22 79.36 -22 76.72 -22 74 C-22.66 74 -23.32 74 -24 74 C-24 63.44 -24 52.88 -24 42 C-23.34 42 -22.68 42 -22 42 C-22 39.36 -22 36.72 -22 34 C-21.34 34 -20.68 34 -20 34 C-20 32.02 -20 30.04 -20 28 C-19.34 28 -18.68 28 -18 28 C-18 26.02 -18 24.04 -18 22 C-17.34 22 -16.68 22 -16 22 C-16 20.68 -16 19.36 -16 18 C-15.34 18 -14.68 18 -14 18 C-14 16.68 -14 15.36 -14 14 C-13.34 14 -12.68 14 -12 14 C-12 13.34 -12 12.68 -12 12 C-11.34 12 -10.68 12 -10 12 C-10 11.34 -10 10.68 -10 10 C-9.34 10 -8.68 10 -8 10 C-8 8.68 -8 7.36 -8 6 C-6.68 6 -5.36 6 -4 6 C-4 5.34 -4 4.68 -4 4 C-3.34 4 -2.68 4 -2 4 C-2 3.34 -2 2.68 -2 2 C-1.34 2 -0.68 2 0 2 C0 1.34 0 0.68 0 0 Z " fill="#E47A1C" transform="translate(40,42)"/>
<path d="M0 0 C3.3 0 6.6 0 10 0 C10 0.66 10 1.32 10 2 C11.32 2 12.64 2 14 2 C14 2.66 14 3.32 14 4 C14.66 4 15.32 4 16 4 C16 5.32 16 6.64 16 8 C16.66 8 17.32 8 18 8 C18 9.32 18 10.64 18 12 C18.66 12 19.32 12 20 12 C20 13.32 20 14.64 20 16 C18.68 16 17.36 16 16 16 C16 15.34 16 14.68 16 14 C15.34 14 14.68 14 14 14 C14 12.68 14 11.36 14 10 C13.34 10 12.68 10 12 10 C12 9.34 12 8.68 12 8 C11.34 8 10.68 8 10 8 C10 7.34 10 6.68 10 6 C6.7 6 3.4 6 0 6 C0 6.66 0 7.32 0 8 C-0.66 8 -1.32 8 -2 8 C-2 9.32 -2 10.64 -2 12 C-2.66 12 -3.32 12 -4 12 C-4 13.32 -4 14.64 -4 16 C-4.66 16 -5.32 16 -6 16 C-6 17.98 -6 19.96 -6 22 C-6.66 22 -7.32 22 -8 22 C-8 30.58 -8 39.16 -8 48 C-7.34 48 -6.68 48 -6 48 C-6 49.32 -6 50.64 -6 52 C-5.34 52 -4.68 52 -4 52 C-4 53.98 -4 55.96 -4 58 C-3.34 58 -2.68 58 -2 58 C-2 59.32 -2 60.64 -2 62 C-1.34 62 -0.68 62 0 62 C0 62.66 0 63.32 0 64 C0.66 64 1.32 64 2 64 C2 64.66 2 65.32 2 66 C3.98 66 5.96 66 8 66 C8 65.34 8 64.68 8 64 C8.66 64 9.32 64 10 64 C10 63.34 10 62.68 10 62 C10.66 62 11.32 62 12 62 C12 61.34 12 60.68 12 60 C12.66 60 13.32 60 14 60 C14 59.34 14 58.68 14 58 C15.32 58 16.64 58 18 58 C18 58.66 18 59.32 18 60 C19.32 60 20.64 60 22 60 C22 60.66 22 61.32 22 62 C22.66 62 23.32 62 24 62 C24 62.66 24 63.32 24 64 C24.66 64 25.32 64 26 64 C26 64.66 26 65.32 26 66 C27.98 66 29.96 66 32 66 C32 65.34 32 64.68 32 64 C32.66 64 33.32 64 34 64 C34 63.34 34 62.68 34 62 C34.66 62 35.32 62 36 62 C36 60.02 36 58.04 36 56 C35.34 56 34.68 56 34 56 C34 54.68 34 53.36 34 52 C33.34 52 32.68 52 32 52 C32 51.34 32 50.68 32 50 C31.34 50 30.68 50 30 50 C30 48.68 30 47.36 30 46 C28.68 46 27.36 46 26 46 C26 43.36 26 40.72 26 38 C26.33 38.66 26.66 39.32 27 40 C28.65 39.34 30.3 38.68 32 38 C32 37.34 32 36.68 32 36 C32.66 36 33.32 36 34 36 C34 35.34 34 34.68 34 34 C34.66 34 35.32 34 36 34 C36 31.36 36 28.72 36 26 C35.34 26 34.68 26 34 26 C34 25.34 34 24.68 34 24 C32.02 24 30.04 24 28 24 C28 24.66 28 25.32 28 26 C26.68 25.34 25.36 24.68 24 24 C24 22.68 24 21.36 24 20 C27.96 20 31.92 20 36 20 C36 20.66 36 21.32 36 22 C36.66 22 37.32 22 38 22 C38 22.66 38 23.32 38 24 C38.66 24 39.32 24 40 24 C40 27.3 40 30.6 40 34 C39.34 34 38.68 34 38 34 C38 35.32 38 36.64 38 38 C37.34 38 36.68 38 36 38 C36 38.66 36 39.32 36 40 C35.34 40 34.68 40 34 40 C34 41.98 34 43.96 34 46 C34.66 46 35.32 46 36 46 C36 46.66 36 47.32 36 48 C36.66 48 37.32 48 38 48 C38 49.32 38 50.64 38 52 C39.32 52 40.64 52 42 52 C42 40.78 42 29.56 42 18 C42.66 18 43.32 18 44 18 C44 16.02 44 14.04 44 12 C44.66 12 45.32 12 46 12 C46 11.34 46 10.68 46 10 C46.66 10 47.32 10 48 10 C48 8.68 48 7.36 48 6 C48.66 6 49.32 6 50 6 C50 5.34 50 4.68 50 4 C50.66 4 51.32 4 52 4 C52 3.34 52 2.68 52 2 C52.66 2 53.32 2 54 2 C54 1.34 54 0.68 54 0 C57.3 0 60.6 0 64 0 C64 0.66 64 1.32 64 2 C65.32 2 66.64 2 68 2 C68 2.66 68 3.32 68 4 C68.66 4 69.32 4 70 4 C70 5.32 70 6.64 70 8 C70.66 8 71.32 8 72 8 C72 8.66 72 9.32 72 10 C72.66 10 73.32 10 74 10 C74 11.32 74 12.64 74 14 C74.66 14 75.32 14 76 14 C76 17.3 76 20.6 76 24 C76.66 24 77.32 24 78 24 C78 32.58 78 41.16 78 50 C77.34 50 76.68 50 76 50 C76 51.32 76 52.64 76 54 C75.34 54 74.68 54 74 54 C74 55.98 74 57.96 74 60 C73.34 60 72.68 60 72 60 C72 61.32 72 62.64 72 64 C71.34 64 70.68 64 70 64 C70 64.66 70 65.32 70 66 C69.34 66 68.68 66 68 66 C68 66.66 68 67.32 68 68 C67.34 68 66.68 68 66 68 C66 68.66 66 69.32 66 70 C64.68 70 63.36 70 62 70 C62 70.66 62 71.32 62 72 C60.02 72 58.04 72 56 72 C56 71.34 56 70.68 56 70 C55.34 70 54.68 70 54 70 C54 69.34 54 68.68 54 68 C53.34 68 52.68 68 52 68 C52 67.34 52 66.68 52 66 C51.34 66 50.68 66 50 66 C50 65.34 50 64.68 50 64 C49.34 64 48.68 64 48 64 C48 63.34 48 62.68 48 62 C47.34 62 46.68 62 46 62 C46 60.68 46 59.36 46 58 C45.34 58 44.68 58 44 58 C44 58.66 44 59.32 44 60 C43.34 60 42.68 60 42 60 C42 61.32 42 62.64 42 64 C41.34 64 40.68 64 40 64 C40 64.66 40 65.32 40 66 C39.34 66 38.68 66 38 66 C38 66.66 38 67.32 38 68 C37.34 68 36.68 68 36 68 C36 68.66 36 69.32 36 70 C31.38 70 26.76 70 22 70 C22 69.34 22 68.68 22 68 C21.34 68 20.68 68 20 68 C20 67.34 20 66.68 20 66 C19.34 66 18.68 66 18 66 C18 65.34 18 64.68 18 64 C17.34 64 16.68 64 16 64 C16 64.66 16 65.32 16 66 C15.34 66 14.68 66 14 66 C14 66.66 14 67.32 14 68 C13.34 68 12.68 68 12 68 C12 68.66 12 69.32 12 70 C8.04 70 4.08 70 0 70 C0 69.34 0 68.68 0 68 C-1.32 68 -2.64 68 -4 68 C-4 66.68 -4 65.36 -4 64 C-4.66 64 -5.32 64 -6 64 C-6 63.34 -6 62.68 -6 62 C-6.66 62 -7.32 62 -8 62 C-8 60.68 -8 59.36 -8 58 C-8.66 58 -9.32 58 -10 58 C-10 56.02 -10 54.04 -10 52 C-10.66 52 -11.32 52 -12 52 C-12 40.78 -12 29.56 -12 18 C-11.34 18 -10.68 18 -10 18 C-10 16.02 -10 14.04 -10 12 C-9.34 12 -8.68 12 -8 12 C-8 10.68 -8 9.36 -8 8 C-7.34 8 -6.68 8 -6 8 C-6 7.34 -6 6.68 -6 6 C-5.34 6 -4.68 6 -4 6 C-4 5.34 -4 4.68 -4 4 C-3.34 4 -2.68 4 -2 4 C-2 3.34 -2 2.68 -2 2 C-1.34 2 -0.68 2 0 2 C0 1.34 0 0.68 0 0 Z " fill="#1C1C1C" transform="translate(106,52)"/>
<path d="M0 0 C0 0.99 0 1.98 0 3 C-0.99 3.33 -1.98 3.66 -3 4 C-3 4.66 -3 5.32 -3 6 C-2.34 6.66 -1.68 7.32 -1 8 C-0.76953125 10.8984375 -0.76953125 10.8984375 -0.8125 14.375 C-0.81894531 15.51710938 -0.82539062 16.65921875 -0.83203125 17.8359375 C-0.9696469 20.42823223 -1.09823582 22.57614978 -2 25 C-2.66 25.33 -3.32 25.66 -4 26 C-0.7 26.33 2.6 26.66 6 27 C6 27.99 6 28.98 6 30 C4.02 30 2.04 30 0 30 C0 30.99 0 31.98 0 33 C0.66 33 1.32 33 2 33 C2.33 33.99 2.66 34.98 3 36 C0.525 36.495 0.525 36.495 -2 37 C-2 38.32 -2 39.64 -2 41 C-0.02 41 1.96 41 4 41 C4 41.66 4 42.32 4 43 C3.34 43 2.68 43 2 43 C2 43.66 2 44.32 2 45 C1.34 45 0.68 45 0 45 C0 45.66 0 46.32 0 47 C-1.32 47 -2.64 47 -4 47 C-4 47.66 -4 48.32 -4 49 C-3.34 49 -2.68 49 -2 49 C-2 49.66 -2 50.32 -2 51 C-0.68 51 0.64 51 2 51 C2 49.68 2 48.36 2 47 C3.32 47 4.64 47 6 47 C6 48.32 6 49.64 6 51 C5.34 51 4.68 51 4 51 C4 51.66 4 52.32 4 53 C3.34 53 2.68 53 2 53 C2 53.66 2 54.32 2 55 C1.34 55 0.68 55 0 55 C0 55.66 0 56.32 0 57 C1.32 57 2.64 57 4 57 C4 56.34 4 55.68 4 55 C4.66 55 5.32 55 6 55 C6 56.32 6 57.64 6 59 C7.32 59 8.64 59 10 59 C10 57.02 10 55.04 10 53 C11.32 53 12.64 53 14 53 C14 54.32 14 55.64 14 57 C13.34 57 12.68 57 12 57 C12 58.98 12 60.96 12 63 C11.34 63 10.68 63 10 63 C10 63.66 10 64.32 10 65 C9.34 65 8.68 65 8 65 C8 66.98 8 68.96 8 71 C7.34 71 6.68 71 6 71 C6 71.66 6 72.32 6 73 C5.34 73 4.68 73 4 73 C4 74.98 4 76.96 4 79 C5.98 79 7.96 79 10 79 C10 80.32 10 81.64 10 83 C9.34 83 8.68 83 8 83 C8 83.66 8 84.32 8 85 C7.34 85 6.68 85 6 85 C6 85.66 6 86.32 6 87 C5.34 87 4.68 87 4 87 C4 87.66 4 88.32 4 89 C3.34 89 2.68 89 2 89 C2 90.32 2 91.64 2 93 C1.34 93 0.68 93 0 93 C0 93.66 0 94.32 0 95 C-0.66 95 -1.32 95 -2 95 C-2 96.32 -2 97.64 -2 99 C-0.68 99.33 0.64 99.66 2 100 C0.02 100.495 0.02 100.495 -2 101 C-2 101.66 -2 102.32 -2 103 C-3.32 103 -4.64 103 -6 103 C-6 102.34 -6 101.68 -6 101 C-6.66 101 -7.32 101 -8 101 C-8 100.34 -8 99.68 -8 99 C-8.66 99 -9.32 99 -10 99 C-10 98.34 -10 97.68 -10 97 C-10.66 97 -11.32 97 -12 97 C-12 95.68 -12 94.36 -12 93 C-12.66 93 -13.32 93 -14 93 C-14 91.68 -14 90.36 -14 89 C-14.66 89 -15.32 89 -16 89 C-16 86.36 -16 83.72 -16 81 C-16.66 81 -17.32 81 -18 81 C-18 79.68 -18 78.36 -18 77 C-18.66 77 -19.32 77 -20 77 C-20 74.36 -20 71.72 -20 69 C-20.66 69 -21.32 69 -22 69 C-22 58.44 -22 47.88 -22 37 C-21.34 37 -20.68 37 -20 37 C-20 34.36 -20 31.72 -20 29 C-19.34 29 -18.68 29 -18 29 C-18 27.02 -18 25.04 -18 23 C-17.34 23 -16.68 23 -16 23 C-16 21.02 -16 19.04 -16 17 C-15.34 17 -14.68 17 -14 17 C-14 15.68 -14 14.36 -14 13 C-13.34 13 -12.68 13 -12 13 C-12 11.68 -12 10.36 -12 9 C-11.34 9 -10.68 9 -10 9 C-10 8.34 -10 7.68 -10 7 C-9.34 7 -8.68 7 -8 7 C-8 6.34 -8 5.68 -8 5 C-7.34 5 -6.68 5 -6 5 C-6 3.68 -6 2.36 -6 1 C-4.02 0.67 -2.04 0.34 0 0 Z " fill="#E4791C" transform="translate(38,47)"/>
<path d="M0 0 C29.7 0 59.4 0 90 0 C90 1.32 90 2.64 90 4 C87.69 4.33 85.38 4.66 83 5 C82.67 5.99 82.34 6.98 82 8 C82.66 8 83.32 8 84 8 C84 8.66 84 9.32 84 10 C84.66 10 85.32 10 86 10 C86 11.98 86 13.96 86 16 C85.34 16 84.68 16 84 16 C84 16.66 84 17.32 84 18 C81.36 18 78.72 18 76 18 C76 20.64 76 23.28 76 26 C74.68 26 73.36 26 72 26 C71.505 22.535 71.505 22.535 71 19 C70.505 20.485 70.505 20.485 70 22 C69.34 22 68.68 22 68 22 C68 22.66 68 23.32 68 24 C67.34 24 66.68 24 66 24 C66 24.66 66 25.32 66 26 C64.02 26 62.04 26 60 26 C60 25.34 60 24.68 60 24 C59.34 24 58.68 24 58 24 C58 22.68 58 21.36 58 20 C57.34 20 56.68 20 56 20 C55.97314588 17.68756208 55.95367159 15.3750373 55.9375 13.0625 C55.92589844 11.77472656 55.91429687 10.48695313 55.90234375 9.16015625 C56 6 56 6 57 5 C49.41 4.67 41.82 4.34 34 4 C34 5.98 34 7.96 34 10 C34.66 10 35.32 10 36 10 C36 11.98 36 13.96 36 16 C35.34 16 34.68 16 34 16 C34 17.32 34 18.64 34 20 C34.66 20 35.32 20 36 20 C36 21.32 36 22.64 36 24 C36.66 24 37.32 24 38 24 C38 24.66 38 25.32 38 26 C36.68 26 35.36 26 34 26 C34 24.68 34 23.36 34 22 C33.34 22 32.68 22 32 22 C32 21.34 32 20.68 32 20 C31.34 20 30.68 20 30 20 C30 19.34 30 18.68 30 18 C28.68 18 27.36 18 26 18 C26 20.64 26 23.28 26 26 C25.34 26 24.68 26 24 26 C24 24.35 24 22.7 24 21 C22.68 21.33 21.36 21.66 20 22 C20 22.66 20 23.32 20 24 C19.34 24 18.68 24 18 24 C18 24.66 18 25.32 18 26 C15.36 26 12.72 26 10 26 C10 25.34 10 24.68 10 24 C9.34 24 8.68 24 8 24 C8 22.68 8 21.36 8 20 C7.34 20 6.68 20 6 20 C6 17.36 6 14.72 6 12 C6.66 12 7.32 12 8 12 C8 11.34 8 10.68 8 10 C8.66 10 9.32 10 10 10 C10 9.34 10 8.68 10 8 C10.66 8 11.32 8 12 8 C12 7.34 12 6.68 12 6 C13.65 6.33 15.3 6.66 17 7 C17 6.34 17 5.68 17 5 C11.39 4.67 5.78 4.34 0 4 C0 2.68 0 1.36 0 0 Z " fill="#EAE9E8" transform="translate(94,128)"/>
<path d="M0 0 C5.94 0 11.88 0 18 0 C18 0.66 18 1.32 18 2 C17.34 2 16.68 2 16 2 C16 2.66 16 3.32 16 4 C15.34 4 14.68 4 14 4 C14 5.98 14 7.96 14 10 C12.68 10 11.36 10 10 10 C10 11.32 10 12.64 10 14 C10.66 14 11.32 14 12 14 C12 13.34 12 12.68 12 12 C13.32 12 14.64 12 16 12 C16 11.34 16 10.68 16 10 C17.32 10 18.64 10 20 10 C20 10.66 20 11.32 20 12 C20.66 12 21.32 12 22 12 C22 13.32 22 14.64 22 16 C21.34 16 20.68 16 20 16 C20.020625 16.94875 20.04125 17.8975 20.0625 18.875 C20 22 20 22 19 24 C18.77377919 25.70363822 18.59111527 27.41328701 18.4375 29.125 C18.35371094 30.03507812 18.26992188 30.94515625 18.18359375 31.8828125 C18.09271484 32.93082031 18.09271484 32.93082031 18 34 C18.66 34 19.32 34 20 34 C20 34.66 20 35.32 20 36 C20.66 36 21.32 36 22 36 C22 36.66 22 37.32 22 38 C23.32 38 24.64 38 26 38 C26 37.34 26 36.68 26 36 C26.66 36 27.32 36 28 36 C28 35.34 28 34.68 28 34 C28.66 34 29.32 34 30 34 C30 32.02 30 30.04 30 28 C30.66 28 31.32 28 32 28 C32 32.62 32 37.24 32 42 C31.34 42 30.68 42 30 42 C30 42.66 30 43.32 30 44 C27.36 44 24.72 44 22 44 C22 43.34 22 42.68 22 42 C21.34 42 20.68 42 20 42 C20 41.34 20 40.68 20 40 C19.34 40 18.68 40 18 40 C18 38.68 18 37.36 18 36 C17.34 36 16.68 36 16 36 C16 37.98 16 39.96 16 42 C15.34 42 14.68 42 14 42 C14 43.98 14 45.96 14 48 C13.34 48 12.68 48 12 48 C12 49.98 12 51.96 12 54 C11.34 54 10.68 54 10 54 C10 55.98 10 57.96 10 60 C10.66 60 11.32 60 12 60 C12 59.34 12 58.68 12 58 C12.66 58 13.32 58 14 58 C14 56.68 14 55.36 14 54 C14.66 54 15.32 54 16 54 C16.66 51.36 17.32 48.72 18 46 C18.66 46 19.32 46 20 46 C20 46.66 20 47.32 20 48 C20.66 48 21.32 48 22 48 C22 49.98 22 51.96 22 54 C21.34 54 20.68 54 20 54 C20 55.32 20 56.64 20 58 C22.64 58 25.28 58 28 58 C28 58.66 28 59.32 28 60 C28.66 60 29.32 60 30 60 C30 63.3 30 66.6 30 70 C29.34 70 28.68 70 28 70 C28 71.98 28 73.96 28 76 C27.34 76 26.68 76 26 76 C26 77.32 26 78.64 26 80 C25.34 80 24.68 80 24 80 C24 81.32 24 82.64 24 84 C23.34 84 22.68 84 22 84 C22 84.66 22 85.32 22 86 C21.34 86 20.68 86 20 86 C20 85.34 20 84.68 20 84 C19.34 84 18.68 84 18 84 C18 83.34 18 82.68 18 82 C17.34 82 16.68 82 16 82 C16 80.68 16 79.36 16 78 C15.34 78 14.68 78 14 78 C14 76.02 14 74.04 14 72 C14.66 72 15.32 72 16 72 C16 72.66 16 73.32 16 74 C16.66 74 17.32 74 18 74 C18 74.66 18 75.32 18 76 C19.32 76 20.64 76 22 76 C22 75.34 22 74.68 22 74 C22.66 74 23.32 74 24 74 C24 70.7 24 67.4 24 64 C23.34 64 22.68 64 22 64 C22 63.34 22 62.68 22 62 C20.02 62 18.04 62 16 62 C16 63.32 16 64.64 16 66 C15.34 66 14.68 66 14 66 C14 66.66 14 67.32 14 68 C13.34 68 12.68 68 12 68 C12 69.32 12 70.64 12 72 C11.34 72 10.68 72 10 72 C10 72.66 10 73.32 10 74 C9.34 74 8.68 74 8 74 C8 74.66 8 75.32 8 76 C7.34 76 6.68 76 6 76 C6 76.66 6 77.32 6 78 C5.34 78 4.68 78 4 78 C4 78.66 4 79.32 4 80 C3.34 80 2.68 80 2 80 C2 80.66 2 81.32 2 82 C1.34 82 0.68 82 0 82 C0 82.66 0 83.32 0 84 C-0.66 84 -1.32 84 -2 84 C-2 84.66 -2 85.32 -2 86 C-2.66 86 -3.32 86 -4 86 C-4 84.68 -4 83.36 -4 82 C-3.34 82 -2.68 82 -2 82 C-2 81.34 -2 80.68 -2 80 C-1.34 80 -0.68 80 0 80 C0 78.68 0 77.36 0 76 C0.66 76 1.32 76 2 76 C2 75.34 2 74.68 2 74 C2.66 74 3.32 74 4 74 C4 73.34 4 72.68 4 72 C4.66 72 5.32 72 6 72 C6 71.34 6 70.68 6 70 C6.66 70 7.32 70 8 70 C8 68.68 8 67.36 8 66 C6.02 66 4.04 66 2 66 C2 64.02 2 62.04 2 60 C2.66 60 3.32 60 4 60 C4 59.34 4 58.68 4 58 C4.66 58 5.32 58 6 58 C6 56.02 6 54.04 6 52 C6.66 52 7.32 52 8 52 C8 51.34 8 50.68 8 50 C8.66 50 9.32 50 10 50 C10 48.02 10 46.04 10 44 C10.66 44 11.32 44 12 44 C12 42.68 12 41.36 12 40 C10.68 40 9.36 40 8 40 C8 41.98 8 43.96 8 46 C6.68 46 5.36 46 4 46 C4 44.68 4 43.36 4 42 C3.34 42 2.68 42 2 42 C2 42.66 2 43.32 2 44 C0.68 44 -0.64 44 -2 44 C-2 43.34 -2 42.68 -2 42 C-1.34 42 -0.68 42 0 42 C0 41.34 0 40.68 0 40 C0.66 40 1.32 40 2 40 C2 39.34 2 38.68 2 38 C2.66 38 3.32 38 4 38 C4 36.68 4 35.36 4 34 C2.68 34 1.36 34 0 34 C0 35.32 0 36.64 0 38 C-1.32 38 -2.64 38 -4 38 C-4 37.34 -4 36.68 -4 36 C-4.66 36 -5.32 36 -6 36 C-6 35.34 -6 34.68 -6 34 C-4.68 34 -3.36 34 -2 34 C-2 33.34 -2 32.68 -2 32 C-1.34 32 -0.68 32 0 32 C0 31.34 0 30.68 0 30 C0.66 30 1.32 30 2 30 C2 29.34 2 28.68 2 28 C0.02 28 -1.96 28 -4 28 C-4 26.68 -4 25.36 -4 24 C-2.68 23.34 -1.36 22.68 0 22 C0 21.34 0 20.68 0 20 C-0.66 20 -1.32 20 -2 20 C-2 19.34 -2 18.68 -2 18 C0.64 18 3.28 18 6 18 C6 17.34 6 16.68 6 16 C6.66 16 7.32 16 8 16 C8 14.68 8 13.36 8 12 C6.68 12 5.36 12 4 12 C4 11.34 4 10.68 4 10 C4.66 10 5.32 10 6 10 C6 8.68 6 7.36 6 6 C5.34 6 4.68 6 4 6 C4 6.66 4 7.32 4 8 C3.34 8 2.68 8 2 8 C2 8.66 2 9.32 2 10 C1.34 10 0.68 10 0 10 C0 10.66 0 11.32 0 12 C-0.66 12 -1.32 12 -2 12 C-2 9.36 -2 6.72 -2 4 C-1.34 4 -0.68 4 0 4 C0 2.68 0 1.36 0 0 Z " fill="#264D1B" transform="translate(40,60)"/>
<path d="M0 0 C3.3 0 6.6 0 10 0 C10 0.66 10 1.32 10 2 C10.66 2 11.32 2 12 2 C12 2.66 12 3.32 12 4 C12.66 4 13.32 4 14 4 C14 5.32 14 6.64 14 8 C14.66 8 15.32 8 16 8 C16 9.32 16 10.64 16 12 C16.66 12 17.32 12 18 12 C18 22.56 18 33.12 18 44 C17.34 44 16.68 44 16 44 C16 45.98 16 47.96 16 50 C15.34 50 14.68 50 14 50 C14 51.32 14 52.64 14 54 C13.34 54 12.68 54 12 54 C12 54.66 12 55.32 12 56 C11.34 56 10.68 56 10 56 C10 56.66 10 57.32 10 58 C9.34 58 8.68 58 8 58 C8 58.66 8 59.32 8 60 C6.02 60 4.04 60 2 60 C2 59.34 2 58.68 2 58 C1.34 58 0.68 58 0 58 C0 57.34 0 56.68 0 56 C-0.66 56 -1.32 56 -2 56 C-2 54.68 -2 53.36 -2 52 C-2.66 52 -3.32 52 -4 52 C-4 50.02 -4 48.04 -4 46 C-4.66 46 -5.32 46 -6 46 C-6 44.02 -6 42.04 -6 40 C-6.66 40 -7.32 40 -8 40 C-8 32.08 -8 24.16 -8 16 C-7.34 16 -6.68 16 -6 16 C-6 14.02 -6 12.04 -6 10 C-5.34 10 -4.68 10 -4 10 C-4 8.68 -4 7.36 -4 6 C-3.34 6 -2.68 6 -2 6 C-2 4.68 -2 3.36 -2 2 C-1.34 2 -0.68 2 0 2 C0 1.34 0 0.68 0 0 Z " fill="#F5F5F4" transform="translate(160,58)"/>
<path d="M0 0 C0.66 0 1.32 0 2 0 C2 1.65 2 3.3 2 5 C4.97 5 7.94 5 11 5 C11 6.98 11 8.96 11 11 C10.34 11 9.68 11 9 11 C9 12.98 9 14.96 9 17 C8.34 17 7.68 17 7 17 C7 18.98 7 20.96 7 23 C6.34 23 5.68 23 5 23 C5 24.98 5 26.96 5 29 C5.66 29 6.32 29 7 29 C7 28.34 7 27.68 7 27 C7.66 27 8.32 27 9 27 C9 25.68 9 24.36 9 23 C9.66 23 10.32 23 11 23 C11.66 20.36 12.32 17.72 13 15 C13.66 15 14.32 15 15 15 C15 15.66 15 16.32 15 17 C15.66 17 16.32 17 17 17 C17 18.98 17 20.96 17 23 C16.34 23 15.68 23 15 23 C15 24.32 15 25.64 15 27 C17.64 27 20.28 27 23 27 C23 27.66 23 28.32 23 29 C23.66 29 24.32 29 25 29 C25 32.3 25 35.6 25 39 C24.34 39 23.68 39 23 39 C23 40.98 23 42.96 23 45 C22.34 45 21.68 45 21 45 C21 46.32 21 47.64 21 49 C20.34 49 19.68 49 19 49 C19 50.32 19 51.64 19 53 C18.34 53 17.68 53 17 53 C17 53.66 17 54.32 17 55 C16.34 55 15.68 55 15 55 C15 54.34 15 53.68 15 53 C14.34 53 13.68 53 13 53 C13 52.34 13 51.68 13 51 C12.34 51 11.68 51 11 51 C11 49.68 11 48.36 11 47 C10.34 47 9.68 47 9 47 C9 45.02 9 43.04 9 41 C9.66 41 10.32 41 11 41 C11 41.66 11 42.32 11 43 C11.66 43 12.32 43 13 43 C13 43.66 13 44.32 13 45 C14.32 45 15.64 45 17 45 C17 44.34 17 43.68 17 43 C17.66 43 18.32 43 19 43 C19 39.7 19 36.4 19 33 C18.34 33 17.68 33 17 33 C17 32.34 17 31.68 17 31 C15.02 31 13.04 31 11 31 C11 32.32 11 33.64 11 35 C10.34 35 9.68 35 9 35 C9 35.66 9 36.32 9 37 C8.34 37 7.68 37 7 37 C7 38.32 7 39.64 7 41 C6.34 41 5.68 41 5 41 C5 41.66 5 42.32 5 43 C4.34 43 3.68 43 3 43 C3 43.66 3 44.32 3 45 C2.34 45 1.68 45 1 45 C1 45.66 1 46.32 1 47 C0.34 47 -0.32 47 -1 47 C-1 47.66 -1 48.32 -1 49 C-1.66 49 -2.32 49 -3 49 C-3 49.66 -3 50.32 -3 51 C-3.66 51 -4.32 51 -5 51 C-5 51.66 -5 52.32 -5 53 C-5.66 53 -6.32 53 -7 53 C-7 53.66 -7 54.32 -7 55 C-7.66 55 -8.32 55 -9 55 C-9 53.68 -9 52.36 -9 51 C-8.34 51 -7.68 51 -7 51 C-7 50.34 -7 49.68 -7 49 C-6.34 49 -5.68 49 -5 49 C-5 47.68 -5 46.36 -5 45 C-4.34 45 -3.68 45 -3 45 C-3 44.34 -3 43.68 -3 43 C-2.34 43 -1.68 43 -1 43 C-1 42.34 -1 41.68 -1 41 C-0.34 41 0.32 41 1 41 C1 40.34 1 39.68 1 39 C1.66 39 2.32 39 3 39 C3 37.68 3 36.36 3 35 C1.02 35 -0.96 35 -3 35 C-3 33.02 -3 31.04 -3 29 C-2.34 29 -1.68 29 -1 29 C-1 28.34 -1 27.68 -1 27 C-0.34 27 0.32 27 1 27 C1 25.02 1 23.04 1 21 C1.66 21 2.32 21 3 21 C3 20.34 3 19.68 3 19 C3.66 19 4.32 19 5 19 C5 17.02 5 15.04 5 13 C5.66 13 6.32 13 7 13 C7 11.68 7 10.36 7 9 C5.68 9 4.36 9 3 9 C3 10.98 3 12.96 3 15 C1.68 15 0.36 15 -1 15 C-1 13.68 -1 12.36 -1 11 C-1.66 11 -2.32 11 -3 11 C-3 11.66 -3 12.32 -3 13 C-4.32 13 -5.64 13 -7 13 C-7 12.34 -7 11.68 -7 11 C-6.34 11 -5.68 11 -5 11 C-5 10.34 -5 9.68 -5 9 C-4.34 9 -3.68 9 -3 9 C-3 8.34 -3 7.68 -3 7 C-2.01 7 -1.02 7 0 7 C0 4.69 0 2.38 0 0 Z " fill="#305521" transform="translate(45,91)"/>
<path d="M0 0 C2.16874252 0.50603992 3.99967627 0.99983813 6 2 C6 1.34 6 0.68 6 0 C7.98 0 9.96 0 12 0 C12 0.66 12 1.32 12 2 C12.66 2 13.32 2 14 2 C14 4.64 14 7.28 14 10 C13.34 10 12.68 10 12 10 C12 10.66 12 11.32 12 12 C11.34 12 10.68 12 10 12 C10 12.66 10 13.32 10 14 C9.195625 14.20625 8.39125 14.4125 7.5625 14.625 C6.716875 15.07875 5.87125 15.5325 5 16 C4.10169161 19.05272465 4.10169161 19.05272465 4 22 C5.32 22 6.64 22 8 22 C8 23.32 8 24.64 8 26 C8.66 26 9.32 26 10 26 C10 26.66 10 27.32 10 28 C10.66 28 11.32 28 12 28 C12 29.32 12 30.64 12 32 C12.66 32 13.32 32 14 32 C14 33.98 14 35.96 14 38 C13.34 38 12.68 38 12 38 C12 38.66 12 39.32 12 40 C11.34 40 10.68 40 10 40 C10 40.66 10 41.32 10 42 C8.02 42 6.04 42 4 42 C4 41.34 4 40.68 4 40 C3.34 40 2.68 40 2 40 C2 39.34 2 38.68 2 38 C1.34 38 0.68 38 0 38 C0 37.34 0 36.68 0 36 C-1.32 36 -2.64 36 -4 36 C-4 35.34 -4 34.68 -4 34 C-5.32 34 -6.64 34 -8 34 C-8 33.34 -8 32.68 -8 32 C-7.34 32 -6.68 32 -6 32 C-6 30.02 -6 28.04 -6 26 C-5.34 26 -4.68 26 -4 26 C-4 24.68 -4 23.36 -4 22 C-3.34 22 -2.68 22 -2 22 C-2 21.34 -2 20.68 -2 20 C-1.34 20 -0.68 20 0 20 C0 19.34 0 18.68 0 18 C0.66 18 1.32 18 2 18 C2 16.68 2 15.36 2 14 C1.34 14 0.68 14 0 14 C0 12.68 0 11.36 0 10 C-0.66 10 -1.32 10 -2 10 C-2 7.36 -2 4.72 -2 2 C-1.34 2 -0.68 2 0 2 C0 1.34 0 0.68 0 0 Z " fill="#292928" transform="translate(128,76)"/>
<path d="M0 0 C1.03688965 0.01047363 2.0737793 0.02094727 3.14208984 0.03173828 C4.26357422 0.03818359 5.38505859 0.04462891 6.54052734 0.05126953 C7.71615234 0.06802734 8.89177734 0.08478516 10.10302734 0.10205078 C11.87806641 0.11558594 11.87806641 0.11558594 13.68896484 0.12939453 C16.61885257 0.15302266 19.54834075 0.18596564 22.47802734 0.22705078 C22.14802734 1.54705078 21.81802734 2.86705078 21.47802734 4.22705078 C22.13802734 4.22705078 22.79802734 4.22705078 23.47802734 4.22705078 C23.47802734 4.88705078 23.47802734 5.54705078 23.47802734 6.22705078 C24.13802734 6.22705078 24.79802734 6.22705078 25.47802734 6.22705078 C25.47802734 8.20705078 25.47802734 10.18705078 25.47802734 12.22705078 C24.81802734 12.22705078 24.15802734 12.22705078 23.47802734 12.22705078 C23.47802734 12.88705078 23.47802734 13.54705078 23.47802734 14.22705078 C20.83802734 14.22705078 18.19802734 14.22705078 15.47802734 14.22705078 C15.47802734 16.86705078 15.47802734 19.50705078 15.47802734 22.22705078 C14.15802734 22.22705078 12.83802734 22.22705078 11.47802734 22.22705078 C11.14802734 19.91705078 10.81802734 17.60705078 10.47802734 15.22705078 C10.14802734 16.21705078 9.81802734 17.20705078 9.47802734 18.22705078 C8.81802734 18.22705078 8.15802734 18.22705078 7.47802734 18.22705078 C7.47802734 18.88705078 7.47802734 19.54705078 7.47802734 20.22705078 C6.81802734 20.22705078 6.15802734 20.22705078 5.47802734 20.22705078 C5.47802734 20.88705078 5.47802734 21.54705078 5.47802734 22.22705078 C3.49802734 22.22705078 1.51802734 22.22705078 -0.52197266 22.22705078 C-0.52197266 21.56705078 -0.52197266 20.90705078 -0.52197266 20.22705078 C-1.18197266 20.22705078 -1.84197266 20.22705078 -2.52197266 20.22705078 C-2.52197266 18.90705078 -2.52197266 17.58705078 -2.52197266 16.22705078 C-3.18197266 16.22705078 -3.84197266 16.22705078 -4.52197266 16.22705078 C-4.57581787 13.93563792 -4.61469353 11.6438689 -4.64697266 9.35205078 C-4.67017578 8.07587891 -4.69337891 6.79970703 -4.71728516 5.48486328 C-4.48159166 1.55349579 -4.02798672 0.36263578 0 0 Z " fill="#EBEBE9" transform="translate(154.52197265625,131.77294921875)"/>
<path d="M0 0 C29.7 0 59.4 0 90 0 C90 1.32 90 2.64 90 4 C60.3 4 30.6 4 0 4 C0 2.68 0 1.36 0 0 Z " fill="#6D6B69" transform="translate(94,128)"/>
<path d="M0 0 C0.66 0 1.32 0 2 0 C2 1.32 2 2.64 2 4 C1.01 4 0.02 4 -1 4 C-1 4.99 -1 5.98 -1 7 C1.31 7 3.62 7 6 7 C7.36623674 9.73247348 7.128426 11.98198902 7 15 C6.67 15.33 6.34 15.66 6 16 C5.92686433 18.53049402 5.90752473 21.03304837 5.9375 23.5625 C5.94201172 24.27341797 5.94652344 24.98433594 5.95117188 25.71679688 C5.96299136 27.47790013 5.98092737 29.23896036 6 31 C7.32 31.33 8.64 31.66 10 32 C10.66 29.36 11.32 26.72 12 24 C14.4375 24.375 14.4375 24.375 17 25 C18.5171199 28.03423981 18.18439257 31.17504794 18.1875 34.5 C18.19974609 35.18964844 18.21199219 35.87929687 18.22460938 36.58984375 C18.22988695 38.39477494 18.12184458 40.19917842 18 42 C16 44 16 44 14.0546875 44.1953125 C12.03645833 44.13020833 10.01822917 44.06510417 8 44 C8.33 44.99 8.66 45.98 9 47 C8.72428861 49.00875442 8.39764263 51.01178687 8 53 C8.66 53 9.32 53 10 53 C10 53.66 10 54.32 10 55 C10.66 55.33 11.32 55.66 12 56 C9.36 56 6.72 56 4 56 C4 54.68 4 53.36 4 52 C4.66 52 5.32 52 6 52 C6 50.02 6 48.04 6 46 C5.34 46 4.68 46 4 46 C4 45.34 4 44.68 4 44 C3.34 44 2.68 44 2 44 C1.7834375 45.423125 1.7834375 45.423125 1.5625 46.875 C1 50 1 50 0 52 C-0.66 52 -1.32 52 -2 52 C-2 53.32 -2 54.64 -2 56 C-2.66 56 -3.32 56 -4 56 C-4 56.66 -4 57.32 -4 58 C-4.66 58 -5.32 58 -6 58 C-6 56.02 -6 54.04 -6 52 C-5.34 52 -4.68 52 -4 52 C-4 50.02 -4 48.04 -4 46 C-3.34 46 -2.68 46 -2 46 C-2 44.02 -2 42.04 -2 40 C-1.34 40 -0.68 40 0 40 C0 38.02 0 36.04 0 34 C0.66 34 1.32 34 2 34 C2 35.32 2 36.64 2 38 C2.66 38 3.32 38 4 38 C4 38.66 4 39.32 4 40 C4.66 40 5.32 40 6 40 C6 40.66 6 41.32 6 42 C8.64 42 11.28 42 14 42 C14 41.34 14 40.68 14 40 C14.66 40 15.32 40 16 40 C16 35.38 16 30.76 16 26 C15.34 26 14.68 26 14 26 C14 27.98 14 29.96 14 32 C13.34 32 12.68 32 12 32 C12 32.66 12 33.32 12 34 C11.34 34 10.68 34 10 34 C10 34.66 10 35.32 10 36 C8.68 36 7.36 36 6 36 C6 35.34 6 34.68 6 34 C5.34 34 4.68 34 4 34 C4 33.34 4 32.68 4 32 C3.34 32 2.68 32 2 32 C1.7638041 25.59646678 2.176679 20.15370839 4 14 C4.66 14 5.32 14 6 14 C6 12.68 6 11.36 6 10 C5.34 10 4.68 10 4 10 C4 9.34 4 8.68 4 8 C2.68 8 1.36 8 0 8 C0 8.66 0 9.32 0 10 C-1.32 10 -2.64 10 -4 10 C-4 10.66 -4 11.32 -4 12 C-4.66 12 -5.32 12 -6 12 C-6 10.68 -6 9.36 -6 8 C-4.68 8 -3.36 8 -2 8 C-2 6.02 -2 4.04 -2 2 C-1.34 2 -0.68 2 0 2 C0 1.34 0 0.68 0 0 Z " fill="#EA811E" transform="translate(56,62)"/>
<path d="M0 0 C2.25 4.5 2.25 4.5 2.22705078 8.12597656 C2.22689972 8.92650452 2.22674866 9.72703247 2.22659302 10.55181885 C2.21627045 11.40612488 2.20594788 12.26043091 2.1953125 13.140625 C2.1924826 14.02280701 2.18965271 14.90498901 2.18673706 15.81390381 C2.17555961 18.62607499 2.15045951 21.4379254 2.125 24.25 C2.11496705 26.15884956 2.10584175 28.06770412 2.09765625 29.9765625 C2.07562824 34.65116489 2.04111511 39.32552809 2 44 C1.34 44 0.68 44 0 44 C-0.33 45.32 -0.66 46.64 -1 48 C-2 47 -2 47 -2.0625 44.4375 C-2.041875 43.633125 -2.02125 42.82875 -2 42 C-3.98 42 -5.96 42 -8 42 C-8 41.34 -8 40.68 -8 40 C-8.66 40 -9.32 40 -10 40 C-10 39.01 -10 38.02 -10 37 C-10.66 37 -11.32 37 -12 37 C-12 36.34 -12 35.68 -12 35 C-12.66 35 -13.32 35 -14 35 C-14 32.03 -14 29.06 -14 26 C-11.36 26 -8.72 26 -6 26 C-5.67 25.01 -5.34 24.02 -5 23 C-3.35 22.67 -1.7 22.34 0 22 C0 14.74 0 7.48 0 0 Z " fill="#E67818" transform="translate(78,80)"/>
<path d="M0 0 C1.32 0 2.64 0 4 0 C4 6.6 4 13.2 4 20 C1.03 20 -1.94 20 -5 20 C-5 18.35 -5 16.7 -5 15 C-5.66 15 -6.32 15 -7 15 C-7 17.31 -7 19.62 -7 22 C-7.33 20.68 -7.66 19.36 -8 18 C-9.32 18 -10.64 18 -12 18 C-12 19.32 -12 20.64 -12 22 C-13.32 22 -14.64 22 -16 22 C-16 21.34 -16 20.68 -16 20 C-16.66 20 -17.32 20 -18 20 C-18 19.34 -18 18.68 -18 18 C-16.68 18 -15.36 18 -14 18 C-14 17.34 -14 16.68 -14 16 C-13.34 16 -12.68 16 -12 16 C-12 15.34 -12 14.68 -12 14 C-11.34 14 -10.68 14 -10 14 C-10 13.34 -10 12.68 -10 12 C-11.98 12 -13.96 12 -16 12 C-16 10.68 -16 9.36 -16 8 C-15.195625 7.71125 -14.39125 7.4225 -13.5625 7.125 C-10.8673532 6.26737432 -10.8673532 6.26737432 -10 4 C-7.36 4 -4.72 4 -2 4 C-2 3.34 -2 2.68 -2 2 C-1.34 2 -0.68 2 0 2 C0 1.34 0 0.68 0 0 Z " fill="#1D5526" transform="translate(52,76)"/>
<path d="M0 0 C3.3 0 6.6 0 10 0 C10 0.66 10 1.32 10 2 C10.66 2 11.32 2 12 2 C12 5.96 12 9.92 12 14 C11.34 14 10.68 14 10 14 C10 14.66 10 15.32 10 16 C9.34 16 8.68 16 8 16 C8 16.66 8 17.32 8 18 C6.02 18 4.04 18 2 18 C2 17.34 2 16.68 2 16 C1.34 16 0.68 16 0 16 C0 15.34 0 14.68 0 14 C-0.66 14 -1.32 14 -2 14 C-2 10.04 -2 6.08 -2 2 C-1.34 2 -0.68 2 0 2 C0 1.34 0 0.68 0 0 Z " fill="#40403F" transform="translate(136,136)"/>
<path d="M0 0 C1.32 0 2.64 0 4 0 C4 1.32 4 2.64 4 4 C4.66 4 5.32 4 6 4 C6 4.66 6 5.32 6 6 C6.66 6 7.32 6 8 6 C8 7.32 8 8.64 8 10 C8.66 10 9.32 10 10 10 C10 11.98 10 13.96 10 16 C9.34 16 8.68 16 8 16 C8 16.66 8 17.32 8 18 C7.34 18 6.68 18 6 18 C6 18.66 6 19.32 6 20 C4.02 20 2.04 20 0 20 C0 19.34 0 18.68 0 18 C-0.66 18 -1.32 18 -2 18 C-2 17.34 -2 16.68 -2 16 C-2.66 16 -3.32 16 -4 16 C-4 12.04 -4 8.08 -4 4 C-3.34 4 -2.68 4 -2 4 C-2 3.34 -2 2.68 -2 2 C-1.34 2 -0.68 2 0 2 C0 1.34 0 0.68 0 0 Z " fill="#F3F3F3" transform="translate(132,98)"/>
<path d="M0 0 C0.66 0 1.32 0 2 0 C2 1.32 2 2.64 2 4 C1.01 4 0.02 4 -1 4 C-1 4.99 -1 5.98 -1 7 C1.31 7 3.62 7 6 7 C7.36623674 9.73247348 7.128426 11.98198902 7 15 C6.67 15.33 6.34 15.66 6 16 C5.92686433 18.53049402 5.90752473 21.03304837 5.9375 23.5625 C5.94201172 24.27341797 5.94652344 24.98433594 5.95117188 25.71679688 C5.96299136 27.47790013 5.98092737 29.23896036 6 31 C7.32 31.33 8.64 31.66 10 32 C10.66 29.36 11.32 26.72 12 24 C14.4375 24.375 14.4375 24.375 17 25 C18.32229189 27.64458379 18.09677194 29.67761301 18.0625 32.625 C18.05347656 33.62789062 18.04445313 34.63078125 18.03515625 35.6640625 C18.02355469 36.43492188 18.01195313 37.20578125 18 38 C17.34 38 16.68 38 16 38 C16 34.04 16 30.08 16 26 C15.34 26 14.68 26 14 26 C14 27.98 14 29.96 14 32 C13.34 32 12.68 32 12 32 C12 32.66 12 33.32 12 34 C11.34 34 10.68 34 10 34 C10 34.66 10 35.32 10 36 C8.68 36 7.36 36 6 36 C6 35.34 6 34.68 6 34 C5.34 34 4.68 34 4 34 C4 33.34 4 32.68 4 32 C3.34 32 2.68 32 2 32 C1.7638041 25.59646678 2.176679 20.15370839 4 14 C4.66 14 5.32 14 6 14 C6 12.68 6 11.36 6 10 C5.34 10 4.68 10 4 10 C4 9.34 4 8.68 4 8 C2.68 8 1.36 8 0 8 C0 8.66 0 9.32 0 10 C-1.32 10 -2.64 10 -4 10 C-4 10.66 -4 11.32 -4 12 C-4.66 12 -5.32 12 -6 12 C-6 10.68 -6 9.36 -6 8 C-4.68 8 -3.36 8 -2 8 C-2 6.02 -2 4.04 -2 2 C-1.34 2 -0.68 2 0 2 C0 1.34 0 0.68 0 0 Z " fill="#C68028" transform="translate(56,62)"/>
<path d="M0 0 C3.96 0 7.92 0 12 0 C12 0.66 12 1.32 12 2 C12.66 2 13.32 2 14 2 C14 2.66 14 3.32 14 4 C14.66 4 15.32 4 16 4 C16 7.3 16 10.6 16 14 C15.34 14 14.68 14 14 14 C14 15.32 14 16.64 14 18 C13.34 18 12.68 18 12 18 C12 18.66 12 19.32 12 20 C10.68 20 9.36 20 8 20 C8 21.98 8 23.96 8 26 C6.02 25.34 4.04 24.68 2 24 C2 22.02 2 20.04 2 18 C2.33 18.66 2.66 19.32 3 20 C4.65 19.34 6.3 18.68 8 18 C8 17.34 8 16.68 8 16 C8.66 16 9.32 16 10 16 C10 15.34 10 14.68 10 14 C10.66 14 11.32 14 12 14 C12 11.36 12 8.72 12 6 C11.34 6 10.68 6 10 6 C10 5.34 10 4.68 10 4 C8.02 4 6.04 4 4 4 C4 4.66 4 5.32 4 6 C2.68 5.34 1.36 4.68 0 4 C0 2.68 0 1.36 0 0 Z " fill="#131312" transform="translate(130,72)"/>
<path d="M0 0 C1.98 0 3.96 0 6 0 C6 0.66 6 1.32 6 2 C6.66 2 7.32 2 8 2 C8 5.3 8 8.6 8 12 C7.34 12 6.68 12 6 12 C6 12.66 6 13.32 6 14 C4.68 14 3.36 14 2 14 C2 13.34 2 12.68 2 12 C1.34 12 0.68 12 0 12 C0 11.34 0 10.68 0 10 C-0.66 10 -1.32 10 -2 10 C-2 11.98 -2 13.96 -2 16 C-1.34 16 -0.68 16 0 16 C-0.33 17.32 -0.66 18.64 -1 20 C-1.99 19.34 -2.98 18.68 -4 18 C-4 16.68 -4 15.36 -4 14 C-4.99 14 -5.98 14 -7 14 C-7 14.66 -7 15.32 -7 16 C-7.99 16 -8.98 16 -10 16 C-10 15.34 -10 14.68 -10 14 C-9.34 14 -8.68 14 -8 14 C-8 13.34 -8 12.68 -8 12 C-7.34 12 -6.68 12 -6 12 C-6 11.34 -6 10.68 -6 10 C-5.34 10 -4.68 10 -4 10 C-4 8.68 -4 7.36 -4 6 C-3.34 6 -2.68 6 -2 6 C-2 5.34 -2 4.68 -2 4 C-1.34 4 -0.68 4 0 4 C0 2.68 0 1.36 0 0 Z " fill="#CE822A" transform="translate(56,122)"/>
<path d="M0 0 C3.3 0 6.6 0 10 0 C10 0.66 10 1.32 10 2 C10.66 2 11.32 2 12 2 C12 3.98 12 5.96 12 8 C11.34 8 10.68 8 10 8 C10 9.32 10 10.64 10 12 C10.66 12 11.32 12 12 12 C12 13.32 12 14.64 12 16 C12.66 16 13.32 16 14 16 C14 16.66 14 17.32 14 18 C12.68 18 11.36 18 10 18 C10 16.68 10 15.36 10 14 C9.34 14 8.68 14 8 14 C8 13.34 8 12.68 8 12 C7.34 12 6.68 12 6 12 C6 11.34 6 10.68 6 10 C4.68 10 3.36 10 2 10 C2 12.64 2 15.28 2 18 C1.34 18 0.68 18 0 18 C0 12.06 0 6.12 0 0 Z " fill="#2E2E2E" transform="translate(118,136)"/>
<path d="M0 0 C3.3 0 6.6 0 10 0 C10 0.66 10 1.32 10 2 C10.66 2 11.32 2 12 2 C12 3.98 12 5.96 12 8 C11.34 8 10.68 8 10 8 C10 8.66 10 9.32 10 10 C7.36 10 4.72 10 2 10 C2 12.64 2 15.28 2 18 C1.34 18 0.68 18 0 18 C0 12.06 0 6.12 0 0 Z " fill="#444444" transform="translate(168,136)"/>
<path d="M0 0 C0.66 0 1.32 0 2 0 C2 8.58 2 17.16 2 26 C0.68 26 -0.64 26 -2 26 C-2 24.68 -2 23.36 -2 22 C-2.66 22 -3.32 22 -4 22 C-4 21.34 -4 20.68 -4 20 C-4.66 20 -5.32 20 -6 20 C-6 18.02 -6 16.04 -6 14 C-5.34 14 -4.68 14 -4 14 C-4 13.34 -4 12.68 -4 12 C-3.34 12 -2.68 12 -2 12 C-2 10.68 -2 9.36 -2 8 C-1.34 8 -0.68 8 0 8 C0 5.36 0 2.72 0 0 Z " fill="#EFEDEC" transform="translate(146,78)"/>
<path d="M0 0 C3.63 0 7.26 0 11 0 C11 0.66 11 1.32 11 2 C12.65 2 14.3 2 16 2 C16 2.66 16 3.32 16 4 C13.36 4 10.72 4 8 4 C8 4.66 8 5.32 8 6 C7.34 6 6.68 6 6 6 C6 9.3 6 12.6 6 16 C4.02 16 2.04 16 0 16 C0 14.68 0 13.36 0 12 C0.66 12 1.32 12 2 12 C2 10.02 2 8.04 2 6 C1.34 6 0.68 6 0 6 C0 4.02 0 2.04 0 0 Z " fill="#ECEBEA" transform="translate(128,132)"/>
<path d="M0 0 C0.66 0 1.32 0 2 0 C2 4.62 2 9.24 2 14 C3.98 14 5.96 14 8 14 C8 9.38 8 4.76 8 0 C9.32 0 10.64 0 12 0 C12 4.62 12 9.24 12 14 C11.34 14 10.68 14 10 14 C10 14.66 10 15.32 10 16 C9.34 16 8.68 16 8 16 C8 16.66 8 17.32 8 18 C6.02 18 4.04 18 2 18 C2 17.34 2 16.68 2 16 C1.34 16 0.68 16 0 16 C0 10.72 0 5.44 0 0 Z " fill="#696966" transform="translate(152,136)"/>
<path d="M0 0 C0.66 0 1.32 0 2 0 C2 4.62 2 9.24 2 14 C1.34 14 0.68 14 0 14 C0 14.66 0 15.32 0 16 C-2.64 16 -5.28 16 -8 16 C-8 15.34 -8 14.68 -8 14 C-8.66 14 -9.32 14 -10 14 C-10 13.34 -10 12.68 -10 12 C-10.66 12 -11.32 12 -12 12 C-12 10.68 -12 9.36 -12 8 C-12.66 8 -13.32 8 -14 8 C-14 7.34 -14 6.68 -14 6 C-12.68 6 -11.36 6 -10 6 C-10 6.66 -10 7.32 -10 8 C-9.34 8 -8.68 8 -8 8 C-8 8.66 -8 9.32 -8 10 C-6.68 10 -5.36 10 -4 10 C-4 9.34 -4 8.68 -4 8 C-3.34 8 -2.68 8 -2 8 C-2 7.34 -2 6.68 -2 6 C-1.34 6 -0.68 6 0 6 C0 4.02 0 2.04 0 0 Z " fill="#465920" transform="translate(70,88)"/>
<path d="M0 0 C1.32 0 2.64 0 4 0 C4 6.6 4 13.2 4 20 C1.36 20 -1.28 20 -4 20 C-4 18.68 -4 17.36 -4 16 C-3.34 16 -2.68 16 -2 16 C-2 15.34 -2 14.68 -2 14 C-0.68 14 0.64 14 2 14 C2 13.34 2 12.68 2 12 C0.68 12 -0.64 12 -2 12 C-2 10.68 -2 9.36 -2 8 C-1.34 8 -0.68 8 0 8 C0 7.34 0 6.68 0 6 C-1.32 6 -2.64 6 -4 6 C-4 5.34 -4 4.68 -4 4 C-3.34 4 -2.68 4 -2 4 C-2 3.34 -2 2.68 -2 2 C-1.34 2 -0.68 2 0 2 C0 1.34 0 0.68 0 0 Z " fill="#7B702B" transform="translate(52,76)"/>
<path d="M0 0 C0.66 0 1.32 0 2 0 C2.33 0.99 2.66 1.98 3 3 C1.35 3.33 -0.3 3.66 -2 4 C-2 5.32 -2 6.64 -2 8 C-0.02 8 1.96 8 4 8 C4 8.66 4 9.32 4 10 C3.34 10 2.68 10 2 10 C2 10.66 2 11.32 2 12 C1.34 12 0.68 12 0 12 C0 12.66 0 13.32 0 14 C-1.32 14 -2.64 14 -4 14 C-4 14.66 -4 15.32 -4 16 C-3.34 16 -2.68 16 -2 16 C-2 16.66 -2 17.32 -2 18 C-0.68 18 0.64 18 2 18 C2 16.68 2 15.36 2 14 C3.32 14 4.64 14 6 14 C6 15.32 6 16.64 6 18 C5.34 18 4.68 18 4 18 C4 18.66 4 19.32 4 20 C3.34 20 2.68 20 2 20 C2 20.66 2 21.32 2 22 C1.34 22 0.68 22 0 22 C0 22.66 0 23.32 0 24 C1.32 24 2.64 24 4 24 C4 23.34 4 22.68 4 22 C4.66 22 5.32 22 6 22 C5.67 23.32 5.34 24.64 5 26 C3.02 25.67 1.04 25.34 -1 25 C-1 23.35 -1 21.7 -1 20 C-1.66 20 -2.32 20 -3 20 C-3 19.34 -3 18.68 -3 18 C-3.66 18 -4.32 18 -5 18 C-4.67 13.38 -4.34 8.76 -4 4 C-2.68 3.67 -1.36 3.34 0 3 C0 2.01 0 1.02 0 0 Z " fill="#BB812D" transform="translate(38,80)"/>
<path d="M0 0 C1.98 0 3.96 0 6 0 C6 0.66 6 1.32 6 2 C6.66 2 7.32 2 8 2 C8 4.64 8 7.28 8 10 C7.34 10 6.68 10 6 10 C6 10.66 6 11.32 6 12 C5.34 12 4.68 12 4 12 C4 12.66 4 13.32 4 14 C3.34 14 2.68 14 2 14 C2 13.34 2 12.68 2 12 C1.34 12 0.68 12 0 12 C0 11.34 0 10.68 0 10 C-0.66 10 -1.32 10 -2 10 C-2 7.36 -2 4.72 -2 2 C-1.34 2 -0.68 2 0 2 C0 1.34 0 0.68 0 0 Z " fill="#ECECEB" transform="translate(138,138)"/>
<path d="M0 0 C1.98 0 3.96 0 6 0 C6 0.66 6 1.32 6 2 C6.66 2 7.32 2 8 2 C8 4.64 8 7.28 8 10 C7.34 10 6.68 10 6 10 C6 10.66 6 11.32 6 12 C5.34 12 4.68 12 4 12 C4 12.66 4 13.32 4 14 C3.34 14 2.68 14 2 14 C2 13.34 2 12.68 2 12 C1.34 12 0.68 12 0 12 C0 11.34 0 10.68 0 10 C-0.66 10 -1.32 10 -2 10 C-2 7.36 -2 4.72 -2 2 C-1.34 2 -0.68 2 0 2 C0 1.34 0 0.68 0 0 Z " fill="#DFDFDF" transform="translate(134,76)"/>
<path d="M0 0 C1.32 0 2.64 0 4 0 C4 0.66 4 1.32 4 2 C3.34 2 2.68 2 2 2 C2 2.66 2 3.32 2 4 C1.34 4 0.68 4 0 4 C0 5.32 0 6.64 0 8 C-0.66 8 -1.32 8 -2 8 C-2 8.66 -2 9.32 -2 10 C-2.66 10 -3.32 10 -4 10 C-4 10.66 -4 11.32 -4 12 C-4.66 12 -5.32 12 -6 12 C-6 12.66 -6 13.32 -6 14 C-6.66 14 -7.32 14 -8 14 C-8 14.66 -8 15.32 -8 16 C-8.66 16 -9.32 16 -10 16 C-10 16.66 -10 17.32 -10 18 C-10.66 18 -11.32 18 -12 18 C-12 18.66 -12 19.32 -12 20 C-12.66 20 -13.32 20 -14 20 C-14 20.66 -14 21.32 -14 22 C-14.66 22 -15.32 22 -16 22 C-16 20.68 -16 19.36 -16 18 C-15.34 18 -14.68 18 -14 18 C-14 17.34 -14 16.68 -14 16 C-13.34 16 -12.68 16 -12 16 C-12 14.68 -12 13.36 -12 12 C-11.34 12 -10.68 12 -10 12 C-10 11.34 -10 10.68 -10 10 C-9.34 10 -8.68 10 -8 10 C-8 9.34 -8 8.68 -8 8 C-7.34 8 -6.68 8 -6 8 C-6 7.34 -6 6.68 -6 6 C-5.34 6 -4.68 6 -4 6 C-3.67 4.68 -3.34 3.36 -3 2 C-2.01 2.33 -1.02 2.66 0 3 C0 2.01 0 1.02 0 0 Z " fill="#3B521E" transform="translate(52,124)"/>
<path d="M0 0 C0.66 0 1.32 0 2 0 C2 3.96 2 7.92 2 12 C2.66 12 3.32 12 4 12 C4 12.66 4 13.32 4 14 C5.32 14 6.64 14 8 14 C8 13.34 8 12.68 8 12 C8.66 12 9.32 12 10 12 C10 10.68 10 9.36 10 8 C8.68 8 7.36 8 6 8 C6 7.34 6 6.68 6 6 C7.98 6 9.96 6 12 6 C12 8.64 12 11.28 12 14 C11.34 14 10.68 14 10 14 C10 14.66 10 15.32 10 16 C7.36 16 4.72 16 2 16 C2 15.34 2 14.68 2 14 C1.34 14 0.68 14 0 14 C0 12.68 0 11.36 0 10 C-0.66 10 -1.32 10 -2 10 C-2 7.36 -2 4.72 -2 2 C-1.34 2 -0.68 2 0 2 C0 1.34 0 0.68 0 0 Z " fill="#383837" transform="translate(102,138)"/>
<path d="M0 0 C0.66 0 1.32 0 2 0 C2 0.66 2 1.32 2 2 C2.66 2 3.32 2 4 2 C4 2.66 4 3.32 4 4 C5.32 4 6.64 4 8 4 C8 3.34 8 2.68 8 2 C8.66 2 9.32 2 10 2 C10 2.66 10 3.32 10 4 C10.66 4 11.32 4 12 4 C12 5.32 12 6.64 12 8 C11.34 8 10.68 8 10 8 C10 9.32 10 10.64 10 12 C9.34 12 8.68 12 8 12 C8 12.66 8 13.32 8 14 C7.34 14 6.68 14 6 14 C6 13.34 6 12.68 6 12 C5.34 12 4.68 12 4 12 C4 11.34 4 10.68 4 10 C3.34 10 2.68 10 2 10 C2 8.68 2 7.36 2 6 C1.34 6 0.68 6 0 6 C0 4.02 0 2.04 0 0 Z " fill="#44561D" transform="translate(54,132)"/>
<path d="M0 0 C5.94 0 11.88 0 18 0 C18 0.66 18 1.32 18 2 C17.34 2 16.68 2 16 2 C16 2.66 16 3.32 16 4 C15.34 4 14.68 4 14 4 C14 5.98 14 7.96 14 10 C13.01 9.67 12.02 9.34 11 9 C11.66 7.02 12.32 5.04 13 3 C10.69 3 8.38 3 6 3 C6 2.34 6 1.68 6 1 C4.35 1 2.7 1 1 1 C1.33 2.65 1.66 4.3 2 6 C2.66 6 3.32 6 4 6 C4 6.66 4 7.32 4 8 C3.34 8 2.68 8 2 8 C2 8.66 2 9.32 2 10 C1.34 10 0.68 10 0 10 C0 10.66 0 11.32 0 12 C-0.66 12 -1.32 12 -2 12 C-2 9.36 -2 6.72 -2 4 C-1.34 4 -0.68 4 0 4 C0 2.68 0 1.36 0 0 Z " fill="#575E1F" transform="translate(40,60)"/>
<path d="M0 0 C0.99 0 1.98 0 3 0 C3 1.65 3 3.3 3 5 C4.32 5.33 5.64 5.66 7 6 C5.02 6 3.04 6 1 6 C1 6.66 1 7.32 1 8 C-0.32 8 -1.64 8 -3 8 C-3 8.99 -3 9.98 -3 11 C-3.66 11 -4.32 11 -5 11 C-5.33 11.99 -5.66 12.98 -6 14 C-6.103125 13.38125 -6.20625 12.7625 -6.3125 12.125 C-6.87525373 9.63473516 -6.87525373 9.63473516 -10 8 C-9.67 6.35 -9.34 4.7 -9 3 C-6.03 3.33 -3.06 3.66 0 4 C0 2.68 0 1.36 0 0 Z " fill="#0A5D33" transform="translate(55,116)"/>
<path d="M0 0 C2.18904803 4.37809606 2.25911226 7.52626727 2.1953125 12.265625 C2.1924826 13.05902283 2.18965271 13.85242065 2.18673706 14.66986084 C2.17556779 17.19672917 2.15046944 19.72323932 2.125 22.25 C2.11496598 23.9661407 2.10584087 25.68228698 2.09765625 27.3984375 C2.07563914 31.59909574 2.04113187 35.7994872 2 40 C0 38 0 38 -0.1953125 34.5234375 C-0.18201493 33.14049032 -0.15816232 31.75761346 -0.125 30.375 C-0.11597656 29.66859375 -0.10695313 28.9621875 -0.09765625 28.234375 C-0.07407603 26.48943902 -0.03820461 24.74467705 0 23 C-1.32 23.33 -2.64 23.66 -4 24 C-4 23.34 -4 22.68 -4 22 C-2.68 22 -1.36 22 0 22 C0 14.74 0 7.48 0 0 Z " fill="#D86B0D" transform="translate(78,80)"/>
<path d="M0 0 C1.32 0 2.64 0 4 0 C4 1.32 4 2.64 4 4 C3.34 4 2.68 4 2 4 C2 5.98 2 7.96 2 10 C1.34 10 0.68 10 0 10 C0 10.66 0 11.32 0 12 C-0.66 12 -1.32 12 -2 12 C-2 13.98 -2 15.96 -2 18 C-2.66 18 -3.32 18 -4 18 C-4 18.66 -4 19.32 -4 20 C-4.66 20 -5.32 20 -6 20 C-6.125 14.25 -6.125 14.25 -5 12 C-4.64080679 10.00448218 -4.30503431 8.00451121 -4 6 C-2.68 6 -1.36 6 0 6 C0 4.02 0 2.04 0 0 Z " fill="#D08227" transform="translate(48,100)"/>
<path d="M0 0 C0.99 0 1.98 0 3 0 C5.05786281 37.25618292 5.05786281 37.25618292 0 44 C0 40.04 0 36.08 0 32 C0.66 32 1.32 32 2 32 C1.86117146 27.41642624 1.71273252 22.83321304 1.5625 18.25 C1.52318359 16.94804688 1.48386719 15.64609375 1.44335938 14.3046875 C1.40146484 13.05429688 1.35957031 11.80390625 1.31640625 10.515625 C1.27974854 9.36352539 1.24309082 8.21142578 1.20532227 7.02441406 C1.03547826 4.52259776 0.72031525 2.38908832 0 0 Z " fill="#FDF3DC" transform="translate(80,80)"/>
<path d="M0 0 C0.66 0 1.32 0 2 0 C2 0.66 2 1.32 2 2 C3.32 2 4.64 2 6 2 C6 2.66 6 3.32 6 4 C5.34 4 4.68 4 4 4 C3.855625 4.94875 3.71125 5.8975 3.5625 6.875 C3 10 3 10 2 12 C1.34 12 0.68 12 0 12 C0 13.32 0 14.64 0 16 C-0.66 16 -1.32 16 -2 16 C-2 16.66 -2 17.32 -2 18 C-2.66 18 -3.32 18 -4 18 C-4 16.02 -4 14.04 -4 12 C-3.34 12 -2.68 12 -2 12 C-2 10.02 -2 8.04 -2 6 C-1.34 6 -0.68 6 0 6 C0 4.02 0 2.04 0 0 Z " fill="#D08A30" transform="translate(54,102)"/>
<path d="M0 0 C2.4375 0.375 2.4375 0.375 5 1 C6.47193312 3.94386623 5.84936173 6.37390036 5.5625 9.625 C5.46066406 10.81351563 5.35882813 12.00203125 5.25390625 13.2265625 C5.17011719 14.14179688 5.08632812 15.05703125 5 16 C3.68 16 2.36 16 1 16 C1 12.7 1 9.4 1 6 C1.66 6 2.32 6 3 6 C3 5.01 3 4.02 3 3 C2.01 2.67 1.02 2.34 0 2 C0 1.34 0 0.68 0 0 Z " fill="#2B5626" transform="translate(63,120)"/>
<path d="M0 0 C0.66 0 1.32 0 2 0 C2 1.32 2 2.64 2 4 C1.34 4 0.68 4 0 4 C0 5.32 0 6.64 0 8 C-0.66 8 -1.32 8 -2 8 C-2 9.98 -2 11.96 -2 14 C-2.66 14 -3.32 14 -4 14 C-4 15.98 -4 17.96 -4 20 C-4.66 20 -5.32 20 -6 20 C-6 22.64 -6 25.28 -6 28 C-6.66 28 -7.32 28 -8 28 C-8 24.7 -8 21.4 -8 18 C-7.34 18 -6.68 18 -6 18 C-5.67 15.36 -5.34 12.72 -5 10 C-4.34 10 -3.68 10 -3 10 C-2.814375 8.081875 -2.814375 8.081875 -2.625 6.125 C-2.25 2.25 -2.25 2.25 0 0 Z " fill="#FCEFD5" transform="translate(24,56)"/>
<path d="M0 0 C1.65 0 3.3 0 5 0 C5 0.66 5 1.32 5 2 C7.31 2 9.62 2 12 2 C11.67 3.98 11.34 5.96 11 8 C9.68 8.33 8.36 8.66 7 9 C7 7.68 7 6.36 7 5 C4.69 5.33 2.38 5.66 0 6 C0 4.02 0 2.04 0 0 Z " fill="#115830" transform="translate(41,61)"/>
<path d="M0 0 C0.66 0 1.32 0 2 0 C2 2.64 2 5.28 2 8 C1.34 8 0.68 8 0 8 C0 9.32 0 10.64 0 12 C-0.66 12 -1.32 12 -2 12 C-2 13.32 -2 14.64 -2 16 C-2.66 16 -3.32 16 -4 16 C-4 16.66 -4 17.32 -4 18 C-4.66 18 -5.32 18 -6 18 C-6 18.66 -6 19.32 -6 20 C-6.66 20 -7.32 20 -8 20 C-8 18.35 -8 16.7 -8 15 C-6.68 14.67 -5.36 14.34 -4 14 C-4 12.68 -4 11.36 -4 10 C-3.34 10 -2.68 10 -2 10 C-2 8.35 -2 6.7 -2 5 C-1.34 5 -0.68 5 0 5 C0 3.35 0 1.7 0 0 Z " fill="#D57525" transform="translate(74,128)"/>
<path d="M0 0 C3.3 0 6.6 0 10 0 C10 0.66 10 1.32 10 2 C7.36 2 4.72 2 2 2 C2 3.32 2 4.64 2 6 C2.66 6 3.32 6 4 6 C4 6.66 4 7.32 4 8 C3.34 8 2.68 8 2 8 C2 11.3 2 14.6 2 18 C1.34 18 0.68 18 0 18 C0 12.06 0 6.12 0 0 Z " fill="#4A4947" transform="translate(118,136)"/>
<path d="M0 0 C1.32 0 2.64 0 4 0 C4 1.32 4 2.64 4 4 C3.34 4 2.68 4 2 4 C2 4.66 2 5.32 2 6 C1.34 6 0.68 6 0 6 C0 6.66 0 7.32 0 8 C-0.66 8 -1.32 8 -2 8 C-2 8.66 -2 9.32 -2 10 C-2.66 10 -3.32 10 -4 10 C-4 11.32 -4 12.64 -4 14 C-4.66 14 -5.32 14 -6 14 C-6 14.66 -6 15.32 -6 16 C-6.66 16 -7.32 16 -8 16 C-8.33663062 12.29706315 -8.47736015 10.60465619 -6.125 7.625 C-4 6 -4 6 -2 6 C-0.99983813 3.99967627 -0.50603992 2.16874252 0 0 Z " fill="#D3832A" transform="translate(44,126)"/>
<path d="M0 0 C0.66 0 1.32 0 2 0 C2 1.32 2 2.64 2 4 C1.01 4 0.02 4 -1 4 C-1 4.99 -1 5.98 -1 7 C1.31 7 3.62 7 6 7 C7.39935013 9.79870027 7.25265405 11.90498792 7 15 C5.5 16.875 5.5 16.875 4 18 C4 16.68 4 15.36 4 14 C4.66 14 5.32 14 6 14 C6 12.68 6 11.36 6 10 C5.34 10 4.68 10 4 10 C4 9.34 4 8.68 4 8 C2.68 8 1.36 8 0 8 C0 8.66 0 9.32 0 10 C-1.32 10 -2.64 10 -4 10 C-4 10.66 -4 11.32 -4 12 C-4.66 12 -5.32 12 -6 12 C-6 10.68 -6 9.36 -6 8 C-4.68 8 -3.36 8 -2 8 C-2 6.02 -2 4.04 -2 2 C-1.34 2 -0.68 2 0 2 C0 1.34 0 0.68 0 0 Z " fill="#B48230" transform="translate(56,62)"/>
<path d="M0 0 C1.98 0 3.96 0 6 0 C6 0.66 6 1.32 6 2 C6.66 2 7.32 2 8 2 C8 5.3 8 8.6 8 12 C7.34 12 6.68 12 6 12 C6 12.66 6 13.32 6 14 C4.68 14 3.36 14 2 14 C2 13.34 2 12.68 2 12 C2.99 12 3.98 12 5 12 C5 9.36 5 6.72 5 4 C3.35 4 1.7 4 0 4 C0 2.68 0 1.36 0 0 Z " fill="#C1852E" transform="translate(56,122)"/>
<path d="M0 0 C0.66 0 1.32 0 2 0 C2 1.32 2 2.64 2 4 C1.34 4 0.68 4 0 4 C0 4.66 0 5.32 0 6 C1.32 6 2.64 6 4 6 C4 7.32 4 8.64 4 10 C3.34 10 2.68 10 2 10 C2 10.66 2 11.32 2 12 C-0.64 12 -3.28 12 -6 12 C-6 11.67 -6 11.34 -6 11 C-4.02 11 -2.04 11 0 11 C0 10.01 0 9.02 0 8 C-1.32 7.67 -2.64 7.34 -4 7 C-3.67 6.67 -3.34 6.34 -3 6 C-3.33 5.34 -3.66 4.68 -4 4 C-3.34 4 -2.68 4 -2 4 C-2 3.34 -2 2.68 -2 2 C-1.34 2 -0.68 2 0 2 C0 1.34 0 0.68 0 0 Z " fill="#B87E2C" transform="translate(44,66)"/>
<path d="M0 0 C3.3 0 6.6 0 10 0 C10 0.66 10 1.32 10 2 C10.66 2 11.32 2 12 2 C12 5.3 12 8.6 12 12 C11.67 12 11.34 12 11 12 C10.34 9.03 9.68 6.06 9 3 C7.68 2.67 6.36 2.34 5 2 C5.495 2.433125 5.99 2.86625 6.5 3.3125 C8 5 8 5 8 8 C7.34 8 6.68 8 6 8 C6 7.34 6 6.68 6 6 C5.34 6 4.68 6 4 6 C4 5.01 4 4.02 4 3 C2.68 3 1.36 3 0 3 C0 2.01 0 1.02 0 0 Z " fill="#2A5622" transform="translate(58,118)"/>
<path d="M0 0 C0.66 0 1.32 0 2 0 C2.02696365 1.79158489 2.04637917 3.58328473 2.0625 5.375 C2.07410156 6.37273437 2.08570313 7.37046875 2.09765625 8.3984375 C2 11 2 11 1 13 C0.34 13 -0.32 13 -1 13 C-1 12.34 -1 11.68 -1 11 C-1.66 11 -2.32 11 -3 11 C-3 11.66 -3 12.32 -3 13 C-4.32 13 -5.64 13 -7 13 C-7 12.34 -7 11.68 -7 11 C-6.34 11 -5.68 11 -5 11 C-5 10.34 -5 9.68 -5 9 C-4.34 9 -3.68 9 -3 9 C-3 8.34 -3 7.68 -3 7 C-2.01 7 -1.02 7 0 7 C0 4.69 0 2.38 0 0 Z " fill="#105C31" transform="translate(45,91)"/>
<path d="M0 0 C0.66 0 1.32 0 2 0 C2 4.62 2 9.24 2 14 C2.66 14 3.32 14 4 14 C4 14.66 4 15.32 4 16 C5.32 16 6.64 16 8 16 C8 16.66 8 17.32 8 18 C6.02 18 4.04 18 2 18 C2 17.34 2 16.68 2 16 C1.34 16 0.68 16 0 16 C0 10.72 0 5.44 0 0 Z " fill="#3A3A39" transform="translate(152,136)"/>
<path d="M0 0 C0.99 0 1.98 0 3 0 C3 2.64 3 5.28 3 8 C2.34 8 1.68 8 1 8 C1 8.66 1 9.32 1 10 C0.34 10 -0.32 10 -1 10 C-1 11.98 -1 13.96 -1 16 C-1.66 16 -2.32 16 -3 16 C-3 17.32 -3 18.64 -3 20 C-3.99 20 -4.98 20 -6 20 C-6 19.34 -6 18.68 -6 18 C-5.34 18 -4.68 18 -4 18 C-4 16.68 -4 15.36 -4 14 C-3.34 14 -2.68 14 -2 14 C-2 12.02 -2 10.04 -2 8 C-1.34 8 -0.68 8 0 8 C0 5.36 0 2.72 0 0 Z " fill="#B87D28" transform="translate(70,122)"/>
<path d="M0 0 C0.66 0 1.32 0 2 0 C2 0.66 2 1.32 2 2 C2.66 2 3.32 2 4 2 C4 3.98 4 5.96 4 8 C2.02 8 0.04 8 -2 8 C-2 8.66 -2 9.32 -2 10 C-2.66 10 -3.32 10 -4 10 C-4 8.02 -4 6.04 -4 4 C-2.68 4 -1.36 4 0 4 C0 2.68 0 1.36 0 0 Z " fill="#282624" transform="translate(152,102)"/>
<path d="M0 0 C-0.33 2.64 -0.66 5.28 -1 8 C-1.99 8 -2.98 8 -4 8 C-6.80255323 5.0936485 -7 4.21174952 -7 0 C-4.3333581 -1.33332095 -2.83319697 -0.67102033 0 0 Z " fill="#EC7A17" transform="translate(62,126)"/>
<path d="M0 0 C0.66 0 1.32 0 2 0 C2 1.32 2 2.64 2 4 C2.66 4 3.32 4 4 4 C4 5.32 4 6.64 4 8 C4.66 8 5.32 8 6 8 C6 11.3 6 14.6 6 18 C5.34 18 4.68 18 4 18 C2.57741188 14.17679443 1.75957724 11.08718695 2 7 C1.67 7 1.34 7 1 7 C0.67 4.69 0.34 2.38 0 0 Z " fill="#D67D30" transform="translate(72,60)"/>
<path d="M0 0 C0.66 0 1.32 0 2 0 C2.33 0.99 2.66 1.98 3 3 C1.35 3.33 -0.3 3.66 -2 4 C-2 5.32 -2 6.64 -2 8 C-0.02 8 1.96 8 4 8 C4 8.66 4 9.32 4 10 C3.34 10 2.68 10 2 10 C2 10.66 2 11.32 2 12 C0.02 12 -1.96 12 -4 12 C-4 9.36 -4 6.72 -4 4 C-2.68 3.67 -1.36 3.34 0 3 C0 2.01 0 1.02 0 0 Z " fill="#CE832E" transform="translate(38,80)"/>
<path d="M0 0 C2.4375 0.375 2.4375 0.375 5 1 C6.32229189 3.64458379 6.09677194 5.67761301 6.0625 8.625 C6.05347656 9.62789062 6.04445313 10.63078125 6.03515625 11.6640625 C6.02355469 12.43492188 6.01195313 13.20578125 6 14 C5.34 14 4.68 14 4 14 C4 10.04 4 6.08 4 2 C3.34 2 2.68 2 2 2 C2 3.98 2 5.96 2 8 C1.34 8 0.68 8 0 8 C0 5.36 0 2.72 0 0 Z " fill="#A47223" transform="translate(68,86)"/>
<path d="M0 0 C0.66 0 1.32 0 2 0 C2 1.32 2 2.64 2 4 C2.66 4 3.32 4 4 4 C4 4.66 4 5.32 4 6 C4.66 6 5.32 6 6 6 C6 6.66 6 7.32 6 8 C8.64 8 11.28 8 14 8 C14 8.33 14 8.66 14 9 C11.36 9.33 8.72 9.66 6 10 C6 10.66 6 11.32 6 12 C5.34 12 4.68 12 4 12 C4 10.68 4 9.36 4 8 C2.68 8 1.36 8 0 8 C0 5.36 0 2.72 0 0 Z " fill="#DB872D" transform="translate(56,96)"/>
<path d="M0 0 C0 2.64 0 5.28 0 8 C-0.66 8 -1.32 8 -2 8 C-2 7.34 -2 6.68 -2 6 C-3.98 6 -5.96 6 -8 6 C-8 4.68 -8 3.36 -8 2 C-5.09399739 0.74335022 -3.20395416 0 0 0 Z " fill="#806922" transform="translate(44,82)"/>
<path d="M0 0 C2 2 2 2 2.1953125 4.1640625 C2.17210937 4.97617188 2.14890625 5.78828125 2.125 6.625 C2.10695313 7.44226563 2.08890625 8.25953125 2.0703125 9.1015625 C2.03550781 10.04128906 2.03550781 10.04128906 2 11 C1.01 11.33 0.02 11.66 -1 12 C-1 13.98 -1 15.96 -1 18 C-1.33 18 -1.66 18 -2 18 C-2 13.38 -2 8.76 -2 4 C-1.34 4 -0.68 4 0 4 C0 2.68 0 1.36 0 0 Z " fill="#D57B2A" transform="translate(20,72)"/>
<path d="M0 0 C1.65 0 3.3 0 5 0 C5 0.66 5 1.32 5 2 C6.65 2 8.3 2 10 2 C10 2.66 10 3.32 10 4 C9.34 4 8.68 4 8 4 C8 5.32 8 6.64 8 8 C7.34 8 6.68 8 6 8 C6 6.68 6 5.36 6 4 C5.34 4 4.68 4 4 4 C4 5.32 4 6.64 4 8 C3.34 8 2.68 8 2 8 C2 6.02 2 4.04 2 2 C1.34 2 0.68 2 0 2 C0 1.34 0 0.68 0 0 Z " fill="#355E27" transform="translate(42,80)"/>
<path d="M0 0 C12.01989891 -0.5683665 12.01989891 -0.5683665 16 3 C16 3.66 16 4.32 16 5 C15.34 5 14.68 5 14 5 C14 4.34 14 3.68 14 3 C9.38 3 4.76 3 0 3 C0 2.01 0 1.02 0 0 Z " fill="#F9E5C7" transform="translate(44,39)"/>
<path d="M0 0 C1.32 0 2.64 0 4 0 C4 0.66 4 1.32 4 2 C3.34 2 2.68 2 2 2 C2 2.66 2 3.32 2 4 C1.34 4 0.68 4 0 4 C0 5.32 0 6.64 0 8 C-0.66 8 -1.32 8 -2 8 C-2 8.66 -2 9.32 -2 10 C-3.32 9.67 -4.64 9.34 -6 9 C-6 8.01 -6 7.02 -6 6 C-5.34 6 -4.68 6 -4 6 C-3.67 4.68 -3.34 3.36 -3 2 C-2.01 2.33 -1.02 2.66 0 3 C0 2.01 0 1.02 0 0 Z " fill="#3E5821" transform="translate(52,124)"/>
<path d="M0 0 C1.32 0 2.64 0 4 0 C4 0.66 4 1.32 4 2 C4.66 2 5.32 2 6 2 C6 3.32 6 4.64 6 6 C5.34 6 4.68 6 4 6 C4.061875 7.423125 4.061875 7.423125 4.125 8.875 C4 12 4 12 2 14 C2.33 10.37 2.66 6.74 3 3 C0.69 3.33 -1.62 3.66 -4 4 C-4 3.34 -4 2.68 -4 2 C-2.68 2 -1.36 2 0 2 C0 1.34 0 0.68 0 0 Z " fill="#3B5A20" transform="translate(56,70)"/>
<path d="M0 0 C2.64 0 5.28 0 8 0 C8 1.32 8 2.64 8 4 C7.34 4 6.68 4 6 4 C6 4.66 6 5.32 6 6 C4.68 6 3.36 6 2 6 C2 5.34 2 4.68 2 4 C1.34 4 0.68 4 0 4 C0 2.68 0 1.36 0 0 Z " fill="#DCDCDC" transform="translate(120,138)"/>
<path d="M0 0 C0.66 0 1.32 0 2 0 C2 5.94 2 11.88 2 18 C1.34 18 0.68 18 0 18 C0 15.36 0 12.72 0 10 C-0.66 10 -1.32 10 -2 10 C-2 9.34 -2 8.68 -2 8 C-1.34 8 -0.68 8 0 8 C0 5.36 0 2.72 0 0 Z " fill="#979694" transform="translate(146,78)"/>
<path d="M0 0 C1.32 0 2.64 0 4 0 C4 3.3 4 6.6 4 10 C2.68 10 1.36 10 0 10 C0 8.68 0 7.36 0 6 C0.66 6 1.32 6 2 6 C2 5.34 2 4.68 2 4 C0.68 4 -0.64 4 -2 4 C-2 3.34 -2 2.68 -2 2 C-1.34 2 -0.68 2 0 2 C0 1.34 0 0.68 0 0 Z " fill="#C28735" transform="translate(50,78)"/>
<path d="M0 0 C0.33 0.66 0.66 1.32 1 2 C1.99 1.34 2.98 0.68 4 0 C6.1875 0.375 6.1875 0.375 8 1 C7.01 1.495 7.01 1.495 6 2 C6 3.98 6 5.96 6 8 C4.02 7.34 2.04 6.68 0 6 C0 4.02 0 2.04 0 0 Z " fill="#0A0807" transform="translate(132,90)"/>
<path d="M0 0 C0.66 0 1.32 0 2 0 C2 3.3 2 6.6 2 10 C0.68 10 -0.64 10 -2 10 C-2 7.36 -2 4.72 -2 2 C-1.34 2 -0.68 2 0 2 C0 1.34 0 0.68 0 0 Z " fill="#444442" transform="translate(102,138)"/>
<path d="M0 0 C1.98 0 3.96 0 6 0 C6 1.98 6 3.96 6 6 C4.02 6 2.04 6 0 6 C0 4.02 0 2.04 0 0 Z " fill="#F2F0F1" transform="translate(170,138)"/>
<path d="M0 0 C0.66 0 1.32 0 2 0 C2 1.32 2 2.64 2 4 C2.66 4 3.32 4 4 4 C4 4.66 4 5.32 4 6 C3.34 6 2.68 6 2 6 C2 7.32 2 8.64 2 10 C1.34 10 0.68 10 0 10 C0 10.66 0 11.32 0 12 C-0.66 12 -1.32 12 -2 12 C-2 10.02 -2 8.04 -2 6 C-1.34 6 -0.68 6 0 6 C0 4.02 0 2.04 0 0 Z " fill="#BB8533" transform="translate(52,108)"/>
<path d="M0 0 C1.32 0 2.64 0 4 0 C4 1.32 4 2.64 4 4 C3.34 4 2.68 4 2 4 C2 5.98 2 7.96 2 10 C1.34 10 0.68 10 0 10 C0 9.34 0 8.68 0 8 C-1.32 8 -2.64 8 -4 8 C-4 7.34 -4 6.68 -4 6 C-2.68 6 -1.36 6 0 6 C0 4.02 0 2.04 0 0 Z " fill="#8B7732" transform="translate(48,100)"/>
<path d="M0 0 C0.66 0 1.32 0 2 0 C2 0.66 2 1.32 2 2 C2.66 2 3.32 2 4 2 C4 2.66 4 3.32 4 4 C2.68 4 1.36 4 0 4 C0 5.32 0 6.64 0 8 C-1.32 8 -2.64 8 -4 8 C-4 7.34 -4 6.68 -4 6 C-4.66 6 -5.32 6 -6 6 C-6 5.34 -6 4.68 -6 4 C-4.68 4 -3.36 4 -2 4 C-2 3.34 -2 2.68 -2 2 C-1.34 2 -0.68 2 0 2 C0 1.34 0 0.68 0 0 Z " fill="#41541C" transform="translate(40,90)"/>
<path d="M0 0 C0.66 0 1.32 0 2 0 C1.85904936 1.6254308 1.71207913 3.25034051 1.5625 4.875 C1.48128906 5.77992188 1.40007812 6.68484375 1.31640625 7.6171875 C1 10 1 10 0 12 C-0.66 12 -1.32 12 -2 12 C-2 12.66 -2 13.32 -2 14 C-2.66 14 -3.32 14 -4 14 C-4 12.68 -4 11.36 -4 10 C-3.34 10 -2.68 10 -2 10 C-2 8.68 -2 7.36 -2 6 C-1.34 6 -0.68 6 0 6 C0 4.02 0 2.04 0 0 Z " fill="#FAE4CB" transform="translate(76,130)"/>
<path d="M0 0 C0.33 0 0.66 0 1 0 C1.08126087 2.08268593 1.13930839 4.16628658 1.1875 6.25 C1.23970703 7.99023438 1.23970703 7.99023438 1.29296875 9.765625 C1 13 1 13 -2 17 C-2 13.04 -2 9.08 -2 5 C-1.34 5 -0.68 5 0 5 C0 3.35 0 1.7 0 0 Z " fill="#F9E3C3" transform="translate(82,107)"/>
<path d="M0 0 C1.32 0 2.64 0 4 0 C4 0.66 4 1.32 4 2 C5.32 2 6.64 2 8 2 C8 2.66 8 3.32 8 4 C7.34 4.66 6.68 5.32 6 6 C6 6.66 6 7.32 6 8 C5.34 8 4.68 8 4 8 C4 7.34 4 6.68 4 6 C3.34 6 2.68 6 2 6 C2 5.34 2 4.68 2 4 C1.34 4 0.68 4 0 4 C0 2.68 0 1.36 0 0 Z " fill="#11100F" transform="translate(120,110)"/>
<path d="M0 0 C0.33 0.99 0.66 1.98 1 3 C0.34 3 -0.32 3 -1 3 C-1 5.64 -1 8.28 -1 11 C0.32 10.67 1.64 10.34 3 10 C3 10.66 3 11.32 3 12 C-0.37817425 12.84454356 -2.67465243 13.10844919 -6 12 C-5.01 11.67 -4.02 11.34 -3 11 C-2.95101562 10.28972656 -2.90203125 9.57945313 -2.8515625 8.84765625 C-2.77679688 7.92855469 -2.70203125 7.00945312 -2.625 6.0625 C-2.55539063 5.14597656 -2.48578125 4.22945313 -2.4140625 3.28515625 C-2.27742188 2.53105469 -2.14078125 1.77695312 -2 1 C-1.34 0.67 -0.68 0.34 0 0 Z " fill="#CC7D24" transform="translate(39,61)"/>
<path d="M0 0 C0 0.66 0 1.32 0 2 C-1.65 2 -3.3 2 -5 2 C-4.67 3.32 -4.34 4.64 -4 6 C-5.32 6 -6.64 6 -8 6 C-8 6.66 -8 7.32 -8 8 C-9.32 8 -10.64 8 -12 8 C-12 7.34 -12 6.68 -12 6 C-11.01 5.67 -10.02 5.34 -9 5 C-8.26676204 2.98491642 -8.26676204 2.98491642 -8 1 C-2.25 0 -2.25 0 0 0 Z " fill="#EB7816" transform="translate(66,146)"/>
<path d="M0 0 C0.99 0 1.98 0 3 0 C3 1.65 3 3.3 3 5 C4.32 5.33 5.64 5.66 7 6 C5.02 6 3.04 6 1 6 C1 6.66 1 7.32 1 8 C0.34 8 -0.32 8 -1 8 C-1 7.01 -1 6.02 -1 5 C-2.65 5 -4.3 5 -6 5 C-6 4.67 -6 4.34 -6 4 C-4.02 4 -2.04 4 0 4 C0 2.68 0 1.36 0 0 Z " fill="#11582A" transform="translate(55,116)"/>
<path d="M0 0 C1.32 0 2.64 0 4 0 C4 0.66 4 1.32 4 2 C4.66 2 5.32 2 6 2 C6 2.66 6 3.32 6 4 C6.66 4 7.32 4 8 4 C8 4.66 8 5.32 8 6 C6.68 6 5.36 6 4 6 C4 5.34 4 4.68 4 4 C2.02 4 0.04 4 -2 4 C-2 3.34 -2 2.68 -2 2 C-1.34 2 -0.68 2 0 2 C0 1.34 0 0.68 0 0 Z " fill="#40403F" transform="translate(106,134)"/>
<path d="M0 0 C0.33 0 0.66 0 1 0 C1.33 2.97 1.66 5.94 2 9 C2.33 9 2.66 9 3 9 C3 11.31 3 13.62 3 16 C2.34 16 1.68 16 1 16 C1 14.68 1 13.36 1 12 C0.34 12 -0.32 12 -1 12 C-1.08159574 7.83861737 -0.98248524 4.0527516 0 0 Z " fill="#D76C12" transform="translate(21,116)"/>
<path d="M0 0 C0.66 0 1.32 0 2 0 C2 1.98 2 3.96 2 6 C1.34 6 0.68 6 0 6 C0 7.32 0 8.64 0 10 C-1.32 10 -2.64 10 -4 10 C-4 9.34 -4 8.68 -4 8 C-3.34 8 -2.68 8 -2 8 C-2 6.02 -2 4.04 -2 2 C-1.34 2 -0.68 2 0 2 C0 1.34 0 0.68 0 0 Z " fill="#36511B" transform="translate(52,102)"/>
<path d="M0 0 C2.64 0 5.28 0 8 0 C8 1.32 8 2.64 8 4 C5.36 4 2.72 4 0 4 C0 2.68 0 1.36 0 0 Z " fill="#CE852D" transform="translate(48,92)"/>
<path d="M0 0 C1.32 0 2.64 0 4 0 C4 0.66 4 1.32 4 2 C3.34 2 2.68 2 2 2 C2 2.66 2 3.32 2 4 C1.34 4 0.68 4 0 4 C0 5.98 0 7.96 0 10 C-0.99 9.67 -1.98 9.34 -3 9 C-2.34 7.02 -1.68 5.04 -1 3 C-3.31 3 -5.62 3 -8 3 C-8 2.67 -8 2.34 -8 2 C-5.36 2 -2.72 2 0 2 C0 1.34 0 0.68 0 0 Z " fill="#39521A" transform="translate(54,60)"/>
<path d="M0 0 C2.4375 0.375 2.4375 0.375 5 1 C6.4783226 3.95664519 6.06032783 6.74229737 6 10 C5.34 9.67 4.68 9.34 4 9 C3.375 5.9375 3.375 5.9375 3 3 C2.01 2.67 1.02 2.34 0 2 C0 1.34 0 0.68 0 0 Z " fill="#0F5933" transform="translate(63,120)"/>
<path d="M0 0 C0.33 0 0.66 0 1 0 C1 2.31 1 4.62 1 7 C1.99 7 2.98 7 4 7 C4 7.66 4 8.32 4 9 C4.66 9.33 5.32 9.66 6 10 C3.36 10 0.72 10 -2 10 C-2 8.68 -2 7.36 -2 6 C-1.34 6 -0.68 6 0 6 C0 4.02 0 2.04 0 0 Z " fill="#C3822B" transform="translate(62,108)"/>
<path d="M0 0 C0.66 0 1.32 0 2 0 C2 1.32 2 2.64 2 4 C2.66 4 3.32 4 4 4 C4 5.32 4 6.64 4 8 C4.66 8.33 5.32 8.66 6 9 C4.68 9.33 3.36 9.66 2 10 C2 8.68 2 7.36 2 6 C0.68 6 -0.64 6 -2 6 C-2 5.34 -2 4.68 -2 4 C-1.34 4 -0.68 4 0 4 C0 2.68 0 1.36 0 0 Z " fill="#40581F" transform="translate(46,66)"/>
<path d="M0 0 C1.32 0 2.64 0 4 0 C4 0.66 4 1.32 4 2 C5.32 2 6.64 2 8 2 C8 3.32 8 4.64 8 6 C6.68 6 5.36 6 4 6 C4 5.34 4 4.68 4 4 C3.34 4 2.68 4 2 4 C2 3.34 2 2.68 2 2 C1.34 2 0.68 2 0 2 C0 1.34 0 0.68 0 0 Z " fill="#D7792E" transform="translate(36,152)"/>
<path d="M0 0 C0.66 0 1.32 0 2 0 C2 3.96 2 7.92 2 12 C0.68 12 -0.64 12 -2 12 C-2 11.34 -2 10.68 -2 10 C-1.34 10 -0.68 10 0 10 C0 6.7 0 3.4 0 0 Z " fill="#494746" transform="translate(146,138)"/>
<path d="M0 0 C1.98 0 3.96 0 6 0 C6 2.64 6 5.28 6 8 C4.68 8 3.36 8 2 8 C2 7.34 2 6.68 2 6 C2.66 6 3.32 6 4 6 C4 4.68 4 3.36 4 2 C2.68 2 1.36 2 0 2 C0 1.34 0 0.68 0 0 Z " fill="#292827" transform="translate(108,144)"/>
<path d="M0 0 C1.32 0 2.64 0 4 0 C4 0.66 4 1.32 4 2 C4.66 2 5.32 2 6 2 C6 3.32 6 4.64 6 6 C6.66 6 7.32 6 8 6 C8 6.66 8 7.32 8 8 C6.68 8 5.36 8 4 8 C4 6.68 4 5.36 4 4 C3.34 4 2.68 4 2 4 C2 3.34 2 2.68 2 2 C1.34 2 0.68 2 0 2 C0 1.34 0 0.68 0 0 Z " fill="#585958" transform="translate(124,146)"/>
<path d="M0 0 C1.98 0 3.96 0 6 0 C6 1.65 6 3.3 6 5 C4.35 5 2.7 5 1 5 C0.67 3.35 0.34 1.7 0 0 Z " fill="#115831" transform="translate(57,138)"/>
<path d="M0 0 C3.3 0 6.6 0 10 0 C10 1.32 10 2.64 10 4 C9.34 4 8.68 4 8 4 C8 3.34 8 2.68 8 2 C6.02 2 4.04 2 2 2 C2 2.66 2 3.32 2 4 C1.34 4 0.68 4 0 4 C0 2.68 0 1.36 0 0 Z " fill="#2B2B29" transform="translate(136,136)"/>
<path d="M0 0 C1.98 0 3.96 0 6 0 C6 0.66 6 1.32 6 2 C5.34 2 4.68 2 4 2 C4 3.98 4 5.96 4 8 C3.34 8 2.68 8 2 8 C1.34 5.36 0.68 2.72 0 0 Z " fill="#3D5E27" transform="translate(46,112)"/>
<path d="M0 0 C3.3 0 6.6 0 10 0 C10 0.66 10 1.32 10 2 C7.36 2 4.72 2 2 2 C1.67 3.32 1.34 4.64 1 6 C0.67 5.67 0.34 5.34 0 5 C0 3.35 0 1.7 0 0 Z " fill="#2D2D2C" transform="translate(118,136)"/>
<path d="M0 0 C0.125 3.375 0.125 3.375 0 7 C-0.66 7.66 -1.32 8.32 -2 9 C-2.33 7.02 -2.66 5.04 -3 3 C-3.99 2.67 -4.98 2.34 -6 2 C-3 0 -3 0 0 0 Z " fill="#0B5832" transform="translate(59,73)"/>
<path d="M0 0 C1.32 0 2.64 0 4 0 C4 0.66 4 1.32 4 2 C4.66 2 5.32 2 6 2 C6 2.66 6 3.32 6 4 C5.34 4 4.68 4 4 4 C4 4.66 4 5.32 4 6 C2.68 5.67 1.36 5.34 0 5 C0 3.35 0 1.7 0 0 Z " fill="#DC7E35" transform="translate(60,46)"/>
<path d="M0 0 C0.66 0 1.32 0 2 0 C1.67 1.32 1.34 2.64 1 4 C0.34 4 -0.32 4 -1 4 C-1.66 5.32 -2.32 6.64 -3 8 C-3.99 8 -4.98 8 -6 8 C-6 7.34 -6 6.68 -6 6 C-5.34 6 -4.68 6 -4 6 C-4 5.34 -4 4.68 -4 4 C-3.34 4 -2.68 4 -2 4 C-2 3.34 -2 2.68 -2 2 C-1.34 2 -0.68 2 0 2 C0 1.34 0 0.68 0 0 Z " fill="#C4832C" transform="translate(44,138)"/>
<path d="M0 0 C0.66 0 1.32 0 2 0 C2 1.32 2 2.64 2 4 C2.66 4 3.32 4 4 4 C4 5.98 4 7.96 4 10 C3.34 10 2.68 10 2 10 C2 8.68 2 7.36 2 6 C1.34 6 0.68 6 0 6 C0 4.02 0 2.04 0 0 Z " fill="#D57A31" transform="translate(24,134)"/>
<path d="M0 0 C3.3 0 6.6 0 10 0 C10 1.32 10 2.64 10 4 C9.34 4 8.68 4 8 4 C8 3.34 8 2.68 8 2 C5.36 2 2.72 2 0 2 C0 1.34 0 0.68 0 0 Z " fill="#252423" transform="translate(168,136)"/>
<path d="M0 0 C2.64 0 5.28 0 8 0 C8 1.98 8 3.96 8 6 C7.34 6 6.68 6 6 6 C6 4.68 6 3.36 6 2 C4.02 2 2.04 2 0 2 C0 1.34 0 0.68 0 0 Z " fill="#66641F" transform="translate(48,96)"/>
<path d="M0 0 C1.32 0 2.64 0 4 0 C4 1.32 4 2.64 4 4 C2.35 4 0.7 4 -1 4 C-1.33 4.66 -1.66 5.32 -2 6 C-1.125 1.125 -1.125 1.125 0 0 Z " fill="#DF7015" transform="translate(56,44)"/>
<path d="M0 0 C1.65 0 3.3 0 5 0 C5 1.32 5 2.64 5 4 C4.34 4 3.68 4 3 4 C3 4.66 3 5.32 3 6 C2.34 6 1.68 6 1 6 C0.67 4.02 0.34 2.04 0 0 Z " fill="#DA8031" transform="translate(61,148)"/>
<path d="M0 0 C1.32 0 2.64 0 4 0 C4 0.66 4 1.32 4 2 C3.34 2 2.68 2 2 2 C2 2.66 2 3.32 2 4 C0.02 4 -1.96 4 -4 4 C-4 3.34 -4 2.68 -4 2 C-2.68 2 -1.36 2 0 2 C0 1.34 0 0.68 0 0 Z " fill="#D36B11" transform="translate(58,152)"/>
<path d="M0 0 C1.32 0 2.64 0 4 0 C4 0.66 4 1.32 4 2 C3.34 2 2.68 2 2 2 C2 2.66 2 3.32 2 4 C0.02 4 -1.96 4 -4 4 C-4 3.34 -4 2.68 -4 2 C-2.68 2 -1.36 2 0 2 C0 1.34 0 0.68 0 0 Z " fill="#333232" transform="translate(142,150)"/>
<path d="M0 0 C1.32 0 2.64 0 4 0 C4 0.66 4 1.32 4 2 C5.32 2 6.64 2 8 2 C8 2.66 8 3.32 8 4 C6.02 4 4.04 4 2 4 C2 3.34 2 2.68 2 2 C1.34 2 0.68 2 0 2 C0 1.34 0 0.68 0 0 Z " fill="#323232" transform="translate(152,150)"/>
<path d="M0 0 C1.32 0 2.64 0 4 0 C4 0.66 4 1.32 4 2 C3.34 2 2.68 2 2 2 C2 2.66 2 3.32 2 4 C0.02 4 -1.96 4 -4 4 C-4 3.34 -4 2.68 -4 2 C-2.68 2 -1.36 2 0 2 C0 1.34 0 0.68 0 0 Z " fill="#615F5E" transform="translate(160,148)"/>
<path d="M0 0 C0.66 0 1.32 0 2 0 C1.67 1.65 1.34 3.3 1 5 C-0.65 5.33 -2.3 5.66 -4 6 C-4 5.34 -4 4.68 -4 4 C-3.34 4 -2.68 4 -2 4 C-2 3.34 -2 2.68 -2 2 C-1.34 2 -0.68 2 0 2 C0 1.34 0 0.68 0 0 Z " fill="#F7DCBD" transform="translate(70,144)"/>
<path d="M0 0 C0.66 0 1.32 0 2 0 C2 1.32 2 2.64 2 4 C1.34 4 0.68 4 0 4 C0 4.66 0 5.32 0 6 C-1.32 6 -2.64 6 -4 6 C-4 5.34 -4 4.68 -4 4 C-3.34 4 -2.68 4 -2 4 C-2 3.34 -2 2.68 -2 2 C-1.34 2 -0.68 2 0 2 C0 1.34 0 0.68 0 0 Z " fill="#324A14" transform="translate(42,98)"/>
<path d="M0 0 C0.33 0.99 0.66 1.98 1 3 C0 4 0 4 -1.84765625 4.09765625 C-3.8984375 4.06510417 -5.94921875 4.03255208 -8 4 C-8 3.34 -8 2.68 -8 2 C-6.865625 1.855625 -5.73125 1.71125 -4.5625 1.5625 C-1.19222799 1.38828522 -1.19222799 1.38828522 0 0 Z " fill="#115732" transform="translate(70,97)"/>
<path d="M0 0 C1.32 0 2.64 0 4 0 C4 1.32 4 2.64 4 4 C3.34 4 2.68 4 2 4 C2 4.66 2 5.32 2 6 C1.34 6 0.68 6 0 6 C0 4.02 0 2.04 0 0 Z " fill="#A98638" transform="translate(40,94)"/>
<path d="M0 0 C1.32 0 2.64 0 4 0 C4 0.66 4 1.32 4 2 C4.66 2 5.32 2 6 2 C6 2.66 6 3.32 6 4 C5.34 4 4.68 4 4 4 C4 4.66 4 5.32 4 6 C3.34 6 2.68 6 2 6 C2 4.68 2 3.36 2 2 C1.34 2 0.68 2 0 2 C0 1.34 0 0.68 0 0 Z " fill="#515A18" transform="translate(56,94)"/>
<path d="M0 0 C3.73487777 0.4979837 5.81237635 0.87491756 9 3 C8.34 3.66 7.68 4.32 7 5 C6.01 4.67 5.02 4.34 4 4 C4 3.34 4 2.68 4 2 C2.68 2 1.36 2 0 2 C0 1.34 0 0.68 0 0 Z " fill="#E48534" transform="translate(40,42)"/>
<path d="M0 0 C0.66 0.33 1.32 0.66 2 1 C0.29374499 3.78388975 -0.47626739 4.85384206 -3.6875 5.75 C-4.8321875 5.87375 -4.8321875 5.87375 -6 6 C-6 5.34 -6 4.68 -6 4 C-5.34 4 -4.68 4 -4 4 C-4 3.34 -4 2.68 -4 2 C-2.68 2 -1.36 2 0 2 C0 1.34 0 0.68 0 0 Z " fill="#FBEBCF" transform="translate(64,152)"/>
<path d="M0 0 C0.66 0 1.32 0 2 0 C2 0.66 2 1.32 2 2 C2.66 2 3.32 2 4 2 C4 2.66 4 3.32 4 4 C4.66 4 5.32 4 6 4 C6 4.66 6 5.32 6 6 C4.35 5.67 2.7 5.34 1 5 C0.67 3.35 0.34 1.7 0 0 Z " fill="#EFCDA3" transform="translate(30,148)"/>
<path d="M0 0 C1.76462683 3.08809695 2 4.23312136 2 8 C0.68 7.67 -0.64 7.34 -2 7 C-2 6.01 -2 5.02 -2 4 C-1.34 4 -0.68 4 0 4 C0 2.68 0 1.36 0 0 Z " fill="#2F541E" transform="translate(48,126)"/>
<path d="M0 0 C0.66 0 1.32 0 2 0 C2 1.32 2 2.64 2 4 C1.34 4 0.68 4 0 4 C0 4.66 0 5.32 0 6 C-1.32 6 -2.64 6 -4 6 C-4 5.34 -4 4.68 -4 4 C-3.34 4 -2.68 4 -2 4 C-2 3.34 -2 2.68 -2 2 C-1.34 2 -0.68 2 0 2 C0 1.34 0 0.68 0 0 Z " fill="#B68B3B" transform="translate(44,66)"/>
<path d="M0 0 C1.98 0 3.96 0 6 0 C6 0.66 6 1.32 6 2 C4.68 2 3.36 2 2 2 C1.67 2.66 1.34 3.32 1 4 C0.01 4 -0.98 4 -2 4 C-2 3.34 -2 2.68 -2 2 C-1.34 2 -0.68 2 0 2 C0 1.34 0 0.68 0 0 Z " fill="#D26C18" transform="translate(38,44)"/>
<path d="M0 0 C0 0.66 0 1.32 0 2 C-0.66 2 -1.32 2 -2 2 C-2 2.66 -2 3.32 -2 4 C-2.66 4 -3.32 4 -4 4 C-4 4.66 -4 5.32 -4 6 C-4.66 6 -5.32 6 -6 6 C-5.625 3.5625 -5.625 3.5625 -5 1 C-3 0 -3 0 0 0 Z " fill="#FAE0C1" transform="translate(40,42)"/>
<path d="M0 0 C1.32 0 2.64 0 4 0 C4 1.32 4 2.64 4 4 C3.34 4 2.68 4 2 4 C1.67 4.66 1.34 5.32 1 6 C0.67 4.02 0.34 2.04 0 0 Z " fill="#AB8134" transform="translate(44,126)"/>
<path d="M0 0 C1.32 0 2.64 0 4 0 C4 0.66 4 1.32 4 2 C3.34 2 2.68 2 2 2 C1.67 3.98 1.34 5.96 1 8 C0.67 8 0.34 8 0 8 C0 5.36 0 2.72 0 0 Z " fill="#926B20" transform="translate(56,104)"/>
<path d="M0 0 C0.66 0.33 1.32 0.66 2 1 C1.01 2.485 1.01 2.485 0 4 C-0.66 4 -1.32 4 -2 4 C-2 4.66 -2 5.32 -2 6 C-2.66 6 -3.32 6 -4 6 C-3.67 4.35 -3.34 2.7 -3 1 C-2.01 0.67 -1.02 0.34 0 0 Z " fill="#24572B" transform="translate(52,74)"/>
<path d="M0 0 C0.99 0 1.98 0 3 0 C3 0.66 3 1.32 3 2 C4.32 2 5.64 2 7 2 C7 2.66 7 3.32 7 4 C1.25 3.25 1.25 3.25 -1 1 C-0.67 0.67 -0.34 0.34 0 0 Z " fill="#E28635" transform="translate(51,154)"/>
<path d="M0 0 C0.66 0 1.32 0 2 0 C2 1.98 2 3.96 2 6 C0.68 6 -0.64 6 -2 6 C-1.34 4.02 -0.68 2.04 0 0 Z " fill="#70716E" transform="translate(102,142)"/>
<path d="M0 0 C0 1.32 0 2.64 0 4 C-0.66 4 -1.32 4 -2 4 C-2 4.66 -2 5.32 -2 6 C-2.66 6 -3.32 6 -4 6 C-4 4.35 -4 2.7 -4 1 C-2 0 -2 0 0 0 Z " fill="#CF6913" transform="translate(70,142)"/>
<path d="M0 0 C1.32 0.66 2.64 1.32 4 2 C3.34 2 2.68 2 2 2 C2 2.66 2 3.32 2 4 C1.34 4 0.68 4 0 4 C0 4.66 0 5.32 0 6 C-0.66 6 -1.32 6 -2 6 C-2 4.68 -2 3.36 -2 2 C-1.34 2 -0.68 2 0 2 C0 1.34 0 0.68 0 0 Z " fill="#444B0F" transform="translate(38,140)"/>
<path d="M0 0 C0.66 0 1.32 0 2 0 C1.67 2.64 1.34 5.28 1 8 C0.34 8 -0.32 8 -1 8 C-0.67 5.36 -0.34 2.72 0 0 Z " fill="#E58A3F" transform="translate(19,116)"/>
<path d="M0 0 C1.65 0 3.3 0 5 0 C5 0.66 5 1.32 5 2 C4.01 2 3.02 2 2 2 C2 2.66 2 3.32 2 4 C1.01 4 0.02 4 -1 4 C-0.67 2.68 -0.34 1.36 0 0 Z " fill="#0B0908" transform="translate(143,106)"/>
<path d="M0 0 C0.99 0 1.98 0 3 0 C3 1.32 3 2.64 3 4 C2.34 4 1.68 4 1 4 C1 4.66 1 5.32 1 6 C0.34 6 -0.32 6 -1 6 C-1.042721 4.33388095 -1.04063832 2.66617115 -1 1 C-0.67 0.67 -0.34 0.34 0 0 Z " fill="#FBE2C6" transform="translate(29,48)"/>
</svg>
