<?xml version="1.0" encoding="UTF-8"?>
<svg version="1.1" xmlns="http://www.w3.org/2000/svg" width="200" height="200">
<path d="M0 0 C66 0 132 0 200 0 C200 66 200 132 200 200 C134 200 68 200 0 200 C0 134 0 68 0 0 Z " fill="#FEFEFE" transform="translate(0,0)"/>
<path d="M0 0 C5.46321457 2.85301205 10.61754174 5.61754174 15 10 C15 11.32 15 12.64 15 14 C9.10917429 17.92721714 1.35210836 17.14027187 -5.53125 17.09765625 C-6.84603333 17.09553383 -6.84603333 17.09553383 -8.18737793 17.09336853 C-10.95828821 17.08781768 -13.72911457 17.07527461 -16.5 17.0625 C-18.39062382 17.05747864 -20.28124893 17.05291685 -22.171875 17.04882812 C-26.78128183 17.0378644 -31.39062673 17.02063425 -36 17 C-36.99 14.69 -37.98 12.38 -39 10 C-37.54762939 9.83395264 -37.54762939 9.83395264 -36.06591797 9.66455078 C-32.45333188 9.249802 -28.84177875 8.826584 -25.23046875 8.40087891 C-23.6711651 8.21824902 -22.11159514 8.0378775 -20.55175781 7.85986328 C-18.30198526 7.60270537 -16.05331454 7.33728007 -13.8046875 7.0703125 C-13.1138205 6.99313995 -12.42295349 6.91596741 -11.71115112 6.8364563 C-7.59230915 6.33780243 -3.88797559 5.44410522 0 4 C0 2.68 0 1.36 0 0 Z " fill="#AFADAE" transform="translate(184,101)"/>
<path d="M0 0 C18.2721178 1.82994304 40.93708523 5.40507482 55 18 C54.505 20.475 54.505 20.475 54 23 C46.67390976 25.00145764 39.59435004 26.60220071 32 27 C31.08476562 27.05285156 30.16953125 27.10570313 29.2265625 27.16015625 C24.04782412 27.33080236 24.04782412 27.33080236 22 27 C20 24 20 24 20 21 C22.60356241 20.49666458 25.20776651 19.99720622 27.8125 19.5 C28.55048828 19.35691406 29.28847656 19.21382812 30.04882812 19.06640625 C33.07794391 18.49073719 35.909196 18 39 18 C38.00211838 15.25582555 37.29786398 14.17204213 34.734375 12.69140625 C26.40934209 9.54227731 18.08369872 7.52943811 9.34082031 5.87524414 C8.42010742 5.68824951 7.49939453 5.50125488 6.55078125 5.30859375 C5.72231689 5.15189209 4.89385254 4.99519043 4.0402832 4.83374023 C2 4 2 4 0.71557617 1.91821289 C0.47943604 1.28520264 0.2432959 0.65219238 0 0 Z " fill="#AEADAD" transform="translate(124,81)"/>
<path d="M0 0 C2.81256281 -0.02684312 5.62487241 -0.04676188 8.4375 -0.0625 C9.23994141 -0.07087891 10.04238281 -0.07925781 10.86914062 -0.08789062 C12.91295221 -0.0965143 14.95683902 -0.0522815 17 0 C18 1 18 1 18.1328125 4.125 C18.13023438 5.40375 18.12765625 6.6825 18.125 8 C18.12886719 9.918125 18.12886719 9.918125 18.1328125 11.875 C18 15 18 15 17 16 C14.3226862 16.09981214 11.67695825 16.13879875 9 16.125 C7.87464844 16.13080078 7.87464844 16.13080078 6.7265625 16.13671875 C1.12661053 16.12661053 1.12661053 16.12661053 0 15 C-0.07313567 12.46950598 -0.09247527 9.96695163 -0.0625 7.4375 C-0.05798828 6.72658203 -0.05347656 6.01566406 -0.04882812 5.28320312 C-0.03700864 3.52209987 -0.01907263 1.76103964 0 0 Z " fill="#0C2C4D" transform="translate(73,102)"/>
<path d="M0 0 C2.81256281 -0.02684312 5.62487241 -0.04676188 8.4375 -0.0625 C9.23994141 -0.07087891 10.04238281 -0.07925781 10.86914062 -0.08789062 C12.91295221 -0.0965143 14.95683902 -0.0522815 17 0 C18 1 18 1 18.09765625 2.84765625 C18.06510417 4.8984375 18.03255208 6.94921875 18 9 C16.02 9.99 16.02 9.99 14 11 C15.65 12.65 17.3 14.3 19 16 C16.3125 16.3125 16.3125 16.3125 13 16 C10.375 13.5625 10.375 13.5625 8 11 C5.82653432 10.13880866 5.82653432 10.13880866 4 10 C4 11.98 4 13.96 4 16 C2.68 16 1.36 16 0 16 C0 10.72 0 5.44 0 0 Z " fill="#0C2C4C" transform="translate(2,102)"/>
<path d="M0 0 C0 4.62 0 9.24 0 14 C3.63 14 7.26 14 11 14 C11 14.99 11 15.98 11 17 C3.74 17 -3.52 17 -11 17 C-11 11.39 -11 5.78 -11 0 C-6 -1 -6 -1 0 0 Z " fill="#C0CED8" transform="translate(59,101)"/>
<path d="M0 0 C1.32 0 2.64 0 4 0 C4 5.61 4 11.22 4 17 C-1.27067636 15.94586473 -2.84474934 14.83159997 -6.8125 11.4375 C-7.78832031 10.61121094 -8.76414062 9.78492187 -9.76953125 8.93359375 C-10.50558594 8.29550781 -11.24164063 7.65742187 -12 7 C-12 10.3 -12 13.6 -12 17 C-13.32 17 -14.64 17 -16 17 C-16 11.72 -16 6.44 -16 1 C-10.9412419 2.01175162 -9.48449781 2.87302184 -5.6875 6.0625 C-4.80449219 6.79597656 -3.92148438 7.52945313 -3.01171875 8.28515625 C-2.34785156 8.85105469 -1.68398437 9.41695312 -1 10 C-0.67 6.7 -0.34 3.4 0 0 Z " fill="#28455F" transform="translate(111,101)"/>
<path d="M0 0 C4.02632148 1.50357943 5.32153378 4.71712413 7.3125 8.37109375 C7.92254883 9.43166992 7.92254883 9.43166992 8.54492188 10.51367188 C11.5 15.70368304 11.5 15.70368304 11.5 16.93359375 C9.85 16.93359375 8.2 16.93359375 6.5 16.93359375 C6.17 15.61359375 5.84 14.29359375 5.5 12.93359375 C3.70741442 13.02052516 1.91584856 13.12869879 0.125 13.24609375 C-1.37160156 13.33310547 -1.37160156 13.33310547 -2.8984375 13.421875 C-3.75695312 13.59074219 -4.61546875 13.75960937 -5.5 13.93359375 C-6.49 15.41859375 -6.49 15.41859375 -7.5 16.93359375 C-8.82 16.60359375 -10.14 16.27359375 -11.5 15.93359375 C-10.12602956 13.41913803 -8.72838181 10.92428917 -7.3125 8.43359375 C-6.92513672 7.71816406 -6.53777344 7.00273438 -6.13867188 6.265625 C-3.22169395 1.20310134 -3.22169395 1.20310134 0 0 Z " fill="#304A66" transform="translate(34.5,101.06640625)"/>
<path d="M0 0 C4.95 0 9.9 0 15 0 C15 0.66 15 1.32 15 2 C11.37 2 7.74 2 4 2 C4 3.32 4 4.64 4 6 C6.64 6 9.28 6 12 6 C12 6.99 12 7.98 12 9 C9.36 9 6.72 9 4 9 C4 10.32 4 11.64 4 13 C7.63 13 11.26 13 15 13 C15 13.99 15 14.98 15 16 C10.05 16 5.1 16 0 16 C0 10.72 0 5.44 0 0 Z " fill="#15334D" transform="translate(119,102)"/>
<path d="M0 0 C3.3 0 6.6 0 10 0 C10 3.3 10 6.6 10 10 C6.7 10 3.4 10 0 10 C0 6.7 0 3.4 0 0 Z " fill="#F3FDFD" transform="translate(77,105)"/>
<path d="M0 0 C0.99 0 1.98 0 3 0 C3 4.29 3 8.58 3 13 C6.63 13 10.26 13 14 13 C14 13.99 14 14.98 14 16 C9.38 16 4.76 16 0 16 C0 10.72 0 5.44 0 0 Z " fill="#0C2B4A" transform="translate(56,102)"/>
<path d="M0 0 C15.74487472 1.92710706 15.74487472 1.92710706 23 4 C22.67 5.32 22.34 6.64 22 8 C18.70290168 7.44498101 15.41395467 6.85125501 12.125 6.25 C11.18785156 6.09273438 10.25070313 5.93546875 9.28515625 5.7734375 C7.94130859 5.52207031 7.94130859 5.52207031 6.5703125 5.265625 C5.74289551 5.11899414 4.91547852 4.97236328 4.06298828 4.82128906 C2 4 2 4 0.71435547 1.92089844 C0.47861816 1.28700195 0.24288086 0.65310547 0 0 Z " fill="#B3B3B3" transform="translate(124,81)"/>
<path d="M0 0 C5.28 0 10.56 0 16 0 C14 2 14 2 11.3984375 2.1953125 C8.59895833 2.13020833 5.79947917 2.06510417 3 2 C3 6.62 3 11.24 3 16 C2.01 16 1.02 16 0 16 C0 10.72 0 5.44 0 0 Z " fill="#0A2A4B" transform="translate(2,102)"/>
<path d="M0 0 C-0.99 0.33 -1.98 0.66 -3 1 C-2.96519531 1.81984375 -2.93039063 2.6396875 -2.89453125 3.484375 C-2.86746094 4.56203125 -2.84039062 5.6396875 -2.8125 6.75 C-2.77769531 7.81734375 -2.74289063 8.8846875 -2.70703125 9.984375 C-3.02917214 13.30027855 -3.77148914 14.59016673 -6 17 C-6.66 16.67 -7.32 16.34 -8 16 C-8 11.05 -8 6.1 -8 1 C-5.07175348 0.02391783 -3.04386724 -0.08226668 0 0 Z " fill="#F1FCFD" transform="translate(98,101)"/>
<path d="M0 0 C5.61 0 11.22 0 17 0 C16.67 0.66 16.34 1.32 16 2 C15.7724985 3.87056791 15.59037189 5.74685958 15.4375 7.625 C15.35371094 8.62789062 15.26992187 9.63078125 15.18359375 10.6640625 C15.12300781 11.43492188 15.06242187 12.20578125 15 13 C14.67 13 14.34 13 14 13 C14 9.7 14 6.4 14 3 C10.7 3 7.4 3 4 3 C4 6.3 4 9.6 4 13 C3.67 13 3.34 13 3 13 C3 9.04 3 5.08 3 1 C2.01 1.33 1.02 1.66 0 2 C0 1.34 0 0.68 0 0 Z " fill="#3F5B73" transform="translate(73,102)"/>
<path d="M0 0 C5.28 0 10.56 0 16 0 C16 0.33 16 0.66 16 1 C11.05 1 6.1 1 1 1 C0.67 4.96 0.34 8.92 0 13 C-0.99 13.33 -1.98 13.66 -3 14 C-3 9.71 -3 5.42 -3 1 C-2.01 1.33 -1.02 1.66 0 2 C0 1.34 0 0.68 0 0 Z " fill="#DCE8ED" transform="translate(118,101)"/>
<path d="M0 0 C0.33 0.66 0.66 1.32 1 2 C6.445 1.01 6.445 1.01 12 0 C13.65 2.64 15.3 5.28 17 8 C15.35 8 13.7 8 12 8 C11.67 6.68 11.34 5.36 11 4 C5.06 4.495 5.06 4.495 -1 5 C-0.67 3.35 -0.34 1.7 0 0 Z " fill="#0A2D4E" transform="translate(29,110)"/>
<path d="M0 0 C0.99 0 1.98 0 3 0 C3.9360342 3.79267192 3.98276252 6.93674565 3.5625 10.8125 C3.40974609 12.27623047 3.40974609 12.27623047 3.25390625 13.76953125 C3.17011719 14.50558594 3.08632812 15.24164063 3 16 C2.01 16 1.02 16 0 16 C0 10.72 0 5.44 0 0 Z " fill="#183653" transform="translate(95,102)"/>
<path d="M0 0 C0.33 1.32 0.66 2.64 1 4 C4.96 4.33 8.92 4.66 13 5 C13 5.99 13 6.98 13 8 C8.38 8 3.76 8 -1 8 C-1 2 -1 2 0 0 Z " fill="#0C2B48" transform="translate(121,110)"/>
<path d="M0 0 C0.99 0 1.98 0 3 0 C3 5.28 3 10.56 3 16 C2.01 16 1.02 16 0 16 C0 10.72 0 5.44 0 0 Z " fill="#0C2B4B" transform="translate(48,102)"/>
<path d="M0 0 C3.125 0.375 3.125 0.375 6 1 C5.34 1.66 4.68 2.32 4 3 C5.65 4.65 7.3 6.3 9 8 C6.3125 8.375 6.3125 8.375 3 8 C0.93601924 6.176017 -0.39041053 4.27236161 -2 2 C-1.34 1.34 -0.68 0.68 0 0 Z " fill="#1D3954" transform="translate(12,110)"/>
<path d="M0 0 C3.3 0 6.6 0 10 0 C10 1.32 10 2.64 10 4 C6.7 4 3.4 4 0 4 C0 2.68 0 1.36 0 0 Z " fill="#F0FCFE" transform="translate(6,105)"/>
<path d="M0 0 C1.2684375 0.12375 1.2684375 0.12375 2.5625 0.25 C4.7144437 3.47791555 4.76336443 4.53400809 4.5625 8.25 C4.2325 7.59 3.9025 6.93 3.5625 6.25 C1.71267528 4.99172877 1.71267528 4.99172877 -0.4375 4.25 C-3.55535113 4.89644661 -3.55535113 4.89644661 -4.4375 7.25 C-3.40979917 0.34972299 -3.40979917 0.34972299 0 0 Z " fill="#153452" transform="translate(34.4375,101.75)"/>
<path d="M0 0 C0.66 0.66 1.32 1.32 2 2 C5.55439587 2.10244499 9.06519899 1.92935996 12.6171875 1.77734375 C16 2 16 2 20 5 C15.05 5.33 10.1 5.66 5 6 C5 5.34 5 4.68 5 4 C3.35 3.67 1.7 3.34 0 3 C0 2.01 0 1.02 0 0 Z " fill="#F2F1F1" transform="translate(144,105)"/>
<path d="M0 0 C2.64 0 5.28 0 8 0 C8 0.66 8 1.32 8 2 C8.99 2.66 9.98 3.32 11 4 C7.37 4 3.74 4 0 4 C0 2.68 0 1.36 0 0 Z " fill="#EDFBFE" transform="translate(123,111)"/>
<path d="M0 0 C0.66 0.99 1.32 1.98 2 3 C0.865625 3.309375 -0.26875 3.61875 -1.4375 3.9375 C-4.78775099 4.62924531 -4.78775099 4.62924531 -6 6 C-7.66617115 6.04063832 -9.33388095 6.042721 -11 6 C-11 4.68 -11 3.36 -11 2 C-7.37 2 -3.74 2 0 2 C0 1.34 0 0.68 0 0 Z " fill="#CDDCE3" transform="translate(134,102)"/>
<path d="M0 0 C0.33 0 0.66 0 1 0 C1 3.3 1 6.6 1 10 C4.3 10.66 7.6 11.32 11 12 C11 12.33 11 12.66 11 13 C7.37 13 3.74 13 0 13 C0 8.71 0 4.42 0 0 Z " fill="#C5D9E7" transform="translate(59,102)"/>
<path d="M0 0 C3.63 0 7.26 0 11 0 C11 0.33 11 0.66 11 1 C7.7 1 4.4 1 1 1 C1.57452746 4.93075644 1.57452746 4.93075644 4 8 C3.01 8 2.02 8 1 8 C1 9.98 1 11.96 1 14 C0.67 14 0.34 14 0 14 C-0.19747219 12.60554251 -0.38248587 11.20931848 -0.5625 9.8125 C-0.66691406 9.03519531 -0.77132813 8.25789063 -0.87890625 7.45703125 C-1 5 -1 5 0 0 Z " fill="#57758E" transform="translate(5,104)"/>
<path d="M0 0 C1.32 0.99 2.64 1.98 4 3 C4 3.99 4 4.98 4 6 C3.01 6 2.02 6 1 6 C1 9.3 1 12.6 1 16 C0.67 16 0.34 16 0 16 C0 10.72 0 5.44 0 0 Z " fill="#344E68" transform="translate(98,102)"/>
<path d="M0 0 C-0.639375 0.103125 -1.27875 0.20625 -1.9375 0.3125 C-2.618125 0.539375 -3.29875 0.76625 -4 1 C-5.00259507 4.00778521 -5.30314642 6.53820647 -5.5625 9.6875 C-5.68818359 11.17830078 -5.68818359 11.17830078 -5.81640625 12.69921875 C-5.87699219 13.45847656 -5.93757813 14.21773437 -6 15 C-6.33 15 -6.66 15 -7 15 C-7.33 10.38 -7.66 5.76 -8 1 C-5.07175348 0.02391783 -3.04386724 -0.08226668 0 0 Z " fill="#C2D3DE" transform="translate(98,101)"/>
<path d="M0 0 C2.4375 0.375 2.4375 0.375 5 1 C5.33 1.66 5.66 2.32 6 3 C5.01 3.33 4.02 3.66 3 4 C2.67 4.66 2.34 5.32 2 6 C1.34 6 0.68 6 0 6 C0 4.02 0 2.04 0 0 Z " fill="#F0F9FD" transform="translate(6,112)"/>
<path d="M0 0 C3 3.75 3 3.75 3 6 C1.02 6 -0.96 6 -3 6 C-2.01 4.02 -1.02 2.04 0 0 Z " fill="#D9EEF5" transform="translate(34,105)"/>
<path d="M0 0 C4 4.875 4 4.875 4 6 C2.35 6 0.7 6 -1 6 C-1.33 4.35 -1.66 2.7 -2 1 C-1.34 0.67 -0.68 0.34 0 0 Z " fill="#1E3E55" transform="translate(42,112)"/>
<path d="M0 0 C3.125 0.375 3.125 0.375 6 1 C5.360625 1.45375 4.72125 1.9075 4.0625 2.375 C1.90297594 3.83921726 1.90297594 3.83921726 1 6 C0.01 4.68 -0.98 3.36 -2 2 C-1.34 1.34 -0.68 0.68 0 0 Z " fill="#1E4260" transform="translate(12,110)"/>
<path d="M0 0 C3.875 1.75 3.875 1.75 5 4 C4.360625 4.12375 3.72125 4.2475 3.0625 4.375 C2.0415625 4.684375 2.0415625 4.684375 1 5 C0.67 5.66 0.34 6.32 0 7 C0 4.69 0 2.38 0 0 Z " fill="#E9F5FA" transform="translate(99,108)"/>
<path d="M0 0 C0.66 0.33 1.32 0.66 2 1 C2 3.64 2 6.28 2 9 C1.67 9 1.34 9 1 9 C1 7.02 1 5.04 1 3 C0.34 3 -0.32 3 -1 3 C-1.33 3.99 -1.66 4.98 -2 6 C-2 4.35 -2 2.7 -2 1 C-1.34 0.67 -0.68 0.34 0 0 Z " fill="#284462" transform="translate(18,102)"/>
<path d="M0 0 C3.3 0.33 6.6 0.66 10 1 C10 1.33 10 1.66 10 2 C7.36 2.66 4.72 3.32 2 4 C1.34 2.68 0.68 1.36 0 0 Z " fill="#BBBBBB" transform="translate(124,81)"/>
<path d="M0 0 C2.475 0.495 2.475 0.495 5 1 C5.33 2.32 5.66 3.64 6 5 C3 5 3 5 1.3125 3.625 C0 2 0 2 0 0 Z " fill="#153455" transform="translate(106,111)"/>
</svg>
