<?xml version="1.0" encoding="UTF-8"?>
<svg version="1.1" xmlns="http://www.w3.org/2000/svg" width="195" height="108">
<path d="M0 0 C0.81404297 -0.00386719 1.62808594 -0.00773437 2.46679688 -0.01171875 C8.43573778 -0.00176222 8.43573778 -0.00176222 9.5625 1.125 C9.72138092 3.41488781 9.81388073 5.70943441 9.87890625 8.00390625 C9.89968735 8.6905687 9.92046844 9.37723114 9.94187927 10.08470154 C10.00744143 12.28552935 10.06629015 14.48647975 10.125 16.6875 C10.16817892 18.17644514 10.211793 19.66537773 10.25585938 21.15429688 C10.3631293 24.81106553 10.46437772 28.46797318 10.5625 32.125 C10.8298999 31.22668457 11.0972998 30.32836914 11.37280273 29.40283203 C12.36465844 26.07393922 13.35815825 22.74554643 14.3527832 19.41748047 C14.78313286 17.97627178 15.21282393 16.53486626 15.6418457 15.09326172 C16.25820129 13.02259197 16.87691264 10.95263885 17.49609375 8.8828125 C17.86790771 7.6364502 18.23972168 6.39008789 18.62280273 5.10595703 C19.5625 2.125 19.5625 2.125 20.5625 0.125 C28.8125 0.125 37.0625 0.125 45.5625 0.125 C44.43886145 7.99046984 44.43886145 7.99046984 43.20800781 11.40112305 C42.93813049 12.16269211 42.66825317 12.92426117 42.39019775 13.70890808 C42.10158875 14.5100856 41.81297974 15.31126312 41.515625 16.13671875 C40.91121033 17.8816253 40.30839562 19.62708672 39.70703125 21.37304688 C38.76495668 24.09271769 37.81423236 26.8077094 36.83544922 29.5144043 C32.90429933 40.43503916 30.2351917 47.94625492 34.5625 59.125 C35.36040363 61.71995207 36.11015007 64.32671099 36.86013794 66.93589783 C37.70464279 69.87041013 38.57213849 72.79714018 39.44726562 75.72265625 C39.74286377 76.71152832 40.03846191 77.70040039 40.34301758 78.71923828 C40.95303144 80.75765338 41.5630577 82.79606478 42.1730957 84.83447266 C43.05898969 87.79785543 43.94169814 90.76217371 44.82421875 93.7265625 C45.09916672 94.64104156 45.37411469 95.55552063 45.65739441 96.49771118 C45.90798111 97.33974091 46.15856781 98.18177063 46.41674805 99.04931641 C46.63864304 99.790336 46.86053802 100.53135559 47.0891571 101.29483032 C47.5625 103.125 47.5625 103.125 47.5625 105.125 C38.3225 105.125 29.0825 105.125 19.5625 105.125 C16.1875 95 16.1875 95 14.95703125 89.77734375 C14.72089111 88.78468506 14.48475098 87.79202637 14.24145508 86.76928711 C13.9555249 85.54604736 13.66959473 84.32280762 13.375 83.0625 C12.446875 79.123125 11.51875 75.18375 10.5625 71.125 C10.2325 82.345 9.9025 93.565 9.5625 105.125 C0.3225 105.125 -8.9175 105.125 -18.4375 105.125 C-18.56804763 92.52958435 -18.69846503 79.93416737 -18.82865143 67.33874798 C-18.8891036 61.49056095 -18.94961346 55.64237453 -19.01025391 49.79418945 C-19.06874358 44.15322316 -19.12708335 38.51225533 -19.18531799 32.87128639 C-19.20759207 30.71625526 -19.2299207 28.56122469 -19.25230408 26.40619469 C-19.28358033 23.39408893 -19.31466483 20.38198126 -19.34570312 17.36987305 C-19.35505386 16.47363724 -19.3644046 15.57740143 -19.3740387 14.65400696 C-19.38665993 13.42356155 -19.38665993 13.42356155 -19.39953613 12.16825867 C-19.40691048 11.45571269 -19.41428482 10.74316671 -19.42188263 10.00902843 C-19.47441953 3.67114941 -19.47441953 3.67114941 -17.4375 1.125 C-11.61755375 0.11283543 -5.89570922 -0.02897154 0 0 Z " fill="#323065" transform="translate(20.4375,0.875)"/>
<path d="M0 0 C0.94681641 -0.02449219 1.89363281 -0.04898438 2.86914062 -0.07421875 C12.07929525 -0.11225105 18.69121831 2.70906137 25.6796875 8.6171875 C29.89312538 13.52922648 30.78090959 18.67247812 31.375 24.875 C31.45685547 25.60847656 31.53871094 26.34195312 31.62304688 27.09765625 C32.06559758 31.25540152 32.1875 35.15496912 32.1875 39.375 C22.9475 39.375 13.7075 39.375 4.1875 39.375 C3.6925 28.98 3.6925 28.98 3.1875 18.375 C0.2175 18.87 0.2175 18.87 -2.8125 19.375 C-3.55698956 23.36500958 -3.93860504 27.13653818 -3.94189453 31.19335938 C-3.94504669 32.3147229 -3.94819885 33.43608643 -3.95144653 34.59143066 C-3.9494223 35.78844604 -3.94739807 36.98546143 -3.9453125 38.21875 C-3.94626923 39.46120483 -3.94722595 40.70365967 -3.94821167 41.98376465 C-3.94906457 45.2759579 -3.94505361 48.56810359 -3.93945312 51.86029053 C-3.93750176 53.87318428 -3.93944687 55.88603443 -3.94287109 57.89892578 C-3.94905524 61.77638767 -3.94829826 65.6537854 -3.9453125 69.53125 C-3.94733673 70.72826538 -3.94936096 71.92528076 -3.95144653 73.15856934 C-3.94829437 74.27993286 -3.94514221 75.40129639 -3.94189453 76.55664062 C-3.94109894 77.5378186 -3.94030334 78.51899658 -3.93948364 79.52990723 C-3.80492226 82.54478067 -3.36561179 85.41065843 -2.8125 88.375 C-0.8325 88.705 1.1475 89.035 3.1875 89.375 C3.5175 83.105 3.8475 76.835 4.1875 70.375 C13.4275 70.375 22.6675 70.375 32.1875 70.375 C31.21476388 93.52611977 31.21476388 93.52611977 23.1875 101.375 C13.68676354 108.57555816 3.74737989 109.0953486 -7.8125 108.375 C-16.39456507 107.03651279 -22.87292925 103.16549913 -28.1875 96.3125 C-32.57180259 87.53408234 -32.11394401 76.22393274 -32.078125 66.64453125 C-32.08003845 65.48805588 -32.0819519 64.33158051 -32.08392334 63.14006042 C-32.08527325 60.71747619 -32.0816612 58.29488443 -32.07324219 55.87231445 C-32.06249619 52.18619449 -32.07319383 48.50055852 -32.0859375 44.81445312 C-32.08461627 42.44531144 -32.08205462 40.07617005 -32.078125 37.70703125 C-32.08217346 36.61824173 -32.08622192 35.52945221 -32.09039307 34.40766907 C-32.02680312 23.93356133 -31.38786437 15.15838353 -23.8125 7.375 C-16.56967509 0.97852767 -9.41985567 0.01266961 0 0 Z " fill="#333166" transform="translate(161.8125,-0.375)"/>
<path d="M0 0 C17.16 0 34.32 0 52 0 C53 1 53 1 53.11352539 3.04125977 C53.10828857 3.91580811 53.10305176 4.79035645 53.09765625 5.69140625 C53.09443359 6.63564453 53.09121094 7.57988281 53.08789062 8.55273438 C53.07532227 10.04256836 53.07532227 10.04256836 53.0625 11.5625 C53.05798828 12.55958984 53.05347656 13.55667969 53.04882812 14.58398438 C53.03700007 17.05604849 53.02051849 19.52799518 53 22 C50.39048764 23.30475618 48.47298715 23.11301572 45.5546875 23.09765625 C44.47832031 23.09443359 43.40195313 23.09121094 42.29296875 23.08789062 C41.16503906 23.07951172 40.03710938 23.07113281 38.875 23.0625 C37.17150391 23.05573242 37.17150391 23.05573242 35.43359375 23.04882812 C32.62237353 23.03701628 29.81118028 23.01908041 27 23 C27 28.61 27 34.22 27 40 C28.79308594 39.98839844 30.58617188 39.97679687 32.43359375 39.96484375 C34.76822813 39.95546771 37.10286363 39.94636731 39.4375 39.9375 C40.62150391 39.92912109 41.80550781 39.92074219 43.02539062 39.91210938 C44.15009766 39.90888672 45.27480469 39.90566406 46.43359375 39.90234375 C47.47572021 39.89710693 48.51784668 39.89187012 49.59155273 39.88647461 C52 40 52 40 53 41 C53.09899523 42.54955559 53.13079524 44.10353673 53.1328125 45.65625 C53.13474609 47.06583984 53.13474609 47.06583984 53.13671875 48.50390625 C53.13285156 49.49261719 53.12898438 50.48132812 53.125 51.5 C53.13080078 52.98306641 53.13080078 52.98306641 53.13671875 54.49609375 C53.13542969 55.43582031 53.13414063 56.37554687 53.1328125 57.34375 C53.13168457 58.21193359 53.13055664 59.08011719 53.12939453 59.97460938 C53 62 53 62 52 63 C50.14630389 63.08737645 48.28932459 63.10698153 46.43359375 63.09765625 C45.30888672 63.09443359 44.18417969 63.09121094 43.02539062 63.08789062 C41.84138672 63.07951172 40.65738281 63.07113281 39.4375 63.0625 C38.24962891 63.05798828 37.06175781 63.05347656 35.83789062 63.04882812 C32.89190588 63.03699686 29.94594684 63.01906076 27 63 C27 69.6 27 76.2 27 83 C35.58 83 44.16 83 53 83 C53 90.26 53 97.52 53 105 C35.51 105 18.02 105 0 105 C0 70.35 0 35.7 0 0 Z " fill="#2F2B5F" transform="translate(72,1)"/>
<path d="M0 0 C0.33 0 0.66 0 1 0 C1 33.99 1 67.98 1 103 C4.96 103 8.92 103 13 103 C13 96.07 13 89.14 13 82 C26.2 82 39.4 82 53 82 C53 89.26 53 96.52 53 104 C35.51 104 18.02 104 0 104 C0 69.68 0 35.36 0 0 Z " fill="#518AB9" transform="translate(72,2)"/>
<path d="M0 0 C7.38728102 -0.02526692 14.77455098 -0.0428316 22.16186523 -0.05493164 C24.67716895 -0.05997363 27.19246972 -0.06680703 29.70776367 -0.07543945 C33.31429775 -0.08751094 36.92079323 -0.09322949 40.52734375 -0.09765625 C42.22575661 -0.10539818 42.22575661 -0.10539818 43.95848083 -0.11329651 C45.51998619 -0.11340981 45.51998619 -0.11340981 47.11303711 -0.11352539 C48.03459091 -0.115746 48.95614471 -0.11796661 49.90562439 -0.12025452 C52 -0 52 -0 53 1 C53.08685603 2.56172745 53.10702219 4.12729344 53.09765625 5.69140625 C53.09443359 6.63564453 53.09121094 7.57988281 53.08789062 8.55273438 C53.07532227 10.04256836 53.07532227 10.04256836 53.0625 11.5625 C53.05798828 12.55958984 53.05347656 13.55667969 53.04882812 14.58398438 C53.03700007 17.05604849 53.02051849 19.52799518 53 22 C50.44286525 23.27856737 48.61877398 23.12945287 45.7578125 23.1328125 C44.69046875 23.13410156 43.623125 23.13539062 42.5234375 23.13671875 C40.84121094 23.13091797 40.84121094 23.13091797 39.125 23.125 C38.0421875 23.12886719 36.959375 23.13273437 35.84375 23.13671875 C15.11197917 23.11197917 15.11197917 23.11197917 13 21 C12.91330568 19.5112814 12.89296506 18.018555 12.90234375 16.52734375 C12.90556641 15.62822266 12.90878906 14.72910156 12.91210938 13.80273438 C12.92048828 12.85720703 12.92886719 11.91167969 12.9375 10.9375 C12.94426758 9.5134082 12.94426758 9.5134082 12.95117188 8.06054688 C12.96299872 5.70700469 12.98093479 3.35349468 13 1 C8.71 1 4.42 1 0 1 C0 0.67 0 0.34 0 0 Z " fill="#D82417" transform="translate(72,1)"/>
<path d="M0 0 C1.12784912 -0.00451172 2.25569824 -0.00902344 3.41772461 -0.01367188 C4.99952515 -0.01077148 4.99952515 -0.01077148 6.61328125 -0.0078125 C8.04281128 -0.00612061 8.04281128 -0.00612061 9.5012207 -0.00439453 C11.6875 0.125 11.6875 0.125 12.6875 1.125 C12.78649523 2.67455559 12.81829524 4.22853673 12.8203125 5.78125 C12.82224609 7.19083984 12.82224609 7.19083984 12.82421875 8.62890625 C12.82035156 9.61761719 12.81648438 10.60632813 12.8125 11.625 C12.81830078 13.10806641 12.81830078 13.10806641 12.82421875 14.62109375 C12.82292969 15.56082031 12.82164063 16.50054687 12.8203125 17.46875 C12.81918457 18.33693359 12.81805664 19.20511719 12.81689453 20.09960938 C12.6875 22.125 12.6875 22.125 11.6875 23.125 C9.99847009 23.22496492 8.30526559 23.25580998 6.61328125 23.2578125 C5.03148071 23.26071289 5.03148071 23.26071289 3.41772461 23.26367188 C2.28987549 23.25916016 1.16202637 23.25464844 0 23.25 C-1.1336499 23.24806641 -2.2672998 23.24613281 -3.43530273 23.24414062 C-11.4483707 23.20290995 -19.33031294 22.85899421 -27.3125 22.125 C-27.3125 15.195 -27.3125 8.265 -27.3125 1.125 C-18.18493318 0.28568351 -9.16284387 0.01562847 0 0 Z " fill="#FBDC0B" transform="translate(112.3125,40.875)"/>
<path d="M0 0 C1.12784912 -0.00451172 2.25569824 -0.00902344 3.41772461 -0.01367188 C4.99952515 -0.01077148 4.99952515 -0.01077148 6.61328125 -0.0078125 C8.04281128 -0.00612061 8.04281128 -0.00612061 9.5012207 -0.00439453 C11.6875 0.125 11.6875 0.125 12.6875 1.125 C12.78649523 2.67455559 12.81829524 4.22853673 12.8203125 5.78125 C12.82224609 7.19083984 12.82224609 7.19083984 12.82421875 8.62890625 C12.82035156 9.61761719 12.81648438 10.60632813 12.8125 11.625 C12.81830078 13.10806641 12.81830078 13.10806641 12.82421875 14.62109375 C12.82292969 15.56082031 12.82164063 16.50054687 12.8203125 17.46875 C12.81918457 18.33693359 12.81805664 19.20511719 12.81689453 20.09960938 C12.6875 22.125 12.6875 22.125 11.6875 23.125 C9.83380389 23.21237645 7.97682459 23.23198153 6.12109375 23.22265625 C4.99638672 23.21943359 3.87167969 23.21621094 2.71289062 23.21289062 C1.52888672 23.20451172 0.34488281 23.19613281 -0.875 23.1875 C-2.06287109 23.18298828 -3.25074219 23.17847656 -4.47460938 23.17382812 C-7.42062226 23.16199675 -10.36653681 23.14551287 -13.3125 23.125 C-13.3125 22.795 -13.3125 22.465 -13.3125 22.125 C-5.3925 22.125 2.5275 22.125 10.6875 22.125 C10.6875 15.525 10.6875 8.925 10.6875 2.125 C-1.1925 2.125 -13.0725 2.125 -25.3125 2.125 C-25.3125 8.395 -25.3125 14.665 -25.3125 21.125 C-21.6825 21.125 -18.0525 21.125 -14.3125 21.125 C-14.3125 21.455 -14.3125 21.785 -14.3125 22.125 C-18.6025 22.125 -22.8925 22.125 -27.3125 22.125 C-27.3125 15.195 -27.3125 8.265 -27.3125 1.125 C-18.18493318 0.28568351 -9.16284387 0.01562847 0 0 Z " fill="#EBDC69" transform="translate(112.3125,40.875)"/>
<path d="M0 0 C0.33 0 0.66 0 1 0 C1 33.99 1 67.98 1 103 C9.58 103 18.16 103 27 103 C27 88.81 27 74.62 27 60 C29.25 64.5 29.25 64.5 29.13525391 68.12597656 C29.11508209 68.92650452 29.09491028 69.72703247 29.0741272 70.55181885 C29.02583267 71.83327789 29.02583267 71.83327789 28.9765625 73.140625 C28.95153656 74.02280701 28.92651062 74.90498901 28.90072632 75.81390381 C28.81867812 78.62633558 28.72203008 81.43804914 28.625 84.25 C28.56674491 86.15882501 28.50944196 88.06767933 28.453125 89.9765625 C28.31490629 94.65160719 28.1569513 99.32539653 28 104 C18.76 104 9.52 104 0 104 C-0.13054763 91.40458435 -0.26096503 78.80916737 -0.39115143 66.21374798 C-0.4516036 60.36556095 -0.51211346 54.51737453 -0.57275391 48.66918945 C-0.63124358 43.02822316 -0.68958335 37.38725533 -0.74781799 31.74628639 C-0.77009207 29.59125526 -0.7924207 27.43622469 -0.81480408 25.28119469 C-0.84608033 22.26908893 -0.87716483 19.25698126 -0.90820312 16.24487305 C-0.91755386 15.34863724 -0.9269046 14.45240143 -0.9365387 13.52900696 C-0.94915993 12.29856155 -0.94915993 12.29856155 -0.96203613 11.04325867 C-0.96941048 10.33071269 -0.97678482 9.61816671 -0.98438263 8.88402843 C-1.01067331 5.71240665 -0.84324346 3.05675754 0 0 Z " fill="#AAA9CB" transform="translate(2,2)"/>
<path d="M0 0 C7.38728102 -0.02526692 14.77455098 -0.0428316 22.16186523 -0.05493164 C24.67716895 -0.05997363 27.19246972 -0.06680703 29.70776367 -0.07543945 C33.31429775 -0.08751094 36.92079323 -0.09322949 40.52734375 -0.09765625 C42.22575661 -0.10539818 42.22575661 -0.10539818 43.95848083 -0.11329651 C45.51998619 -0.11340981 45.51998619 -0.11340981 47.11303711 -0.11352539 C48.03459091 -0.115746 48.95614471 -0.11796661 49.90562439 -0.12025452 C52 -0 52 -0 53 1 C53.08685603 2.56172745 53.10702219 4.12729344 53.09765625 5.69140625 C53.09443359 6.63564453 53.09121094 7.57988281 53.08789062 8.55273438 C53.07532227 10.04256836 53.07532227 10.04256836 53.0625 11.5625 C53.05798828 12.55958984 53.05347656 13.55667969 53.04882812 14.58398438 C53.03700007 17.05604849 53.02051849 19.52799518 53 22 C52.34 22 51.68 22 51 22 C51 15.4 51 8.8 51 2 C48.57527344 2.01160156 46.15054688 2.02320313 43.65234375 2.03515625 C41.2492689 2.0430014 38.84619559 2.04904693 36.44311523 2.05493164 C34.79955383 2.05989612 33.15599668 2.06666991 31.51245117 2.07543945 C20.95716771 2.13026372 10.5229569 1.87126508 0 1 C0 0.67 0 0.34 0 0 Z " fill="#DE7F7A" transform="translate(72,1)"/>
<path d="M0 0 C0.71816895 -0.00338379 1.43633789 -0.00676758 2.17626953 -0.01025391 C3.35769531 -0.01605469 3.35769531 -0.01605469 4.56298828 -0.02197266 C5.79855469 -0.00457031 5.79855469 -0.00457031 7.05908203 0.01318359 C8.28304687 -0.00421875 8.28304687 -0.00421875 9.53173828 -0.02197266 C10.71703125 -0.01617188 10.71703125 -0.01617188 11.92626953 -0.01025391 C12.64669434 -0.00687012 13.36711914 -0.00348633 14.109375 0 C16.18408203 0.38818359 16.18408203 0.38818359 20.18408203 3.38818359 C12.26408203 3.38818359 4.34408203 3.38818359 -3.81591797 3.38818359 C-1.81591797 0.38818359 -1.81591797 0.38818359 0 0 Z " fill="#ED6D5E" transform="translate(102.81591796875,20.61181640625)"/>
<path d="M0 0 C8.58 0 17.16 0 26 0 C25.67 0.66 25.34 1.32 25 2 C17.74 2 10.48 2 3 2 C2.34 3.32 1.68 4.64 1 6 C0.01 6.66 -0.98 7.32 -2 8 C-1.34 5.36 -0.68 2.72 0 0 Z " fill="#3E3A70" transform="translate(40,3)"/>
<path d="M0 0 C0.33 0 0.66 0 1 0 C1 6.6 1 13.2 1 20 C0.67 20 0.34 20 0 20 C-0.16808419 17.89594609 -0.33441948 15.79175242 -0.5 13.6875 C-0.5928125 12.51574219 -0.685625 11.34398437 -0.78125 10.13671875 C-1.03711651 6.46777572 -0.97395083 3.53057176 0 0 Z " fill="#ABAAC4" transform="translate(2,2)"/>
<path d="M0 0 C0.99 0.33 1.98 0.66 3 1 C2.60196439 3.88575819 2.20990931 4.82189513 -0.0625 6.75 C-0.701875 7.1625 -1.34125 7.575 -2 8 C-1.34 5.36 -0.68 2.72 0 0 Z " fill="#585480" transform="translate(40,3)"/>
</svg>
