<?xml version="1.0" encoding="UTF-8"?>
<svg version="1.1" xmlns="http://www.w3.org/2000/svg" width="200" height="200">
<path d="M0 0 C66 0 132 0 200 0 C200 66 200 132 200 200 C134 200 68 200 0 200 C0 134 0 68 0 0 Z " fill="#020202" transform="translate(0,0)"/>
<path d="M0 0 C66 0 132 0 200 0 C200 12.54 200 25.08 200 38 C134 38 68 38 0 38 C0 25.46 0 12.92 0 0 Z " fill="#FEFEFE" transform="translate(0,162)"/>
<path d="M0 0 C66 0 132 0 200 0 C200 12.21 200 24.42 200 37 C134 37 68 37 0 37 C0 24.79 0 12.58 0 0 Z " fill="#FFFFFF" transform="translate(0,0)"/>
<path d="M0 0 C3.7082178 1.61640263 7.57479909 3.33709817 9.4375 7.0625 C10.04078125 6.82273437 10.6440625 6.58296875 11.265625 6.3359375 C12.06484375 6.03945312 12.8640625 5.74296875 13.6875 5.4375 C14.47640625 5.13585937 15.2653125 4.83421875 16.078125 4.5234375 C18.97559942 3.95737462 19.96743565 4.55534209 22.4375 6.0625 C23.7617287 6.43034131 25.09363912 6.77452981 26.4375 7.0625 C26.7675 6.0725 27.0975 5.0825 27.4375 4.0625 C28.0975 4.3925 28.7575 4.7225 29.4375 5.0625 C29.77083333 7.0625 30.10416667 9.0625 30.4375 11.0625 C31.0975 11.3925 31.7575 11.7225 32.4375 12.0625 C32.12951674 13.54261371 31.815982 15.02157325 31.5 16.5 C31.32597656 17.32371094 31.15195313 18.14742187 30.97265625 18.99609375 C30.4375 21.0625 30.4375 21.0625 29.4375 22.0625 C27.24699979 21.97232004 25.059034 21.81583792 22.875 21.625 C21.67746094 21.52316406 20.47992188 21.42132813 19.24609375 21.31640625 C18.31925781 21.23261719 17.39242187 21.14882812 16.4375 21.0625 C16.15132812 21.97257812 15.86515625 22.88265625 15.5703125 23.8203125 C14.24660726 27.60884819 12.49645122 30.63091464 10.4375 34.0625 C8.1275 34.0625 5.8175 34.0625 3.4375 34.0625 C3.7675 35.0525 4.0975 36.0425 4.4375 37.0625 C7.25865184 38.13259208 9.34294541 38.0625 12.4375 38.0625 C12.56125 37.27875 12.685 36.495 12.8125 35.6875 C13.4375 33.0625 13.4375 33.0625 15.4375 31.0625 C15.4375 32.3825 15.4375 33.7025 15.4375 35.0625 C16.4275 35.5575 16.4275 35.5575 17.4375 36.0625 C18.0975 37.0525 18.7575 38.0425 19.4375 39.0625 C20.05625 38.588125 20.675 38.11375 21.3125 37.625 C23.4375 36.0625 23.4375 36.0625 25.4375 35.0625 C25.9325 37.5375 25.9325 37.5375 26.4375 40.0625 C27.05109375 40.13339844 27.6646875 40.20429687 28.296875 40.27734375 C30.4375 41.0625 30.4375 41.0625 31.703125 43.12890625 C32.02796875 43.95261719 32.3528125 44.77632812 32.6875 45.625 C33.02265625 46.45128906 33.3578125 47.27757812 33.703125 48.12890625 C33.94546875 48.76699219 34.1878125 49.40507813 34.4375 50.0625 C36.43212722 49.2739775 36.43212722 49.2739775 38.4375 48.0625 C39.16443904 46.08361039 39.83566251 44.08295442 40.4375 42.0625 C43.14629335 40.70810332 45.44683268 40.99748549 48.4375 41.0625 C48.7675 41.7225 49.0975 42.3825 49.4375 43.0625 C47.4575 43.0625 45.4775 43.0625 43.4375 43.0625 C43.4375 43.7225 43.4375 44.3825 43.4375 45.0625 C45.0875 45.3925 46.7375 45.7225 48.4375 46.0625 C48.9325 48.5375 48.9325 48.5375 49.4375 51.0625 C47.1275 51.7225 44.8175 52.3825 42.4375 53.0625 C42.1075 55.3725 41.7775 57.6825 41.4375 60.0625 C36.35663204 60.90931133 31.58921623 61.15288099 26.4375 61.0625 C25.9425 59.0825 25.9425 59.0825 25.4375 57.0625 C26.4275 56.7325 27.4175 56.4025 28.4375 56.0625 C29.4275 56.5575 29.4275 56.5575 30.4375 57.0625 C30.4375 57.7225 30.4375 58.3825 30.4375 59.0625 C31.0975 59.0625 31.7575 59.0625 32.4375 59.0625 C32.4375 57.7425 32.4375 56.4225 32.4375 55.0625 C33.0975 55.0625 33.7575 55.0625 34.4375 55.0625 C34.4375 54.4025 34.4375 53.7425 34.4375 53.0625 C33.7775 53.0625 33.1175 53.0625 32.4375 53.0625 C32.1075 52.4025 31.7775 51.7425 31.4375 51.0625 C28.40815509 50.40477572 28.40815509 50.40477572 25.4375 50.0625 C25.4375 51.0525 25.4375 52.0425 25.4375 53.0625 C24.7775 53.0625 24.1175 53.0625 23.4375 53.0625 C23.623125 54.01125 23.80875 54.96 24 55.9375 C24.4375 59.0625 24.4375 59.0625 23.4375 61.0625 C22.4475 61.0625 21.4575 61.0625 20.4375 61.0625 C19.798125 61.26875 19.15875 61.475 18.5 61.6875 C16.4375 62.0625 16.4375 62.0625 14.5 61.0625 C11.74123974 59.72491927 10.39267938 60.37524898 7.4375 61.0625 C5.10452567 61.10342937 2.77044775 61.10491723 0.4375 61.0625 C-0.8825 61.0625 -2.2025 61.0625 -3.5625 61.0625 C-3.1875 58.625 -3.1875 58.625 -2.5625 56.0625 C-1.5725 55.5675 -1.5725 55.5675 -0.5625 55.0625 C-1.5525 54.0725 -2.5425 53.0825 -3.5625 52.0625 C-6.32473278 54.82473278 -6.14106291 57.26956617 -6.5625 61.0625 C-8.2125 61.0625 -9.8625 61.0625 -11.5625 61.0625 C-11.706875 60.44375 -11.85125 59.825 -12 59.1875 C-12.49402225 57.02991678 -12.49402225 57.02991678 -13.5625 55.0625 C-14.2225 55.0625 -14.8825 55.0625 -15.5625 55.0625 C-15.2325 56.7125 -14.9025 58.3625 -14.5625 60.0625 C-15.8825 60.0625 -17.2025 60.0625 -18.5625 60.0625 C-18.5625 59.4025 -18.5625 58.7425 -18.5625 58.0625 C-19.2225 58.0625 -19.8825 58.0625 -20.5625 58.0625 C-20.5625 58.7225 -20.5625 59.3825 -20.5625 60.0625 C-23.5325 60.5575 -23.5325 60.5575 -26.5625 61.0625 C-26.5625 59.4125 -26.5625 57.7625 -26.5625 56.0625 C-25.9025 56.0625 -25.2425 56.0625 -24.5625 56.0625 C-25.2225 54.4125 -25.8825 52.7625 -26.5625 51.0625 C-25.5725 51.0625 -24.5825 51.0625 -23.5625 51.0625 C-24.06962033 47.34361761 -24.67858215 44.32795761 -26.5625 41.0625 C-25.2425 41.7225 -23.9225 42.3825 -22.5625 43.0625 C-22.5625 43.7225 -22.5625 44.3825 -22.5625 45.0625 C-21.7890625 44.0415625 -21.7890625 44.0415625 -21 43 C-18.5625 41.0625 -18.5625 41.0625 -14.9375 41.4375 C-13.82375 41.64375 -12.71 41.85 -11.5625 42.0625 C-10.9025 41.4025 -10.2425 40.7425 -9.5625 40.0625 C-8.2425 40.0625 -6.9225 40.0625 -5.5625 40.0625 C-5.5625 39.4025 -5.5625 38.7425 -5.5625 38.0625 C-2.5925 37.5675 -2.5925 37.5675 0.4375 37.0625 C0.4375 36.4025 0.4375 35.7425 0.4375 35.0625 C-0.635 35.041875 -1.7075 35.02125 -2.8125 35 C-6.5625 34.0625 -6.5625 34.0625 -7.8125 32.578125 C-8.46250769 31.38982969 -9.07472171 30.17979146 -9.640625 28.94921875 C-10.78005615 26.61724737 -11.7003497 24.90009447 -13.5625 23.0625 C-16.54579207 22.79597383 -16.54579207 22.79597383 -19.75 23.3125 C-20.83667969 23.44140625 -21.92335938 23.5703125 -23.04296875 23.703125 C-23.87441406 23.82171875 -24.70585938 23.9403125 -25.5625 24.0625 C-25.8925 21.7525 -26.2225 19.4425 -26.5625 17.0625 C-20.90858622 15.55478966 -14.59668316 15.42743841 -8.875 16.625 C-5.63483509 17.23800417 -2.78303843 16.63083031 0.4375 16.0625 C0.7675 16.7225 1.0975 17.3825 1.4375 18.0625 C1.4375 14.7625 1.4375 11.4625 1.4375 8.0625 C0.7775 8.0625 0.1175 8.0625 -0.5625 8.0625 C-0.541875 9.031875 -0.52125 10.00125 -0.5 11 C-0.5625 14.0625 -0.5625 14.0625 -1.5625 15.0625 C-9.52719735 15.65247758 -17.62784911 14.70276001 -25.5625 14.0625 C-25.5625 12.4125 -25.5625 10.7625 -25.5625 9.0625 C-24.48871094 8.83175781 -23.41492188 8.60101563 -22.30859375 8.36328125 C-13.29724849 6.59212919 -13.29724849 6.59212919 -5.375 2.25 C-2.5625 0.0625 -2.5625 0.0625 0 0 Z " fill="#141313" transform="translate(97.5625,68.9375)"/>
<path d="M0 0 C3.7082178 1.61640263 7.57479909 3.33709817 9.4375 7.0625 C10.04078125 6.82273437 10.6440625 6.58296875 11.265625 6.3359375 C12.06484375 6.03945312 12.8640625 5.74296875 13.6875 5.4375 C14.47640625 5.13585937 15.2653125 4.83421875 16.078125 4.5234375 C18.97559942 3.95737462 19.96743565 4.55534209 22.4375 6.0625 C23.7617287 6.43034131 25.09363912 6.77452981 26.4375 7.0625 C26.7675 6.0725 27.0975 5.0825 27.4375 4.0625 C28.0975 4.3925 28.7575 4.7225 29.4375 5.0625 C29.77083333 7.0625 30.10416667 9.0625 30.4375 11.0625 C31.0975 11.3925 31.7575 11.7225 32.4375 12.0625 C32.12951674 13.54261371 31.815982 15.02157325 31.5 16.5 C31.32597656 17.32371094 31.15195313 18.14742187 30.97265625 18.99609375 C30.4375 21.0625 30.4375 21.0625 29.4375 22.0625 C27.24699979 21.97232004 25.059034 21.81583792 22.875 21.625 C21.67746094 21.52316406 20.47992188 21.42132813 19.24609375 21.31640625 C18.31925781 21.23261719 17.39242187 21.14882812 16.4375 21.0625 C16.15132812 21.97257812 15.86515625 22.88265625 15.5703125 23.8203125 C14.24660726 27.60884819 12.49645122 30.63091464 10.4375 34.0625 C8.1275 34.0625 5.8175 34.0625 3.4375 34.0625 C3.7675 35.3825 4.0975 36.7025 4.4375 38.0625 C3.1175 38.0625 1.7975 38.0625 0.4375 38.0625 C0.4375 37.0725 0.4375 36.0825 0.4375 35.0625 C-0.635 35.041875 -1.7075 35.02125 -2.8125 35 C-6.5625 34.0625 -6.5625 34.0625 -7.8125 32.578125 C-8.46250769 31.38982969 -9.07472171 30.17979146 -9.640625 28.94921875 C-10.78005615 26.61724737 -11.7003497 24.90009447 -13.5625 23.0625 C-16.54579207 22.79597383 -16.54579207 22.79597383 -19.75 23.3125 C-20.83667969 23.44140625 -21.92335938 23.5703125 -23.04296875 23.703125 C-23.87441406 23.82171875 -24.70585938 23.9403125 -25.5625 24.0625 C-25.8925 21.7525 -26.2225 19.4425 -26.5625 17.0625 C-20.90858622 15.55478966 -14.59668316 15.42743841 -8.875 16.625 C-5.63483509 17.23800417 -2.78303843 16.63083031 0.4375 16.0625 C0.7675 16.7225 1.0975 17.3825 1.4375 18.0625 C1.4375 14.7625 1.4375 11.4625 1.4375 8.0625 C0.7775 8.0625 0.1175 8.0625 -0.5625 8.0625 C-0.541875 9.031875 -0.52125 10.00125 -0.5 11 C-0.5625 14.0625 -0.5625 14.0625 -1.5625 15.0625 C-9.52719735 15.65247758 -17.62784911 14.70276001 -25.5625 14.0625 C-25.5625 12.4125 -25.5625 10.7625 -25.5625 9.0625 C-24.48871094 8.83175781 -23.41492188 8.60101563 -22.30859375 8.36328125 C-13.29724849 6.59212919 -13.29724849 6.59212919 -5.375 2.25 C-2.5625 0.0625 -2.5625 0.0625 0 0 Z " fill="#382514" transform="translate(97.5625,68.9375)"/>
<path d="M0 0 C3.0868684 1.34555802 5.71068404 3.09665593 8.4375 5.0625 C8.12741116 6.66713449 7.81433713 8.27119231 7.5 9.875 C7.32597656 10.76832031 7.15195313 11.66164063 6.97265625 12.58203125 C6.4375 15.0625 6.4375 15.0625 5.4375 18.0625 C4.1175 17.7325 2.7975 17.4025 1.4375 17.0625 C1.4375 14.0925 1.4375 11.1225 1.4375 8.0625 C0.7775 8.0625 0.1175 8.0625 -0.5625 8.0625 C-0.541875 9.031875 -0.52125 10.00125 -0.5 11 C-0.5625 14.0625 -0.5625 14.0625 -1.5625 15.0625 C-9.52719735 15.65247758 -17.62784911 14.70276001 -25.5625 14.0625 C-25.5625 12.4125 -25.5625 10.7625 -25.5625 9.0625 C-24.48871094 8.83175781 -23.41492188 8.60101563 -22.30859375 8.36328125 C-13.29724849 6.59212919 -13.29724849 6.59212919 -5.375 2.25 C-2.5625 0.0625 -2.5625 0.0625 0 0 Z " fill="#D9BA8B" transform="translate(97.5625,68.9375)"/>
<path d="M0 0 C1.98 0.99 1.98 0.99 4 2 C4 2.66 4 3.32 4 4 C4.53109375 3.32453125 5.0621875 2.6490625 5.609375 1.953125 C8 0 8 0 11.015625 0.046875 C12.08296875 0.27890625 13.1503125 0.5109375 14.25 0.75 C15.32765625 0.97171875 16.4053125 1.1934375 17.515625 1.421875 C18.33546875 1.61265625 19.1553125 1.8034375 20 2 C20 4.97 20 7.94 20 11 C20.66 11.33 21.32 11.66 22 12 C21.47731534 14.76276177 20.89130413 17.3260876 20 20 C18.35 20 16.7 20 15 20 C14.855625 19.38125 14.71125 18.7625 14.5625 18.125 C14.06847775 15.96741678 14.06847775 15.96741678 13 14 C12.34 14 11.68 14 11 14 C11.33 15.65 11.66 17.3 12 19 C10.68 19 9.36 19 8 19 C8 18.34 8 17.68 8 17 C7.34 17 6.68 17 6 17 C6 17.66 6 18.32 6 19 C4.02 19.33 2.04 19.66 0 20 C0 18.35 0 16.7 0 15 C0.66 15 1.32 15 2 15 C1.34 13.35 0.68 11.7 0 10 C0.99 10 1.98 10 3 10 C2.49287967 6.28111761 1.88391785 3.26545761 0 0 Z " fill="#080808" transform="translate(71,110)"/>
<path d="M0 0 C3.08215894 0.71204846 3.08215894 0.71204846 9.3125 -0.5625 C9.3125 5.0475 9.3125 10.6575 9.3125 16.4375 C7.3325 16.4375 5.3525 16.4375 3.3125 16.4375 C1.3984375 14.21484375 1.3984375 14.21484375 -0.3125 11.375 C-2.21131403 8.54982355 -2.21131403 8.54982355 -4.6875 6.4375 C-8.90210379 5.85242601 -12.57456238 6.43668518 -16.6875 7.4375 C-17.0175 5.1275 -17.3475 2.8175 -17.6875 0.4375 C-12.03358622 -1.07021034 -5.72168316 -1.19756159 0 0 Z " fill="#BDA06B" transform="translate(88.6875,85.5625)"/>
<path d="M0 0 C0.99 0 1.98 0 3 0 C4.32 2.97 5.64 5.94 7 9 C11.2293473 7.4564636 11.2293473 7.4564636 12.125 3.9375 C12.41375 2.968125 12.7025 1.99875 13 1 C15.70879335 -0.35439668 18.00933268 -0.06501451 21 0 C21.33 0.66 21.66 1.32 22 2 C20.02 2 18.04 2 16 2 C16 2.66 16 3.32 16 4 C18.475 4.495 18.475 4.495 21 5 C21.33 6.65 21.66 8.3 22 10 C19.69 10.66 17.38 11.32 15 12 C14.67 14.31 14.34 16.62 14 19 C8.91913204 19.84681133 4.15171623 20.09038099 -1 20 C-1.33 18.68 -1.66 17.36 -2 16 C-1.01 15.67 -0.02 15.34 1 15 C1.66 15.33 2.32 15.66 3 16 C3 16.66 3 17.32 3 18 C3.66 18 4.32 18 5 18 C5 16.68 5 15.36 5 14 C5.66 14 6.32 14 7 14 C7 13.34 7 12.68 7 12 C6.34 12 5.68 12 5 12 C4.67 11.34 4.34 10.68 4 10 C0.97065509 9.34227572 0.97065509 9.34227572 -2 9 C-2 9.66 -2 10.32 -2 11 C-2.66 11 -3.32 11 -4 11 C-3.39301257 6.87248551 -1.96189209 3.6678852 0 0 Z " fill="#0F0D0C" transform="translate(125,110)"/>
<path d="M0 0 C1.71802956 0.19587762 3.42719337 0.47047749 5.12890625 0.77734375 C6.68061523 1.05288086 6.68061523 1.05288086 8.26367188 1.33398438 C9.8965918 1.63272461 9.8965918 1.63272461 11.5625 1.9375 C12.65498047 2.13279297 13.74746094 2.32808594 14.87304688 2.52929688 C17.58298106 3.0144816 20.29185498 3.50494238 23 4 C22.34 5.65 21.68 7.3 21 9 C15.76580643 9.16335585 11.13693808 8.60552037 6.0625 7.5 C5.03672852 7.28537109 5.03672852 7.28537109 3.99023438 7.06640625 C2.32550486 6.71716229 0.66255125 6.35947054 -1 6 C-1.042721 4.33388095 -1.04063832 2.66617115 -1 1 C-0.67 0.67 -0.34 0.34 0 0 Z " fill="#B59B6E" transform="translate(106,82)"/>
<path d="M0 0 C2.60466582 0.47657292 5.20871714 0.95614719 7.8125 1.4375 C8.91948242 1.63956055 8.91948242 1.63956055 10.04882812 1.84570312 C13.11315076 2.41419737 16.03928953 3.01309651 19 4 C19.33 5.65 19.66 7.3 20 9 C12.60860415 8.59248958 6.00177279 7.41492814 -1 5 C-0.67 3.35 -0.34 1.7 0 0 Z " fill="#BEA377" transform="translate(108,75)"/>
<path d="M0 0 C-0.33 1.98 -0.66 3.96 -1 6 C0.32 5.67 1.64 5.34 3 5 C2.34 6.32 1.68 7.64 1 9 C-4.28 8.67 -9.56 8.34 -15 8 C-15 6.35 -15 4.7 -15 3 C-13.25183142 2.49363393 -11.50137737 1.99515381 -9.75 1.5 C-8.77546875 1.2215625 -7.8009375 0.943125 -6.796875 0.65625 C-4 0 -4 0 0 0 Z " fill="#BCA179" transform="translate(87,75)"/>
<path d="M0 0 C1.98 0.99 1.98 0.99 4 2 C4 2.66 4 3.32 4 4 C4.61875 3.34 5.2375 2.68 5.875 2 C8 0 8 0 10 0 C9.731875 0.639375 9.46375 1.27875 9.1875 1.9375 C7.64635858 5.91202261 6.32390688 9.94884495 5 14 C6.98 14 8.96 14 11 14 C11.33 15.65 11.66 17.3 12 19 C10.68 19 9.36 19 8 19 C8 18.34 8 17.68 8 17 C7.34 17 6.68 17 6 17 C6 17.66 6 18.32 6 19 C4.02 19.33 2.04 19.66 0 20 C0 18.35 0 16.7 0 15 C0.66 15 1.32 15 2 15 C1.34 13.35 0.68 11.7 0 10 C0.99 10 1.98 10 3 10 C2.49287967 6.28111761 1.88391785 3.26545761 0 0 Z " fill="#26211E" transform="translate(71,110)"/>
<path d="M0 0 C2.64752004 2.57784846 4.94432065 4.91648098 7 8 C7 8.99 7 9.98 7 11 C9.64 11 12.28 11 15 11 C14.67 11.99 14.34 12.98 14 14 C12.02 14.33 10.04 14.66 8 15 C8 15.66 8 16.32 8 17 C4.71303767 17.79953138 3.28976808 18.09658936 0 17 C-0.33 16.01 -0.66 15.02 -1 14 C-0.34 13.34 0.32 12.68 1 12 C1.66 12.33 2.32 12.66 3 13 C3 11.35 3 9.7 3 8 C2.01 7.67 1.02 7.34 0 7 C0 4.69 0 2.38 0 0 Z " fill="#0D0C0A" transform="translate(84,92)"/>
<path d="M0 0 C-0.99 0.495 -0.99 0.495 -2 1 C-2 1.66 -2 2.32 -2 3 C-1.34 3.33 -0.68 3.66 0 4 C-1.32 4.33 -2.64 4.66 -4 5 C-4 5.66 -4 6.32 -4 7 C-7.3 7.33 -10.6 7.66 -14 8 C-14.33 5.69 -14.66 3.38 -15 1 C-10.03926578 -0.32286246 -5.08888488 -0.08893197 0 0 Z " fill="#BFA070" transform="translate(86,85)"/>
<path d="M0 0 C0.66 0 1.32 0 2 0 C2.73030908 6.21324498 3.23180249 11.84098757 2 18 C1.67 18 1.34 18 1 18 C1 14.7 1 11.4 1 8 C-1.413125 8.5259375 -1.413125 8.5259375 -3.875 9.0625 C-8.75 10.125 -8.75 10.125 -11 9 C-13.54197964 8.6087065 -16.07391589 8.25520881 -18.625 7.9375 C-19.68460937 7.80118164 -19.68460937 7.80118164 -20.765625 7.66210938 C-22.5100041 7.43816881 -24.25495134 7.21866182 -26 7 C-26 5.02 -26 3.04 -26 1 C-25.67 1 -25.34 1 -25 1 C-25 2.65 -25 4.3 -25 6 C-17.08 6 -9.16 6 -1 6 C-0.67 4.02 -0.34 2.04 0 0 Z " fill="#392615" transform="translate(97,77)"/>
<path d="M0 0 C2.4375 0.375 2.4375 0.375 5 1 C5.33 1.66 5.66 2.32 6 3 C6.33 2.67 6.66 2.34 7 2 C8.99958364 1.95919217 11.00045254 1.95745644 13 2 C12.67 3.32 12.34 4.64 12 6 C6.62508134 7.13156182 1.47815268 7 -4 7 C-4.33 5.68 -4.66 4.36 -5 3 C-4.34 2.67 -3.68 2.34 -3 2 C-2.34 2.33 -1.68 2.66 -1 3 C-0.67 2.01 -0.34 1.02 0 0 Z " fill="#3B2F2C" transform="translate(104,123)"/>
<path d="M0 0 C4 2 4 2 5 4 C5.6496875 3.01 5.6496875 3.01 6.3125 2 C6.869375 1.34 7.42625 0.68 8 0 C8.99 0 9.98 0 11 0 C11 3.63 11 7.26 11 11 C10.34 11 9.68 11 9 11 C8.67 9.02 8.34 7.04 8 5 C7.01 6.485 7.01 6.485 6 8 C5.34 8 4.68 8 4 8 C3.67 7.34 3.34 6.68 3 6 C2.67 7.98 2.34 9.96 2 12 C1.34 12 0.68 12 0 12 C0 8.04 0 4.08 0 0 Z " fill="#CECECE" transform="translate(53,110)"/>
<path d="M0 0 C1.77155654 0.11429397 3.54226229 0.24183037 5.3125 0.375 C6.79169922 0.47941406 6.79169922 0.47941406 8.30078125 0.5859375 C11 1 11 1 14 3 C13.01 4.485 13.01 4.485 12 6 C9.1796875 6.29296875 9.1796875 6.29296875 5.875 6.1875 C4.23144531 6.14689453 4.23144531 6.14689453 2.5546875 6.10546875 C1.29011719 6.05326172 1.29011719 6.05326172 0 6 C0 4.02 0 2.04 0 0 Z " fill="#CDB488" transform="translate(100,89)"/>
<path d="M0 0 C1.65 0 3.3 0 5 0 C5 1.65 5 3.3 5 5 C6.65 5 8.3 5 10 5 C10.33 5.99 10.66 6.98 11 8 C8.36 8.66 5.72 9.32 3 10 C2.67 9.34 2.34 8.68 2 8 C0.07361988 7.24756445 0.07361988 7.24756445 -2 7 C-2.99 7.495 -2.99 7.495 -4 8 C-3.67 7.01 -3.34 6.02 -3 5 C-2.01 5 -1.02 5 0 5 C0 3.35 0 1.7 0 0 Z " fill="#070505" transform="translate(106,117)"/>
<path d="M0 0 C1.32 0.66 2.64 1.32 4 2 C3.68991116 3.60463449 3.37683713 5.20869231 3.0625 6.8125 C2.88847656 7.70582031 2.71445313 8.59914063 2.53515625 9.51953125 C2 12 2 12 1 15 C-0.32 14.67 -1.64 14.34 -3 14 C-3.29341888 8.32723489 -3.00559652 5.00932754 0 0 Z " fill="#C5AD7E" transform="translate(102,72)"/>
<path d="M0 0 C0.33 0 0.66 0 1 0 C1 2.31 1 4.62 1 7 C1.66 7.33 2.32 7.66 3 8 C2.34 8 1.68 8 1 8 C1 9.32 1 10.64 1 12 C1.66 12 2.32 12 3 12 C3 12.66 3 13.32 3 14 C3.66 14 4.32 14 5 14 C5.33 12.68 5.66 11.36 6 10 C7.32 10 8.64 10 10 10 C10 11.98 10 13.96 10 16 C7.69 16 5.38 16 3 16 C2.67 15.01 2.34 14.02 2 13 C1.67 13.99 1.34 14.98 1 16 C0.01 15.67 -0.98 15.34 -2 15 C-1.85973717 12.68715544 -1.71264442 10.37472409 -1.5625 8.0625 C-1.48128906 6.77472656 -1.40007813 5.48695312 -1.31640625 4.16015625 C-1 1 -1 1 0 0 Z " fill="#403935" transform="translate(61,114)"/>
<path d="M0 0 C0.99 0 1.98 0 3 0 C3.67119549 1.4562545 4.33681807 2.91507867 5 4.375 C5.556875 5.59316406 5.556875 5.59316406 6.125 6.8359375 C7 9 7 9 7 11 C2.545 10.01 2.545 10.01 -2 9 C-2 9.66 -2 10.32 -2 11 C-2.66 11 -3.32 11 -4 11 C-3.39301257 6.87248551 -1.96189209 3.6678852 0 0 Z " fill="#A2A1A2" transform="translate(125,110)"/>
<path d="M0 0 C0.66 0.33 1.32 0.66 2 1 C2 1.66 2 2.32 2 3 C4.31 3.33 6.62 3.66 9 4 C5.77208445 6.1519437 4.71599191 6.20086443 1 6 C0.67 7.65 0.34 9.3 0 11 C1.5778125 10.9690625 1.5778125 10.9690625 3.1875 10.9375 C6.32704904 10.98896802 8.96883396 11.26517187 12 12 C7.10597449 15.26268367 2.62487184 13.08868487 -3 12 C-2.01 8.04 -1.02 4.08 0 0 Z " fill="#27120B" transform="translate(105,77)"/>
<path d="M0 0 C0.5775 0.37125 1.155 0.7425 1.75 1.125 C0.75 4.125 0.75 4.125 -0.25 5.125 C-2.43639453 5.19758946 -4.62500389 5.20873783 -6.8125 5.1875 C-8.60880859 5.17396484 -8.60880859 5.17396484 -10.44140625 5.16015625 C-11.36824219 5.14855469 -12.29507813 5.13695312 -13.25 5.125 C-13.58 3.805 -13.91 2.485 -14.25 1.125 C-13.26 0.795 -12.27 0.465 -11.25 0.125 C-10.59 0.455 -9.93 0.785 -9.25 1.125 C-9.25 1.785 -9.25 2.445 -9.25 3.125 C-8.59 3.125 -7.93 3.125 -7.25 3.125 C-6.92 2.465 -6.59 1.805 -6.25 1.125 C-3.74135451 -0.60510034 -2.90919109 -1.13135209 0 0 Z " fill="#3A3433" transform="translate(137.25,124.875)"/>
<path d="M0 0 C3.3 0.66 6.6 1.32 10 2 C10 3.65 10 5.3 10 7 C8.54119891 6.85892253 7.08296449 6.71197585 5.625 6.5625 C4.40683594 6.44068359 4.40683594 6.44068359 3.1640625 6.31640625 C1 6 1 6 -1 5 C-0.67 3.35 -0.34 1.7 0 0 Z " fill="#BDA780" transform="translate(108,75)"/>
<path d="M0 0 C3.63 0 7.26 0 11 0 C10.34 1.65 9.68 3.3 9 5 C6.03 5 3.06 5 0 5 C0 3.35 0 1.7 0 0 Z " fill="#AA936C" transform="translate(100,97)"/>
<path d="M0 0 C1.4540625 0.0309375 1.4540625 0.0309375 2.9375 0.0625 C3.2675 0.7225 3.5975 1.3825 3.9375 2.0625 C1.9575 2.0625 -0.0225 2.0625 -2.0625 2.0625 C-2.0625 2.7225 -2.0625 3.3825 -2.0625 4.0625 C-0.4125 4.3925 1.2375 4.7225 2.9375 5.0625 C3.31968767 6.71864657 3.65145102 8.38707024 3.9375 10.0625 C2.9375 11.0625 2.9375 11.0625 -0.125 11.125 C-1.094375 11.104375 -2.06375 11.08375 -3.0625 11.0625 C-3.3925 10.4025 -3.7225 9.7425 -4.0625 9.0625 C-1.0925 9.5575 -1.0925 9.5575 1.9375 10.0625 C1.9375 9.0725 1.9375 8.0825 1.9375 7.0625 C0.2875 6.7325 -1.3625 6.4025 -3.0625 6.0625 C-3.44468767 4.40635343 -3.77645102 2.73792976 -4.0625 1.0625 C-3.0625 0.0625 -3.0625 0.0625 0 0 Z " fill="#D9D9D9" transform="translate(143.0625,109.9375)"/>
<path d="M0 0 C0.33 0 0.66 0 1 0 C1.02694851 1.95825873 1.04637218 3.91662226 1.0625 5.875 C1.07410156 6.96554688 1.08570312 8.05609375 1.09765625 9.1796875 C1 12 1 12 0 14 C-2.97 13.505 -2.97 13.505 -6 13 C-5.67 11.68 -5.34 10.36 -5 9 C-4.34 9 -3.68 9 -3 9 C-3 8.34 -3 7.68 -3 7 C-2.01 7 -1.02 7 0 7 C0 4.69 0 2.38 0 0 Z " fill="#AA8C5C" transform="translate(97,85)"/>
<path d="M0 0 C2 1 2 1 3.25 3.375 C3.4975 4.24125 3.745 5.1075 4 6 C3.01 7.485 3.01 7.485 2 9 C1.34 9 0.68 9 0 9 C-0.474375 8.505 -0.94875 8.01 -1.4375 7.5 C-2.99969942 5.65373409 -2.99969942 5.65373409 -6 6 C-5.67 5.01 -5.34 4.02 -5 3 C-3.67696283 2.6278958 -2.34262065 2.29369827 -1 2 C-0.67 1.34 -0.34 0.68 0 0 Z " fill="#151515" transform="translate(75,105)"/>
<path d="M0 0 C0.66 0 1.32 0 2 0 C2 0.66 2 1.32 2 2 C2.99 2.33 3.98 2.66 5 3 C4.67 4.65 4.34 6.3 4 8 C2.02 8 0.04 8 -2 8 C-2 6.02 -2 4.04 -2 2 C-1.34 2 -0.68 2 0 2 C0 1.34 0 0.68 0 0 Z " fill="#262826" transform="translate(108,107)"/>
<path d="M0 0 C0.66 0 1.32 0 2 0 C2 1.65 2 3.3 2 5 C3.98 5 5.96 5 8 5 C8 3.35 8 1.7 8 0 C8.33 0 8.66 0 9 0 C9 3.63 9 7.26 9 11 C8.67 11 8.34 11 8 11 C8 9.35 8 7.7 8 6 C6.02 6 4.04 6 2 6 C2 7.65 2 9.3 2 11 C1.34 11 0.68 11 0 11 C0 7.37 0 3.74 0 0 Z " fill="#F6F6F6" transform="translate(104,110)"/>
<path d="M0 0 C3.3 0 6.6 0 10 0 C10 0.66 10 1.32 10 2 C8.68 2 7.36 2 6 2 C6 4.97 6 7.94 6 11 C5.34 11 4.68 11 4 11 C4 8.03 4 5.06 4 2 C2.68 2 1.36 2 0 2 C0 1.34 0 0.68 0 0 Z " fill="#D3D3D1" transform="translate(87,110)"/>
<path d="M0 0 C-0.33 1.32 -0.66 2.64 -1 4 C-0.34 4.33 0.32 4.66 1 5 C0 6 0 6 -3.5625 6.0625 C-4.696875 6.041875 -5.83125 6.02125 -7 6 C-7 4.35 -7 2.7 -7 1 C-4.53721199 -0.231394 -2.7204945 -0.07159196 0 0 Z " fill="#BBA686" transform="translate(79,77)"/>
<path d="M0 0 C1.98 0.99 1.98 0.99 4 2 C4 2.66 4 3.32 4 4 C4.61875 3.34 5.2375 2.68 5.875 2 C8 0 8 0 10 0 C9.566875 1.051875 9.566875 1.051875 9.125 2.125 C7.97866412 5.05452503 6.97374346 8.00921653 6 11 C5.34 11 4.68 11 4 11 C3.71125 9.9275 3.4225 8.855 3.125 7.75 C2.27179891 4.90599636 1.4363497 2.56491017 0 0 Z " fill="#E1E1E1" transform="translate(71,110)"/>
<path d="M0 0 C0.66 0 1.32 0 2 0 C2 0.66 2 1.32 2 2 C4.64 2 7.28 2 10 2 C9.67 2.99 9.34 3.98 9 5 C8.030625 5.12375 7.06125 5.2475 6.0625 5.375 C4.5465625 5.684375 4.5465625 5.684375 3 6 C2.67 6.66 2.34 7.32 2 8 C0 1.125 0 1.125 0 0 Z " fill="#080503" transform="translate(89,101)"/>
<path d="M0 0 C1.32 0.66 2.64 1.32 4 2 C4 2.99 4 3.98 4 5 C3.34 5 2.68 5 2 5 C1.67 5.66 1.34 6.32 1 7 C-0.65 7 -2.3 7 -4 7 C-4.33 5.68 -4.66 4.36 -5 3 C-4.34 2.67 -3.68 2.34 -3 2 C-2.34 2.33 -1.68 2.66 -1 3 C-0.67 2.01 -0.34 1.02 0 0 Z " fill="#382D2A" transform="translate(104,123)"/>
<path d="M0 0 C1.32257813 0.46986328 1.32257813 0.46986328 2.671875 0.94921875 C3.56390625 1.25472656 4.4559375 1.56023437 5.375 1.875 C6.05046875 2.12636719 6.7259375 2.37773438 7.421875 2.63671875 C7.751875 1.64671875 8.081875 0.65671875 8.421875 -0.36328125 C9.081875 -0.03328125 9.741875 0.29671875 10.421875 0.63671875 C10.421875 1.95671875 10.421875 3.27671875 10.421875 4.63671875 C8.52576066 4.49458578 6.62999106 4.34784968 4.734375 4.19921875 C3.67863281 4.11800781 2.62289062 4.03679687 1.53515625 3.953125 C-1.22898797 3.67220194 -3.86758241 3.23515023 -6.578125 2.63671875 C-3.30022566 -0.4650318 -3.30022566 -0.4650318 0 0 Z " fill="#0F0704" transform="translate(116.578125,73.36328125)"/>
<path d="M0 0 C1.32 0.33 2.64 0.66 4 1 C3.67 2.98 3.34 4.96 3 7 C1.35 7 -0.3 7 -2 7 C-2.33 5.68 -2.66 4.36 -3 3 C-2.01 2.67 -1.02 2.34 0 2 C0 1.34 0 0.68 0 0 Z " fill="#393331" transform="translate(88,123)"/>
<path d="M0 0 C2.71631546 0.90543849 5.34771188 1.92474806 8 3 C8.33 2.34 8.66 1.68 9 1 C9 2.65 9 4.3 9 6 C3.52173913 6.36521739 3.52173913 6.36521739 1.125 4.6875 C0 3 0 3 0 0 Z " fill="#B49D73" transform="translate(89,96)"/>
<path d="M0 0 C0.66 0 1.32 0 2 0 C2.73030908 6.21324498 3.23180249 11.84098757 2 18 C1.67 18 1.34 18 1 18 C1 14.7 1 11.4 1 8 C-0.98 8 -2.96 8 -5 8 C-4.0409375 7.690625 -4.0409375 7.690625 -3.0625 7.375 C-0.65074923 6.10461791 -0.65074923 6.10461791 -0.25 2.875 C-0.1675 1.92625 -0.085 0.9775 0 0 Z " fill="#1F0B02" transform="translate(97,77)"/>
<path d="M0 0 C0.99 0.33 1.98 0.66 3 1 C2.34 3.31 1.68 5.62 1 8 C-0.65 8 -2.3 8 -4 8 C-4 7.01 -4 6.02 -4 5 C-3.34 5 -2.68 5 -2 5 C-2.33 4.01 -2.66 3.02 -3 2 C-2.01 1.67 -1.02 1.34 0 1 C0 0.67 0 0.34 0 0 Z " fill="#BEA578" transform="translate(95,76)"/>
<path d="M0 0 C0.33 0.66 0.66 1.32 1 2 C3.64 2 6.28 2 9 2 C9 2.33 9 2.66 9 3 C6.69 3 4.38 3 2 3 C2.33 4.32 2.66 5.64 3 7 C1.68 7 0.36 7 -1 7 C-1 6.01 -1 5.02 -1 4 C-3.31 3.67 -5.62 3.34 -8 3 C-7.67 2.34 -7.34 1.68 -7 1 C-4.69 1.33 -2.38 1.66 0 2 C0 1.34 0 0.68 0 0 Z " fill="#2D2117" transform="translate(99,100)"/>
<path d="M0 0 C0.33 1.32 0.66 2.64 1 4 C1.66 4 2.32 4 3 4 C2.67 3.01 2.34 2.02 2 1 C3.32 1.33 4.64 1.66 6 2 C5.34 4.31 4.68 6.62 4 9 C2.68 8.67 1.36 8.34 0 8 C0 5.36 0 2.72 0 0 Z " fill="#B8A079" transform="translate(99,78)"/>
<path d="M0 0 C0.99 0.33 1.98 0.66 3 1 C2.67 2.65 2.34 4.3 2 6 C-1 6 -1 6 -4 5 C-2.25 1.125 -2.25 1.125 0 0 Z " fill="#DFBF90" transform="translate(99,71)"/>
<path d="M0 0 C0.99 0.99 1.98 1.98 3 3 C2.01 3.33 1.02 3.66 0 4 C0 7.63 0 11.26 0 15 C0.66 15.33 1.32 15.66 2 16 C0.68 16.33 -0.64 16.66 -2 17 C-2 11.72 -2 6.44 -2 1 C-1.34 0.67 -0.68 0.34 0 0 Z " fill="#1C1D1D" transform="translate(104,106)"/>
<path d="M0 0 C2.0625 0.4375 2.0625 0.4375 4 1 C4 1.66 4 2.32 4 3 C4.66 3 5.32 3 6 3 C6.33 2.34 6.66 1.68 7 1 C7.33 1.66 7.66 2.32 8 3 C7.67 3.66 7.34 4.32 7 5 C4.69 5 2.38 5 0 5 C-0.5625 3.0625 -0.5625 3.0625 -1 1 C-0.67 0.67 -0.34 0.34 0 0 Z " fill="#473E3D" transform="translate(124,125)"/>
<path d="M0 0 C0.99 0 1.98 0 3 0 C3.67119549 1.4562545 4.33681807 2.91507867 5 4.375 C5.556875 5.59316406 5.556875 5.59316406 6.125 6.8359375 C7 9 7 9 7 11 C6.01 10.67 5.02 10.34 4 10 C4 9.34 4 8.68 4 8 C3.34 7.67 2.68 7.34 2 7 C2 5.68 2 4.36 2 3 C1.34 3 0.68 3 0 3 C0 2.01 0 1.02 0 0 Z " fill="#DFDEDE" transform="translate(125,110)"/>
<path d="M0 0 C2.96404505 2.80804268 5.44499019 5.18315774 7 9 C4.69 8.34 2.38 7.68 0 7 C0 4.69 0 2.38 0 0 Z " fill="#21160B" transform="translate(84,92)"/>
<path d="M0 0 C2.31 0 4.62 0 7 0 C6.34 1.65 5.68 3.3 5 5 C3.68 4.67 2.36 4.34 1 4 C1.33 3.34 1.66 2.68 2 2 C1.34 2 0.68 2 0 2 C0 1.34 0 0.68 0 0 Z " fill="#B79F7A" transform="translate(122,86)"/>
<path d="M0 0 C1.65 0.33 3.3 0.66 5 1 C5.33 1.99 5.66 2.98 6 4 C2.7 4.33 -0.6 4.66 -4 5 C-4 4.01 -4 3.02 -4 2 C-2.68 2.33 -1.36 2.66 0 3 C0 2.01 0 1.02 0 0 Z " fill="#9A8155" transform="translate(76,88)"/>
<path d="M0 0 C1.98 0 3.96 0 6 0 C5.67 1.65 5.34 3.3 5 5 C3.68 4.67 2.36 4.34 1 4 C0.67 4.66 0.34 5.32 0 6 C0 4.02 0 2.04 0 0 Z " fill="#BAA074" transform="translate(100,89)"/>
<path d="M0 0 C0.99 0 1.98 0 3 0 C3 0.99 3 1.98 3 3 C4.32 3.33 5.64 3.66 7 4 C5.68 4.33 4.36 4.66 3 5 C3 5.66 3 6.32 3 7 C0.525 6.01 0.525 6.01 -2 5 C-1.01 4.34 -0.02 3.68 1 3 C0.67 2.01 0.34 1.02 0 0 Z " fill="#D4B787" transform="translate(84,86)"/>
<path d="M0 0 C0.99 0 1.98 0 3 0 C3 3.63 3 7.26 3 11 C2.34 11 1.68 11 1 11 C0.67 7.37 0.34 3.74 0 0 Z " fill="#EBEBEB" transform="translate(61,110)"/>
<path d="M0 0 C-0.99 1.485 -0.99 1.485 -2 3 C-4.1640625 3.29296875 -4.1640625 3.29296875 -6.625 3.1875 C-7.44226563 3.16042969 -8.25953125 3.13335937 -9.1015625 3.10546875 C-10.04128906 3.05326172 -10.04128906 3.05326172 -11 3 C-9.68 2.67 -8.36 2.34 -7 2 C-7 1.34 -7 0.68 -7 0 C-3.98968256 -0.93423645 -3.13349732 -1.04449911 0 0 Z " fill="#1C1A1F" transform="translate(99,107)"/>
<path d="M0 0 C0.99 0 1.98 0 3 0 C3 1.65 3 3.3 3 5 C1.68 5 0.36 5 -1 5 C-0.67 3.35 -0.34 1.7 0 0 Z " fill="#483E3D" transform="translate(95,125)"/>
<path d="M0 0 C-0.33 1.65 -0.66 3.3 -1 5 C-2.98 4.34 -4.96 3.68 -7 3 C-6.67 2.34 -6.34 1.68 -6 1 C-3.911361 0.32624548 -2.19636905 0 0 0 Z " fill="#D6BB8D" transform="translate(97,85)"/>
<path d="M0 0 C2.6875 0.3125 2.6875 0.3125 5 1 C3.68 2.32 2.36 3.64 1 5 C-0.32 4.34 -1.64 3.68 -3 3 C-1.8125 1.4375 -1.8125 1.4375 0 0 Z " fill="#B6A27B" transform="translate(95,69)"/>
<path d="M0 0 C3.875 1.75 3.875 1.75 5 4 C2.64561267 5.42944945 1.51967567 6.08661261 -1.25 5.625 C-1.8275 5.41875 -2.405 5.2125 -3 5 C-2.67 4.01 -2.34 3.02 -2 2 C-2 2.66 -2 3.32 -2 4 C-1.34 4 -0.68 4 0 4 C0 2.68 0 1.36 0 0 Z " fill="#5C504D" transform="translate(108,124)"/>
<path d="M0 0 C2.97 0.99 5.94 1.98 9 3 C9 3.99 9 4.98 9 6 C6.03 5.01 3.06 4.02 0 3 C0 2.01 0 1.02 0 0 Z " fill="#C7A96E" transform="translate(87,86)"/>
<path d="M0 0 C0.33 0 0.66 0 1 0 C1 2.31 1 4.62 1 7 C1.66 7.33 2.32 7.66 3 8 C2.34 8 1.68 8 1 8 C1 8.99 1 9.98 1 11 C0.34 11 -0.32 11 -1 11 C-1.02688151 9.35425434 -1.04634123 7.70838587 -1.0625 6.0625 C-1.07410156 5.14597656 -1.08570313 4.22945313 -1.09765625 3.28515625 C-1 1 -1 1 0 0 Z " fill="#222121" transform="translate(61,114)"/>
<path d="M0 0 C0.99 0.495 0.99 0.495 2 1 C2 1.66 2 2.32 2 3 C4.31 3.33 6.62 3.66 9 4 C6 6 6 6 3.3125 5.625 C2.549375 5.41875 1.78625 5.2125 1 5 C0.67 3.35 0.34 1.7 0 0 Z " fill="#3F2818" transform="translate(105,77)"/>
<path d="M0 0 C1.98 0 3.96 0 6 0 C5.67 0.99 5.34 1.98 5 3 C2.9375 3.6875 2.9375 3.6875 1 4 C0.67 2.68 0.34 1.36 0 0 Z " fill="#463E39" transform="translate(72,126)"/>
<path d="M0 0 C2.1640625 0.0234375 2.1640625 0.0234375 4.625 0.375 C5.85089844 0.54128906 5.85089844 0.54128906 7.1015625 0.7109375 C7.72804688 0.80632812 8.35453125 0.90171875 9 1 C4.8204355 3.78637633 2.85331323 2.79562512 -2 2 C-1.34 1.34 -0.68 0.68 0 0 Z " fill="#412917" transform="translate(108,88)"/>
<path d="M0 0 C2.475 0.99 2.475 0.99 5 2 C4.67 2.99 4.34 3.98 4 5 C2.68 5 1.36 5 0 5 C0 3.35 0 1.7 0 0 Z " fill="#A9926A" transform="translate(105,83)"/>
<path d="M0 0 C1.65 0 3.3 0 5 0 C5 1.65 5 3.3 5 5 C3.68 5 2.36 5 1 5 C0.67 3.35 0.34 1.7 0 0 Z " fill="#C8AD7F" transform="translate(113,77)"/>
<path d="M0 0 C0.66 0 1.32 0 2 0 C2.33 1.65 2.66 3.3 3 5 C2.01 5 1.02 5 0 5 C-0.66 4.01 -1.32 3.02 -2 2 C-1.34 2 -0.68 2 0 2 C0 1.34 0 0.68 0 0 Z " fill="#0F0908" transform="translate(77,127)"/>
<path d="M0 0 C1.65 0.33 3.3 0.66 5 1 C5 1.99 5 2.98 5 4 C2.03 3.505 2.03 3.505 -1 3 C-0.67 2.01 -0.34 1.02 0 0 Z " fill="#2D2D2E" transform="translate(140,116)"/>
<path d="M0 0 C0.66 0.33 1.32 0.66 2 1 C0.68 3.31 -0.64 5.62 -2 8 C-2.99 7.67 -3.98 7.34 -5 7 C-5 6.34 -5 5.68 -5 5 C-4.01 4.67 -3.02 4.34 -2 4 C-0.79117904 1.99983534 -0.79117904 1.99983534 0 0 Z " fill="#1C110D" transform="translate(129,86)"/>
<path d="M0 0 C2.1875 1.4375 2.1875 1.4375 4 3 C3 4 3 4 0.4375 4.0625 C-0.7690625 4.0315625 -0.7690625 4.0315625 -2 4 C-2.33 3.01 -2.66 2.02 -3 1 C-2.01 0.67 -1.02 0.34 0 0 Z " fill="#CEB48A" transform="translate(76,79)"/>
<path d="M0 0 C0.99 0.33 1.98 0.66 3 1 C2.67 2.65 2.34 4.3 2 6 C1.01 5.67 0.02 5.34 -1 5 C-0.67 3.35 -0.34 1.7 0 0 Z " fill="#AA9268" transform="translate(118,77)"/>
<path d="M0 0 C0.86625 0.3403125 0.86625 0.3403125 1.75 0.6875 C1.75 1.6775 1.75 2.6675 1.75 3.6875 C-0.89 3.3575 -3.53 3.0275 -6.25 2.6875 C-2.80384615 -0.38942308 -2.80384615 -0.38942308 0 0 Z " fill="#23180F" transform="translate(116.25,73.3125)"/>
</svg>
