<?xml version="1.0" encoding="UTF-8"?>
<svg version="1.1" xmlns="http://www.w3.org/2000/svg" width="300" height="129">
<path d="M0 0 C99 0 198 0 300 0 C300 42.57 300 85.14 300 129 C201 129 102 129 0 129 C0 86.43 0 43.86 0 0 Z " fill="#FEFEFE" transform="translate(0,0)"/>
<path d="M0 0 C0.88115479 0.46301514 1.76230957 0.92603027 2.67016602 1.40307617 C4.16737183 2.18497314 4.16737183 2.18497314 5.69482422 2.98266602 C6.76047607 3.54808105 7.82612793 4.11349609 8.92407227 4.69604492 C10.03935303 5.28208496 11.15463379 5.868125 12.30371094 6.47192383 C20.21914392 10.6450358 28.09268568 14.89346339 35.93212891 19.20751953 C41.19893633 22.10385983 46.48764725 24.95262704 51.80297852 27.75854492 C53.06954598 28.42919132 54.33606618 29.09992697 55.60253906 29.77075195 C57.45835827 30.75360879 59.31514078 31.73427071 61.17617798 32.70721436 C78.75391591 41.89857259 78.75391591 41.89857259 82.45922852 48.28198242 C84.19611385 54.13093337 83.9701035 60.35053551 83.93261719 66.40209961 C83.92406037 68.51147697 83.95301183 70.61818074 83.98461914 72.72729492 C83.98623055 74.08406495 83.98565476 75.44083972 83.98266602 76.79760742 C83.98451904 78.01399902 83.98637207 79.23039062 83.98828125 80.48364258 C83.36048901 84.73796605 82.52676496 86.81256621 79.48657227 89.88354492 C72.2757297 91.94287856 64.80769417 88.14507468 58.23266602 85.50854492 C57.09120621 85.06462402 55.9497464 84.62070313 54.7736969 84.16333008 C51.15143301 82.75087166 47.53783435 81.31759659 43.92407227 79.88354492 C41.46042311 78.91861432 38.9962354 77.95505752 36.53149414 76.99291992 C30.50900271 74.64149277 24.49869575 72.26206075 18.48657227 69.88354492 C18.15657227 83.74354492 17.82657227 97.60354492 17.48657227 111.88354492 C-0.38842773 102.13354492 -0.38842773 102.13354492 -2.51342773 97.88354492 C-2.62381029 96.27116994 -2.67254473 94.65438005 -2.69042969 93.03833008 C-2.70968254 91.5263353 -2.70968254 91.5263353 -2.72932434 89.98379517 C-2.73671127 88.89110321 -2.74409821 87.79841125 -2.75170898 86.67260742 C-2.75978073 85.55292572 -2.76785248 84.43324402 -2.77616882 83.27963257 C-2.79001607 80.90738477 -2.80073535 78.53511699 -2.80859375 76.1628418 C-2.82582455 72.53029817 -2.86970831 68.8986602 -2.91381836 65.26635742 C-2.92394339 62.9642808 -2.93246008 60.66219642 -2.93920898 58.36010742 C-2.95671707 57.27146393 -2.97422516 56.18282043 -2.99226379 55.06118774 C-2.98933823 54.0468869 -2.98641266 53.03258606 -2.98339844 51.98754883 C-2.98926468 51.09645416 -2.99513092 50.2053595 -3.00117493 49.28726196 C-2.34453026 46.05118391 -1.12492955 44.85116177 1.48657227 42.88354492 C7.8579836 41.91281441 14.3103745 45.18001737 19.94750977 47.77807617 C20.81872467 48.16670334 21.68993958 48.55533051 22.58755493 48.95573425 C25.35100216 50.19078609 28.1064811 51.44247844 30.86157227 52.69604492 C34.49189048 54.33314069 38.12528611 55.96328759 41.76000977 57.59057617 C42.62068054 57.97706329 43.48135132 58.36355042 44.36810303 58.76174927 C50.32165074 61.41695604 56.28856039 63.84844401 62.48657227 65.88354492 C62.76342961 62.48268921 62.85462262 60.9286248 61.48657227 57.88354492 C57.6427851 54.82923598 53.26266899 52.82122743 48.86157227 50.69604492 C47.58487179 50.05222121 46.30989866 49.40496146 45.03662109 48.75439453 C43.09027879 47.76034818 41.1431724 46.76845775 39.19032288 45.7872467 C33.06816528 42.70830808 27.11518651 39.36026978 21.17407227 35.94604492 C19.31649941 34.89307892 17.45844345 33.84096464 15.59985352 32.78979492 C13.10369518 31.37485527 10.61087897 29.9556217 8.12866211 28.51635742 C6.04812325 27.31051273 3.95680505 26.12610649 1.86157227 24.94604492 C0.73493164 24.29764648 -0.39170898 23.64924805 -1.55249023 22.98120117 C-4.39571988 21.58163984 -4.39571988 21.58163984 -6.85375977 22.62841797 C-9.64457266 23.94543367 -12.33532945 25.36182115 -15.02905273 26.86791992 C-16.10340576 27.46668945 -17.17775879 28.06545898 -18.28466797 28.68237305 C-19.43265869 29.32625977 -20.58064941 29.97014648 -21.76342773 30.63354492 C-22.96519763 31.30500949 -24.16710394 31.97622994 -25.36914062 32.6472168 C-27.85131673 34.03350273 -30.33244353 35.42164068 -32.81274414 36.8112793 C-36.34989352 38.79281462 -39.89038623 40.76829195 -43.43139648 42.74291992 C-45.60468605 43.95626014 -47.77786774 45.16979359 -49.95092773 46.38354492 C-50.93673828 46.93365234 -51.92254883 47.48375977 -52.93823242 48.05053711 C-54.83567539 49.11266824 -56.72920426 50.18182732 -58.6184082 51.25854492 C-60.68231988 52.41703675 -62.76737562 53.53819157 -64.86547852 54.63354492 C-66.50299072 55.51526367 -66.50299072 55.51526367 -68.17358398 56.41479492 C-69.17139893 56.9362207 -70.16921387 57.45764648 -71.19726562 57.99487305 C-73.81769055 59.75138766 -73.81769055 59.75138766 -74.34716797 63.1003418 C-74.40203369 64.01879883 -74.45689941 64.93725586 -74.51342773 65.88354492 C-63.91880301 62.02170126 -53.73772795 57.43275651 -43.51342773 52.69604492 C-41.1562262 51.60775284 -38.79849357 50.5206304 -36.44018555 49.43473816 C-34.98696795 48.7652175 -33.53445036 48.09417455 -32.08276367 47.42134094 C-20.79824115 42.21017206 -20.79824115 42.21017206 -14.51342773 42.88354492 C-11.76013752 44.67916897 -9.98715312 45.93609414 -8.51342773 48.88354492 C-8.37737737 51.94833749 -8.30060863 54.98920171 -8.27514648 58.05541992 C-8.26707474 58.97059387 -8.25900299 59.88576782 -8.25068665 60.82867432 C-8.23684144 62.76882022 -8.22612124 64.70899053 -8.21826172 66.64916992 C-8.20107624 69.6079774 -8.15719766 72.56565959 -8.11303711 75.52416992 C-8.10290772 77.40957837 -8.09439239 79.29499633 -8.08764648 81.18041992 C-8.0701384 82.06187683 -8.05263031 82.94333374 -8.03459167 83.85150146 C-8.05374739 89.31203368 -8.62625496 92.72200664 -12.51342773 96.88354492 C-14.9380421 98.20629493 -16.9207377 99.05164555 -19.51342773 99.88354492 C-20.80086884 100.31094467 -20.80086884 100.31094467 -22.11431885 100.74697876 C-25.23073781 101.756528 -28.35801208 102.72415863 -31.48999023 103.68432617 C-32.65106293 104.04318405 -33.81213562 104.40204193 -35.00839233 104.77177429 C-37.46719137 105.53082386 -39.92656624 106.28801029 -42.38647461 107.04345703 C-46.0786441 108.17767958 -49.76882718 109.31817776 -53.45874023 110.4597168 C-67.43198266 114.77179689 -81.43717546 118.92026709 -95.51342773 122.88354492 C-95.51342773 115.62354492 -95.51342773 108.36354492 -95.51342773 100.88354492 C-83.54313287 96.22843025 -71.57094053 91.83264188 -59.3684082 87.83056641 C-52.74688783 85.65091516 -46.17672586 83.36406948 -39.63842773 80.94604492 C-38.84162598 80.65141357 -38.04482422 80.35678223 -37.22387695 80.05322266 C-33.31048275 78.60519762 -33.31048275 78.60519762 -29.51342773 76.88354492 C-29.10613546 74.56197895 -28.76904097 72.22666622 -28.51342773 69.88354492 C-34.97018527 71.31979403 -40.88692319 73.48879309 -47.00561523 75.98120117 C-49.03017674 76.79089136 -51.05492208 77.60012204 -53.07983398 78.40893555 C-56.23716483 79.67643235 -59.39277247 80.94780869 -62.54516602 82.22753906 C-65.61082809 83.4694504 -68.68262169 84.69506424 -71.75561523 85.91870117 C-72.68509979 86.3009938 -73.61458435 86.68328644 -74.57223511 87.0771637 C-86.45908756 91.77995851 -86.45908756 91.77995851 -92.51342773 90.88354492 C-97.25872754 86.04600128 -96.0334909 79.26023442 -96.0144043 72.92211914 C-96.01343648 70.65404462 -96.05497054 68.38940846 -96.09936523 66.12182617 C-96.22193077 52.59701814 -96.22193077 52.59701814 -92.21972656 47.51098633 C-85.39734513 41.00390454 -76.91328682 36.71032001 -68.68066406 32.2611084 C-66.12133463 30.87768253 -63.56942206 29.48082036 -61.01705933 28.08459473 C-59.71703434 27.37346231 -58.41668101 26.66292982 -57.11599731 25.95300293 C-51.21887227 22.73197634 -45.35996618 19.44548614 -39.51342773 16.13354492 C-38.59682373 15.61695312 -37.68021973 15.10036133 -36.73583984 14.56811523 C-31.99252422 11.88753249 -27.28136362 9.16215998 -22.59936523 6.37573242 C-21.16077148 5.52833496 -21.16077148 5.52833496 -19.69311523 4.66381836 C-17.87068099 3.58825219 -16.05509596 2.50096451 -14.24780273 1.40014648 C-13.43569336 0.92287109 -12.62358398 0.4455957 -11.78686523 -0.04614258 C-11.07965332 -0.47137207 -10.37244141 -0.89660156 -9.64379883 -1.3347168 C-6.01975516 -2.66455725 -3.41583514 -1.51730103 0 0 Z " fill="#044EA1" transform="translate(155.513427734375,3.116455078125)"/>
<path d="M0 0 C3.3582842 1.29568372 6.55519335 2.73415258 9.74609375 4.3984375 C10.65383545 4.87128174 11.56157715 5.34412598 12.49682617 5.83129883 C13.95245972 6.59543091 13.95245972 6.59543091 15.4375 7.375 C16.45884033 7.90955811 17.48018066 8.44411621 18.5324707 8.99487305 C26.17887055 13.01089625 33.77614947 17.11150546 41.34399414 21.2734375 C46.64787302 24.18666923 51.97299546 27.05394283 57.32421875 29.87890625 C58.58964863 30.5489797 59.85502952 31.21914567 61.12036133 31.8894043 C62.9745246 32.87145326 64.82965637 33.8512942 66.6890564 34.82339478 C84.26734257 44.01502581 84.26734257 44.01502581 87.97265625 50.3984375 C89.70954159 56.24738845 89.48353124 62.46699059 89.44604492 68.51855469 C89.43748811 70.62793205 89.46643956 72.73463582 89.49804688 74.84375 C89.49965829 76.20052003 89.4990825 77.5572948 89.49609375 78.9140625 C89.49794678 80.1304541 89.4997998 81.3468457 89.50170898 82.60009766 C88.87391674 86.85442113 88.04019269 88.92902129 85 92 C77.78915743 94.05933364 70.32112191 90.26152975 63.74609375 87.625 C62.60463394 87.1810791 61.46317413 86.7371582 60.28712463 86.27978516 C56.66486075 84.86732674 53.05126208 83.43405167 49.4375 82 C46.97385084 81.0350694 44.50966314 80.0715126 42.04492188 79.109375 C36.02243044 76.75794785 30.01212348 74.37851582 24 72 C23.67 85.86 23.34 99.72 23 114 C5.125 104.25 5.125 104.25 3 100 C2.88961744 98.38762502 2.840883 96.77083513 2.82299805 95.15478516 C2.81016281 94.14678864 2.79732758 93.13879211 2.78410339 92.10025024 C2.77302299 90.46121231 2.77302299 90.46121231 2.76171875 88.7890625 C2.74961113 87.10953995 2.74961113 87.10953995 2.73725891 85.39608765 C2.72341166 83.02383985 2.71269239 80.65157207 2.70483398 78.27929688 C2.68760319 74.64675325 2.64371943 71.01511528 2.59960938 67.3828125 C2.58948435 65.08073587 2.58096765 62.7786515 2.57421875 60.4765625 C2.55671066 59.38791901 2.53920258 58.29927551 2.52116394 57.17764282 C2.52408951 56.16334198 2.52701508 55.14904114 2.5300293 54.10400391 C2.52416306 53.21290924 2.51829681 52.32181458 2.51225281 51.40371704 C3.16889748 48.16763899 4.38849818 46.96761685 7 45 C13.37141133 44.02926949 19.82380223 47.29647244 25.4609375 49.89453125 C26.3321524 50.28315842 27.20336731 50.67178558 28.10098267 51.07218933 C30.8644299 52.30724117 33.61990884 53.55893352 36.375 54.8125 C40.00531822 56.44959577 43.63871385 58.07974266 47.2734375 59.70703125 C48.13410828 60.09351837 48.99477905 60.48000549 49.88153076 60.87820435 C55.83507847 63.53341111 61.80198812 65.96489909 68 68 C68.27685734 64.59914428 68.36805035 63.04507988 67 60 C63.15621284 56.94569106 58.77609672 54.93768251 54.375 52.8125 C53.09829952 52.16867629 51.82332639 51.52141654 50.55004883 50.87084961 C48.60370653 49.87680326 46.65660013 48.88491283 44.70375061 47.90370178 C38.5817001 44.82481701 32.62739927 41.47869844 26.6875 38.0625 C19.59954294 34.01565137 12.48321109 30.04937769 5.2487793 26.26977539 C1.09311288 24.09311288 1.09311288 24.09311288 0 23 C-0.08713831 21.29227642 -0.10700007 19.58101351 -0.09765625 17.87109375 C-0.09443359 16.83662109 -0.09121094 15.80214844 -0.08789062 14.73632812 C-0.07951172 13.64771484 -0.07113281 12.55910156 -0.0625 11.4375 C-0.05798828 10.34501953 -0.05347656 9.25253906 -0.04882812 8.12695312 C-0.03699826 5.41791505 -0.02051543 2.70898401 0 0 Z " fill="#0188CE" transform="translate(150,1)"/>
<path d="M0 0 C0.98742187 0.56847656 1.97484375 1.13695313 2.9921875 1.72265625 C3.6840918 2.09664551 4.37599609 2.47063477 5.08886719 2.85595703 C7.70956845 4.28703299 10.2870109 5.78228964 12.8671875 7.28515625 C24.13109377 13.76043872 35.57022569 19.86441362 47.07568359 25.89672852 C50.72782495 27.8147155 54.36461425 29.75855135 57.9921875 31.72265625 C58.88244629 32.20371826 59.77270508 32.68478027 60.68994141 33.18041992 C62.90234375 34.453125 62.90234375 34.453125 65.9921875 36.72265625 C66.66735628 39.66553036 66.4061727 41.66951538 65.9921875 44.72265625 C60.38104451 44.13290328 55.80121948 42.08499598 50.71875 39.79296875 C49.83617523 39.40196991 48.95360046 39.01097107 48.04428101 38.60812378 C45.23231698 37.36111235 42.42460176 36.10487283 39.6171875 34.84765625 C36.81623041 33.59919381 34.01440479 32.35273462 31.21151733 31.10861206 C29.47164756 30.3357174 27.73298473 29.56009787 25.99575806 28.78128052 C15.8823975 23.77928548 15.8823975 23.77928548 4.9921875 22.72265625 C2.78374467 24.35640968 2.07367752 25.25503444 1.59777832 27.9859314 C1.58935913 28.87019806 1.58093994 29.75446472 1.57226562 30.66552734 C1.55635376 31.67022064 1.54044189 32.67491394 1.52404785 33.71005249 C1.52374573 35.33664291 1.52374573 35.33664291 1.5234375 36.99609375 C1.51582397 38.11198883 1.50821045 39.22788391 1.50036621 40.37759399 C1.48955404 42.73966228 1.48671661 45.10177843 1.49121094 47.46386719 C1.49218194 51.07698499 1.4505971 54.68797094 1.40625 58.30078125 C1.40104218 60.59504765 1.39835482 62.88932144 1.3984375 65.18359375 C1.38204224 66.2639389 1.36564697 67.34428406 1.34875488 68.45736694 C1.37086066 74.46699281 1.37086066 74.46699281 4.10351562 79.67431641 C7.27741591 81.92491 10.45047254 84.06450822 13.8046875 86.03515625 C14.40216797 86.39416016 14.99964844 86.75316406 15.61523438 87.12304688 C17.07032706 87.99610249 18.53071479 88.86032316 19.9921875 89.72265625 C20.02977173 87.96622803 20.02977173 87.96622803 20.06811523 86.17431641 C20.16212453 81.83940247 20.26236091 77.50465121 20.36450195 73.16992188 C20.40787539 71.29203083 20.44954868 69.41409973 20.48950195 67.53613281 C20.54714626 64.84037185 20.61085731 62.14481298 20.67578125 59.44921875 C20.69249374 58.60646393 20.70920624 57.76370911 20.72642517 56.89541626 C20.87831579 50.95039966 20.87831579 50.95039966 21.9921875 48.72265625 C25.42343433 49.33139593 28.52056253 50.20211539 31.76318359 51.47265625 C33.14018936 52.00826172 33.14018936 52.00826172 34.54501343 52.5546875 C35.52531525 52.94011719 36.50561707 53.32554688 37.515625 53.72265625 C39.60930524 54.53533599 41.70305749 55.34783025 43.796875 56.16015625 C47.08507516 57.44124768 50.3723298 58.72467044 53.65820312 60.01171875 C56.8373709 61.25516049 60.01999089 62.48941029 63.203125 63.72265625 C64.17937836 64.10808594 65.15563171 64.49351563 66.16146851 64.890625 C71.14681298 66.81651787 75.65992476 68.25088875 80.9921875 68.72265625 C80.9921875 69.05265625 80.9921875 69.38265625 80.9921875 69.72265625 C75.16153011 70.01249326 69.33064609 70.29707108 63.49951172 70.57714844 C61.52320735 70.67277089 59.54696738 70.76973557 57.57080078 70.86816406 C45.69470954 71.45865465 33.88371703 71.83537217 21.9921875 71.72265625 C21.9921875 78.32265625 21.9921875 84.92265625 21.9921875 91.72265625 C4.14834055 97.16078103 4.14834055 97.16078103 -1.5625 94.55859375 C-3.10800557 93.58549765 -4.64970289 92.60632647 -6.1875 91.62109375 C-10.48287731 90.25276026 -13.76346115 91.49404935 -18.0078125 92.72265625 C-18.95156738 92.9861084 -19.89532227 93.24956055 -20.86767578 93.52099609 C-23.96294961 94.39943191 -27.04838472 95.30690688 -30.1328125 96.22265625 C-32.21871256 96.83736663 -34.30464912 97.45195318 -36.390625 98.06640625 C-37.30215332 98.33646484 -38.21368164 98.60652344 -39.15283203 98.88476562 C-40.09497559 99.16126953 -41.03711914 99.43777344 -42.0078125 99.72265625 C-43.07507568 100.08278809 -44.14233887 100.44291992 -45.24194336 100.81396484 C-49.87794974 101.9326174 -54.13155069 101.97349401 -58.87890625 101.91796875 C-60.26240013 101.91372391 -60.26240013 101.91372391 -61.67384338 101.90939331 C-64.59780263 101.89826599 -67.52144701 101.87317537 -70.4453125 101.84765625 C-72.43684451 101.83761682 -74.42838136 101.82849265 -76.41992188 101.8203125 C-81.282672 101.79835108 -86.145189 101.76387298 -91.0078125 101.72265625 C-87.80094119 99.58474204 -85.14504602 98.72425204 -81.46020508 97.61547852 C-80.46932892 97.31503128 -80.46932892 97.31503128 -79.45843506 97.0085144 C-77.27442477 96.34745333 -75.08839048 95.69335447 -72.90234375 95.0390625 C-71.37864507 94.57879338 -69.85510292 94.11800581 -68.33171082 93.65672302 C-64.31651898 92.44206386 -60.29968787 91.23292609 -56.28234863 90.02539062 C-49.87010027 88.0974877 -43.45977548 86.16323651 -37.05057335 84.22523308 C-34.82024695 83.55201276 -32.58887574 82.88234742 -30.3573761 82.21302795 C-17.41208114 79.11972657 -17.41208114 79.11972657 -7.0078125 71.72265625 C-5.88543969 69.47791062 -5.85903529 68.21075226 -5.81494141 65.71948242 C-5.79084702 64.48260933 -5.79084702 64.48260933 -5.76626587 63.2207489 C-5.72178722 59.44787426 -5.68074987 55.67517516 -5.65771484 51.90209961 C-5.64115699 49.91272278 -5.61386922 47.9234054 -5.57568359 45.93432617 C-5.52088986 43.0652787 -5.49903733 40.19762538 -5.484375 37.328125 C-5.45037094 35.99819771 -5.45037094 35.99819771 -5.41567993 34.6414032 C-5.43038593 30.33781946 -5.63796611 28.2699272 -8.10302734 24.62231445 C-11.87901576 22.1529107 -13.54511518 22.05641465 -18.0078125 22.72265625 C-21.33129733 23.84109751 -24.46393351 25.27779084 -27.6328125 26.7734375 C-28.53854004 27.18804733 -29.44426758 27.60265717 -30.37744141 28.02983093 C-33.26009001 29.35263345 -36.13394782 30.69339297 -39.0078125 32.03515625 C-40.93953718 32.92636021 -42.87182393 33.81634693 -44.8046875 34.70507812 C-47.53539965 35.96107102 -50.26517782 37.21874638 -52.99072266 38.48591614 C-55.32659259 39.57185114 -57.666457 40.64861156 -60.0078125 41.72265625 C-60.67200195 42.03383392 -61.33619141 42.3450116 -62.02050781 42.6656189 C-65.34493631 44.17539362 -67.26731249 44.72265625 -71.0078125 44.72265625 C-71.5078125 42.03515625 -71.5078125 42.03515625 -71.0078125 38.72265625 C-69.61108398 37.53173828 -69.61108398 37.53173828 -67.69140625 36.41796875 C-66.96099121 35.9887915 -66.23057617 35.55961426 -65.47802734 35.11743164 C-64.66285645 34.65715576 -63.84768555 34.19687988 -63.0078125 33.72265625 C-62.15010254 33.2320874 -61.29239258 32.74151855 -60.40869141 32.23608398 C-57.47108179 30.57012764 -54.52215136 28.92576112 -51.5703125 27.28515625 C-49.35156188 26.04687611 -47.1328119 24.80859483 -44.9140625 23.5703125 C-42.61203069 22.28766793 -40.30994701 21.00511647 -38.0078125 19.72265625 C-33.5273529 17.22496531 -29.04847832 14.72445687 -24.5703125 12.22265625 C-23.55976807 11.66006104 -22.54922363 11.09746582 -21.50805664 10.51782227 C-20.53989014 9.97697998 -19.57172363 9.4361377 -18.57421875 8.87890625 C-17.6423877 8.36199219 -16.71055664 7.84507813 -15.75048828 7.3125 C-13.89247224 6.23546595 -12.0674108 5.09986921 -10.27685547 3.9140625 C-3.79929073 -0.35032421 -3.79929073 -0.35032421 0 0 Z " fill="#CCD0D2" transform="translate(152.0078125,24.27734375)"/>
<path d="M0 0 C0 2.31 0 4.62 0 7 C-6.6583136 10.62489408 -13.61023053 13.09713971 -20.77392578 15.51928711 C-22.76144384 16.19136975 -24.74612774 16.87133483 -26.73046875 17.55273438 C-40.34073804 22.20404059 -40.34073804 22.20404059 -45.109375 21.87890625 C-45.86347656 21.83056641 -46.61757812 21.78222656 -47.39453125 21.73242188 C-48.17183594 21.67634766 -48.94914062 21.62027344 -49.75 21.5625 C-50.54277344 21.51029297 -51.33554688 21.45808594 -52.15234375 21.40429688 C-54.10193997 21.27510676 -56.05102886 21.13830035 -58 21 C-55.12939181 19.52133596 -52.22903909 18.23662347 -49.23486328 17.02880859 C-48.29353546 16.64856537 -47.35220764 16.26832214 -46.38235474 15.8765564 C-42.09647292 14.15758192 -37.80955893 12.4412748 -33.52001953 10.73144531 C-31.25852316 9.82788758 -28.99874643 8.92001371 -26.74072266 8.0078125 C-23.47947669 6.69056037 -20.21310856 5.38684124 -16.9453125 4.0859375 C-15.93888702 3.6766098 -14.93246155 3.2672821 -13.89553833 2.84555054 C-5.22445464 -0.57608893 -5.22445464 -0.57608893 0 0 Z " fill="#B4B8BE" transform="translate(127,73)"/>
<path d="M0 0 C5.61 0 11.22 0 17 0 C17 2.31 17 4.62 17 7 C10.77012202 6.49487476 5.54525767 3.67395877 0 1 C0 0.67 0 0.34 0 0 Z " fill="#F7FAFD" transform="translate(201,62)"/>
<path d="M0 0 C1.39456452 0.00667256 2.78911118 0.01863093 4.18359375 0.03515625 C4.89451172 0.03966797 5.60542969 0.04417969 6.33789062 0.04882812 C8.09899388 0.06064761 9.86005411 0.07858362 11.62109375 0.09765625 C9.37490248 2.6021954 7.25483037 3.93339781 4.18359375 5.28515625 C3.42175781 5.62933594 2.65992187 5.97351563 1.875 6.328125 C-0.37890625 7.09765625 -0.37890625 7.09765625 -4.37890625 7.09765625 C-4.42144981 5.09810879 -4.41971408 3.09723989 -4.37890625 1.09765625 C-3.37890625 0.09765625 -3.37890625 0.09765625 0 0 Z " fill="#F8F9FC" transform="translate(85.37890625,61.90234375)"/>
</svg>
