<?xml version="1.0" encoding="UTF-8"?>
<svg version="1.1" xmlns="http://www.w3.org/2000/svg" width="111" height="96">
<path d="M0 0 C2.9022226 2.46987882 5.64114353 4.99904793 8 8 C8 8.66 8 9.32 8 10 C7.34104736 9.91435791 6.68209473 9.82871582 6.00317383 9.74047852 C2.94004936 9.34438253 -0.12371191 8.95342845 -3.1875 8.5625 C-4.22326172 8.42779297 -5.25902344 8.29308594 -6.32617188 8.15429688 C-7.36708984 8.02216797 -8.40800781 7.89003906 -9.48046875 7.75390625 C-10.41785889 7.63345947 -11.35524902 7.5130127 -12.32104492 7.38891602 C-17.86902568 6.80241835 -23.43753766 6.42788172 -29 6 C-29 19.53 -29 33.06 -29 47 C-30.98 47 -32.96 47 -35 47 C-35.33 33.8 -35.66 20.6 -36 7 C-44.48441879 6.90237128 -44.48441879 6.90237128 -52.7109375 7.62109375 C-54.11279297 7.81735352 -54.11279297 7.81735352 -55.54296875 8.01757812 C-56.47753906 8.15615234 -57.41210938 8.29472656 -58.375 8.4375 C-59.33277344 8.57220703 -60.29054688 8.70691406 -61.27734375 8.84570312 C-65.54747982 9.45444992 -69.77482826 10.12739996 -74 11 C-70.47681414 2.94700375 -63.93159279 -1.72990173 -56.046875 -5.359375 C-37.96280019 -12.17796059 -16.12479111 -11.05348276 0 0 Z " fill="#2463A9" transform="translate(88,9)"/>
<path d="M0 0 C2 2 2 2 2.27734375 4.859375 C2.11452486 10.42115305 0.7439091 15.83439464 -0.4375 21.25 C-0.66759766 22.33796875 -0.89769531 23.4259375 -1.13476562 24.546875 C-2.83151355 32.49454066 -2.83151355 32.49454066 -4 36 C-15.20260131 34.16350798 -24.98839422 29.12539869 -32 20 C-34.74090873 15.15711059 -35.5575674 10.57567404 -35 5 C-28.13713334 -1.86286666 -9.2347336 -0.45416723 0 0 Z " fill="#2264AC" transform="translate(47,19)"/>
<path d="M0 0 C0.83265381 0.08677002 1.66530762 0.17354004 2.52319336 0.26293945 C6.1447965 0.66084918 9.59993683 1.11611117 13.125 2.0625 C14.53799185 8.09982883 13.9139033 12.49427726 11.125 18.0625 C5.42623105 26.43773563 -2.3481441 31.09511865 -11.875 34.0625 C-13.54105481 34.10765698 -15.20922997 34.11716257 -16.875 34.0625 C-17.72543068 30.27446462 -18.55212761 26.48160893 -19.375 22.6875 C-19.73271484 21.09615234 -19.73271484 21.09615234 -20.09765625 19.47265625 C-21.50954905 12.89726977 -22.21390634 6.78602526 -21.875 0.0625 C-15.85703969 -2.94648016 -6.54907294 -0.68339772 0 0 Z " fill="#2363A9" transform="translate(84.875,19.9375)"/>
<path d="M0 0 C4.29 0 8.58 0 13 0 C16.92920126 9.24517943 20.5206405 18.57822925 24 28 C20.04 28 16.08 28 12 28 C10.09275253 23.66534667 8.50808924 19.52426773 7 15 C5.35 19.29 3.7 23.58 2 28 C-1.96 28 -5.92 28 -10 28 C-7.89918094 21.59411787 -5.66068523 15.25652038 -3.3125 8.9375 C-2.99216797 8.07189453 -2.67183594 7.20628906 -2.34179688 6.31445312 C-1.56248846 4.20915725 -0.78143019 2.10450925 0 0 Z " fill="#2364AA" transform="translate(87,68)"/>
<path d="M0 0 C1.79244141 0.01740234 1.79244141 0.01740234 3.62109375 0.03515625 C5.41740234 0.04869141 5.41740234 0.04869141 7.25 0.0625 C8.17683594 0.07410156 9.10367188 0.08570312 10.05859375 0.09765625 C11.48702286 3.76218477 12.91107051 7.42838194 14.33105469 11.09619141 C15.05301222 12.9582604 15.77844613 14.81898032 16.50390625 16.6796875 C16.95507812 17.84628906 17.40625 19.01289062 17.87109375 20.21484375 C18.29003906 21.29362793 18.70898438 22.37241211 19.140625 23.48388672 C20.05859375 26.09765625 20.05859375 26.09765625 20.05859375 28.09765625 C16.09859375 28.09765625 12.13859375 28.09765625 8.05859375 28.09765625 C7.64287109 26.81568359 7.64287109 26.81568359 7.21875 25.5078125 C6.85652344 24.40308594 6.49429688 23.29835938 6.12109375 22.16015625 C5.58162109 20.50693359 5.58162109 20.50693359 5.03125 18.8203125 C4.32002707 16.2164215 4.32002707 16.2164215 3.05859375 15.09765625 C2.78144531 15.95230469 2.50429688 16.80695313 2.21875 17.6875 C1.85652344 18.79222656 1.49429688 19.89695312 1.12109375 21.03515625 C0.76144531 22.13730469 0.40179688 23.23945312 0.03125 24.375 C-0.94140625 27.09765625 -0.94140625 27.09765625 -1.94140625 28.09765625 C-3.79428127 28.16992127 -5.64974503 28.18146845 -7.50390625 28.16015625 C-8.51582031 28.15113281 -9.52773438 28.14210938 -10.5703125 28.1328125 C-11.35277344 28.12121094 -12.13523437 28.10960938 -12.94140625 28.09765625 C-12.3049541 24.52484532 -11.36931279 21.24067831 -10.12890625 17.83203125 C-9.77570312 16.86007813 -9.4225 15.888125 -9.05859375 14.88671875 C-8.68992187 13.88382813 -8.32125 12.8809375 -7.94140625 11.84765625 C-7.38839844 10.32011719 -7.38839844 10.32011719 -6.82421875 8.76171875 C-3.66775803 0.12177151 -3.66775803 0.12177151 0 0 Z " fill="#2563A9" transform="translate(36.94140625,67.90234375)"/>
<path d="M0 0 C9.24 0 18.48 0 28 0 C28 2.64 28 5.28 28 8 C27.67 8.33 27.34 8.66 27 9 C24.69 9 22.38 9 20 9 C20 15.27 20 21.54 20 28 C16.04 28 12.08 28 8 28 C8 21.73 8 15.46 8 9 C5.36 9 2.72 9 0 9 C0 6.03 0 3.06 0 0 Z " fill="#2464A9" transform="translate(0,68)"/>
<path d="M0 0 C8.91 0 17.82 0 27 0 C27 2.97 27 5.94 27 9 C24.36 9 21.72 9 19 9 C19 15.27 19 21.54 19 28 C15.04 28 11.08 28 7 28 C7 21.73 7 15.46 7 9 C4.69 9 2.38 9 0 9 C0 6.03 0 3.06 0 0 Z " fill="#2463AB" transform="translate(54,68)"/>
<path d="M0 0 C9.24 0 18.48 0 28 0 C28 2.64 28 5.28 28 8 C27.67 8 27.34 8 27 8 C27 5.69 27 3.38 27 1 C19.74 1 12.48 1 5 1 C4.67 2.32 4.34 3.64 4 5 C3.36345658 6.3479743 2.70394612 7.68596724 2 9 C1.34 9 0.68 9 0 9 C0 6.03 0 3.06 0 0 Z " fill="#286396" transform="translate(0,68)"/>
<path d="M0 0 C1.93938819 2.90908228 2.96774957 5.40862379 4.125 8.6875 C4.47820312 9.68136719 4.83140625 10.67523438 5.1953125 11.69921875 C5.46085937 12.45847656 5.72640625 13.21773437 6 14 C3.69 14 1.38 14 -1 14 C-1 10.79604584 -0.25664978 8.90600261 1 6 C0.34 6 -0.32 6 -1 6 C-0.67 4.02 -0.34 2.04 0 0 Z " fill="#2E5FA3" transform="translate(105,82)"/>
<path d="M0 0 C-1.485 0.7115625 -1.485 0.7115625 -3 1.4375 C-6.17831009 3.60176233 -6.17831009 3.60176233 -6.3984375 6.26953125 C-6.37699635 8.53871994 -6.26004526 10.74627444 -6 13 C-6.66 13 -7.32 13 -8 13 C-9.17881287 9.31620978 -9.21358801 5.84458427 -9 2 C-5.96271914 -1.03728086 -4.06215635 -1.35405212 0 0 Z " fill="#2D5FA3" transform="translate(21,22)"/>
<path d="M0 0 C2.97 0.495 2.97 0.495 6 1 C6 1.66 6 2.32 6 3 C7.3921875 2.9690625 7.3921875 2.9690625 8.8125 2.9375 C12 3 12 3 15 4 C15 4.99 15 5.98 15 7 C9.14727744 6.54979057 4.91779881 3.96160773 0 1 C0 0.67 0 0.34 0 0 Z " fill="#29609E" transform="translate(25,47)"/>
<path d="M0 0 C0.66 0.33 1.32 0.66 2 1 C1.34 2.65 0.68 4.3 0 6 C1.65 6 3.3 6 5 6 C5 6.33 5 6.66 5 7 C1.37 7.66 -2.26 8.32 -6 9 C-2.25 2.25 -2.25 2.25 0 0 Z " fill="#296499" transform="translate(20,11)"/>
<path d="M0 0 C0.33 0.66 0.66 1.32 1 2 C0.67 2.99 0.34 3.98 0 5 C-3.96 5 -7.92 5 -12 5 C-11.34 3.68 -10.68 2.36 -10 1 C-10 1.66 -10 2.32 -10 3 C-4.41499433 2.80101292 -4.41499433 2.80101292 0 0 Z " fill="#28669F" transform="translate(89,91)"/>
<path d="M0 0 C1.65 0 3.3 0 5 0 C4.67 1.32 4.34 2.64 4 4 C3.34 4 2.68 4 2 4 C1.67 4.99 1.34 5.98 1 7 C0 6 0 6 -0.0625 2.9375 C-0.041875 1.968125 -0.02125 0.99875 0 0 Z " fill="#2362BA" transform="translate(44,80)"/>
<path d="M0 0 C1.32 0 2.64 0 4 0 C4.76173392 4.3164922 5.16063604 7.74433453 4 12 C2.01637931 9.08291076 2.0123809 7.87619096 2.375 4.25 C2.58125 3.1775 2.7875 2.105 3 1 C2.01 0.67 1.02 0.34 0 0 Z " fill="#2D6295" transform="translate(94,22)"/>
<path d="M0 0 C-2.1875 2.0625 -2.1875 2.0625 -5 4 C-7.8125 3.75 -7.8125 3.75 -10 3 C-7.28464405 0.28464405 -3.67870689 -1.83935344 0 0 Z " fill="#29639D" transform="translate(42,2)"/>
<path d="M0 0 C2.64 0.33 5.28 0.66 8 1 C8 1.66 8 2.32 8 3 C5.36 3 2.72 3 0 3 C0 2.01 0 1.02 0 0 Z " fill="#2761BD" transform="translate(25,91)"/>
<path d="M0 0 C0.66 0 1.32 0 2 0 C1.37240135 2.92879371 0.41377341 5.36095629 -1 8 C-1.66 8 -2.32 8 -3 8 C-3 6.35 -3 4.7 -3 3 C-2.01 3 -1.02 3 0 3 C0 2.01 0 1.02 0 0 Z " fill="#2563A5" transform="translate(3,69)"/>
</svg>
