<?xml version="1.0" encoding="UTF-8"?>
<svg version="1.1" xmlns="http://www.w3.org/2000/svg" width="225" height="225">
<path d="M0 0 C74.25 0 148.5 0 225 0 C225 74.25 225 148.5 225 225 C150.75 225 76.5 225 0 225 C0 150.75 0 76.5 0 0 Z " fill="#063F71" transform="translate(0,0)"/>
<path d="M0 0 C2.11779255 0.3192353 4.23286205 0.65744216 6.34375 1.01953125 C7.18035156 1.15439941 8.01695313 1.28926758 8.87890625 1.42822266 C13.51836076 2.23811004 17.88524956 3.47813526 22.34375 5.01953125 C24.06078125 5.59767578 24.06078125 5.59767578 25.8125 6.1875 C50.49068007 15.09586173 70.22930928 32.53889804 81.65625 56.20703125 C92.43601225 79.95519039 94.45606108 107.13734361 85.29248047 131.82177734 C75.37277393 157.20324585 57.73554289 176.7199502 33.06640625 188.484375 C22.05879791 193.22405156 10.36277656 196.23226908 -1.65625 196.08203125 C-2.605 196.07300781 -3.55375 196.06398437 -4.53125 196.0546875 C-5.583125 196.03728516 -5.583125 196.03728516 -6.65625 196.01953125 C-2.4096016 187.20595649 2.05195334 178.60900006 7.07446289 170.21191406 C10.13617903 165.08759808 13.13183208 159.92974463 16.0774231 154.73764038 C17.78976921 151.71981313 19.51518836 148.71148798 21.27441406 145.72070312 C24.59969256 140.03957445 27.69542413 134.40019987 30.27734375 128.328125 C35.61100156 116.46780329 35.61100156 116.46780329 40.34375 113.01953125 C49.45931662 110.4760922 59.10313939 111.65486398 68.34375 113.01953125 C69.00375 111.36953125 69.66375 109.71953125 70.34375 108.01953125 C74.63375 100.75953125 78.92375 93.49953125 83.34375 86.01953125 C58.59375 85.68953125 33.84375 85.35953125 8.34375 85.01953125 C7.68375 86.66953125 7.02375 88.31953125 6.34375 90.01953125 C5.35989058 91.87513273 4.3445288 93.71424297 3.3046875 95.5390625 C2.78181152 96.46050049 2.25893555 97.38193848 1.72021484 98.33129883 C1.05973145 99.48654053 0.39924805 100.64178223 -0.28125 101.83203125 C-2.385 105.52390625 -4.48875 109.21578125 -6.65625 113.01953125 C3.57375 113.01953125 13.80375 113.01953125 24.34375 113.01953125 C19.5090493 123.06812485 14.27958778 132.67787473 8.55053711 142.24194336 C4.31443632 149.32958046 0.23306076 156.4916442 -3.78125 163.70703125 C-9.62705592 174.21156997 -15.59360398 184.63879654 -21.65625 195.01953125 C-45.59340946 192.31652953 -67.3945748 179.9723325 -82.79296875 161.44921875 C-100.9374653 138.34502111 -106.35931843 113.03510663 -104.65625 84.01953125 C-103.45097604 74.21738036 -99.89252374 64.88961761 -95.65625 56.01953125 C-95.22699219 55.11976562 -94.79773438 54.22 -94.35546875 53.29296875 C-84.83571003 34.68251087 -70.04516809 20.79493321 -51.71875 11.01953125 C-50.99703613 10.63361816 -50.27532227 10.24770508 -49.53173828 9.85009766 C-45.92717046 7.98676933 -42.73661273 6.53057472 -38.65625 6.01953125 C-40.00080698 9.56387552 -41.56853344 12.82752318 -43.421875 16.1328125 C-43.97504395 17.12120117 -44.52821289 18.10958984 -45.09814453 19.12792969 C-45.69481934 20.1852832 -46.29149414 21.24263672 -46.90625 22.33203125 C-47.52741699 23.43708008 -48.14858398 24.54212891 -48.78857422 25.68066406 C-54.19237648 35.26291659 -59.72860015 44.76582011 -65.2890625 54.2578125 C-74.77939611 70.46933788 -83.95701173 86.85814986 -93.10742188 103.26318359 C-94.9401813 106.52482512 -96.80004626 109.7711747 -98.65625 113.01953125 C-73.90625 113.01953125 -49.15625 113.01953125 -23.65625 113.01953125 C-22.99625 111.36953125 -22.33625 109.71953125 -21.65625 108.01953125 C-17.36625 100.75953125 -13.07625 93.49953125 -8.65625 86.01953125 C-37.86125 85.52453125 -37.86125 85.52453125 -67.65625 85.01953125 C-62.03720238 73.78143601 -62.03720238 73.78143601 -59.66796875 69.77734375 C-59.13486084 68.87097168 -58.60175293 67.96459961 -58.05249023 67.03076172 C-57.48860596 66.07830566 -56.92472168 65.12584961 -56.34375 64.14453125 C-52.06297901 56.86373282 -47.80243671 49.5733703 -43.63267517 42.22842407 C-41.94927387 39.26340149 -40.25423508 36.30678591 -38.52758789 33.36669922 C-35.27579415 27.80427391 -32.2505113 22.26570393 -29.66796875 16.35546875 C-22.80491269 1.39596874 -16.48644239 -1.82023226 0 0 Z " fill="#FCFDFE" transform="translate(119.65625,13.98046875)"/>
<path d="M0 0 C74.25 0 148.5 0 225 0 C225 74.25 225 148.5 225 225 C150.75 225 76.5 225 0 225 C0 150.75 0 76.5 0 0 Z M37.43896484 29.67089844 C36.11017097 30.89824045 34.75345453 32.09516589 33.39453125 33.2890625 C16.20591347 49.19331615 6.26947433 71.32595554 2 94 C1.80921875 94.92039062 1.6184375 95.84078125 1.421875 96.7890625 C-2.43686986 126.1583984 5.16807446 155.63360248 22.859375 179.30078125 C26.37065838 183.72833019 30.12802305 187.88735172 34 192 C34.55042969 192.61488281 35.10085937 193.22976562 35.66796875 193.86328125 C44.64675165 203.50715918 56.44734756 209.70733948 68.25341797 215.18798828 C69.68937973 215.85558806 71.1139886 216.54755372 72.53515625 217.24609375 C97.01412084 228.34149745 127.51702229 226.26235287 152.25 217.3125 C166.22314055 211.86575896 178.03960155 204.16193435 189 194 C189.88300781 193.20980469 190.76601562 192.41960937 191.67578125 191.60546875 C211.42844388 173.08158762 223.08265977 145.07276939 224.3203125 118.28515625 C225.21264142 86.48275916 214.96627334 58.9262221 193.54296875 35.2890625 C178.63672704 19.70625638 160.56342529 10.04373073 140 4 C139.22011719 3.76539063 138.44023437 3.53078125 137.63671875 3.2890625 C102.96510616 -6.29947966 63.33554518 5.7083983 37.43896484 29.67089844 Z " fill="#FCFDFE" transform="translate(0,0)"/>
<path d="M0 0 C0.33 0.66 0.66 1.32 1 2 C24.43 2 47.86 2 72 2 C72 1.34 72 0.68 72 0 C72.66 0 73.32 0 74 0 C73.67 1.32 73.34 2.64 73 4 C48.25 4 23.5 4 -2 4 C-1.34 2.68 -0.68 1.36 0 0 Z " fill="#3E6182" transform="translate(23,123)"/>
<path d="M0 0 C25.08 0 50.16 0 76 0 C75.01 1.98 74.02 3.96 73 6 C72.505 4.02 72.505 4.02 72 2 C48.24 2 24.48 2 0 2 C0 1.34 0 0.68 0 0 Z " fill="#2D4E75" transform="translate(128,99)"/>
<path d="M0 0 C0.66 0 1.32 0 2 0 C2.17795311 6.84978251 2.30026704 13.69896608 2.38452148 20.55053711 C2.41965486 22.87953974 2.46737314 25.20838874 2.52807617 27.53686523 C2.61330444 30.89084814 2.65276076 34.24278552 2.68359375 37.59765625 C2.71972275 38.63334244 2.75585175 39.66902863 2.79307556 40.73609924 C2.79602965 46.21435021 2.40987902 49.23564138 -1.54272461 53.21264648 C-2.67080384 54.17117708 -3.81573492 55.11182217 -5 56 C-6.85466887 52.29066227 -4.28968258 47.95183668 -3.10546875 44.1640625 C-0.21209757 33.8959353 0.26911788 23.87037908 0.125 13.25 C0.11597656 11.96867187 0.10695312 10.68734375 0.09765625 9.3671875 C0.07435327 6.24458779 0.04164054 3.12239975 0 0 Z " fill="#E6F4FA" transform="translate(223,96)"/>
<path d="M0 0 C16.17 0 32.34 0 49 0 C49 1.32 49 2.64 49 4 C47.65035156 3.7834375 47.65035156 3.7834375 46.2734375 3.5625 C30.63979008 1.30674326 14.69842941 1.14533323 -1 3 C-0.67 2.01 -0.34 1.02 0 0 Z " fill="#E3FEFF" transform="translate(89,0)"/>
<path d="M0 0 C0.66 0.33 1.32 0.66 2 1 C-0.12315324 3.62649853 -2.24883673 6.25093774 -4.375 8.875 C-4.97828125 9.62136719 -5.5815625 10.36773437 -6.203125 11.13671875 C-6.78320312 11.85214844 -7.36328125 12.56757812 -7.9609375 13.3046875 C-8.49509277 13.96452637 -9.02924805 14.62436523 -9.57958984 15.30419922 C-11 17 -11 17 -13 19 C-13.99 18.67 -14.98 18.34 -16 18 C-11.04098482 11.56383136 -5.88646725 5.60466829 0 0 Z " fill="#0D3E68" transform="translate(37,30)"/>
<path d="M0 0 C-1.56641751 4.30764815 -3.68336156 8.06171464 -6 12 C-6.66 11.34 -7.32 10.68 -8 10 C-8 9.01 -8 8.02 -8 7 C-8.66 7 -9.32 7 -10 7 C-10.33 6.01 -10.66 5.02 -11 4 C-9.5437455 3.32880451 -8.08492133 2.66318193 -6.625 2 C-5.81289062 1.62875 -5.00078125 1.2575 -4.1640625 0.875 C-2 0 -2 0 0 0 Z " fill="#F3F8FA" transform="translate(81,20)"/>
<path d="M0 0 C-3.69158318 2.46105545 -6.46623554 2.25575793 -10.73046875 2.1953125 C-11.48088943 2.1924826 -12.23131012 2.18965271 -13.00447083 2.18673706 C-15.39897675 2.17555062 -17.79310731 2.15044928 -20.1875 2.125 C-21.81184355 2.11496819 -23.43619297 2.10584269 -25.06054688 2.09765625 C-29.040509 2.07561637 -33.02019088 2.0410974 -37 2 C-37.33 1.34 -37.66 0.68 -38 0 C-37.18321777 0.00523682 -36.36643555 0.01047363 -35.52490234 0.01586914 C-31.80827612 0.03671349 -28.09166222 0.04968392 -24.375 0.0625 C-23.08980469 0.07087891 -21.80460937 0.07925781 -20.48046875 0.08789062 C-19.23652344 0.09111328 -17.99257812 0.09433594 -16.7109375 0.09765625 C-14.99849854 0.10551147 -14.99849854 0.10551147 -13.25146484 0.11352539 C-0.91624227 -0.31716079 -0.91624227 -0.31716079 0 0 Z " fill="#DFEFF8" transform="translate(134,223)"/>
<path d="M0 0 C0.33 0 0.66 0 1 0 C1.02505615 0.55349121 1.0501123 1.10698242 1.07592773 1.67724609 C1.7058811 15.8631308 1.7058811 15.8631308 3 30 C2.01 29.67 1.02 29.34 0 29 C0 19.43 0 9.86 0 0 Z " fill="#D7F2F7" transform="translate(0,104)"/>
<path d="M0 0 C0.33 0.99 0.66 1.98 1 3 C3.64 3.33 6.28 3.66 9 4 C5.52192588 5.13874184 2.74841044 4.90158296 -0.859375 4.44140625 C-1.97441406 4.30283203 -3.08945313 4.16425781 -4.23828125 4.02148438 C-5.39714844 3.87001953 -6.55601563 3.71855469 -7.75 3.5625 C-8.92433594 3.41490234 -10.09867188 3.26730469 -11.30859375 3.11523438 C-14.20662568 2.75003523 -17.1036212 2.37805032 -20 2 C-20 1.67 -20 1.34 -20 1 C-10.1 0.505 -10.1 0.505 0 0 Z " fill="#0B3C64" transform="translate(127,12)"/>
<path d="M0 0 C0.66 0 1.32 0 2 0 C3.10765663 6.86747109 2.700773 12.26718787 1 19 C0.67 19 0.34 19 0 19 C0 12.73 0 6.46 0 0 Z " fill="#EEF7FA" transform="translate(0,85)"/>
<path d="M0 0 C5.94 0 11.88 0 18 0 C18 1.32 18 2.64 18 4 C15.37348569 3.71880143 12.74930665 3.42556162 10.125 3.125 C9.37863281 3.04636719 8.63226563 2.96773438 7.86328125 2.88671875 C2.2265625 2.2265625 2.2265625 2.2265625 0 0 Z " fill="#DCECF3" transform="translate(120,0)"/>
<path d="M0 0 C0 0.99 0 1.98 0 3 C-0.66 3 -1.32 3 -2 3 C-2.2475 3.639375 -2.495 4.27875 -2.75 4.9375 C-4 7 -4 7 -6.125 7.75 C-7.053125 7.87375 -7.053125 7.87375 -8 8 C-8 8.99 -8 9.98 -8 11 C-9.32 10.67 -10.64 10.34 -12 10 C-10.38113585 8.32737283 -8.7547271 6.66204463 -7.125 5 C-6.22007812 4.071875 -5.31515625 3.14375 -4.3828125 2.1875 C-2 0 -2 0 0 0 Z " fill="#0C3363" transform="translate(189,176)"/>
<path d="M0 0 C0.66 0.66 1.32 1.32 2 2 C-0.13206212 6.67239145 -2.02502456 10.59287819 -6 14 C-6.66 13.67 -7.32 13.34 -8 13 C-5.36 8.71 -2.72 4.42 0 0 Z " fill="#164065" transform="translate(78,26)"/>
<path d="M0 0 C0.33 0.66 0.66 1.32 1 2 C0.06590076 3.70139505 -0.878797 5.39833892 -1.890625 7.0546875 C-2.96596096 8.94031182 -3.73633094 10.78453439 -4.5 12.8125 C-6.12382634 16.26313097 -6.67734375 16.60421203 -10 18 C-3.84965831 5.33029613 -3.84965831 5.33029613 0 0 Z " fill="#D7EEF5" transform="translate(125,188)"/>
<path d="M0 0 C0 0.66 0 1.32 0 2 C-0.61875 2.0825 -1.2375 2.165 -1.875 2.25 C-4.16669871 2.79326091 -4.16669871 2.79326091 -5.0625 4.9375 C-5.371875 5.618125 -5.68125 6.29875 -6 7 C-6.99 7.66 -7.98 8.32 -9 9 C-9.99 8.67 -10.98 8.34 -12 8 C-10.71064081 6.85157077 -9.41843421 5.70633773 -8.125 4.5625 C-7.04605469 3.60537109 -7.04605469 3.60537109 -5.9453125 2.62890625 C-3.83529848 0.86208728 -2.76919975 0 0 0 Z " fill="#103C61" transform="translate(53,19)"/>
<path d="M0 0 C0.33 0 0.66 0 1 0 C1.08096803 1.45742463 1.13917774 2.91612807 1.1875 4.375 C1.22230469 5.18710938 1.25710937 5.99921875 1.29296875 6.8359375 C1.19628906 7.55007812 1.09960938 8.26421875 1 9 C0.01 9.66 -0.98 10.32 -2 11 C-2.05399736 9.54207116 -2.09279177 8.08357288 -2.125 6.625 C-2.15980469 5.40683594 -2.15980469 5.40683594 -2.1953125 4.1640625 C-2 2 -2 2 0 0 Z " fill="#F5FBFC" transform="translate(224,130)"/>
<path d="M0 0 C-1.33488128 3.59391114 -2.96022723 6.75490696 -5 10 C-6 7 -6 7 -5 4 C-5.66 3.34 -6.32 2.68 -7 2 C-2.25 0 -2.25 0 0 0 Z " fill="#D4E8F3" transform="translate(81,20)"/>
<path d="M0 0 C0.99 0.33 1.98 0.66 3 1 C0.525 5.455 0.525 5.455 -2 10 C-2.33 10 -2.66 10 -3 10 C-3 8.02 -3 6.04 -3 4 C-2.34 4 -1.68 4 -1 4 C-0.67 2.68 -0.34 1.36 0 0 Z " fill="#143F73" transform="translate(87,32)"/>
<path d="M0 0 C4.62 1.32 9.24 2.64 14 4 C10.05548603 4.98612849 8.56813566 4.91655666 4.75 4.0625 C3.85796875 3.86785156 2.9659375 3.67320313 2.046875 3.47265625 C1.37140625 3.31667969 0.6959375 3.16070312 0 3 C0 2.01 0 1.02 0 0 Z " fill="#14426E" transform="translate(139,4)"/>
<path d="M0 0 C0 4.33685836 -2.08014014 5.9443327 -5 9 C-5.99 9 -6.98 9 -8 9 C-6.4169423 4.7257442 -3.49431596 2.73468206 0 0 Z " fill="#E0EDF6" transform="translate(189,193)"/>
<path d="M0 0 C1.10191901 4.40767604 0.58706842 5.8922935 -1 10 C-2.32 9.67 -3.64 9.34 -5 9 C-3.35 6.03 -1.7 3.06 0 0 Z " fill="#184974" transform="translate(32,105)"/>
<path d="M0 0 C0.99 0 1.98 0 3 0 C1.6302836 3.99500618 -0.25722422 6.80009492 -3 10 C-3.33 8.68 -3.66 7.36 -4 6 C-3.01 5.67 -2.02 5.34 -1 5 C-0.67 3.35 -0.34 1.7 0 0 Z " fill="#17426D" transform="translate(29,56)"/>
<path d="M0 0 C3.63 0.33 7.26 0.66 11 1 C11 1.33 11 1.66 11 2 C5.06 2.495 5.06 2.495 -1 3 C-0.67 2.01 -0.34 1.02 0 0 Z " fill="#E4F0F7" transform="translate(89,0)"/>
<path d="M0 0 C0.33 0.66 0.66 1.32 1 2 C0.328125 3.875 0.328125 3.875 -0.75 6 C-1.26820313 7.051875 -1.26820313 7.051875 -1.796875 8.125 C-3 10 -3 10 -6 12 C-4.43358249 7.69235185 -2.31663844 3.93828536 0 0 Z " fill="#DCF2F8" transform="translate(153,139)"/>
<path d="M0 0 C0.66 0 1.32 0 2 0 C1.69381595 3.67420866 1.24228216 4.78135513 -1.5625 7.3125 C-2.366875 7.869375 -3.17125 8.42625 -4 9 C-2.94124926 5.59687262 -1.99097846 2.98646769 0 0 Z " fill="#E8F6FB" transform="translate(90,32)"/>
<path d="M0 0 C1.65 0 3.3 0 5 0 C3.68 1.65 2.36 3.3 1 5 C0.01 4.67 -0.98 4.34 -2 4 C-1.34 2.68 -0.68 1.36 0 0 Z " fill="#134074" transform="translate(175,187)"/>
<path d="M0 0 C0.99 0.33 1.98 0.66 3 1 C3 1.66 3 2.32 3 3 C4.32 3 5.64 3 7 3 C7 4.65 7 6.3 7 8 C3.75700849 5.61042731 1.49097658 3.7952131 0 0 Z " fill="#133B60" transform="translate(21,176)"/>
<path d="M0 0 C0.66 0.33 1.32 0.66 2 1 C0.35 4.63 -1.3 8.26 -3 12 C-3.66 11.01 -4.32 10.02 -5 9 C-3.35 6.03 -1.7 3.06 0 0 Z " fill="#22486E" transform="translate(200,155)"/>
<path d="M0 0 C0.66 0.33 1.32 0.66 2 1 C-0.68058098 4.57410797 -3.42589203 7.31941902 -7 10 C-6.42424336 6.64749299 -5.40693737 5.06181371 -2.9375 2.75 C-2.38964844 2.22921875 -1.84179688 1.7084375 -1.27734375 1.171875 C-0.64505859 0.59179688 -0.64505859 0.59179688 0 0 Z " fill="#0C335B" transform="translate(37,30)"/>
<path d="M0 0 C1 2 1 2 0.3125 5 C-1 8 -1 8 -5 10 C-3.35 6.7 -1.7 3.4 0 0 Z " fill="#1F4871" transform="translate(16,56)"/>
<path d="M0 0 C1.98 0.495 1.98 0.495 4 1 C3.01 2.98 2.02 4.96 1 7 C0.34 6.67 -0.32 6.34 -1 6 C-1 5.34 -1 4.68 -1 4 C-0.34 4 0.32 4 1 4 C0.67 2.68 0.34 1.36 0 0 Z " fill="#12406C" transform="translate(106,101)"/>
<path d="M0 0 C2.31 1.98 4.62 3.96 7 6 C6.01 6.33 5.02 6.66 4 7 C2 6 2 6 0.875 2.9375 C0.58625 1.968125 0.2975 0.99875 0 0 Z " fill="#0D385D" transform="translate(190,33)"/>
<path d="M0 0 C0 3 0 3 0 3 Z M-3 1 C-2.34 1.99 -1.68 2.98 -1 4 C-1.99 4.66 -2.98 5.32 -4 6 C-4.66 5.34 -5.32 4.68 -6 4 C-5.01 3.01 -4.02 2.02 -3 1 Z " fill="#18466D" transform="translate(32,37)"/>
</svg>
