<?xml version="1.0" standalone="no"?>
<!DOCTYPE svg PUBLIC "-//W3C//DTD SVG 20010904//EN"
 "http://www.w3.org/TR/2001/REC-SVG-20010904/DTD/svg10.dtd">
<svg version="1.0" xmlns="http://www.w3.org/2000/svg"
 width="225.000000pt" height="224.000000pt" viewBox="0 0 225.000000 224.000000"
 preserveAspectRatio="xMidYMid meet">

<g transform="translate(0.000000,224.000000) scale(0.100000,-0.100000)"
fill="#000000" stroke="none">
<path d="M473 2033 c-18 -10 -51 -36 -74 -57 -42 -39 -42 -40 -21 -56 11 -10
49 -23 84 -29 274 -52 482 -167 545 -301 11 -25 26 -70 32 -100 22 -105 79
-172 171 -203 126 -42 280 -41 475 5 99 23 462 144 483 160 18 15 15 60 -8
112 -28 67 -45 68 -207 6 -401 -152 -708 -172 -826 -53 -26 25 -42 54 -53 92
-31 113 -45 147 -79 193 -66 90 -191 170 -349 223 -88 30 -130 31 -173 8z"/>
<path d="M219 1771 c-25 -16 -79 -105 -79 -130 0 -29 25 -37 153 -50 221 -22
437 -84 554 -160 114 -73 171 -153 192 -266 52 -281 402 -309 1010 -83 74 28
145 57 157 65 41 27 52 108 22 166 -14 28 -57 20 -205 -37 -315 -122 -475
-160 -664 -154 -110 3 -132 7 -175 29 -61 31 -110 100 -120 167 -28 196 -234
352 -564 428 -121 28 -257 40 -281 25z"/>
<path d="M80 1458 c-45 -24 -77 -158 -42 -176 9 -5 87 -12 172 -15 376 -15
687 -135 785 -301 13 -23 31 -72 40 -110 30 -128 77 -186 185 -227 44 -17 79
-21 175 -22 66 0 149 5 185 12 84 16 308 81 435 126 191 67 194 70 215 169 13
64 7 106 -15 106 -7 0 -87 -30 -177 -66 -289 -117 -520 -171 -692 -162 -168 9
-249 67 -282 201 -24 100 -53 154 -115 212 -156 147 -407 232 -769 260 -52 4
-83 2 -100 -7z"/>
</g>
</svg>
