<?xml version="1.0" standalone="no"?>
<!DOCTYPE svg PUBLIC "-//W3C//DTD SVG 20010904//EN"
 "http://www.w3.org/TR/2001/REC-SVG-20010904/DTD/svg10.dtd">
<svg version="1.0" xmlns="http://www.w3.org/2000/svg"
 width="132.000000pt" height="100.000000pt" viewBox="0 0 132.000000 100.000000"
 preserveAspectRatio="xMidYMid meet">

<g transform="translate(0.000000,100.000000) scale(0.100000,-0.100000)"
fill="#000000" stroke="none">
<path d="M990 888 c0 -9 6 -19 13 -22 10 -5 10 -7 0 -12 -17 -8 -16 -34 1 -34
7 0 19 6 25 14 9 11 6 20 -13 42 -19 22 -25 25 -26 12z"/>
<path d="M770 851 c0 -20 3 -22 12 -13 7 7 43 12 90 12 45 0 78 4 78 10 0 6
-15 10 -32 11 -18 0 -59 1 -91 2 -54 2 -57 1 -57 -22z"/>
<path d="M1078 602 c1 -119 7 -221 11 -225 5 -5 18 -6 30 -2 20 6 21 12 21
199 0 159 -3 196 -16 212 -15 19 -15 19 -6 -1 5 -11 8 -105 8 -210 -1 -174 -3
-190 -19 -193 -17 -3 -18 10 -17 208 1 117 -2 216 -7 221 -4 4 -7 -90 -5 -209z"/>
<path d="M1015 793 c-19 -4 -20 -11 -19 -191 1 -103 -1 -193 -4 -200 -2 -7
-11 -11 -18 -8 -7 3 -16 1 -19 -4 -4 -6 9 -10 30 -10 44 0 92 -23 100 -49 9
-30 -19 -72 -74 -111 -45 -32 -50 -39 -53 -80 -3 -41 -6 -45 -31 -48 -23 -3
-30 2 -39 26 l-11 29 -38 -21 c-27 -15 -41 -18 -49 -10 -7 7 4 26 40 63 57 60
68 85 14 35 -19 -19 -41 -34 -47 -34 -7 0 -17 -10 -22 -22 -6 -13 -17 -21 -25
-19 -8 2 -32 6 -53 9 -21 2 -41 11 -44 19 -9 23 3 26 36 9 16 -9 43 -15 58
-15 20 1 22 3 8 6 -11 2 -29 6 -41 8 -48 10 -87 66 -72 104 23 63 73 79 122
40 17 -13 24 -15 20 -6 -6 17 -47 37 -74 37 -11 0 -34 -9 -52 -20 -57 -34
-134 -19 -176 35 -30 38 -28 71 8 106 35 35 75 36 97 2 13 -19 12 -24 -7 -43
-11 -11 -26 -18 -32 -14 -6 4 -9 1 -6 -7 7 -22 54 -35 72 -19 16 12 23 75 9
67 -5 -2 -18 9 -31 24 l-24 29 25 0 c14 0 28 -6 30 -12 3 -7 5 5 5 27 0 22 -2
34 -5 28 -2 -7 -20 -13 -39 -13 -37 0 -124 19 -124 27 0 3 9 18 21 34 30 43
52 52 99 39 36 -10 40 -14 41 -43 l2 -32 6 34 c3 18 16 40 28 48 19 13 24 12
40 -4 15 -15 22 -17 31 -7 6 7 17 14 24 17 11 3 11 8 0 26 -7 11 -8 21 -3 21
5 0 9 11 9 25 l0 25 -111 0 c-305 0 -552 -122 -603 -297 -61 -211 190 -401
556 -420 347 -17 638 136 658 349 4 38 -1 59 -22 100 -31 62 -72 115 -82 106
-3 -4 6 -22 21 -40 31 -37 64 -104 65 -130 0 -15 -9 -18 -46 -18 -27 0 -43 -4
-39 -10 3 -6 24 -10 46 -10 21 0 39 -3 39 -8 0 -42 -61 -152 -84 -152 -6 0
-23 11 -38 24 -23 20 -26 31 -24 68 3 40 1 45 -25 57 -27 12 -29 16 -29 72 0
46 -3 59 -15 59 -9 0 -15 9 -15 22 0 21 1 21 14 3 12 -16 13 -6 13 81 0 57 -2
74 -4 42 -5 -80 -23 -73 -23 8 0 52 3 65 14 61 10 -4 13 6 13 39 0 24 0 43 -1
43 -1 -1 -10 -4 -21 -6z m-485 -78 c-32 -18 -40 -18 -40 0 0 10 10 15 33 15
l32 -1 -25 -14z m192 -33 c16 -19 4 -24 -36 -17 -32 6 -36 11 -36 37 l0 29 31
-18 c17 -10 35 -24 41 -31z m-242 14 c0 -5 -120 -76 -129 -76 -4 0 -18 11 -31
25 -26 28 -30 25 68 55 38 12 63 15 75 9 9 -6 17 -11 17 -13z m150 -12 c0 -36
-1 -36 -32 -30 -45 9 -46 14 -13 41 40 32 45 31 45 -11z m-75 6 c-3 -5 -10
-10 -16 -10 -5 0 -9 5 -9 10 0 6 7 10 16 10 8 0 12 -4 9 -10z m-41 -18 c3 -5
-15 -28 -39 -52 -41 -40 -47 -43 -70 -32 -14 6 -25 15 -25 19 0 8 108 72 122
73 4 0 9 -4 12 -8z m-184 -64 c0 -13 -74 -77 -89 -78 -22 0 -82 41 -78 54 2 6
27 25 56 43 l53 32 29 -21 c16 -12 29 -25 29 -30z m60 -33 l29 -15 -20 -35
c-28 -46 -33 -49 -77 -35 -57 19 -59 26 -16 64 45 41 46 41 84 21z m-185 -118
c-24 -52 -24 -52 -76 -55 -77 -5 -81 -1 -65 52 7 24 26 60 40 79 l28 36 48
-30 49 -30 -24 -52z m825 103 c0 -5 -4 -10 -10 -10 -5 0 -10 5 -10 10 0 6 5
10 10 10 6 0 10 -4 10 -10z m-510 -32 l25 -10 -36 -18 c-20 -11 -39 -26 -43
-35 -4 -11 -13 -14 -33 -9 -41 10 -44 13 -32 37 30 58 46 62 119 35z m-164
-68 c3 0 4 -12 2 -27 -3 -27 -5 -28 -75 -31 -83 -3 -90 5 -53 65 l20 33 50
-20 c28 -11 53 -20 56 -20z m674 4 c0 -8 -4 -12 -10 -9 -5 3 -10 10 -10 16 0
5 5 9 10 9 6 0 10 -7 10 -16z m-606 -24 c39 -15 33 -40 -9 -40 -31 0 -35 3
-35 25 0 28 6 30 44 15z m604 -27 c-2 -9 -8 -18 -15 -20 -7 -3 -9 3 -6 16 6
25 26 28 21 4z m-413 -3 c3 -5 -3 -10 -15 -10 -12 0 -18 5 -15 10 3 6 10 10
15 10 5 0 12 -4 15 -10z m-166 -29 c16 -10 7 -16 -36 -26 -25 -5 -33 -3 -33 8
0 7 3 17 7 20 9 10 45 8 62 -2z m-242 -51 l22 -50 -46 -30 c-44 -30 -46 -30
-65 -13 -23 21 -52 75 -62 116 l-6 27 67 0 68 0 22 -50z m151 28 c2 -11 -11
-23 -44 -37 -61 -27 -71 -27 -89 9 -25 48 -21 51 57 48 59 -2 73 -6 76 -20z
m156 -33 c27 -14 64 -25 83 -25 21 0 33 -5 33 -13 0 -10 -25 -17 -78 -25 -42
-6 -85 -14 -94 -17 -11 -5 -24 5 -42 32 -32 47 -32 49 2 61 39 15 42 14 96
-13z m-117 -52 l25 -42 -37 -15 c-42 -18 -55 -13 -98 32 l-28 29 48 21 c26 12
52 20 57 19 4 -2 19 -22 33 -44z m-109 -48 l37 -35 -30 -25 c-16 -13 -36 -24
-43 -25 -17 0 -92 48 -92 59 0 13 62 61 78 61 7 0 30 -16 50 -35z m344 8 c2
-10 2 -32 0 -48 -3 -27 -9 -32 -50 -42 l-47 -12 -38 41 c-21 23 -34 45 -30 49
10 9 89 27 130 28 23 1 32 -4 35 -16z m482 -7 l29 -24 -43 -31 c-51 -37 -57
-37 -93 -8 l-27 23 42 31 c52 38 56 38 92 9z m-640 -58 c40 -46 44 -58 20 -58
-18 0 -124 61 -124 72 0 10 32 27 52 28 9 0 33 -19 52 -42z m-65 -35 c34 -21
61 -41 61 -45 0 -4 -9 -10 -20 -13 -23 -7 -155 29 -165 45 -7 11 33 49 52 50
6 0 39 -17 72 -37z m600 3 c9 -11 8 -15 -5 -20 -20 -8 -34 1 -34 20 0 18 24
18 39 0z m-379 -41 c0 -41 -9 -44 -47 -10 -24 21 -26 26 -13 35 8 5 25 10 38
10 19 0 22 -5 22 -35z m98 26 c10 -6 4 -16 -24 -40 -21 -17 -42 -31 -46 -31
-5 0 -8 18 -8 40 0 38 1 40 33 40 17 0 38 -4 45 -9z m50 -23 c-2 -6 -15 -15
-28 -20 -23 -9 -23 -8 -5 12 20 22 39 27 33 8z m107 -8 c0 -18 -33 -26 -47
-12 -6 6 -7 15 -3 22 10 16 50 8 50 -10z m-330 -1 c11 -17 0 -20 -21 -4 -17
13 -17 14 -2 15 9 0 20 -5 23 -11z m-31 -15 c9 -3 14 -10 11 -14 -6 -10 -55 0
-55 11 0 10 21 12 44 3z m296 -4 c0 -5 -15 -10 -32 -10 -25 0 -29 3 -18 10 20
13 50 13 50 0z"/>
<path d="M711 594 c0 -11 3 -14 6 -6 3 7 2 16 -1 19 -3 4 -6 -2 -5 -13z"/>
<path d="M750 543 c-29 -6 -41 -20 -33 -40 4 -11 9 -10 25 4 11 10 32 23 46
30 22 9 23 11 7 11 -11 0 -31 -3 -45 -5z"/>
<path d="M844 535 c11 -8 23 -15 28 -15 4 0 14 -12 22 -27 l14 -28 -1 27 c-1
14 -4 24 -6 22 -2 -2 -11 2 -20 9 -9 8 -25 17 -36 21 -20 6 -20 6 -1 -9z"/>
<path d="M807 473 c-4 -3 -7 -13 -7 -22 0 -14 2 -14 11 -1 9 12 10 11 6 -7 -3
-13 2 -32 13 -45 9 -13 25 -36 34 -53 l17 -30 -4 32 c-2 17 -1 32 2 31 26 -2
61 4 61 11 0 4 -19 5 -42 1 -24 -5 -46 -6 -50 -4 -17 11 -6 22 25 28 25 5 33
12 34 29 2 19 1 20 -8 5 -15 -27 -58 -23 -69 7 -10 27 -13 29 -23 18z"/>
<path d="M710 390 c-14 -25 -14 -25 23 -34 l28 -7 -18 28 c-9 15 -18 30 -19
31 -1 2 -8 -6 -14 -18z"/>
<path d="M964 300 c0 -22 4 -24 25 -11 15 10 7 31 -12 31 -7 0 -13 -9 -13 -20z"/>
<path d="M781 276 c-7 -9 -28 -16 -45 -17 l-31 -1 33 -11 c27 -8 36 -7 49 5 8
9 14 21 11 28 -3 9 -8 7 -17 -4z"/>
<path d="M871 184 c0 -11 3 -14 6 -6 3 7 2 16 -1 19 -3 4 -6 -2 -5 -13z"/>
</g>
</svg>
