<?xml version="1.0" encoding="UTF-8"?>
<svg version="1.1" xmlns="http://www.w3.org/2000/svg" width="200" height="200">
<path d="M0 0 C66 0 132 0 200 0 C200 66 200 132 200 200 C134 200 68 200 0 200 C0 134 0 68 0 0 Z " fill="#E81D26" transform="translate(0,0)"/>
<path d="M0 0 C1.32 0 2.64 0 4 0 C4 0.66 4 1.32 4 2 C3.34 2 2.68 2 2 2 C2.4640625 3.11375 2.4640625 3.11375 2.9375 4.25 C3.8094925 6.50692176 4.47667007 8.6450153 5 11 C6.32 11.33 7.64 11.66 9 12 C9.5625 13.9375 9.5625 13.9375 10 16 C9 17 9 17 5.4375 17.0625 C4.303125 17.041875 3.16875 17.02125 2 17 C1.67 18.98 1.34 20.96 1 23 C0.67 22.34 0.34 21.68 0 21 C-0.99 21 -1.98 21 -3 21 C-2.79375 21.721875 -2.5875 22.44375 -2.375 23.1875 C-1.93734555 26.46990837 -2.63843304 28.03658956 -4 31 C-4 31.66 -4 32.32 -4 33 C-3.34 33 -2.68 33 -2 33 C-1.97494385 34.00901367 -1.9498877 35.01802734 -1.92407227 36.05761719 C-1.82977591 39.80741696 -1.72960979 43.55704108 -1.62768555 47.30664062 C-1.58442069 48.92834357 -1.54273972 50.55008958 -1.50268555 52.171875 C-1.44477786 54.50534027 -1.38114302 56.83859043 -1.31640625 59.171875 C-1.29969376 59.89493835 -1.28298126 60.61800171 -1.26576233 61.36297607 C-1.16797351 64.69890556 -1.0154335 67.80554016 0 71 C0.66 71 1.32 71 2 71 C2 70.01 2 69.02 2 68 C17.84 68 33.68 68 50 68 C50 67.34 50 66.68 50 66 C50.66 65.67 51.32 65.34 52 65 C51.67 64.34 51.34 63.68 51 63 C51.68707031 62.52949219 52.37414062 62.05898437 53.08203125 61.57421875 C53.98308594 60.95160156 54.88414063 60.32898438 55.8125 59.6875 C56.70582031 59.07261719 57.59914063 58.45773438 58.51953125 57.82421875 C60.95434187 56.13553189 60.95434187 56.13553189 62.63671875 54.33203125 C64 53 64 53 67 52 C67.103125 52.61875 67.20625 53.2375 67.3125 53.875 C67.87525373 56.36526484 67.87525373 56.36526484 71 58 C70.505 58.99 70.505 58.99 70 60 C69.34 60 68.68 60 68 60 C68 60.99 68 61.98 68 63 C67.34 63 66.68 63 66 63 C66 64.65 66 66.3 66 68 C96.69 68 127.38 68 159 68 C159.33 67.01 159.66 66.02 160 65 C160.66 65 161.32 65 162 65 C162 54.44 162 43.88 162 33 C161.34 33 160.68 33 160 33 C160 30.03 160 27.06 160 24 C159.34 24 158.68 24 158 24 C158 23.34 158 22.68 158 22 C161.37817425 21.15545644 163.67465243 20.89155081 167 22 C167 21.34 167 20.68 167 20 C166.34 20 165.68 20 165 20 C165.33 19.01 165.66 18.02 166 17 C166 17.66 166 18.32 166 19 C166.99 19 167.98 19 169 19 C169.103125 19.9075 169.20625 20.815 169.3125 21.75 C169.7446343 24.94586388 169.7446343 24.94586388 171.4375 26.875 C177.79951194 35.52733624 175.9430841 51.50987392 174.67919922 61.54785156 C171.63243566 79.72477633 164.98170946 96.86588765 153 111 C152.28199219 111.87527344 151.56398437 112.75054687 150.82421875 113.65234375 C140.87741711 125.25965892 128.82626089 132.78340663 115 139 C114.28585938 139.32613281 113.57171875 139.65226563 112.8359375 139.98828125 C101.81272548 144.56174156 89.92332512 145.53479324 78.125 145.4375 C76.80870605 145.42847656 75.49241211 145.41945312 74.13623047 145.41015625 C52.16976087 145.01901347 31.65638939 136.55585005 15 122 C15 121.34 15 120.68 15 120 C14.40574219 119.73703125 13.81148437 119.4740625 13.19921875 119.203125 C0.16398151 112.07194726 -8.69550761 90.61119389 -12.921875 77.24975586 C-14.86816658 70.33960383 -14.56744583 63.36227137 -14.375 56.25 C-14.35842852 54.80210732 -14.34409739 53.35418723 -14.33203125 51.90625 C-14.20035712 41.60107135 -14.20035712 41.60107135 -13 38 C-12.80768122 34.64510565 -12.68280276 31.29220944 -12.57421875 27.93359375 C-12 25 -12 25 -9.95703125 23.59765625 C-8.98830078 23.30181641 -8.98830078 23.30181641 -8 23 C-8 23.66 -8 24.32 -8 25 C-7.34 25 -6.68 25 -6 25 C-6.10699219 24.38253906 -6.21398437 23.76507813 -6.32421875 23.12890625 C-7.21720223 16.82041003 -6.95843292 11.74076864 -4 6 C-3.00629308 4.99374628 -2.00674286 3.99321137 -1 3 C-0.67 2.01 -0.34 1.02 0 0 Z " fill="#E71D26" transform="translate(21,51)"/>
<path d="M0 0 C66 0 132 0 200 0 C200 66 200 132 200 200 C134 200 68 200 0 200 C0 134 0 68 0 0 Z M48 20 C47.14019531 20.56203125 46.28039063 21.1240625 45.39453125 21.703125 C32.01295524 30.89451054 22.60751287 41.77379144 15 56 C14.49855469 56.86109375 13.99710938 57.7221875 13.48046875 58.609375 C9.41544398 65.92887579 7.82332421 73.90229543 6 82 C5.8242041 82.60263672 5.6484082 83.20527344 5.46728516 83.82617188 C2.07109687 99.62536756 4.20648378 119.14114711 10 134 C10.39574219 135.02480469 10.79148437 136.04960937 11.19921875 137.10546875 C12.3506032 139.81753379 13.61826819 142.39839638 15 145 C15.76957031 146.47533203 15.76957031 146.47533203 16.5546875 147.98046875 C20.04410249 154.32412872 23.98981708 159.60470323 28.984375 164.84375 C31 167 31 167 32.640625 169.28125 C33.08921875 169.8484375 33.5378125 170.415625 34 171 C34.66 171 35.32 171 36 171 C36.33 171.99 36.66 172.98 37 174 C49.47334372 184.38421226 64.30781713 191.2465995 80 195 C80.5892627 195.1743457 81.17852539 195.34869141 81.78564453 195.52832031 C104.15610423 200.29345021 128.55403147 195.16473368 148 184 C148.99644531 183.443125 149.99289063 182.88625 151.01953125 182.3125 C171.90321859 169.88386776 186.69758298 148.99695465 192.79052734 125.60791016 C199.16580373 99.86228979 196.47745301 74.9756413 183.125 51.8125 C180.08011916 46.93599419 176.62028071 42.45838865 173 38 C171.88625 36.515 171.88625 36.515 170.75 35 C155.4427099 17.07565707 131.01418706 7.18592645 108 5 C86.62328598 3.40807115 65.97379692 7.96013603 48 20 Z " fill="#FDFCFC" transform="translate(0,0)"/>
<path d="M0 0 C48.84 0 97.68 0 148 0 C145.14116739 14.29416306 131.78700437 28.07871408 120 36 C100.17202402 47.84149846 77.91067321 52.88568647 54.98901367 47.77124023 C33.81431943 42.22220719 17.23433737 30.17288315 5.625 11.75 C5.18381836 11.05221436 4.74263672 10.35442871 4.28808594 9.63549805 C3.8759082 8.96687744 3.46373047 8.29825684 3.0390625 7.609375 C2.48532959 6.7117041 2.48532959 6.7117041 1.92041016 5.79589844 C1 4 1 4 0 0 Z " fill="#FDFDFC" transform="translate(26,132)"/>
<path d="M0 0 C8.09227095 6.57712235 15.80495535 13.84981561 21 23 C21 23.99 21 24.98 21 26 C-25.2 26 -71.4 26 -119 26 C-111.9759651 8.43991275 -95.86649909 -3.30433019 -79.0625 -10.8125 C-52.64401227 -21.02121066 -22.71424692 -17.11521687 0 0 Z " fill="#FDFDFD" transform="translate(149,36)"/>
<path d="M0 0 C1.03755432 0.00565979 2.07510864 0.01131958 3.144104 0.01715088 C6.45591492 0.03953009 9.76664144 0.08973081 13.078125 0.140625 C15.32420312 0.16068794 17.57029821 0.17893906 19.81640625 0.1953125 C25.32068209 0.23939982 30.82432607 0.30632759 36.328125 0.390625 C38.55012336 6.8050731 40.45192772 12.63239467 40.4609375 19.48046875 C40.46222656 20.42986328 40.46351563 21.37925781 40.46484375 22.35742188 C40.46097656 23.33775391 40.45710938 24.31808594 40.453125 25.328125 C40.45699219 26.30458984 40.46085937 27.28105469 40.46484375 28.28710938 C40.46355469 29.23779297 40.46226562 30.18847656 40.4609375 31.16796875 C40.45980957 32.02640381 40.45868164 32.88483887 40.45751953 33.76928711 C40.31462595 36.66409533 39.80460798 39.5317271 39.328125 42.390625 C8.968125 42.390625 -21.391875 42.390625 -52.671875 42.390625 C-52.671875 41.730625 -52.671875 41.070625 -52.671875 40.390625 C-51.4140625 39.15625 -51.4140625 39.15625 -49.546875 37.640625 C-44.52573437 33.40516644 -39.98481011 28.73133442 -35.42138672 24.01464844 C-34.83631348 23.41813477 -34.25124023 22.82162109 -33.6484375 22.20703125 C-33.12330566 21.66506104 -32.59817383 21.12309082 -32.05712891 20.56469727 C-30.671875 19.390625 -30.671875 19.390625 -28.671875 19.390625 C-28.35863281 18.57078125 -28.35863281 18.57078125 -28.0390625 17.734375 C-26.16845179 14.52761378 -23.55312218 12.31638691 -20.796875 9.890625 C-16.67508856 6.35130943 -16.67508856 6.35130943 -13.15478516 2.24902344 C-9.1273837 -0.76538953 -4.88902708 -0.10019099 0 0 Z " fill="#FEF8F8" transform="translate(140.671875,75.609375)"/>
<path d="M0 0 C29.04 0 58.08 0 88 0 C86.35 1.65 84.7 3.3 83 5 C81.69262962 6.32806922 80.38657576 7.65743611 79.08203125 8.98828125 C77.65895533 10.42978738 76.23577606 11.87119148 74.8125 13.3125 C74.08869141 14.05306641 73.36488281 14.79363281 72.61914062 15.55664062 C71.92626953 16.25595703 71.23339844 16.95527344 70.51953125 17.67578125 C69.89151611 18.31427002 69.26350098 18.95275879 68.61645508 19.6105957 C67 21 67 21 65 21 C64.79375 21.556875 64.5875 22.11375 64.375 22.6875 C62.81442954 25.31209578 60.87547006 26.84397921 58.5 28.72265625 C56.81950216 30.06924461 56.81950216 30.06924461 55.125 32.375 C47.90514623 41.29364289 47.90514623 41.29364289 42.46875 42.615448 C39.60036927 42.80646306 36.81025319 42.78877421 33.9375 42.68359375 C32.3896582 42.6687368 32.3896582 42.6687368 30.81054688 42.65357971 C27.53887272 42.61462752 24.27064693 42.52683957 21 42.4375 C18.77218413 42.40236146 16.54431527 42.37042693 14.31640625 42.34179688 C8.87644252 42.26492984 3.43846764 42.14803673 -2 42 C-3.30493857 36.26933463 -3.18408776 30.66449408 -3.1875 24.8125 C-3.19974609 23.72646484 -3.21199219 22.64042969 -3.22460938 21.52148438 C-3.2516691 6.5033382 -3.2516691 6.5033382 0 0 Z " fill="#FEFDFD" transform="translate(23,76)"/>
<path d="M0 0 C0.66 0 1.32 0 2 0 C3.07310858 3.27185553 2.89263102 5.42947592 2.0625 8.75 C1.77052734 9.94882813 1.77052734 9.94882813 1.47265625 11.171875 C1.23869141 12.07679688 1.23869141 12.07679688 1 13 C1.99 13.495 1.99 13.495 3 14 C3 15.32 3 16.64 3 18 C3.66 18 4.32 18 5 18 C5 19.65 5 21.3 5 23 C5.99 22.505 5.99 22.505 7 22 C7 20.35 7 18.7 7 17 C8.65 16.67 10.3 16.34 12 16 C7.01812314 33.00282352 -9.84569905 47.50595089 -24.85986328 56.05957031 C-28.82945054 58.21344859 -32.88010717 60.14760486 -37 62 C-38.07121094 62.48919922 -38.07121094 62.48919922 -39.1640625 62.98828125 C-50.18727452 67.56174156 -62.07667488 68.53479324 -73.875 68.4375 C-75.19129395 68.42847656 -76.50758789 68.41945313 -77.86376953 68.41015625 C-98.11247686 68.04960056 -115.72784908 61.11407614 -132 49 C-132.33 48.34 -132.66 47.68 -133 47 C-132.113125 47.309375 -131.22625 47.61875 -130.3125 47.9375 C-127.16583631 49.0612235 -127.16583631 49.0612235 -124.4375 49.3125 C-121.0155802 50.27765687 -119.45396713 52.48468369 -117 55 C-114.33466965 56.319018 -114.33466965 56.319018 -112 57 C-112 57.66 -112 58.32 -112 59 C-109.69 58.67 -107.38 58.34 -105 58 C-104.67 57.01 -104.34 56.02 -104 55 C-102.68 55.66 -101.36 56.32 -100 57 C-100 56.01 -100 55.02 -100 54 C-99.34 54 -98.68 54 -98 54 C-98 52.68 -98 51.36 -98 50 C-97.35160156 50.144375 -96.70320313 50.28875 -96.03515625 50.4375 C-71.97392561 54.99047925 -47.93241659 52.7298513 -27.19921875 39.16796875 C-25.04868831 37.52257154 -23.02293974 35.7986302 -21 34 C-20.34128906 33.49339844 -19.68257813 32.98679688 -19.00390625 32.46484375 C-9.60191436 25.00556363 -4.28309952 14.56619904 1 4 C-47.84 4 -96.68 4 -147 4 C-147 3.67 -147 3.34 -147 3 C-98.16 3 -49.32 3 1 3 C0.67 2.01 0.34 1.02 0 0 Z " fill="#E81E28" transform="translate(173,128)"/>
<path d="M0 0 C1.11375 0.3403125 1.11375 0.3403125 2.25 0.6875 C2.25 2.0075 2.25 3.3275 2.25 4.6875 C1.59 4.6875 0.93 4.6875 0.25 4.6875 C0.25 6.0075 0.25 7.3275 0.25 8.6875 C1.57 8.3575 2.89 8.0275 4.25 7.6875 C3.92 9.6675 3.59 11.6475 3.25 13.6875 C1.93 13.6875 0.61 13.6875 -0.75 13.6875 C-0.75 14.6775 -0.75 15.6675 -0.75 16.6875 C-1.74 17.0175 -2.73 17.3475 -3.75 17.6875 C-3.8221875 18.37457031 -3.894375 19.06164062 -3.96875 19.76953125 C-4.97566112 23.53034429 -6.985062 26.27911725 -9.25 29.375 C-12.22449494 33.39169447 -12.22449494 33.39169447 -14.75 37.6875 C31.45 37.6875 77.65 37.6875 125.25 37.6875 C121.85170092 31.57056166 119.2959272 27.12458159 114.625 22.3125 C113.90957031 21.55259766 113.90957031 21.55259766 113.1796875 20.77734375 C110.90942428 18.37464851 108.60314157 16.00905578 106.25 13.6875 C107.36375 14.0175 108.4775 14.3475 109.625 14.6875 C112.94459717 15.776143 112.94459717 15.776143 115.25 15.6875 C115.25 14.6975 115.25 13.7075 115.25 12.6875 C116.57 12.6875 117.89 12.6875 119.25 12.6875 C118.92 10.0475 118.59 7.4075 118.25 4.6875 C127.30698785 9.56433961 133.17315572 19.00773398 138.25 27.6875 C137.27149805 28.70854551 136.27019573 29.7081121 135.25 30.6875 C134.92 30.6875 134.59 30.6875 134.25 30.6875 C134.25 28.7075 134.25 26.7275 134.25 24.6875 C133.26 24.6875 132.27 24.6875 131.25 24.6875 C130.92 23.0375 130.59 21.3875 130.25 19.6875 C127.75447516 20.46880071 127.75447516 20.46880071 125.25 21.6875 C124.92 22.6775 124.59 23.6675 124.25 24.6875 C123.59 24.6875 122.93 24.6875 122.25 24.6875 C123.77555966 29.49872847 123.77555966 29.49872847 127.25 32.6875 C127.25 34.6675 127.25 36.6475 127.25 38.6875 C108.50927575 38.71083542 89.76855443 38.72848235 71.02781868 38.73931217 C62.32664632 38.74447376 53.62548298 38.75151385 44.92431641 38.76293945 C37.34251839 38.77289047 29.7607269 38.77935443 22.17892253 38.78158849 C18.16249781 38.78289489 14.14609176 38.78597626 10.129673 38.79323006 C6.35244943 38.79999685 2.57525229 38.80211561 -1.20197678 38.80060768 C-2.59116255 38.80088371 -3.98034917 38.80288494 -5.36952972 38.80670547 C-7.26057807 38.81165291 -9.15164048 38.80989515 -11.04269409 38.80775452 C-12.10275602 38.80867631 -13.16281796 38.8095981 -14.25500298 38.81054783 C-16.75 38.6875 -16.75 38.6875 -18.75 37.6875 C-21.14715444 34.27616484 -21.75 32.98137011 -21.75 28.6875 C-21.09 28.6875 -20.43 28.6875 -19.75 28.6875 C-19.75 28.0275 -19.75 27.3675 -19.75 26.6875 C-21.07 26.6875 -22.39 26.6875 -23.75 26.6875 C-23.9046875 27.863125 -23.9046875 27.863125 -24.0625 29.0625 C-24.75 31.6875 -24.75 31.6875 -27.75 33.6875 C-30.31191418 41.70562803 -30.31191418 41.70562803 -28.75 49.6875 C-29.08 50.3475 -29.41 51.0075 -29.75 51.6875 C-30.41 51.6875 -31.07 51.6875 -31.75 51.6875 C-31.75 51.0275 -31.75 50.3675 -31.75 49.6875 C-32.74 50.3475 -33.73 51.0075 -34.75 51.6875 C-35.29932167 54.70314083 -35.29932167 54.70314083 -35.375 58.125 C-35.67197659 64.45342978 -35.67197659 64.45342978 -36.75 67.6875 C-36.90070797 69.82411258 -36.9985966 71.96462124 -37.06640625 74.10546875 C-37.10830078 75.35908203 -37.15019531 76.61269531 -37.19335938 77.90429688 C-37.23267578 79.21462891 -37.27199219 80.52496094 -37.3125 81.875 C-37.35570992 83.21029978 -37.399325 84.54558652 -37.44335938 85.88085938 C-37.54956502 89.14963297 -37.65160997 92.41848333 -37.75 95.6875 C-41.09514796 90.21847505 -40.14170388 83.63909514 -40.125 77.4375 C-40.12512085 76.75965454 -40.1252417 76.08180908 -40.12536621 75.38342285 C-40.09867415 64.91703272 -39.31845656 55.57509838 -35.75 45.6875 C-35.46125 44.80320313 -35.1725 43.91890625 -34.875 43.0078125 C-30.90744637 31.91991709 -14.04671517 -1.59621763 0 0 Z " fill="#E91C28" transform="translate(44.75,24.3125)"/>
<path d="M0 0 C0.66 0 1.32 0 2 0 C3.07310858 3.27185553 2.89263102 5.42947592 2.0625 8.75 C1.77052734 9.94882813 1.77052734 9.94882813 1.47265625 11.171875 C1.23869141 12.07679688 1.23869141 12.07679688 1 13 C1.99 13.495 1.99 13.495 3 14 C3 15.32 3 16.64 3 18 C3.66 18 4.32 18 5 18 C5 19.65 5 21.3 5 23 C5.99 22.505 5.99 22.505 7 22 C7 20.35 7 18.7 7 17 C8.65 16.67 10.3 16.34 12 16 C10.69634262 20.54936107 8.93384913 23.8876041 6.125 27.6875 C5.10792969 29.08548828 5.10792969 29.08548828 4.0703125 30.51171875 C2.18574502 32.77675551 0.43464627 34.36780441 -2 36 C-2.33 35.01 -2.66 34.02 -3 33 C-4.65 32.67 -6.3 32.34 -8 32 C-8 31.34 -8 30.68 -8 30 C-8.66 30 -9.32 30 -10 30 C-10.33 30.66 -10.66 31.32 -11 32 C-12.32 32 -13.64 32 -15 32 C-15.37125 32.9590625 -15.37125 32.9590625 -15.75 33.9375 C-17 36 -17 36 -19.0625 36.5625 C-19.701875 36.706875 -20.34125 36.85125 -21 37 C-21.33 37.99 -21.66 38.98 -22 40 C-22.66 40 -23.32 40 -24 40 C-24.37125 41.2065625 -24.37125 41.2065625 -24.75 42.4375 C-26 45 -26 45 -27.75 45.6875 C-28.4925 45.790625 -29.235 45.89375 -30 46 C-33.15020361 46.88319294 -33.15020361 46.88319294 -36 48 C-36.495 48.99 -36.495 48.99 -37 50 C-39.87182587 50.47618812 -42.67120147 50.84167597 -45.5625 51.125 C-46.36880859 51.21136719 -47.17511719 51.29773438 -48.00585938 51.38671875 C-50.00304064 51.59943628 -52.00142737 51.80077855 -54 52 C-51.00118923 50.00079282 -48.37886693 48.96834144 -45 47.75 C-22.40382813 39.08605344 -9.68475009 25.36950017 1 4 C-47.84 4 -96.68 4 -147 4 C-147 3.67 -147 3.34 -147 3 C-98.16 3 -49.32 3 1 3 C0.67 2.01 0.34 1.02 0 0 Z " fill="#E43B45" transform="translate(173,128)"/>
<path d="M0 0 C0.66 0 1.32 0 2 0 C2 0.66 2 1.32 2 2 C2.66 2 3.32 2 4 2 C4 3.98 4 5.96 4 8 C4.66 8 5.32 8 6 8 C6.19770851 12.20791855 6.38136206 16.41633815 6.5625 20.625 C6.64661133 22.40970703 6.64661133 22.40970703 6.73242188 24.23046875 C6.80493164 25.96103516 6.80493164 25.96103516 6.87890625 27.7265625 C6.94960327 29.31331787 6.94960327 29.31331787 7.02172852 30.93212891 C6.99956774 34.06103168 6.59691716 36.93301147 6 40 C5.34 40 4.68 40 4 40 C3.67 41.32 3.34 42.64 3 44 C-8.68272641 44.02314534 -20.36544738 44.04092631 -32.04819202 44.05181217 C-37.47264731 44.05703618 -42.89708693 44.06412514 -48.3215332 44.07543945 C-53.55401959 44.08628537 -58.7864909 44.09228047 -64.01898766 44.09487724 C-66.01771978 44.0967284 -68.01645105 44.10034313 -70.01517677 44.10573006 C-72.80937119 44.11296306 -75.60350285 44.11398998 -78.39770508 44.11352539 C-79.64387604 44.1189183 -79.64387604 44.1189183 -80.91522217 44.12442017 C-84.20319433 44.1184839 -86.85821544 44.04726152 -90 43 C-90 41.35 -90 39.7 -90 38 C-89.34 38 -88.68 38 -88 38 C-88 37.01 -88 36.02 -88 35 C-87.34 35 -86.68 35 -86 35 C-86 34.34 -86 33.68 -86 33 C-86.99 32.34 -87.98 31.68 -89 31 C-89.33 30.01 -89.66 29.02 -90 28 C-91.98491642 28.26676204 -91.98491642 28.26676204 -94 29 C-94.33 29.99 -94.66 30.98 -95 32 C-96.84765625 33.60546875 -96.84765625 33.60546875 -99.0625 35.1875 C-99.79597656 35.71730469 -100.52945313 36.24710938 -101.28515625 36.79296875 C-101.85105469 37.19128906 -102.41695313 37.58960938 -103 38 C-103.66 37.67 -104.32 37.34 -105 37 C-104.113125 36.278125 -103.22625 35.55625 -102.3125 34.8125 C-98.40164584 31.54427446 -94.88759842 28.10350074 -91.6875 24.125 C-89.11935789 20.97721453 -86.15647239 18.44101641 -83.0703125 15.8125 C-79.89141739 13.0294673 -76.94449752 10.02731151 -74 7 C-74 10.69418201 -75.28179295 12.77836178 -77 16 C-78.32 16 -79.64 16 -81 16 C-81.144375 16.639375 -81.28875 17.27875 -81.4375 17.9375 C-82 20 -82 20 -83 21 C-82.34 21.33 -81.68 21.66 -81 22 C-81 23.65 -81 25.3 -81 27 C-80.01 27 -79.02 27 -78 27 C-78 26.34 -78 25.68 -78 25 C-76.68 24.67 -75.36 24.34 -74 24 C-74 27 -74 27 -75.16162109 28.53393555 C-75.95947021 29.32731323 -75.95947021 29.32731323 -76.7734375 30.13671875 C-77.3509375 30.71357422 -77.9284375 31.29042969 -78.5234375 31.88476562 C-79.13445312 32.47966797 -79.74546875 33.07457031 -80.375 33.6875 C-80.97828125 34.29400391 -81.5815625 34.90050781 -82.203125 35.52539062 C-86.73310075 40 -86.73310075 40 -89 40 C-89 40.66 -89 41.32 -89 42 C-58.64 42 -28.28 42 3 42 C3.72067686 20.41477507 3.72067686 20.41477507 0 0 Z " fill="#C4303B" transform="translate(177,76)"/>
<path d="M0 0 C9.05698785 4.87683961 14.92315572 14.32023398 20 23 C19.02149805 24.02104551 18.02019573 25.0206121 17 26 C16.67 26 16.34 26 16 26 C16 24.02 16 22.04 16 20 C15.01 20 14.02 20 13 20 C12.67 18.35 12.34 16.7 12 15 C9.50447516 15.78130071 9.50447516 15.78130071 7 17 C6.67 17.99 6.34 18.98 6 20 C5.34 20 4.68 20 4 20 C5.52555966 24.81122847 5.52555966 24.81122847 9 28 C9 29.98 9 31.96 9 34 C-38.19 34 -85.38 34 -134 34 C-133.67 33.34 -133.34 32.68 -133 32 C-63.7 32.495 -63.7 32.495 7 33 C3.60170092 26.88306166 1.0459272 22.43708159 -3.625 17.625 C-4.34042969 16.86509766 -4.34042969 16.86509766 -5.0703125 16.08984375 C-7.34057572 13.68714851 -9.64685843 11.32155578 -12 9 C-10.88625 9.33 -9.7725 9.66 -8.625 10 C-5.30540283 11.088643 -5.30540283 11.088643 -3 11 C-3 10.01 -3 9.02 -3 8 C-1.68 8 -0.36 8 1 8 C0.67 5.36 0.34 2.72 0 0 Z " fill="#E0444C" transform="translate(163,29)"/>
<path d="M0 0 C2.23619731 2.85893581 4.18845463 5.84485184 6.10766602 8.92382812 C11.92067545 18.2166921 17.82981499 25.80610311 27 32 C27.85851562 32.58910156 28.71703125 33.17820313 29.6015625 33.78515625 C35.49460052 37.69448147 41.32375737 40.66838381 48 43 C43.64143442 44.40844477 40.93458752 42.97156121 37 41 C35.948125 40.443125 34.89625 39.88625 33.8125 39.3125 C30.91315745 37.71807636 30.91315745 37.71807636 27 38 C26.814375 37.360625 26.62875 36.72125 26.4375 36.0625 C25.08233339 33.61268392 25.08233339 33.61268392 21.625 33.3125 C20.42875 33.209375 19.2325 33.10625 18 33 C16.66082739 32.69096017 15.32346746 32.37057089 14 32 C13.87625 32.94875 13.7525 33.8975 13.625 34.875 C13 38 13 38 11 40 C10.505 38.515 10.505 38.515 10 37 C8.67406641 36.31873476 7.339572 35.65404058 6 35 C4.18359375 33.1953125 4.18359375 33.1953125 2.4375 31.125 C1.85871094 30.44695312 1.27992187 29.76890625 0.68359375 29.0703125 C-4 23.31090487 -4 23.31090487 -4 21 C-1.625 21.3125 -1.625 21.3125 1 22 C1.66 22.99 2.32 23.98 3 25 C3.66 25.66 4.32 26.32 5 27 C5.33 26.34 5.66 25.68 6 25 C6.66 25 7.32 25 8 25 C7.67 21.37 7.34 17.74 7 14 C6.34 14 5.68 14 5 14 C5 13.01 5 12.02 5 11 C4.01 11 3.02 11 2 11 C0.80712589 7.12315913 0 4.08378077 0 0 Z " fill="#E6202C" transform="translate(26,134)"/>
<path d="M0 0 C29.04 0 58.08 0 88 0 C86.35 1.65 84.7 3.3 83 5 C82.01 5 81.02 5 80 5 C80.33 4.34 80.66 3.68 81 3 C54.6 2.67 28.2 2.34 1 2 C-0.71170816 11.65501544 -0.71170816 11.65501544 -1.1953125 21.078125 C-1.19031738 22.14450195 -1.18532227 23.21087891 -1.18017578 24.30957031 C-1.16196777 25.60991211 -1.14375977 26.91025391 -1.125 28.25 C-1.08375 32.4575 -1.0425 36.665 -1 41 C14.18 41 29.36 41 45 41 C45 41.33 45 41.66 45 42 C29.49 42 13.98 42 -2 42 C-3.16524958 36.17375212 -3.18404775 30.73310277 -3.1875 24.8125 C-3.19974609 23.72646484 -3.21199219 22.64042969 -3.22460938 21.52148438 C-3.2516691 6.5033382 -3.2516691 6.5033382 0 0 Z " fill="#FED3D2" transform="translate(23,76)"/>
<path d="M0 0 C0 3.10551666 -0.5393715 4.35261084 -2 7 C-1.34 7.33 -0.68 7.66 0 8 C-3.22515763 9.73662334 -6.51329166 10.8905928 -10 12 C-10 12.99 -10 13.98 -10 15 C-10.66 15 -11.32 15 -12 15 C-11.979375 15.94875 -11.95875 16.8975 -11.9375 17.875 C-12 21 -12 21 -13 23 C-13.99 23 -14.98 23 -16 23 C-16.1546875 24.175625 -16.1546875 24.175625 -16.3125 25.375 C-17 28 -17 28 -20 30 C-22.56191418 38.01812803 -22.56191418 38.01812803 -21 46 C-21.33 46.66 -21.66 47.32 -22 48 C-22.66 48 -23.32 48 -24 48 C-24 47.34 -24 46.68 -24 46 C-24.99 46.66 -25.98 47.32 -27 48 C-27.54932167 51.01564083 -27.54932167 51.01564083 -27.625 54.4375 C-27.92197659 60.76592978 -27.92197659 60.76592978 -29 64 C-29.15070797 66.13661258 -29.2485966 68.27712124 -29.31640625 70.41796875 C-29.35830078 71.67158203 -29.40019531 72.92519531 -29.44335938 74.21679688 C-29.48267578 75.52712891 -29.52199219 76.83746094 -29.5625 78.1875 C-29.60570992 79.52279978 -29.649325 80.85808652 -29.69335938 82.19335938 C-29.79956502 85.46213297 -29.90160997 88.73098333 -30 92 C-33.34514796 86.53097505 -32.39170388 79.95159514 -32.375 73.75 C-32.37512085 73.07215454 -32.3752417 72.39430908 -32.37536621 71.69592285 C-32.34867415 61.22953272 -31.56845656 51.88759838 -28 42 C-27.71125 41.11570313 -27.4225 40.23140625 -27.125 39.3203125 C-21.58699911 23.84357787 -11.68050395 11.26499195 0 0 Z " fill="#D32B32" transform="translate(37,28)"/>
<path d="M0 0 C0.886875 0.309375 1.77375 0.61875 2.6875 0.9375 C5.83416369 2.0612235 5.83416369 2.0612235 8.5625 2.3125 C11.9844198 3.27765687 13.54603287 5.48468369 16 8 C18.66533035 9.319018 18.66533035 9.319018 21 10 C21 10.66 21 11.32 21 12 C24.465 11.505 24.465 11.505 28 11 C28 11.66 28 12.32 28 13 C28.66 13 29.32 13 30 13 C30 13.99 30 14.98 30 16 C32.64 16 35.28 16 38 16 C38 16.66 38 17.32 38 18 C39.06541016 17.87431641 39.06541016 17.87431641 40.15234375 17.74609375 C41.07144531 17.64425781 41.99054688 17.54242188 42.9375 17.4375 C43.85402344 17.33308594 44.77054688 17.22867188 45.71484375 17.12109375 C46.84599609 17.06115234 46.84599609 17.06115234 48 17 C48.33 17.33 48.66 17.66 49 18 C52.30448256 18.25498212 55.62437089 18.1852477 58.9375 18.1875 C60.30745117 18.20586914 60.30745117 18.20586914 61.70507812 18.22460938 C67.23943767 18.23635961 72.31448024 17.72590411 77.70703125 16.4675293 C80.16898053 15.96554539 82.55596785 15.76868981 85.0625 15.625 C89.54753591 15.24479287 92.93378837 13.89036307 96.94921875 11.921875 C99.58074319 10.73894211 102.14129754 10.29320025 105 10 C101.89808142 12.5527751 98.86290113 14.04585392 95.125 15.5 C94.11695313 15.9021875 93.10890625 16.304375 92.0703125 16.71875 C81.24311417 20.37965102 70.50005235 21.53130278 59.125 21.4375 C57.80870605 21.42847656 56.49241211 21.41945312 55.13623047 21.41015625 C34.88752314 21.04960056 17.27215092 14.11407614 1 2 C0.67 1.34 0.34 0.68 0 0 Z " fill="#D1303C" transform="translate(40,175)"/>
<path d="M0 0 C0.66 0.33 1.32 0.66 2 1 C2 1.66 2 2.32 2 3 C1.36191406 3.18175781 0.72382812 3.36351562 0.06640625 3.55078125 C-0.75988281 3.80214844 -1.58617188 4.05351562 -2.4375 4.3125 C-3.67306641 4.67794922 -3.67306641 4.67794922 -4.93359375 5.05078125 C-5.95646484 5.52064453 -5.95646484 5.52064453 -7 6 C-7.33 6.99 -7.66 7.98 -8 9 C-6.68 9.33 -5.36 9.66 -4 10 C-2.875 13.75 -2.875 13.75 -4 16 C-2.35 16 -0.7 16 1 16 C1 15.34 1 14.68 1 14 C3.22582389 13.15665671 5.45496026 12.32521449 7.6875 11.5 C8.31333984 11.26152344 8.93917969 11.02304687 9.58398438 10.77734375 C13.18192299 9.4587275 16.16520253 8.70670765 20 9 C16.86418544 10.63478484 13.66188928 11.94912034 10.375 13.25 C0.78836528 17.24733617 -6.82939533 22.42102672 -14.65234375 29.2421875 C-17 31 -17 31 -20 31 C-19.505 29.515 -19.505 29.515 -19 28 C-18.01 28 -17.02 28 -16 28 C-16 27.01 -16 26.02 -16 25 C-14.68 25 -13.36 25 -12 25 C-11.67 23.02 -11.34 21.04 -11 19 C-12.32 19.33 -13.64 19.66 -15 20 C-15 18.68 -15 17.36 -15 16 C-14.34 15.67 -13.68 15.34 -13 15 C-13 14.34 -13 13.68 -13 13 C-14.9600281 11.36323743 -14.9600281 11.36323743 -17 10 C-14.21605957 8.29949343 -11.42172475 6.61688375 -8.625 4.9375 C-7.8309375 4.45216797 -7.036875 3.96683594 -6.21875 3.46679688 C-5.45820312 3.01240234 -4.69765625 2.55800781 -3.9140625 2.08984375 C-3.2123291 1.66566162 -2.5105957 1.24147949 -1.78759766 0.80444336 C-1.19769043 0.53897705 -0.6077832 0.27351074 0 0 Z " fill="#DD242D" transform="translate(60,13)"/>
<path d="M0 0 C0.80991898 0.00359528 1.61983795 0.00719055 2.45429993 0.01089478 C3.30300659 0.01074875 4.15171326 0.01060272 5.02613831 0.01045227 C7.84523532 0.01115168 10.66426712 0.01894539 13.48335266 0.02676392 C15.43248458 0.028628 17.38161696 0.03005195 19.33074951 0.03105164 C24.47151473 0.03487761 29.61225188 0.04470858 34.75300598 0.05575562 C39.99449789 0.06596802 45.23599431 0.07054889 50.47749329 0.07559204 C60.76982335 0.08633078 71.06213255 0.10340815 81.35444641 0.12442017 C81.35444641 0.45442017 81.35444641 0.78442017 81.35444641 1.12442017 C52.97444641 1.12442017 24.59444641 1.12442017 -4.64555359 1.12442017 C-6.37515451 11.10195563 -6.37515451 11.10195563 -6.84086609 20.85879517 C-6.83442078 22.17363892 -6.82797546 23.48848267 -6.82133484 24.84317017 C-6.80463616 26.18692302 -6.78770643 27.53067303 -6.77055359 28.87442017 C-6.76049076 30.26503863 -6.75137082 31.65566424 -6.74320984 33.04629517 C-6.71987954 36.40585836 -6.68714589 39.76504192 -6.64555359 43.12442017 C-0.0249078 43.05745031 6.59514605 42.96765573 13.21528625 42.86196899 C15.46749331 42.82870992 17.71978392 42.80068108 19.97212219 42.77798462 C23.20930087 42.74445721 26.44571321 42.69214128 29.68257141 42.63613892 C30.6899939 42.62974899 31.69741638 42.62335907 32.73536682 42.61677551 C33.67604004 42.59698135 34.61671326 42.57718719 35.58589172 42.55679321 C36.82499298 42.54013863 36.82499298 42.54013863 38.08912659 42.52314758 C40.84161783 42.0386713 42.26388434 40.93371036 44.35444641 39.12442017 C45.01444641 39.78442017 45.67444641 40.44442017 46.35444641 41.12442017 C45.36444641 41.45442017 44.37444641 41.78442017 43.35444641 42.12442017 C43.35444641 42.78442017 43.35444641 43.44442017 43.35444641 44.12442017 C40.48131233 45.08213153 38.84999435 45.22094658 35.88301086 45.14614868 C34.98230362 45.1260524 34.08159637 45.10595612 33.15359497 45.08525085 C32.18475876 45.05821579 31.21592255 45.03118073 30.21772766 45.00332642 C28.72586189 44.96790993 28.72586189 44.96790993 27.20385742 44.93177795 C24.02474135 44.85515639 20.84586979 44.77112529 17.66694641 44.68692017 C15.51266153 44.63369799 13.35836469 44.5809576 11.20405579 44.52871704 C5.92070112 44.39954328 0.6375283 44.26428429 -4.64555359 44.12442017 C-4.64555359 45.11442017 -4.64555359 46.10442017 -4.64555359 47.12442017 C-5.30555359 47.12442017 -5.96555359 47.12442017 -6.64555359 47.12442017 C-9.70662222 42.08829413 -9.20448295 36.39504166 -9.38847351 30.66445923 C-9.45690221 28.65817773 -9.55391648 26.65293681 -9.65141296 24.64785767 C-9.94345907 16.37184677 -9.39104927 8.98632113 -6.64555359 1.12442017 C-4.8456696 -0.67546382 -2.39555483 0.00449012 0 0 Z " fill="#C1333E" transform="translate(27.645553588867188,74.87557983398438)"/>
<path d="M0 0 C48.84 0 97.68 0 148 0 C146.875 5.625 146.875 5.625 144 8 C144 6.68 144 5.36 144 4 C144.66 4 145.32 4 146 4 C146 3.01 146 2.02 146 1 C130.69931711 1.10791711 115.39867611 1.22078993 100.09807205 1.33933926 C92.99150294 1.39428926 85.88492886 1.44770208 78.77832031 1.49731445 C72.57409495 1.54063124 66.36990085 1.58701714 60.16572452 1.63687855 C56.88986359 1.6631042 53.61400703 1.68747754 50.33811188 1.70907402 C35.53193445 1.8077365 20.78039794 2.09300589 6 3 C5.67 3.66 5.34 4.32 5 5 C5.99 6.485 5.99 6.485 7 8 C6.625 10.1875 6.625 10.1875 6 12 C4.99466333 10.37829621 3.99588093 8.75252763 3 7.125 C2.443125 6.22007812 1.88625 5.31515625 1.3125 4.3828125 C0 2 0 2 0 0 Z " fill="#FEE3DE" transform="translate(26,132)"/>
<path d="M0 0 C6.18913044 4.77078805 10.94662365 10.29350458 15 17 C15 17.99 15 18.98 15 20 C-31.2 20 -77.4 20 -125 20 C-124.34 18.68 -123.68 17.36 -123 16 C-123 16.99 -123 17.98 -123 19 C-56.67 18.505 -56.67 18.505 11 18 C11 17.34 11 16.68 11 16 C10.34 16 9.68 16 9 16 C8.70867187 15.28972656 8.41734375 14.57945313 8.1171875 13.84765625 C6.88555483 11.0861654 5.6653644 8.52601784 4 6 C0.84534204 4.70371263 0.84534204 4.70371263 -2 5 C-2 4.34 -2 3.68 -2 3 C-1.34 3 -0.68 3 0 3 C0 2.01 0 1.02 0 0 Z " fill="#FDDCDE" transform="translate(155,42)"/>
<path d="M0 0 C0.66 0 1.32 0 2 0 C2 0.66 2 1.32 2 2 C2.66 2 3.32 2 4 2 C4 3.98 4 5.96 4 8 C4.66 8 5.32 8 6 8 C6.19770851 12.20791855 6.38136206 16.41633815 6.5625 20.625 C6.64661133 22.40970703 6.64661133 22.40970703 6.73242188 24.23046875 C6.80493164 25.96103516 6.80493164 25.96103516 6.87890625 27.7265625 C6.94960327 29.31331787 6.94960327 29.31331787 7.02172852 30.93212891 C6.99956774 34.06103168 6.59691716 36.93301147 6 40 C5.34 40 4.68 40 4 40 C3.67 41.32 3.34 42.64 3 44 C-26.7 44 -56.4 44 -87 44 C-87 43.67 -87 43.34 -87 43 C-57.63 42.67 -28.26 42.34 2 42 C4.32583463 28.0449922 3.90565436 13.62329437 0 0 Z " fill="#D92230" transform="translate(177,76)"/>
<path d="M0 0 C0.33 0.66 0.66 1.32 1 2 C1.99 1.34 2.98 0.68 4 0 C6.29692078 -0.24050903 6.29692078 -0.24050903 9.0222168 -0.22705078 C10.04304855 -0.22689972 11.06388031 -0.22674866 12.11564636 -0.22659302 C13.21572525 -0.21627045 14.31580414 -0.20594788 15.44921875 -0.1953125 C17.14084892 -0.19106766 17.14084892 -0.19106766 18.86665344 -0.18673706 C22.47370958 -0.17552916 26.08051873 -0.15042323 29.6875 -0.125 C32.13085579 -0.114971 34.57421547 -0.10584501 37.01757812 -0.09765625 C43.01180323 -0.07558783 49.00588397 -0.04210417 55 0 C55 0.33 55 0.66 55 1 C54.43782776 0.98588074 53.87565552 0.97176147 53.29644775 0.95721436 C47.38984764 0.82093226 41.48675097 0.77068875 35.57861328 0.76806641 C33.38079875 0.75613753 31.18298476 0.72302534 28.98583984 0.66748047 C14.58426678 -0.11892778 14.58426678 -0.11892778 2.29705811 6.18511963 C0.02654856 8.671789 -1.9611106 11.31993934 -4 14 C-5.63177714 15.3758121 -7.29394123 16.71745603 -9 18 C-9.845625 18.845625 -10.69125 19.69125 -11.5625 20.5625 C-13.61694931 22.61694931 -15.63116166 24.33303969 -18 26 C-17.7215625 25.1028125 -17.7215625 25.1028125 -17.4375 24.1875 C-16.77906313 21.83591238 -16.77906313 21.83591238 -18 19 C-17.34 19 -16.68 19 -16 19 C-16 18.01 -16 17.02 -16 16 C-14.9275 15.731875 -13.855 15.46375 -12.75 15.1875 C-9.39059522 14.12368849 -7.65868412 13.16633521 -5 11 C-4.34 11 -3.68 11 -3 11 C-3.061875 10.29875 -3.12375 9.5975 -3.1875 8.875 C-2.95743899 5.34739788 -1.70799432 3.06015649 0 0 Z " fill="#C5343E" transform="translate(122,75)"/>
<path d="M0 0 C0 3.69418201 -1.28179295 5.77836178 -3 9 C-4.32 9 -5.64 9 -7 9 C-7.144375 9.639375 -7.28875 10.27875 -7.4375 10.9375 C-8 13 -8 13 -9 14 C-8.34 14.33 -7.68 14.66 -7 15 C-7.33 17.97 -7.66 20.94 -8 24 C-9.98 24.33 -11.96 24.66 -14 25 C-14.66 23.68 -15.32 22.36 -16 21 C-17.98491642 21.26676204 -17.98491642 21.26676204 -20 22 C-20.33 22.99 -20.66 23.98 -21 25 C-22.84765625 26.60546875 -22.84765625 26.60546875 -25.0625 28.1875 C-25.79597656 28.71730469 -26.52945313 29.24710938 -27.28515625 29.79296875 C-27.85105469 30.19128906 -28.41695313 30.58960937 -29 31 C-29.66 30.67 -30.32 30.34 -31 30 C-30.113125 29.278125 -29.22625 28.55625 -28.3125 27.8125 C-24.40164584 24.54427446 -20.88759842 21.10350074 -17.6875 17.125 C-15.11935789 13.97721453 -12.15647239 11.44101641 -9.0703125 8.8125 C-5.89141739 6.0294673 -2.94449752 3.02731151 0 0 Z " fill="#E61E21" transform="translate(103,83)"/>
<path d="M0 0 C0.495 0.99 0.495 0.99 1 2 C-0.26746453 3.7732461 -1.53910235 5.54350975 -2.8125 7.3125 C-3.87404297 8.79169922 -3.87404297 8.79169922 -4.95703125 10.30078125 C-6.55202305 12.40812224 -8.13089435 14.15904353 -10 16 C-10.309375 16.70125 -10.61875 17.4025 -10.9375 18.125 C-11.288125 18.74375 -11.63875 19.3625 -12 20 C-13.32594105 20.36162029 -14.65938457 20.69728039 -16 21 C-16.495 22.485 -16.495 22.485 -17 24 C-17.66 24 -18.32 24 -19 24 C-19.2475 24.804375 -19.495 25.60875 -19.75 26.4375 C-21 29 -21 29 -22.75 29.6875 C-23.4925 29.790625 -24.235 29.89375 -25 30 C-28.15020361 30.88319294 -28.15020361 30.88319294 -31 32 C-31.33 32.66 -31.66 33.32 -32 34 C-34.87182587 34.47618812 -37.67120147 34.84167597 -40.5625 35.125 C-41.36880859 35.21136719 -42.17511719 35.29773438 -43.00585938 35.38671875 C-45.00304064 35.59943628 -47.00142737 35.80077855 -49 36 C-46.00118923 34.00079282 -43.37886693 32.96834144 -40 31.75 C-23.14131372 25.28595123 -9.72050303 15.33545199 0 0 Z " fill="#D02E38" transform="translate(168,144)"/>
<path d="M0 0 C2.23619731 2.85893581 4.18845463 5.84485184 6.10766602 8.92382812 C11.92067545 18.2166921 17.82981499 25.80610311 27 32 C27.85851562 32.58910156 28.71703125 33.17820313 29.6015625 33.78515625 C35.49460052 37.69448147 41.32375737 40.66838381 48 43 C43.64143442 44.40844477 40.93458752 42.97156121 37 41 C35.948125 40.443125 34.89625 39.88625 33.8125 39.3125 C30.91315745 37.71807636 30.91315745 37.71807636 27 38 C26.74863281 37.4121875 26.49726562 36.824375 26.23828125 36.21875 C24.84550617 33.72317825 23.36828502 32.33469485 21.1875 30.5 C20.47722656 29.89929688 19.76695313 29.29859375 19.03515625 28.6796875 C18.36355469 28.12539062 17.69195312 27.57109375 17 27 C16.05125 26.21625 15.1025 25.4325 14.125 24.625 C12.10274318 22.97300815 12.10274318 22.97300815 10 22 C8.82513503 19.37383124 7.90985138 16.72955415 7 14 C6.34 14 5.68 14 5 14 C5 13.01 5 12.02 5 11 C4.01 11 3.02 11 2 11 C0.80712589 7.12315913 0 4.08378077 0 0 Z " fill="#CD2C32" transform="translate(26,134)"/>
<path d="M0 0 C0 0.33 0 0.66 0 1 C-1.74991334 1.02715383 -3.49994945 1.04646551 -5.25 1.0625 C-6.71179688 1.07990234 -6.71179688 1.07990234 -8.203125 1.09765625 C-11 1 -11 1 -12.93725586 0.50439453 C-16.34894815 -0.32985287 -19.8196631 -0.19043917 -23.3125 -0.1875 C-24.10487061 -0.18814453 -24.89724121 -0.18878906 -25.71362305 -0.18945312 C-32.20498937 -0.13235765 -38.45816699 0.54782843 -44.86328125 1.5625 C-47.63262055 1.94875903 -50.21065251 2.08373276 -53 2 C-53 2.99 -53 3.98 -53 5 C-56.3 5 -59.6 5 -63 5 C-45.22490829 -6.85006114 -19.72382385 -4.2922311 0 0 Z " fill="#CB3D49" transform="translate(125,8)"/>
<path d="M0 0 C1.16402344 0.15339844 2.32804687 0.30679688 3.52734375 0.46484375 C10.5157731 1.2413359 17.53944651 1.3591858 24.5625 1.5625 C25.96680703 1.60579176 27.37110406 1.64940904 28.77539062 1.69335938 C32.18350951 1.79876511 35.5916932 1.90088982 39 2 C35.33629148 3.98508922 32.42798016 4.37432119 28.25 4.625 C26.49429688 4.73714844 26.49429688 4.73714844 24.703125 4.8515625 C23.81109375 4.90054688 22.9190625 4.94953125 22 5 C22 5.33 22 5.66 22 6 C16.06 6 10.12 6 4 6 C4 5.34 4 4.68 4 4 C3.34 4 2.68 4 2 4 C2 3.01 2 2.02 2 1 C1.34 0.67 0.68 0.34 0 0 Z " fill="#F7E0E0" transform="translate(75,194)"/>
<path d="M0 0 C1.27930855 2.55861711 0.78810164 3.29324363 0.0703125 6.0234375 C-1.59868137 13.81862061 -1.21252756 21.69632452 -1.125 29.625 C-1.11494793 31.21744227 -1.10582603 32.80989071 -1.09765625 34.40234375 C-1.07582408 38.26838365 -1.04141784 42.13412236 -1 46 C-1.66 46 -2.32 46 -3 46 C-4.70244385 37.94379248 -5.26408525 30.02712333 -5.375 21.8125 C-5.40078125 20.89903809 -5.4265625 19.98557617 -5.453125 19.04443359 C-5.47244816 12.3356724 -4.01980555 6.9958124 -1 1 C-0.67 0.67 -0.34 0.34 0 0 Z " fill="#FCD9D7" transform="translate(7,74)"/>
<path d="M0 0 C0 0.99 0 1.98 0 3 C0.66 3 1.32 3 2 3 C1.65120368 6.25543229 0.97866739 7.01873107 -1.5625 9.25 C-2.366875 9.8275 -3.17125 10.405 -4 11 C-4.99 10.505 -4.99 10.505 -6 10 C-4.02 8.35 -2.04 6.7 0 5 C-2.01818208 2.98181792 -6.14574508 3.81483097 -8.91625977 3.79467773 C-9.74545929 3.78477814 -10.57465881 3.77487854 -11.4289856 3.76467896 C-14.18309629 3.7329688 -16.93722426 3.70826912 -19.69140625 3.68359375 C-21.59570273 3.66303243 -23.49999455 3.64203618 -25.40428162 3.62062073 C-30.42662806 3.56531515 -35.44901627 3.51594344 -40.47143555 3.46777344 C-45.59232315 3.41762021 -50.7131498 3.36190197 -55.83398438 3.30664062 C-65.8892709 3.19895533 -75.94461025 3.09753355 -86 3 C-86 2.67 -86 2.34 -86 2 C-84.98966705 1.98969254 -83.97933411 1.97938507 -82.93838501 1.96876526 C-73.43231734 1.87114921 -63.92631685 1.76842648 -54.42035866 1.66066074 C-49.53286651 1.60541826 -44.64536838 1.55199614 -39.7578125 1.50268555 C-35.04398654 1.45506155 -30.33023473 1.40271945 -25.61649704 1.34705925 C-23.81512668 1.32662678 -22.01373599 1.30791519 -20.21232986 1.29092598 C-17.69567741 1.26690169 -15.17916577 1.2368445 -12.66259766 1.20532227 C-11.53726875 1.19668907 -11.53726875 1.19668907 -10.38920593 1.18788147 C-6.66734316 1.1346404 -3.59465696 0 0 0 Z " fill="#D42430" transform="translate(110,72)"/>
<path d="M0 0 C0.33 0 0.66 0 1 0 C1.33 8.58 1.66 17.16 2 26 C8.62093548 25.92603732 15.24051074 25.84323858 21.86083984 25.73754883 C24.1130469 25.70428976 26.36533751 25.67626092 28.61767578 25.65356445 C31.85485446 25.62003704 35.0912668 25.56772112 38.328125 25.51171875 C39.33554749 25.50532883 40.34296997 25.4989389 41.38092041 25.49235535 C42.32159363 25.47256119 43.26226685 25.45276703 44.23144531 25.43237305 C45.47054657 25.41571846 45.47054657 25.41571846 46.73468018 25.39872742 C49.48717141 24.91425114 50.90943793 23.8092902 53 22 C53.66 22.66 54.32 23.32 55 24 C54.01 24.33 53.02 24.66 52 25 C52 25.66 52 26.32 52 27 C49.12686592 27.95771136 47.49554794 28.09652642 44.52856445 28.02172852 C43.62785721 28.00163223 42.72714996 27.98153595 41.79914856 27.96083069 C40.83031235 27.93379562 39.86147614 27.90676056 38.86328125 27.87890625 C37.86870407 27.85529526 36.87412689 27.83168427 35.84941101 27.80735779 C32.67029494 27.73073623 29.49142337 27.64670512 26.3125 27.5625 C24.15821512 27.50927782 22.00391828 27.45653743 19.84960938 27.40429688 C14.5662547 27.27512312 9.28308189 27.13986412 4 27 C4 27.99 4 28.98 4 30 C3.34 30 2.68 30 2 30 C-0.09352976 26.56632144 -0.23437612 23.90636407 -0.1953125 19.921875 C-0.18886719 18.76171875 -0.18242187 17.6015625 -0.17578125 16.40625 C-0.15902344 15.1996875 -0.14226563 13.993125 -0.125 12.75 C-0.11597656 11.52796875 -0.10695313 10.3059375 -0.09765625 9.046875 C-0.07409513 6.03105218 -0.04119706 3.01562508 0 0 Z " fill="#C0353E" transform="translate(19,92)"/>
<path d="M0 0 C-3.85609164 1.28536388 -5.32929943 0.39503318 -9.125 -0.9375 C-14.7501949 -2.77481198 -19.12957078 -3.29352146 -25 -3 C-25.33 -3.33 -25.66 -3.66 -26 -4 C-28.07262076 -4.08767112 -30.14820294 -4.10695873 -32.22265625 -4.09765625 C-34.11274414 -4.09282227 -34.11274414 -4.09282227 -36.04101562 -4.08789062 C-37.38151109 -4.07953403 -38.72200588 -4.07106907 -40.0625 -4.0625 C-41.40689942 -4.0574866 -42.7513006 -4.05292342 -44.09570312 -4.04882812 C-47.39717941 -4.03699488 -50.69856803 -4.02050971 -54 -4 C-38.72528937 -12.02110621 -14.69361319 -6.81092188 0 0 Z " fill="#F9D0CC" transform="translate(134,27)"/>
<path d="M0 0 C4.44612803 0.49401423 5.9116506 1.9116506 9 5 C10.98799818 5.70164642 12.98698517 6.37372872 15 7 C15.33 7.66 15.66 8.32 16 9 C18.59525594 10.10776926 18.59525594 10.10776926 21.6875 11.0625 C22.72261719 11.40410156 23.75773437 11.74570313 24.82421875 12.09765625 C27.99583367 13.07242395 27.99583367 13.07242395 31.33203125 13.49609375 C32.21246094 13.66238281 33.09289062 13.82867187 34 14 C34.495 14.99 34.495 14.99 35 16 C35.99 16.66 36.98 17.32 38 18 C24.48533265 17.18911996 12.62553338 11.01417348 2 3 C1.34 2.01 0.68 1.02 0 0 Z " fill="#FAD1D2" transform="translate(48,162)"/>
<path d="M0 0 C9.05698785 4.87683961 14.92315572 14.32023398 20 23 C19.02149805 24.02104551 18.02019573 25.0206121 17 26 C16.67 26 16.34 26 16 26 C16 24.02 16 22.04 16 20 C15.01 20 14.02 20 13 20 C12.67 18.02 12.34 16.04 12 14 C11.01 13.67 10.02 13.34 9 13 C7.6459068 11.01399663 6.31542376 9.01182457 5 7 C4.0925 6.0925 3.185 5.185 2.25 4.25 C1.5075 3.5075 0.765 2.765 0 2 C0 1.34 0 0.68 0 0 Z " fill="#C83B42" transform="translate(163,29)"/>
<path d="M0 0 C1.78567383 -0.01160156 1.78567383 -0.01160156 3.60742188 -0.0234375 C11.6778965 -0.00588345 19.37639892 0.79638641 27.3125 2.25 C26.9825 2.91 26.6525 3.57 26.3125 4.25 C25.38953125 4.105625 24.4665625 3.96125 23.515625 3.8125 C15.59342988 2.68523113 7.81875082 2.03591589 -0.1875 2 C-1.01088867 1.99097656 -1.83427734 1.98195313 -2.68261719 1.97265625 C-8.02011922 1.99859794 -12.54019751 2.86418779 -17.6875 4.25 C-19.0075 4.25 -20.3275 4.25 -21.6875 4.25 C-21.6875 3.59 -21.6875 2.93 -21.6875 2.25 C-14.43890592 -0.0191251 -7.55648735 -0.04830999 0 0 Z " fill="#FDD7DB" transform="translate(97.6875,3.75)"/>
<path d="M0 0 C1.9815489 2.97232334 2.90635464 5.45180507 4.0625 8.8125 C6.97439184 16.60093361 11.3049978 23.1774151 16 30 C15.01 30.33 14.02 30.66 13 31 C12.34 30.01 11.68 29.02 11 28 C10.01 27.34 9.02 26.68 8 26 C7.375 23.5625 7.375 23.5625 7 21 C6.67 20.01 6.34 19.02 6 18 C5.34 17.67 4.68 17.34 4 17 C3.375 14.4375 3.375 14.4375 3 12 C2.34 12 1.68 12 1 12 C0.67 8.04 0.34 4.08 0 0 Z " fill="#FAD2D2" transform="translate(8,128)"/>
<path d="M0 0 C2.24910686 2.87742878 4.22052975 5.88337837 6.16040039 8.97607422 C9.75428627 14.70466282 13.38238086 20.02717939 18 25 C12.49671053 23.66447368 12.49671053 23.66447368 10 22 C8.8125 19.5625 8.8125 19.5625 8 17 C7.67 16.01 7.34 15.02 7 14 C6.34 14 5.68 14 5 14 C5 13.01 5 12.02 5 11 C4.01 11 3.02 11 2 11 C0.80712589 7.12315913 0 4.08378077 0 0 Z " fill="#CC3943" transform="translate(26,134)"/>
<path d="M0 0 C0 3.10551666 -0.5393715 4.35261084 -2 7 C-1.34 7.33 -0.68 7.66 0 8 C-3.22515763 9.73662334 -6.51329166 10.8905928 -10 12 C-10 12.99 -10 13.98 -10 15 C-10.66 15 -11.32 15 -12 15 C-12 16.98 -12 18.96 -12 21 C-14 21 -16 21 -18 21 C-12.88869714 12.95798424 -6.85905283 6.52416237 0 0 Z " fill="#D23D48" transform="translate(37,28)"/>
<path d="M0 0 C-1.65244463 2.0209846 -2.52789679 2.92060026 -5.14506531 3.36076355 C-6.38749748 3.3507708 -6.38749748 3.3507708 -7.6550293 3.34057617 C-8.59577805 3.34034958 -9.53652679 3.34012299 -10.50578308 3.33988953 C-12.02465874 3.31666374 -12.02465874 3.31666374 -13.57421875 3.29296875 C-14.61318802 3.28872391 -15.65215729 3.28447906 -16.72261047 3.28010559 C-20.04450276 3.26329849 -23.36579075 3.22564196 -26.6875 3.1875 C-28.93814229 3.17245582 -31.18879407 3.15876695 -33.43945312 3.14648438 C-38.95984197 3.11338836 -44.47987782 3.06316869 -50 3 C-50 2.34 -50 1.68 -50 1 C-48.18411377 1.01571045 -48.18411377 1.01571045 -46.33154297 1.03173828 C-41.82522558 1.06803343 -37.31892104 1.0909351 -32.8125 1.10986328 C-30.86488672 1.11989919 -28.91728843 1.13353088 -26.96972656 1.15087891 C-24.16467583 1.17523328 -21.35982495 1.18650737 -18.5546875 1.1953125 C-17.25590164 1.21079636 -17.25590164 1.21079636 -15.93087769 1.22659302 C-10.6023176 1.22757418 -4.76094142 -1.58698047 0 0 Z " fill="#FEF3EF" transform="translate(72,114)"/>
<path d="M0 0 C0.33 1.32 0.66 2.64 1 4 C0.0409375 4.37125 0.0409375 4.37125 -0.9375 4.75 C-3.19895007 5.79688294 -3.19895007 5.79688294 -3.5625 8.0625 C-3.706875 8.701875 -3.85125 9.34125 -4 10 C-4.99 10.33 -5.98 10.66 -7 11 C-7 11.99 -7 12.98 -7 14 C-4.36 14 -1.72 14 1 14 C1 14.33 1 14.66 1 15 C-3.95 15 -8.9 15 -14 15 C-9.59156563 9.70987876 -4.92440206 4.81191572 0 0 Z " fill="#FEECE7" transform="translate(103,102)"/>
<path d="M0 0 C-9.9860972 4.97694199 -19.6634651 9.3005267 -31 9 C-28 7 -28 7 -25 7 C-25 6.34 -25 5.68 -25 5 C-24.38253906 4.97421875 -23.76507813 4.9484375 -23.12890625 4.921875 C-16.67674318 4.48976667 -11.72574727 2.96159342 -6 0 C-3.50907189 -1.24546405 -2.58919267 -0.7767578 0 0 Z " fill="#CE3C48" transform="translate(145,186)"/>
<path d="M0 0 C10.34769363 1.42357324 19.31714642 6.40993276 28 12 C24.06329512 13.31223496 21.87511856 12.24296256 18 11 C18 10.01 18 9.02 18 8 C17.154375 7.896875 16.30875 7.79375 15.4375 7.6875 C9.31596289 6.46319258 4.67811644 4.11107202 0 0 Z " fill="#CA353F" transform="translate(126,9)"/>
<path d="M0 0 C0.66 0.66 1.32 1.32 2 2 C-11.42307692 15 -11.42307692 15 -19 15 C-19 14.34 -19 13.68 -19 13 C-17.68 12.34 -16.36 11.68 -15 11 C-15 10.67 -15 10.34 -15 10 C-14.21625 9.9175 -13.4325 9.835 -12.625 9.75 C-11.75875 9.5025 -10.8925 9.255 -10 9 C-9.7009375 8.38125 -9.401875 7.7625 -9.09375 7.125 C-7.74813761 4.51066735 -6.39500069 3.7132262 -3.875 2.25 C-3.15054688 1.82203125 -2.42609375 1.3940625 -1.6796875 0.953125 C-1.12539062 0.63859375 -0.57109375 0.3240625 0 0 Z " fill="#FBDEDA" transform="translate(152,159)"/>
<path d="M0 0 C0.33 0 0.66 0 1 0 C1 10.56 1 21.12 1 32 C0.34 32 -0.32 32 -1 32 C-1 33.65 -1 35.3 -1 37 C-1.66 37 -2.32 37 -3 37 C-2.85636473 35.62476865 -2.70996483 34.24982598 -2.5625 32.875 C-2.48128906 32.10929687 -2.40007812 31.34359375 -2.31640625 30.5546875 C-2.10283216 28.83027447 -1.82890148 27.11242643 -1.5 25.40625 C-0.77894303 20.49404941 -0.6325944 15.58231672 -0.4375 10.625 C-0.39431641 9.60277344 -0.35113281 8.58054687 -0.30664062 7.52734375 C-0.20112208 5.01834712 -0.09900787 2.50926057 0 0 Z " fill="#FDD5D7" transform="translate(196,88)"/>
<path d="M0 0 C2.97 0 5.94 0 9 0 C9 0.99 9 1.98 9 3 C10.299375 2.8453125 10.299375 2.8453125 11.625 2.6875 C16.23756587 3.11458943 17.69294459 4.85042342 21 8 C20.34 8.66 19.68 9.32 19 10 C18.04738281 9.51789062 17.09476563 9.03578125 16.11328125 8.5390625 C14.84640841 7.90093396 13.57947829 7.26291914 12.3125 6.625 C11.68666016 6.30789062 11.06082031 5.99078125 10.41601562 5.6640625 C6.99635299 3.94527919 3.57992926 2.35530783 0 1 C0 0.67 0 0.34 0 0 Z " fill="#D03640" transform="translate(124,23)"/>
<path d="M0 0 C1.11375 0.3403125 1.11375 0.3403125 2.25 0.6875 C2.25 2.0075 2.25 3.3275 2.25 4.6875 C1.59 4.6875 0.93 4.6875 0.25 4.6875 C0.25 5.3475 0.25 6.0075 0.25 6.6875 C-0.41 6.6875 -1.07 6.6875 -1.75 6.6875 C-1.75 6.0275 -1.75 5.3675 -1.75 4.6875 C-3.07 4.6875 -4.39 4.6875 -5.75 4.6875 C-6.41 6.6675 -7.07 8.6475 -7.75 10.6875 C-8.41 10.6875 -9.07 10.6875 -9.75 10.6875 C-8.89969877 6.71942759 -7.84300687 3.78050687 -4.9375 0.875 C-2.75 -0.3125 -2.75 -0.3125 0 0 Z " fill="#E2222C" transform="translate(44.75,24.3125)"/>
<path d="M0 0 C4.29 0.66 8.58 1.32 13 2 C13 2.99 13 3.98 13 5 C19.27 5 25.54 5 32 5 C32 5.33 32 5.66 32 6 C28.72918529 6.02902429 25.4584037 6.04680684 22.1875 6.0625 C21.25873047 6.07087891 20.32996094 6.07925781 19.37304688 6.08789062 C18.48037109 6.09111328 17.58769531 6.09433594 16.66796875 6.09765625 C15.43469849 6.10551147 15.43469849 6.10551147 14.17651367 6.11352539 C12 6 12 6 9 5 C9 4.34 9 3.68 9 3 C6.36 3 3.72 3 1 3 C0.67 2.01 0.34 1.02 0 0 Z " fill="#DF202A" transform="translate(75,178)"/>
<path d="M0 0 C0.66 0 1.32 0 2 0 C2 0.66 2 1.32 2 2 C2.66 2 3.32 2 4 2 C5.12866889 9.18082254 5.11434249 16.24205132 5.0625 23.5 C5.05798828 24.70398438 5.05347656 25.90796875 5.04882812 27.1484375 C5.0371195 30.09901073 5.02071995 33.04947859 5 36 C4.67 36 4.34 36 4 36 C3.98541748 35.40687012 3.97083496 34.81374023 3.95581055 34.20263672 C3.63481669 22.48125673 3.08505836 11.3700893 0 0 Z " fill="#C42B38" transform="translate(177,76)"/>
<path d="M0 0 C1.65 0 3.3 0 5 0 C4.649375 0.5775 4.29875 1.155 3.9375 1.75 C2.82456726 3.93300664 2.82456726 3.93300664 3.1875 6.1875 C3.455625 6.785625 3.72375 7.38375 4 8 C4.99 8.33 5.98 8.66 7 9 C5.35 10.98 3.7 12.96 2 15 C-0.35119399 11.47320901 -0.21443452 9.97120515 -0.125 5.8125 C-0.10695313 4.72582031 -0.08890625 3.63914063 -0.0703125 2.51953125 C-0.04710938 1.68808594 -0.02390625 0.85664062 0 0 Z " fill="#DE282E" transform="translate(32,40)"/>
<path d="M0 0 C7.59 0 15.18 0 23 0 C23 0.33 23 0.66 23 1 C16.4 1.33 9.8 1.66 3 2 C2.67 2.66 2.34 3.32 2 4 C2.99 5.485 2.99 5.485 4 7 C3.625 9.1875 3.625 9.1875 3 11 C0.9375 8.3125 0.9375 8.3125 -1 5 C-0.67 3.35 -0.34 1.7 0 0 Z " fill="#FDF9F4" transform="translate(29,133)"/>
<path d="M0 0 C9.24 0 18.48 0 28 0 C28 0.33 28 0.66 28 1 C27.1478894 1.02187378 27.1478894 1.02187378 26.27856445 1.04418945 C16.03342802 1.3372627 6.23493261 1.68599103 -3.69921875 4.37890625 C-6 5 -6 5 -8 5 C-8 4.34 -8 3.68 -8 3 C-6.865625 2.87625 -5.73125 2.7525 -4.5625 2.625 C-3.386875 2.41875 -2.21125 2.2125 -1 2 C-0.67 1.34 -0.34 0.68 0 0 Z " fill="#DD212C" transform="translate(81,18)"/>
<path d="M0 0 C0.66 0 1.32 0 2 0 C1.3125 2.875 1.3125 2.875 0 6 C-2.5625 7.1875 -2.5625 7.1875 -5 8 C-5.33 8.99 -5.66 9.98 -6 11 C-7.84765625 12.60546875 -7.84765625 12.60546875 -10.0625 14.1875 C-10.79597656 14.71730469 -11.52945313 15.24710938 -12.28515625 15.79296875 C-12.85105469 16.19128906 -13.41695313 16.58960937 -14 17 C-14.66 16.67 -15.32 16.34 -16 16 C-15.113125 15.278125 -14.22625 14.55625 -13.3125 13.8125 C-9.2574675 10.42378739 -5.62159975 6.80936109 -2.3125 2.6875 C-1.1678125 1.3571875 -1.1678125 1.3571875 0 0 Z " fill="#CA3745" transform="translate(88,97)"/>
<path d="M0 0 C0.35659503 3.20935531 0.29619066 4.58988985 -1.625 7.25 C-4.44059663 9.32465015 -6.55230934 9.68657358 -10 10 C-4.57142857 0 -4.57142857 0 0 0 Z " fill="#FBDFDA" transform="translate(48,40)"/>
<path d="M0 0 C0.33 0.66 0.66 1.32 1 2 C2.65 1.34 4.3 0.68 6 0 C5.69381595 3.67420866 5.24228216 4.78135513 2.4375 7.3125 C1.633125 7.869375 0.82875 8.42625 0 9 C-0.99 8.01 -1.98 7.02 -3 6 C-2.01 4.02 -1.02 2.04 0 0 Z " fill="#E22330" transform="translate(122,75)"/>
<path d="M0 0 C-1 2 -2 4 -3 6 C-6.96 6 -10.92 6 -15 6 C-13.48400735 2.9680147 -11.1403567 2.58975563 -8.0625 1.3125 C-6.98097656 0.85488281 -5.89945313 0.39726562 -4.78515625 -0.07421875 C-2 -1 -2 -1 0 0 Z " fill="#FAE0E0" transform="translate(147,186)"/>
<path d="M0 0 C0.66 0 1.32 0 2 0 C2.66 3.63 3.32 7.26 4 11 C4.66 11 5.32 11 6 11 C6.99 14.63 7.98 18.26 9 22 C8.34 22.33 7.68 22.66 7 23 C6.01170583 20.48241883 5.0342774 17.96145276 4.0625 15.4375 C3.78470703 14.73302734 3.50691406 14.02855469 3.22070312 13.30273438 C1.5134125 8.83909502 0.49374434 4.75619544 0 0 Z " fill="#C92F36" transform="translate(7,121)"/>
<path d="M0 0 C0 3.69418201 -1.28179295 5.77836178 -3 9 C-4.32 9 -5.64 9 -7 9 C-7.33 10.32 -7.66 11.64 -8 13 C-9.65 13.33 -11.3 13.66 -13 14 C-8.88380164 9.08064098 -4.59589638 4.47352044 0 0 Z " fill="#C83442" transform="translate(103,83)"/>
<path d="M0 0 C-0.804375 0.28875 -1.60875 0.5775 -2.4375 0.875 C-5.1326468 1.73262568 -5.1326468 1.73262568 -6 4 C-7.66666667 4.33333333 -9.33333333 4.66666667 -11 5 C-12.5159375 5.804375 -12.5159375 5.804375 -14.0625 6.625 C-17.26301696 8.12311432 -17.82421466 8.02444688 -21 7 C-18.730384 5.85170023 -16.45939222 4.70628022 -14.1875 3.5625 C-13.54490234 3.23701172 -12.90230469 2.91152344 -12.24023438 2.57617188 C-4.39844952 -1.36503606 -4.39844952 -1.36503606 0 0 Z " fill="#FACBCA" transform="translate(80,24)"/>
<path d="M0 0 C1.07378906 0.48210937 2.14757813 0.96421875 3.25390625 1.4609375 C4.6899968 2.09919997 6.12620079 2.73720722 7.5625 3.375 C8.26697266 3.69210938 8.97144531 4.00921875 9.69726562 4.3359375 C14.07662336 6.27334922 18.36448919 7.7939144 23 9 C22.01 10.485 22.01 10.485 21 12 C19.948125 11.443125 18.89625 10.88625 17.8125 10.3125 C12.06049329 7.42095068 6.0274121 5.24190328 0 3 C0 2.01 0 1.02 0 0 Z " fill="#FEE0DC" transform="translate(52,184)"/>
<path d="M0 0 C-0.97582031 0.62648438 -1.95164062 1.25296875 -2.95703125 1.8984375 C-4.24219614 2.72394488 -5.52735192 3.54946645 -6.8125 4.375 C-7.45509766 4.7875 -8.09769531 5.2 -8.75976562 5.625 C-11.51957989 7.39814492 -14.27052708 9.18035138 -17 11 C-16.67 9.02 -16.34 7.04 -16 5 C-12.25 3.875 -12.25 3.875 -10 5 C-9.67 4.01 -9.34 3.02 -9 2 C-8.01 2 -7.02 2 -6 2 C-6 1.34 -6 0.68 -6 0 C-3 -1 -3 -1 0 0 Z " fill="#FDD4D5" transform="translate(56,16)"/>
<path d="M0 0 C2.475 0.99 2.475 0.99 5 2 C2.18752345 3.87498437 -0.22357209 4.95940338 -3.375 6.125 C-4.31085938 6.47820312 -5.24671875 6.83140625 -6.2109375 7.1953125 C-8.96579739 7.99013202 -11.15223068 8.15533287 -14 8 C-13.34 7.34 -12.68 6.68 -12 6 C-10.68 6 -9.36 6 -8 6 C-8 5.34 -8 4.68 -8 4 C-5.36 3.34 -2.72 2.68 0 2 C0 1.34 0 0.68 0 0 Z " fill="#FBD7D7" transform="translate(128,172)"/>
<path d="M0 0 C0 3.73389488 -1.37132639 4.67803606 -3.75390625 7.37109375 C-5.54080595 9.70694697 -6.26195765 12.18202011 -7 15 C-7.66 14.67 -8.32 14.34 -9 14 C-11.01927511 14.60578253 -13.02253397 15.26919734 -15 16 C-14.28457031 15.29488281 -13.56914062 14.58976563 -12.83203125 13.86328125 C-10.02335285 11.05460285 -7.35067865 8.13475104 -4.6875 5.1875 C-3.36298828 3.72376953 -3.36298828 3.72376953 -2.01171875 2.23046875 C-1.34785156 1.49441406 -0.68398437 0.75835937 0 0 Z " fill="#FAD9D8" transform="translate(175,160)"/>
<path d="M0 0 C1.53166168 4.08443115 0.63081652 7.79455657 0 12 C-0.99 12.33 -1.98 12.66 -3 13 C-3.144375 14.11375 -3.28875 15.2275 -3.4375 16.375 C-4 20 -4 20 -5 22 C-5.99 21.67 -6.98 21.34 -8 21 C-7.59007812 20.07058594 -7.18015625 19.14117187 -6.7578125 18.18359375 C-6.21331134 16.93499625 -5.66905352 15.68629261 -5.125 14.4375 C-4.85558594 13.82841797 -4.58617187 13.21933594 -4.30859375 12.59179688 C-2.51374991 8.45490071 -1.15585979 4.35972358 0 0 Z " fill="#F7C6C5" transform="translate(192,125)"/>
<path d="M0 0 C0.33 0 0.66 0 1 0 C1.33 8.58 1.66 17.16 2 26 C2.66 26 3.32 26 4 26 C4 27.32 4 28.64 4 30 C3.34 30 2.68 30 2 30 C-0.09352976 26.56632144 -0.23437612 23.90636407 -0.1953125 19.921875 C-0.18886719 18.76171875 -0.18242187 17.6015625 -0.17578125 16.40625 C-0.15902344 15.1996875 -0.14226563 13.993125 -0.125 12.75 C-0.11597656 11.52796875 -0.10695313 10.3059375 -0.09765625 9.046875 C-0.07409513 6.03105218 -0.04119706 3.01562508 0 0 Z " fill="#E05460" transform="translate(19,92)"/>
<path d="M0 0 C0.66 0.33 1.32 0.66 2 1 C2 1.66 2 2.32 2 3 C1.16855469 3.31453125 0.33710937 3.6290625 -0.51953125 3.953125 C-2.14955078 4.59507813 -2.14955078 4.59507813 -3.8125 5.25 C-4.89144531 5.66765625 -5.97039063 6.0853125 -7.08203125 6.515625 C-10.05481083 8.02788235 -11.28888575 9.19017028 -13 12 C-14.32 11.34 -15.64 10.68 -17 10 C-14.21605957 8.29949343 -11.42172475 6.61688375 -8.625 4.9375 C-7.8309375 4.45216797 -7.036875 3.96683594 -6.21875 3.46679688 C-5.45820312 3.01240234 -4.69765625 2.55800781 -3.9140625 2.08984375 C-2.8614624 1.45357056 -2.8614624 1.45357056 -1.78759766 0.80444336 C-0.90273682 0.4062439 -0.90273682 0.4062439 0 0 Z " fill="#CC4148" transform="translate(60,13)"/>
<path d="M0 0 C0.75 1.75 0.75 1.75 1 4 C-0.5625 6.3125 -0.5625 6.3125 -3 8 C-6.25 7.75 -6.25 7.75 -9 7 C-6.24479785 4.04070881 -3.53372712 1.96318174 0 0 Z " fill="#FAE4DD" transform="translate(159,176)"/>
<path d="M0 0 C0.99 0 1.98 0 3 0 C3 0.66 3 1.32 3 2 C3.66 2 4.32 2 5 2 C5.45375 2.969375 5.9075 3.93875 6.375 4.9375 C7.65786221 8.07079582 7.65786221 8.07079582 10 9 C10 10.98 10 12.96 10 15 C0 3.07692308 0 3.07692308 0 0 Z " fill="#D12B3A" transform="translate(162,48)"/>
<path d="M0 0 C1.32 0.33 2.64 0.66 4 1 C2.71173738 3.1271313 1.41957604 5.25171612 0.125 7.375 C-0.42220703 8.27992187 -0.42220703 8.27992187 -0.98046875 9.203125 C-2.50946322 11.70511595 -3.91871354 13.91871354 -6 16 C-5.48342956 11.5574942 -4.3993519 8.74298897 -2 5 C-1.30177383 3.34630643 -0.62501395 1.68272986 0 0 Z " fill="#FDDAD8" transform="translate(20,42)"/>
<path d="M0 0 C3.53233755 1.17744585 3.86308075 1.95605641 5.6875 5.0625 C6.12449219 5.79597656 6.56148437 6.52945313 7.01171875 7.28515625 C7.33785156 7.85105469 7.66398438 8.41695312 8 9 C7.02149805 10.02104551 6.02019573 11.0206121 5 12 C4.67 12 4.34 12 4 12 C4 10.02 4 8.04 4 6 C3.01 6 2.02 6 1 6 C0.67 4.02 0.34 2.04 0 0 Z " fill="#D3313E" transform="translate(175,43)"/>
<path d="M0 0 C1.98146451 0.44829514 3.96014211 0.90892498 5.9375 1.375 C7.03964844 1.63023437 8.14179687 1.88546875 9.27734375 2.1484375 C10.17582031 2.42945313 11.07429688 2.71046875 12 3 C12.33 3.66 12.66 4.32 13 5 C13.99 5.66 14.98 6.32 16 7 C10.37647098 6.50670798 6.01039858 5.65857884 1 3 C0.67 2.01 0.34 1.02 0 0 Z " fill="#FCD9DA" transform="translate(70,173)"/>
<path d="M0 0 C0.99 0.33 1.98 0.66 3 1 C-0.70090521 4.9252025 -4.54959656 7.94580156 -9 11 C-9 9.68 -9 8.36 -9 7 C-8.01 7 -7.02 7 -6 7 C-6 6.01 -6 5.02 -6 4 C-4.68 4 -3.36 4 -2 4 C-2 3.01 -2 2.02 -2 1 C-1.34 0.67 -0.68 0.34 0 0 Z " fill="#CF333D" transform="translate(50,34)"/>
<path d="M0 0 C-2.87078299 1.91385532 -5.33411656 2.96432952 -8.5625 4.125 C-9.53316406 4.47820313 -10.50382812 4.83140625 -11.50390625 5.1953125 C-14 6 -14 6 -16 6 C-16 5.34 -16 4.68 -16 4 C-10.45834744 0.22695996 -6.65545792 -0.54330269 0 0 Z " fill="#FDE4DF" transform="translate(74,8)"/>
<path d="M0 0 C1.75471386 0.90761062 3.50359264 1.82650711 5.25 2.75 C6.22453125 3.26046875 7.1990625 3.7709375 8.203125 4.296875 C10.91493199 5.94819881 12.86796403 7.66491299 15 10 C14.01 10.495 14.01 10.495 13 11 C12.67 10.34 12.34 9.68 12 9 C8.97065509 8.34227572 8.97065509 8.34227572 6 8 C6.33 7.01 6.66 6.02 7 5 C6.21625 4.9175 5.4325 4.835 4.625 4.75 C2 4 2 4 0.8359375 1.953125 C0.56007812 1.30859375 0.28421875 0.6640625 0 0 Z " fill="#FDD8D7" transform="translate(135,28)"/>
<path d="M0 0 C6 0.66666667 12 1.33333333 18 2 C18 2.33 18 2.66 18 3 C12.65097076 3.59198743 7.39115154 4.14187241 2 4 C2 3.01 2 2.02 2 1 C1.34 0.67 0.68 0.34 0 0 Z " fill="#FDDDD9" transform="translate(75,194)"/>
<path d="M0 0 C0 0.99 0 1.98 0 3 C-3.28519475 4.09506492 -5.73663415 4.09960608 -9.1875 4.0625 C-10.81751953 4.04896484 -10.81751953 4.04896484 -12.48046875 4.03515625 C-13.31191406 4.02355469 -14.14335938 4.01195312 -15 4 C-15 3.67 -15 3.34 -15 3 C-13.02 3 -11.04 3 -9 3 C-9 2.34 -9 1.68 -9 1 C-2.25 0 -2.25 0 0 0 Z " fill="#DD2233" transform="translate(125,179)"/>
<path d="M0 0 C0.66 0 1.32 0 2 0 C0.48109469 4.55671592 -1.95402262 8.31723292 -5 12 C-5.33 12 -5.66 12 -6 12 C-5.67 9.69 -5.34 7.38 -5 5 C-3.68 4.67 -2.36 4.34 -1 4 C-0.67 2.68 -0.34 1.36 0 0 Z " fill="#FCE2DB" transform="translate(168,140)"/>
<path d="M0 0 C1.423125 0.495 1.423125 0.495 2.875 1 C5.77062452 2.10159191 5.77062452 2.10159191 8 2 C8 2.66 8 3.32 8 4 C8.66 4 9.32 4 10 4 C10.66 5.98 11.32 7.96 12 10 C7.53318434 7.5635551 3.65941512 4.52231888 0 1 C0 0.67 0 0.34 0 0 Z " fill="#FDDEDC" transform="translate(157,23)"/>
<path d="M0 0 C1.80030122 2.70045182 2.93377066 5.06677881 4.125 8.0625 C4.47820313 8.94035156 4.83140625 9.81820312 5.1953125 10.72265625 C6 13 6 13 6 15 C5.01 14.67 4.02 14.34 3 14 C3 13.34 3 12.68 3 12 C2.34 12 1.68 12 1 12 C0.67 8.04 0.34 4.08 0 0 Z " fill="#F8C6C5" transform="translate(8,128)"/>
<path d="M0 0 C0.66 0.33 1.32 0.66 2 1 C-3.14285714 7.57142857 -3.14285714 7.57142857 -7 9 C-6.67 6.69 -6.34 4.38 -6 2 C-4.7934375 1.7834375 -4.7934375 1.7834375 -3.5625 1.5625 C-1.07896294 1.25864751 -1.07896294 1.25864751 0 0 Z " fill="#FADCD9" transform="translate(79,104)"/>
<path d="M0 0 C3.15702316 3.90869534 6 7.8614939 6 13 C3 12 3 12 1 9 C0.5859375 6.73828125 0.5859375 6.73828125 0.375 4.3125 C0.30023438 3.50425781 0.22546875 2.69601563 0.1484375 1.86328125 C0.09945312 1.24839844 0.05046875 0.63351563 0 0 Z " fill="#CE3E49" transform="translate(183,53)"/>
<path d="M0 0 C0.99 0.66 1.98 1.32 3 2 C2.38125 2.2475 1.7625 2.495 1.125 2.75 C-1.37818306 4.22246063 -1.83045281 5.41028837 -3 8 C-3.99 8.495 -3.99 8.495 -5 9 C-5.66 8.34 -6.32 7.68 -7 7 C-4.375 3.125 -4.375 3.125 -1 2 C-0.67 1.34 -0.34 0.68 0 0 Z " fill="#FBDBDB" transform="translate(89,93)"/>
<path d="M0 0 C1.16161779 2.86578759 0.9946154 4.01630163 0.00390625 7.015625 C-0.70958984 8.61664063 -0.70958984 8.61664063 -1.4375 10.25 C-1.91058594 11.32765625 -2.38367188 12.4053125 -2.87109375 13.515625 C-3.24363281 14.33546875 -3.61617187 15.1553125 -4 16 C-5.06340773 12.80263986 -4.96582104 11.1018975 -3.6875 8 C-3.40648437 7.3090625 -3.12546875 6.618125 -2.8359375 5.90625 C-1.95601739 3.8997032 -1.04383494 1.92707989 0 0 Z " fill="#C8303E" transform="translate(190,128)"/>
<path d="M0 0 C0.33 1.32 0.66 2.64 1 4 C0.0409375 4.37125 0.0409375 4.37125 -0.9375 4.75 C-3.18741541 5.81562433 -3.18741541 5.81562433 -3.75 8.125 C-3.8325 8.74375 -3.915 9.3625 -4 10 C-5.65 10 -7.3 10 -9 10 C-8.06409496 8.8944811 -7.12620142 7.79064547 -6.1875 6.6875 C-5.66542969 6.07261719 -5.14335938 5.45773438 -4.60546875 4.82421875 C-3.12827531 3.14575321 -1.59960869 1.56117966 0 0 Z " fill="#FDDDDC" transform="translate(103,102)"/>
<path d="M0 0 C1.32 0.33 2.64 0.66 4 1 C3.34 1 2.68 1 2 1 C2.0825 1.928125 2.165 2.85625 2.25 3.8125 C2 7 2 7 0 8.875 C-0.99 9.431875 -0.99 9.431875 -2 10 C-1.7215625 9.1028125 -1.7215625 9.1028125 -1.4375 8.1875 C-0.77906313 5.83591238 -0.77906313 5.83591238 -2 3 C-1.34 3 -0.68 3 0 3 C0 2.01 0 1.02 0 0 Z " fill="#D52835" transform="translate(106,91)"/>
<path d="M0 0 C6.93 2.97 6.93 2.97 14 6 C9.0711945 7.23220137 7.46285988 6.19085848 3 4 C2.01 3.34 1.02 2.68 0 2 C0 1.34 0 0.68 0 0 Z " fill="#C7343C" transform="translate(60,171)"/>
<path d="M0 0 C1.32 0.33 2.64 0.66 4 1 C3.06862408 2.29608947 2.1296434 3.58671632 1.1875 4.875 C0.66542969 5.59429687 0.14335937 6.31359375 -0.39453125 7.0546875 C-2 9 -2 9 -5 11 C-4.731875 10.484375 -4.46375 9.96875 -4.1875 9.4375 C-2.67650593 6.33598585 -1.34427274 3.17737194 0 0 Z " fill="#CA323B" transform="translate(176,153)"/>
<path d="M0 0 C0.99 0.66 1.98 1.32 3 2 C2.01 2.33 1.02 2.66 0 3 C0 3.66 0 4.32 0 5 C-3.01490557 6.00496852 -5.04181692 6.10335303 -8.1875 6.0625 C-9.53908203 6.04896484 -9.53908203 6.04896484 -10.91796875 6.03515625 C-11.60503906 6.02355469 -12.29210938 6.01195313 -13 6 C-13 5.67 -13 5.34 -13 5 C-12.09507813 4.96132812 -12.09507813 4.96132812 -11.171875 4.921875 C-5.89464661 4.59668017 -5.89464661 4.59668017 -1.4375 1.9375 C-0.963125 1.298125 -0.48875 0.65875 0 0 Z " fill="#D32F3B" transform="translate(71,114)"/>
<path d="M0 0 C0.33 0.99 0.66 1.98 1 3 C-0.65 4.65 -2.3 6.3 -4 8 C-4.66 7.67 -5.32 7.34 -6 7 C-4.60667426 3.63279613 -3.0210714 2.0140476 0 0 Z " fill="#FBD8DC" transform="translate(118,88)"/>
<path d="M0 0 C2.08304538 -0.05418326 4.16649768 -0.09287551 6.25 -0.125 C7.99023438 -0.15980469 7.99023438 -0.15980469 9.765625 -0.1953125 C12.82786046 -0.0103949 14.44202751 0.39176977 17 2 C12.91721966 3.08318662 9.82121165 2.83473185 5.6875 2.0625 C4.61886719 1.86785156 3.55023438 1.67320312 2.44921875 1.47265625 C1.64097656 1.31667969 0.83273438 1.16070312 0 1 C0 0.67 0 0.34 0 0 Z " fill="#F7C3C3" transform="translate(108,5)"/>
<path d="M0 0 C0.66 0.66 1.32 1.32 2 2 C1.04882866 3.1725131 0.08882991 4.33787015 -0.875 5.5 C-1.40867188 6.1496875 -1.94234375 6.799375 -2.4921875 7.46875 C-2.98976562 7.9740625 -3.48734375 8.479375 -4 9 C-4.66 9 -5.32 9 -6 9 C-5.49396008 6.83125748 -5.00016187 5.00032373 -4 3 C-2.68 3 -1.36 3 0 3 C0 2.01 0 1.02 0 0 Z " fill="#FACBCE" transform="translate(160,151)"/>
<path d="M0 0 C-1.09068668 3.77545388 -1.9083091 6.47043472 -5 9 C-5 6.36 -5 3.72 -5 1 C-3 0 -3 0 0 0 Z " fill="#CF323B" transform="translate(185,144)"/>
<path d="M0 0 C1.23967448 3.58128182 1.02699061 6.36603322 0 10 C-2.0625 11.375 -2.0625 11.375 -4 12 C-2 3.42857143 -2 3.42857143 0 0 Z " fill="#C93C46" transform="translate(13,60)"/>
<path d="M0 0 C1.65 0 3.3 0 5 0 C5.33 0.66 5.66 1.32 6 2 C1.82262526 3.59138085 -1.53160785 4.21278058 -6 4 C-3 2 -3 2 0 2 C0 1.34 0 0.68 0 0 Z " fill="#C33436" transform="translate(120,191)"/>
<path d="M0 0 C3.96 0.33 7.92 0.66 12 1 C12.33 1.99 12.66 2.98 13 4 C8.428721 3.45144652 4.32564205 2.58255197 0 1 C0 0.67 0 0.34 0 0 Z " fill="#CF454D" transform="translate(66,190)"/>
<path d="M0 0 C0.99 0 1.98 0 3 0 C2.60196439 2.88575819 2.20990931 3.82189513 -0.0625 5.75 C-0.701875 6.1625 -1.34125 6.575 -2 7 C-2.33 5.68 -2.66 4.36 -3 3 C-2.34 3 -1.68 3 -1 3 C-0.67 2.01 -0.34 1.02 0 0 Z " fill="#D73444" transform="translate(92,108)"/>
<path d="M0 0 C1.08667969 0.19464844 2.17335938 0.38929688 3.29296875 0.58984375 C4.54013672 0.82380859 4.54013672 0.82380859 5.8125 1.0625 C5.8125 1.3925 5.8125 1.7225 5.8125 2.0625 C4.06284642 2.11679959 2.31270213 2.15542823 0.5625 2.1875 C-0.41203125 2.21070313 -1.3865625 2.23390625 -2.390625 2.2578125 C-5.2071498 2.06112781 -6.79699036 1.50818916 -9.1875 0.0625 C-5.61369658 -1.12876781 -3.67866698 -0.6724445 0 0 Z " fill="#CF3037" transform="translate(119.1875,6.9375)"/>
<path d="M0 0 C-2 2 -2 2 -4.8203125 2.1953125 C-5.91085938 2.17210937 -7.00140625 2.14890625 -8.125 2.125 C-9.22070312 2.10695312 -10.31640625 2.08890625 -11.4453125 2.0703125 C-12.28835937 2.04710937 -13.13140625 2.02390625 -14 2 C-14 1.67 -14 1.34 -14 1 C-12.41913952 0.63495397 -10.83516093 0.28339494 -9.25 -0.0625 C-8.36828125 -0.25972656 -7.4865625 -0.45695313 -6.578125 -0.66015625 C-4.01320972 -0.99825872 -2.42908361 -0.81158635 0 0 Z " fill="#F8CCC9" transform="translate(128,194)"/>
<path d="M0 0 C2.475 0.495 2.475 0.495 5 1 C5.33 3.31 5.66 5.62 6 8 C1.125 3.375 1.125 3.375 0 0 Z " fill="#D3313F" transform="translate(22,155)"/>
<path d="M0 0 C0 0.66 0 1.32 0 2 C0.66 2 1.32 2 2 2 C2 2.66 2 3.32 2 4 C-0.31 4 -2.62 4 -5 4 C-5.33 3.01 -5.66 2.02 -6 1 C-3.92446352 0.4465236 -2.15634036 0 0 0 Z " fill="#DB2739" transform="translate(68,186)"/>
<path d="M0 0 C4.29 0.66 8.58 1.32 13 2 C13 2.33 13 2.66 13 3 C9.04 3 5.08 3 1 3 C0.67 2.01 0.34 1.02 0 0 Z " fill="#CE3648" transform="translate(75,178)"/>
<path d="M0 0 C5.61 0 11.22 0 17 0 C17 0.33 17 0.66 17 1 C16.01257813 1.04898438 15.02515625 1.09796875 14.0078125 1.1484375 C12.72648437 1.22320312 11.44515625 1.29796875 10.125 1.375 C8.21074219 1.47941406 8.21074219 1.47941406 6.2578125 1.5859375 C2.91938301 1.67241106 2.91938301 1.67241106 1 4 C0.67 2.68 0.34 1.36 0 0 Z " fill="#FEDBD4" transform="translate(26,132)"/>
<path d="M0 0 C0.33 0.66 0.66 1.32 1 2 C-0.4375 4.625 -0.4375 4.625 -2 7 C-2.99 6.67 -3.98 6.34 -5 6 C-4.75 4.125 -4.75 4.125 -4 2 C-1.9375 0.75 -1.9375 0.75 0 0 Z " fill="#EE1B2C" transform="translate(87,103)"/>
<path d="M0 0 C2.40034102 3.60051153 4.32187705 6.96144535 3.625 11.375 C3.41875 11.91125 3.2125 12.4475 3 13 C0.33409063 8.44573816 -0.31563182 5.26053037 0 0 Z " fill="#CC3D42" transform="translate(189,66)"/>
<path d="M0 0 C1.11375 0.598125 2.2275 1.19625 3.375 1.8125 C4.00148437 2.14894531 4.62796875 2.48539063 5.2734375 2.83203125 C7 4 7 4 9 7 C8.01 7 7.02 7 6 7 C5.67 6.01 5.34 5.02 5 4 C3.35 3.67 1.7 3.34 0 3 C0 2.01 0 1.02 0 0 Z " fill="#CC3B44" transform="translate(154,22)"/>
<path d="M0 0 C3.36591866 1.44253657 5.51047079 3.33264727 8 6 C6.35 6 4.7 6 3 6 C3 5.01 3 4.02 3 3 C2.01 3 1.02 3 0 3 C0 2.01 0 1.02 0 0 Z " fill="#FDD9D9" transform="translate(37,174)"/>
<path d="M0 0 C0.66 0 1.32 0 2 0 C3.18771723 3.42943519 2.80226223 5.37784675 1.5625 8.75 C1.13130859 9.94882813 1.13130859 9.94882813 0.69140625 11.171875 C0.46324219 11.77515625 0.23507813 12.3784375 0 13 C-0.66 12.67 -1.32 12.34 -2 12 C-1.67 11.319375 -1.34 10.63875 -1 9.9375 C0.17307315 6.49159762 0.14180493 3.61602578 0 0 Z " fill="#D7313F" transform="translate(173,128)"/>
<path d="M0 0 C0.99 0.33 1.98 0.66 3 1 C0.69 3.31 -1.62 5.62 -4 8 C-4.33 7.34 -4.66 6.68 -5 6 C-3.86525052 2.59575156 -3.03188696 1.78346291 0 0 Z " fill="#FEDDDD" transform="translate(30,32)"/>
<path d="M0 0 C0.99 0 1.98 0 3 0 C1.60667426 3.36720387 0.0210714 4.9859524 -3 7 C-3 5.68 -3 4.36 -3 3 C-2.34 3 -1.68 3 -1 3 C-0.67 2.01 -0.34 1.02 0 0 Z " fill="#D0373D" transform="translate(168,164)"/>
<path d="M0 0 C2 3 2 3 1.625 5.1875 C1.41875 5.785625 1.2125 6.38375 1 7 C0.01 6.67 -0.98 6.34 -2 6 C-2 3 -2 3 0 0 Z " fill="#E8191A" transform="translate(33,150)"/>
<path d="M0 0 C0.66 0.33 1.32 0.66 2 1 C1.25 2.9375 1.25 2.9375 0 5 C-2.125 5.75 -2.125 5.75 -4 6 C-2.25 1.125 -2.25 1.125 0 0 Z " fill="#E01D30" transform="translate(92,96)"/>
<path d="M0 0 C1.98 0.495 1.98 0.495 4 1 C4 2.65 4 4.3 4 6 C1.525 5.01 1.525 5.01 -1 4 C-0.67 2.68 -0.34 1.36 0 0 Z " fill="#EFFBF9" transform="translate(180,40)"/>
<path d="M0 0 C0.66 0.33 1.32 0.66 2 1 C1.195625 1.61875 0.39125 2.2375 -0.4375 2.875 C-3.03874519 4.74164041 -3.03874519 4.74164041 -4 7 C-5.32 6.67 -6.64 6.34 -8 6 C-5.36 4.02 -2.72 2.04 0 0 Z " fill="#FCD2D1" transform="translate(57,32)"/>
<path d="M0 0 C0.66 0.33 1.32 0.66 2 1 C0.02 1.99 0.02 1.99 -2 3 C-2 3.66 -2 4.32 -2 5 C-4.31 5.33 -6.62 5.66 -9 6 C-3.30379747 1.25316456 -3.30379747 1.25316456 0 0 Z " fill="#C4414A" transform="translate(144,168)"/>
<path d="M0 0 C-1.01694313 3.05082939 -1.72144212 3.90372675 -4 6 C-4.66 6.66 -5.32 7.32 -6 8 C-6.66 7.34 -7.32 6.68 -8 6 C-7.0479279 4.99403703 -6.08812654 3.99538437 -5.125 3 C-4.59132813 2.443125 -4.05765625 1.88625 -3.5078125 1.3125 C-2 0 -2 0 0 0 Z " fill="#FBCDCF" transform="translate(112,95)"/>
<path d="M0 0 C0.66 0 1.32 0 2 0 C1.6875 2.375 1.6875 2.375 1 5 C0.01 5.66 -0.98 6.32 -2 7 C-2.125 4.625 -2.125 4.625 -2 2 C-1.34 1.34 -0.68 0.68 0 0 Z " fill="#D23036" transform="translate(126,75)"/>
<path d="M0 0 C0 4.38968456 -2.12805101 5.76905739 -5 9 C-5.66 8.67 -6.32 8.34 -7 8 C-4.69 5.36 -2.38 2.72 0 0 Z " fill="#FBC7CB" transform="translate(175,160)"/>
<path d="M0 0 C3 1 3 1 5 4 C4.625 6.1875 4.625 6.1875 4 8 C0 2.25 0 2.25 0 0 Z " fill="#FEDEDA" transform="translate(28,136)"/>
<path d="M0 0 C0.66 0.66 1.32 1.32 2 2 C-0.97 4.475 -0.97 4.475 -4 7 C-3.6875 4.625 -3.6875 4.625 -3 2 C-2.01 1.34 -1.02 0.68 0 0 Z " fill="#FDD5D9" transform="translate(96,87)"/>
<path d="M0 0 C0.6875 1.6875 0.6875 1.6875 1 4 C-0.3125 6.75 -0.3125 6.75 -2 9 C-2.66 9 -3.32 9 -4 9 C-2.94124926 5.59687262 -1.99097846 2.98646769 0 0 Z " fill="#C73C3F" transform="translate(18,51)"/>
<path d="M0 0 C0.66 0.33 1.32 0.66 2 1 C2 2.32 2 3.64 2 5 C-0.97 4.505 -0.97 4.505 -4 4 C-2.68 2.68 -1.36 1.36 0 0 Z " fill="#FAD7D9" transform="translate(154,179)"/>
<path d="M0 0 C-1.125 1.5625 -1.125 1.5625 -3 3 C-6.1875 2.6875 -6.1875 2.6875 -9 2 C-9 1.67 -9 1.34 -9 1 C-3.375 -1.125 -3.375 -1.125 0 0 Z " fill="#FEE7E1" transform="translate(72,114)"/>
<path d="M0 0 C2.475 0.99 2.475 0.99 5 2 C5 3.98 5 5.96 5 8 C2.74754119 5.31158141 1.11786042 3.35358125 0 0 Z " fill="#C92F35" transform="translate(167,55)"/>
<path d="M0 0 C0.66 0 1.32 0 2 0 C2 1.65 2 3.3 2 5 C0 5 -2 5 -4 5 C-2.71937515 3.2925002 -1.38232443 1.62626404 0 0 Z " fill="#CF3A3C" transform="translate(23,44)"/>
<path d="M0 0 C0.99 0.66 1.98 1.32 3 2 C2.67 3.32 2.34 4.64 2 6 C0.68 5.67 -0.64 5.34 -2 5 C-2 4.34 -2 3.68 -2 3 C-1.34 3 -0.68 3 0 3 C0 2.01 0 1.02 0 0 Z " fill="#FCEBE1" transform="translate(155,42)"/>
<path d="M0 0 C2.64 0.66 5.28 1.32 8 2 C8 2.66 8 3.32 8 4 C6.02 4 4.04 4 2 4 C1.34 2.68 0.68 1.36 0 0 Z " fill="#FCF9F0" transform="translate(120,24)"/>
<path d="M0 0 C-0.804375 0.28875 -1.60875 0.5775 -2.4375 0.875 C-5.1326468 1.73262568 -5.1326468 1.73262568 -6 4 C-6.99 4 -7.98 4 -9 4 C-8.1875 2.0625 -8.1875 2.0625 -7 0 C-3.86650268 -1.04449911 -3.01031744 -0.93423645 0 0 Z " fill="#FAD5DB" transform="translate(80,24)"/>
<path d="M0 0 C0.66 0.33 1.32 0.66 2 1 C0.63016497 4.16115776 0.0109362 4.9927092 -3 7 C-2.625 4.0625 -2.625 4.0625 -2 1 C-1.34 0.67 -0.68 0.34 0 0 Z " fill="#FCDCE2" transform="translate(42,20)"/>
</svg>
