<?xml version="1.0" encoding="UTF-8"?>
<svg version="1.1" xmlns="http://www.w3.org/2000/svg" width="139" height="57">
<path d="M0 0 C3.96 0 7.92 0 12 0 C15.50219011 7.60475568 18.81216078 15.25810474 22 23 C23.32 15.41 24.64 7.82 26 0 C28.97 0 31.94 0 35 0 C34.67 4.95 34.34 9.9 34 15 C34.7425 13.370625 35.485 11.74125 36.25 10.0625 C38.46538462 5.20096154 38.46538462 5.20096154 41.171875 4.18359375 C41.77515625 4.12300781 42.3784375 4.06242188 43 4 C43 3.34 43 2.68 43 2 C46.81206312 0.2302229 49.76775622 -0.23827942 53.95703125 -0.1953125 C55.06884766 -0.18886719 56.18066406 -0.18242188 57.32617188 -0.17578125 C59.0519043 -0.15064453 59.0519043 -0.15064453 60.8125 -0.125 C61.98232422 -0.11597656 63.15214844 -0.10695312 64.35742188 -0.09765625 C67.23849053 -0.07413732 70.11913989 -0.04126852 73 0 C73 1.65 73 3.3 73 5 C74.1446875 4.0409375 74.1446875 4.0409375 75.3125 3.0625 C79.41593029 -0.08664418 82.38096577 -0.12044812 87.41796875 -0.09765625 C88.67158203 -0.09443359 89.92519531 -0.09121094 91.21679688 -0.08789062 C93.18229492 -0.07532227 93.18229492 -0.07532227 95.1875 -0.0625 C96.52278481 -0.05748317 97.85807141 -0.05292059 99.19335938 -0.04882812 C102.46228473 -0.03702695 105.73111991 -0.02056297 109 0 C108.67 2.64 108.34 5.28 108 8 C106.92516357 8.029729 106.92516357 8.029729 105.82861328 8.06005859 C102.5936937 8.15509519 99.35943906 8.26486019 96.125 8.375 C94.43310547 8.42140625 94.43310547 8.42140625 92.70703125 8.46875 C91.63066406 8.50742188 90.55429688 8.54609375 89.4453125 8.5859375 C87.95281982 8.63306885 87.95281982 8.63306885 86.43017578 8.68115234 C83.82145483 8.77247083 83.82145483 8.77247083 82 11 C82 12.32 82 13.64 82 15 C83.97033203 15.05607422 83.97033203 15.05607422 85.98046875 15.11328125 C87.71617364 15.17895657 89.45184947 15.24540337 91.1875 15.3125 C92.48397461 15.34633789 92.48397461 15.34633789 93.80664062 15.38085938 C98.62344103 15.58386629 102.11020707 15.84295363 106 19 C107.85746073 22.71492147 107.4421807 26.94563892 107 31 C104.60798748 36.06002648 102.0893574 37.88684167 97 40 C93.74853516 40.34057617 93.74853516 40.34057617 90.2890625 40.29296875 C89.04511719 40.28330078 87.80117187 40.27363281 86.51953125 40.26367188 C85.23433594 40.23853516 83.94914062 40.21339844 82.625 40.1875 C80.66240234 40.16719727 80.66240234 40.16719727 78.66015625 40.14648438 C75.43968156 40.1112237 72.22005394 40.06193633 69 40 C69.33 37.36 69.66 34.72 70 32 C70.71655762 31.97494385 71.43311523 31.9498877 72.17138672 31.92407227 C75.40611514 31.80830249 78.64053841 31.68549031 81.875 31.5625 C83.00292969 31.52318359 84.13085938 31.48386719 85.29296875 31.44335938 C86.36933594 31.40146484 87.44570312 31.35957031 88.5546875 31.31640625 C89.54968262 31.27974854 90.54467773 31.24309082 91.56982422 31.20532227 C94.00779501 31.15040468 94.00779501 31.15040468 96 30 C96.65555119 27.47266765 96.65555119 27.47266765 97 25 C95.26363281 25.05220703 95.26363281 25.05220703 93.4921875 25.10546875 C91.9531396 25.13362207 90.41407589 25.16092056 88.875 25.1875 C87.73417969 25.22520508 87.73417969 25.22520508 86.5703125 25.26367188 C81.62245755 25.32765276 78.2869354 24.75210668 74 22 C72.625 19.8125 72.625 19.8125 72 18 C71.34 18 70.68 18 70 18 C69.92652344 19.25103516 69.92652344 19.25103516 69.8515625 20.52734375 C69.77679688 21.65269531 69.70203125 22.77804688 69.625 23.9375 C69.55539063 25.03964844 69.48578125 26.14179688 69.4140625 27.27734375 C68.93172932 31.61379204 68.0231112 35.7638868 67 40 C62.95857785 40.11662261 58.91759135 40.1873935 54.875 40.25 C53.73289063 40.28351562 52.59078125 40.31703125 51.4140625 40.3515625 C44.9777478 40.42640337 40.8265721 40.46723339 36 36 C33.377368 32.47301214 32.89539883 30.47699417 32 26 C31.34 30.62 30.68 35.24 30 40 C26.37 40 22.74 40 19 40 C18.45730469 38.77023438 17.91460938 37.54046875 17.35546875 36.2734375 C16.63288759 34.64059177 15.91022715 33.00778112 15.1875 31.375 C14.83107422 30.56675781 14.47464844 29.75851563 14.10742188 28.92578125 C12.17320882 24.56049307 10.18005722 20.25008 8 16 C7.87153687 16.93066284 7.87153687 16.93066284 7.74047852 17.88012695 C7.3507567 20.69133434 6.9566787 23.50191423 6.5625 26.3125 C6.42779297 27.28896484 6.29308594 28.26542969 6.15429688 29.27148438 C6.02216797 30.20927734 5.89003906 31.14707031 5.75390625 32.11328125 C5.63345947 32.97735596 5.5130127 33.84143066 5.38891602 34.73168945 C5 37 5 37 4 40 C1.03 40 -1.94 40 -5 40 C-5.38160863 31.4615069 -3.92501616 23.31640374 -2.5 14.9375 C-2.25845268 13.48513597 -2.0175619 12.03266259 -1.77734375 10.58007812 C-1.19245988 7.05209255 -0.59870465 3.52566975 0 0 Z M47.421875 9.703125 C44.64078395 14.19565669 43.67530214 17.82993472 43.5625 23.125 C43.52253906 24.15882812 43.48257813 25.19265625 43.44140625 26.2578125 C43.73939906 29.16834618 43.73939906 29.16834618 46.1953125 30.85546875 C49.16759417 32.06839149 51.12574366 32.31497025 54.3125 32.1875 C55.19550781 32.16042969 56.07851563 32.13335937 56.98828125 32.10546875 C57.65214844 32.07066406 58.31601562 32.03585938 59 32 C59.33 29.36 59.66 26.72 60 24 C56.37 24 52.74 24 49 24 C49.33 21.36 49.66 18.72 50 16 C56.93 16 63.86 16 71 16 C71.33 13.36 71.66 10.72 72 8 C68.41694008 7.88372497 64.83436583 7.8127264 61.25 7.75 C60.23421875 7.71648438 59.2184375 7.68296875 58.171875 7.6484375 C52.47671115 7.4633879 52.47671115 7.4633879 47.421875 9.703125 Z " fill="#1386C8" transform="translate(5,0)"/>
<path d="M0 0 C3.96 0 7.92 0 12 0 C15.50219011 7.60475568 18.81216078 15.25810474 22 23 C23.32 15.41 24.64 7.82 26 0 C28.97 0 31.94 0 35 0 C34.67 4.95 34.34 9.9 34 15 C34.7425 13.370625 35.485 11.74125 36.25 10.0625 C38.46538462 5.20096154 38.46538462 5.20096154 41.171875 4.18359375 C41.77515625 4.12300781 42.3784375 4.06242188 43 4 C43 3.34 43 2.68 43 2 C46.81206312 0.2302229 49.76775622 -0.23827942 53.95703125 -0.1953125 C55.06884766 -0.18886719 56.18066406 -0.18242188 57.32617188 -0.17578125 C59.0519043 -0.15064453 59.0519043 -0.15064453 60.8125 -0.125 C61.98232422 -0.11597656 63.15214844 -0.10695312 64.35742188 -0.09765625 C67.23849053 -0.07413732 70.11913989 -0.04126852 73 0 C72.67 2.64 72.34 5.28 72 8 C71.34926514 8.02505615 70.69853027 8.0501123 70.02807617 8.07592773 C67.08101954 8.19193702 64.1342787 8.31464115 61.1875 8.4375 C59.65125977 8.49647461 59.65125977 8.49647461 58.08398438 8.55664062 C57.10107422 8.59853516 56.11816406 8.64042969 55.10546875 8.68359375 C54.19949951 8.72025146 53.29353027 8.75690918 52.36010742 8.79467773 C49.84951218 8.9208205 49.84951218 8.9208205 47 10 C45.97299556 12.32891096 45.97299556 12.32891096 45.3125 15.0625 C44.93544922 16.44115234 44.93544922 16.44115234 44.55078125 17.84765625 C44.36902344 18.55792969 44.18726563 19.26820312 44 20 C43.505 18.515 43.505 18.515 43 17 C40.36 17 37.72 17 35 17 C35 17.99 35 18.98 35 20 C34.01 20 33.02 20 32 20 C31.90912109 21.41152344 31.90912109 21.41152344 31.81640625 22.8515625 C31.73261719 24.09679687 31.64882813 25.34203125 31.5625 26.625 C31.48128906 27.85476562 31.40007813 29.08453125 31.31640625 30.3515625 C31.03336056 33.61532388 30.58961047 36.77943859 30 40 C26.37 40 22.74 40 19 40 C18.45730469 38.77023438 17.91460938 37.54046875 17.35546875 36.2734375 C16.63288759 34.64059177 15.91022715 33.00778112 15.1875 31.375 C14.83107422 30.56675781 14.47464844 29.75851563 14.10742188 28.92578125 C12.17320882 24.56049307 10.18005722 20.25008 8 16 C7.87153687 16.93066284 7.87153687 16.93066284 7.74047852 17.88012695 C7.3507567 20.69133434 6.9566787 23.50191423 6.5625 26.3125 C6.42779297 27.28896484 6.29308594 28.26542969 6.15429688 29.27148438 C6.02216797 30.20927734 5.89003906 31.14707031 5.75390625 32.11328125 C5.63345947 32.97735596 5.5130127 33.84143066 5.38891602 34.73168945 C5 37 5 37 4 40 C1.03 40 -1.94 40 -5 40 C-5.38160863 31.4615069 -3.92501616 23.31640374 -2.5 14.9375 C-2.25845268 13.48513597 -2.0175619 12.03266259 -1.77734375 10.58007812 C-1.19245988 7.05209255 -0.59870465 3.52566975 0 0 Z " fill="#1184C8" transform="translate(5,0)"/>
<path d="M0 0 C2.64 0 5.28 0 8 0 C8.14695312 1.26457031 8.14695312 1.26457031 8.296875 2.5546875 C8.44640625 3.65039062 8.5959375 4.74609375 8.75 5.875 C8.88921875 6.96554688 9.0284375 8.05609375 9.171875 9.1796875 C9.71649879 12.04714751 9.71649879 12.04714751 11.71875 13.34375 C14.41922923 14.12060019 16.94709859 14.42479276 19.75 14.625 C20.73484375 14.69976562 21.7196875 14.77453125 22.734375 14.8515625 C23.48203125 14.90054687 24.2296875 14.94953125 25 15 C25.33 12.03 25.66 9.06 26 6 C22.7 6 19.4 6 16 6 C16 4.02 16 2.04 16 0 C21.94 0 27.88 0 34 0 C34.15755053 8.11385239 33.99447511 15.1581376 32 23 C27.95857785 23.11662261 23.91759135 23.1873935 19.875 23.25 C18.73289062 23.28351562 17.59078125 23.31703125 16.4140625 23.3515625 C9.96156633 23.42659153 5.85876159 23.44018584 1 19 C-3.16796748 14.41523578 -2.27559357 8.82829364 -2 3 C-1.34 3 -0.68 3 0 3 C0 2.01 0 1.02 0 0 Z " fill="#1085C8" transform="translate(40,17)"/>
<path d="M0 0 C3.3 0 6.6 0 10 0 C9.86722656 0.98097656 9.73445313 1.96195313 9.59765625 2.97265625 C8.3646642 12.31449393 7.54277908 21.59182925 7 31 C12.28 31.33 17.56 31.66 23 32 C23 34.64 23 37.28 23 40 C19.95736733 40.10845027 16.91863796 40.18752063 13.875 40.25 C13.0190625 40.28351562 12.163125 40.31703125 11.28125 40.3515625 C5.51538627 40.4402681 2.40698414 39.80155181 -2 36 C-6.76671888 26.46656224 -1.79555931 9.92901549 0 0 Z " fill="#1587CA" transform="translate(116,0)"/>
<path d="M0 0 C45.87 0 91.74 0 139 0 C139 0.99 139 1.98 139 3 C93.13 3 47.26 3 0 3 C0 2.01 0 1.02 0 0 Z " fill="#54A6DB" transform="translate(0,44)"/>
<path d="M0 0 C1.25361328 0.00322266 2.50722656 0.00644531 3.79882812 0.00976562 C5.76432617 0.02233398 5.76432617 0.02233398 7.76953125 0.03515625 C9.10481606 0.04017308 10.44010266 0.04473566 11.77539062 0.04882812 C15.04431598 0.0606293 18.31315116 0.07709328 21.58203125 0.09765625 C21.25203125 2.73765625 20.92203125 5.37765625 20.58203125 8.09765625 C19.50719482 8.12738525 19.50719482 8.12738525 18.41064453 8.15771484 C15.17572495 8.25275144 11.94147031 8.36251644 8.70703125 8.47265625 C7.01513672 8.5190625 7.01513672 8.5190625 5.2890625 8.56640625 C4.21269531 8.60507813 3.13632813 8.64375 2.02734375 8.68359375 C0.53485107 8.7307251 0.53485107 8.7307251 -0.98779297 8.77880859 C-3.59651392 8.87012708 -3.59651392 8.87012708 -5.41796875 11.09765625 C-5.58484323 13.68119843 -5.58484323 13.68119843 -5.41796875 16.09765625 C-6.07796875 16.09765625 -6.73796875 16.09765625 -7.41796875 16.09765625 C-7.41796875 14.77765625 -7.41796875 13.45765625 -7.41796875 12.09765625 C-10.05796875 12.09765625 -12.69796875 12.09765625 -15.41796875 12.09765625 C-15.41796875 13.08765625 -15.41796875 14.07765625 -15.41796875 15.09765625 C-14.75796875 15.42765625 -14.09796875 15.75765625 -13.41796875 16.09765625 C-13.41796875 17.74765625 -13.41796875 19.39765625 -13.41796875 21.09765625 C-14.07796875 20.76765625 -14.73796875 20.43765625 -15.41796875 20.09765625 C-15.41796875 19.43765625 -15.41796875 18.77765625 -15.41796875 18.09765625 C-16.07796875 18.09765625 -16.73796875 18.09765625 -17.41796875 18.09765625 C-17.41796875 20.07765625 -17.41796875 22.05765625 -17.41796875 24.09765625 C-17.74796875 24.09765625 -18.07796875 24.09765625 -18.41796875 24.09765625 C-18.41796875 21.78765625 -18.41796875 19.47765625 -18.41796875 17.09765625 C-24.35796875 17.09765625 -30.29796875 17.09765625 -36.41796875 17.09765625 C-36.41796875 19.07765625 -36.41796875 21.05765625 -36.41796875 23.09765625 C-33.11796875 23.09765625 -29.81796875 23.09765625 -26.41796875 23.09765625 C-26.74796875 26.06765625 -27.07796875 29.03765625 -27.41796875 32.09765625 C-27.74796875 32.09765625 -28.07796875 32.09765625 -28.41796875 32.09765625 C-28.54296875 26.34765625 -28.54296875 26.34765625 -27.41796875 24.09765625 C-31.04796875 24.09765625 -34.67796875 24.09765625 -38.41796875 24.09765625 C-38.08796875 21.45765625 -37.75796875 18.81765625 -37.41796875 16.09765625 C-30.48796875 16.09765625 -23.55796875 16.09765625 -16.41796875 16.09765625 C-16.08796875 13.45765625 -15.75796875 10.81765625 -15.41796875 8.09765625 C-14.17413172 4.36614517 -12.57449068 3.35231477 -9.41796875 1.09765625 C-6.06061738 -0.02146087 -3.53591489 -0.01599961 0 0 Z " fill="#3199D6" transform="translate(92.41796875,-0.09765625)"/>
<path d="M0 0 C0.7425 0.185625 1.485 0.37125 2.25 0.5625 C4.94990963 0.99203108 6.44631077 0.85122974 9 0 C9 0.66 9 1.32 9 2 C10.58294782 2.05437607 12.16644256 2.09296271 13.75 2.125 C14.63171875 2.14820313 15.5134375 2.17140625 16.421875 2.1953125 C19.1135858 1.99139502 20.69904974 1.36551721 23 0 C23 0.66 23 1.32 23 2 C24.05960938 1.97679687 25.11921875 1.95359375 26.2109375 1.9296875 C27.5989513 1.91093056 28.9869727 1.89273028 30.375 1.875 C31.42300781 1.84986328 31.42300781 1.84986328 32.4921875 1.82421875 C34.32897486 1.80655733 36.16601963 1.89696739 38 2 C40 4 40 4 40 9 C27.79 9 15.58 9 3 9 C2.01 6.03 1.02 3.06 0 0 Z " fill="#5F5F5F" transform="translate(99,48)"/>
<path d="M0 0 C2.31 0 4.62 0 7 0 C8.00363252 3.19350163 7.96578397 5.58061685 7.4765625 8.87890625 C7.3425 9.79994141 7.2084375 10.72097656 7.0703125 11.66992188 C6.92335938 12.62447266 6.77640625 13.57902344 6.625 14.5625 C6.48578125 15.52091797 6.3465625 16.47933594 6.203125 17.46679688 C5.15147954 24.54556139 5.15147954 24.54556139 4 28 C1.03 28 -1.94 28 -5 28 C-5.21804511 13.82706767 -5.21804511 13.82706767 -2 9 C-1.33386665 6.72461677 -1.33386665 6.72461677 -0.875 4.3125 C-0.62363281 3.10013672 -0.62363281 3.10013672 -0.3671875 1.86328125 C-0.24601563 1.24839844 -0.12484375 0.63351562 0 0 Z " fill="#1488CB" transform="translate(5,12)"/>
<path d="M0 0 C3.96 0 7.92 0 12 0 C14.79400014 5.95563187 17.43734606 11.60732481 19 18 C16.36 17.67 13.72 17.34 11 17 C10.67 17.66 10.34 18.32 10 19 C7 15.375 7 15.375 7 12 C4.69 12 2.38 12 0 12 C-0.04898437 12.62648438 -0.09796875 13.25296875 -0.1484375 13.8984375 C-0.22320312 14.71570312 -0.29796875 15.53296875 -0.375 16.375 C-0.44460938 17.18710937 -0.51421875 17.99921875 -0.5859375 18.8359375 C-1 21 -1 21 -3 23 C-2.41935519 15.23769575 -1.35279887 7.66586028 0 0 Z " fill="#65B8EB" transform="translate(5,0)"/>
<path d="M0 0 C1.32 0.33 2.64 0.66 4 1 C4.33 0.67 4.66 0.34 5 0 C7.46811799 -0.0736312 9.90786062 -0.09230745 12.375 -0.0625 C13.06078125 -0.05798828 13.7465625 -0.05347656 14.453125 -0.04882812 C16.3021121 -0.03623775 18.15106125 -0.01836694 20 0 C20.99 0 21.98 0 23 0 C25.00309329 0.31421071 27.00371336 0.6451046 29 1 C29 1.99 29 2.98 29 4 C26.525 3.505 26.525 3.505 24 3 C24 4.32 24 5.64 24 7 C25.65 6.34 27.3 5.68 29 5 C28.67 6.32 28.34 7.64 28 9 C26.02 9 24.04 9 22 9 C21.67 8.01 21.34 7.02 21 6 C19.68 6.33 18.36 6.66 17 7 C17 7.66 17 8.32 17 9 C16.01 9 15.02 9 14 9 C14 7.02 14 5.04 14 3 C13.34 3 12.68 3 12 3 C12 4.98 12 6.96 12 9 C8.04 9 4.08 9 0 9 C0 6.03 0 3.06 0 0 Z " fill="#57565A" transform="translate(0,48)"/>
<path d="M0 0 C1 1 1 1 1 4 C-1.9544357 7.33979688 -5.20724119 7.43924368 -9.39038086 7.85253906 C-13.96398033 8.11097803 -18.49485412 7.83903806 -23.0625 7.5625 C-24.02349609 7.51029297 -24.98449219 7.45808594 -25.97460938 7.40429688 C-28.31685793 7.27611412 -30.65850875 7.14123891 -33 7 C-32.67 5.02 -32.34 3.04 -32 1 C-27.79174109 0.83141856 -23.58338219 0.66547305 -19.375 0.5 C-18.18519531 0.45230469 -16.99539062 0.40460937 -15.76953125 0.35546875 C-14.61582031 0.31035156 -13.46210937 0.26523437 -12.2734375 0.21875 C-10.68668213 0.1559082 -10.68668213 0.1559082 -9.06787109 0.09179688 C-6.03845778 0.00115073 -3.02998025 -0.0864284 0 0 Z " fill="#0C81C7" transform="translate(108,32)"/>
<path d="M0 0 C0.556875 0.309375 1.11375 0.61875 1.6875 0.9375 C4.12540433 2.05761821 6.36224186 2.56037364 9 3 C9 2.01 9 1.02 9 0 C9.99 0 10.98 0 12 0 C12 0.66 12 1.32 12 2 C15.5219721 2.08004482 18.61981469 2.04005702 22 1 C21.67 2.98 21.34 4.96 21 7 C21.66 7 22.32 7 23 7 C23 7.66 23 8.32 23 9 C14.09 9 5.18 9 -4 9 C-4 7.68 -4 6.36 -4 5 C-3.34 5 -2.68 5 -2 5 C-1.34 3.35 -0.68 1.7 0 0 Z M18 5 C19 8 19 8 19 8 Z " fill="#4D4D50" transform="translate(75,48)"/>
<path d="M0 0 C1.11181641 0.00644531 2.22363281 0.01289062 3.36914062 0.01953125 C5.09487305 0.04466797 5.09487305 0.04466797 6.85546875 0.0703125 C8.02529297 0.07933594 9.19511719 0.08835938 10.40039062 0.09765625 C13.28145928 0.12117518 16.16210864 0.15404398 19.04296875 0.1953125 C18.71296875 2.8353125 18.38296875 5.4753125 18.04296875 8.1953125 C11.77296875 8.1953125 5.50296875 8.1953125 -0.95703125 8.1953125 C-0.95703125 7.8653125 -0.95703125 7.5353125 -0.95703125 7.1953125 C4.98296875 7.1953125 10.92296875 7.1953125 17.04296875 7.1953125 C17.04296875 6.5353125 17.04296875 5.8753125 17.04296875 5.1953125 C12.64689619 5.33443721 8.25118152 5.48278053 3.85546875 5.6328125 C1.98665039 5.69178711 1.98665039 5.69178711 0.08007812 5.75195312 C-1.12197266 5.79384766 -2.32402344 5.83574219 -3.5625 5.87890625 C-4.66746826 5.91556396 -5.77243652 5.95222168 -6.91088867 5.98999023 C-9.68296097 6.17683906 -12.25245998 6.57693616 -14.95703125 7.1953125 C-14.95703125 6.5353125 -14.95703125 5.8753125 -14.95703125 5.1953125 C-13.63703125 4.8653125 -12.31703125 4.5353125 -10.95703125 4.1953125 C-10.95703125 3.5353125 -10.95703125 2.8753125 -10.95703125 2.1953125 C-7.14496813 0.4255354 -4.18927503 -0.04296692 0 0 Z " fill="#53B7F0" transform="translate(58.95703125,-0.1953125)"/>
<path d="M0 0 C3.3 0 6.6 0 10 0 C9.34 5.28 8.68 10.56 8 16 C7.67 15.34 7.34 14.68 7 14 C4.69 14 2.38 14 0 14 C-0.144375 15.216875 -0.28875 16.43375 -0.4375 17.6875 C-0.82780953 20.82670377 -1.32351856 23.9075134 -2 27 C-2.33 27 -2.66 27 -3 27 C-3.17159443 20.82260045 -2.53731344 15.08370312 -1.5 9 C-1.35691406 8.12988281 -1.21382813 7.25976562 -1.06640625 6.36328125 C-0.71661973 4.24124305 -0.3591135 2.12047972 0 0 Z " fill="#4EA7DA" transform="translate(116,0)"/>
<path d="M0 0 C0.99 0.33 1.98 0.66 3 1 C3 3.64 3 6.28 3 9 C-3.6 9 -10.2 9 -17 9 C-16.67 7.02 -16.34 5.04 -16 3 C-12.53777385 1.93276039 -9.35960734 1.89826514 -5.75 1.9375 C-4.67234375 1.94652344 -3.5946875 1.95554688 -2.484375 1.96484375 C-1.66453125 1.97644531 -0.8446875 1.98804688 0 2 C0 1.34 0 0.68 0 0 Z " fill="#585456" transform="translate(48,48)"/>
<path d="M0 0 C2.97 0 5.94 0 9 0 C8.67 4.62 8.34 9.24 8 14 C5.03 14 2.06 14 -1 14 C-1 15.32 -1 16.64 -1 18 C-1.66 17.67 -2.32 17.34 -3 17 C-2.01 11.39 -1.02 5.78 0 0 Z " fill="#55A8DD" transform="translate(31,0)"/>
<path d="M0 0 C1.17949219 0.01804688 2.35898438 0.03609375 3.57421875 0.0546875 C4.92966797 0.08949219 4.92966797 0.08949219 6.3125 0.125 C6.3125 3.095 6.3125 6.065 6.3125 9.125 C3.83326199 9.15185095 1.3543116 9.17176547 -1.125 9.1875 C-1.83205078 9.19587891 -2.53910156 9.20425781 -3.26757812 9.21289062 C-5.07443559 9.22153588 -6.88137603 9.17720011 -8.6875 9.125 C-9.6875 8.125 -9.6875 8.125 -9.9375 5.1875 C-9.855 4.176875 -9.7725 3.16625 -9.6875 2.125 C-6.05554504 -0.29630331 -4.30400652 -0.08522785 0 0 Z M-6.6875 4.125 C-5.6875 6.125 -5.6875 6.125 -5.6875 6.125 Z " fill="#5A5C60" transform="translate(62.6875,47.875)"/>
<path d="M0 0 C2.79192205 -0.05380578 5.5828141 -0.09357669 8.375 -0.125 C9.1690625 -0.14175781 9.963125 -0.15851562 10.78125 -0.17578125 C12.85492015 -0.19335473 14.92883241 -0.10335168 17 0 C19 2 19 2 19.125 4.625 C19.08375 5.40875 19.0425 6.1925 19 7 C16.60408962 7.02712351 14.20849043 7.0468982 11.8125 7.0625 C11.13896484 7.07087891 10.46542969 7.07925781 9.77148438 7.08789062 C6.04565869 7.10606538 2.6211958 6.89299392 -1 6 C-0.67 4.02 -0.34 2.04 0 0 Z " fill="#3D3839" transform="translate(120,50)"/>
<path d="M0 0 C1.20849609 0.00322266 2.41699219 0.00644531 3.66210938 0.00976562 C5.55606445 0.02233398 5.55606445 0.02233398 7.48828125 0.03515625 C9.39963867 0.04192383 9.39963867 0.04192383 11.34960938 0.04882812 C14.50004689 0.06062752 17.65039074 0.07709028 20.80078125 0.09765625 C20.47078125 1.41765625 20.14078125 2.73765625 19.80078125 4.09765625 C9.90078125 4.09765625 0.00078125 4.09765625 -10.19921875 4.09765625 C-9.86921875 3.10765625 -9.53921875 2.11765625 -9.19921875 1.09765625 C-5.90187229 -0.00145924 -3.4696313 -0.01628935 0 0 Z " fill="#1785C8" transform="translate(92.19921875,-0.09765625)"/>
<path d="M0 0 C0.33 1.32 0.66 2.64 1 4 C3.64 4.33 6.28 4.66 9 5 C9 6.98 9 8.96 9 11 C8.34 11 7.68 11 7 11 C7 9.68 7 8.36 7 7 C4.36 7 1.72 7 -1 7 C-1 7.99 -1 8.98 -1 10 C-0.34 10.33 0.32 10.66 1 11 C1 12.65 1 14.3 1 16 C0.34 15.67 -0.32 15.34 -1 15 C-1 14.34 -1 13.68 -1 13 C-1.66 13 -2.32 13 -3 13 C-3 14.98 -3 16.96 -3 19 C-3.33 19 -3.66 19 -4 19 C-4 16.69 -4 14.38 -4 12 C-9.94 12 -15.88 12 -22 12 C-22 13.98 -22 15.96 -22 18 C-18.7 18 -15.4 18 -12 18 C-12.33 20.97 -12.66 23.94 -13 27 C-13.33 27 -13.66 27 -14 27 C-14.125 21.25 -14.125 21.25 -13 19 C-16.63 19 -20.26 19 -24 19 C-23.67 16.36 -23.34 13.72 -23 11 C-16.07 11 -9.14 11 -2 11 C-1.67 8.36 -1.34 5.72 -1 3 C-0.67 2.01 -0.34 1.02 0 0 Z " fill="#4DABE2" transform="translate(78,5)"/>
<path d="M0 0 C2.64 0 5.28 0 8 0 C8 1.32 8 2.64 8 4 C8.60996826 3.98428955 9.21993652 3.9685791 9.84838867 3.95239258 C12.6279971 3.88980187 15.40745692 3.85093378 18.1875 3.8125 C19.14720703 3.78736328 20.10691406 3.76222656 21.09570312 3.73632812 C30.07416443 3.6431261 30.07416443 3.6431261 34 7 C35.23887548 9.47775095 35.16741669 11.23653707 35.1875 14 C35.20167969 14.886875 35.21585938 15.77375 35.23046875 16.6875 C35 19 35 19 33 21 C32.67 16.71 32.34 12.42 32 8 C26.13765458 5.76672555 20.76671228 5.89612226 14.53515625 5.99609375 C9.97334918 6.00113442 5.51976967 5.58319609 1 5 C0.67 3.35 0.34 1.7 0 0 Z " fill="#339BD9" transform="translate(77,12)"/>
<path d="M0 0 C1.20527344 0.00322266 2.41054688 0.00644531 3.65234375 0.00976562 C4.90660156 0.01814453 6.16085938 0.02652344 7.453125 0.03515625 C9.35771484 0.04192383 9.35771484 0.04192383 11.30078125 0.04882812 C14.43494336 0.06061069 17.56901041 0.07706209 20.703125 0.09765625 C20.703125 0.75765625 20.703125 1.41765625 20.703125 2.09765625 C19.45015625 2.14664062 18.1971875 2.195625 16.90625 2.24609375 C15.25518679 2.32114208 13.60414619 2.39668902 11.953125 2.47265625 C10.715625 2.5190625 10.715625 2.5190625 9.453125 2.56640625 C8.65390625 2.60507813 7.8546875 2.64375 7.03125 2.68359375 C5.93151855 2.7307251 5.93151855 2.7307251 4.80957031 2.77880859 C2.44814941 3.1362513 0.81163825 4.00555451 -1.296875 5.09765625 C-4.09375 5.29296875 -4.09375 5.29296875 -7.046875 5.22265625 C-8.03171875 5.20460938 -9.0165625 5.1865625 -10.03125 5.16796875 C-11.15273438 5.13316406 -11.15273438 5.13316406 -12.296875 5.09765625 C-11.546875 3.16015625 -11.546875 3.16015625 -10.296875 1.09765625 C-6.91973947 -0.15090502 -3.56578316 -0.01681973 0 0 Z " fill="#228ECC" transform="translate(55.296875,4.90234375)"/>
<path d="M0 0 C2.7562488 1.76682615 2.99547898 2.34807702 3.875 5.375 C4.59023499 9.02402298 4.2854258 11.25568541 2.4375 14.5625 C2.1075 15.2225 1.7775 15.8825 1.4375 16.5625 C-0.42295448 13.58577283 -2.13495094 10.55264801 -3.75 7.4375 C-4.09417969 6.77492188 -4.43835938 6.11234375 -4.79296875 5.4296875 C-5.5625 3.5625 -5.5625 3.5625 -5.5625 0.5625 C-2.5625 -0.4375 -2.5625 -0.4375 0 0 Z " fill="#0A7EBF" transform="translate(21.5625,16.4375)"/>
<path d="M0 0 C0.99 0.33 1.98 0.66 3 1 C4.66821323 0.67449498 6.33499557 0.34153937 8 0 C8.66 0.33 9.32 0.66 10 1 C10 1.99 10 2.98 10 4 C8.35 3.67 6.7 3.34 5 3 C5 4.32 5 5.64 5 7 C6.65 6.34 8.3 5.68 10 5 C9.67 6.32 9.34 7.64 9 9 C7.02 9 5.04 9 3 9 C2.67 8.01 2.34 7.02 2 6 C0.02463255 6.34786708 0.02463255 6.34786708 -2 7 C-2.33 7.66 -2.66 8.32 -3 9 C-3 6.69 -3 4.38 -3 2 C-2.01 2 -1.02 2 0 2 C0 1.34 0 0.68 0 0 Z " fill="#4A4C4E" transform="translate(19,48)"/>
<path d="M0 0 C2.475 0.99 2.475 0.99 5 2 C5 2.66 5 3.32 5 4 C5.66 4 6.32 4 7 4 C7.66 5.65 8.32 7.3 9 9 C4.71 9 0.42 9 -4 9 C-4 7.68 -4 6.36 -4 5 C-3.34 5 -2.68 5 -2 5 C-1.34 3.35 -0.68 1.7 0 0 Z " fill="#505152" transform="translate(75,48)"/>
<path d="M0 0 C4.29 0 8.58 0 13 0 C13 1.65 13 3.3 13 5 C8.38 5 3.76 5 -1 5 C-0.67 3.35 -0.34 1.7 0 0 Z " fill="#1583C6" transform="translate(6,5)"/>
<path d="M0 0 C2.97 0 5.94 0 9 0 C9 2.31 9 4.62 9 7 C5.7 7 2.4 7 -1 7 C-0.67 4.69 -0.34 2.38 0 0 Z " fill="#53A5D9" transform="translate(31,0)"/>
<path d="M0 0 C0.80566406 0.00322266 1.61132812 0.00644531 2.44140625 0.00976562 C3.70404297 0.02233398 3.70404297 0.02233398 4.9921875 0.03515625 C5.84167969 0.03966797 6.69117187 0.04417969 7.56640625 0.04882812 C9.66669659 0.06062751 11.7669508 0.07856319 13.8671875 0.09765625 C13.8671875 1.08765625 13.8671875 2.07765625 13.8671875 3.09765625 C5.9471875 3.09765625 -1.9728125 3.09765625 -10.1328125 3.09765625 C-3.8828125 -0.02734375 -3.8828125 -0.02734375 0 0 Z " fill="#067AC0" transform="translate(62.1328125,-0.09765625)"/>
<path d="M0 0 C1.98 0 3.96 0 6 0 C6 2.97 6 5.94 6 9 C3.69 9 1.38 9 -1 9 C-1.125 2.25 -1.125 2.25 0 0 Z " fill="#4B4B51" transform="translate(63,48)"/>
<path d="M0 0 C0.33 0.66 0.66 1.32 1 2 C2.89533342 2.46523063 2.89533342 2.46523063 5.0625 2.625 C6.361875 2.74875 7.66125 2.8725 9 3 C8.01 6.3 7.02 9.6 6 13 C5.67 13 5.34 13 5 13 C5 11.35 5 9.7 5 8 C2.36 7.67 -0.28 7.34 -3 7 C-1.125 1.125 -1.125 1.125 0 0 Z " fill="#5CAEDE" transform="translate(43,7)"/>
<path d="M0 0 C1.79133978 -0.05391993 3.58313899 -0.09275571 5.375 -0.125 C6.37273437 -0.14820313 7.37046875 -0.17140625 8.3984375 -0.1953125 C11 0 11 0 13 2 C13.125 4.625 13.125 4.625 13 7 C10.36 7 7.72 7 5 7 C5.33 5.02 5.66 3.04 6 1 C4.02 1.33 2.04 1.66 0 2 C0 1.34 0 0.68 0 0 Z " fill="#5A5859" transform="translate(126,50)"/>
<path d="M0 0 C2.31 0 4.62 0 7 0 C8.3357457 3.77371512 7.72408671 6.85831347 7.0625 10.75 C6.86785156 11.92046875 6.67320313 13.0909375 6.47265625 14.296875 C6.23869141 15.63492187 6.23869141 15.63492187 6 17 C5.67 17 5.34 17 5 17 C4.97287934 15.56260487 4.95354933 14.12506137 4.9375 12.6875 C4.92589844 11.88699219 4.91429687 11.08648437 4.90234375 10.26171875 C5 8 5 8 6 5 C3.69 5 1.38 5 -1 5 C-0.67 3.35 -0.34 1.7 0 0 Z " fill="#399ED9" transform="translate(5,12)"/>
<path d="M0 0 C0.33 0.66 0.66 1.32 1 2 C0.34 2 -0.32 2 -1 2 C-1.33 3.98 -1.66 5.96 -2 8 C-0.68 7.67 0.64 7.34 2 7 C2.33 7.66 2.66 8.32 3 9 C-0.63 9 -4.26 9 -8 9 C-8 6.69 -8 4.38 -8 2 C-6.8553125 2.061875 -6.8553125 2.061875 -5.6875 2.125 C-2.77281584 2.22080824 -2.77281584 2.22080824 0 0 Z " fill="#505051" transform="translate(121,48)"/>
<path d="M0 0 C3.63 0 7.26 0 11 0 C11 0.66 11 1.32 11 2 C10.01 2 9.02 2 8 2 C8 4.31 8 6.62 8 9 C7.34 9 6.68 9 6 9 C6 7.02 6 5.04 6 3 C5.34 3 4.68 3 4 3 C4 4.98 4 6.96 4 9 C3.34 9 2.68 9 2 9 C2 6.69 2 4.38 2 2 C1.34 2 0.68 2 0 2 C0 1.34 0 0.68 0 0 Z " fill="#2C2E34" transform="translate(8,48)"/>
<path d="M0 0 C-0.66 0.66 -1.32 1.32 -2 2 C4.6 2.33 11.2 2.66 18 3 C18 2.01 18 1.02 18 0 C18.66 0 19.32 0 20 0 C20 1.32 20 2.64 20 4 C10.43 4 0.86 4 -9 4 C-8.67 3.01 -8.34 2.02 -8 1 C-5.07175348 0.02391783 -3.04386724 -0.08226668 0 0 Z " fill="#3B9CDB" transform="translate(58,0)"/>
<path d="M0 0 C0.99 0.33 1.98 0.66 3 1 C3 3.64 3 6.28 3 9 C1.02 9 -0.96 9 -3 9 C-3.625 7.1875 -3.625 7.1875 -4 5 C-3.34 4.01 -2.68 3.02 -2 2 C-1.34 2 -0.68 2 0 2 C0 1.34 0 0.68 0 0 Z " fill="#5E5E63" transform="translate(48,48)"/>
<path d="M0 0 C2.31 0 4.62 0 7 0 C7 0.66 7 1.32 7 2 C7.66 2 8.32 2 9 2 C9.33 3.32 9.66 4.64 10 6 C7.36 5.67 4.72 5.34 2 5 C1.67 5.66 1.34 6.32 1 7 C0.67 4.69 0.34 2.38 0 0 Z " fill="#4DAAE4" transform="translate(14,12)"/>
<path d="M0 0 C3.63 0 7.26 0 11 0 C11 1.32 11 2.64 11 4 C7.37 4 3.74 4 0 4 C0 2.68 0 1.36 0 0 Z " fill="#1886C7" transform="translate(6,0)"/>
<path d="M0 0 C3.45966438 0.2770939 6.91732798 0.57413763 10.375 0.875 C11.35984375 0.95363281 12.3446875 1.03226563 13.359375 1.11328125 C14.77089844 1.23896484 14.77089844 1.23896484 16.2109375 1.3671875 C17.51490479 1.47716064 17.51490479 1.47716064 18.84521484 1.58935547 C21 2 21 2 23 4 C20.29105233 4.08144943 17.58458737 4.14070614 14.875 4.1875 C13.73417969 4.22520508 13.73417969 4.22520508 12.5703125 4.26367188 C7.5975739 4.32797453 4.36383518 3.65594442 0 1 C0 0.67 0 0.34 0 0 Z " fill="#43A5E3" transform="translate(79,21)"/>
<path d="M0 0 C3.86107457 2.57404971 3.94319692 4.61020259 5 9 C4.01 8.67 3.02 8.34 2 8 C2 7.34 2 6.68 2 6 C0.02463255 6.34786708 0.02463255 6.34786708 -2 7 C-2.33 7.66 -2.66 8.32 -3 9 C-3 6.69 -3 4.38 -3 2 C-2.01 2 -1.02 2 0 2 C0 1.34 0 0.68 0 0 Z " fill="#6E6C70" transform="translate(19,48)"/>
<path d="M0 0 C1.32 0.33 2.64 0.66 4 1 C4.33 1.66 4.66 2.32 5 3 C5.66 2.67 6.32 2.34 7 2 C6.67 4.31 6.34 6.62 6 9 C4.68 8.67 3.36 8.34 2 8 C1.34 5.36 0.68 2.72 0 0 Z " fill="#535454" transform="translate(99,48)"/>
<path d="M0 0 C1.21236328 0.01353516 1.21236328 0.01353516 2.44921875 0.02734375 C3.37154297 0.04474609 3.37154297 0.04474609 4.3125 0.0625 C3.9825 1.0525 3.6525 2.0425 3.3125 3.0625 C0.6725 3.0625 -1.9675 3.0625 -4.6875 3.0625 C-4.6875 4.0525 -4.6875 5.0425 -4.6875 6.0625 C-5.6775 6.0625 -6.6675 6.0625 -7.6875 6.0625 C-7.6875 4.4125 -7.6875 2.7625 -7.6875 1.0625 C-4.80538698 0.10179566 -2.98899956 -0.04331883 0 0 Z " fill="#369CD6" transform="translate(44.6875,13.9375)"/>
<path d="M0 0 C2.31 0 4.62 0 7 0 C7.33 1.65 7.66 3.3 8 5 C2.25 5.125 2.25 5.125 0 4 C0 2.68 0 1.36 0 0 Z " fill="#282624" transform="translate(82,52)"/>
<path d="M0 0 C0.33 0.99 0.66 1.98 1 3 C4.71279469 4.23759823 8.31306346 4.35608897 12.1875 4.5625 C12.93708984 4.60568359 13.68667969 4.64886719 14.45898438 4.69335938 C16.30578375 4.79922685 18.15286834 4.9000976 20 5 C20 5.33 20 5.66 20 6 C13.07 6 6.14 6 -1 6 C-0.67 4.02 -0.34 2.04 0 0 Z " fill="#0F7CBD" transform="translate(76,33)"/>
<path d="M0 0 C8.91 0 17.82 0 27 0 C27 0.33 27 0.66 27 1 C23.25006257 1.16809448 19.50004074 1.33422759 15.75 1.5 C14.15478516 1.57154297 14.15478516 1.57154297 12.52734375 1.64453125 C11.50253906 1.68964844 10.47773437 1.73476562 9.421875 1.78125 C8.00793457 1.8440918 8.00793457 1.8440918 6.56542969 1.90820312 C4.37813904 1.98646933 2.18869047 2 0 2 C0 1.34 0 0.68 0 0 Z " fill="#2295D6" transform="translate(85,7)"/>
<path d="M0 0 C0.33 0.66 0.66 1.32 1 2 C1.66 2 2.32 2 3 2 C3.66 3.65 4.32 5.3 5 7 C3.00045254 7.04254356 0.99958364 7.04080783 -1 7 C-2 6 -2 6 -2.0625 3.4375 C-2.041875 2.633125 -2.02125 1.82875 -2 1 C-1.34 0.67 -0.68 0.34 0 0 Z " fill="#777673" transform="translate(79,50)"/>
<path d="M0 0 C1.65 0 3.3 0 5 0 C5 2.31 5 4.62 5 7 C2.03 6.505 2.03 6.505 -1 6 C-0.67 4.02 -0.34 2.04 0 0 Z " fill="#2D2A2A" transform="translate(120,50)"/>
<path d="M0 0 C2.64 0 5.28 0 8 0 C8 1.32 8 2.64 8 4 C5.69 4 3.38 4 1 4 C0.67 2.68 0.34 1.36 0 0 Z " fill="#188AC3" transform="translate(31,0)"/>
<path d="M0 0 C2.31 0 4.62 0 7 0 C6.34 1.32 5.68 2.64 5 4 C2.69 4 0.38 4 -2 4 C-1.34 2.68 -0.68 1.36 0 0 Z " fill="#0B7DC0" transform="translate(45,6)"/>
<path d="M0 0 C2.92388074 1.46194037 3.28429706 3.53914781 4.5625 6.5 C5.89101027 10.00012995 5.89101027 10.00012995 8 13 C8.04063832 14.66617115 8.042721 16.33388095 8 18 C5.39667844 14.83936913 3.85961424 11.6568348 2.3125 7.875 C1.87550781 6.82054687 1.43851563 5.76609375 0.98828125 4.6796875 C0 2 0 2 0 0 Z " fill="#6DBAEC" transform="translate(16,20)"/>
<path d="M0 0 C1.98 0 3.96 0 6 0 C6 1.65 6 3.3 6 5 C4.02 5 2.04 5 0 5 C0 3.35 0 1.7 0 0 Z " fill="#423F43" transform="translate(63,52)"/>
<path d="M0 0 C2.64 0 5.28 0 8 0 C8 0.99 8 1.98 8 3 C5.36 3 2.72 3 0 3 C0 2.01 0 1.02 0 0 Z " fill="#0D7DBC" transform="translate(77,12)"/>
<path d="M0 0 C2 2 2 2 3 5 C3.66 3.68 4.32 2.36 5 1 C5 3.97 5 6.94 5 10 C4.34 10 3.68 10 3 10 C0 3.375 0 3.375 0 0 Z " fill="#59B3EB" transform="translate(24,18)"/>
<path d="M0 0 C2.31 0 4.62 0 7 0 C7.33 0.99 7.66 1.98 8 3 C5.36 3 2.72 3 0 3 C0 2.01 0 1.02 0 0 Z " fill="#0D7BBE" transform="translate(14,12)"/>
<path d="M0 0 C0.66 0.33 1.32 0.66 2 1 C2.625 4.0625 2.625 4.0625 3 7 C2.67 6.34 2.34 5.68 2 5 C-0.31 5 -2.62 5 -5 5 C-5 4.34 -5 3.68 -5 3 C-3.35 3 -1.7 3 0 3 C0 2.01 0 1.02 0 0 Z " fill="#59AADF" transform="translate(19,7)"/>
<path d="M0 0 C2.31 0 4.62 0 7 0 C7 0.99 7 1.98 7 3 C4.36 3 1.72 3 -1 3 C-0.67 2.01 -0.34 1.02 0 0 Z " fill="#117BBE" transform="translate(118,0)"/>
<path d="M0 0 C0.66 0 1.32 0 2 0 C2.85329541 3.09319586 3 5.79336115 3 9 C2.01 9 1.02 9 0 9 C0 6.03 0 3.06 0 0 Z " fill="#424145" transform="translate(0,48)"/>
<path d="M0 0 C1.32 0.33 2.64 0.66 4 1 C3.67 2.32 3.34 3.64 3 5 C1.35 4.67 -0.3 4.34 -2 4 C-1.34 2.68 -0.68 1.36 0 0 Z " fill="#3F3A3E" transform="translate(57,52)"/>
<path d="M0 0 C2.31 0 4.62 0 7 0 C6.67 0.99 6.34 1.98 6 3 C3.69 3 1.38 3 -1 3 C-0.67 2.01 -0.34 1.02 0 0 Z " fill="#0F7AB4" transform="translate(5,12)"/>
<path d="M0 0 C0.99 0 1.98 0 3 0 C3 2.97 3 5.94 3 9 C2.34 9 1.68 9 1 9 C0.45627049 5.94152152 0 3.11227195 0 0 Z " fill="#747981" transform="translate(105,48)"/>
<path d="M0 0 C1.65 1.65 3.3 3.3 5 5 C4.01 5 3.02 5 2 5 C2.33 6.32 2.66 7.64 3 9 C1.68 7.68 0.36 6.36 -1 5 C-0.34 4.67 0.32 4.34 1 4 C0.67 2.68 0.34 1.36 0 0 Z " fill="#79777B" transform="translate(2,48)"/>
<path d="M0 0 C2.31 0 4.62 0 7 0 C6.01 0.495 6.01 0.495 5 1 C5 2.32 5 3.64 5 5 C3.68 4.67 2.36 4.34 1 4 C1.66 3.01 2.32 2.02 3 1 C2.01 0.67 1.02 0.34 0 0 Z " fill="#208CC9" transform="translate(49,5)"/>
<path d="M0 0 C4.455 0.99 4.455 0.99 9 2 C9 2.66 9 3.32 9 4 C4.53159589 3.50351065 3.31012244 3.31012244 0 0 Z " fill="#2996D2" transform="translate(79,21)"/>
</svg>
