<?xml version="1.0" encoding="UTF-8"?>
<svg version="1.1" xmlns="http://www.w3.org/2000/svg" width="51" height="51">
<path d="M0 0 C13.53 0 27.06 0 41 0 C41 13.53 41 27.06 41 41 C27.47 41 13.94 41 0 41 C0 27.47 0 13.94 0 0 Z " fill="#2BA9DC" transform="translate(7,6)"/>
<path d="M0 0 C0.66 0 1.32 0 2 0 C2 8.58 2 17.16 2 26 C-11.2 26 -24.4 26 -38 26 C-38 21.05 -38 16.1 -38 11 C-35 8 -35 8 -33.125 7.9375 C-31 9 -31 9 -28.6875 12.0625 C-26.22939553 15.40612081 -26.22939553 15.40612081 -22.1875 15.375 C-21.135625 15.25125 -20.08375 15.1275 -19 15 C-19 17.31 -19 19.62 -19 22 C-18.34 22 -17.68 22 -17 22 C-17 19.36 -17 16.72 -17 14 C-15.906875 14.226875 -14.81375 14.45375 -13.6875 14.6875 C-10.15249233 15.36124843 -10.15249233 15.36124843 -8.125 13.8125 C-6.87934841 12.05295568 -6.87934841 12.05295568 -6.625 9.9375 C-6.315625 8.9784375 -6.315625 8.9784375 -6 8 C-5.175 7.71125 -4.35 7.4225 -3.5 7.125 C-2.675 6.75375 -1.85 6.3825 -1 6 C-0.10169161 2.94727535 -0.10169161 2.94727535 0 0 Z " fill="#26A8DB" transform="translate(45,21)"/>
<path d="M0 0 C2.00720923 0.28674418 4.0085944 0.61866701 6 1 C6 1.99 6 2.98 6 4 C6.99 4 7.98 4 9 4 C9.33 2.68 9.66 1.36 10 0 C11.66611905 -0.042721 13.33382885 -0.04063832 15 0 C16 1 16 1 16.0625 3.5625 C16.041875 4.366875 16.02125 5.17125 16 6 C15.01 6.495 15.01 6.495 14 7 C16.3078491 8.15392455 18.47230331 8.53437166 21 9 C21 10.65 21 12.3 21 14 C15.25 16 15.25 16 13 16 C13 16.66 13 17.32 13 18 C13.99 18 14.98 18 16 18 C16 19.98 16 21.96 16 24 C13.625 24.125 13.625 24.125 11 24 C10.34 23.34 9.68 22.68 9 22 C9.375 18.875 9.375 18.875 10 16 C9.34 16 8.68 16 8 16 C8 13.03 8 10.06 8 7 C7.34 7 6.68 7 6 7 C6.01160156 7.89203125 6.02320313 8.7840625 6.03515625 9.703125 C6.04869141 11.45882813 6.04869141 11.45882813 6.0625 13.25 C6.07410156 14.41015625 6.08570313 15.5703125 6.09765625 16.765625 C6.01782092 19.40977128 5.78643778 21.49826091 5 24 C3.33388095 24.042721 1.66617115 24.04063832 0 24 C-1 23 -1 23 -1.0625 20.4375 C-1.041875 19.633125 -1.02125 18.82875 -1 18 C-0.01 17.67 0.98 17.34 2 17 C-0.64 16.01 -3.28 15.02 -6 14 C-5.8125 11.625 -5.8125 11.625 -5 9 C-2.4375 7.6875 -2.4375 7.6875 0 7 C-0.33 6.67 -0.66 6.34 -1 6 C-1.125 3.5 -1.125 3.5 -1 1 C-0.67 0.67 -0.34 0.34 0 0 Z " fill="#33AAD6" transform="translate(20,11)"/>
<path d="M0 0 C1.98828125 0.05859375 1.98828125 0.05859375 4.3125 0.4375 C7.19081392 0.84802875 8.94013761 1.01330275 11.8125 0.375 C14 0 14 0 16.25 1.125 C18.38142243 3.40866689 18.39791768 4.9895884 19 8 C20.9568288 9.82337753 20.9568288 9.82337753 23 11 C22.6875 14.375 22.6875 14.375 22 18 C21.01 18.66 20.02 19.32 19 20 C18.835 20.99 18.67 21.98 18.5 23 C18.335 23.99 18.17 24.98 18 26 C14.77786243 28.14809171 13.72224599 28.29386153 10 28 C9.67 27.67 9.34 27.34 9 27 C9 29.64 9 32.28 9 35 C7.68 34.67 6.36 34.34 5 34 C5 32.02 5 30.04 5 28 C3.6078125 28.12375 3.6078125 28.12375 2.1875 28.25 C-1 28 -1 28 -2.9375 26.3125 C-4.25960381 23.43497994 -3.90991047 21.97788882 -3 19 C-3.639375 18.690625 -4.27875 18.38125 -4.9375 18.0625 C-7 17 -7 17 -8 16 C-8.3125 13.625 -8.3125 13.625 -8 11 C-6.67732273 9.98594743 -5.34275169 8.98731742 -4 8 C-3.27306096 6.02111039 -2.60183749 4.02045442 -2 2 C-1.34 1.34 -0.68 0.68 0 0 Z M0 2 C-1.28322547 3.0595877 -1.28322547 3.0595877 -1.125 5.5 C-1.28322547 7.9404123 -1.28322547 7.9404123 0 9 C-0.804375 9.226875 -1.60875 9.45375 -2.4375 9.6875 C-3.283125 10.120625 -4.12875 10.55375 -5 11 C-5.89386164 13.54775306 -5.89386164 13.54775306 -6 16 C-3.36 16.99 -0.72 17.98 2 19 C1.01 19.33 0.02 19.66 -1 20 C-1.042721 21.66611905 -1.04063832 23.33382885 -1 25 C0.06645115 26.29633621 0.06645115 26.29633621 2.5625 26.0625 C3.7690625 26.0315625 3.7690625 26.0315625 5 26 C6.13480527 22.39006828 6.10015767 19.0157673 6.0625 15.25 C6.05347656 14.07953125 6.04445313 12.9090625 6.03515625 11.703125 C6.01775391 10.36507813 6.01775391 10.36507813 6 9 C6.66 9 7.32 9 8 9 C8 11.97 8 14.94 8 18 C8.66 18 9.32 18 10 18 C9.79375 18.94875 9.5875 19.8975 9.375 20.875 C9.25125 21.90625 9.1275 22.9375 9 24 C10.83883881 26.28728734 10.83883881 26.28728734 13.625 26.125 C14.40875 26.08375 15.1925 26.0425 16 26 C16 24.02 16 22.04 16 20 C15.01 20 14.02 20 13 20 C13 19.34 13 18.68 13 18 C14.134375 17.855625 15.26875 17.71125 16.4375 17.5625 C19.80777201 17.38828522 19.80777201 17.38828522 21 16 C21.04063832 14.33382885 21.042721 12.66611905 21 11 C20.21625 10.855625 19.4325 10.71125 18.625 10.5625 C16 10 16 10 14 9 C14.66 8.67 15.32 8.34 16 8 C16.042721 6.33388095 16.04063832 4.66617115 16 3 C14.93354885 1.70366379 14.93354885 1.70366379 12.4375 1.9375 C11.633125 1.958125 10.82875 1.97875 10 2 C9.67 3.32 9.34 4.64 9 6 C8.01 6 7.02 6 6 6 C6 5.01 6 4.02 6 3 C4.0085944 2.61866701 2.00720923 2.28674418 0 2 Z " fill="#8BE8F8" transform="translate(20,9)"/>
<path d="M0 0 C13.53 0 27.06 0 41 0 C41 13.53 41 27.06 41 41 C40.67 41 40.34 41 40 41 C40 32.42 40 23.84 40 15 C39.34 15 38.68 15 38 15 C38 16.98 38 18.96 38 21 C36.1875 22.0625 36.1875 22.0625 34 23 C33.01 22.67 32.02 22.34 31 22 C32.32 21.67 33.64 21.34 35 21 C35.46522293 16.20691658 35.46522293 16.20691658 33.5 12.0625 C33.005 11.711875 32.51 11.36125 32 11 C32.66 10.67 33.32 10.34 34 10 C34.99 10.66 35.98 11.32 37 12 C37 12.66 37 13.32 37 14 C37.99 14 38.98 14 40 14 C40 9.71 40 5.42 40 1 C26.8 1 13.6 1 0 1 C0 0.67 0 0.34 0 0 Z " fill="#40A1C8" transform="translate(7,6)"/>
<path d="M0 0 C0.33 0 0.66 0 1 0 C1 2.97 1 5.94 1 9 C1.66 9 2.32 9 3 9 C3 10.98 3 12.96 3 15 C4.98 15.66 6.96 16.32 9 17 C9 15.02 9 13.04 9 11 C8.01 11 7.02 11 6 11 C6 10.34 6 9.68 6 9 C6.55429687 8.81824219 7.10859375 8.63648438 7.6796875 8.44921875 C8.40414062 8.19785156 9.12859375 7.94648438 9.875 7.6875 C10.59429687 7.44386719 11.31359375 7.20023438 12.0546875 6.94921875 C14.33994905 6.03664453 14.33994905 6.03664453 16 3 C15.6875 5.875 15.6875 5.875 15 9 C14.01 9.66 13.02 10.32 12 11 C11.835 11.99 11.67 12.98 11.5 14 C11.335 14.99 11.17 15.98 11 17 C7.73036051 19.17975966 6.78270322 19.36904422 3 19 C1.68 18.34 0.36 17.68 -1 17 C-0.67 11.39 -0.34 5.78 0 0 Z " fill="#8ADFF5" transform="translate(27,18)"/>
<path d="M0 0 C13.2 0 26.4 0 40 0 C40 0.33 40 0.66 40 1 C37.03 1 34.06 1 31 1 C30.67 2.32 30.34 3.64 30 5 C29.01 4.34 28.02 3.68 27 3 C25.02907098 3.26279054 23.05842021 3.52984758 21.09375 3.8359375 C17.8537622 4.08981714 15.095272 2.9285816 12 2 C8.00779051 1.53800846 4.01058069 1.2502497 0 1 C0 0.67 0 0.34 0 0 Z " fill="#33A3D2" transform="translate(7,7)"/>
<path d="M0 0 C0.33 0 0.66 0 1 0 C1.02699725 2.27076842 1.04639453 4.54162821 1.0625 6.8125 C1.07410156 8.07707031 1.08570313 9.34164063 1.09765625 10.64453125 C1 14 1 14 0 17 C0.66 17 1.32 17 2 17 C2.33 19.97 2.66 22.94 3 26 C1.68 25.67 0.36 25.34 -1 25 C-1 23.02 -1 21.04 -1 19 C-2.3921875 19.12375 -2.3921875 19.12375 -3.8125 19.25 C-7 19 -7 19 -8.9375 17.3125 C-10.25960381 14.43497994 -9.90991047 12.97788882 -9 10 C-8.34 10.33 -7.68 10.66 -7 11 C-6.375 13.5625 -6.375 13.5625 -6 16 C-4.35 16.33 -2.7 16.66 -1 17 C-1.33 15.68 -1.66 14.36 -2 13 C-1.34 13 -0.68 13 0 13 C0 8.71 0 4.42 0 0 Z " fill="#83DEF3" transform="translate(26,18)"/>
<path d="M0 0 C1.65 0.33 3.3 0.66 5 1 C5 2.65 5 4.3 5 6 C2.69 6.66 0.38 7.32 -2 8 C-1.33333333 5.33333333 -0.66666667 2.66666667 0 0 Z " fill="#36ACD7" transform="translate(36,19)"/>
<path d="M0 0 C0.66 0.33 1.32 0.66 2 1 C1.67 1.99 1.34 2.98 1 4 C1.99 3.67 2.98 3.34 4 3 C4 2.34 4 1.68 4 1 C4.66 1 5.32 1 6 1 C6 2.98 6 4.96 6 7 C3.625 7.125 3.625 7.125 1 7 C0.34 6.34 -0.32 5.68 -1 5 C-0.625 2.375 -0.625 2.375 0 0 Z " fill="#349BB8" transform="translate(30,28)"/>
<path d="M0 0 C0.33 0 0.66 0 1 0 C1 2.97 1 5.94 1 9 C1.66 9 2.32 9 3 9 C2.67 11.64 2.34 14.28 2 17 C1.01 17 0.02 17 -1 17 C-0.67 11.39 -0.34 5.78 0 0 Z " fill="#A2F3F9" transform="translate(27,18)"/>
<path d="M0 0 C2.00720923 0.28674418 4.0085944 0.61866701 6 1 C6 1.99 6 2.98 6 4 C3.69 4.66 1.38 5.32 -1 6 C-1.042721 4.33388095 -1.04063832 2.66617115 -1 1 C-0.67 0.67 -0.34 0.34 0 0 Z " fill="#2FA1C8" transform="translate(20,11)"/>
<path d="M0 0 C1.66611905 -0.042721 3.33382885 -0.04063832 5 0 C6 1 6 1 6.0625 3.5625 C6.041875 4.366875 6.02125 5.17125 6 6 C5.34 6 4.68 6 4 6 C4 5.01 4 4.02 4 3 C2.35 3.33 0.7 3.66 -1 4 C-0.67 2.68 -0.34 1.36 0 0 Z " fill="#3EA0C5" transform="translate(30,11)"/>
<path d="M0 0 C0.66 0 1.32 0 2 0 C2 0.66 2 1.32 2 2 C2.66 2.66 3.32 3.32 4 4 C3.34 4 2.68 4 2 4 C2 4.99 2 5.98 2 7 C0.68 6.67 -0.64 6.34 -2 6 C-1.125 1.125 -1.125 1.125 0 0 Z " fill="#2A9CC7" transform="translate(16,19)"/>
<path d="M0 0 C0.66 0.33 1.32 0.66 2 1 C2.144375 1.804375 2.28875 2.60875 2.4375 3.4375 C2.76502717 6.34440658 2.76502717 6.34440658 6 8 C4.68 8.33 3.36 8.66 2 9 C0.4375 7.3125 0.4375 7.3125 -1 5 C-0.6875 2.25 -0.6875 2.25 0 0 Z " fill="#6EDCF3" transform="translate(17,28)"/>
<path d="M0 0 C0.33 0 0.66 0 1 0 C1.1875 2.375 1.1875 2.375 1 5 C-2.22791555 7.1519437 -3.28400809 7.20086443 -7 7 C-7.33 5.68 -7.66 4.36 -8 3 C-5.69 3.33 -3.38 3.66 -1 4 C-0.67 2.68 -0.34 1.36 0 0 Z " fill="#8EEEFA" transform="translate(37,30)"/>
<path d="M0 0 C1.32 0.33 2.64 0.66 4 1 C4 1.99 4 2.98 4 4 C4.66 4 5.32 4 6 4 C6 4.66 6 5.32 6 6 C4.33388095 6.042721 2.66617115 6.04063832 1 6 C0 5 0 5 -0.0625 2.4375 C-0.041875 1.633125 -0.02125 0.82875 0 0 Z " fill="#299ECC" transform="translate(19,29)"/>
<path d="M0 0 C1.98 0.66 3.96 1.32 6 2 C4.68 2.33 3.36 2.66 2 3 C2.33 4.98 2.66 6.96 3 9 C2.01 8.67 1.02 8.34 0 8 C0 5.36 0 2.72 0 0 Z " fill="#43A7BF" transform="translate(28,35)"/>
<path d="M0 0 C0.33 0 0.66 0 1 0 C1.33 2.31 1.66 4.62 2 7 C2.99 6.34 3.98 5.68 5 5 C4.625 6.9375 4.625 6.9375 4 9 C3.01 9.495 3.01 9.495 2 10 C1.34 9.67 0.68 9.34 0 9 C0 6.03 0 3.06 0 0 Z " fill="#60CCE5" transform="translate(28,18)"/>
<path d="M0 0 C0.33 0 0.66 0 1 0 C1.33 2.31 1.66 4.62 2 7 C0.68 7 -0.64 7 -2 7 C-1.125 2.25 -1.125 2.25 0 0 Z " fill="#25A3E4" transform="translate(10,21)"/>
</svg>
