<?xml version="1.0" encoding="UTF-8"?>
<svg version="1.1" xmlns="http://www.w3.org/2000/svg" width="200" height="200">
<path d="M0 0 C66 0 132 0 200 0 C200 66 200 132 200 200 C134 200 68 200 0 200 C0 134 0 68 0 0 Z " fill="#FBFDFC" transform="translate(0,0)"/>
<path d="M0 0 C66 0 132 0 200 0 C200 66 200 132 200 200 C134 200 68 200 0 200 C0 134 0 68 0 0 Z M63 12 C59.01114469 21.70017088 60.86541253 36.59190238 61 47 C60.35933594 46.98839844 59.71867187 46.97679687 59.05859375 46.96484375 C57.76115234 46.95130859 57.76115234 46.95130859 56.4375 46.9375 C55.59058594 46.92589844 54.74367187 46.91429687 53.87109375 46.90234375 C50.52885856 47.01602522 47.3014687 47.48172247 44 48 C44.02356567 47.01604248 44.02356567 47.01604248 44.04760742 46.01220703 C44.10983652 43.04989184 44.14895168 40.0877139 44.1875 37.125 C44.21263672 36.09246094 44.23777344 35.05992188 44.26367188 33.99609375 C44.27817383 32.51689453 44.27817383 32.51689453 44.29296875 31.0078125 C44.31653442 29.64100342 44.31653442 29.64100342 44.34057617 28.24658203 C44.22818604 27.50520996 44.1157959 26.76383789 44 26 C43.01 25.34 42.02 24.68 41 24 C32.82352824 30.91330076 24.84155919 38.31688162 20 48 C27.59 48 35.18 48 43 48 C43 48.99 43 49.98 43 51 C42.34 51 41.68 51 41 51 C40.66127487 52.41538717 40.32925376 53.83237963 40 55.25 C39.814375 56.03890625 39.62875 56.8278125 39.4375 57.640625 C38.87845172 60.25556002 38.87845172 60.25556002 39 64 C39.66 64 40.32 64 41 64 C41.495 67.465 41.495 67.465 42 71 C31.11 71 20.22 71 9 71 C1.18089387 94.45731838 3.41144181 119.78187368 14 142 C14.47953125 143.03511719 14.9590625 144.07023438 15.453125 145.13671875 C27.0999458 168.57170526 48.30184491 183.87439932 72.5 192.75 C94.76881033 199.56780606 121.16081156 196.74747275 141.78930664 186.16796875 C150.23688627 181.67437391 158.43960269 177.07832341 165 170 C165.58910156 169.44183594 166.17820313 168.88367188 166.78515625 168.30859375 C170.14837743 165.11111653 172.74166677 162.6138885 174 158 C174.66 158 175.32 158 176 158 C177.6947478 155.50969613 179.24150233 153.03865578 180.75 150.4375 C181.41999023 149.28471558 181.41999023 149.28471558 182.10351562 148.10864258 C191.21276482 132.08341674 194.35916015 117.47741838 194.3125 99 C194.32861328 97.72382812 194.34472656 96.44765625 194.36132812 95.1328125 C194.36545542 87.05983022 193.59913362 79.68038434 191 72 C189.98662999 70.76507388 189.98662999 70.76507388 187.8935461 70.87695217 C186.49011629 70.87833486 186.49011629 70.87833486 185.05833435 70.87974548 C183.98836212 70.87837082 182.91838989 70.87699615 181.81599426 70.87557983 C180.63204575 70.87917511 179.44809723 70.88277039 178.22827148 70.88647461 C176.989422 70.88632858 175.75057251 70.88618256 174.47418213 70.8860321 C171.06730167 70.88661108 167.66048116 70.89164041 164.25361133 70.89860606 C160.69683174 70.90484007 157.14005142 70.90544344 153.58326721 70.90663147 C146.84363418 70.90974465 140.10401729 70.91795785 133.36439139 70.92798096 C125.69341602 70.93914252 118.02243989 70.94465265 110.35145843 70.94967639 C94.56762959 70.96014048 78.78381687 70.97773965 63 71 C62.92332568 78.3099081 62.87114049 85.61971076 62.83520508 92.92993164 C62.82020876 95.4117419 62.79980499 97.89352606 62.77368164 100.37524414 C62.7368933 103.96246824 62.72018143 107.54933904 62.70703125 111.13671875 C62.69154739 112.22893234 62.67606354 113.32114594 62.66011047 114.44645691 C62.65752045 126.56391242 64.8683068 137.07535306 72 147 C72.44085938 147.63550781 72.88171875 148.27101562 73.3359375 148.92578125 C79.68974781 157.20777099 89.98458716 162.8324648 100.27612305 164.33154297 C114.30746093 165.39843845 125.49711904 163.00643336 136.5 153.6875 C140.68206888 149.61584878 144.29772714 145.19583359 147 140 C147 139.34 147 138.68 147 138 C153.6 138 160.2 138 167 138 C160.41751764 155.14909879 150.25103369 170.08105563 133 178 C117.42495047 184.6161161 100.27839535 187.05338657 84 181 C76.68189189 177.89117964 70.04052828 174.18324807 64 169 C63.43023437 168.52433594 62.86046875 168.04867187 62.2734375 167.55859375 C55.61801022 161.49577301 47.42501285 150.95678829 46.46484375 141.8671875 C46.33432617 140.65869141 46.33432617 140.65869141 46.20117188 139.42578125 C46.0706543 138.16314453 46.0706543 138.16314453 45.9375 136.875 C45.84662109 136.02550781 45.75574219 135.17601562 45.66210938 134.30078125 C45.4379632 132.2008855 45.21853552 130.10048707 45 128 C44.34 128 43.68 128 43 128 C43 109.19 43 90.38 43 71 C44.65 71.66 46.3 72.32 48 73 C50.56440912 73.27573267 50.56440912 73.27573267 53.125 73.1875 C53.97320312 73.18105469 54.82140625 73.17460938 55.6953125 73.16796875 C58.16028247 73.08347963 58.16028247 73.08347963 61 72 C62.06902939 69.69747517 63.07175817 67.3627974 64 65 C64.33 64.67 64.66 64.34 65 64 C65.09900199 62.02287193 65.12970773 60.04209962 65.125 58.0625 C65.12757812 56.98097656 65.13015625 55.89945313 65.1328125 54.78515625 C65.19007789 52.04340337 65.19007789 52.04340337 64 50 C63.34 50 62.68 50 62 50 C62 49.34 62 48.68 62 48 C100.61 48 139.22 48 179 48 C177.50192718 45.00385437 176.16255359 42.69416771 174.1875 40.0625 C173.70667969 39.41410156 173.22585937 38.76570313 172.73046875 38.09765625 C169.07577604 33.6674757 164.89113759 29.9800307 160.4375 26.375 C159.50808594 25.61960937 158.57867187 24.86421875 157.62109375 24.0859375 C156.32365234 23.05339844 156.32365234 23.05339844 155 22 C154.28972656 21.41476563 153.57945312 20.82953125 152.84765625 20.2265625 C150.95305395 18.72346338 150.95305395 18.72346338 148 19 C148 18.34 148 17.68 148 17 C141.41896822 13.37295408 134.90835624 10.434597 127.75 8.1875 C127.10160156 7.9810083 126.45320313 7.7745166 125.78515625 7.56176758 C109.22449171 2.56291587 77.59874774 0.73810889 63 12 Z " fill="#1B84C9" transform="translate(0,0)"/>
<path d="M0 0 C1.53720703 -0.01836914 1.53720703 -0.01836914 3.10546875 -0.03710938 C9.69693179 -0.04967252 15.72651174 0.61976525 22.125 2.1875 C23.31867188 2.47109375 24.51234375 2.7546875 25.7421875 3.046875 C33.74342762 5.23426439 40.85702704 8.19410826 48.125 12.1875 C48.125 12.8475 48.125 13.5075 48.125 14.1875 C48.6509375 14.25453125 49.176875 14.3215625 49.71875 14.390625 C53.18659788 15.53906813 55.7866763 17.71060657 58.625 19.9375 C59.19347656 20.36804688 59.76195312 20.79859375 60.34765625 21.2421875 C63.8038048 23.92050215 66.48155421 26.66881936 69.125 30.1875 C70.3315625 31.3940625 70.3315625 31.3940625 71.5625 32.625 C74.30669541 35.36919541 76.74259253 38.12440469 79.125 41.1875 C79.125 41.8475 79.125 42.5075 79.125 43.1875 C40.515 43.1875 1.905 43.1875 -37.875 43.1875 C-37.875 43.8475 -37.875 44.5075 -37.875 45.1875 C-37.215 45.1875 -36.555 45.1875 -35.875 45.1875 C-34.52946547 47.87856907 -34.66905886 50.05915422 -34.625 53.0625 C-34.59921875 54.11179688 -34.5734375 55.16109375 -34.546875 56.2421875 C-34.91362562 59.53421093 -35.74978354 60.72816446 -37.875 63.1875 C-38.04 63.909375 -38.205 64.63125 -38.375 65.375 C-38.54 65.973125 -38.705 66.57125 -38.875 67.1875 C-41.77026519 68.1525884 -43.73294119 68.35207402 -46.75 68.375 C-48.01457031 68.39626953 -48.01457031 68.39626953 -49.3046875 68.41796875 C-51.875 68.1875 -51.875 68.1875 -56.875 66.1875 C-56.875 84.9975 -56.875 103.8075 -56.875 123.1875 C-56.215 123.1875 -55.555 123.1875 -54.875 123.1875 C-54.81183594 124.34765625 -54.74867187 125.5078125 -54.68359375 126.703125 C-53.50337063 143.29033325 -46.72883519 153.87471122 -34.875 165.1875 C-20.3557219 177.36495906 -4.31616904 180.50926539 14.125 179.1875 C31.93009274 176.60060798 45.97046442 166.93749591 57.125 153.1875 C60.37771724 148.75405402 62.65592832 144.52957883 64.125 139.1875 C64.455 139.1875 64.785 139.1875 65.125 139.1875 C65.20653933 140.76996707 65.26443557 142.35366273 65.3125 143.9375 C65.34730469 144.81921875 65.38210937 145.7009375 65.41796875 146.609375 C65.07089665 149.66360949 64.24245198 150.99314299 62.125 153.1875 C61.465 153.1875 60.805 153.1875 60.125 153.1875 C60.125 154.1775 60.125 155.1675 60.125 156.1875 C61.775 155.1975 63.425 154.2075 65.125 153.1875 C63.67156021 157.3055794 61.61379513 160.609857 59.125 164.1875 C58.465 165.1775 57.805 166.1675 57.125 167.1875 C58.445 167.5175 59.765 167.8475 61.125 168.1875 C47.19087875 183.2632119 22.98293275 190.47450872 3.08984375 191.41015625 C-22.33332482 192.16599602 -45.79764866 183.0545989 -64.875 166.1875 C-72.0828586 159.38568563 -78.01554976 151.84148317 -82.875 143.1875 C-83.39707031 142.26582031 -83.91914062 141.34414062 -84.45703125 140.39453125 C-91.90560304 126.42138772 -95.0535565 112.32094619 -95.0625 96.5625 C-95.07474609 95.45003906 -95.08699219 94.33757812 -95.09960938 93.19140625 C-95.11606998 83.76496485 -94.39565548 74.98913869 -90.875 66.1875 C-79.985 66.1875 -69.095 66.1875 -57.875 66.1875 C-58.37 62.7225 -58.37 62.7225 -58.875 59.1875 C-59.535 59.1875 -60.195 59.1875 -60.875 59.1875 C-60.73351011 57.5829444 -60.58664314 55.97886233 -60.4375 54.375 C-60.35628906 53.48167969 -60.27507813 52.58835938 -60.19140625 51.66796875 C-59.875 49.1875 -59.875 49.1875 -58.875 46.1875 C-58.215 46.1875 -57.555 46.1875 -56.875 46.1875 C-56.875 45.1975 -56.875 44.2075 -56.875 43.1875 C-64.465 43.1875 -72.055 43.1875 -79.875 43.1875 C-74.35544916 33.52828604 -67.43113715 26.22824501 -58.875 19.1875 C-57.885 19.8475 -56.895 20.5075 -55.875 21.1875 C-55.53442383 23.43408203 -55.53442383 23.43408203 -55.58203125 26.1953125 C-55.5965332 27.67451172 -55.5965332 27.67451172 -55.61132812 29.18359375 C-55.63646484 30.21613281 -55.66160156 31.24867187 -55.6875 32.3125 C-55.70780273 33.87291016 -55.70780273 33.87291016 -55.72851562 35.46484375 C-55.76394772 38.03957627 -55.81334779 40.6132833 -55.875 43.1875 C-54.83214844 43.02378906 -53.78929687 42.86007813 -52.71484375 42.69140625 C-49.54743217 42.2757439 -46.62071929 42.08139426 -43.4375 42.125 C-42.14005859 42.13853516 -42.14005859 42.13853516 -40.81640625 42.15234375 C-40.17574219 42.16394531 -39.53507812 42.17554688 -38.875 42.1875 C-38.88660156 41.2903125 -38.89820313 40.393125 -38.91015625 39.46875 C-38.96063945 32.48764492 -38.88325731 25.53436537 -38.5 18.5625 C-38.43039063 17.27085938 -38.36078125 15.97921875 -38.2890625 14.6484375 C-37.59291981 8.82973535 -37.59291981 8.82973535 -35.875 6.1875 C-33.25218228 4.9991295 -30.99449841 4.17966019 -28.25 3.4375 C-27.56292969 3.22996094 -26.87585938 3.02242188 -26.16796875 2.80859375 C-17.4783881 0.28160501 -8.99359927 0.00561398 0 0 Z " fill="#FAFCFC" transform="translate(99.875,4.8125)"/>
<path d="M0 0 C0.99781494 -0.00547852 1.99562988 -0.01095703 3.02368164 -0.01660156 C9.44438615 0.04530532 15.38750462 0.80837022 21.625 2.3125 C23.41550781 2.73789063 23.41550781 2.73789063 25.2421875 3.171875 C33.24342762 5.35926439 40.35702704 8.31910826 47.625 12.3125 C47.625 12.9725 47.625 13.6325 47.625 14.3125 C48.1509375 14.37953125 48.676875 14.4465625 49.21875 14.515625 C52.68659788 15.66406813 55.2866763 17.83560657 58.125 20.0625 C58.69347656 20.49304688 59.26195312 20.92359375 59.84765625 21.3671875 C63.3038048 24.04550215 65.98155421 26.79381936 68.625 30.3125 C69.429375 31.116875 70.23375 31.92125 71.0625 32.75 C73.80669541 35.49419541 76.24259253 38.24940469 78.625 41.3125 C78.625 41.9725 78.625 42.6325 78.625 43.3125 C40.345 43.3125 2.065 43.3125 -37.375 43.3125 C-37.375 31.4325 -37.375 19.5525 -37.375 7.3125 C-24.62805512 1.64719116 -13.77464276 0.05509433 0 0 Z " fill="#FDFEFD" transform="translate(100.375,4.6875)"/>
<path d="M0 0 C7.2705376 5.15457742 12.8176298 12.20158725 15.24609375 20.88671875 C15.80859375 24.63671875 15.80859375 24.63671875 15.80859375 31.63671875 C-3.00140625 31.63671875 -21.81140625 31.63671875 -41.19140625 31.63671875 C-39.55469977 38.18354465 -38.79857031 40.58668907 -35.19140625 45.63671875 C-35.19140625 46.29671875 -35.19140625 46.95671875 -35.19140625 47.63671875 C-27.57340912 50.72509596 -20.476264 52.33588648 -12.56640625 49.19921875 C-10.32953451 47.84221086 -10.32953451 47.84221086 -9.19140625 46.63671875 C-7.55667743 46.54971533 -5.9182657 46.52970812 -4.28125 46.5390625 C-2.7972168 46.54389648 -2.7972168 46.54389648 -1.28320312 46.54882812 C-0.24228516 46.55720703 0.79863281 46.56558594 1.87109375 46.57421875 C3.43827148 46.58098633 3.43827148 46.58098633 5.03710938 46.58789062 C7.62766035 46.59971962 10.21809934 46.61620186 12.80859375 46.63671875 C12.19527339 47.90422227 11.57713431 49.1693947 10.95703125 50.43359375 C10.61333496 51.13838867 10.26963867 51.84318359 9.91552734 52.56933594 C5.35679207 61.08353318 -2.43673834 65.31598264 -11.19140625 68.63671875 C-22.12839413 71.42914119 -31.64081832 69.31317762 -41.31640625 63.94921875 C-49.28671908 58.93683258 -55.36484569 51.62423232 -57.7734375 42.41015625 C-59.65695427 29.9120543 -58.71865796 19.02013629 -51.50390625 8.44921875 C-38.42042062 -7.70121862 -17.61865763 -10.96062659 0 0 Z " fill="#1983C8" transform="translate(131.19140625,83.36328125)"/>
<path d="M0 0 C41.91 0 83.82 0 127 0 C127.99 2.97 127.99 2.97 129 6 C127.0625 5.625 127.0625 5.625 125 5 C124.505 4.01 124.505 4.01 124 3 C99.25 2.67 74.5 2.34 49 2 C49 2.99 49 3.98 49 5 C50.85625 4.938125 50.85625 4.938125 52.75 4.875 C56.01637962 4.86341709 58.2146947 5.1431298 61 7 C61 7.66 61 8.32 61 9 C60.39414063 8.855625 59.78828125 8.71125 59.1640625 8.5625 C47.26472487 5.92633905 36.92944692 6.15298597 26.2265625 12.6953125 C18.4889807 18.4345999 13.5035715 25.67674504 11 35 C10.78748025 37.8179567 10.66561824 40.49913144 10.6875 43.3125 C10.69595947 44.44461914 10.69595947 44.44461914 10.70458984 45.59960938 C10.91354715 55.19095663 13.78158439 62.59646034 20 70 C22.51688728 72.26519855 25.16053102 74.16234784 28 76 C29.2375 76.86625 29.2375 76.86625 30.5 77.75 C39.98412611 82.49206305 50.14215287 81.80027606 60.109375 79.02734375 C69.69145259 75.62182158 75.50227053 68.99545894 80 60 C76.5834948 59.91275294 73.16727687 59.85952675 69.75 59.8125 C68.78191406 59.78736328 67.81382812 59.76222656 66.81640625 59.73632812 C65.88183594 59.72666016 64.94726562 59.71699219 63.984375 59.70703125 C62.69611816 59.68346558 62.69611816 59.68346558 61.38183594 59.65942383 C58.4898393 60.07294733 57.22818171 61.16589675 55 63 C51.85069107 64.04976964 49.61185544 64.10131595 46.3125 64.0625 C45.31863281 64.05347656 44.32476562 64.04445313 43.30078125 64.03515625 C42.54152344 64.02355469 41.78226563 64.01195312 41 64 C41 63.67 41 63.34 41 63 C44.3 63 47.6 63 51 63 C51 62.34 51 61.68 51 61 C50.01 60.505 50.01 60.505 49 60 C56.24441195 56.9180847 62.76273185 56.62914198 70.5625 56.8125 C71.66658203 56.82603516 72.77066406 56.83957031 73.90820312 56.85351562 C76.60599272 56.88855185 79.30272636 56.93767409 82 57 C81.67 59.97 81.34 62.94 81 66 C88.59 66 96.18 66 104 66 C104 66.33 104 66.66 104 67 C97.4 67 90.8 67 84 67 C83.34 68.98 82.68 70.96 82 73 C77.14884286 79.72803188 71.25204853 85.01945878 64 89 C63.30003906 89.4125 62.60007813 89.825 61.87890625 90.25 C52.43097626 94.96577788 38.93240035 94.70123407 29 91.5 C17.60921527 86.4315423 8.86900262 78.45781968 3.65625 67.0625 C-4.48770089 45.65554339 0 23.01680103 0 0 Z " fill="#F6FBFA" transform="translate(63,71)"/>
<path d="M0 0 C-0.46422048 1.41990175 -0.9308386 2.83901974 -1.3984375 4.2578125 C-1.78781494 5.44334717 -1.78781494 5.44334717 -2.18505859 6.65283203 C-7.03005569 20.6072365 -18.39256792 33.05842713 -31.47265625 39.83984375 C-46.95873572 46.94860048 -63.49672432 49.96928354 -80.1953125 45.04296875 C-88.56396206 41.93095004 -96.23121088 37.84253377 -103 32 C-103.64324219 31.45085937 -104.28648438 30.90171875 -104.94921875 30.3359375 C-111.268642 24.50071368 -119.63279158 14.76749529 -121 6 C-120.01 6 -119.02 6 -118 6 C-115.50022457 9.33303391 -115 10.73303602 -115 15 C-114.01 15 -113.02 15 -112 15 C-111.7525 16.27875 -111.505 17.5575 -111.25 18.875 C-110.56123041 22.13165471 -110.56123041 22.13165471 -108.125 24.1875 C-107.42375 24.455625 -106.7225 24.72375 -106 25 C-105.0409375 26.2375 -105.0409375 26.2375 -104.0625 27.5 C-101.7767375 30.27062121 -100.27158818 30.74169685 -97 32 C-95.1875 34.125 -95.1875 34.125 -94 36 C-91.83125748 35.49396008 -90.00032373 35.00016187 -88 34 C-88 34.66 -88 35.32 -88 36 C-87.01 36.33 -86.02 36.66 -85 37 C-85.99 37.33 -86.98 37.66 -88 38 C-88 38.66 -88 39.32 -88 40 C-86.58461283 40.33872513 -85.16762037 40.67074624 -83.75 41 C-82.96109375 41.185625 -82.1721875 41.37125 -81.359375 41.5625 C-78.74443998 42.12154828 -78.74443998 42.12154828 -75 42 C-75 42.66 -75 43.32 -75 44 C-59.97394178 43.35472029 -59.97394178 43.35472029 -45 42 C-45.33 41.34 -45.66 40.68 -46 40 C-48.11846285 39.31270746 -48.11846285 39.31270746 -50.5625 38.875 C-51.80193359 38.62363281 -51.80193359 38.62363281 -53.06640625 38.3671875 C-53.70449219 38.24601562 -54.34257813 38.12484375 -55 38 C-55 37.01 -55 36.02 -55 35 C-60.28 34.67 -65.56 34.34 -71 34 C-71 33.34 -71 32.68 -71 32 C-66.05 32 -61.1 32 -56 32 C-56 31.34 -56 30.68 -56 30 C-57.0725 30.04125 -58.145 30.0825 -59.25 30.125 C-62.91361543 30.00287949 -63.947936 29.66476218 -67 28 C-68.155 27.7525 -69.31 27.505 -70.5 27.25 C-75.43745823 26.10132304 -79.70066474 23.77946803 -84.16796875 21.4375 C-86.94936579 19.96278694 -86.94936579 19.96278694 -89.79296875 18.9375 C-92.56037515 17.76196454 -92.82694513 16.68126827 -94 14 C-96.81509993 11.7226499 -96.81509993 11.7226499 -100 12 C-99.67 9.03 -99.34 6.06 -99 3 C-96.38749577 5.41154237 -94.4031481 7.87827168 -92.4375 10.8125 C-86.79617973 18.44822643 -78.0508536 22.73147344 -69 25 C-55.72418621 26.93519585 -44.13975519 24.81411085 -33.12890625 16.94921875 C-28.52831816 13.10058414 -25.89778431 9.9783914 -23.625 4.4375 C-19.48683465 -3.5309315 -7.61618709 -0.69432281 0 0 Z " fill="#1983C8" transform="translate(167,138)"/>
<path d="M0 0 C0.33 0.99 0.66 1.98 1 3 C0.401875 3.845625 -0.19625 4.69125 -0.8125 5.5625 C-6.41029741 13.5040119 -5.51495332 24.71886467 -5 34 C-4.67 34.33 -4.34 34.66 -4 35 C-3.67 30.71 -3.34 26.42 -3 22 C-1.68 22 -0.36 22 1 22 C2.125 25.75 2.125 25.75 1 28 C0.34 28 -0.32 28 -1 28 C-1 30.64 -1 33.28 -1 36 C-0.2575 35.95875 0.485 35.9175 1.25 35.875 C4.08758952 36.00398134 5.58773938 36.57051222 8 38 C8 36.68 8 35.36 8 34 C7.34 33.34 6.68 32.68 6 32 C5.875 28.875 5.875 28.875 6 26 C6.66 26 7.32 26 8 26 C8 24.68 8 23.36 8 22 C26.15 22 44.3 22 63 22 C63 18.04 63 14.08 63 10 C65.96052011 15.92104021 66 17.99406674 66 25 C47.19 25 28.38 25 9 25 C10.63670648 31.5468259 11.39283594 33.94997032 15 39 C15 39.66 15 40.32 15 41 C22.61799713 44.08837721 29.71514225 45.69916773 37.625 42.5625 C39.86187174 41.20549211 39.86187174 41.20549211 41 40 C42.63472882 39.91299658 44.27314055 39.89298937 45.91015625 39.90234375 C47.39418945 39.90717773 47.39418945 39.90717773 48.90820312 39.91210938 C49.94912109 39.92048828 50.99003906 39.92886719 52.0625 39.9375 C53.62967773 39.94426758 53.62967773 39.94426758 55.22851562 39.95117188 C57.8190666 39.96300087 60.40950559 39.97948311 63 40 C62.38667964 41.26750352 61.76854056 42.53267595 61.1484375 43.796875 C60.80474121 44.50166992 60.46104492 45.20646484 60.10693359 45.93261719 C55.54819832 54.44681443 47.75466791 58.67926389 39 62 C28.06301212 64.79242244 18.55058793 62.67645887 8.875 57.3125 C0.90468717 52.30011383 -5.17343944 44.98751357 -7.58203125 35.7734375 C-9.6038856 22.35739464 -8.1382982 11.04483328 0 0 Z " fill="#1B84C6" transform="translate(81,90)"/>
<path d="M0 0 C0 0.66 0 1.32 0 2 C0.65268042 2.00331015 1.30536083 2.00662029 1.97781944 2.01003075 C17.84282992 2.09117319 33.70773346 2.18323658 49.57260704 2.28752708 C57.24467338 2.33769606 64.9167288 2.38413836 72.58886719 2.421875 C79.27418266 2.45476717 85.95941447 2.4945828 92.6446377 2.54279006 C96.18597417 2.56808284 99.72725494 2.58985575 103.26865768 2.60334396 C107.21745477 2.61851334 111.1660478 2.64913678 115.11474609 2.68115234 C116.88527596 2.68439262 116.88527596 2.68439262 118.6915741 2.68769836 C120.29859444 2.70444359 120.29859444 2.70444359 121.93807983 2.7215271 C122.87277792 2.72705786 123.80747601 2.73258862 124.77049828 2.73828697 C127 3 127 3 129 5 C129.66 5 130.32 5 131 5 C131.33 5.66 131.66 6.32 132 7 C132.66 7 133.32 7 134 7 C134 48.58 134 90.16 134 133 C132.68 133 131.36 133 130 133 C130 109.24 130 85.48 130 61 C129.67 61 129.34 61 129 61 C128.67 62.32 128.34 63.64 128 65 C127.34 65 126.68 65 126 65 C126.33 65.99 126.66 66.98 127 68 C126.34 68 125.68 68 125 68 C125.33 70.31 125.66 72.62 126 75 C126.66 75 127.32 75 128 75 C128 76.65 128 78.3 128 80 C127.01 80 126.02 80 125 80 C124.67 78.68 124.34 77.36 124 76 C123.01 76.33 122.02 76.66 121 77 C121 79.64 121 82.28 121 85 C119.68 85 118.36 85 117 85 C117 85.66 117 86.32 117 87 C115.515 87.495 115.515 87.495 114 88 C112.77479736 91.00847418 112.77479736 91.00847418 112 94 C111.34 94 110.68 94 110 94 C110 95.98 110 97.96 110 100 C109.67 99.34 109.34 98.68 109 98 C108.01 98 107.02 98 106 98 C105.9175 98.61875 105.835 99.2375 105.75 99.875 C105 102 105 102 103 103.0625 C102.34 103.371875 101.68 103.68125 101 104 C100.505 105.485 100.505 105.485 100 107 C98.33333333 107.66666667 96.66666667 108.33333333 95 109 C94.505 110.485 94.505 110.485 94 112 C92.515 112.495 92.515 112.495 91 113 C91.33 113.66 91.66 114.32 92 115 C87.97910216 117.2184264 85.38257546 117.20898633 81 116 C82.95467752 114.66101601 84.9133579 113.32870953 86.875 112 C87.96554688 111.2575 89.05609375 110.515 90.1796875 109.75 C93 108 93 108 95 108 C95.495 106.515 95.495 106.515 96 105 C97.671875 103.421875 97.671875 103.421875 99.75 101.75 C102.57388398 99.37652045 104.8053499 97.11740269 106.875 94.0625 C107.57625 93.051875 108.2775 92.04125 109 91 C109.66 91 110.32 91 111 91 C111.26296875 90.28585938 111.5259375 89.57171875 111.796875 88.8359375 C113.04731843 85.88846371 114.56012107 83.34250802 116.25 80.625 C125.48014671 64.93953149 128.35834417 50.15428958 128.3125 32 C128.32861328 30.72382812 128.34472656 29.44765625 128.36132812 28.1328125 C128.36229492 26.24175781 128.36229492 26.24175781 128.36328125 24.3125 C128.36626221 23.19488281 128.36924316 22.07726562 128.37231445 20.92578125 C127.85999176 15.52371639 126.31607212 10.2642885 125 5 C83.09 4.67 41.18 4.34 -2 4 C-2.44142585 43.16976845 -2.44142585 43.16976845 3 74 C2.34 74 1.68 74 1 74 C-1.44697666 69.63799813 -2.50269348 65.97306516 -3 61 C-3.66 61 -4.32 61 -5 61 C-5 43.18 -5 25.36 -5 7 C-5.66 7 -6.32 7 -7 7 C-7 6.34 -7 5.68 -7 5 C-6.01 5 -5.02 5 -4 5 C-4 3.68 -4 2.36 -4 1 C-2 0 -2 0 0 0 Z M130 53 C130.33 55.64 130.66 58.28 131 61 C131.33 61 131.66 61 132 61 C132 58.36 132 55.72 132 53 C131.34 53 130.68 53 130 53 Z " fill="#1B82C3" transform="translate(65,67)"/>
<path d="M0 0 C0.33 0 0.66 0 1 0 C1.02468857 4.5206665 1.04285449 9.0412939 1.05493164 13.56201172 C1.05996552 15.10043013 1.06679308 16.63884375 1.07543945 18.17724609 C1.08754639 20.38640526 1.09323769 22.59550126 1.09765625 24.8046875 C1.10281754 25.49432587 1.10797882 26.18396423 1.11329651 26.89450073 C1.11387171 31.77225659 1.11387171 31.77225659 0 34 C0.66 34 1.32 34 2 34 C3.34553453 36.69106907 3.20594114 38.87165422 3.25 41.875 C3.27578125 42.92429688 3.3015625 43.97359375 3.328125 45.0546875 C2.96137438 48.34671093 2.12521646 49.54066446 0 52 C-0.2475 53.0828125 -0.2475 53.0828125 -0.5 54.1875 C-0.665 54.785625 -0.83 55.38375 -1 56 C-3.89526519 56.9650884 -5.85794119 57.16457402 -8.875 57.1875 C-9.71804687 57.20167969 -10.56109375 57.21585938 -11.4296875 57.23046875 C-14 57 -14 57 -19 55 C-19 73.81 -19 92.62 -19 112 C-18.34 112 -17.68 112 -17 112 C-16.505 118.93 -16.505 118.93 -16 126 C-21.29035636 118.06446545 -20.3394187 107.86868271 -20.4140625 98.68359375 C-20.43280551 97.21670989 -20.45238118 95.74983646 -20.4727478 94.28297424 C-20.52374457 90.45102122 -20.56354231 86.61903337 -20.60089111 82.78692627 C-20.6411361 78.86502701 -20.69213417 74.94326855 -20.7421875 71.02148438 C-20.83856164 63.34775338 -20.92308758 55.67395338 -21 48 C-21.66 48 -22.32 48 -23 48 C-22.85851011 46.3954444 -22.71164314 44.79136233 -22.5625 43.1875 C-22.48128906 42.29417969 -22.40007813 41.40085938 -22.31640625 40.48046875 C-22 38 -22 38 -21 35 C-20.34 35 -19.68 35 -19 35 C-19 34.01 -19 33.02 -19 32 C-26.59 32 -34.18 32 -42 32 C-36.48044916 22.34078604 -29.55613715 15.04074501 -21 8 C-20.01 8.66 -19.02 9.32 -18 10 C-17.65942383 12.24658203 -17.65942383 12.24658203 -17.70703125 15.0078125 C-17.71669922 15.99394531 -17.72636719 16.98007812 -17.73632812 17.99609375 C-17.76146484 19.02863281 -17.78660156 20.06117187 -17.8125 21.125 C-17.83280273 22.68541016 -17.83280273 22.68541016 -17.85351562 24.27734375 C-17.88894772 26.85207627 -17.93834779 29.4257833 -18 32 C-16.43572266 31.75443359 -16.43572266 31.75443359 -14.83984375 31.50390625 C-11.67243217 31.0882439 -8.74571929 30.89389426 -5.5625 30.9375 C-4.26505859 30.95103516 -4.26505859 30.95103516 -2.94140625 30.96484375 C-2.30074219 30.97644531 -1.66007812 30.98804687 -1 31 C-1.01160156 30.1028125 -1.02320313 29.205625 -1.03515625 28.28125 C-1.10364317 18.81048798 -0.69495992 9.44400891 0 0 Z " fill="#3080B3" transform="translate(62,16)"/>
<path d="M0 0 C0.33 0 0.66 0 1 0 C1.08153933 1.58246707 1.13943557 3.16616273 1.1875 4.75 C1.23970703 6.07257813 1.23970703 6.07257813 1.29296875 7.421875 C0.94589665 10.47610949 0.11745198 11.80564299 -2 14 C-2.66 14 -3.32 14 -4 14 C-4 14.99 -4 15.98 -4 17 C-2.35 16.01 -0.7 15.02 1 14 C-0.45343979 18.1180794 -2.51120487 21.422357 -5 25 C-5.99 26.485 -5.99 26.485 -7 28 C-5.02 28.495 -5.02 28.495 -3 29 C-16.93412125 44.0757119 -41.14206725 51.28700872 -61.03515625 52.22265625 C-73.0551077 52.57410873 -84.61294153 51.02307749 -96 47 C-96 46.67 -96 46.34 -96 46 C-91.71 46.33 -87.42 46.66 -83 47 C-83 47.66 -83 48.32 -83 49 C-72.77 49 -62.54 49 -52 49 C-52 47.02 -52 45.04 -52 43 C-53.14339844 43.01160156 -54.28679687 43.02320313 -55.46484375 43.03515625 C-56.95572754 43.04453288 -58.44661309 43.05363321 -59.9375 43.0625 C-60.69224609 43.07087891 -61.44699219 43.07925781 -62.22460938 43.08789062 C-64.14994313 43.09652441 -66.07535581 43.05224333 -68 43 C-68.495 42.505 -68.495 42.505 -69 42 C-70.0725 42.020625 -71.145 42.04125 -72.25 42.0625 C-75.87090535 42.00215158 -77.77556638 41.48149653 -81 40 C-82.32676508 39.64141484 -83.65835921 39.2981424 -85 39 C-84.34 38.01 -83.68 37.02 -83 36 C-82.41992188 36.20496094 -81.83984375 36.40992188 -81.2421875 36.62109375 C-80.46101563 36.89050781 -79.67984375 37.15992188 -78.875 37.4375 C-78.10929687 37.70433594 -77.34359375 37.97117188 -76.5546875 38.24609375 C-60.01893629 43.12591024 -41.93057812 40.0479994 -27 32 C-14.99565263 24.9989913 -3.76415809 13.6878476 0 0 Z " fill="#EFF9FA" transform="translate(164,144)"/>
<path d="M0 0 C0 0.66 0 1.32 0 2 C41.91 2.33 83.82 2.66 127 3 C128.4783226 5.95664519 128.06032783 8.74229737 128 12 C128.66 12 129.32 12 130 12 C130.8153744 19.69770322 131.21038602 27.32291954 131.25 35.0625 C131.2809375 36.5794043 131.2809375 36.5794043 131.3125 38.12695312 C131.34746859 44.91522993 130.33492093 50.62475019 128 57 C126.74781265 53.38256987 127.32555448 50.71746586 128 47 C128.20872687 42.79699993 128.22793957 38.5970581 128.24023438 34.38916016 C128.24987275 32.4012446 128.28104299 30.41347127 128.3125 28.42578125 C128.31765625 27.13800781 128.3228125 25.85023437 128.328125 24.5234375 C128.34214355 22.789729 128.34214355 22.789729 128.35644531 21.02099609 C127.87465785 15.58603756 126.3233401 10.29336041 125 5 C83.09 4.67 41.18 4.34 -2 4 C-2.44142585 43.16976845 -2.44142585 43.16976845 3 74 C2.34 74 1.68 74 1 74 C-1.44697666 69.63799813 -2.50269348 65.97306516 -3 61 C-3.66 61 -4.32 61 -5 61 C-5 43.18 -5 25.36 -5 7 C-5.66 7 -6.32 7 -7 7 C-7 6.34 -7 5.68 -7 5 C-6.01 5 -5.02 5 -4 5 C-4 3.68 -4 2.36 -4 1 C-2 0 -2 0 0 0 Z " fill="#3284B4" transform="translate(65,67)"/>
<path d="M0 0 C41.91 0 83.82 0 127 0 C127.99 2.97 127.99 2.97 129 6 C127.0625 5.625 127.0625 5.625 125 5 C124.505 4.01 124.505 4.01 124 3 C99.25 2.67 74.5 2.34 49 2 C49 2.99 49 3.98 49 5 C50.85625 4.938125 50.85625 4.938125 52.75 4.875 C56.01637962 4.86341709 58.2146947 5.1431298 61 7 C61 7.66 61 8.32 61 9 C60.39414063 8.855625 59.78828125 8.71125 59.1640625 8.5625 C49.95921937 6.52327322 42.06506038 6.31405618 33 9 C33 7.02 33 5.04 33 3 C22.77 2.67 12.54 2.34 2 2 C1.67 18.83 1.34 35.66 1 53 C0.67 53 0.34 53 0 53 C0 35.51 0 18.02 0 0 Z " fill="#BDE1F3" transform="translate(63,71)"/>
<path d="M0 0 C2.96052011 5.92104021 3 7.99406674 3 15 C-15.81 15 -34.62 15 -54 15 C-52.36329352 21.5468259 -51.60716406 23.94997032 -48 29 C-48 29.66 -48 30.32 -48 31 C-40.38200287 34.08837721 -33.28485775 35.69916773 -25.375 32.5625 C-23.13812826 31.20549211 -23.13812826 31.20549211 -22 30 C-20.36527118 29.91299658 -18.72685945 29.89298937 -17.08984375 29.90234375 C-15.60581055 29.90717773 -15.60581055 29.90717773 -14.09179688 29.91210938 C-13.05087891 29.92048828 -12.00996094 29.92886719 -10.9375 29.9375 C-9.37032227 29.94426758 -9.37032227 29.94426758 -7.77148438 29.95117188 C-5.1809334 29.96300087 -2.59049441 29.97948311 0 30 C-0.60890639 31.26383587 -1.22327131 32.52504256 -1.83984375 33.78515625 C-2.18136475 34.48777588 -2.52288574 35.19039551 -2.87475586 35.91430664 C-5.09264055 40.02526106 -7.44485218 43.48161739 -12 45 C-12 44.34 -12 43.68 -12 43 C-11.34 43 -10.68 43 -10 43 C-7.78600697 39.20458337 -6.99019802 35.24370579 -6 31 C-6.99 31.495 -6.99 31.495 -8 32 C-10.0374763 32.22858114 -12.08040303 32.41024278 -14.125 32.5625 C-15.22070312 32.64628906 -16.31640625 32.73007813 -17.4453125 32.81640625 C-18.28835937 32.87699219 -19.13140625 32.93757813 -20 33 C-20.10828125 33.78890625 -20.2165625 34.5778125 -20.328125 35.390625 C-21 38 -21 38 -23.75 39.75 C-26.54147659 40.82364484 -29.05065492 41.56627278 -32 42 C-31.0022242 39.00667261 -30.2477975 38.05233685 -28 36 C-28.83917969 36.24169922 -28.83917969 36.24169922 -29.6953125 36.48828125 C-35.6577289 37.81213981 -42.49250964 37.75374518 -48 35 C-49.3125 33 -49.3125 33 -50 31 C-50.33 30.34 -50.66 29.68 -51 29 C-51.66 29 -52.32 29 -53 29 C-53.474375 28.030625 -53.94875 27.06125 -54.4375 26.0625 C-55.70193947 23.19522563 -55.70193947 23.19522563 -57 22 C-57.04080783 20.00041636 -57.04254356 17.99954746 -57 16 C-56.34 16 -55.68 16 -55 16 C-55 14.68 -55 13.36 -55 12 C-36.85 12 -18.7 12 0 12 C0 8.04 0 4.08 0 0 Z " fill="#3584B4" transform="translate(144,100)"/>
<path d="M0 0 C4.29 0 8.58 0 13 0 C14.11071259 5.55356296 13.62356934 8.14586564 11 13 C9.69481525 14.03647024 8.36538653 15.04422943 7 16 C6.1957792 18.59855733 6.1957792 18.59855733 6 21 C5.195625 21.12375 4.39125 21.2475 3.5625 21.375 C2.716875 21.58125 1.87125 21.7875 1 22 C0.67 22.66 0.34 23.32 0 24 C-0.66 23.34 -1.32 22.68 -2 22 C-4.57061311 21.35232207 -4.57061311 21.35232207 -7 21 C-7 20.34 -7 19.68 -7 19 C-8.32 18.67 -9.64 18.34 -11 18 C-11 16.68 -11 15.36 -11 14 C-10.401875 13.79375 -9.80375 13.5875 -9.1875 13.375 C-6.20885306 11.50270764 -5.52258771 9.11137489 -4 6 C-3.01 5.67 -2.02 5.34 -1 5 C-0.67 3.35 -0.34 1.7 0 0 Z " fill="#1883C8" transform="translate(149,139)"/>
<path d="M0 0 C8.29274802 -0.02315955 16.58548254 -0.04093355 24.87825489 -0.05181217 C28.72882542 -0.05703308 32.57937384 -0.06411638 36.42993164 -0.07543945 C40.14519659 -0.08629644 43.86044025 -0.09228282 47.57571983 -0.09487724 C48.99390689 -0.09672641 50.41209276 -0.10033731 51.83027077 -0.10573006 C53.81497692 -0.11297764 55.79970444 -0.11340838 57.78442383 -0.11352539 C58.91471512 -0.115746 60.04500641 -0.11796661 61.20954895 -0.12025452 C64 0 64 0 67 1 C67 1.66 67 2.32 67 3 C67.99 3.495 67.99 3.495 69 4 C66.03 4 63.06 4 60 4 C63.78590655 6.27864834 63.78590655 6.27864834 67.5625 5.9375 C71 6 71 6 72.9375 7.5 C73.288125 7.995 73.63875 8.49 74 9 C69.33423793 10.09375431 66.57764784 9.83755686 62.125 8.125 C45.65305985 1.84370016 24.80440655 3.85949117 8 8 C7.0925 8.21269531 6.185 8.42539063 5.25 8.64453125 C3.49304829 9.06851786 1.74453658 9.52752134 0 10 C0 9.34 0 8.68 0 8 C4.95 6.515 4.95 6.515 10 5 C9.67 4.34 9.34 3.68 9 3 C9.33 2.34 9.66 1.68 10 1 C6.7 1 3.4 1 0 1 C0 0.67 0 0.34 0 0 Z " fill="#2C86B9" transform="translate(64,1)"/>
<path d="M0 0 C-1.78174788 2.30142435 -3.16304165 3.80034391 -6.046875 4.48828125 C-8.0246611 4.72323102 -10.01271872 4.86751458 -12 5 C-11.505 5.99 -11.505 5.99 -11 7 C-11.99 7 -12.98 7 -14 7 C-14 7.66 -14 8.32 -14 9 C-13.20335937 8.855625 -12.40671875 8.71125 -11.5859375 8.5625 C-10.52632812 8.376875 -9.46671875 8.19125 -8.375 8 C-7.33085938 7.814375 -6.28671875 7.62875 -5.2109375 7.4375 C-2.09425135 7.01284203 0.85930812 6.92454794 4 7 C-4.47110743 15.47110743 -24.08304301 16.15660573 -35.3125 16.3125 C-45.81851239 16.29702898 -56.08250618 14.50387647 -66 11 C-66 10.67 -66 10.34 -66 10 C-61.71 10.33 -57.42 10.66 -53 11 C-53 11.66 -53 12.32 -53 13 C-42.77 13 -32.54 13 -22 13 C-22 11.02 -22 9.04 -22 7 C-23.14339844 7.01160156 -24.28679687 7.02320313 -25.46484375 7.03515625 C-26.95572754 7.04453288 -28.44661309 7.05363321 -29.9375 7.0625 C-31.06961914 7.07506836 -31.06961914 7.07506836 -32.22460938 7.08789062 C-34.14994313 7.09652441 -36.07535581 7.05224333 -38 7 C-38.33 6.67 -38.66 6.34 -39 6 C-40.0725 6.020625 -41.145 6.04125 -42.25 6.0625 C-45.87090535 6.00215158 -47.77556638 5.48149653 -51 4 C-52.32676508 3.64141484 -53.65835921 3.2981424 -55 3 C-54.34 2.01 -53.68 1.02 -53 0 C-52.41992188 0.20496094 -51.83984375 0.40992188 -51.2421875 0.62109375 C-50.46101563 0.89050781 -49.67984375 1.15992188 -48.875 1.4375 C-48.10929687 1.70433594 -47.34359375 1.97117188 -46.5546875 2.24609375 C-33.60433346 6.06783432 -17.67868282 5.27295923 -5.36328125 -0.1640625 C-3 -1 -3 -1 0 0 Z " fill="#EFFAFC" transform="translate(134,180)"/>
<path d="M0 0 C0 7.92 0 15.84 0 24 C-7.26 24 -14.52 24 -22 24 C-18.89857559 18.57250728 -7.76121318 0 0 0 Z " fill="#FBFCF9" transform="translate(42,24)"/>
<path d="M0 0 C-0.73913043 8.86956522 -0.73913043 8.86956522 -4 12 C-4.66 12 -5.32 12 -6 12 C-6.433125 12.928125 -6.433125 12.928125 -6.875 13.875 C-8 16 -8 16 -10 18 C-12.73434962 18.3063859 -15.38279821 18.5113336 -18.125 18.625 C-19.25615234 18.68300781 -19.25615234 18.68300781 -20.41015625 18.7421875 C-22.27303184 18.83651031 -24.13648255 18.91934662 -26 19 C-26 18.34 -26 17.68 -26 17 C-24.35 16.67 -22.7 16.34 -21 16 C-22.25541557 13.48916886 -23.50063488 13.12874554 -26 12 C-24.54462432 11.16151196 -23.08559627 10.32936066 -21.625 9.5 C-20.81289062 9.0359375 -20.00078125 8.571875 -19.1640625 8.09375 C-17 7 -17 7 -15 7 C-15.020625 6.195625 -15.04125 5.39125 -15.0625 4.5625 C-15 2 -15 2 -14 1 C-12.02596804 0.76451165 -10.04497373 0.58600873 -8.0625 0.4375 C-6.98097656 0.35371094 -5.89945313 0.26992187 -4.78515625 0.18359375 C-3.19238735 0.07860057 -1.59622565 0 0 0 Z " fill="#1984CB" transform="translate(138,131)"/>
<path d="M0 0 C0.99 0 1.98 0 3 0 C5.49977543 3.33303391 6 4.73303602 6 9 C6.99 9 7.98 9 9 9 C9.2475 10.27875 9.495 11.5575 9.75 12.875 C10.43876959 16.13165471 10.43876959 16.13165471 12.875 18.1875 C13.57625 18.455625 14.2775 18.72375 15 19 C15.9590625 20.2375 15.9590625 20.2375 16.9375 21.5 C19.2232625 24.27062121 20.72841182 24.74169685 24 26 C25.8125 28.125 25.8125 28.125 27 30 C29.16874252 29.49396008 30.99967627 29.00016187 33 28 C33 28.66 33 29.32 33 30 C33.99 30.33 34.98 30.66 36 31 C35.01 31.33 34.02 31.66 33 32 C33 32.66 33 33.32 33 34 C34.41538717 34.33872513 35.83237963 34.67074624 37.25 35 C38.03890625 35.185625 38.8278125 35.37125 39.640625 35.5625 C42.25556002 36.12154828 42.25556002 36.12154828 46 36 C46 36.66 46 37.32 46 38 C50.02077152 38.05843491 54.04143259 38.0937424 58.0625 38.125 C59.19623047 38.14175781 60.32996094 38.15851563 61.49804688 38.17578125 C69.95663423 38.26320481 69.95663423 38.26320481 78 36 C78.33 35.01 78.66 34.02 79 33 C81.64 33.33 84.28 33.66 87 34 C78.01357564 42.20499615 63.54402873 41.51233099 52.18554688 41.13183594 C39.53805737 40.36891767 27.48359929 34.1858436 18 26 C17.35675781 25.45085937 16.71351562 24.90171875 16.05078125 24.3359375 C9.731358 18.50071368 1.36720842 8.76749529 0 0 Z " fill="#3C86B3" transform="translate(46,144)"/>
<path d="M0 0 C0 0.33 0 0.66 0 1 C-0.89203125 1.19335938 -1.7840625 1.38671875 -2.703125 1.5859375 C-3.87359375 1.84632812 -5.0440625 2.10671875 -6.25 2.375 C-7.41015625 2.63023438 -8.5703125 2.88546875 -9.765625 3.1484375 C-12.88377952 3.83447079 -12.88377952 3.83447079 -15.046875 5.1015625 C-17 6 -17 6 -23 6 C-23 17.55 -23 29.1 -23 41 C12.31 41 47.62 41 84 41 C84 41.33 84 41.66 84 42 C48.03 42 12.06 42 -25 42 C-25 30.12 -25 18.24 -25 6 C-15.81147474 1.916211 -9.73706757 -0.34775241 0 0 Z " fill="#D9F6FE" transform="translate(88,6)"/>
<path d="M0 0 C10.89 0 21.78 0 33 0 C33.33 20.79 33.66 41.58 34 63 C31.28051018 60.28051018 31.05957623 58.25393566 30.87974548 54.46893311 C30.88196609 53.51851135 30.88418671 52.5680896 30.88647461 51.58886719 C30.88655014 50.50804871 30.88662567 49.42723022 30.88670349 48.31365967 C30.89186478 47.15312073 30.89702606 45.99258179 30.90234375 44.796875 C30.9037587 43.60394836 30.90517365 42.41102173 30.90663147 41.1819458 C30.91222962 37.37127171 30.92478181 33.56065634 30.9375 29.75 C30.94251524 27.16666752 30.9470781 24.58333411 30.95117188 22 C30.96219845 15.66664663 30.97893476 9.33332751 31 3 C27.10418244 2.97088997 23.208393 2.95316413 19.3125 2.9375 C17.65831055 2.92493164 17.65831055 2.92493164 15.97070312 2.91210938 C14.90400391 2.90888672 13.83730469 2.90566406 12.73828125 2.90234375 C11.75899658 2.89710693 10.77971191 2.89187012 9.77075195 2.88647461 C7.07530428 2.99691457 4.62454361 3.39465834 2 4 C1.67 5.65 1.34 7.3 1 9 C0.01 9 -0.98 9 -2 9 C-1.51421457 5.87709365 -1.0013988 3.00419641 0 0 Z " fill="#C9EAF9" transform="translate(9,71)"/>
<path d="M0 0 C0.7734375 0.00644531 1.546875 0.01289062 2.34375 0.01953125 C4.5 0.1875 4.5 0.1875 7.5 1.1875 C6.9164506 4.58016429 5.83564677 6.22785138 3.41015625 8.640625 C2.79076172 9.259375 2.17136719 9.878125 1.53320312 10.515625 C0.88287109 11.14984375 0.23253906 11.7840625 -0.4375 12.4375 C-1.08396484 13.0871875 -1.73042969 13.736875 -2.39648438 14.40625 C-7.23297991 19.1875 -7.23297991 19.1875 -9.5 19.1875 C-11.30622201 15.34927822 -12.01873597 12.42384378 -11.5 8.1875 C-8.57720393 2.94662429 -6.20908633 -0.11383325 0 0 Z " fill="#EAF7FA" transform="translate(52.5,47.8125)"/>
<path d="M0 0 C3 1 3 1 4 3 C4.57791538 10.0505676 4.57791538 10.0505676 2.25 13.875 C-1.22198014 17.15409236 -3.85017948 18.27533115 -8.625 18.1875 C-9.40101562 18.18105469 -10.17703125 18.17460938 -10.9765625 18.16796875 C-13 18 -13 18 -15 17 C-15 16.01 -15 15.02 -15 14 C-14.34 14 -13.68 14 -13 14 C-12.67 13.01 -12.34 12.02 -12 11 C-10.56111125 9.75732336 -9.11700329 8.51924358 -7.62890625 7.3359375 C-5.25298425 5.3873396 -3.13993703 3.20107809 -1 1 C-0.67 0.67 -0.34 0.34 0 0 Z " fill="#E1F7FC" transform="translate(61,53)"/>
<path d="M0 0 C0.00586624 0.62259201 0.01173248 1.24518402 0.01777649 1.88664246 C0.08220988 8.42560822 0.16675183 14.9641043 0.26245117 21.50268555 C0.29550007 23.93589038 0.32359285 26.36916819 0.34643555 28.80249023 C0.38035241 32.32046319 0.43268453 35.83777926 0.48828125 39.35546875 C0.49467117 40.42580856 0.5010611 41.49614838 0.50764465 42.59892273 C0.65575411 50.38143221 2.0177887 57.48548379 4 65 C4.33467463 66.33299729 4.66862373 67.66617893 5 69 C4.34 69 3.68 69 3 69 C0.55302334 64.63799813 -0.50269348 60.97306516 -1 56 C-1.66 56 -2.32 56 -3 56 C-3 38.18 -3 20.36 -3 2 C-3.66 1.67 -4.32 1.34 -5 1 C-2 0 -2 0 0 0 Z " fill="#207FBB" transform="translate(63,72)"/>
<path d="M0 0 C1.03115279 3.26913624 0.9638984 5.86041348 0.5625 9.25 C0.46066406 10.14203125 0.35882813 11.0340625 0.25390625 11.953125 C0.17011719 12.62859375 0.08632812 13.3040625 0 14 C-1.32 14 -2.64 14 -4 14 C-4 14.66 -4 15.32 -4 16 C-4.99 16.33 -5.98 16.66 -7 17 C-8.22520264 20.00847418 -8.22520264 20.00847418 -9 23 C-9.66 23 -10.32 23 -11 23 C-11 24.98 -11 26.96 -11 29 C-11.33 28.34 -11.66 27.68 -12 27 C-12.99 27 -13.98 27 -15 27 C-15.12375 27.928125 -15.12375 27.928125 -15.25 28.875 C-16 31 -16 31 -18 32.0625 C-18.66 32.371875 -19.32 32.68125 -20 33 C-20.33 33.99 -20.66 34.98 -21 36 C-22.66666667 36.66666667 -24.33333333 37.33333333 -26 38 C-26.33 38.99 -26.66 39.98 -27 41 C-28.485 41.495 -28.485 41.495 -30 42 C-29.67 42.66 -29.34 43.32 -29 44 C-33.02089784 46.2184264 -35.61742454 46.20898633 -40 45 C-38.04532248 43.66101601 -36.0866421 42.32870953 -34.125 41 C-33.03445312 40.2575 -31.94390625 39.515 -30.8203125 38.75 C-28 37 -28 37 -26 37 C-25.67 36.01 -25.34 35.02 -25 34 C-23.328125 32.421875 -23.328125 32.421875 -21.25 30.75 C-18.42611602 28.37652045 -16.1946501 26.11740269 -14.125 23.0625 C-13.42375 22.051875 -12.7225 21.04125 -12 20 C-11.34 20 -10.68 20 -10 20 C-9.74347656 19.30132812 -9.48695313 18.60265625 -9.22265625 17.8828125 C-7.87020363 14.69396256 -6.2196848 11.84406779 -4.4375 8.875 C-2.64686939 5.88937474 -1.10117028 3.30351083 0 0 Z " fill="#3A8BBA" transform="translate(186,138)"/>
<path d="M0 0 C3.91661949 1.25912961 7.73448773 2.67829014 11.55273438 4.20849609 C27.25938053 10.39422822 42.30230642 10.26539921 59 10 C58.34 10.33 57.68 10.66 57 11 C57 11.66 57 12.32 57 13 C52.60454738 13.19725192 48.20863314 13.38110072 43.8125 13.5625 C41.94368164 13.64661133 41.94368164 13.64661133 40.03710938 13.73242188 C38.83505859 13.78076172 37.63300781 13.82910156 36.39453125 13.87890625 C34.73707886 13.94960327 34.73707886 13.94960327 33.04614258 14.02172852 C30.18464622 14.0013171 27.77204046 13.66981525 25 13 C23.80375 12.71125 22.6075 12.4225 21.375 12.125 C18.0879382 11.02931273 17.22042792 10.42228501 15 8 C11.99212997 6.53903456 9.06217013 5.80201461 5.8125 5.125 C2 4 2 4 0.5 1.875 C0.335 1.25625 0.17 0.6375 0 0 Z " fill="#2B82B6" transform="translate(55,185)"/>
<path d="M0 0 C1.10408203 0.01353516 2.20816406 0.02707031 3.34570312 0.04101562 C6.04349272 0.07605185 8.74022636 0.12517409 11.4375 0.1875 C11.1075 3.1575 10.7775 6.1275 10.4375 9.1875 C18.0275 9.1875 25.6175 9.1875 33.4375 9.1875 C33.4375 9.5175 33.4375 9.8475 33.4375 10.1875 C26.8375 10.1875 20.2375 10.1875 13.4375 10.1875 C12.7775 12.1675 12.1175 14.1475 11.4375 16.1875 C11.1075 16.1875 10.7775 16.1875 10.4375 16.1875 C10.4375 14.5375 10.4375 12.8875 10.4375 11.1875 C6.9725 13.1675 6.9725 13.1675 3.4375 15.1875 C3.4375 11.55554504 4.39203155 10.44036089 6.4375 7.5 C6.994375 6.69175781 7.55125 5.88351563 8.125 5.05078125 C8.558125 4.43589844 8.99125 3.82101563 9.4375 3.1875 C6.0209948 3.10025294 2.60477687 3.04702675 -0.8125 3 C-1.78058594 2.97486328 -2.74867188 2.94972656 -3.74609375 2.92382812 C-4.68066406 2.91416016 -5.61523438 2.90449219 -6.578125 2.89453125 C-7.43696289 2.8788208 -8.29580078 2.86311035 -9.18066406 2.84692383 C-12.0726607 3.26044733 -13.33431829 4.35339675 -15.5625 6.1875 C-18.71180893 7.23726964 -20.95064456 7.28881595 -24.25 7.25 C-25.24386719 7.24097656 -26.23773438 7.23195312 -27.26171875 7.22265625 C-28.40060547 7.20525391 -28.40060547 7.20525391 -29.5625 7.1875 C-29.5625 6.8575 -29.5625 6.5275 -29.5625 6.1875 C-26.2625 6.1875 -22.9625 6.1875 -19.5625 6.1875 C-19.5625 5.5275 -19.5625 4.8675 -19.5625 4.1875 C-20.2225 3.8575 -20.8825 3.5275 -21.5625 3.1875 C-14.31808805 0.1055847 -7.79976815 -0.18335802 0 0 Z " fill="#D2EDFA" transform="translate(133.5625,127.8125)"/>
<path d="M0 0 C0.66 0 1.32 0 2 0 C1.97905273 0.94617188 1.95810547 1.89234375 1.93652344 2.8671875 C1.86277594 6.46045091 1.81772456 10.0536516 1.78027344 13.64746094 C1.76045829 15.18728977 1.7333979 16.72704658 1.69824219 18.26660156 C1.44712086 29.56706108 2.87714309 39.1285346 6 50 C6.35395028 51.66241033 6.69658396 53.32762815 7 55 C5.35 54.34 3.7 53.68 2 53 C1.01 54.32 0.02 55.64 -1 57 C-1.625 53.625 -1.625 53.625 -2 50 C-1.34 49.34 -0.68 48.68 0 48 C0.28169901 46.02831367 0.28169901 46.02831367 0.1875 43.8125 C0.18105469 43.07644531 0.17460938 42.34039062 0.16796875 41.58203125 C0.02790909 38.86529996 0.02790909 38.86529996 -0.50390625 35.6640625 C-2.09027519 23.94741635 -0.87499702 11.74996003 0 0 Z " fill="#3F88B4" transform="translate(4,80)"/>
<path d="M0 0 C0.99 0.33 1.98 0.66 3 1 C-5.59661592 9.96049384 -15.10674409 15.19079285 -27.56494141 15.50195312 C-39.28058245 15.493015 -39.28058245 15.493015 -43 13 C-41.83082031 13.01160156 -40.66164063 13.02320313 -39.45703125 13.03515625 C-37.90885577 13.04453913 -36.36067855 13.0536388 -34.8125 13.0625 C-34.04357422 13.07087891 -33.27464844 13.07925781 -32.48242188 13.08789062 C-28.51473211 13.10491934 -24.87428766 12.98604115 -21 12 C-21 11.34 -21 10.68 -21 10 C-21.66 9.67 -22.32 9.34 -23 9 C-23 8.34 -23 7.68 -23 7 C-13.58997722 7.96355353 -13.58997722 7.96355353 -9 9 C-9 7.68 -9 6.36 -9 5 C-5.535 4.505 -5.535 4.505 -2 4 C-2 3.34 -2 2.68 -2 2 C-1.34 2 -0.68 2 0 2 C0 1.34 0 0.68 0 0 Z " fill="#E1F6FB" transform="translate(137,149)"/>
<path d="M0 0 C6.6 0 13.2 0 20 0 C14.63157895 16.10526316 14.63157895 16.10526316 8 22 C7.75 19.6875 7.75 19.6875 8 17 C8.598125 16.566875 9.19625 16.13375 9.8125 15.6875 C13.04772193 13.19175737 14.01293985 9.89589651 15 6 C15 4.68 15 3.36 15 2 C10.71 2 6.42 2 2 2 C1.67 3.32 1.34 4.64 1 6 C-0.31129922 7.35500919 -1.64691687 8.68671343 -3 10 C-3.515625 10.9075 -4.03125 11.815 -4.5625 12.75 C-5.2740625 13.86375 -5.2740625 13.86375 -6 15 C-6.99 15 -7.98 15 -9 15 C-9.99 17.475 -9.99 17.475 -11 20 C-12.65 20 -14.3 20 -16 20 C-15.34 19.360625 -14.68 18.72125 -14 18.0625 C-11.5666206 15.61521557 -9.20548026 13.10796921 -6.875 10.5625 C-5.88113281 9.48162109 -5.88113281 9.48162109 -4.8671875 8.37890625 C-2.53510912 5.57133485 -2.53510912 5.57133485 0 0 Z " fill="#3881AF" transform="translate(147,138)"/>
<path d="M0 0 C0 7.92 0 15.84 0 24 C-7.26 24 -14.52 24 -22 24 C-18.89857559 18.57250728 -7.76121318 0 0 0 Z M-5 6 C-7.75708588 7.4879561 -7.75708588 7.4879561 -10 10 C-10.88593998 13.13863704 -10.88593998 13.13863704 -11 16 C-11.61875 16.144375 -12.2375 16.28875 -12.875 16.4375 C-15.03258322 16.93152225 -15.03258322 16.93152225 -17 18 C-17.33 19.65 -17.66 21.3 -18 23 C-12.72 23 -7.44 23 -2 23 C-2 17.72 -2 12.44 -2 7 C-2.99 6.67 -3.98 6.34 -5 6 Z " fill="#D1F0FB" transform="translate(42,24)"/>
<path d="M0 0 C2.61250423 2.41154237 4.5968519 4.87827168 6.5625 7.8125 C12.12929391 15.34735236 20.97147577 19.94457564 30 22 C33.70117348 22.32357967 37.35114994 22.28822558 41.0625 22.1875 C42.02349609 22.17396484 42.98449219 22.16042969 43.97460938 22.14648438 C46.31701752 22.11152306 48.65819156 22.06246104 51 22 C51 22.66 51 23.32 51 24 C36.12018915 24.79744569 24.73041671 25.22638039 12 17 C11.07960938 16.63648438 10.15921875 16.27296875 9.2109375 15.8984375 C6.41949037 14.76410386 6.17437308 13.68428132 5 11 C2.18490007 8.7226499 2.18490007 8.7226499 -1 9 C-0.67 6.03 -0.34 3.06 0 0 Z " fill="#3786B6" transform="translate(68,141)"/>
<path d="M0 0 C2.72869407 0.03287583 5.2966618 0.56397771 8 1 C8 1.66 8 2.32 8 3 C8.66 3.33 9.32 3.66 10 4 C9.360625 4.28875 8.72125 4.5775 8.0625 4.875 C5.84793921 5.82823451 5.84793921 5.82823451 5 8 C-0.90141871 9.86360591 -6.85959995 10.22742222 -13 10 C-13 8.68 -13 7.36 -13 6 C-9.78548731 4.39274365 -6.56387464 4.94251815 -3 5 C-2.67 4.01 -2.34 3.02 -2 2 C-1.34 1.34 -0.68 0.68 0 0 Z " fill="#FAFAF8" transform="translate(133,179)"/>
<path d="M0 0 C12.21446227 -0.45053344 22.15224186 2.17395365 31.84375 9.95703125 C35.2390573 13.17396189 37.84582142 16.85215026 40 21 C40 21.66 40 22.32 40 23 C38.35 22.67 36.7 22.34 35 22 C35 21.01 35 20.02 35 19 C34.34 18.67 33.68 18.34 33 18 C32.375 15.4375 32.375 15.4375 32 13 C29.525 12.505 29.525 12.505 27 12 C26.67 12.99 26.34 13.98 26 15 C26.33 13.35 26.66 11.7 27 10 C25.68 9.67 24.36 9.34 23 9 C23 8.34 23 7.68 23 7 C22.01 6.67 21.02 6.34 20 6 C20 5.34 20 4.68 20 4 C16.04 3.67 12.08 3.34 8 3 C8 2.34 8 1.68 8 1 C5.36 1 2.72 1 0 1 C0 0.67 0 0.34 0 0 Z " fill="#3583B3" transform="translate(104,77)"/>
<path d="M0 0 C1.5625 1.75 1.5625 1.75 3 4 C2.6875 6.25 2.6875 6.25 2 8 C-1.53116726 8.81285275 -4.72198129 9.10097851 -8.34106445 9.02172852 C-9.3817659 9.00163223 -10.42246735 8.98153595 -11.4947052 8.96083069 C-12.6063353 8.93379562 -13.71796539 8.90676056 -14.86328125 8.87890625 C-16.01040085 8.85529526 -17.15752045 8.83168427 -18.33940125 8.80735779 C-21.99723192 8.7308873 -25.654842 8.64679111 -29.3125 8.5625 C-31.79491114 8.50926271 -34.27733299 8.45652242 -36.75976562 8.40429688 C-42.83998301 8.27529453 -48.92001371 8.13945358 -55 8 C-54.01 11.96 -53.02 15.92 -52 20 C-55.81818182 16.18181818 -55.81818182 16.18181818 -57 13 C-57 11.02 -57 9.04 -57 7 C-38.19 7 -19.38 7 0 7 C0 4.69 0 2.38 0 0 Z " fill="#DEFBFE" transform="translate(147,108)"/>
<path d="M0 0 C0.99 0.66 1.98 1.32 3 2 C6.1628485 1.19595537 6.1628485 1.19595537 9 0 C4.94262597 7.876079 -2.2402938 13.89457404 -10 18 C-10.99 18 -11.98 18 -13 18 C-13 17.01 -13 16.02 -13 15 C-11.68 15 -10.36 15 -9 15 C-9 14.01 -9 13.02 -9 12 C-8.05125 11.649375 -7.1025 11.29875 -6.125 10.9375 C-2.67406546 9.24160238 -2.67406546 9.24160238 -1.6875 5.4375 C-1.460625 4.303125 -1.23375 3.16875 -1 2 C-0.67 1.34 -0.34 0.68 0 0 Z " fill="#1F86C6" transform="translate(146,160)"/>
<path d="M0 0 C0.9075 0.103125 1.815 0.20625 2.75 0.3125 C2.66291331 1.77195288 2.55473093 3.23015868 2.4375 4.6875 C2.37949219 5.49960937 2.32148437 6.31171875 2.26171875 7.1484375 C1.75 9.3125 1.75 9.3125 -1.25 11.3125 C-3.9375 11.4375 -3.9375 11.4375 -6.25 11.3125 C-6.25 11.9725 -6.25 12.6325 -6.25 13.3125 C-7.57 12.6525 -8.89 11.9925 -10.25 11.3125 C-5.22191011 0.50210674 -5.22191011 0.50210674 0 0 Z " fill="#EBF9FA" transform="translate(60.25,55.6875)"/>
<path d="M0 0 C0.99 0 1.98 0 3 0 C3.66 1.98 4.32 3.96 5 6 C4.01 6.33 3.02 6.66 2 7 C2 7.99 2 8.98 2 10 C-0.31 10.66 -2.62 11.32 -5 12 C-6.32 10.68 -7.64 9.36 -9 8 C-7.25 6 -7.25 6 -5 4 C-3.68 4 -2.36 4 -1 4 C-0.67 2.68 -0.34 1.36 0 0 Z " fill="#F9FAF7" transform="translate(149,169)"/>
<path d="M0 0 C1.32 0 2.64 0 4 0 C4 1.32 4 2.64 4 4 C5.32 3.67 6.64 3.34 8 3 C8 4.32 8 5.64 8 7 C-2.89 7 -13.78 7 -25 7 C-25 6.67 -25 6.34 -25 6 C-19.47291389 5.05779874 -14.16241648 4.87883851 -8.5625 4.9375 C-7.73556641 4.94201172 -6.90863281 4.94652344 -6.05664062 4.95117188 C-4.03772854 4.96284189 -2.01885426 4.98077282 0 5 C0 3.35 0 1.7 0 0 Z " fill="#1F83B8" transform="translate(34,64)"/>
<path d="M0 0 C0.33 0 0.66 0 1 0 C1.00586624 0.57247971 1.01173248 1.14495941 1.01777649 1.73478699 C1.0822771 7.75473259 1.16683377 13.77417122 1.26245117 19.79370117 C1.29547281 22.0328905 1.32357363 24.27215851 1.34643555 26.51147461 C1.47448158 43.97604826 1.47448158 43.97604826 5 61 C5.34073019 62.33146229 5.67698454 63.66412954 6 65 C5.34 65 4.68 65 4 65 C-0.55189306 56.88575585 -0.14016493 49.01184657 -0.09765625 39.94140625 C-0.0962413 38.79711655 -0.09482635 37.65282684 -0.09336853 36.47386169 C-0.08779301 32.83671399 -0.07524498 29.19962895 -0.0625 25.5625 C-0.05748184 23.0891936 -0.05291948 20.61588623 -0.04882812 18.14257812 C-0.0378316 12.09503088 -0.02111788 6.04751992 0 0 Z " fill="#2F7DB4" transform="translate(62,76)"/>
<path d="M0 0 C1.7325 0.928125 1.7325 0.928125 3.5 1.875 C12.07420371 6.11697447 21.02711189 7.49166274 30.375 4.9375 C33.84302913 4.04059592 34.79182773 3.9894964 38 5 C37.34 5 36.68 5 36 5 C36.495 6.485 36.495 6.485 37 8 C26.87528663 10.42836452 15.64345704 9.89447304 6 6 C6 5.34 6 4.68 6 4 C4.35 3.67 2.7 3.34 1 3 C0.67 2.01 0.34 1.02 0 0 Z " fill="#E1F7FC" transform="translate(88,146)"/>
<path d="M0 0 C0.33 0 0.66 0 1 0 C1.02468857 4.5206665 1.04285449 9.0412939 1.05493164 13.56201172 C1.05996552 15.10043013 1.06679308 16.63884375 1.07543945 18.17724609 C1.08754639 20.38640526 1.09323769 22.59550126 1.09765625 24.8046875 C1.10281754 25.49432587 1.10797882 26.18396423 1.11329651 26.89450073 C1.11387171 31.77225659 1.11387171 31.77225659 0 34 C0.66 34 1.32 34 2 34 C2.33 35.98 2.66 37.96 3 40 C2.34 38.68 1.68 37.36 1 36 C0.34 36 -0.32 36 -1 36 C-1.33 35.34 -1.66 34.68 -2 34 C-4.11846285 33.31270746 -4.11846285 33.31270746 -6.5625 32.875 C-7.38878906 32.70742188 -8.21507812 32.53984375 -9.06640625 32.3671875 C-10.02353516 32.18542969 -10.02353516 32.18542969 -11 32 C-11 31.67 -11 31.34 -11 31 C-7.7 31 -4.4 31 -1 31 C-1.01160156 30.1028125 -1.02320313 29.205625 -1.03515625 28.28125 C-1.10364317 18.81048798 -0.69495992 9.44400891 0 0 Z " fill="#3282B8" transform="translate(62,16)"/>
<path d="M0 0 C0.33 0.99 0.66 1.98 1 3 C0.401875 3.845625 -0.19625 4.69125 -0.8125 5.5625 C-6.81353597 14.11761011 -5.20763447 26.05661599 -5 36 C-5.66 36 -6.32 36 -7 36 C-9.84373115 27.46880656 -9.011065 16.08115365 -5.15625 8.02734375 C-3.56173005 5.23154694 -1.91033779 2.59260128 0 0 Z " fill="#2E7DB2" transform="translate(81,90)"/>
<path d="M0 0 C1.10408203 0.01353516 2.20816406 0.02707031 3.34570312 0.04101562 C6.04349272 0.07605185 8.74022636 0.12517409 11.4375 0.1875 C11.4375 0.8475 11.4375 1.5075 11.4375 2.1875 C10.42381348 2.20937378 10.42381348 2.20937378 9.38964844 2.23168945 C6.32169478 2.30625411 3.25481924 2.40288655 0.1875 2.5 C-1.40771484 2.53383789 -1.40771484 2.53383789 -3.03515625 2.56835938 C-4.57236328 2.6215332 -4.57236328 2.6215332 -6.140625 2.67578125 C-7.08325195 2.70196533 -8.02587891 2.72814941 -8.99707031 2.75512695 C-11.96839125 3.2559082 -13.27064395 4.29002964 -15.5625 6.1875 C-18.71180893 7.23726964 -20.95064456 7.28881595 -24.25 7.25 C-25.24386719 7.24097656 -26.23773438 7.23195312 -27.26171875 7.22265625 C-28.40060547 7.20525391 -28.40060547 7.20525391 -29.5625 7.1875 C-29.5625 6.8575 -29.5625 6.5275 -29.5625 6.1875 C-26.2625 6.1875 -22.9625 6.1875 -19.5625 6.1875 C-19.5625 5.5275 -19.5625 4.8675 -19.5625 4.1875 C-20.2225 3.8575 -20.8825 3.5275 -21.5625 3.1875 C-14.31808805 0.1055847 -7.79976815 -0.18335802 0 0 Z " fill="#E2F7FB" transform="translate(133.5625,127.8125)"/>
<path d="M0 0 C4.86896107 1.02091119 9.70102445 2.12365943 14.5 3.4375 C15.3353125 3.66308594 16.170625 3.88867188 17.03125 4.12109375 C17.6809375 4.41113281 18.330625 4.70117188 19 5 C19.33 5.99 19.66 6.98 20 8 C14.97874074 8.77916092 11.02296004 9.13016601 6 8 C6.33 6.68 6.66 5.36 7 4 C6.030625 3.71125 5.06125 3.4225 4.0625 3.125 C1 2 1 2 0 0 Z " fill="#EFF8F7" transform="translate(117,6)"/>
<path d="M0 0 C7.26 0 14.52 0 22 0 C17.21621622 9.56756757 17.21621622 9.56756757 13 14 C12.01 14.33 11.02 14.66 10 15 C10 14.34 10 13.68 10 13 C10.66 13 11.32 13 12 13 C14.33421485 8.99848884 14.78010313 5.8795875 16 1 C7.585 1.495 7.585 1.495 -1 2 C-0.67 1.34 -0.34 0.68 0 0 Z " fill="#388BB2" transform="translate(122,130)"/>
<path d="M0 0 C2 1 2 1 3.10546875 3.87109375 C3.46253906 5.04800781 3.81960937 6.22492188 4.1875 7.4375 C4.55230469 8.61183594 4.91710937 9.78617188 5.29296875 10.99609375 C6 14 6 14 5 16 C3.68 15.34 2.36 14.68 1 14 C0.01 15.32 -0.98 16.64 -2 18 C-2.625 14.625 -2.625 14.625 -3 11 C-2.34 10.34 -1.68 9.68 -1 9 C-0.53993654 6.79749008 -0.53993654 6.79749008 -0.375 4.375 C-0.30023438 3.55773437 -0.22546875 2.74046875 -0.1484375 1.8984375 C-0.09945313 1.27195312 -0.05046875 0.64546875 0 0 Z " fill="#1E81C7" transform="translate(5,119)"/>
<path d="M0 0 C1.4540625 0.41572266 1.4540625 0.41572266 2.9375 0.83984375 C12.67398465 3.50905106 21.91739504 4.73184561 32 5 C32 5.33 32 5.66 32 6 C28.35861758 6.83725216 24.98405504 7.13509204 21.25 7.125 C19.80367187 7.12886719 19.80367187 7.12886719 18.328125 7.1328125 C16 7 16 7 15 6 C13.9275 6.020625 12.855 6.04125 11.75 6.0625 C8.12909465 6.00215158 6.22443362 5.48149653 3 4 C1.67323492 3.64141484 0.34164079 3.2981424 -1 3 C-0.67 2.01 -0.34 1.02 0 0 Z " fill="#E1F7FE" transform="translate(80,180)"/>
<path d="M0 0 C2.475 0.495 2.475 0.495 5 1 C5.33 2.65 5.66 4.3 6 6 C7.918125 6.4640625 7.918125 6.4640625 9.875 6.9375 C12.10101675 7.47605244 13.94739999 7.9737 16 9 C16 9.99 16 10.98 16 12 C18.475 12.495 18.475 12.495 21 13 C20.67 13.66 20.34 14.32 20 15 C15.47924008 13.69786088 12.10883057 11.95665047 8.3125 9.1875 C7.38050781 8.52105469 6.44851562 7.85460937 5.48828125 7.16796875 C2.95701861 4.96255154 1.5439136 2.95873743 0 0 Z " fill="#D4F0F9" transform="translate(73,147)"/>
<path d="M0 0 C5.17721394 6.87069514 10.31706684 13.78047804 15 21 C11.48144841 19.59257936 10.61387166 18.33533477 9 15 C8.01 14.67 7.02 14.34 6 14 C6 13.34 6 12.68 6 12 C4.68 12.33 3.36 12.66 2 13 C1.20439236 10.08500057 0.74677501 7.25438581 0.4375 4.25 C0.31181641 3.05117187 0.31181641 3.05117187 0.18359375 1.828125 C0.12300781 1.22484375 0.06242187 0.6215625 0 0 Z " fill="#3E85B2" transform="translate(16,146)"/>
<path d="M0 0 C6.71576677 0.99034349 11.947805 7.46750405 16.01953125 12.4921875 C19.00411442 16.75587774 19.00411442 16.75587774 20 19 C19.67 19.99 19.34 20.98 19 22 C18.48050781 21.26394531 17.96101563 20.52789062 17.42578125 19.76953125 C12.97622186 13.54343798 8.59956541 8.12848754 2.6875 3.25 C1.800625 2.5075 0.91375 1.765 0 1 C0 0.67 0 0.34 0 0 Z " fill="#3885B3" transform="translate(160,26)"/>
<path d="M0 0 C1.32 0.66 2.64 1.32 4 2 C3.67 4.97 3.34 7.94 3 11 C1.68 11.33 0.36 11.66 -1 12 C-1.99 12.33 -2.98 12.66 -4 13 C-3.91266424 11.39482903 -3.80447776 9.79078338 -3.6875 8.1875 C-3.62949219 7.29417969 -3.57148437 6.40085937 -3.51171875 5.48046875 C-2.93686419 2.69396 -2.1793144 1.75864246 0 0 Z " fill="#1482BF" transform="translate(68,53)"/>
<path d="M0 0 C5.16428887 4.03364574 9.54735919 8.38471604 13 14 C13 14.66 13 15.32 13 16 C11.35 16 9.7 16 8 16 C8.33 15.34 8.66 14.68 9 14 C8.01 13.34 7.02 12.68 6 12 C5.67 10.989375 5.34 9.97875 5 8.9375 C4.67 7.968125 4.34 6.99875 4 6 C3.01 5.67 2.02 5.34 1 5 C1 5.99 1 6.98 1 8 C-0.32 8 -1.64 8 -3 8 C-3 7.34 -3 6.68 -3 6 C-2.34 6 -1.68 6 -1 6 C-0.67 4.02 -0.34 2.04 0 0 Z " fill="#D2EEF6" transform="translate(166,32)"/>
<path d="M0 0 C4.29 0.33 8.58 0.66 13 1 C13 1.66 13 2.32 13 3 C21.58 3.66 30.16 4.32 39 5 C39 5.33 39 5.66 39 6 C25.46023837 6.45244253 12.9062156 5.55979967 0 1 C0 0.67 0 0.34 0 0 Z " fill="#B4DDF0" transform="translate(68,190)"/>
<path d="M0 0 C0.33 0 0.66 0 1 0 C1.33 2.31 1.66 4.62 2 7 C1.34 7 0.68 7 0 7 C0.33 9.31 0.66 11.62 1 14 C1.66 14 2.32 14 3 14 C3 15.65 3 17.3 3 19 C2.01 19 1.02 19 0 19 C-0.33 17.68 -0.66 16.36 -1 15 C-1.99 15.33 -2.98 15.66 -4 16 C-2.98408579 10.53135543 -1.92908943 5.23609987 0 0 Z " fill="#2086C7" transform="translate(190,128)"/>
<path d="M0 0 C-0.93601246 1.41764994 -1.8738792 2.83407568 -2.8125 4.25 C-3.33457031 5.03890625 -3.85664062 5.8278125 -4.39453125 6.640625 C-5.87134122 8.81092481 -7.40689873 10.91413768 -9 13 C-9 3 -9 3 -8 1 C-3.6 -1.2 -3.6 -1.2 0 0 Z " fill="#E0F5FA" transform="translate(83,89)"/>
<path d="M0 0 C0.33 0.66 0.66 1.32 1 2 C1.66 2.33 2.32 2.66 3 3 C1.700625 3.7734375 1.700625 3.7734375 0.375 4.5625 C-2.87249265 6.71214052 -5.16890204 9.30258132 -7.60546875 12.31640625 C-8.99670041 13.99601647 -10.36735063 15.55217886 -12 17 C-12.66 17 -13.32 17 -14 17 C-14.33 17.66 -14.66 18.32 -15 19 C-15.66 18.34 -16.32 17.68 -17 17 C-16.5153125 16.5875 -16.030625 16.175 -15.53125 15.75 C-6.71254994 8.75302049 -6.71254994 8.75302049 0 0 Z " fill="#568AA8" transform="translate(60,50)"/>
<path d="M0 0 C2.64 0.33 5.28 0.66 8 1 C1.56656866 6.87400253 -6.38101679 7.32334413 -14.69140625 7.10546875 C-15.83416016 7.05326172 -15.83416016 7.05326172 -17 7 C-17 6.67 -17 6.34 -17 6 C-16.01257813 5.87882813 -15.02515625 5.75765625 -14.0078125 5.6328125 C-12.08582031 5.38144531 -12.08582031 5.38144531 -10.125 5.125 C-8.84882812 4.96257812 -7.57265625 4.80015625 -6.2578125 4.6328125 C-2.92835773 4.30122527 -2.92835773 4.30122527 -1 2 C-0.67 1.34 -0.34 0.68 0 0 Z " fill="#3A82B4" transform="translate(125,177)"/>
<path d="M0 0 C2.05078125 0.03255208 4.1015625 0.06510417 6.15234375 0.09765625 C-0.45849202 3.95397712 -8.3253689 4.96758064 -15.84765625 4.09765625 C-18.14453125 3.08203125 -18.14453125 3.08203125 -19.84765625 2.09765625 C-18.02427734 2.00677734 -18.02427734 2.00677734 -16.1640625 1.9140625 C-14.57941397 1.82967293 -12.99477923 1.74502415 -11.41015625 1.66015625 C-10.60771484 1.62083984 -9.80527344 1.58152344 -8.97851562 1.54101562 C-5.68749526 1.36049552 -2.91584844 0.15411461 0 0 Z " fill="#5191BC" transform="translate(119.84765625,148.90234375)"/>
<path d="M0 0 C-6.35507922 4.23671948 -6.35507922 4.23671948 -10.5625 4.5625 C-13.90657232 4.81460438 -13.90657232 4.81460438 -17 6 C-19.6723621 6.13415472 -22.32250488 6.04318541 -25 6 C-25 5.67 -25 5.34 -25 5 C-23.91460937 4.73445312 -22.82921875 4.46890625 -21.7109375 4.1953125 C-20.26559353 3.83866918 -18.82028278 3.4818912 -17.375 3.125 C-16.66214844 2.95097656 -15.94929688 2.77695313 -15.21484375 2.59765625 C-11.95502209 1.79017749 -8.83131763 0.93955878 -5.6640625 -0.1953125 C-3 -1 -3 -1 0 0 Z " fill="#428CBA" transform="translate(139,189)"/>
<path d="M0 0 C0.66 0 1.32 0 2 0 C2.33 0.66 2.66 1.32 3 2 C3.99 1.34 4.98 0.68 6 0 C6.86810513 3.4724205 6.88224157 5.58131391 6 9 C6.37907282 11.18703385 6.37907282 11.18703385 7 13 C3.66366632 10.00880429 1.75472293 7.12359889 0 3 C0 2.01 0 1.02 0 0 Z " fill="#E8F8FB" transform="translate(66,134)"/>
<path d="M0 0 C0.66 0.33 1.32 0.66 2 1 C0.25192871 6.46737191 -1.65794081 11.75824848 -4 17 C-5.20220203 13.46905698 -4.79532349 10.87101018 -4.0625 7.25 C-3.86785156 6.26515625 -3.67320312 5.2803125 -3.47265625 4.265625 C-3.31667969 3.51796875 -3.16070312 2.7703125 -3 2 C-2.34 2.33 -1.68 2.66 -1 3 C-0.67 2.01 -0.34 1.02 0 0 Z " fill="#E3F6F6" transform="translate(188,128)"/>
<path d="M0 0 C1.32 0.33 2.64 0.66 4 1 C3.34 3.97 2.68 6.94 2 10 C0.68 9.67 -0.64 9.34 -2 9 C-2.25 3.375 -2.25 3.375 0 0 Z " fill="#F8FAF5" transform="translate(45,54)"/>
<path d="M0 0 C2.475 0.99 2.475 0.99 5 2 C5 2.66 5 3.32 5 4 C5.99 4.33 6.98 4.66 8 5 C8 5.99 8 6.98 8 8 C8.99 8 9.98 8 11 8 C11 8.66 11 9.32 11 10 C11.99 10.33 12.98 10.66 14 11 C13.67 12.32 13.34 13.64 13 15 C8.08198915 10.30165217 3.77661644 5.66492467 0 0 Z " fill="#D0ECF6" transform="translate(24,158)"/>
<path d="M0 0 C0.61875 0.144375 1.2375 0.28875 1.875 0.4375 C6.22537017 1.22056663 10.60021907 1.59846659 15 2 C15 2.33 15 2.66 15 3 C12.36 3 9.72 3 7 3 C7 4.98 7 6.96 7 9 C6.01 9 5.02 9 4 9 C3.67 6.36 3.34 3.72 3 1 C2.34 1 1.68 1 1 1 C0.67 2.32 0.34 3.64 0 5 C0 3.35 0 1.7 0 0 Z " fill="#2381C3" transform="translate(43,71)"/>
<path d="M0 0 C-0.20625 0.61875 -0.4125 1.2375 -0.625 1.875 C-0.74875 2.57625 -0.8725 3.2775 -1 4 C-0.34 4.66 0.32 5.32 1 6 C-7.57142857 5.28571429 -7.57142857 5.28571429 -11 2 C-7.17679443 0.57741188 -4.08718695 -0.24042276 0 0 Z " fill="#F1FBFB" transform="translate(70,184)"/>
<path d="M0 0 C0.99 0 1.98 0 3 0 C5.66495945 3.66431924 7.4330661 7.76927847 9 12 C8.67 12.99 8.34 13.98 8 15 C6.84735447 13.25447936 5.70312673 11.50339804 4.5625 9.75 C3.92441406 8.77546875 3.28632812 7.8009375 2.62890625 6.796875 C1.2423864 4.41618385 0.453419 2.68219693 0 0 Z " fill="#3E89B4" transform="translate(46,144)"/>
<path d="M0 0 C2.33294775 -0.04241723 4.66702567 -0.04092937 7 0 C7.33 0.33 7.66 0.66 8 1 C9.11375 0.95875 10.2275 0.9175 11.375 0.875 C15 1 15 1 16.9375 2.5 C17.288125 2.995 17.63875 3.49 18 4 C13.19066291 5.14817507 10.24464324 4.75636919 5.625 3.0625 C4.56539063 2.68222656 3.50578125 2.30195313 2.4140625 1.91015625 C1.61742188 1.60980469 0.82078125 1.30945313 0 1 C0 0.67 0 0.34 0 0 Z " fill="#2E86C1" transform="translate(120,6)"/>
<path d="M0 0 C5.28 0 10.56 0 16 0 C16.33 0.66 16.66 1.32 17 2 C7.13946117 5.09350238 7.13946117 5.09350238 2.1875 2.5625 C1.465625 2.046875 0.74375 1.53125 0 1 C0 0.67 0 0.34 0 0 Z " fill="#1385D1" transform="translate(123,4)"/>
<path d="M0 0 C-2.49706082 3.28560634 -3.73216888 3.95805055 -7.890625 4.609375 C-9.34300623 4.67539233 -10.79639364 4.7217497 -12.25 4.75 C-13.36761719 4.79447266 -13.36761719 4.79447266 -14.5078125 4.83984375 C-16.33796672 4.9102343 -18.16898769 4.95741832 -20 5 C-20 4.67 -20 4.34 -20 4 C-19.19175781 3.80664062 -18.38351563 3.61328125 -17.55078125 3.4140625 C-16.48214844 3.15367187 -15.41351563 2.89328125 -14.3125 2.625 C-13.25675781 2.36976563 -12.20101562 2.11453125 -11.11328125 1.8515625 C-8.0204708 1.08293394 -8.0204708 1.08293394 -5.29296875 -0.1640625 C-3 -1 -3 -1 0 0 Z " fill="#CBEFF6" transform="translate(134,180)"/>
<path d="M0 0 C0.66 0.33 1.32 0.66 2 1 C1.505 1.86625 1.01 2.7325 0.5 3.625 C-1.06487308 7.14596444 -1.51769611 9.20356187 -1 13 C-0.01 13.66 0.98 14.32 2 15 C0.02 15.99 0.02 15.99 -2 17 C-3.80622201 13.16177822 -4.51873597 10.23634378 -4 6 C-2 2.625 -2 2.625 0 0 Z " fill="#BDE8F5" transform="translate(45,50)"/>
<path d="M0 0 C5.00099548 2.65848126 9.7045025 5.25876024 14 9 C11.69 9 9.38 9 7 9 C6.67 8.01 6.34 7.02 6 6 C4.35 5.67 2.7 5.34 1 5 C0.67 3.35 0.34 1.7 0 0 Z " fill="#3785B1" transform="translate(41,176)"/>
<path d="M0 0 C4.20763224 1.5027258 5.8027758 4.23332995 8 8 C8 8.66 8 9.32 8 10 C6.35 9.67 4.7 9.34 3 9 C3 8.01 3 7.02 3 6 C2.34 5.67 1.68 5.34 1 5 C0.375 2.4375 0.375 2.4375 0 0 Z " fill="#3086B5" transform="translate(136,90)"/>
<path d="M0 0 C0.33 0 0.66 0 1 0 C1.63019694 9.17286652 1.63019694 9.17286652 -1 12.625 C-1.66 13.07875 -2.32 13.5325 -3 14 C-3.99 13.34 -4.98 12.68 -6 12 C-5.38125 11.13375 -4.7625 10.2675 -4.125 9.375 C-2.15345216 6.24371814 -1.01033009 3.53615531 0 0 Z " fill="#D6F0F7" transform="translate(164,144)"/>
<path d="M0 0 C-0.33 1.32 -0.66 2.64 -1 4 C-1.61875 4.061875 -2.2375 4.12375 -2.875 4.1875 C-5.27761141 4.828919 -5.27761141 4.828919 -6.25 7.5625 C-6.4975 8.366875 -6.745 9.17125 -7 10 C-8.65 10 -10.3 10 -12 10 C-10.33333333 8.33333333 -8.66666667 6.66666667 -7 5 C-6.113125 4.071875 -5.22625 3.14375 -4.3125 2.1875 C-2 0 -2 0 0 0 Z " fill="#3B88B2" transform="translate(143,148)"/>
<path d="M0 0 C0.66 0 1.32 0 2 0 C2 0.66 2 1.32 2 2 C2.99 2.33 3.98 2.66 5 3 C2.03 5.475 2.03 5.475 -1 8 C-2.32 6.68 -3.64 5.36 -5 4 C-4.01 4 -3.02 4 -2 4 C-2 3.34 -2 2.68 -2 2 C-1.34 2 -0.68 2 0 2 C0 1.34 0 0.68 0 0 Z " fill="#EAF6F7" transform="translate(85,80)"/>
<path d="M0 0 C4.34671293 1.41367259 8.6135639 2.97260641 12.875 4.625 C14.60363281 5.29402344 14.60363281 5.29402344 16.3671875 5.9765625 C17.23601562 6.31429687 18.10484375 6.65203125 19 7 C15.16132594 8.13708622 13.68859251 7.59280131 10 6 C8.60666264 5.69663368 7.21059402 5.40563008 5.8125 5.125 C2 4 2 4 0.5 1.875 C0.335 1.25625 0.17 0.6375 0 0 Z " fill="#3D85B2" transform="translate(55,185)"/>
<path d="M0 0 C0.66 0.33 1.32 0.66 2 1 C0.90344712 2.31886772 -0.20253423 3.62990057 -1.3125 4.9375 C-1.92738281 5.66839844 -2.54226562 6.39929688 -3.17578125 7.15234375 C-5 9 -5 9 -8 10 C-8 8.35 -8 6.7 -8 5 C-6.68 5.33 -5.36 5.66 -4 6 C-3.67 4.35 -3.34 2.7 -3 1 C-2.01 0.67 -1.02 0.34 0 0 Z " fill="#2A81B3" transform="translate(153,160)"/>
<path d="M0 0 C2.62113708 0 4.50935112 0.31292445 7 1 C6.67 1.99 6.34 2.98 6 4 C4.35 4 2.7 4 1 4 C1 4.66 1 5.32 1 6 C-0.32 5.34 -1.64 4.68 -3 4 C-1.6875 2 -1.6875 2 0 0 Z " fill="#FBF7F5" transform="translate(53,63)"/>
<path d="M0 0 C-2.57784846 2.64752004 -4.91648098 4.94432065 -8 7 C-8.99 7 -9.98 7 -11 7 C-11 6.01 -11 5.02 -11 4 C-9.68 4 -8.36 4 -7 4 C-7 3.01 -7 2.02 -7 1 C-4.53721199 -0.231394 -2.7204945 -0.07159196 0 0 Z " fill="#3085B3" transform="translate(144,171)"/>
<path d="M0 0 C0.33 0.66 0.66 1.32 1 2 C1.99 2.33 2.98 2.66 4 3 C3.01 3.33 2.02 3.66 1 4 C1 4.66 1 5.32 1 6 C2.32 6.66 3.64 7.32 5 8 C1.26512223 7.5020163 -0.81237635 7.12508244 -4 5 C-4 4.34 -4 3.68 -4 3 C-2 1.375 -2 1.375 0 0 Z " fill="#2C85BB" transform="translate(78,172)"/>
<path d="M0 0 C1.35308313 1.31328657 2.68870078 2.64499081 4 4 C3.67 4.99 3.34 5.98 3 7 C2.52949219 6.66226562 2.05898437 6.32453125 1.57421875 5.9765625 C0.95160156 5.53054687 0.32898438 5.08453125 -0.3125 4.625 C-0.92738281 4.18414063 -1.54226562 3.74328125 -2.17578125 3.2890625 C-3.7652392 2.16589093 -5.38062171 1.07958553 -7 0 C-2.25 -1.125 -2.25 -1.125 0 0 Z " fill="#3789BF" transform="translate(155,18)"/>
<path d="M0 0 C5.11365014 1.0681847 10.07227969 2.23107476 15 4 C14.67 4.66 14.34 5.32 14 6 C11.69 5.67 9.38 5.34 7 5 C7 4.67 7 4.34 7 4 C6.030625 3.71125 5.06125 3.4225 4.0625 3.125 C1 2 1 2 0 0 Z " fill="#E3F2F8" transform="translate(117,6)"/>
<path d="M0 0 C0.33 0.99 0.66 1.98 1 3 C-1 6 -1 6 -3 9 C-3.79070548 12.23038842 -3.79070548 12.23038842 -4 15 C-4.99 14.67 -5.98 14.34 -7 14 C-5.53967505 8.68972746 -3.01679014 4.53669968 0 0 Z " fill="#428AB2" transform="translate(81,90)"/>
<path d="M0 0 C0 0.99 0 1.98 0 3 C-3.01490557 4.00496852 -5.04181692 4.10335303 -8.1875 4.0625 C-9.08855469 4.05347656 -9.98960938 4.04445313 -10.91796875 4.03515625 C-11.60503906 4.02355469 -12.29210938 4.01195313 -13 4 C-13 3.01 -13 2.02 -13 1 C-12.06027344 1.01740234 -12.06027344 1.01740234 -11.1015625 1.03515625 C-9.87566406 1.04869141 -9.87566406 1.04869141 -8.625 1.0625 C-7.40683594 1.07990234 -7.40683594 1.07990234 -6.1640625 1.09765625 C-3.79725153 0.9908507 -2.35519775 0 0 0 Z " fill="#4489B6" transform="translate(61,69)"/>
<path d="M0 0 C0.33 0.66 0.66 1.32 1 2 C0.67 2.99 0.34 3.98 0 5 C2.475 5.99 2.475 5.99 5 7 C3.68 7.33 2.36 7.66 1 8 C1 7.34 1 6.68 1 6 C-0.32 6.33 -1.64 6.66 -3 7 C-3 6.01 -3 5.02 -3 4 C-3.99 3.67 -4.98 3.34 -6 3 C-4.02 2.01 -2.04 1.02 0 0 Z " fill="#308BC8" transform="translate(144,184)"/>
<path d="M0 0 C1.74216797 0.02707031 1.74216797 0.02707031 3.51953125 0.0546875 C4.39996094 0.07789063 5.28039062 0.10109375 6.1875 0.125 C6.1875 0.455 6.1875 0.785 6.1875 1.125 C0.2475 1.62 0.2475 1.62 -5.8125 2.125 C-6.1425 3.115 -6.4725 4.105 -6.8125 5.125 C-8.1325 5.125 -9.4525 5.125 -10.8125 5.125 C-11.1425 4.135 -11.4725 3.145 -11.8125 2.125 C-7.73526266 0.17468308 -4.49557578 -0.09081971 0 0 Z " fill="#2B82C2" transform="translate(129.8125,130.875)"/>
<path d="M0 0 C0.33 1.32 0.66 2.64 1 4 C1.66 4 2.32 4 3 4 C3.33 8.62 3.66 13.24 4 18 C0.4317767 12.64766505 -0.32665309 6.36973531 0 0 Z " fill="#3A88B7" transform="translate(42,124)"/>
<path d="M0 0 C4.08963819 2.28538605 7.46362104 4.95706926 11 8 C9.68 8.33 8.36 8.66 7 9 C6.5875 8.360625 6.175 7.72125 5.75 7.0625 C3.82189513 4.79009069 2.88575819 4.39803561 0 4 C0 2.68 0 1.36 0 0 Z " fill="#D6F0F8" transform="translate(155,23)"/>
<path d="M0 0 C1.4800841 0.11362262 2.95910074 0.24122908 4.4375 0.375 C5.26121094 0.44460937 6.08492187 0.51421875 6.93359375 0.5859375 C7.95646484 0.79089844 7.95646484 0.79089844 9 1 C9.33 1.66 9.66 2.32 10 3 C6.53777385 4.06723961 3.35960734 4.10173486 -0.25 4.0625 C-1.32765625 4.05347656 -2.4053125 4.04445313 -3.515625 4.03515625 C-4.33546875 4.02355469 -5.1553125 4.01195312 -6 4 C-6 3.67 -6 3.34 -6 3 C-4.02 2.67 -2.04 2.34 0 2 C0 1.34 0 0.68 0 0 Z " fill="#2988C2" transform="translate(118,2)"/>
<path d="M0 0 C2.6486859 3.19668988 4.93992341 6.39486597 7 10 C4.625 9.6875 4.625 9.6875 2 9 C-0.29013653 5.5647952 -0.17842973 4.014669 0 0 Z " fill="#D5F3F8" transform="translate(48,150)"/>
<path d="M0 0 C-0.66 1.32 -1.32 2.64 -2 4 C-2.66 4 -3.32 4 -4 4 C-4.33 4.99 -4.66 5.98 -5 7 C-5.66 6.67 -6.32 6.34 -7 6 C-6.67 5.01 -6.34 4.02 -6 3 C-6.66 3 -7.32 3 -8 3 C-8 2.34 -8 1.68 -8 1 C-5.07175348 0.02391783 -3.04386724 -0.08226668 0 0 Z " fill="#1C80BA" transform="translate(136,139)"/>
<path d="M0 0 C0.33 0 0.66 0 1 0 C1.20496094 0.89203125 1.40992187 1.7840625 1.62109375 2.703125 C1.89050781 3.87359375 2.15992187 5.0440625 2.4375 6.25 C2.83775391 7.99023438 2.83775391 7.99023438 3.24609375 9.765625 C3.80968 12.18349761 4.38669951 14.59443304 5 17 C4.34 17 3.68 17 3 17 C-0.61601216 11.42531458 -0.30720059 6.39432346 0 0 Z " fill="#458EB6" transform="translate(63,124)"/>
<path d="M0 0 C0.66 0.33 1.32 0.66 2 1 C0 3 0 3 -2 5 C-2.7115625 5.8353125 -2.7115625 5.8353125 -3.4375 6.6875 C-5.50626244 8.42526045 -7.36159497 8.64345878 -10 9 C-6.83047153 5.73991357 -3.60062011 2.77762123 0 0 Z " fill="#4189B6" transform="translate(92,81)"/>
<path d="M0 0 C0.94875 0.350625 1.8975 0.70125 2.875 1.0625 C2.875 1.3925 2.875 1.7225 2.875 2.0625 C-3.065 2.0625 -9.005 2.0625 -15.125 2.0625 C-15.125 1.7325 -15.125 1.4025 -15.125 1.0625 C-14.07699219 0.97162109 -14.07699219 0.97162109 -13.0078125 0.87890625 C-12.09773437 0.79511719 -11.18765625 0.71132812 -10.25 0.625 C-9.34507812 0.54378906 -8.44015625 0.46257812 -7.5078125 0.37890625 C-1.4280303 -0.42840909 -1.4280303 -0.42840909 0 0 Z " fill="#EBFEFF" transform="translate(164.125,134.9375)"/>
<path d="M0 0 C2.11044382 3.16566573 2.75552077 5.51197415 3.625 9.1875 C3.88539062 10.27417969 4.14578125 11.36085937 4.4140625 12.48046875 C4.60742188 13.31191406 4.80078125 14.14335937 5 15 C2.12998946 12.1928938 0.12788417 10.14927906 -0.12109375 5.96484375 C-0.12460114 3.97615591 -0.0662529 1.98758702 0 0 Z " fill="#4A8EB2" transform="translate(6,120)"/>
<path d="M0 0 C-1.875 4.75 -1.875 4.75 -3 7 C-4.32 7 -5.64 7 -7 7 C-4.60526316 0 -4.60526316 0 0 0 Z " fill="#1185D4" transform="translate(92,85)"/>
<path d="M0 0 C0.66 0 1.32 0 2 0 C2.33 2.64 2.66 5.28 3 8 C1.02 8.99 1.02 8.99 -1 10 C-0.67 6.7 -0.34 3.4 0 0 Z " fill="#2581B6" transform="translate(65,56)"/>
<path d="M0 0 C0.99 0.33 1.98 0.66 3 1 C3 1.66 3 2.32 3 3 C3.8971875 3.1546875 3.8971875 3.1546875 4.8125 3.3125 C7.28243264 4.08876455 8.32251235 5.07088921 10 7 C3.51020408 6.51020408 3.51020408 6.51020408 1.0625 4.0625 C0 2 0 2 0 0 Z " fill="#D5F1F8" transform="translate(145,16)"/>
<path d="M0 0 C3.17218843 3.62535821 4.42902597 7.51150278 6 12 C4.68 12.33 3.36 12.66 2 13 C1.20439236 10.08500057 0.74677501 7.25438581 0.4375 4.25 C0.31181641 3.05117187 0.31181641 3.05117187 0.18359375 1.828125 C0.12300781 1.22484375 0.06242187 0.6215625 0 0 Z " fill="#2C82BC" transform="translate(16,146)"/>
<path d="M0 0 C0.66 0 1.32 0 2 0 C2 0.99 2 1.98 2 3 C2.99 3 3.98 3 5 3 C7.125 7.625 7.125 7.625 6 11 C4.9944239 9.54550599 3.99569565 8.08627557 3 6.625 C2.443125 5.81289062 1.88625 5.00078125 1.3125 4.1640625 C0 2 0 2 0 0 Z " fill="#CDF1FA" transform="translate(17,146)"/>
<path d="M0 0 C2.475 0.495 2.475 0.495 5 1 C5 1.66 5 2.32 5 3 C6.134375 3.28875 7.26875 3.5775 8.4375 3.875 C9.613125 4.24625 10.78875 4.6175 12 5 C12.33 5.66 12.66 6.32 13 7 C7.92990529 6.52467862 4.02506742 3.95637706 0 1 C0 0.67 0 0.34 0 0 Z " fill="#4688B3" transform="translate(87,144)"/>
<path d="M0 0 C4.95 0 9.9 0 15 0 C15.33 1.65 15.66 3.3 16 5 C14.0625 4.625 14.0625 4.625 12 4 C11.67 3.34 11.34 2.68 11 2 C8.41394668 1.5316735 8.41394668 1.5316735 5.4375 1.375 C3.91962891 1.26285156 3.91962891 1.26285156 2.37109375 1.1484375 C1.19740234 1.07496094 1.19740234 1.07496094 0 1 C0 0.67 0 0.34 0 0 Z " fill="#D8F4F7" transform="translate(176,72)"/>
<path d="M0 0 C0.78375 0.04125 1.5675 0.0825 2.375 0.125 C1.39933888 1.29459987 0.419375 2.46061177 -0.5625 3.625 C-1.10777344 4.2746875 -1.65304688 4.924375 -2.21484375 5.59375 C-2.68019531 6.0990625 -3.14554688 6.604375 -3.625 7.125 C-3.955 7.125 -4.285 7.125 -4.625 7.125 C-4.75 4.75 -4.75 4.75 -4.625 2.125 C-2.625 0.125 -2.625 0.125 0 0 Z " fill="#DEF1FD" transform="translate(51.625,56.875)"/>
<path d="M0 0 C4.87362847 0.45336079 7.39042389 1.7089159 11 5 C8 6 8 6 5.95703125 5.0390625 C5.24933594 4.57242188 4.54164062 4.10578125 3.8125 3.625 C3.09707031 3.16351563 2.38164063 2.70203125 1.64453125 2.2265625 C1.10183594 1.82179687 0.55914062 1.41703125 0 1 C0 0.67 0 0.34 0 0 Z " fill="#D4F2FA" transform="translate(45,178)"/>
<path d="M0 0 C0.66 0.33 1.32 0.66 2 1 C1.34 2.65 0.68 4.3 0 6 C-2.31 5.67 -4.62 5.34 -7 5 C-4.702779 3.25728062 -2.40133271 1.60088848 0 0 Z " fill="#D3EEF7" transform="translate(140,174)"/>
<path d="M0 0 C1.29608947 0.93137592 2.58671632 1.8703566 3.875 2.8125 C4.59429687 3.33457031 5.31359375 3.85664063 6.0546875 4.39453125 C8 6 8 6 10 9 C8.68 9 7.36 9 6 9 C4.95374591 7.70264493 3.95298777 6.36733028 3 5 C2.01 4.67 1.02 4.34 0 4 C0 2.68 0 1.36 0 0 Z " fill="#3783B2" transform="translate(31,167)"/>
<path d="M0 0 C2.30142435 1.78174788 3.80034391 3.16304165 4.48828125 6.046875 C4.72323102 8.0246611 4.86751458 10.01271872 5 12 C2.2289312 9.65408148 1.47940716 7.85223799 0.8125 4.3125 C0.65394531 3.50425781 0.49539063 2.69601563 0.33203125 1.86328125 C0.22246094 1.24839844 0.11289063 0.63351563 0 0 Z " fill="#2784B4" transform="translate(9,134)"/>
<path d="M0 0 C-1.15173355 2.46800047 -2.04783565 4.04783565 -4 6 C-4.99 5.67 -5.98 5.34 -7 5 C-6.6875 3.0625 -6.6875 3.0625 -6 1 C-3 0 -3 0 0 0 Z " fill="#3B83B1" transform="translate(40,24)"/>
<path d="M0 0 C0 0.33 0 0.66 0 1 C-1.65 1.33 -3.3 1.66 -5 2 C-5.33 3.65 -5.66 5.3 -6 7 C-6.99 7 -7.98 7 -9 7 C-8.625 4.0625 -8.625 4.0625 -8 1 C-5.29120665 -0.35439668 -2.99066732 -0.06501451 0 0 Z " fill="#E1F6FB" transform="translate(16,73)"/>
<path d="M0 0 C0.99 0.33 1.98 0.66 3 1 C1.02 3.31 -0.96 5.62 -3 8 C-5 4 -5 4 -5 3 C-3.35 3 -1.7 3 0 3 C0 2.01 0 1.02 0 0 Z " fill="#3987B8" transform="translate(29,32)"/>
<path d="M0 0 C0 3.6952982 -0.72136847 5.11373339 -3 8 C-6.1875 8.8125 -6.1875 8.8125 -9 9 C-6 6 -3 3 0 0 Z " fill="#C7E9F7" transform="translate(151,165)"/>
<path d="M0 0 C0 0.66 0 1.32 0 2 C-5.41538462 4.21538462 -5.41538462 4.21538462 -8.375 3.125 C-8.91125 2.75375 -9.4475 2.3825 -10 2 C-10 1.67 -10 1.34 -10 1 C-6.56484998 0.37542727 -3.50935186 0 0 0 Z " fill="#FBF8F0" transform="translate(116,159)"/>
<path d="M0 0 C0.33 0 0.66 0 1 0 C1 2.97 1 5.94 1 9 C0.01 9.495 0.01 9.495 -1 10 C-2.23076923 4.58461538 -2.23076923 4.58461538 -1.0625 1.625 C-0.5365625 0.820625 -0.5365625 0.820625 0 0 Z " fill="#177FCA" transform="translate(77,116)"/>
<path d="M0 0 C1.98 0 3.96 0 6 0 C5.67 1.32 5.34 2.64 5 4 C2.03 3.505 2.03 3.505 -1 3 C-0.67 2.01 -0.34 1.02 0 0 Z " fill="#1085BA" transform="translate(74,2)"/>
<path d="M0 0 C1.32 0.66 2.64 1.32 4 2 C4 2.99 4 3.98 4 5 C3.34 5 2.68 5 2 5 C1.67 5.66 1.34 6.32 1 7 C0.34 7 -0.32 7 -1 7 C-0.67 4.69 -0.34 2.38 0 0 Z " fill="#187FBC" transform="translate(53,185)"/>
<path d="M0 0 C0 0.99 0 1.98 0 3 C-2.64 3 -5.28 3 -8 3 C-8 2.34 -8 1.68 -8 1 C-5.07175348 0.02391783 -3.04386724 -0.08226668 0 0 Z " fill="#FEF8EB" transform="translate(128,186)"/>
<path d="M0 0 C2.64 0.33 5.28 0.66 8 1 C5.64031256 3.09749995 4.45383006 3.96905704 1.25 4.1875 C0.13625 4.0946875 0.13625 4.0946875 -1 4 C-0.67 2.68 -0.34 1.36 0 0 Z " fill="#2B7EB4" transform="translate(125,177)"/>
<path d="M0 0 C0 0.99 0 1.98 0 3 C-0.66 3 -1.32 3 -2 3 C-2.33 3.99 -2.66 4.98 -3 6 C-5.0625 7.1875 -5.0625 7.1875 -7 8 C-4.18918919 0 -4.18918919 0 0 0 Z " fill="#2884AB" transform="translate(168,168)"/>
<path d="M0 0 C1.32 0.33 2.64 0.66 4 1 C4 1.66 4 2.32 4 3 C3.34 3 2.68 3 2 3 C2 3.66 2 4.32 2 5 C0.68 4.67 -0.64 4.34 -2 4 C-1.34 2.68 -0.68 1.36 0 0 Z " fill="#FAF8EF" transform="translate(77,143)"/>
<path d="M0 0 C0.33 0 0.66 0 1 0 C1.33 2.31 1.66 4.62 2 7 C1.34 7 0.68 7 0 7 C0 7.99 0 8.98 0 10 C-0.99 10 -1.98 10 -3 10 C-2.01 6.7 -1.02 3.4 0 0 Z " fill="#3E89C4" transform="translate(190,128)"/>
<path d="M0 0 C1.875 0.1875 1.875 0.1875 4 1 C5.25 3.5625 5.25 3.5625 6 6 C5.01 6.33 4.02 6.66 3 7 C2.67 5.68 2.34 4.36 2 3 C1.34 3 0.68 3 0 3 C0 2.01 0 1.02 0 0 Z " fill="#1288CF" transform="translate(132,89)"/>
<path d="M0 0 C5.44693314 -0.09688221 10.63904667 -0.12862175 16 1 C12.77208445 3.1519437 11.71599191 3.20086443 8 3 C8 2.34 8 1.68 8 1 C5.36 1 2.72 1 0 1 C0 0.67 0 0.34 0 0 Z " fill="#5597C1" transform="translate(104,77)"/>
<path d="M0 0 C-2.6855594 2.6855594 -5.37621328 3.06049974 -9 4 C-9.33 3.01 -9.66 2.02 -10 1 C-6.61981469 -0.04005702 -3.5219721 -0.08004482 0 0 Z " fill="#DCF6FD" transform="translate(138,187)"/>
<path d="M0 0 C1.65 1.65 3.3 3.3 5 5 C4.01 5.66 3.02 6.32 2 7 C0.68 5.68 -0.64 4.36 -2 3 C-1.34 3 -0.68 3 0 3 C0 2.01 0 1.02 0 0 Z " fill="#D6EFF9" transform="translate(55,160)"/>
<path d="M0 0 C3.875 4.75 3.875 4.75 5 7 C4.01 7.33 3.02 7.66 2 8 C2 7.34 2 6.68 2 6 C1.34 6 0.68 6 0 6 C-0.38218767 4.34385343 -0.71395102 2.67542976 -1 1 C-0.67 0.67 -0.34 0.34 0 0 Z " fill="#388DBF" transform="translate(91,123)"/>
<path d="M0 0 C1.98 0.495 1.98 0.495 4 1 C3.34 1.66 2.68 2.32 2 3 C1.75746187 5.21072977 1.75746187 5.21072977 1.875 7.625 C1.89304688 8.44226563 1.91109375 9.25953125 1.9296875 10.1015625 C1.95289063 10.72804688 1.97609375 11.35453125 2 12 C0.4284518 8.97877877 -0.56374175 6.40281437 -1 3 C-0.67 2.01 -0.34 1.02 0 0 Z " fill="#DBEDF3" transform="translate(145,96)"/>
<path d="M0 0 C2.0625 0.4375 2.0625 0.4375 4 1 C4.33 2.65 4.66 4.3 5 6 C1.83884224 4.63016497 1.0072908 4.0109362 -1 1 C-0.67 0.67 -0.34 0.34 0 0 Z " fill="#FEFAF1" transform="translate(136,83)"/>
<path d="M0 0 C0.99 0.33 1.98 0.66 3 1 C3 2.32 3 3.64 3 5 C1.02 5.99 1.02 5.99 -1 7 C-1.04254356 5.00045254 -1.04080783 2.99958364 -1 1 C-0.67 0.67 -0.34 0.34 0 0 Z " fill="#E6F3F2" transform="translate(97,73)"/>
<path d="M0 0 C0 0.99 0 1.98 0 3 C-2.35171131 2.40138258 -4.6859378 1.73075648 -7 1 C-7.33 0.34 -7.66 -0.32 -8 -1 C-4.37673261 -2.2077558 -3.35853631 -1.54311128 0 0 Z " fill="#3388C0" transform="translate(144,12)"/>
<path d="M0 0 C0.33 1.65 0.66 3.3 1 5 C-1.64 4.01 -4.28 3.02 -7 2 C-7 1.67 -7 1.34 -7 1 C-2.25 0 -2.25 0 0 0 Z " fill="#DEF0F9" transform="translate(66,185)"/>
<path d="M0 0 C1.8871875 0.061875 1.8871875 0.061875 3.8125 0.125 C0.1875 3.125 0.1875 3.125 -3.1875 3.125 C-4.52731486 2.8187566 -5.86261887 2.49048445 -7.1875 2.125 C-4.09861478 0.06574319 -3.47814073 -0.1140374 0 0 Z " fill="#2F86B6" transform="translate(153.1875,180.875)"/>
<path d="M0 0 C0.33 0.66 0.66 1.32 1 2 C0.67 2.66 0.34 3.32 0 4 C-2.06640625 4.4140625 -2.06640625 4.4140625 -4.5625 4.625 C-5.38878906 4.69976562 -6.21507813 4.77453125 -7.06640625 4.8515625 C-8.02353516 4.92503906 -8.02353516 4.92503906 -9 5 C-6.3534665 2.3534665 -3.43778736 1.40058003 0 0 Z " fill="#478CBA" transform="translate(129,158)"/>
<path d="M0 0 C0.66 0.33 1.32 0.66 2 1 C2.59355614 3.64860427 2.74209269 6.29197322 3 9 C0.20127563 6.47211993 -1.45773019 4.79588866 -2 1 C-1.34 0.67 -0.68 0.34 0 0 Z " fill="#D9F6FA" transform="translate(70,138)"/>
<path d="M0 0 C2.31 1.98 4.62 3.96 7 6 C5.68 6.33 4.36 6.66 3 7 C1.25 5.8125 1.25 5.8125 0 4 C0 2.68 0 1.36 0 0 Z " fill="#2281BF" transform="translate(24,161)"/>
<path d="M0 0 C1.24546405 2.49092811 0.7767578 3.41080733 0 6 C-1.65 6.33 -3.3 6.66 -5 7 C-1.125 1.125 -1.125 1.125 0 0 Z " fill="#C0E4F4" transform="translate(157,158)"/>
<path d="M0 0 C5.53846154 0.61538462 5.53846154 0.61538462 7.875 2.5625 C8.431875 3.2740625 8.431875 3.2740625 9 4 C8.67 4.66 8.34 5.32 8 6 C7.236875 5.38125 6.47375 4.7625 5.6875 4.125 C3.00374191 1.94402948 3.00374191 1.94402948 0 0 Z " fill="#CDECF8" transform="translate(125,80)"/>
<path d="M0 0 C0.99 0 1.98 0 3 0 C3 1.98 3 3.96 3 6 C2.01 6 1.02 6 0 6 C0 4.02 0 2.04 0 0 Z " fill="#1F7FD6" transform="translate(47,74)"/>
<path d="M0 0 C1 2 1 2 1 5 C1.66 5.66 2.32 6.32 3 7 C0.03 6.505 0.03 6.505 -3 6 C-3 5.01 -3 4.02 -3 3 C-2.34 3 -1.68 3 -1 3 C-0.67 2.01 -0.34 1.02 0 0 Z " fill="#B9E4EE" transform="translate(49,64)"/>
<path d="M0 0 C0.66 0 1.32 0 2 0 C1.34 1.98 0.68 3.96 0 6 C-0.99 6 -1.98 6 -3 6 C-2.67 4.68 -2.34 3.36 -2 2 C-1.34 2 -0.68 2 0 2 C0 1.34 0 0.68 0 0 Z " fill="#FDFBF8" transform="translate(61,56)"/>
<path d="M0 0 C2.475 0.495 2.475 0.495 5 1 C3.25 4.875 3.25 4.875 1 6 C0.67 4.02 0.34 2.04 0 0 Z " fill="#2B81B5" transform="translate(19,40)"/>
<path d="M0 0 C3.375 -0.125 3.375 -0.125 7 0 C7.66 0.66 8.32 1.32 9 2 C5.62182575 2.84454356 3.32534757 3.10844919 0 2 C0 1.34 0 0.68 0 0 Z " fill="#1C82B6" transform="translate(83,178)"/>
<path d="M0 0 C1.98 0.495 1.98 0.495 4 1 C4 1.99 4 2.98 4 4 C2.35 4.66 0.7 5.32 -1 6 C-0.67 4.02 -0.34 2.04 0 0 Z " fill="#F1FBF7" transform="translate(56,172)"/>
<path d="M0 0 C0.99 0.33 1.98 0.66 3 1 C-0.465 3.97 -0.465 3.97 -4 7 C-4 6.01 -4 5.02 -4 4 C-3.34 4 -2.68 4 -2 4 C-2 3.34 -2 2.68 -2 2 C-1.34 2 -0.68 2 0 2 C0 1.34 0 0.68 0 0 Z " fill="#D5F0F7" transform="translate(137,149)"/>
<path d="M0 0 C2.475 0.495 2.475 0.495 5 1 C5.33 2.32 5.66 3.64 6 5 C4.125 4.75 4.125 4.75 2 4 C0.75 1.9375 0.75 1.9375 0 0 Z " fill="#E1F6FD" transform="translate(73,147)"/>
<path d="M0 0 C1.42944945 2.35438733 2.08661261 3.48032433 1.625 6.25 C1.41875 6.8275 1.2125 7.405 1 8 C0.34 8 -0.32 8 -1 8 C-1.125 2.25 -1.125 2.25 0 0 Z " fill="#227FBD" transform="translate(192,124)"/>
<path d="M0 0 C0.66 0 1.32 0 2 0 C2 0.66 2 1.32 2 2 C3.65 2 5.3 2 7 2 C7.33 3.32 7.66 4.64 8 6 C4.64532525 4.82133049 2.28780716 3.76945078 0 1 C0 0.67 0 0.34 0 0 Z " fill="#CAEAF7" transform="translate(95,128)"/>
<path d="M0 0 C0.66 0 1.32 0 2 0 C3.06652192 2.30368736 4.06421005 4.64018187 5 7 C4.67 7.66 4.34 8.32 4 9 C0 2.25 0 2.25 0 0 Z " fill="#D1F1FB" transform="translate(90,119)"/>
<path d="M0 0 C1.32 1.32 2.64 2.64 4 4 C1.69 3.67 -0.62 3.34 -3 3 C-3.33 3.99 -3.66 4.98 -4 6 C-4 4.68 -4 3.36 -4 2 C-2.68 2 -1.36 2 0 2 C0 1.34 0 0.68 0 0 Z " fill="#3B90C4" transform="translate(134,86)"/>
<path d="M0 0 C6.52307692 -0.36923077 6.52307692 -0.36923077 8.9375 1.5 C9.288125 1.995 9.63875 2.49 10 3 C2.25 2.25 2.25 2.25 0 0 Z " fill="#488FB6" transform="translate(120,6)"/>
</svg>
